<?xml version="1.0" encoding="UTF-8" standalone="no"?>
<!-- Generator: Adobe Illustrator 26.0.3, SVG Export Plug-In . SVG Version: 6.00 Build 0)  -->

<svg
   version="1.1"
   id="Layer_1"
   x="0px"
   y="0px"
   viewBox="0 0 972.17 871.23"
   style="enable-background:new 0 0 972.17 871.23;"
   xml:space="preserve"
   sodipodi:docname="comcarde-web-google-pay-checkout-module-components.svg"
   inkscape:version="1.2.1 (9c6d41e4, 2022-07-14)"
   xmlns:inkscape="http://www.inkscape.org/namespaces/inkscape"
   xmlns:sodipodi="http://sodipodi.sourceforge.net/DTD/sodipodi-0.dtd"
   xmlns="http://www.w3.org/2000/svg"
   xmlns:svg="http://www.w3.org/2000/svg"><defs
   id="defs13098"><rect
     x="645.54578"
     y="15.927834"
     width="174.26926"
     height="59.963612"
     id="rect908" /><rect
     x="645.54578"
     y="15.927834"
     width="174.26926"
     height="59.963612"
     id="rect908-8" /><rect
     x="60.422371"
     y="33.987583"
     width="202.9814"
     height="54.757774"
     id="rect3960" /></defs><sodipodi:namedview
   id="namedview13096"
   pagecolor="#ffffff"
   bordercolor="#000000"
   borderopacity="0.25"
   inkscape:showpageshadow="2"
   inkscape:pageopacity="0.0"
   inkscape:pagecheckerboard="0"
   inkscape:deskcolor="#d1d1d1"
   showgrid="false"
   inkscape:zoom="1.0835256"
   inkscape:cx="491.45123"
   inkscape:cy="440.69101"
   inkscape:window-width="2560"
   inkscape:window-height="1387"
   inkscape:window-x="0"
   inkscape:window-y="25"
   inkscape:window-maximized="1"
   inkscape:current-layer="g13093" />
<style
   type="text/css"
   id="style12208">
	.st0{stroke:#999;stroke-width:1.5;}
	.st1{fill:#FFFFFF;}
	.st2{fill:#4285F4;}
	.st3{fill:#34A853;}
	.st4{fill:#FBBC04;}
	.st5{fill:#EA4335;}
	.st6{fill:#CBCBCB;}
	.st7{fill:#B2B2B2;}
	.st8{fill:none;stroke:#CCCCCC;stroke-width:2;}
	.st9{fill:#ECECEC;}
	.st10{fill:none;stroke:#FFFFFF;stroke-miterlimit:10;}
	.st11{fill:#95DCAB;}
	.st12{fill:#558A72;}
	.st13{fill:#D4D4D4;}
	.st14{fill:#646363;}
	.st15{enable-background:new;fill:#999}
	.st16{fill:none;stroke:#999;stroke-width:1.5;stroke-miterlimit:10;}
	.st17{fill:#7BDFA7;}
	.st18{fill:none;stroke:#999;stroke-width:1.5;}
	.st19{fill:#5F6368;}
</style>
<g
   id="g13093">
	<path
   class="st0"
   d="m 366.91,230.87 h -250 c -2.76,0 -5,-2.24 -5,-5 v -20 c 0,-2.76 2.24,-5 5,-5 h 250 c 2.76,0 5,2.24 5,5 v 20 c 0,2.76 -2.24,5 -5,5 z"
   id="path12210" />
	<path
   class="st1"
   d="m 261.38,215.64 v 4.55 h -1.44 v -11.24 h 3.83 c 0.92,-0.02 1.81,0.33 2.48,0.98 0.67,0.6 1.05,1.47 1.03,2.37 0.02,0.91 -0.36,1.77 -1.03,2.38 -0.67,0.64 -1.5,0.96 -2.47,0.96 z m 0,-5.3 v 3.93 h 2.42 c 0.54,0.02 1.06,-0.2 1.43,-0.58 0.76,-0.73 0.77,-1.95 0.04,-2.71 l -0.04,-0.04 c -0.37,-0.39 -0.89,-0.61 -1.43,-0.59 z m 9.22,1.91 c 1.07,0 1.91,0.29 2.53,0.85 0.62,0.57 0.92,1.35 0.92,2.35 v 4.73 h -1.38 v -1.07 h -0.06 c -0.6,0.88 -1.39,1.32 -2.38,1.32 -0.84,0 -1.56,-0.25 -2.12,-0.75 -0.56,-0.47 -0.87,-1.16 -0.85,-1.88 0,-0.8 0.3,-1.43 0.91,-1.9 0.61,-0.47 1.41,-0.71 2.41,-0.71 0.86,0 1.56,0.16 2.12,0.47 v -0.33 c 0,-0.49 -0.22,-0.96 -0.59,-1.27 -0.39,-0.34 -0.88,-0.53 -1.39,-0.53 -0.81,0 -1.44,0.34 -1.92,1.02 l -1.27,-0.8 c 0.67,-0.99 1.7,-1.5 3.07,-1.5 z m -1.86,5.59 c 0,0.38 0.18,0.73 0.48,0.94 0.32,0.25 0.72,0.39 1.12,0.38 0.61,0 1.19,-0.24 1.62,-0.67 0.48,-0.45 0.72,-0.98 0.72,-1.59 -0.45,-0.36 -1.08,-0.54 -1.88,-0.54 -0.58,0 -1.08,0.14 -1.47,0.42 -0.39,0.29 -0.59,0.64 -0.59,1.06 z m 13.24,-5.33 -4.82,11.08 h -1.49 l 1.79,-3.87 -3.17,-7.2 h 1.57 l 2.29,5.52 h 0.04 l 2.23,-5.52 z"
   id="path12212" />
	<path
   class="st2"
   d="m 255.55,214.66 c 0,-0.44 -0.04,-0.88 -0.11,-1.31 h -6.09 v 2.48 h 3.49 c -0.14,0.8 -0.61,1.51 -1.29,1.96 v 1.61 h 2.08 c 1.22,-1.11 1.92,-2.77 1.92,-4.74 z"
   id="path12214" />
	<path
   class="st3"
   d="m 249.35,220.97 c 1.74,0 3.21,-0.57 4.28,-1.56 l -2.08,-1.61 c -0.58,0.39 -1.33,0.62 -2.2,0.62 -1.69,0 -3.11,-1.14 -3.62,-2.66 h -2.14 v 1.67 c 1.09,2.16 3.32,3.54 5.76,3.54 z"
   id="path12216" />
	<path
   class="st4"
   d="m 245.73,215.75 c -0.27,-0.8 -0.27,-1.67 0,-2.47 v -1.66 h -2.14 c -0.92,1.82 -0.92,3.97 0,5.79 z"
   id="path12218" />
	<path
   class="st5"
   d="m 249.35,210.61 c 0.92,-0.02 1.81,0.33 2.47,0.97 l 1.84,-1.84 c -1.17,-1.1 -2.71,-1.7 -4.31,-1.69 -2.44,0 -4.67,1.38 -5.76,3.56 l 2.14,1.67 c 0.51,-1.53 1.94,-2.67 3.62,-2.67 z"
   id="path12220" />
	
	
	
	
	
	
	<path
   class="st8"
   d="M941.17,190.23h-260c-16.57,0-30-13.43-30-30V71.45c0-16.57,13.43-30,30-30h260c16.57,0,30,13.43,30,30v88.78   C971.17,176.8,957.74,190.23,941.17,190.23z"
   id="path12242" />
	<path
   class="st8"
   d="M941.17,870.23h-260c-16.57,0-30-13.43-30-30V286.57c0-16.57,13.43-30,30-30h260c16.57,0,30,13.43,30,30   v553.67C971.17,856.8,957.74,870.23,941.17,870.23z"
   id="path12244" />
	<g
   id="g12572">
		<g
   id="g12456">
			<g
   id="g12286">
				<rect
   x="693.67"
   y="652.34"
   class="st9"
   width="235"
   height="65"
   id="rect12246" />
				<rect
   x="701.17"
   y="659.84"
   class="st10"
   width="157.5"
   height="50"
   id="rect12248" />
				<rect
   x="708.67"
   y="664.84"
   class="st11"
   width="5"
   height="40"
   id="rect12250" />
				<rect
   x="721.17"
   y="664.84"
   class="st12"
   width="5"
   height="40"
   id="rect12252" />
				<rect
   x="733.67"
   y="664.84"
   class="st12"
   width="5"
   height="40"
   id="rect12254" />
				<rect
   x="746.17"
   y="664.84"
   class="st12"
   width="5"
   height="40"
   id="rect12256" />
				<rect
   x="758.67"
   y="664.84"
   class="st12"
   width="5"
   height="40"
   id="rect12258" />
				<rect
   x="771.17"
   y="664.84"
   class="st12"
   width="5"
   height="40"
   id="rect12260" />
				<rect
   x="783.67"
   y="664.84"
   class="st12"
   width="5"
   height="40"
   id="rect12262" />
				<rect
   x="796.17"
   y="664.84"
   class="st12"
   width="5"
   height="40"
   id="rect12264" />
				<rect
   x="808.67"
   y="664.84"
   class="st12"
   width="5"
   height="40"
   id="rect12266" />
				<rect
   x="821.17"
   y="664.84"
   class="st12"
   width="5"
   height="40"
   id="rect12268" />
				<rect
   x="833.67"
   y="664.84"
   class="st12"
   width="5"
   height="40"
   id="rect12270" />
				<rect
   x="846.17"
   y="664.84"
   class="st12"
   width="5"
   height="40"
   id="rect12272" />
				<rect
   x="913.67"
   y="659.84"
   class="st12"
   width="7.5"
   height="50"
   id="rect12274" />
				<circle
   class="st1"
   cx="902.17"
   cy="663.84"
   r="4"
   id="circle12276" />
				<circle
   class="st12"
   cx="902.17"
   cy="677.84"
   r="4"
   id="circle12278" />
				<circle
   class="st12"
   cx="902.17"
   cy="705.84"
   r="4"
   id="circle12280" />
				<circle
   class="st11"
   cx="902.17"
   cy="691.84"
   r="4"
   id="circle12282" />
				<rect
   x="701.17"
   y="717.34"
   class="st13"
   width="220"
   height="5"
   id="rect12284" />
			</g>
			<g
   id="g12328">
				<rect
   x="693.67"
   y="582.34"
   class="st9"
   width="235"
   height="65"
   id="rect12288" />
				<rect
   x="701.17"
   y="589.84"
   class="st10"
   width="157.5"
   height="50"
   id="rect12290" />
				<rect
   x="708.67"
   y="594.84"
   class="st12"
   width="5"
   height="40"
   id="rect12292" />
				<rect
   x="721.17"
   y="594.84"
   class="st12"
   width="5"
   height="40"
   id="rect12294" />
				<rect
   x="733.67"
   y="594.84"
   class="st12"
   width="5"
   height="40"
   id="rect12296" />
				<rect
   x="746.17"
   y="594.84"
   class="st12"
   width="5"
   height="40"
   id="rect12298" />
				<rect
   x="758.67"
   y="594.84"
   class="st12"
   width="5"
   height="40"
   id="rect12300" />
				<rect
   x="771.17"
   y="594.84"
   class="st12"
   width="5"
   height="40"
   id="rect12302" />
				<rect
   x="783.67"
   y="594.84"
   class="st12"
   width="5"
   height="40"
   id="rect12304" />
				<rect
   x="796.17"
   y="594.84"
   class="st12"
   width="5"
   height="40"
   id="rect12306" />
				<rect
   x="808.67"
   y="594.84"
   class="st12"
   width="5"
   height="40"
   id="rect12308" />
				<rect
   x="821.17"
   y="594.84"
   class="st12"
   width="5"
   height="40"
   id="rect12310" />
				<rect
   x="833.67"
   y="594.84"
   class="st11"
   width="5"
   height="40"
   id="rect12312" />
				<rect
   x="846.17"
   y="594.84"
   class="st12"
   width="5"
   height="40"
   id="rect12314" />
				<rect
   x="913.67"
   y="589.84"
   class="st12"
   width="7.5"
   height="50"
   id="rect12316" />
				<circle
   class="st11"
   cx="902.17"
   cy="593.84"
   r="4"
   id="circle12318" />
				<circle
   class="st12"
   cx="902.17"
   cy="607.84"
   r="4"
   id="circle12320" />
				<circle
   class="st1"
   cx="902.17"
   cy="635.84"
   r="4"
   id="circle12322" />
				<circle
   class="st12"
   cx="902.17"
   cy="621.84"
   r="4"
   id="circle12324" />
				<rect
   x="701.17"
   y="647.34"
   class="st13"
   width="220"
   height="5"
   id="rect12326" />
			</g>
			<g
   id="g12370">
				<rect
   x="693.67"
   y="512.34"
   class="st9"
   width="235"
   height="65"
   id="rect12330" />
				<rect
   x="701.17"
   y="519.84"
   class="st10"
   width="157.5"
   height="50"
   id="rect12332" />
				<rect
   x="708.67"
   y="524.84"
   class="st12"
   width="5"
   height="40"
   id="rect12334" />
				<rect
   x="721.17"
   y="524.84"
   class="st12"
   width="5"
   height="40"
   id="rect12336" />
				<rect
   x="733.67"
   y="524.84"
   class="st12"
   width="5"
   height="40"
   id="rect12338" />
				<rect
   x="746.17"
   y="524.84"
   class="st12"
   width="5"
   height="40"
   id="rect12340" />
				<rect
   x="758.67"
   y="524.84"
   class="st11"
   width="5"
   height="40"
   id="rect12342" />
				<rect
   x="771.17"
   y="524.84"
   class="st12"
   width="5"
   height="40"
   id="rect12344" />
				<rect
   x="783.67"
   y="524.84"
   class="st12"
   width="5"
   height="40"
   id="rect12346" />
				<rect
   x="796.17"
   y="524.84"
   class="st12"
   width="5"
   height="40"
   id="rect12348" />
				<rect
   x="808.67"
   y="524.84"
   class="st12"
   width="5"
   height="40"
   id="rect12350" />
				<rect
   x="821.17"
   y="524.84"
   class="st12"
   width="5"
   height="40"
   id="rect12352" />
				<rect
   x="833.67"
   y="524.84"
   class="st12"
   width="5"
   height="40"
   id="rect12354" />
				<rect
   x="846.17"
   y="524.84"
   class="st12"
   width="5"
   height="40"
   id="rect12356" />
				<rect
   x="913.67"
   y="519.84"
   class="st12"
   width="7.5"
   height="50"
   id="rect12358" />
				<circle
   class="st12"
   cx="902.17"
   cy="523.84"
   r="4"
   id="circle12360" />
				<circle
   class="st11"
   cx="902.17"
   cy="537.84"
   r="4"
   id="circle12362" />
				<circle
   class="st12"
   cx="902.17"
   cy="565.84"
   r="4"
   id="circle12364" />
				<circle
   class="st1"
   cx="902.17"
   cy="551.84"
   r="4"
   id="circle12366" />
				<rect
   x="701.17"
   y="577.34"
   class="st13"
   width="220"
   height="5"
   id="rect12368" />
			</g>
			<g
   id="g12412">
				<rect
   x="693.67"
   y="442.34"
   class="st9"
   width="235"
   height="65"
   id="rect12372" />
				<rect
   x="701.17"
   y="449.84"
   class="st10"
   width="157.5"
   height="50"
   id="rect12374" />
				<rect
   x="708.67"
   y="454.84"
   class="st12"
   width="5"
   height="40"
   id="rect12376" />
				<rect
   x="721.17"
   y="454.84"
   class="st12"
   width="5"
   height="40"
   id="rect12378" />
				<rect
   x="733.67"
   y="454.84"
   class="st12"
   width="5"
   height="40"
   id="rect12380" />
				<rect
   x="746.17"
   y="454.84"
   class="st12"
   width="5"
   height="40"
   id="rect12382" />
				<rect
   x="758.67"
   y="454.84"
   class="st12"
   width="5"
   height="40"
   id="rect12384" />
				<rect
   x="771.17"
   y="454.84"
   class="st12"
   width="5"
   height="40"
   id="rect12386" />
				<rect
   x="783.67"
   y="454.84"
   class="st12"
   width="5"
   height="40"
   id="rect12388" />
				<rect
   x="796.17"
   y="454.84"
   class="st12"
   width="5"
   height="40"
   id="rect12390" />
				<rect
   x="808.67"
   y="454.84"
   class="st12"
   width="5"
   height="40"
   id="rect12392" />
				<rect
   x="821.17"
   y="454.84"
   class="st12"
   width="5"
   height="40"
   id="rect12394" />
				<rect
   x="833.67"
   y="454.84"
   class="st12"
   width="5"
   height="40"
   id="rect12396" />
				<rect
   x="846.17"
   y="454.84"
   class="st11"
   width="5"
   height="40"
   id="rect12398" />
				<rect
   x="913.67"
   y="449.84"
   class="st12"
   width="7.5"
   height="50"
   id="rect12400" />
				<circle
   class="st11"
   cx="902.17"
   cy="453.84"
   r="4"
   id="circle12402" />
				<circle
   class="st12"
   cx="902.17"
   cy="467.84"
   r="4"
   id="circle12404" />
				<circle
   class="st1"
   cx="902.17"
   cy="495.84"
   r="4"
   id="circle12406" />
				<circle
   class="st12"
   cx="902.17"
   cy="481.84"
   r="4"
   id="circle12408" />
				<rect
   x="701.17"
   y="507.34"
   class="st13"
   width="220"
   height="5"
   id="rect12410" />
			</g>
			<g
   id="g12454">
				<rect
   x="693.67"
   y="372.34"
   class="st9"
   width="235"
   height="65"
   id="rect12414" />
				<rect
   x="701.17"
   y="379.84"
   class="st10"
   width="157.5"
   height="50"
   id="rect12416" />
				<rect
   x="708.67"
   y="384.84"
   class="st12"
   width="5"
   height="40"
   id="rect12418" />
				<rect
   x="721.17"
   y="384.84"
   class="st11"
   width="5"
   height="40"
   id="rect12420" />
				<rect
   x="733.67"
   y="384.84"
   class="st12"
   width="5"
   height="40"
   id="rect12422" />
				<rect
   x="746.17"
   y="384.84"
   class="st12"
   width="5"
   height="40"
   id="rect12424" />
				<rect
   x="758.67"
   y="384.84"
   class="st12"
   width="5"
   height="40"
   id="rect12426" />
				<rect
   x="771.17"
   y="384.84"
   class="st12"
   width="5"
   height="40"
   id="rect12428" />
				<rect
   x="783.67"
   y="384.84"
   class="st12"
   width="5"
   height="40"
   id="rect12430" />
				<rect
   x="796.17"
   y="384.84"
   class="st12"
   width="5"
   height="40"
   id="rect12432" />
				<rect
   x="808.67"
   y="384.84"
   class="st12"
   width="5"
   height="40"
   id="rect12434" />
				<rect
   x="821.17"
   y="384.84"
   class="st12"
   width="5"
   height="40"
   id="rect12436" />
				<rect
   x="833.67"
   y="384.84"
   class="st12"
   width="5"
   height="40"
   id="rect12438" />
				<rect
   x="846.17"
   y="384.84"
   class="st12"
   width="5"
   height="40"
   id="rect12440" />
				<rect
   x="913.67"
   y="379.84"
   class="st12"
   width="7.5"
   height="50"
   id="rect12442" />
				<circle
   class="st12"
   cx="902.17"
   cy="383.84"
   r="4"
   id="circle12444" />
				<circle
   class="st1"
   cx="902.17"
   cy="397.84"
   r="4"
   id="circle12446" />
				<circle
   class="st11"
   cx="902.17"
   cy="425.84"
   r="4"
   id="circle12448" />
				<circle
   class="st12"
   cx="902.17"
   cy="411.84"
   r="4"
   id="circle12450" />
				<rect
   x="701.17"
   y="437.34"
   class="st13"
   width="220"
   height="5"
   id="rect12452" />
			</g>
		</g>
		<g
   id="g12570">
			<g
   id="g12462">
				<rect
   x="693.67"
   y="722.34"
   class="st9"
   width="235"
   height="65"
   id="rect12458" />
				<rect
   x="701.17"
   y="787.34"
   class="st13"
   width="220"
   height="5"
   id="rect12460" />
			</g>
			<g
   id="g12560">
				<rect
   x="701.17"
   y="732.9"
   class="st13"
   width="5"
   height="5"
   id="rect12464" />
				<rect
   x="711.17"
   y="732.9"
   class="st13"
   width="5"
   height="5"
   id="rect12466" />
				<rect
   x="721.17"
   y="732.9"
   class="st13"
   width="5"
   height="5"
   id="rect12468" />
				<rect
   x="731.17"
   y="732.9"
   class="st13"
   width="5"
   height="5"
   id="rect12470" />
				<rect
   x="741.17"
   y="732.9"
   class="st13"
   width="5"
   height="5"
   id="rect12472" />
				<rect
   x="751.17"
   y="732.9"
   class="st13"
   width="5"
   height="5"
   id="rect12474" />
				<rect
   x="761.17"
   y="732.9"
   class="st13"
   width="5"
   height="5"
   id="rect12476" />
				<rect
   x="771.17"
   y="732.9"
   class="st13"
   width="5"
   height="5"
   id="rect12478" />
				<rect
   x="781.17"
   y="732.9"
   class="st13"
   width="5"
   height="5"
   id="rect12480" />
				<rect
   x="791.17"
   y="732.9"
   class="st13"
   width="5"
   height="5"
   id="rect12482" />
				<rect
   x="706.17"
   y="742.9"
   class="st13"
   width="5"
   height="5"
   id="rect12484" />
				<rect
   x="716.17"
   y="742.9"
   class="st13"
   width="5"
   height="5"
   id="rect12486" />
				<rect
   x="726.17"
   y="742.9"
   class="st13"
   width="5"
   height="5"
   id="rect12488" />
				<rect
   x="736.17"
   y="742.9"
   class="st13"
   width="5"
   height="5"
   id="rect12490" />
				<rect
   x="746.17"
   y="742.9"
   class="st13"
   width="5"
   height="5"
   id="rect12492" />
				<rect
   x="756.17"
   y="742.9"
   class="st13"
   width="5"
   height="5"
   id="rect12494" />
				<rect
   x="766.17"
   y="742.9"
   class="st13"
   width="5"
   height="5"
   id="rect12496" />
				<rect
   x="776.17"
   y="742.9"
   class="st13"
   width="5"
   height="5"
   id="rect12498" />
				<rect
   x="786.17"
   y="742.9"
   class="st13"
   width="5"
   height="5"
   id="rect12500" />
				<rect
   x="701.17"
   y="752.9"
   class="st13"
   width="5"
   height="5"
   id="rect12502" />
				<rect
   x="711.17"
   y="752.9"
   class="st13"
   width="5"
   height="5"
   id="rect12504" />
				<rect
   x="721.17"
   y="752.9"
   class="st13"
   width="5"
   height="5"
   id="rect12506" />
				<rect
   x="731.17"
   y="752.9"
   class="st13"
   width="5"
   height="5"
   id="rect12508" />
				<rect
   x="741.17"
   y="752.9"
   class="st13"
   width="5"
   height="5"
   id="rect12510" />
				<rect
   x="751.17"
   y="752.9"
   class="st13"
   width="5"
   height="5"
   id="rect12512" />
				<rect
   x="761.17"
   y="752.9"
   class="st13"
   width="5"
   height="5"
   id="rect12514" />
				<rect
   x="771.17"
   y="752.9"
   class="st13"
   width="5"
   height="5"
   id="rect12516" />
				<rect
   x="781.17"
   y="752.9"
   class="st13"
   width="5"
   height="5"
   id="rect12518" />
				<rect
   x="791.17"
   y="752.9"
   class="st13"
   width="5"
   height="5"
   id="rect12520" />
				<rect
   x="706.17"
   y="762.9"
   class="st13"
   width="5"
   height="5"
   id="rect12522" />
				<rect
   x="716.17"
   y="762.9"
   class="st13"
   width="5"
   height="5"
   id="rect12524" />
				<rect
   x="726.17"
   y="762.9"
   class="st13"
   width="5"
   height="5"
   id="rect12526" />
				<rect
   x="736.17"
   y="762.9"
   class="st13"
   width="5"
   height="5"
   id="rect12528" />
				<rect
   x="746.17"
   y="762.9"
   class="st13"
   width="5"
   height="5"
   id="rect12530" />
				<rect
   x="756.17"
   y="762.9"
   class="st13"
   width="5"
   height="5"
   id="rect12532" />
				<rect
   x="766.17"
   y="762.9"
   class="st13"
   width="5"
   height="5"
   id="rect12534" />
				<rect
   x="776.17"
   y="762.9"
   class="st13"
   width="5"
   height="5"
   id="rect12536" />
				<rect
   x="786.17"
   y="762.9"
   class="st13"
   width="5"
   height="5"
   id="rect12538" />
				<rect
   x="701.17"
   y="772.9"
   class="st13"
   width="5"
   height="5"
   id="rect12540" />
				<rect
   x="711.17"
   y="772.9"
   class="st13"
   width="5"
   height="5"
   id="rect12542" />
				<rect
   x="721.17"
   y="772.9"
   class="st13"
   width="5"
   height="5"
   id="rect12544" />
				<rect
   x="731.17"
   y="772.9"
   class="st13"
   width="5"
   height="5"
   id="rect12546" />
				<rect
   x="741.17"
   y="772.9"
   class="st13"
   width="5"
   height="5"
   id="rect12548" />
				<rect
   x="751.17"
   y="772.9"
   class="st13"
   width="5"
   height="5"
   id="rect12550" />
				<rect
   x="761.17"
   y="772.9"
   class="st13"
   width="5"
   height="5"
   id="rect12552" />
				<rect
   x="771.17"
   y="772.9"
   class="st13"
   width="5"
   height="5"
   id="rect12554" />
				<rect
   x="781.17"
   y="772.9"
   class="st13"
   width="5"
   height="5"
   id="rect12556" />
				<rect
   x="791.17"
   y="772.9"
   class="st13"
   width="5"
   height="5"
   id="rect12558" />
			</g>
			<rect
   x="908.67"
   y="729.84"
   class="st10"
   width="12.5"
   height="50"
   id="rect12562" />
			<path
   class="st14"
   d="M914.92,754.87L914.92,754.87c-2.07,0-3.75-1.68-3.75-3.75v-15.03c0-2.07,1.68-3.75,3.75-3.75l0,0     c2.07,0,3.75,1.68,3.75,3.75v15.03C918.67,753.19,917,754.87,914.92,754.87z"
   id="path12564" />
			<circle
   class="st1"
   cx="914.92"
   cy="772.9"
   r="4"
   id="circle12566" />
			<circle
   cx="914.92"
   cy="736.34"
   r="2.5"
   id="circle12568" />
		</g>
	</g>
	<g
   id="g12612">
		<path
   class="st0"
   d="M906.17,306.57h-190c-5.52,0-10-4.48-10-10v-70c0-5.52,4.48-10,10-10h190c5.52,0,10,4.48,10,10v70    C916.17,302.09,911.7,306.57,906.17,306.57z"
   id="path12574" />
		
	<text
   xml:space="preserve"
   id="text906"
   style="font-size:26.6667px;font-family:Forth;-inkscape-font-specification:Forth;text-align:center;white-space:pre;shape-inside:url(#rect908);display:inline;fill:#ffffff;stroke-opacity:0.839216"
   transform="translate(82.032525,228.20368)"><tspan
     x="682.89332"
     y="39.402941"
     id="tspan13712"><tspan
       style="font-weight:600;-inkscape-font-specification:'Forth Semi-Bold'"
       id="tspan13710">BR-DGE</tspan></tspan></text></g>
	<path
   class="st8"
   d="M371.91,870.23h-260c-16.57,0-30-13.43-30-30v-260c0-16.57,13.43-30,30-30h260c16.57,0,30,13.43,30,30v260   C401.91,856.8,388.47,870.23,371.91,870.23z"
   id="path12614" />
	<path
   class="st0"
   d="M341.91,594.52h-200c-5.52,0-10-4.48-10-10v-60c0-5.52,4.48-10,10-10h200c5.52,0,10,4.48,10,10v60   C351.91,590.05,347.43,594.52,341.91,594.52z"
   id="path12616" />
	<g
   class="st15"
   id="g12638">
		<path
   class="st1"
   d="M188.94,544.91l-6.33,11.21v6.71h-2.42v-6.71l-6.41-11.21h2.8l4.85,8.81l4.74-8.81H188.94z"
   id="path12618" />
		<path
   class="st1"
   d="M187.33,556.77c0-3.61,2.75-6.44,6.51-6.44c3.76,0,6.49,2.83,6.49,6.44c0,3.58-2.73,6.44-6.49,6.44    C190.08,563.21,187.33,560.35,187.33,556.77z M197.86,556.77c0-2.42-1.56-4.29-4.01-4.29c-2.37,0-4.04,1.87-4.04,4.29    c0,2.4,1.64,4.29,4.04,4.29C196.29,561.06,197.86,559.17,197.86,556.77z"
   id="path12620" />
		<path
   class="st1"
   d="M215.85,560.61v2.22h-0.73c-1.62,0-2.3-0.66-2.6-1.87c-0.93,1.41-2.47,2.25-4.37,2.25    c-3.1,0-5.17-1.84-5.17-5.53v-6.97h2.45v6.61c0,2.57,1.19,3.63,3.18,3.63c2.15,0,3.51-1.57,3.51-3.86v-6.38h2.42v8.61    c0,0.88,0.05,1.29,0.81,1.29H215.85z"
   id="path12622" />
		<path
   class="st1"
   d="M225.4,550.71v2.25c-2.83,0-4.09,1.64-4.09,3.86v6.01h-2.42v-12.11h2.42v2.15    C222.19,551.52,223.63,550.71,225.4,550.71z"
   id="path12624" />
		<path
   class="st1"
   d="M233.25,558.13l2.27-0.73c0.38,1.72,1.59,3.56,4.19,3.56c2.2,0,3.76-1.09,3.76-3.1    c0-4.04-9.62-2.45-9.62-8.08c0-3.41,2.88-5.25,5.8-5.25c2.85,0,5.02,1.51,5.86,4.01l-2.25,0.68c-0.48-1.39-1.67-2.47-3.56-2.47    c-1.62,0-3.36,0.76-3.36,2.78c0,3.76,9.62,1.99,9.62,8.18c0,3.33-2.5,5.5-6.31,5.5C235.85,563.21,233.83,560.71,233.25,558.13z"
   id="path12626" />
		<path
   class="st1"
   d="M248.04,556.62c0-3.61,2.62-6.28,6.11-6.28c3.91,0,6.26,2.78,5.93,6.97h-9.54c0.2,2.52,1.69,3.84,3.68,3.84    c1.94,0,3.18-0.98,3.89-2.6l1.94,0.81c-0.93,2.27-3,3.86-5.83,3.86C250.41,563.21,248.04,560.28,248.04,556.62z M257.73,555.51    c-0.2-2.2-1.64-3.18-3.58-3.18c-2.02,0-3.33,1.41-3.58,3.18H257.73z"
   id="path12628" />
		<path
   class="st1"
   d="M269.44,550.71v2.25c-2.83,0-4.09,1.64-4.09,3.86v6.01h-2.42v-12.11h2.42v2.15    C266.24,551.52,267.68,550.71,269.44,550.71z"
   id="path12630" />
		<path
   class="st1"
   d="M283.53,550.71l-5.25,12.11h-2.15l-5.25-12.11h2.65l3.69,9.34l3.68-9.34H283.53z"
   id="path12632" />
		<path
   class="st1"
   d="M284.41,556.62c0-3.61,2.62-6.28,6.11-6.28c3.91,0,6.26,2.78,5.93,6.97h-9.54c0.2,2.52,1.69,3.84,3.68,3.84    c1.94,0,3.18-0.98,3.89-2.6l1.94,0.81c-0.93,2.27-3,3.86-5.83,3.86C286.79,563.21,284.41,560.28,284.41,556.62z M294.1,555.51    c-0.2-2.2-1.64-3.18-3.58-3.18c-2.02,0-3.33,1.41-3.58,3.18H294.1z"
   id="path12634" />
		<path
   class="st1"
   d="M305.82,550.71v2.25c-2.83,0-4.09,1.64-4.09,3.86v6.01h-2.42v-12.11h2.42v2.15    C302.61,551.52,304.05,550.71,305.82,550.71z"
   id="path12636" />
	</g>
	<path
   class="st8"
   d="M371.91,401.46h-260c-16.57,0-30-13.43-30-30v-300c0-16.57,13.43-30,30-30h260c16.57,0,30,13.43,30,30v300   C401.91,388.02,388.47,401.46,371.91,401.46z"
   id="path12640" />
	<g
   id="g12684">
		<g
   id="g12682">
			<rect
   x="124.41"
   y="645.23"
   class="st9"
   width="235"
   height="65"
   id="rect12642" />
			<rect
   x="131.91"
   y="652.73"
   class="st10"
   width="157.5"
   height="50"
   id="rect12644" />
			<rect
   x="139.41"
   y="657.73"
   class="st12"
   width="5"
   height="40"
   id="rect12646" />
			<rect
   x="151.91"
   y="657.73"
   class="st12"
   width="5"
   height="40"
   id="rect12648" />
			<rect
   x="164.41"
   y="657.73"
   class="st12"
   width="5"
   height="40"
   id="rect12650" />
			<rect
   x="176.91"
   y="657.73"
   class="st12"
   width="5"
   height="40"
   id="rect12652" />
			<rect
   x="189.41"
   y="657.73"
   class="st12"
   width="5"
   height="40"
   id="rect12654" />
			<rect
   x="201.91"
   y="657.73"
   class="st12"
   width="5"
   height="40"
   id="rect12656" />
			<rect
   x="214.41"
   y="657.73"
   class="st12"
   width="5"
   height="40"
   id="rect12658" />
			<rect
   x="226.91"
   y="657.73"
   class="st12"
   width="5"
   height="40"
   id="rect12660" />
			<rect
   x="239.41"
   y="657.73"
   class="st12"
   width="5"
   height="40"
   id="rect12662" />
			<rect
   x="251.91"
   y="657.73"
   class="st12"
   width="5"
   height="40"
   id="rect12664" />
			<rect
   x="264.41"
   y="657.73"
   class="st11"
   width="5"
   height="40"
   id="rect12666" />
			<rect
   x="276.91"
   y="657.73"
   class="st12"
   width="5"
   height="40"
   id="rect12668" />
			<rect
   x="344.41"
   y="652.73"
   class="st12"
   width="7.5"
   height="50"
   id="rect12670" />
			<circle
   class="st12"
   cx="332.91"
   cy="656.73"
   r="4"
   id="circle12672" />
			<circle
   class="st11"
   cx="332.91"
   cy="670.73"
   r="4"
   id="circle12674" />
			<circle
   class="st1"
   cx="332.91"
   cy="698.73"
   r="4"
   id="circle12676" />
			<circle
   class="st12"
   cx="332.91"
   cy="684.73"
   r="4"
   id="circle12678" />
			<rect
   x="131.91"
   y="710.23"
   class="st13"
   width="220"
   height="5"
   id="rect12680" />
		</g>
	</g>
	<g
   id="g12798">
		<g
   id="g12690">
			<rect
   x="124.41"
   y="715.23"
   class="st9"
   width="235"
   height="65"
   id="rect12686" />
			<rect
   x="131.91"
   y="780.23"
   class="st13"
   width="220"
   height="5"
   id="rect12688" />
		</g>
		<g
   id="g12788">
			<rect
   x="131.91"
   y="725.79"
   class="st13"
   width="5"
   height="5"
   id="rect12692" />
			<rect
   x="141.91"
   y="725.79"
   class="st13"
   width="5"
   height="5"
   id="rect12694" />
			<rect
   x="151.91"
   y="725.79"
   class="st13"
   width="5"
   height="5"
   id="rect12696" />
			<rect
   x="161.91"
   y="725.79"
   class="st13"
   width="5"
   height="5"
   id="rect12698" />
			<rect
   x="171.91"
   y="725.79"
   class="st13"
   width="5"
   height="5"
   id="rect12700" />
			<rect
   x="181.91"
   y="725.79"
   class="st13"
   width="5"
   height="5"
   id="rect12702" />
			<rect
   x="191.91"
   y="725.79"
   class="st13"
   width="5"
   height="5"
   id="rect12704" />
			<rect
   x="201.91"
   y="725.79"
   class="st13"
   width="5"
   height="5"
   id="rect12706" />
			<rect
   x="211.91"
   y="725.79"
   class="st13"
   width="5"
   height="5"
   id="rect12708" />
			<rect
   x="221.91"
   y="725.79"
   class="st13"
   width="5"
   height="5"
   id="rect12710" />
			<rect
   x="136.91"
   y="735.79"
   class="st13"
   width="5"
   height="5"
   id="rect12712" />
			<rect
   x="146.91"
   y="735.79"
   class="st13"
   width="5"
   height="5"
   id="rect12714" />
			<rect
   x="156.91"
   y="735.79"
   class="st13"
   width="5"
   height="5"
   id="rect12716" />
			<rect
   x="166.91"
   y="735.79"
   class="st13"
   width="5"
   height="5"
   id="rect12718" />
			<rect
   x="176.91"
   y="735.79"
   class="st13"
   width="5"
   height="5"
   id="rect12720" />
			<rect
   x="186.91"
   y="735.79"
   class="st13"
   width="5"
   height="5"
   id="rect12722" />
			<rect
   x="196.91"
   y="735.79"
   class="st13"
   width="5"
   height="5"
   id="rect12724" />
			<rect
   x="206.91"
   y="735.79"
   class="st13"
   width="5"
   height="5"
   id="rect12726" />
			<rect
   x="216.91"
   y="735.79"
   class="st13"
   width="5"
   height="5"
   id="rect12728" />
			<rect
   x="131.91"
   y="745.79"
   class="st13"
   width="5"
   height="5"
   id="rect12730" />
			<rect
   x="141.91"
   y="745.79"
   class="st13"
   width="5"
   height="5"
   id="rect12732" />
			<rect
   x="151.91"
   y="745.79"
   class="st13"
   width="5"
   height="5"
   id="rect12734" />
			<rect
   x="161.91"
   y="745.79"
   class="st13"
   width="5"
   height="5"
   id="rect12736" />
			<rect
   x="171.91"
   y="745.79"
   class="st13"
   width="5"
   height="5"
   id="rect12738" />
			<rect
   x="181.91"
   y="745.79"
   class="st13"
   width="5"
   height="5"
   id="rect12740" />
			<rect
   x="191.91"
   y="745.79"
   class="st13"
   width="5"
   height="5"
   id="rect12742" />
			<rect
   x="201.91"
   y="745.79"
   class="st13"
   width="5"
   height="5"
   id="rect12744" />
			<rect
   x="211.91"
   y="745.79"
   class="st13"
   width="5"
   height="5"
   id="rect12746" />
			<rect
   x="221.91"
   y="745.79"
   class="st13"
   width="5"
   height="5"
   id="rect12748" />
			<rect
   x="136.91"
   y="755.79"
   class="st13"
   width="5"
   height="5"
   id="rect12750" />
			<rect
   x="146.91"
   y="755.79"
   class="st13"
   width="5"
   height="5"
   id="rect12752" />
			<rect
   x="156.91"
   y="755.79"
   class="st13"
   width="5"
   height="5"
   id="rect12754" />
			<rect
   x="166.91"
   y="755.79"
   class="st13"
   width="5"
   height="5"
   id="rect12756" />
			<rect
   x="176.91"
   y="755.79"
   class="st13"
   width="5"
   height="5"
   id="rect12758" />
			<rect
   x="186.91"
   y="755.79"
   class="st13"
   width="5"
   height="5"
   id="rect12760" />
			<rect
   x="196.91"
   y="755.79"
   class="st13"
   width="5"
   height="5"
   id="rect12762" />
			<rect
   x="206.91"
   y="755.79"
   class="st13"
   width="5"
   height="5"
   id="rect12764" />
			<rect
   x="216.91"
   y="755.79"
   class="st13"
   width="5"
   height="5"
   id="rect12766" />
			<rect
   x="131.91"
   y="765.79"
   class="st13"
   width="5"
   height="5"
   id="rect12768" />
			<rect
   x="141.91"
   y="765.79"
   class="st13"
   width="5"
   height="5"
   id="rect12770" />
			<rect
   x="151.91"
   y="765.79"
   class="st13"
   width="5"
   height="5"
   id="rect12772" />
			<rect
   x="161.91"
   y="765.79"
   class="st13"
   width="5"
   height="5"
   id="rect12774" />
			<rect
   x="171.91"
   y="765.79"
   class="st13"
   width="5"
   height="5"
   id="rect12776" />
			<rect
   x="181.91"
   y="765.79"
   class="st13"
   width="5"
   height="5"
   id="rect12778" />
			<rect
   x="191.91"
   y="765.79"
   class="st13"
   width="5"
   height="5"
   id="rect12780" />
			<rect
   x="201.91"
   y="765.79"
   class="st13"
   width="5"
   height="5"
   id="rect12782" />
			<rect
   x="211.91"
   y="765.79"
   class="st13"
   width="5"
   height="5"
   id="rect12784" />
			<rect
   x="221.91"
   y="765.79"
   class="st13"
   width="5"
   height="5"
   id="rect12786" />
		</g>
		<rect
   x="339.41"
   y="722.73"
   class="st10"
   width="12.5"
   height="50"
   id="rect12790" />
		<path
   class="st14"
   d="M345.66,747.76L345.66,747.76c-2.07,0-3.75-1.68-3.75-3.75v-15.03c0-2.07,1.68-3.75,3.75-3.75l0,0    c2.07,0,3.75,1.68,3.75,3.75v15.03C349.41,746.08,347.73,747.76,345.66,747.76z"
   id="path12792" />
		<circle
   class="st1"
   cx="345.66"
   cy="765.79"
   r="4"
   id="circle12794" />
		<circle
   cx="345.66"
   cy="729.23"
   r="2.5"
   id="circle12796" />
	</g>
	<circle
   id="Ellipse_257_00000054983791310248160350000011615195917551692165_"
   cx="651.54"
   cy="115.84"
   r="5"
   fill="#999" />
	<path
   id="Path_3462_00000062156851990755697930000006597257505058776468_"
   class="st0"
   d="M241.91,467.82v31.5" />
	<path
   id="Path_3462_00000164511010821458724100000016339249413672402577_"
   class="st0"
   d="M241.91,401.46v23.87" />
	<circle
   id="Ellipse_257_00000108293248093155293160000000772095343048092071_"
   cx="241.91"
   cy="499.32"
   r="5"
   fill="#999" />
	<path
   id="Path_3462_00000154411196954667088720000011550588938079497884_"
   class="st0"
   d="M 242.37146,232.7286 V 327.46" />
	<circle
   id="Ellipse_257_00000088106388260701077120000008971597336055654588_"
   cx="241.91"
   cy="327.46"
   r="5"
   fill="#999" />
	<g
   class="st15"
   id="g12874">
		<path
   d="M0,444.88c0-5.05,4.2-9.34,9.11-9.34c3.74,0,6.88,2.09,8.11,5.3l-2.35,0.78c-0.92-2.37-2.97-3.81-5.76-3.81    c-3.63,0-6.6,3.13-6.6,7.07c0,3.94,2.97,7.07,6.6,7.07c2.71,0,4.61-1.36,5.66-3.51l2.3,0.93c-1.43,3-4.38,4.85-7.96,4.85    C4.2,454.22,0,449.93,0,444.88z"
   id="path12806" />
		<path
   d="M31.62,446.88v6.97h-2.46v-6.64c0-2.5-1.23-3.61-3.25-3.61c-2.15,0-3.53,1.57-3.53,3.86v6.38h-2.48v-17.92h2.48v7.7    c0.82-1.36,2.15-2.27,3.99-2.27C29.55,441.35,31.62,443.17,31.62,446.88z"
   id="path12808" />
		<path
   d="M34.18,447.63c0-3.61,2.66-6.28,6.19-6.28c3.97,0,6.35,2.78,6.01,6.97h-9.67c0.21,2.52,1.71,3.84,3.74,3.84    c1.97,0,3.22-0.98,3.94-2.6l1.97,0.81c-0.95,2.27-3.04,3.86-5.91,3.86C36.59,454.22,34.18,451.29,34.18,447.63z M44.01,446.52    c-0.2-2.2-1.66-3.18-3.63-3.18c-2.05,0-3.38,1.41-3.63,3.18H44.01z"
   id="path12810" />
		<path
   d="M55.04,454.22c-3.76,0-6.55-2.93-6.55-6.59c0-3.61,2.76-6.28,6.58-6.28c2.66,0,4.73,1.34,5.66,3.51l-2.12,0.86    c-0.59-1.44-1.74-2.22-3.53-2.22c-2.43,0-4.07,1.72-4.07,4.14s1.61,4.44,4.04,4.44c1.69,0,2.84-0.83,3.48-2.27l2.1,0.91    C59.64,452.86,57.67,454.22,55.04,454.22z"
   id="path12812" />
		<path
   d="M67.16,448.14l-1.43,1.41v4.29h-2.46v-17.92h2.46v11.03l4.84-5.22h3.15l-4.89,4.79l5.4,7.32h-3.02L67.16,448.14z"
   id="path12814" />
		<path
   d="M75.09,447.79c0-3.61,2.79-6.44,6.6-6.44c3.81,0,6.58,2.83,6.58,6.44c0,3.58-2.76,6.44-6.58,6.44    C77.88,454.22,75.09,451.37,75.09,447.79z M85.76,447.79c0-2.42-1.59-4.29-4.07-4.29c-2.41,0-4.09,1.87-4.09,4.29    c0,2.4,1.66,4.29,4.09,4.29C84.18,452.08,85.76,450.18,85.76,447.79z"
   id="path12816" />
		<path
   d="M104.01,451.62v2.22h-0.74c-1.64,0-2.33-0.66-2.64-1.87c-0.95,1.41-2.51,2.25-4.43,2.25c-3.15,0-5.25-1.84-5.25-5.53    v-6.97h2.48v6.61c0,2.57,1.2,3.63,3.22,3.63c2.17,0,3.56-1.57,3.56-3.86v-6.38h2.46v8.61c0,0.88,0.05,1.29,0.82,1.29H104.01z"
   id="path12818" />
		<path
   d="M110.51,443.8v6.51c0,0.88,0.26,1.31,1.25,1.31h1.64v2.22h-1.69c-2.48,0-3.66-1.39-3.66-3.58v-6.46h-2.66v-2.07h2.66    v-3.58l2.46-0.63v4.21h3.4v2.07H110.51z"
   id="path12820" />
		<path
   d="M121.71,447.79c0-3.89,2.87-6.44,6.27-6.44c1.69,0,3.35,0.73,4.2,2.02v-7.45h2.46v17.92h-2.46v-1.64    c-0.84,1.29-2.51,2.02-4.2,2.02C124.58,454.22,121.71,451.65,121.71,447.79z M132.18,447.79c0-2.5-1.64-4.29-3.94-4.29    c-2.48,0-4.02,1.89-4.02,4.29c0,2.4,1.54,4.29,4.02,4.29C130.54,452.08,132.18,450.29,132.18,447.79z"
   id="path12822" />
		<path
   d="M137.45,447.63c0-3.61,2.66-6.28,6.19-6.28c3.97,0,6.35,2.78,6.01,6.97h-9.67c0.21,2.52,1.71,3.84,3.74,3.84    c1.97,0,3.22-0.98,3.94-2.6l1.97,0.81c-0.95,2.27-3.04,3.86-5.91,3.86C139.85,454.22,137.45,451.29,137.45,447.63z M147.27,446.52    c-0.2-2.2-1.66-3.18-3.63-3.18c-2.05,0-3.38,1.41-3.63,3.18H147.27z"
   id="path12824" />
		<path
   d="M155.97,443.8v6.51c0,0.88,0.26,1.31,1.25,1.31h1.64v2.22h-1.69c-2.48,0-3.66-1.39-3.66-3.58v-6.46h-2.66v-2.07h2.66    v-3.58l2.46-0.63v4.21h3.4v2.07H155.97z"
   id="path12826" />
		<path
   d="M173.7,451.62v2.22h-0.56c-2,0-2.89-0.48-3.17-1.74c-0.69,1.24-2.51,2.12-4.25,2.12c-2.41,0-4.27-1.29-4.27-3.61    c0-3.23,4.15-3.99,8.04-4.64c-0.05-1.72-1.1-2.6-2.64-2.6c-1.59,0-2.81,0.78-3.28,2.47l-2.15-0.56c0.84-2.9,3.3-3.94,5.6-3.94    c2.71,0,4.91,1.67,4.91,4.8v4.32c0,0.88,0.05,1.16,1.2,1.16H173.7z M169.48,447.71c-2.76,0.43-5.55,0.91-5.55,2.7    c0,1.29,0.95,1.84,2.23,1.84c2.25,0,3.33-1.56,3.33-3.68V447.71z"
   id="path12828" />
		<path
   d="M177.97,436.56c0.92,0,1.66,0.71,1.66,1.64c0,0.91-0.77,1.62-1.66,1.62c-0.95,0-1.71-0.71-1.71-1.62    C176.26,437.24,177.03,436.56,177.97,436.56z M179.2,453.84h-2.46v-12.11h2.46V453.84z"
   id="path12830" />
		<path
   d="M183.09,450.36v-14.44h2.48v14.41c0,0.88,0.28,1.29,1.07,1.29h1v2.22h-1.23C184.29,453.84,183.09,452.53,183.09,450.36z"
   id="path12832" />
		<path
   d="M189.72,450.71l2.33-0.61c0.31,1.24,1.15,2.09,2.64,2.09c1.54,0,2.53-0.68,2.53-1.82c0-2.6-7.01-1.08-7.01-5.25    c0-2.2,1.92-3.79,4.48-3.79c2.12,0,3.56,0.93,4.48,2.57l-2,0.96c-0.54-0.93-1.28-1.51-2.51-1.51c-1.31,0-2.02,0.71-2.02,1.54    c0,2.32,7.04,0.81,7.04,5.35c0,2.32-1.97,3.96-5.01,3.96C192.02,454.22,190.25,452.83,189.72,450.71z"
   id="path12834" />
		<path
   d="M210.34,436.56c0.92,0,1.66,0.71,1.66,1.64c0,0.91-0.77,1.62-1.66,1.62c-0.95,0-1.71-0.71-1.71-1.62    C208.62,437.24,209.39,436.56,210.34,436.56z M211.57,453.84h-2.46v-12.11h2.46V453.84z"
   id="path12836" />
		<path
   d="M227.07,446.88v6.97h-2.48v-6.64c0-2.5-1.2-3.61-3.22-3.61c-2.17,0-3.56,1.57-3.56,3.86v6.38h-2.46v-12.11h2.46v1.94    c0.84-1.39,2.17-2.32,4.02-2.32C224.98,441.35,227.07,443.17,227.07,446.88z"
   id="path12838" />
		<path
   d="M236.31,454.22c-3.76,0-6.55-2.93-6.55-6.59c0-3.61,2.76-6.28,6.58-6.28c2.66,0,4.73,1.34,5.66,3.51l-2.12,0.86    c-0.59-1.44-1.74-2.22-3.53-2.22c-2.43,0-4.07,1.72-4.07,4.14s1.61,4.44,4.04,4.44c1.69,0,2.84-0.83,3.48-2.27l2.1,0.91    C240.92,452.86,238.95,454.22,236.31,454.22z"
   id="path12840" />
		<path
   d="M244.67,450.36v-14.44h2.48v14.41c0,0.88,0.28,1.29,1.07,1.29h1v2.22H248C245.88,453.84,244.67,452.53,244.67,450.36z"
   id="path12842" />
		<path
   d="M252.99,450.97c0.92,0,1.66,0.71,1.66,1.64c0,0.91-0.77,1.62-1.66,1.62c-0.95,0-1.71-0.71-1.71-1.62    C251.28,451.65,252.04,450.97,252.99,450.97z"
   id="path12844" />
		<path
   d="M281.01,443.72v1.74c0,4.64-2.99,8.76-8.73,8.76c-5.12,0-9.31-4.29-9.31-9.34c0-5.05,4.2-9.34,9.31-9.34    c3.94,0,7.19,2.07,8.47,5.15l-2.3,0.86c-0.95-2.32-3.25-3.71-6.17-3.71c-3.74,0-6.81,3.23-6.81,7.04c0,3.81,3.07,7.02,6.81,7.02    c4.07,0,6.19-2.55,6.22-5.96h-7.8v-2.22H281.01z"
   id="path12846" />
		<path
   d="M283.18,447.79c0-3.61,2.79-6.44,6.6-6.44c3.81,0,6.58,2.83,6.58,6.44c0,3.58-2.76,6.44-6.58,6.44    C285.97,454.22,283.18,451.37,283.18,447.79z M293.85,447.79c0-2.42-1.59-4.29-4.07-4.29c-2.41,0-4.09,1.87-4.09,4.29    c0,2.4,1.66,4.29,4.09,4.29C292.26,452.08,293.85,450.18,293.85,447.79z"
   id="path12848" />
		<path
   d="M298.4,447.79c0-3.61,2.79-6.44,6.6-6.44c3.81,0,6.58,2.83,6.58,6.44c0,3.58-2.76,6.44-6.58,6.44    C301.19,454.22,298.4,451.37,298.4,447.79z M309.08,447.79c0-2.42-1.59-4.29-4.07-4.29c-2.41,0-4.09,1.87-4.09,4.29    c0,2.4,1.66,4.29,4.09,4.29C307.49,452.08,309.08,450.18,309.08,447.79z"
   id="path12850" />
		<path
   d="M326.55,441.73v12.11c0,3.43-2.48,5.8-6.42,5.8c-3.02,0-5.09-1.72-6.01-4.14l2.05-0.96c0.56,1.82,2.12,3,3.97,3    c2.51,0,3.97-1.54,3.97-3.71v-1.64c-0.84,1.29-2.51,2.02-4.2,2.02c-3.4,0-6.14-2.57-6.14-6.44c0-3.89,2.74-6.44,6.14-6.44    c1.69,0,3.35,0.73,4.2,2.02v-1.64H326.55z M324.09,447.79c0-2.62-1.71-4.29-3.89-4.29c-2.35,0-3.94,1.77-3.94,4.29    c0,2.52,1.59,4.29,3.94,4.29C322.38,452.08,324.09,450.41,324.09,447.79z"
   id="path12852" />
		<path
   d="M330,450.36v-14.44h2.48v14.41c0,0.88,0.28,1.29,1.07,1.29h1v2.22h-1.23C331.21,453.84,330,452.53,330,450.36z"
   id="path12854" />
		<path
   d="M336.22,447.63c0-3.61,2.66-6.28,6.19-6.28c3.97,0,6.35,2.78,6.01,6.97h-9.67c0.21,2.52,1.71,3.84,3.74,3.84    c1.97,0,3.22-0.98,3.94-2.6l1.97,0.81c-0.95,2.27-3.04,3.86-5.91,3.86C338.62,454.22,336.22,451.29,336.22,447.63z M346.05,446.52    c-0.2-2.2-1.66-3.18-3.63-3.18c-2.05,0-3.38,1.41-3.63,3.18H346.05z"
   id="path12856" />
		<path
   d="M369.94,441.5c0,3.38-2.58,5.53-6.12,5.53h-4.04v6.81h-2.48v-17.92h6.53C367.33,435.92,369.94,438.1,369.94,441.5z     M367.46,441.48c0-2.17-1.59-3.33-3.89-3.33h-3.79v6.69h3.86C365.93,444.83,367.46,443.65,367.46,441.48z"
   id="path12858" />
		<path
   d="M383.5,451.62v2.22h-0.56c-2,0-2.89-0.48-3.17-1.74c-0.69,1.24-2.51,2.12-4.25,2.12c-2.41,0-4.27-1.29-4.27-3.61    c0-3.23,4.15-3.99,8.04-4.64c-0.05-1.72-1.1-2.6-2.64-2.6c-1.59,0-2.81,0.78-3.28,2.47l-2.15-0.56c0.84-2.9,3.3-3.94,5.6-3.94    c2.71,0,4.91,1.67,4.91,4.8v4.32c0,0.88,0.05,1.16,1.2,1.16H383.5z M379.28,447.71c-2.76,0.43-5.55,0.91-5.55,2.7    c0,1.29,0.95,1.84,2.23,1.84c2.25,0,3.33-1.56,3.33-3.68V447.71z"
   id="path12860" />
		<path
   d="M397.6,441.73l-7.63,17.92h-2.64l2.53-5.78l-5.35-12.14h2.69l3.92,9.39l3.79-9.39H397.6z"
   id="path12862" />
		<path
   d="M418.46,435.92v17.92h-2.3l-9.42-13.63v13.63h-2.48v-17.92h2.33l9.42,13.63v-13.63H418.46z"
   id="path12864" />
		<path
   d="M421.27,447.79c0-3.61,2.79-6.44,6.6-6.44c3.81,0,6.58,2.83,6.58,6.44c0,3.58-2.76,6.44-6.58,6.44    C424.06,454.22,421.27,451.37,421.27,447.79z M431.94,447.79c0-2.42-1.59-4.29-4.07-4.29c-2.41,0-4.09,1.87-4.09,4.29    c0,2.4,1.66,4.29,4.09,4.29C430.35,452.08,431.94,450.18,431.94,447.79z"
   id="path12866" />
		<path
   d="M448.88,446.88v6.97h-2.48v-6.64c0-2.5-1.2-3.61-3.22-3.61c-2.17,0-3.56,1.57-3.56,3.86v6.38h-2.46v-12.11h2.46v1.94    c0.84-1.39,2.17-2.32,4.02-2.32C446.78,441.35,448.88,443.17,448.88,446.88z"
   id="path12868" />
		<path
   d="M458.11,454.22c-3.76,0-6.55-2.93-6.55-6.59c0-3.61,2.76-6.28,6.58-6.28c2.66,0,4.73,1.34,5.66,3.51l-2.12,0.86    c-0.59-1.44-1.74-2.22-3.53-2.22c-2.43,0-4.07,1.72-4.07,4.14s1.61,4.44,4.04,4.44c1.69,0,2.84-0.83,3.48-2.27l2.1,0.91    C462.72,452.86,460.75,454.22,458.11,454.22z"
   id="path12870" />
		<path
   d="M465.71,447.63c0-3.61,2.66-6.28,6.19-6.28c3.97,0,6.35,2.78,6.01,6.97h-9.67c0.21,2.52,1.71,3.84,3.74,3.84    c1.97,0,3.22-0.98,3.94-2.6l1.97,0.81c-0.95,2.27-3.04,3.86-5.91,3.86C468.11,454.22,465.71,451.29,465.71,447.63z M475.54,446.52    c-0.21-2.2-1.66-3.18-3.63-3.18c-2.05,0-3.38,1.41-3.63,3.18H475.54z"
   id="path12872" />
	</g>
	<path
   id="Path_3462_00000090267866029380268730000014095515379729744005_"
   class="st16"
   d="M401.54,710.23h250" />
	<circle
   id="Ellipse_257_00000141448567667966482350000002901305735006410890_"
   cx="651.54"
   cy="710.23"
   r="5"
   fill="#999" />
	<g
   class="st15"
   id="g12906">
		<path
   d="M435.24,738.11v1.74c0,4.64-2.99,8.76-8.73,8.76c-5.12,0-9.31-4.29-9.31-9.34c0-5.05,4.2-9.34,9.31-9.34    c3.94,0,7.19,2.07,8.47,5.15l-2.3,0.86c-0.95-2.32-3.25-3.71-6.17-3.71c-3.74,0-6.81,3.23-6.81,7.04c0,3.81,3.07,7.02,6.81,7.02    c4.07,0,6.19-2.55,6.22-5.96h-7.8v-2.22H435.24z"
   id="path12878" />
		<path
   d="M437.42,742.18c0-3.61,2.79-6.44,6.6-6.44c3.81,0,6.58,2.83,6.58,6.44c0,3.58-2.76,6.44-6.58,6.44    C440.21,748.61,437.42,745.76,437.42,742.18z M448.09,742.18c0-2.42-1.59-4.29-4.07-4.29c-2.41,0-4.09,1.87-4.09,4.29    c0,2.4,1.66,4.29,4.09,4.29C446.5,746.47,448.09,744.57,448.09,742.18z"
   id="path12880" />
		<path
   d="M452.64,742.18c0-3.61,2.79-6.44,6.6-6.44c3.81,0,6.58,2.83,6.58,6.44c0,3.58-2.76,6.44-6.58,6.44    C455.43,748.61,452.64,745.76,452.64,742.18z M463.31,742.18c0-2.42-1.59-4.29-4.07-4.29c-2.41,0-4.09,1.87-4.09,4.29    c0,2.4,1.66,4.29,4.09,4.29C461.72,746.47,463.31,744.57,463.31,742.18z"
   id="path12882" />
		<path
   d="M480.79,736.12v12.11c0,3.43-2.48,5.8-6.42,5.8c-3.02,0-5.09-1.72-6.01-4.14l2.05-0.96c0.56,1.82,2.12,3,3.97,3    c2.51,0,3.97-1.54,3.97-3.71v-1.64c-0.84,1.29-2.51,2.02-4.2,2.02c-3.4,0-6.14-2.57-6.14-6.44c0-3.89,2.74-6.44,6.14-6.44    c1.69,0,3.35,0.73,4.2,2.02v-1.64H480.79z M478.33,742.18c0-2.62-1.71-4.29-3.89-4.29c-2.35,0-3.94,1.77-3.94,4.29    c0,2.52,1.59,4.29,3.94,4.29C476.62,746.47,478.33,744.8,478.33,742.18z"
   id="path12884" />
		<path
   d="M484.24,744.75v-14.44h2.48v14.41c0,0.88,0.28,1.29,1.07,1.29h1v2.22h-1.23C485.44,748.23,484.24,746.92,484.24,744.75z"
   id="path12886" />
		<path
   d="M490.46,742.02c0-3.61,2.66-6.28,6.19-6.28c3.97,0,6.35,2.78,6.01,6.97h-9.67c0.21,2.52,1.71,3.84,3.74,3.84    c1.97,0,3.22-0.98,3.94-2.6l1.97,0.81c-0.95,2.27-3.04,3.86-5.91,3.86C492.86,748.61,490.46,745.68,490.46,742.02z M500.28,740.91    c-0.21-2.2-1.66-3.18-3.63-3.18c-2.05,0-3.38,1.41-3.63,3.18H500.28z"
   id="path12888" />
		<path
   d="M524.18,735.89c0,3.38-2.58,5.53-6.12,5.53h-4.04v6.81h-2.48v-17.92h6.53C521.57,730.31,524.18,732.48,524.18,735.89z     M521.7,735.87c0-2.17-1.59-3.33-3.89-3.33h-3.79v6.69h3.86C520.16,739.22,521.7,738.04,521.7,735.87z"
   id="path12890" />
		<path
   d="M537.74,746.01v2.22h-0.56c-2,0-2.89-0.48-3.17-1.74c-0.69,1.24-2.51,2.12-4.25,2.12c-2.41,0-4.27-1.29-4.27-3.61    c0-3.23,4.15-3.99,8.04-4.64c-0.05-1.72-1.1-2.6-2.64-2.6c-1.59,0-2.81,0.78-3.28,2.47l-2.15-0.56c0.84-2.9,3.3-3.94,5.6-3.94    c2.71,0,4.91,1.67,4.91,4.8v4.32c0,0.88,0.05,1.16,1.2,1.16H537.74z M533.52,742.1c-2.76,0.43-5.55,0.91-5.55,2.7    c0,1.29,0.95,1.84,2.23,1.84c2.25,0,3.33-1.56,3.33-3.68V742.1z"
   id="path12892" />
		<path
   d="M551.84,736.12l-7.63,17.92h-2.64l2.53-5.78l-5.35-12.14h2.69l3.92,9.39l3.79-9.39H551.84z"
   id="path12894" />
		<path
   d="M572.69,730.31v17.92h-2.3l-9.42-13.63v13.63h-2.48v-17.92h2.33l9.42,13.63v-13.63H572.69z"
   id="path12896" />
		<path
   d="M575.5,742.18c0-3.61,2.79-6.44,6.6-6.44c3.81,0,6.58,2.83,6.58,6.44c0,3.58-2.76,6.44-6.58,6.44    C578.29,748.61,575.5,745.76,575.5,742.18z M586.17,742.18c0-2.42-1.59-4.29-4.07-4.29c-2.41,0-4.09,1.87-4.09,4.29    c0,2.4,1.66,4.29,4.09,4.29C584.59,746.47,586.17,744.57,586.17,742.18z"
   id="path12898" />
		<path
   d="M603.11,741.27v6.97h-2.48v-6.64c0-2.5-1.2-3.61-3.22-3.61c-2.17,0-3.56,1.57-3.56,3.86v6.38h-2.46v-12.11h2.46v1.94    c0.84-1.39,2.17-2.32,4.02-2.32C601.01,735.74,603.11,737.56,603.11,741.27z"
   id="path12900" />
		<path
   d="M612.35,748.61c-3.76,0-6.55-2.93-6.55-6.59c0-3.61,2.76-6.28,6.58-6.28c2.66,0,4.73,1.34,5.66,3.51l-2.12,0.86    c-0.59-1.44-1.74-2.22-3.53-2.22c-2.43,0-4.07,1.72-4.07,4.14s1.61,4.44,4.04,4.44c1.69,0,2.84-0.83,3.48-2.27l2.1,0.91    C616.95,747.25,614.98,748.61,612.35,748.61z"
   id="path12902" />
		<path
   d="M619.94,742.02c0-3.61,2.66-6.28,6.19-6.28c3.97,0,6.35,2.78,6.01,6.97h-9.67c0.21,2.52,1.71,3.84,3.74,3.84    c1.97,0,3.22-0.98,3.94-2.6l1.97,0.81c-0.95,2.27-3.04,3.86-5.91,3.86C622.35,748.61,619.94,745.68,619.94,742.02z M629.77,740.91    c-0.2-2.2-1.66-3.18-3.63-3.18c-2.05,0-3.38,1.41-3.63,3.18H629.77z"
   id="path12904" />
	</g>
	<g
   class="st15"
   id="g12922">
		<path
   d="M488.41,765.89c0,3.38-2.58,5.53-6.12,5.53h-4.04v6.81h-2.48v-17.92h6.53C485.8,760.31,488.41,762.48,488.41,765.89z     M485.93,765.87c0-2.17-1.59-3.33-3.89-3.33h-3.79v6.69h3.86C484.39,769.22,485.93,768.04,485.93,765.87z"
   id="path12908" />
		<path
   d="M501.97,776.01v2.22h-0.56c-2,0-2.89-0.48-3.17-1.74c-0.69,1.24-2.51,2.12-4.25,2.12c-2.41,0-4.27-1.29-4.27-3.61    c0-3.23,4.15-3.99,8.04-4.64c-0.05-1.72-1.1-2.6-2.64-2.6c-1.59,0-2.81,0.78-3.28,2.47l-2.15-0.56c0.84-2.9,3.3-3.94,5.6-3.94    c2.71,0,4.91,1.67,4.91,4.8v4.32c0,0.88,0.05,1.16,1.2,1.16H501.97z M497.75,772.1c-2.76,0.43-5.55,0.91-5.55,2.7    c0,1.29,0.95,1.84,2.23,1.84c2.25,0,3.33-1.56,3.33-3.68V772.1z"
   id="path12910" />
		<path
   d="M516.07,766.12l-7.63,17.92h-2.64l2.53-5.78l-5.35-12.14h2.69l3.92,9.39l3.79-9.39H516.07z"
   id="path12912" />
		<path
   d="M537.41,770.91v7.32h-2.46v-6.92c0-2.45-0.97-3.33-2.61-3.33c-1.66,0-3.02,1.21-3.02,3.38v6.87h-2.46v-6.92    c0-2.45-0.97-3.33-2.61-3.33c-1.77,0-3.02,1.39-3.02,3.66v6.59h-2.48v-12.11h2.48v1.64c0.77-1.26,2.05-2.02,3.51-2.02    c1.92,0,3.3,0.68,3.99,2.25c0.9-1.62,2.41-2.25,4.09-2.25C535.64,765.74,537.41,767.51,537.41,770.91z"
   id="path12914" />
		<path
   d="M539.96,772.02c0-3.61,2.66-6.28,6.19-6.28c3.97,0,6.35,2.78,6.01,6.97h-9.67c0.21,2.52,1.71,3.84,3.74,3.84    c1.97,0,3.22-0.98,3.94-2.6l1.97,0.81c-0.95,2.27-3.04,3.86-5.91,3.86C542.37,778.61,539.96,775.68,539.96,772.02z M549.79,770.91    c-0.21-2.2-1.66-3.18-3.63-3.18c-2.05,0-3.38,1.41-3.63,3.18H549.79z"
   id="path12916" />
		<path
   d="M566.65,771.27v6.97h-2.48v-6.64c0-2.5-1.2-3.61-3.22-3.61c-2.17,0-3.56,1.57-3.56,3.86v6.38h-2.46v-12.11h2.46v1.94    c0.84-1.39,2.17-2.32,4.02-2.32C564.55,765.74,566.65,767.56,566.65,771.27z"
   id="path12918" />
		<path
   d="M572.92,768.19v6.51c0,0.88,0.26,1.31,1.25,1.31h1.64v2.22h-1.69c-2.48,0-3.66-1.39-3.66-3.58v-6.46h-2.66v-2.07h2.66    v-3.58l2.46-0.63v4.21h3.4v2.07H572.92z"
   id="path12920" />
	</g>
	<path
   class="st0"
   d="M351.91,80.75h-220c-5.52,0-10-4.48-10-10v-60c0-5.52,4.48-10,10-10h220c5.52,0,10,4.48,10,10v60   C361.91,76.27,357.43,80.75,351.91,80.75z"
   id="path12924" />
	
	<g
   class="st15"
   id="g12982">
		<path
   d="M151.81,357.81v1.74c0,4.64-2.95,8.76-8.61,8.76c-5.05,0-9.19-4.29-9.19-9.34c0-5.05,4.14-9.34,9.19-9.34    c3.89,0,7.09,2.07,8.35,5.15l-2.27,0.86c-0.93-2.32-3.21-3.71-6.08-3.71c-3.69,0-6.71,3.23-6.71,7.04c0,3.81,3.03,7.02,6.71,7.02    c4.01,0,6.11-2.55,6.13-5.96h-7.7v-2.22H151.81z"
   id="path12954" />
		<path
   d="M153.96,361.87c0-3.61,2.75-6.44,6.51-6.44c3.76,0,6.49,2.83,6.49,6.44c0,3.58-2.73,6.44-6.49,6.44    C156.71,368.31,153.96,365.45,153.96,361.87z M164.48,361.87c0-2.42-1.56-4.29-4.01-4.29c-2.37,0-4.04,1.87-4.04,4.29    c0,2.4,1.64,4.29,4.04,4.29C162.92,366.16,164.48,364.27,164.48,361.87z"
   id="path12956" />
		<path
   d="M168.98,361.87c0-3.61,2.75-6.44,6.51-6.44c3.76,0,6.49,2.83,6.49,6.44c0,3.58-2.73,6.44-6.49,6.44    C171.73,368.31,168.98,365.45,168.98,361.87z M179.5,361.87c0-2.42-1.56-4.29-4.01-4.29c-2.37,0-4.04,1.87-4.04,4.29    c0,2.4,1.64,4.29,4.04,4.29C177.94,366.16,179.5,364.27,179.5,361.87z"
   id="path12958" />
		<path
   d="M196.74,355.81v12.11c0,3.43-2.45,5.8-6.33,5.8c-2.98,0-5.02-1.72-5.93-4.14l2.02-0.96c0.56,1.82,2.09,3,3.91,3    c2.47,0,3.91-1.54,3.91-3.71v-1.64c-0.83,1.29-2.47,2.02-4.14,2.02c-3.36,0-6.06-2.57-6.06-6.44c0-3.89,2.7-6.44,6.06-6.44    c1.67,0,3.31,0.73,4.14,2.02v-1.64H196.74z M194.32,361.87c0-2.62-1.69-4.29-3.84-4.29c-2.32,0-3.89,1.77-3.89,4.29    c0,2.52,1.56,4.29,3.89,4.29C192.63,366.16,194.32,364.5,194.32,361.87z"
   id="path12960" />
		<path
   d="M200.15,364.45v-14.44h2.45v14.41c0,0.88,0.28,1.29,1.06,1.29h0.98v2.22h-1.21C201.34,367.93,200.15,366.62,200.15,364.45    z"
   id="path12962" />
		<path
   d="M206.29,361.72c0-3.61,2.62-6.28,6.11-6.28c3.91,0,6.26,2.78,5.93,6.97h-9.54c0.2,2.52,1.69,3.84,3.68,3.84    c1.94,0,3.18-0.98,3.89-2.6l1.94,0.81c-0.93,2.27-3,3.86-5.83,3.86C208.66,368.31,206.29,365.38,206.29,361.72z M215.98,360.61    c-0.2-2.2-1.64-3.18-3.58-3.18c-2.02,0-3.33,1.41-3.58,3.18H215.98z"
   id="path12964" />
		<path
   d="M239.56,355.59c0,3.38-2.55,5.53-6.03,5.53h-3.99v6.81h-2.45v-17.92h6.44C236.98,350.01,239.56,352.18,239.56,355.59z     M237.11,355.56c0-2.17-1.56-3.33-3.84-3.33h-3.74v6.69h3.81C235.59,358.92,237.11,357.73,237.11,355.56z"
   id="path12966" />
		<path
   d="M252.93,365.71v2.22h-0.56c-1.97,0-2.85-0.48-3.13-1.74c-0.68,1.24-2.47,2.12-4.19,2.12c-2.37,0-4.21-1.29-4.21-3.61    c0-3.23,4.09-3.99,7.92-4.64c-0.05-1.72-1.09-2.6-2.6-2.6c-1.56,0-2.78,0.78-3.23,2.47l-2.12-0.56c0.83-2.9,3.26-3.94,5.53-3.94    c2.67,0,4.85,1.67,4.85,4.8v4.32c0,0.88,0.05,1.16,1.19,1.16H252.93z M248.77,361.79c-2.73,0.43-5.48,0.91-5.48,2.7    c0,1.29,0.93,1.84,2.2,1.84c2.22,0,3.28-1.56,3.28-3.68V361.79z"
   id="path12968" />
		<path
   d="M266.84,355.81l-7.52,17.92h-2.6l2.5-5.78l-5.27-12.14h2.65l3.86,9.39l3.73-9.39H266.84z"
   id="path12970" />
		<path
   d="M287.42,350.01v17.92h-2.27l-9.29-13.63v13.63h-2.45v-17.92h2.3l9.29,13.63v-13.63H287.42z"
   id="path12972" />
		<path
   d="M290.19,361.87c0-3.61,2.75-6.44,6.51-6.44c3.76,0,6.49,2.83,6.49,6.44c0,3.58-2.73,6.44-6.49,6.44    C292.95,368.31,290.19,365.45,290.19,361.87z M300.72,361.87c0-2.42-1.56-4.29-4.01-4.29c-2.37,0-4.04,1.87-4.04,4.29    c0,2.4,1.64,4.29,4.04,4.29C299.15,366.16,300.72,364.27,300.72,361.87z"
   id="path12974" />
		<path
   d="M317.43,360.96v6.97h-2.45v-6.64c0-2.5-1.19-3.61-3.18-3.61c-2.15,0-3.51,1.57-3.51,3.86v6.38h-2.42v-12.11h2.42v1.94    c0.83-1.39,2.15-2.32,3.96-2.32C315.36,355.43,317.43,357.25,317.43,360.96z"
   id="path12976" />
		<path
   d="M326.54,368.31c-3.71,0-6.46-2.93-6.46-6.59c0-3.61,2.73-6.28,6.49-6.28c2.62,0,4.67,1.34,5.58,3.51l-2.09,0.86    c-0.58-1.44-1.72-2.22-3.48-2.22c-2.4,0-4.01,1.72-4.01,4.14s1.59,4.44,3.99,4.44c1.67,0,2.8-0.83,3.43-2.27l2.07,0.91    C331.09,366.94,329.14,368.31,326.54,368.31z"
   id="path12978" />
		<path
   d="M334.04,361.72c0-3.61,2.62-6.28,6.11-6.28c3.91,0,6.26,2.78,5.93,6.97h-9.54c0.2,2.52,1.69,3.84,3.68,3.84    c1.94,0,3.18-0.98,3.89-2.6l1.94,0.81c-0.93,2.27-3,3.86-5.83,3.86C336.41,368.31,334.04,365.38,334.04,361.72z M343.73,360.61    c-0.2-2.2-1.64-3.18-3.58-3.18c-2.02,0-3.33,1.41-3.58,3.18H343.73z"
   id="path12980" />
	</g>
	<path
   class="st17"
   d="M506.54,331.46h-190c-5.52,0-10-4.48-10-10v-215c0-5.52,4.48-10,10-10h190c5.52,0,10,4.48,10,10v215   C516.54,326.98,512.06,331.46,506.54,331.46z"
   id="path12984" />
	
	<g
   class="st15"
   id="g13032"
   transform="translate(0,-6)">
		<path
   class="st1"
   d="m 355.52,213.92 v 12.11 c 0,3.43 -2.45,5.8 -6.33,5.8 -2.98,0 -5.02,-1.72 -5.93,-4.14 l 2.02,-0.96 c 0.56,1.82 2.09,3 3.91,3 2.47,0 3.91,-1.54 3.91,-3.71 v -1.64 c -0.83,1.29 -2.47,2.02 -4.14,2.02 -3.36,0 -6.06,-2.57 -6.06,-6.44 0,-3.89 2.7,-6.44 6.06,-6.44 1.67,0 3.31,0.73 4.14,2.02 v -1.64 h 2.42 z m -2.42,6.06 c 0,-2.62 -1.69,-4.29 -3.84,-4.29 -2.32,0 -3.89,1.77 -3.89,4.29 0,2.52 1.56,4.29 3.89,4.29 2.15,0 3.84,-1.67 3.84,-4.29 z"
   id="path13012" />
		<path
   class="st1"
   d="m 358.17,219.98 c 0,-3.61 2.75,-6.44 6.51,-6.44 3.76,0 6.49,2.83 6.49,6.44 0,3.58 -2.73,6.44 -6.49,6.44 -3.76,-0.01 -6.51,-2.86 -6.51,-6.44 z m 10.53,0 c 0,-2.42 -1.56,-4.29 -4.01,-4.29 -2.37,0 -4.04,1.87 -4.04,4.29 0,2.4 1.64,4.29 4.04,4.29 2.44,0 4.01,-1.9 4.01,-4.29 z"
   id="path13014" />
		<path
   class="st1"
   d="m 373.19,219.98 c 0,-3.61 2.75,-6.44 6.51,-6.44 3.76,0 6.49,2.83 6.49,6.44 0,3.58 -2.73,6.44 -6.49,6.44 -3.76,-0.01 -6.51,-2.86 -6.51,-6.44 z m 10.53,0 c 0,-2.42 -1.56,-4.29 -4.01,-4.29 -2.37,0 -4.04,1.87 -4.04,4.29 0,2.4 1.64,4.29 4.04,4.29 2.44,0 4.01,-1.9 4.01,-4.29 z"
   id="path13016" />
		<path
   class="st1"
   d="m 400.96,213.92 v 12.11 c 0,3.43 -2.45,5.8 -6.33,5.8 -2.98,0 -5.02,-1.72 -5.93,-4.14 l 2.02,-0.96 c 0.56,1.82 2.09,3 3.91,3 2.47,0 3.91,-1.54 3.91,-3.71 v -1.64 c -0.83,1.29 -2.47,2.02 -4.14,2.02 -3.36,0 -6.06,-2.57 -6.06,-6.44 0,-3.89 2.7,-6.44 6.06,-6.44 1.67,0 3.31,0.73 4.14,2.02 v -1.64 h 2.42 z m -2.43,6.06 c 0,-2.62 -1.69,-4.29 -3.84,-4.29 -2.32,0 -3.89,1.77 -3.89,4.29 0,2.52 1.56,4.29 3.89,4.29 2.15,0 3.84,-1.67 3.84,-4.29 z"
   id="path13018" />
		<path
   class="st1"
   d="m 404.37,222.55 v -14.44 h 2.45 v 14.41 c 0,0.88 0.28,1.29 1.06,1.29 h 0.98 v 2.22 h -1.21 c -2.1,0 -3.28,-1.31 -3.28,-3.48 z"
   id="path13020" />
		<path
   class="st1"
   d="m 410.5,219.82 c 0,-3.61 2.62,-6.28 6.11,-6.28 3.91,0 6.26,2.78 5.93,6.97 H 413 c 0.2,2.52 1.69,3.84 3.68,3.84 1.94,0 3.18,-0.98 3.89,-2.6 l 1.94,0.81 c -0.93,2.27 -3,3.86 -5.83,3.86 -3.81,-0.01 -6.18,-2.94 -6.18,-6.6 z m 9.69,-1.11 c -0.2,-2.2 -1.64,-3.18 -3.58,-3.18 -2.02,0 -3.33,1.41 -3.58,3.18 z"
   id="path13022" />
		<path
   class="st1"
   d="m 435.34,217.73 v 2.22 h -10.1 v -2.22 z"
   id="path13024" />
		<path
   class="st1"
   d="m 438.75,213.92 h 2.45 v 1.62 c 0.81,-1.29 2.47,-1.99 4.14,-1.99 3.33,0 6.16,2.55 6.16,6.44 0,3.86 -2.83,6.44 -6.16,6.44 -1.67,0 -3.33,-0.76 -4.14,-2.04 v 7.47 h -2.45 z m 10.29,6.06 c 0,-2.4 -1.51,-4.29 -3.96,-4.29 -2.27,0 -3.89,1.79 -3.89,4.29 0,2.5 1.62,4.29 3.89,4.29 2.45,0 3.96,-1.9 3.96,-4.29 z"
   id="path13026" />
		<path
   class="st1"
   d="m 465.75,223.81 v 2.22 h -0.55 c -1.97,0 -2.85,-0.48 -3.13,-1.74 -0.68,1.24 -2.47,2.12 -4.19,2.12 -2.37,0 -4.21,-1.29 -4.21,-3.61 0,-3.23 4.09,-3.99 7.92,-4.64 -0.05,-1.72 -1.08,-2.6 -2.6,-2.6 -1.56,0 -2.78,0.78 -3.23,2.47 l -2.12,-0.56 c 0.83,-2.9 3.26,-3.94 5.53,-3.94 2.67,0 4.85,1.67 4.85,4.8 v 4.32 c 0,0.88 0.05,1.16 1.19,1.16 z m -4.16,-3.91 c -2.73,0.43 -5.48,0.91 -5.48,2.7 0,1.29 0.93,1.84 2.2,1.84 2.22,0 3.28,-1.56 3.28,-3.68 z"
   id="path13028" />
		<path
   class="st1"
   d="m 479.66,213.92 -7.52,17.92 h -2.6 l 2.5,-5.78 -5.27,-12.14 h 2.65 l 3.86,9.39 3.73,-9.39 z"
   id="path13030" />
	</g>
	<g
   class="st15"
   id="g13046"
   transform="translate(0,-6)">
		<path
   class="st1"
   d="m 386.84,248.71 v 7.32 h -2.42 v -6.92 c 0,-2.45 -0.96,-3.33 -2.57,-3.33 -1.64,0 -2.98,1.21 -2.98,3.38 v 6.87 h -2.42 v -6.92 c 0,-2.45 -0.96,-3.33 -2.57,-3.33 -1.74,0 -2.98,1.39 -2.98,3.66 v 6.59 h -2.45 v -12.11 h 2.45 v 1.64 c 0.76,-1.26 2.02,-2.02 3.46,-2.02 1.89,0 3.26,0.68 3.94,2.25 0.88,-1.62 2.37,-2.25 4.04,-2.25 2.76,0 4.5,1.77 4.5,5.17 z"
   id="path13034" />
		<path
   class="st1"
   d="m 389.36,249.98 c 0,-3.61 2.75,-6.44 6.51,-6.44 3.76,0 6.49,2.83 6.49,6.44 0,3.58 -2.73,6.44 -6.49,6.44 -3.75,-0.01 -6.51,-2.86 -6.51,-6.44 z m 10.53,0 c 0,-2.42 -1.56,-4.29 -4.01,-4.29 -2.37,0 -4.04,1.87 -4.04,4.29 0,2.4 1.64,4.29 4.04,4.29 2.44,0 4.01,-1.9 4.01,-4.29 z"
   id="path13036" />
		<path
   class="st1"
   d="m 404.38,249.98 c 0,-3.89 2.83,-6.44 6.18,-6.44 1.67,0 3.31,0.73 4.14,2.02 v -7.45 h 2.42 v 17.92 h -2.42 v -1.64 c -0.83,1.29 -2.47,2.02 -4.14,2.02 -3.35,0 -6.18,-2.57 -6.18,-6.43 z m 10.33,0 c 0,-2.5 -1.62,-4.29 -3.89,-4.29 -2.45,0 -3.96,1.89 -3.96,4.29 0,2.4 1.51,4.29 3.96,4.29 2.27,0 3.89,-1.8 3.89,-4.29 z"
   id="path13038" />
		<path
   class="st1"
   d="m 433.54,253.81 v 2.22 h -0.73 c -1.62,0 -2.3,-0.66 -2.6,-1.87 -0.93,1.41 -2.47,2.25 -4.37,2.25 -3.1,0 -5.17,-1.84 -5.17,-5.53 v -6.97 h 2.45 v 6.61 c 0,2.57 1.19,3.63 3.18,3.63 2.15,0 3.51,-1.57 3.51,-3.86 v -6.38 h 2.42 v 8.61 c 0,0.88 0.05,1.29 0.81,1.29 z"
   id="path13040" />
		<path
   class="st1"
   d="m 436.54,252.55 v -14.44 h 2.45 v 14.41 c 0,0.88 0.28,1.29 1.06,1.29 h 0.98 v 2.22 h -1.21 c -2.09,0 -3.28,-1.31 -3.28,-3.48 z"
   id="path13042" />
		<path
   class="st1"
   d="m 442.68,249.82 c 0,-3.61 2.62,-6.28 6.11,-6.28 3.91,0 6.26,2.78 5.93,6.97 h -9.54 c 0.2,2.52 1.69,3.84 3.68,3.84 1.94,0 3.18,-0.98 3.89,-2.6 l 1.94,0.81 c -0.93,2.27 -3,3.86 -5.83,3.86 -3.81,-0.01 -6.18,-2.94 -6.18,-6.6 z m 9.69,-1.11 c -0.2,-2.2 -1.64,-3.18 -3.58,-3.18 -2.02,0 -3.33,1.41 -3.58,3.18 z"
   id="path13044" />
	</g>
	<line
   class="st18"
   x1="646.54"
   y1="115.84"
   x2="516.54"
   y2="115.84"
   id="line13048" />
	<circle
   id="Ellipse_257_00000021835213358508181500000013386925568087617928_"
   cx="516.54"
   cy="145.84"
   r="5"
   fill="#999" />
	<line
   class="st18"
   x1="521.54"
   y1="145.84"
   x2="651.54"
   y2="145.84"
   id="line13051" />
	<circle
   id="Ellipse_257_00000031886339360577469720000015785580309084693415_"
   cx="651.54"
   cy="284.08"
   r="5"
   fill="#999" />
	<line
   class="st18"
   x1="646.54"
   y1="284.08"
   x2="516.54"
   y2="284.08"
   id="line13054" />
	<circle
   id="Ellipse_257_00000101801756097231874720000010263004109961537450_"
   cx="516.54"
   cy="314.08"
   r="5"
   fill="#999" />
	<line
   class="st18"
   x1="521.54"
   y1="314.08"
   x2="651.54"
   y2="314.08"
   id="line13057" />
	<g
   class="st15"
   id="g13073"
   transform="translate(0,-72)">
		<path
   class="st1"
   d="m 188.26,282.37 h 3.16 c 1.54,0 2.65,0.86 2.66,2.29 0,0.84 -0.36,1.43 -1.12,1.82 0.83,0.37 1.2,1 1.2,1.88 0,1.45 -1.13,2.3 -2.72,2.3 h -3.18 z m 3.11,3.62 c 0.96,0 1.57,-0.42 1.56,-1.29 -0.01,-0.9 -0.66,-1.29 -1.66,-1.29 h -1.9 V 286 h 2 z m 0.01,3.62 c 0.97,0 1.64,-0.42 1.64,-1.29 0,-0.87 -0.62,-1.33 -1.59,-1.33 h -2.06 v 2.62 z"
   id="path13059" />
		<path
   class="st1"
   d="m 201.44,289.62 v 1.03 h -0.34 c -0.75,0 -1.06,-0.3 -1.2,-0.86 -0.43,0.65 -1.14,1.04 -2.02,1.04 -1.43,0 -2.39,-0.85 -2.39,-2.55 v -3.22 h 1.13 v 3.05 c 0,1.19 0.55,1.68 1.47,1.68 0.99,0 1.62,-0.72 1.62,-1.78 v -2.95 h 1.12 v 3.98 c 0,0.41 0.02,0.59 0.37,0.59 h 0.24 z"
   id="path13061" />
		<path
   class="st1"
   d="m 208.19,285.05 -3.47,8.28 h -1.2 l 1.15,-2.67 -2.44,-5.61 h 1.22 l 1.78,4.34 1.73,-4.34 z"
   id="path13063" />
		<path
   class="st1"
   d="m 218.67,285.05 -1.82,5.6 h -0.93 l -1.29,-4.24 -1.29,4.24 h -0.94 l -1.81,-5.6 h 1.13 l 1.19,4.12 1.25,-4.12 h 0.94 l 1.26,4.12 1.19,-4.12 z"
   id="path13065" />
		<path
   class="st1"
   d="m 220.49,282.66 c 0.42,0 0.76,0.33 0.76,0.76 0,0.42 -0.35,0.75 -0.76,0.75 -0.43,0 -0.78,-0.33 -0.78,-0.75 0,-0.44 0.35,-0.76 0.78,-0.76 z m 0.56,7.99 h -1.12 v -5.6 h 1.12 z"
   id="path13067" />
		<path
   class="st1"
   d="m 224.46,286.01 v 3.01 c 0,0.41 0.12,0.61 0.57,0.61 h 0.75 v 1.03 H 225 c -1.13,0 -1.67,-0.64 -1.67,-1.66 v -2.98 h -1.21 v -0.96 h 1.21 v -1.66 l 1.12,-0.29 v 1.95 H 226 v 0.96 h -1.54 z"
   id="path13069" />
		<path
   class="st1"
   d="m 232.39,287.43 v 3.22 h -1.12 v -3.07 c 0,-1.15 -0.56,-1.67 -1.48,-1.67 -0.98,0 -1.61,0.72 -1.61,1.78 v 2.95 h -1.13 v -8.28 h 1.13 v 3.56 c 0.37,-0.63 0.98,-1.05 1.82,-1.05 1.45,0.01 2.39,0.85 2.39,2.56 z"
   id="path13071" />
	</g>
	<path
   class="st19"
   d="M807.09,118.15v17.6h-5.58V92.31h14.79c3.57-0.07,7,1.28,9.6,3.78c2.6,2.32,4.05,5.68,3.98,9.15   c0.07,3.5-1.39,6.86-3.98,9.21c-2.6,2.46-5.79,3.71-9.56,3.71h-9.25V118.15z M807.09,97.64v15.17h9.35   c2.08,0.07,4.09-0.76,5.51-2.25c2.94-2.84,2.98-7.52,0.14-10.46l-0.14-0.14c-1.42-1.52-3.43-2.36-5.51-2.29L807.09,97.64z    M842.74,105.06c4.12,0,7.38,1.11,9.77,3.29c2.39,2.22,3.57,5.23,3.57,9.08v18.29h-5.33v-4.12h-0.24   c-2.32,3.39-5.37,5.09-9.21,5.09c-3.26,0-6.03-0.97-8.21-2.91c-2.15-1.8-3.36-4.47-3.29-7.27c0-3.08,1.18-5.51,3.5-7.34   c2.32-1.84,5.44-2.74,9.32-2.74c3.33,0,6.03,0.62,8.18,1.8v-1.28c0-1.91-0.83-3.71-2.29-4.92c-1.49-1.32-3.39-2.04-5.37-2.04   c-3.12,0-5.58,1.32-7.41,3.95l-4.92-3.08C833.45,107,837.44,105.06,842.74,105.06L842.74,105.06z M835.53,126.64   c0,1.45,0.69,2.81,1.84,3.64c1.25,0.97,2.77,1.49,4.33,1.45c2.36,0,4.61-0.94,6.27-2.6c1.84-1.73,2.77-3.78,2.77-6.13   c-1.73-1.39-4.16-2.08-7.27-2.08c-2.25,0-4.16,0.55-5.68,1.63C836.29,123.66,835.53,125.01,835.53,126.64z M886.7,106.03   l-18.64,42.82h-5.75l6.93-14.96l-12.26-27.82h6.06l8.83,21.34h0.14l8.63-21.34L886.7,106.03z"
   id="path13075" />
	<path
   class="st2"
   d="M784.54,114.34c0-1.7-0.14-3.39-0.42-5.06H760.6v9.6h13.48c-0.55,3.08-2.36,5.85-4.99,7.59v6.24h8.04   C781.84,128.37,784.54,121.96,784.54,114.34L784.54,114.34z"
   id="path13077" />
	<path
   class="st3"
   d="M760.6,138.73c6.72,0,12.4-2.22,16.52-6.03l-8.04-6.24c-2.25,1.52-5.13,2.39-8.49,2.39   c-6.51,0-12.02-4.4-13.99-10.29h-8.28V125C742.55,133.39,751.18,138.73,760.6,138.73z"
   id="path13079" />
	<path
   class="st4"
   d="M746.61,118.57c-1.04-3.08-1.04-6.44,0-9.56v-6.41h-8.28c-3.57,7.03-3.57,15.35,0,22.38L746.61,118.57z"
   id="path13081" />
	<path
   class="st5"
   d="M760.6,98.72c3.57-0.07,7,1.28,9.56,3.74l7.1-7.1c-4.5-4.26-10.46-6.58-16.66-6.51   c-9.42,0-18.05,5.33-22.27,13.75l8.28,6.44C748.58,103.12,754.09,98.72,760.6,98.72z"
   id="path13083" />
	
<text
   xml:space="preserve"
   id="text906-3"
   style="font-size:26.6667px;font-family:Forth;-inkscape-font-specification:Forth;text-align:center;white-space:pre;shape-inside:url(#rect908-8);display:inline;fill:#ffffff;stroke-opacity:0.839216"
   transform="translate(-320.20342,152.98519)"><tspan
     x="682.89332"
     y="39.402941"
     id="tspan13716"><tspan
       style="font-weight:600;-inkscape-font-specification:'Forth Semi-Bold'"
       id="tspan13714">BR-DGE</tspan></tspan></text><text
   xml:space="preserve"
   id="text3958"
   style="font-style:normal;font-variant:normal;font-weight:500;font-stretch:normal;font-size:26.6667px;font-family:Forth;-inkscape-font-specification:'Forth Medium';text-align:center;white-space:pre;shape-inside:url(#rect3960);display:inline;fill:#ffffff;stroke-opacity:0.839216"
   transform="translate(76.535054,-9.9871442)"><tspan
     x="67.622017"
     y="57.463488"
     id="tspan13718">Your Client App</tspan></text></g>
</svg>
