<?xml version="1.0" encoding="UTF-8" standalone="no"?>
<svg
   width="911"
   height="865"
   viewBox="0 0 911 865"
   fill="none"
   version="1.1"
   id="svg16908"
   sodipodi:docname="comcarde-web-bancontact-module.svg"
   inkscape:version="1.2.1 (9c6d41e4, 2022-07-14)"
   xmlns:inkscape="http://www.inkscape.org/namespaces/inkscape"
   xmlns:sodipodi="http://sodipodi.sourceforge.net/DTD/sodipodi-0.dtd"
   xmlns="http://www.w3.org/2000/svg"
   xmlns:svg="http://www.w3.org/2000/svg">
  <sodipodi:namedview
     id="namedview16910"
     pagecolor="#ffffff"
     bordercolor="#000000"
     borderopacity="0.25"
     inkscape:showpageshadow="2"
     inkscape:pageopacity="0.0"
     inkscape:pagecheckerboard="0"
     inkscape:deskcolor="#d1d1d1"
     showgrid="false"
     inkscape:zoom="1.1319968"
     inkscape:cx="567.58113"
     inkscape:cy="427.12136"
     inkscape:window-width="2560"
     inkscape:window-height="1387"
     inkscape:window-x="0"
     inkscape:window-y="25"
     inkscape:window-maximized="1"
     inkscape:current-layer="svg16908" />
  <path
     d="M391.314 751V733.767H397.892C399.526 733.767 400.853 734.196 401.873 735.053C402.892 735.911 403.41 737.068 403.426 738.524C403.426 740.256 402.649 741.518 401.096 742.311C402.762 743.055 403.596 744.358 403.596 746.218C403.596 747.691 403.07 748.856 402.018 749.714C400.983 750.571 399.623 751 397.94 751H391.314ZM393.644 741.291H397.795C398.814 741.291 399.615 741.065 400.198 740.612C400.78 740.159 401.063 739.487 401.047 738.597C401.031 737.691 400.716 737.019 400.101 736.583C399.502 736.129 398.669 735.903 397.601 735.903H393.644V741.291ZM393.644 748.84H397.819C398.871 748.84 399.704 748.613 400.319 748.16C400.934 747.707 401.241 747.036 401.241 746.146C401.241 745.256 400.942 744.576 400.343 744.107C399.761 743.621 398.96 743.379 397.94 743.379H393.644V748.84ZM416.887 748.864H417.421V751H416.887C415.933 751 415.221 750.871 414.752 750.612C414.298 750.353 414.007 749.924 413.878 749.325C413.554 749.924 413.004 750.417 412.227 750.806C411.467 751.178 410.674 751.364 409.849 751.364C408.667 751.364 407.697 751.057 406.936 750.442C406.175 749.827 405.795 748.977 405.795 747.893C405.795 747.392 405.884 746.939 406.062 746.534C406.256 746.129 406.556 745.782 406.96 745.49C407.381 745.199 407.794 744.948 408.198 744.738C408.603 744.528 409.145 744.341 409.824 744.18C410.504 744.002 411.07 743.864 411.523 743.767C411.993 743.67 412.624 743.557 413.417 743.427C413.4 742.618 413.166 742.003 412.713 741.583C412.26 741.146 411.661 740.927 410.917 740.927C409.266 740.927 408.23 741.72 407.81 743.306L405.771 742.772C406.143 741.477 406.815 740.523 407.786 739.908C408.773 739.293 409.873 738.985 411.086 738.985C412.43 738.985 413.538 739.39 414.412 740.199C415.302 741.008 415.747 742.141 415.747 743.597V747.748C415.747 748.201 415.803 748.5 415.917 748.646C416.046 748.791 416.37 748.864 416.887 748.864ZM413.417 745.927V745.102C412.575 745.231 411.912 745.353 411.426 745.466C410.957 745.563 410.431 745.709 409.849 745.903C409.266 746.097 408.837 746.348 408.562 746.655C408.287 746.947 408.15 747.294 408.15 747.699C408.15 748.298 408.336 748.743 408.708 749.034C409.096 749.325 409.614 749.471 410.261 749.471C411.297 749.471 412.082 749.147 412.616 748.5C413.15 747.853 413.417 746.995 413.417 745.927ZM426.263 738.985C427.801 738.985 429.014 739.439 429.904 740.345C430.794 741.251 431.239 742.57 431.239 744.301V751H428.885V744.617C428.885 742.303 427.865 741.146 425.827 741.146C424.807 741.146 423.99 741.485 423.375 742.165C422.76 742.845 422.453 743.743 422.453 744.859V751H420.123V739.35H422.453V741.218C423.343 739.73 424.613 738.985 426.263 738.985ZM445.304 747.99C444.835 749.042 444.139 749.867 443.216 750.466C442.31 751.065 441.242 751.364 440.013 751.364C438.249 751.364 436.768 750.757 435.571 749.544C434.39 748.314 433.799 746.809 433.799 745.029C433.799 743.298 434.382 741.858 435.547 740.709C436.728 739.56 438.225 738.985 440.037 738.985C441.283 738.985 442.375 739.285 443.314 739.883C444.268 740.482 444.964 741.307 445.401 742.359L443.386 743.184C442.804 741.761 441.687 741.049 440.037 741.049C438.888 741.049 437.958 741.421 437.246 742.165C436.534 742.909 436.178 743.864 436.178 745.029C436.178 746.227 436.534 747.238 437.246 748.063C437.958 748.888 438.88 749.301 440.013 749.301C441.582 749.301 442.682 748.573 443.314 747.117L445.304 747.99ZM457.955 749.592C456.774 750.773 455.285 751.364 453.489 751.364C451.693 751.364 450.196 750.765 448.999 749.568C447.817 748.371 447.227 746.906 447.227 745.175C447.227 743.427 447.817 741.963 448.999 740.782C450.196 739.584 451.693 738.985 453.489 738.985C455.285 738.985 456.774 739.584 457.955 740.782C459.136 741.963 459.727 743.427 459.727 745.175C459.727 746.922 459.136 748.395 457.955 749.592ZM453.489 749.301C454.638 749.301 455.568 748.913 456.28 748.136C456.992 747.343 457.348 746.356 457.348 745.175C457.348 743.994 456.992 743.015 456.28 742.238C455.568 741.445 454.638 741.049 453.489 741.049C452.356 741.049 451.426 741.445 450.698 742.238C449.969 743.015 449.605 743.994 449.605 745.175C449.605 746.34 449.969 747.319 450.698 748.112C451.426 748.905 452.356 749.301 453.489 749.301ZM468.451 738.985C469.988 738.985 471.202 739.439 472.092 740.345C472.982 741.251 473.427 742.57 473.427 744.301V751H471.072V744.617C471.072 742.303 470.053 741.146 468.014 741.146C466.995 741.146 466.178 741.485 465.563 742.165C464.948 742.845 464.64 743.743 464.64 744.859V751H462.31V739.35H464.64V741.218C465.53 739.73 466.801 738.985 468.451 738.985ZM482.608 741.34H479.38V747.602C479.38 748.055 479.461 748.379 479.623 748.573C479.801 748.767 480.117 748.864 480.57 748.864H482.123V751H480.521C479.372 751 478.507 750.701 477.924 750.102C477.341 749.487 477.05 748.638 477.05 747.553V741.34H474.526V739.35H477.05V735.903L479.38 735.296V739.35H482.608V741.34ZM495.672 748.864H496.206V751H495.672C494.717 751 494.005 750.871 493.536 750.612C493.083 750.353 492.791 749.924 492.662 749.325C492.338 749.924 491.788 750.417 491.011 750.806C490.251 751.178 489.458 751.364 488.633 751.364C487.452 751.364 486.481 751.057 485.72 750.442C484.96 749.827 484.579 748.977 484.579 747.893C484.579 747.392 484.668 746.939 484.846 746.534C485.041 746.129 485.34 745.782 485.744 745.49C486.165 745.199 486.578 744.948 486.982 744.738C487.387 744.528 487.929 744.341 488.609 744.18C489.288 744.002 489.854 743.864 490.308 743.767C490.777 743.67 491.408 743.557 492.201 743.427C492.185 742.618 491.95 742.003 491.497 741.583C491.044 741.146 490.445 740.927 489.701 740.927C488.05 740.927 487.015 741.72 486.594 743.306L484.555 742.772C484.927 741.477 485.599 740.523 486.57 739.908C487.557 739.293 488.657 738.985 489.871 738.985C491.214 738.985 492.322 739.39 493.196 740.199C494.086 741.008 494.531 742.141 494.531 743.597V747.748C494.531 748.201 494.587 748.5 494.701 748.646C494.83 748.791 495.154 748.864 495.672 748.864ZM492.201 745.927V745.102C491.359 745.231 490.696 745.353 490.21 745.466C489.741 745.563 489.215 745.709 488.633 745.903C488.05 746.097 487.621 746.348 487.346 746.655C487.071 746.947 486.934 747.294 486.934 747.699C486.934 748.298 487.12 748.743 487.492 749.034C487.88 749.325 488.398 749.471 489.045 749.471C490.081 749.471 490.866 749.147 491.4 748.5C491.934 747.853 492.201 746.995 492.201 745.927ZM509.415 747.99C508.946 749.042 508.25 749.867 507.328 750.466C506.422 751.065 505.354 751.364 504.124 751.364C502.36 751.364 500.88 750.757 499.682 749.544C498.501 748.314 497.91 746.809 497.91 745.029C497.91 743.298 498.493 741.858 499.658 740.709C500.839 739.56 502.336 738.985 504.148 738.985C505.394 738.985 506.486 739.285 507.425 739.883C508.38 740.482 509.075 741.307 509.512 742.359L507.498 743.184C506.915 741.761 505.799 741.049 504.148 741.049C502.999 741.049 502.069 741.421 501.357 742.165C500.645 742.909 500.289 743.864 500.289 745.029C500.289 746.227 500.645 747.238 501.357 748.063C502.069 748.888 502.991 749.301 504.124 749.301C505.693 749.301 506.794 748.573 507.425 747.117L509.415 747.99ZM518.937 741.34H515.708V747.602C515.708 748.055 515.789 748.379 515.951 748.573C516.129 748.767 516.445 748.864 516.898 748.864H518.451V751H516.849C515.7 751 514.835 750.701 514.252 750.102C513.67 749.487 513.378 748.638 513.378 747.553V741.34H510.854V739.35H513.378V735.903L515.708 735.296V739.35H518.937V741.34ZM364.508 762.767C366.191 762.767 367.574 763.261 368.658 764.248C369.759 765.218 370.309 766.513 370.309 768.131C370.309 769.733 369.767 771.019 368.683 771.99C367.599 772.961 366.207 773.447 364.508 773.447H360.673V780H358.319V762.767H364.508ZM364.338 771.335C365.438 771.335 366.312 771.052 366.959 770.485C367.623 769.919 367.955 769.126 367.955 768.107C367.955 767.087 367.615 766.303 366.935 765.752C366.272 765.186 365.382 764.903 364.265 764.903H360.673V771.335H364.338ZM382.647 777.864H383.181V780H382.647C381.692 780 380.98 779.871 380.511 779.612C380.058 779.353 379.766 778.924 379.637 778.325C379.313 778.924 378.763 779.417 377.987 779.806C377.226 780.178 376.433 780.364 375.608 780.364C374.427 780.364 373.456 780.057 372.695 779.442C371.935 778.827 371.554 777.977 371.554 776.893C371.554 776.392 371.643 775.939 371.821 775.534C372.016 775.129 372.315 774.782 372.72 774.49C373.14 774.199 373.553 773.948 373.957 773.738C374.362 773.528 374.904 773.341 375.584 773.18C376.263 773.002 376.83 772.864 377.283 772.767C377.752 772.67 378.383 772.557 379.176 772.427C379.16 771.618 378.925 771.003 378.472 770.583C378.019 770.146 377.42 769.927 376.676 769.927C375.025 769.927 373.99 770.72 373.569 772.306L371.53 771.772C371.902 770.477 372.574 769.523 373.545 768.908C374.532 768.293 375.632 767.985 376.846 767.985C378.189 767.985 379.297 768.39 380.171 769.199C381.061 770.008 381.506 771.141 381.506 772.597V776.748C381.506 777.201 381.563 777.5 381.676 777.646C381.805 777.791 382.129 777.864 382.647 777.864ZM379.176 774.927V774.102C378.334 774.231 377.671 774.353 377.186 774.466C376.716 774.563 376.19 774.709 375.608 774.903C375.025 775.097 374.597 775.348 374.321 775.655C374.046 775.947 373.909 776.294 373.909 776.699C373.909 777.298 374.095 777.743 374.467 778.034C374.855 778.325 375.373 778.471 376.021 778.471C377.056 778.471 377.841 778.147 378.375 777.5C378.909 776.853 379.176 775.995 379.176 774.927ZM394.01 768.35H396.558L389.325 785.583H386.825L389.228 780.024L384.155 768.35H386.704L390.417 777.379L394.01 768.35ZM412.464 767.985C413.823 767.985 414.883 768.414 415.644 769.272C416.42 770.113 416.809 771.343 416.809 772.961V780H414.479V773.35C414.479 771.214 413.653 770.146 412.003 770.146C411.178 770.146 410.49 770.437 409.94 771.019C409.406 771.602 409.139 772.395 409.139 773.398V780H406.809V773.35C406.809 771.214 405.983 770.146 404.333 770.146C403.475 770.146 402.78 770.461 402.246 771.092C401.728 771.723 401.469 772.581 401.469 773.665V780H399.115V768.35H401.469V769.927C402.246 768.633 403.354 767.985 404.794 767.985C406.687 767.985 407.95 768.706 408.581 770.146C409.373 768.706 410.668 767.985 412.464 767.985ZM425.183 780.364C423.386 780.364 421.946 779.765 420.862 778.568C419.778 777.354 419.236 775.841 419.236 774.029C419.236 772.298 419.794 770.858 420.911 769.709C422.027 768.56 423.427 767.985 425.11 767.985C426.987 767.985 428.443 768.6 429.479 769.83C430.531 771.044 430.975 772.662 430.814 774.684H421.639C421.736 775.866 422.1 776.78 422.731 777.427C423.378 778.058 424.196 778.374 425.183 778.374C426.946 778.374 428.192 777.54 428.92 775.874L430.789 776.65C430.32 777.783 429.6 778.689 428.629 779.369C427.658 780.032 426.509 780.364 425.183 780.364ZM421.663 772.961H428.556C428.459 771.942 428.103 771.181 427.488 770.68C426.874 770.162 426.081 769.903 425.11 769.903C424.171 769.903 423.395 770.194 422.78 770.777C422.165 771.343 421.793 772.071 421.663 772.961ZM439.581 767.985C441.119 767.985 442.332 768.439 443.222 769.345C444.112 770.251 444.557 771.57 444.557 773.301V780H442.203V773.617C442.203 771.303 441.183 770.146 439.144 770.146C438.125 770.146 437.308 770.485 436.693 771.165C436.078 771.845 435.771 772.743 435.771 773.859V780H433.441V768.35H435.771V770.218C436.661 768.73 437.931 767.985 439.581 767.985ZM453.739 770.34H450.511V776.602C450.511 777.055 450.592 777.379 450.753 777.573C450.931 777.767 451.247 777.864 451.7 777.864H453.253V780H451.651C450.503 780 449.637 779.701 449.054 779.102C448.472 778.487 448.181 777.638 448.181 776.553V770.34H445.656V768.35H448.181V764.903L450.511 764.296V768.35H453.739V770.34ZM473.97 780H471.349L468.121 773.447H468.072H464.237V780H461.883V762.767H468.072C469.755 762.767 471.139 763.261 472.223 764.248C473.323 765.218 473.873 766.513 473.873 768.131C473.873 769.312 473.566 770.332 472.951 771.189C472.352 772.031 471.535 772.646 470.5 773.034L473.97 780ZM464.237 764.903V771.335H467.903C469.003 771.335 469.877 771.052 470.524 770.485C471.187 769.919 471.519 769.126 471.519 768.107C471.519 767.087 471.179 766.303 470.5 765.752C469.836 765.186 468.946 764.903 467.83 764.903H464.237ZM481.677 780.364C479.881 780.364 478.441 779.765 477.356 778.568C476.272 777.354 475.73 775.841 475.73 774.029C475.73 772.298 476.288 770.858 477.405 769.709C478.521 768.56 479.921 767.985 481.604 767.985C483.481 767.985 484.937 768.6 485.973 769.83C487.025 771.044 487.47 772.662 487.308 774.684H478.133C478.23 775.866 478.594 776.78 479.225 777.427C479.873 778.058 480.69 778.374 481.677 778.374C483.441 778.374 484.686 777.54 485.415 775.874L487.284 776.65C486.814 777.783 486.094 778.689 485.123 779.369C484.152 780.032 483.004 780.364 481.677 780.364ZM478.157 772.961H485.051C484.953 771.942 484.597 771.181 483.983 770.68C483.368 770.162 482.575 769.903 481.604 769.903C480.665 769.903 479.889 770.194 479.274 770.777C478.659 771.343 478.287 772.071 478.157 772.961ZM499.232 785.583V778.398C498.843 779.013 498.285 779.498 497.557 779.854C496.829 780.194 496.06 780.364 495.251 780.364C493.6 780.364 492.193 779.79 491.028 778.641C489.879 777.476 489.304 775.987 489.304 774.175C489.304 772.346 489.879 770.858 491.028 769.709C492.193 768.56 493.6 767.985 495.251 767.985C496.076 767.985 496.845 768.155 497.557 768.495C498.285 768.835 498.843 769.304 499.232 769.903V768.35H501.562V785.583H499.232ZM495.494 778.301C496.578 778.301 497.468 777.913 498.164 777.136C498.876 776.359 499.232 775.372 499.232 774.175C499.232 772.977 498.876 771.99 498.164 771.214C497.468 770.437 496.578 770.049 495.494 770.049C494.345 770.049 493.422 770.445 492.727 771.238C492.031 772.015 491.683 772.994 491.683 774.175C491.683 775.356 492.031 776.343 492.727 777.136C493.422 777.913 494.345 778.301 495.494 778.301ZM516.721 777.864H517.206V780H516.502C515.758 780 515.192 779.854 514.803 779.563C514.415 779.272 514.148 778.819 514.002 778.204C513.048 779.644 511.648 780.364 509.803 780.364C508.266 780.364 507.052 779.911 506.162 779.005C505.272 778.099 504.827 776.78 504.827 775.049V768.35H507.182V774.709C507.182 777.039 508.201 778.204 510.24 778.204C511.259 778.204 512.077 777.864 512.692 777.184C513.306 776.505 513.614 775.607 513.614 774.49V768.35H515.944V776.626C515.944 777.095 515.984 777.419 516.065 777.597C516.162 777.775 516.381 777.864 516.721 777.864ZM525.305 780.364C523.509 780.364 522.068 779.765 520.984 778.568C519.9 777.354 519.358 775.841 519.358 774.029C519.358 772.298 519.916 770.858 521.033 769.709C522.149 768.56 523.549 767.985 525.232 767.985C527.109 767.985 528.565 768.6 529.601 769.83C530.653 771.044 531.098 772.662 530.936 774.684H521.761C521.858 775.866 522.222 776.78 522.853 777.427C523.5 778.058 524.318 778.374 525.305 778.374C527.068 778.374 528.314 777.54 529.043 775.874L530.911 776.65C530.442 777.783 529.722 778.689 528.751 779.369C527.78 780.032 526.632 780.364 525.305 780.364ZM521.785 772.961H528.678C528.581 771.942 528.225 771.181 527.611 770.68C526.996 770.162 526.203 769.903 525.232 769.903C524.293 769.903 523.517 770.194 522.902 770.777C522.287 771.343 521.915 772.071 521.785 772.961ZM537.762 780.364C536.533 780.364 535.505 780.065 534.68 779.466C533.871 778.851 533.337 778.026 533.078 776.99L535.287 776.408C535.61 777.751 536.444 778.422 537.787 778.422C538.515 778.422 539.097 778.269 539.534 777.961C539.971 777.654 540.19 777.225 540.19 776.675C540.19 776.222 539.963 775.866 539.51 775.607C539.057 775.332 538.499 775.121 537.835 774.976C537.188 774.814 536.533 774.636 535.869 774.442C535.222 774.231 534.672 773.9 534.219 773.447C533.766 772.977 533.539 772.371 533.539 771.626C533.539 770.574 533.944 769.709 534.753 769.029C535.562 768.333 536.573 767.985 537.787 767.985C539.712 767.985 541.128 768.811 542.034 770.461L540.141 771.383C539.591 770.413 538.798 769.927 537.762 769.927C537.164 769.927 536.694 770.073 536.355 770.364C536.015 770.639 535.845 770.987 535.845 771.408C535.845 771.812 536.071 772.136 536.525 772.379C536.994 772.605 537.552 772.791 538.199 772.937C538.863 773.083 539.518 773.269 540.165 773.495C540.813 773.706 541.363 774.07 541.816 774.587C542.285 775.089 542.52 775.744 542.52 776.553C542.52 777.686 542.083 778.608 541.209 779.32C540.351 780.016 539.203 780.364 537.762 780.364ZM551.932 770.34H548.704V776.602C548.704 777.055 548.785 777.379 548.947 777.573C549.125 777.767 549.44 777.864 549.893 777.864H551.447V780H549.845C548.696 780 547.83 779.701 547.248 779.102C546.665 778.487 546.374 777.638 546.374 776.553V770.34H543.85V768.35H546.374V764.903L548.704 764.296V768.35H551.932V770.34Z"
     fill="#636362"
     id="path16324" />
  <path
     d="M857.52 635H622.52V700H857.52V635Z"
     fill="#ECECEC"
     id="path16326" />
  <path
     d="M787.52 642.5H630.02V692.5H787.52V642.5Z"
     stroke="white"
     stroke-miterlimit="10"
     id="path16328" />
  <path
     d="M642.52 647.5H637.52V687.5H642.52V647.5Z"
     fill="#95DCAB"
     id="path16330" />
  <path
     d="M655.02 647.5H650.02V687.5H655.02V647.5Z"
     fill="#558A72"
     id="path16332" />
  <path
     d="M667.52 647.5H662.52V687.5H667.52V647.5Z"
     fill="#558A72"
     id="path16334" />
  <path
     d="M680.02 647.5H675.02V687.5H680.02V647.5Z"
     fill="#558A72"
     id="path16336" />
  <path
     d="M692.52 647.5H687.52V687.5H692.52V647.5Z"
     fill="#558A72"
     id="path16338" />
  <path
     d="M705.02 647.5H700.02V687.5H705.02V647.5Z"
     fill="#558A72"
     id="path16340" />
  <path
     d="M717.52 647.5H712.52V687.5H717.52V647.5Z"
     fill="#558A72"
     id="path16342" />
  <path
     d="M730.02 647.5H725.02V687.5H730.02V647.5Z"
     fill="#558A72"
     id="path16344" />
  <path
     d="M742.52 647.5H737.52V687.5H742.52V647.5Z"
     fill="#558A72"
     id="path16346" />
  <path
     d="M755.02 647.5H750.02V687.5H755.02V647.5Z"
     fill="#558A72"
     id="path16348" />
  <path
     d="M767.52 647.5H762.52V687.5H767.52V647.5Z"
     fill="#558A72"
     id="path16350" />
  <path
     d="M780.02 647.5H775.02V687.5H780.02V647.5Z"
     fill="#558A72"
     id="path16352" />
  <path
     d="M850.02 642.5H842.52V692.5H850.02V642.5Z"
     fill="#558A72"
     id="path16354" />
  <path
     d="M831.02 650.5C833.229 650.5 835.02 648.709 835.02 646.5C835.02 644.291 833.229 642.5 831.02 642.5C828.811 642.5 827.02 644.291 827.02 646.5C827.02 648.709 828.811 650.5 831.02 650.5Z"
     fill="white"
     id="path16356" />
  <path
     d="M831.02 664.5C833.229 664.5 835.02 662.709 835.02 660.5C835.02 658.291 833.229 656.5 831.02 656.5C828.811 656.5 827.02 658.291 827.02 660.5C827.02 662.709 828.811 664.5 831.02 664.5Z"
     fill="#558A72"
     id="path16358" />
  <path
     d="M831.02 692.5C833.229 692.5 835.02 690.709 835.02 688.5C835.02 686.291 833.229 684.5 831.02 684.5C828.811 684.5 827.02 686.291 827.02 688.5C827.02 690.709 828.811 692.5 831.02 692.5Z"
     fill="#558A72"
     id="path16360" />
  <path
     d="M831.02 678.5C833.229 678.5 835.02 676.709 835.02 674.5C835.02 672.291 833.229 670.5 831.02 670.5C828.811 670.5 827.02 672.291 827.02 674.5C827.02 676.709 828.811 678.5 831.02 678.5Z"
     fill="#95DCAB"
     id="path16362" />
  <path
     d="M850.02 700H630.02V705H850.02V700Z"
     fill="#D4D4D4"
     id="path16364" />
  <path
     d="M857.52 565H622.52V630H857.52V565Z"
     fill="#ECECEC"
     id="path16366" />
  <path
     d="M787.52 572.5H630.02V622.5H787.52V572.5Z"
     stroke="white"
     stroke-miterlimit="10"
     id="path16368" />
  <path
     d="M642.52 577.5H637.52V617.5H642.52V577.5Z"
     fill="#558A72"
     id="path16370" />
  <path
     d="M655.02 577.5H650.02V617.5H655.02V577.5Z"
     fill="#558A72"
     id="path16372" />
  <path
     d="M667.52 577.5H662.52V617.5H667.52V577.5Z"
     fill="#558A72"
     id="path16374" />
  <path
     d="M680.02 577.5H675.02V617.5H680.02V577.5Z"
     fill="#558A72"
     id="path16376" />
  <path
     d="M692.52 577.5H687.52V617.5H692.52V577.5Z"
     fill="#558A72"
     id="path16378" />
  <path
     d="M705.02 577.5H700.02V617.5H705.02V577.5Z"
     fill="#558A72"
     id="path16380" />
  <path
     d="M717.52 577.5H712.52V617.5H717.52V577.5Z"
     fill="#558A72"
     id="path16382" />
  <path
     d="M730.02 577.5H725.02V617.5H730.02V577.5Z"
     fill="#558A72"
     id="path16384" />
  <path
     d="M742.52 577.5H737.52V617.5H742.52V577.5Z"
     fill="#558A72"
     id="path16386" />
  <path
     d="M755.02 577.5H750.02V617.5H755.02V577.5Z"
     fill="#558A72"
     id="path16388" />
  <path
     d="M767.52 577.5H762.52V617.5H767.52V577.5Z"
     fill="#95DCAB"
     id="path16390" />
  <path
     d="M780.02 577.5H775.02V617.5H780.02V577.5Z"
     fill="#558A72"
     id="path16392" />
  <path
     d="M850.02 572.5H842.52V622.5H850.02V572.5Z"
     fill="#558A72"
     id="path16394" />
  <path
     d="M831.02 580.5C833.229 580.5 835.02 578.709 835.02 576.5C835.02 574.291 833.229 572.5 831.02 572.5C828.811 572.5 827.02 574.291 827.02 576.5C827.02 578.709 828.811 580.5 831.02 580.5Z"
     fill="#95DCAB"
     id="path16396" />
  <path
     d="M831.02 594.5C833.229 594.5 835.02 592.709 835.02 590.5C835.02 588.291 833.229 586.5 831.02 586.5C828.811 586.5 827.02 588.291 827.02 590.5C827.02 592.709 828.811 594.5 831.02 594.5Z"
     fill="#558A72"
     id="path16398" />
  <path
     d="M831.02 622.5C833.229 622.5 835.02 620.709 835.02 618.5C835.02 616.291 833.229 614.5 831.02 614.5C828.811 614.5 827.02 616.291 827.02 618.5C827.02 620.709 828.811 622.5 831.02 622.5Z"
     fill="white"
     id="path16400" />
  <path
     d="M831.02 608.5C833.229 608.5 835.02 606.709 835.02 604.5C835.02 602.291 833.229 600.5 831.02 600.5C828.811 600.5 827.02 602.291 827.02 604.5C827.02 606.709 828.811 608.5 831.02 608.5Z"
     fill="#558A72"
     id="path16402" />
  <path
     d="M850.02 630H630.02V635H850.02V630Z"
     fill="#D4D4D4"
     id="path16404" />
  <path
     d="M857.52 495H622.52V560H857.52V495Z"
     fill="#ECECEC"
     id="path16406" />
  <path
     d="M787.52 502.5H630.02V552.5H787.52V502.5Z"
     stroke="white"
     stroke-miterlimit="10"
     id="path16408" />
  <path
     d="M642.52 507.5H637.52V547.5H642.52V507.5Z"
     fill="#558A72"
     id="path16410" />
  <path
     d="M655.02 507.5H650.02V547.5H655.02V507.5Z"
     fill="#558A72"
     id="path16412" />
  <path
     d="M667.52 507.5H662.52V547.5H667.52V507.5Z"
     fill="#558A72"
     id="path16414" />
  <path
     d="M680.02 507.5H675.02V547.5H680.02V507.5Z"
     fill="#558A72"
     id="path16416" />
  <path
     d="M692.52 507.5H687.52V547.5H692.52V507.5Z"
     fill="#95DCAB"
     id="path16418" />
  <path
     d="M705.02 507.5H700.02V547.5H705.02V507.5Z"
     fill="#558A72"
     id="path16420" />
  <path
     d="M717.52 507.5H712.52V547.5H717.52V507.5Z"
     fill="#558A72"
     id="path16422" />
  <path
     d="M730.02 507.5H725.02V547.5H730.02V507.5Z"
     fill="#558A72"
     id="path16424" />
  <path
     d="M742.52 507.5H737.52V547.5H742.52V507.5Z"
     fill="#558A72"
     id="path16426" />
  <path
     d="M755.02 507.5H750.02V547.5H755.02V507.5Z"
     fill="#558A72"
     id="path16428" />
  <path
     d="M767.52 507.5H762.52V547.5H767.52V507.5Z"
     fill="#558A72"
     id="path16430" />
  <path
     d="M780.02 507.5H775.02V547.5H780.02V507.5Z"
     fill="#558A72"
     id="path16432" />
  <path
     d="M850.02 502.5H842.52V552.5H850.02V502.5Z"
     fill="#558A72"
     id="path16434" />
  <path
     d="M831.02 510.5C833.229 510.5 835.02 508.709 835.02 506.5C835.02 504.291 833.229 502.5 831.02 502.5C828.811 502.5 827.02 504.291 827.02 506.5C827.02 508.709 828.811 510.5 831.02 510.5Z"
     fill="#558A72"
     id="path16436" />
  <path
     d="M831.02 524.5C833.229 524.5 835.02 522.709 835.02 520.5C835.02 518.291 833.229 516.5 831.02 516.5C828.811 516.5 827.02 518.291 827.02 520.5C827.02 522.709 828.811 524.5 831.02 524.5Z"
     fill="#95DCAB"
     id="path16438" />
  <path
     d="M831.02 552.5C833.229 552.5 835.02 550.709 835.02 548.5C835.02 546.291 833.229 544.5 831.02 544.5C828.811 544.5 827.02 546.291 827.02 548.5C827.02 550.709 828.811 552.5 831.02 552.5Z"
     fill="#558A72"
     id="path16440" />
  <path
     d="M831.02 538.5C833.229 538.5 835.02 536.709 835.02 534.5C835.02 532.291 833.229 530.5 831.02 530.5C828.811 530.5 827.02 532.291 827.02 534.5C827.02 536.709 828.811 538.5 831.02 538.5Z"
     fill="white"
     id="path16442" />
  <path
     d="M850.02 560H630.02V565H850.02V560Z"
     fill="#D4D4D4"
     id="path16444" />
  <path
     d="M857.52 425H622.52V490H857.52V425Z"
     fill="#ECECEC"
     id="path16446" />
  <path
     d="M787.52 432.5H630.02V482.5H787.52V432.5Z"
     stroke="white"
     stroke-miterlimit="10"
     id="path16448" />
  <path
     d="M642.52 437.5H637.52V477.5H642.52V437.5Z"
     fill="#558A72"
     id="path16450" />
  <path
     d="M655.02 437.5H650.02V477.5H655.02V437.5Z"
     fill="#558A72"
     id="path16452" />
  <path
     d="M667.52 437.5H662.52V477.5H667.52V437.5Z"
     fill="#558A72"
     id="path16454" />
  <path
     d="M680.02 437.5H675.02V477.5H680.02V437.5Z"
     fill="#558A72"
     id="path16456" />
  <path
     d="M692.52 437.5H687.52V477.5H692.52V437.5Z"
     fill="#558A72"
     id="path16458" />
  <path
     d="M705.02 437.5H700.02V477.5H705.02V437.5Z"
     fill="#558A72"
     id="path16460" />
  <path
     d="M717.52 437.5H712.52V477.5H717.52V437.5Z"
     fill="#558A72"
     id="path16462" />
  <path
     d="M730.02 437.5H725.02V477.5H730.02V437.5Z"
     fill="#558A72"
     id="path16464" />
  <path
     d="M742.52 437.5H737.52V477.5H742.52V437.5Z"
     fill="#558A72"
     id="path16466" />
  <path
     d="M755.02 437.5H750.02V477.5H755.02V437.5Z"
     fill="#558A72"
     id="path16468" />
  <path
     d="M767.52 437.5H762.52V477.5H767.52V437.5Z"
     fill="#558A72"
     id="path16470" />
  <path
     d="M780.02 437.5H775.02V477.5H780.02V437.5Z"
     fill="#95DCAB"
     id="path16472" />
  <path
     d="M850.02 432.5H842.52V482.5H850.02V432.5Z"
     fill="#558A72"
     id="path16474" />
  <path
     d="M831.02 440.5C833.229 440.5 835.02 438.709 835.02 436.5C835.02 434.291 833.229 432.5 831.02 432.5C828.811 432.5 827.02 434.291 827.02 436.5C827.02 438.709 828.811 440.5 831.02 440.5Z"
     fill="#95DCAB"
     id="path16476" />
  <path
     d="M831.02 454.5C833.229 454.5 835.02 452.709 835.02 450.5C835.02 448.291 833.229 446.5 831.02 446.5C828.811 446.5 827.02 448.291 827.02 450.5C827.02 452.709 828.811 454.5 831.02 454.5Z"
     fill="#558A72"
     id="path16478" />
  <path
     d="M831.02 482.5C833.229 482.5 835.02 480.709 835.02 478.5C835.02 476.291 833.229 474.5 831.02 474.5C828.811 474.5 827.02 476.291 827.02 478.5C827.02 480.709 828.811 482.5 831.02 482.5Z"
     fill="white"
     id="path16480" />
  <path
     d="M831.02 468.5C833.229 468.5 835.02 466.709 835.02 464.5C835.02 462.291 833.229 460.5 831.02 460.5C828.811 460.5 827.02 462.291 827.02 464.5C827.02 466.709 828.811 468.5 831.02 468.5Z"
     fill="#558A72"
     id="path16482" />
  <path
     d="M850.02 490H630.02V495H850.02V490Z"
     fill="#D4D4D4"
     id="path16484" />
  <path
     d="M857.52 355H622.52V420H857.52V355Z"
     fill="#ECECEC"
     id="path16486" />
  <path
     d="M787.52 362.5H630.02V412.5H787.52V362.5Z"
     stroke="white"
     stroke-miterlimit="10"
     id="path16488" />
  <path
     d="M642.52 367.5H637.52V407.5H642.52V367.5Z"
     fill="#558A72"
     id="path16490" />
  <path
     d="M655.02 367.5H650.02V407.5H655.02V367.5Z"
     fill="#95DCAB"
     id="path16492" />
  <path
     d="M667.52 367.5H662.52V407.5H667.52V367.5Z"
     fill="#558A72"
     id="path16494" />
  <path
     d="M680.02 367.5H675.02V407.5H680.02V367.5Z"
     fill="#558A72"
     id="path16496" />
  <path
     d="M692.52 367.5H687.52V407.5H692.52V367.5Z"
     fill="#558A72"
     id="path16498" />
  <path
     d="M705.02 367.5H700.02V407.5H705.02V367.5Z"
     fill="#558A72"
     id="path16500" />
  <path
     d="M717.52 367.5H712.52V407.5H717.52V367.5Z"
     fill="#558A72"
     id="path16502" />
  <path
     d="M730.02 367.5H725.02V407.5H730.02V367.5Z"
     fill="#558A72"
     id="path16504" />
  <path
     d="M742.52 367.5H737.52V407.5H742.52V367.5Z"
     fill="#558A72"
     id="path16506" />
  <path
     d="M755.02 367.5H750.02V407.5H755.02V367.5Z"
     fill="#558A72"
     id="path16508" />
  <path
     d="M767.52 367.5H762.52V407.5H767.52V367.5Z"
     fill="#558A72"
     id="path16510" />
  <path
     d="M780.02 367.5H775.02V407.5H780.02V367.5Z"
     fill="#558A72"
     id="path16512" />
  <path
     d="M850.02 362.5H842.52V412.5H850.02V362.5Z"
     fill="#558A72"
     id="path16514" />
  <path
     d="M831.02 370.5C833.229 370.5 835.02 368.709 835.02 366.5C835.02 364.291 833.229 362.5 831.02 362.5C828.811 362.5 827.02 364.291 827.02 366.5C827.02 368.709 828.811 370.5 831.02 370.5Z"
     fill="#558A72"
     id="path16516" />
  <path
     d="M831.02 384.5C833.229 384.5 835.02 382.709 835.02 380.5C835.02 378.291 833.229 376.5 831.02 376.5C828.811 376.5 827.02 378.291 827.02 380.5C827.02 382.709 828.811 384.5 831.02 384.5Z"
     fill="white"
     id="path16518" />
  <path
     d="M831.02 412.5C833.229 412.5 835.02 410.709 835.02 408.5C835.02 406.291 833.229 404.5 831.02 404.5C828.811 404.5 827.02 406.291 827.02 408.5C827.02 410.709 828.811 412.5 831.02 412.5Z"
     fill="#95DCAB"
     id="path16520" />
  <path
     d="M831.02 398.5C833.229 398.5 835.02 396.709 835.02 394.5C835.02 392.291 833.229 390.5 831.02 390.5C828.811 390.5 827.02 392.291 827.02 394.5C827.02 396.709 828.811 398.5 831.02 398.5Z"
     fill="#558A72"
     id="path16522" />
  <path
     d="M850.02 420H630.02V425H850.02V420Z"
     fill="#D4D4D4"
     id="path16524" />
  <path
     d="M857.52 705H622.52V770H857.52V705Z"
     fill="#ECECEC"
     id="path16526" />
  <path
     d="M850.02 770H630.02V775H850.02V770Z"
     fill="#D4D4D4"
     id="path16528" />
  <path
     d="M635.02 715.56H630.02V720.56H635.02V715.56Z"
     fill="#D4D4D4"
     id="path16530" />
  <path
     d="M645.02 715.56H640.02V720.56H645.02V715.56Z"
     fill="#D4D4D4"
     id="path16532" />
  <path
     d="M655.02 715.56H650.02V720.56H655.02V715.56Z"
     fill="#D4D4D4"
     id="path16534" />
  <path
     d="M665.02 715.56H660.02V720.56H665.02V715.56Z"
     fill="#D4D4D4"
     id="path16536" />
  <path
     d="M675.02 715.56H670.02V720.56H675.02V715.56Z"
     fill="#D4D4D4"
     id="path16538" />
  <path
     d="M685.02 715.56H680.02V720.56H685.02V715.56Z"
     fill="#D4D4D4"
     id="path16540" />
  <path
     d="M695.02 715.56H690.02V720.56H695.02V715.56Z"
     fill="#D4D4D4"
     id="path16542" />
  <path
     d="M705.02 715.56H700.02V720.56H705.02V715.56Z"
     fill="#D4D4D4"
     id="path16544" />
  <path
     d="M715.02 715.56H710.02V720.56H715.02V715.56Z"
     fill="#D4D4D4"
     id="path16546" />
  <path
     d="M725.02 715.56H720.02V720.56H725.02V715.56Z"
     fill="#D4D4D4"
     id="path16548" />
  <path
     d="M640.02 725.56H635.02V730.56H640.02V725.56Z"
     fill="#D4D4D4"
     id="path16550" />
  <path
     d="M650.02 725.56H645.02V730.56H650.02V725.56Z"
     fill="#D4D4D4"
     id="path16552" />
  <path
     d="M660.02 725.56H655.02V730.56H660.02V725.56Z"
     fill="#D4D4D4"
     id="path16554" />
  <path
     d="M670.02 725.56H665.02V730.56H670.02V725.56Z"
     fill="#D4D4D4"
     id="path16556" />
  <path
     d="M680.02 725.56H675.02V730.56H680.02V725.56Z"
     fill="#D4D4D4"
     id="path16558" />
  <path
     d="M690.02 725.56H685.02V730.56H690.02V725.56Z"
     fill="#D4D4D4"
     id="path16560" />
  <path
     d="M700.02 725.56H695.02V730.56H700.02V725.56Z"
     fill="#D4D4D4"
     id="path16562" />
  <path
     d="M710.02 725.56H705.02V730.56H710.02V725.56Z"
     fill="#D4D4D4"
     id="path16564" />
  <path
     d="M720.02 725.56H715.02V730.56H720.02V725.56Z"
     fill="#D4D4D4"
     id="path16566" />
  <path
     d="M635.02 735.56H630.02V740.56H635.02V735.56Z"
     fill="#D4D4D4"
     id="path16568" />
  <path
     d="M645.02 735.56H640.02V740.56H645.02V735.56Z"
     fill="#D4D4D4"
     id="path16570" />
  <path
     d="M655.02 735.56H650.02V740.56H655.02V735.56Z"
     fill="#D4D4D4"
     id="path16572" />
  <path
     d="M665.02 735.56H660.02V740.56H665.02V735.56Z"
     fill="#D4D4D4"
     id="path16574" />
  <path
     d="M675.02 735.56H670.02V740.56H675.02V735.56Z"
     fill="#D4D4D4"
     id="path16576" />
  <path
     d="M685.02 735.56H680.02V740.56H685.02V735.56Z"
     fill="#D4D4D4"
     id="path16578" />
  <path
     d="M695.02 735.56H690.02V740.56H695.02V735.56Z"
     fill="#D4D4D4"
     id="path16580" />
  <path
     d="M705.02 735.56H700.02V740.56H705.02V735.56Z"
     fill="#D4D4D4"
     id="path16582" />
  <path
     d="M715.02 735.56H710.02V740.56H715.02V735.56Z"
     fill="#D4D4D4"
     id="path16584" />
  <path
     d="M725.02 735.56H720.02V740.56H725.02V735.56Z"
     fill="#D4D4D4"
     id="path16586" />
  <path
     d="M640.02 745.56H635.02V750.56H640.02V745.56Z"
     fill="#D4D4D4"
     id="path16588" />
  <path
     d="M650.02 745.56H645.02V750.56H650.02V745.56Z"
     fill="#D4D4D4"
     id="path16590" />
  <path
     d="M660.02 745.56H655.02V750.56H660.02V745.56Z"
     fill="#D4D4D4"
     id="path16592" />
  <path
     d="M670.02 745.56H665.02V750.56H670.02V745.56Z"
     fill="#D4D4D4"
     id="path16594" />
  <path
     d="M680.02 745.56H675.02V750.56H680.02V745.56Z"
     fill="#D4D4D4"
     id="path16596" />
  <path
     d="M690.02 745.56H685.02V750.56H690.02V745.56Z"
     fill="#D4D4D4"
     id="path16598" />
  <path
     d="M700.02 745.56H695.02V750.56H700.02V745.56Z"
     fill="#D4D4D4"
     id="path16600" />
  <path
     d="M710.02 745.56H705.02V750.56H710.02V745.56Z"
     fill="#D4D4D4"
     id="path16602" />
  <path
     d="M720.02 745.56H715.02V750.56H720.02V745.56Z"
     fill="#D4D4D4"
     id="path16604" />
  <path
     d="M635.02 755.56H630.02V760.56H635.02V755.56Z"
     fill="#D4D4D4"
     id="path16606" />
  <path
     d="M645.02 755.56H640.02V760.56H645.02V755.56Z"
     fill="#D4D4D4"
     id="path16608" />
  <path
     d="M655.02 755.56H650.02V760.56H655.02V755.56Z"
     fill="#D4D4D4"
     id="path16610" />
  <path
     d="M665.02 755.56H660.02V760.56H665.02V755.56Z"
     fill="#D4D4D4"
     id="path16612" />
  <path
     d="M675.02 755.56H670.02V760.56H675.02V755.56Z"
     fill="#D4D4D4"
     id="path16614" />
  <path
     d="M685.02 755.56H680.02V760.56H685.02V755.56Z"
     fill="#D4D4D4"
     id="path16616" />
  <path
     d="M695.02 755.56H690.02V760.56H695.02V755.56Z"
     fill="#D4D4D4"
     id="path16618" />
  <path
     d="M705.02 755.56H700.02V760.56H705.02V755.56Z"
     fill="#D4D4D4"
     id="path16620" />
  <path
     d="M715.02 755.56H710.02V760.56H715.02V755.56Z"
     fill="#D4D4D4"
     id="path16622" />
  <path
     d="M725.02 755.56H720.02V760.56H725.02V755.56Z"
     fill="#D4D4D4"
     id="path16624" />
  <path
     d="M850.02 712.5H837.52V762.5H850.02V712.5Z"
     stroke="white"
     stroke-miterlimit="10"
     id="path16626" />
  <path
     d="M843.77 737.53C841.7 737.53 840.02 735.85 840.02 733.78V718.75C840.02 716.68 841.7 715 843.77 715C845.84 715 847.52 716.68 847.52 718.75V733.78C847.52 735.85 845.85 737.53 843.77 737.53Z"
     fill="#646363"
     id="path16628" />
  <path
     d="M843.77 759.56C845.979 759.56 847.77 757.769 847.77 755.56C847.77 753.351 845.979 751.56 843.77 751.56C841.561 751.56 839.77 753.351 839.77 755.56C839.77 757.769 841.561 759.56 843.77 759.56Z"
     fill="white"
     id="path16630" />
  <path
     d="M843.77 721.5C845.151 721.5 846.27 720.381 846.27 719C846.27 717.619 845.151 716.5 843.77 716.5C842.389 716.5 841.27 717.619 841.27 719C841.27 720.381 842.389 721.5 843.77 721.5Z"
     fill="black"
     id="path16632" />
  <rect
     x="580.52"
     y="285.5"
     width="319"
     height="529"
     rx="29.5"
     stroke="#B1B4AE"
     id="rect16634" />
  <rect
     x="620.52"
     y="245.5"
     width="239"
     height="79"
     rx="9.5"
     fill="black"
     id="rect16636" />
  <rect
     x="620.52"
     y="245.5"
     width="239"
     height="79"
     rx="9.5"
     stroke="#F0F0F0"
     id="rect16640" />
  <path
     d="M287.52 635H52.52V700H287.52V635Z"
     fill="#ECECEC"
     id="path16642" />
  <path
     d="M217.52 642.5H60.02V692.5H217.52V642.5Z"
     stroke="white"
     stroke-miterlimit="10"
     id="path16644" />
  <path
     d="M72.52 647.5H67.52V687.5H72.52V647.5Z"
     fill="#558A72"
     id="path16646" />
  <path
     d="M85.02 647.5H80.02V687.5H85.02V647.5Z"
     fill="#558A72"
     id="path16648" />
  <path
     d="M97.52 647.5H92.52V687.5H97.52V647.5Z"
     fill="#558A72"
     id="path16650" />
  <path
     d="M110.02 647.5H105.02V687.5H110.02V647.5Z"
     fill="#558A72"
     id="path16652" />
  <path
     d="M122.52 647.5H117.52V687.5H122.52V647.5Z"
     fill="#558A72"
     id="path16654" />
  <path
     d="M135.02 647.5H130.02V687.5H135.02V647.5Z"
     fill="#558A72"
     id="path16656" />
  <path
     d="M147.52 647.5H142.52V687.5H147.52V647.5Z"
     fill="#558A72"
     id="path16658" />
  <path
     d="M160.02 647.5H155.02V687.5H160.02V647.5Z"
     fill="#558A72"
     id="path16660" />
  <path
     d="M172.52 647.5H167.52V687.5H172.52V647.5Z"
     fill="#558A72"
     id="path16662" />
  <path
     d="M185.02 647.5H180.02V687.5H185.02V647.5Z"
     fill="#558A72"
     id="path16664" />
  <path
     d="M197.52 647.5H192.52V687.5H197.52V647.5Z"
     fill="#95DCAB"
     id="path16666" />
  <path
     d="M210.02 647.5H205.02V687.5H210.02V647.5Z"
     fill="#558A72"
     id="path16668" />
  <path
     d="M280.02 642.5H272.52V692.5H280.02V642.5Z"
     fill="#558A72"
     id="path16670" />
  <path
     d="M261.02 650.5C263.229 650.5 265.02 648.709 265.02 646.5C265.02 644.291 263.229 642.5 261.02 642.5C258.811 642.5 257.02 644.291 257.02 646.5C257.02 648.709 258.811 650.5 261.02 650.5Z"
     fill="#558A72"
     id="path16672" />
  <path
     d="M261.02 664.5C263.229 664.5 265.02 662.709 265.02 660.5C265.02 658.291 263.229 656.5 261.02 656.5C258.811 656.5 257.02 658.291 257.02 660.5C257.02 662.709 258.811 664.5 261.02 664.5Z"
     fill="#95DCAB"
     id="path16674" />
  <path
     d="M261.02 692.5C263.229 692.5 265.02 690.709 265.02 688.5C265.02 686.291 263.229 684.5 261.02 684.5C258.811 684.5 257.02 686.291 257.02 688.5C257.02 690.709 258.811 692.5 261.02 692.5Z"
     fill="white"
     id="path16676" />
  <path
     d="M261.02 678.5C263.229 678.5 265.02 676.709 265.02 674.5C265.02 672.291 263.229 670.5 261.02 670.5C258.811 670.5 257.02 672.291 257.02 674.5C257.02 676.709 258.811 678.5 261.02 678.5Z"
     fill="#558A72"
     id="path16678" />
  <path
     d="M280.02 700H60.02V705H280.02V700Z"
     fill="#D4D4D4"
     id="path16680" />
  <path
     d="M287.52 705H52.52V770H287.52V705Z"
     fill="#ECECEC"
     id="path16682" />
  <path
     d="M280.02 770H60.02V775H280.02V770Z"
     fill="#D4D4D4"
     id="path16684" />
  <path
     d="M65.02 715.56H60.02V720.56H65.02V715.56Z"
     fill="#D4D4D4"
     id="path16686" />
  <path
     d="M75.02 715.56H70.02V720.56H75.02V715.56Z"
     fill="#D4D4D4"
     id="path16688" />
  <path
     d="M85.02 715.56H80.02V720.56H85.02V715.56Z"
     fill="#D4D4D4"
     id="path16690" />
  <path
     d="M95.02 715.56H90.02V720.56H95.02V715.56Z"
     fill="#D4D4D4"
     id="path16692" />
  <path
     d="M105.02 715.56H100.02V720.56H105.02V715.56Z"
     fill="#D4D4D4"
     id="path16694" />
  <path
     d="M115.02 715.56H110.02V720.56H115.02V715.56Z"
     fill="#D4D4D4"
     id="path16696" />
  <path
     d="M125.02 715.56H120.02V720.56H125.02V715.56Z"
     fill="#D4D4D4"
     id="path16698" />
  <path
     d="M135.02 715.56H130.02V720.56H135.02V715.56Z"
     fill="#D4D4D4"
     id="path16700" />
  <path
     d="M145.02 715.56H140.02V720.56H145.02V715.56Z"
     fill="#D4D4D4"
     id="path16702" />
  <path
     d="M155.02 715.56H150.02V720.56H155.02V715.56Z"
     fill="#D4D4D4"
     id="path16704" />
  <path
     d="M70.02 725.56H65.02V730.56H70.02V725.56Z"
     fill="#D4D4D4"
     id="path16706" />
  <path
     d="M80.02 725.56H75.02V730.56H80.02V725.56Z"
     fill="#D4D4D4"
     id="path16708" />
  <path
     d="M90.02 725.56H85.02V730.56H90.02V725.56Z"
     fill="#D4D4D4"
     id="path16710" />
  <path
     d="M100.02 725.56H95.02V730.56H100.02V725.56Z"
     fill="#D4D4D4"
     id="path16712" />
  <path
     d="M110.02 725.56H105.02V730.56H110.02V725.56Z"
     fill="#D4D4D4"
     id="path16714" />
  <path
     d="M120.02 725.56H115.02V730.56H120.02V725.56Z"
     fill="#D4D4D4"
     id="path16716" />
  <path
     d="M130.02 725.56H125.02V730.56H130.02V725.56Z"
     fill="#D4D4D4"
     id="path16718" />
  <path
     d="M140.02 725.56H135.02V730.56H140.02V725.56Z"
     fill="#D4D4D4"
     id="path16720" />
  <path
     d="M150.02 725.56H145.02V730.56H150.02V725.56Z"
     fill="#D4D4D4"
     id="path16722" />
  <path
     d="M65.02 735.56H60.02V740.56H65.02V735.56Z"
     fill="#D4D4D4"
     id="path16724" />
  <path
     d="M75.02 735.56H70.02V740.56H75.02V735.56Z"
     fill="#D4D4D4"
     id="path16726" />
  <path
     d="M85.02 735.56H80.02V740.56H85.02V735.56Z"
     fill="#D4D4D4"
     id="path16728" />
  <path
     d="M95.02 735.56H90.02V740.56H95.02V735.56Z"
     fill="#D4D4D4"
     id="path16730" />
  <path
     d="M105.02 735.56H100.02V740.56H105.02V735.56Z"
     fill="#D4D4D4"
     id="path16732" />
  <path
     d="M115.02 735.56H110.02V740.56H115.02V735.56Z"
     fill="#D4D4D4"
     id="path16734" />
  <path
     d="M125.02 735.56H120.02V740.56H125.02V735.56Z"
     fill="#D4D4D4"
     id="path16736" />
  <path
     d="M135.02 735.56H130.02V740.56H135.02V735.56Z"
     fill="#D4D4D4"
     id="path16738" />
  <path
     d="M145.02 735.56H140.02V740.56H145.02V735.56Z"
     fill="#D4D4D4"
     id="path16740" />
  <path
     d="M155.02 735.56H150.02V740.56H155.02V735.56Z"
     fill="#D4D4D4"
     id="path16742" />
  <path
     d="M70.02 745.56H65.02V750.56H70.02V745.56Z"
     fill="#D4D4D4"
     id="path16744" />
  <path
     d="M80.02 745.56H75.02V750.56H80.02V745.56Z"
     fill="#D4D4D4"
     id="path16746" />
  <path
     d="M90.02 745.56H85.02V750.56H90.02V745.56Z"
     fill="#D4D4D4"
     id="path16748" />
  <path
     d="M100.02 745.56H95.02V750.56H100.02V745.56Z"
     fill="#D4D4D4"
     id="path16750" />
  <path
     d="M110.02 745.56H105.02V750.56H110.02V745.56Z"
     fill="#D4D4D4"
     id="path16752" />
  <path
     d="M120.02 745.56H115.02V750.56H120.02V745.56Z"
     fill="#D4D4D4"
     id="path16754" />
  <path
     d="M130.02 745.56H125.02V750.56H130.02V745.56Z"
     fill="#D4D4D4"
     id="path16756" />
  <path
     d="M140.02 745.56H135.02V750.56H140.02V745.56Z"
     fill="#D4D4D4"
     id="path16758" />
  <path
     d="M150.02 745.56H145.02V750.56H150.02V745.56Z"
     fill="#D4D4D4"
     id="path16760" />
  <path
     d="M65.02 755.56H60.02V760.56H65.02V755.56Z"
     fill="#D4D4D4"
     id="path16762" />
  <path
     d="M75.02 755.56H70.02V760.56H75.02V755.56Z"
     fill="#D4D4D4"
     id="path16764" />
  <path
     d="M85.02 755.56H80.02V760.56H85.02V755.56Z"
     fill="#D4D4D4"
     id="path16766" />
  <path
     d="M95.02 755.56H90.02V760.56H95.02V755.56Z"
     fill="#D4D4D4"
     id="path16768" />
  <path
     d="M105.02 755.56H100.02V760.56H105.02V755.56Z"
     fill="#D4D4D4"
     id="path16770" />
  <path
     d="M115.02 755.56H110.02V760.56H115.02V755.56Z"
     fill="#D4D4D4"
     id="path16772" />
  <path
     d="M125.02 755.56H120.02V760.56H125.02V755.56Z"
     fill="#D4D4D4"
     id="path16774" />
  <path
     d="M135.02 755.56H130.02V760.56H135.02V755.56Z"
     fill="#D4D4D4"
     id="path16776" />
  <path
     d="M145.02 755.56H140.02V760.56H145.02V755.56Z"
     fill="#D4D4D4"
     id="path16778" />
  <path
     d="M155.02 755.56H150.02V760.56H155.02V755.56Z"
     fill="#D4D4D4"
     id="path16780" />
  <path
     d="M280.02 712.5H267.52V762.5H280.02V712.5Z"
     stroke="white"
     stroke-miterlimit="10"
     id="path16782" />
  <path
     d="M273.77 737.53C271.7 737.53 270.02 735.85 270.02 733.78V718.75C270.02 716.68 271.7 715 273.77 715C275.84 715 277.52 716.68 277.52 718.75V733.78C277.52 735.85 275.84 737.53 273.77 737.53Z"
     fill="#646363"
     id="path16784" />
  <path
     d="M273.77 759.56C275.979 759.56 277.77 757.769 277.77 755.56C277.77 753.351 275.979 751.56 273.77 751.56C271.561 751.56 269.77 753.351 269.77 755.56C269.77 757.769 271.561 759.56 273.77 759.56Z"
     fill="white"
     id="path16786" />
  <path
     d="M273.77 721.5C275.151 721.5 276.27 720.381 276.27 719C276.27 717.619 275.151 716.5 273.77 716.5C272.389 716.5 271.27 717.619 271.27 719C271.27 720.381 272.389 721.5 273.77 721.5Z"
     fill="black"
     id="path16788" />
  <rect
     x="10.52"
     y="565.5"
     width="319"
     height="249"
     rx="29.5"
     stroke="#B1B4AE"
     id="rect16790" />
  <rect
     x="50.52"
     y="525.5"
     width="239"
     height="79"
     rx="9.5"
     fill="black"
     id="rect16792" />
  <path
     d="M118.227 556.267H120.897L114.805 567.044V573.5H112.474V567.044L106.309 556.267H109.004L113.664 564.738L118.227 556.267ZM130.071 572.092C128.89 573.273 127.401 573.864 125.605 573.864C123.809 573.864 122.312 573.265 121.115 572.068C119.934 570.871 119.343 569.406 119.343 567.675C119.343 565.927 119.934 564.463 121.115 563.282C122.312 562.084 123.809 561.485 125.605 561.485C127.401 561.485 128.89 562.084 130.071 563.282C131.252 564.463 131.843 565.927 131.843 567.675C131.843 569.422 131.252 570.895 130.071 572.092ZM125.605 571.801C126.754 571.801 127.684 571.413 128.396 570.636C129.108 569.843 129.464 568.856 129.464 567.675C129.464 566.494 129.108 565.515 128.396 564.738C127.684 563.945 126.754 563.549 125.605 563.549C124.472 563.549 123.542 563.945 122.814 564.738C122.086 565.515 121.722 566.494 121.722 567.675C121.722 568.84 122.086 569.819 122.814 570.612C123.542 571.405 124.472 571.801 125.605 571.801ZM146.295 571.364H146.781V573.5H146.077C145.333 573.5 144.766 573.354 144.378 573.063C143.99 572.772 143.723 572.319 143.577 571.704C142.622 573.144 141.223 573.864 139.378 573.864C137.841 573.864 136.627 573.411 135.737 572.505C134.847 571.599 134.402 570.28 134.402 568.549V561.85H136.757V568.209C136.757 570.539 137.776 571.704 139.815 571.704C140.834 571.704 141.651 571.364 142.266 570.684C142.881 570.005 143.189 569.107 143.189 567.99V561.85H145.519V570.126C145.519 570.595 145.559 570.919 145.64 571.097C145.737 571.275 145.956 571.364 146.295 571.364ZM152.015 563.913C152.921 562.537 154.232 561.85 155.947 561.85V564.01C154.637 564.01 153.65 564.35 152.986 565.029C152.339 565.709 152.015 566.607 152.015 567.723V573.5H149.685V561.85H152.015V563.913ZM169.673 573.864C167.958 573.864 166.574 573.395 165.523 572.456C164.487 571.518 163.816 570.361 163.508 568.985L165.693 568.282C165.903 569.236 166.34 570.045 167.003 570.709C167.667 571.372 168.573 571.704 169.722 571.704C170.806 571.704 171.68 571.445 172.343 570.927C173.007 570.409 173.338 569.673 173.338 568.718C173.338 568.201 173.168 567.748 172.829 567.359C172.489 566.971 172.044 566.655 171.494 566.413C170.96 566.17 170.361 565.943 169.697 565.733C169.034 565.523 168.371 565.296 167.707 565.053C167.06 564.794 166.461 564.503 165.911 564.18C165.377 563.856 164.94 563.419 164.6 562.869C164.261 562.319 164.091 561.68 164.091 560.951C164.091 559.398 164.641 558.168 165.741 557.262C166.858 556.356 168.168 555.903 169.673 555.903C171.032 555.903 172.206 556.243 173.193 556.922C174.196 557.602 174.9 558.549 175.304 559.762L173.144 560.417C172.901 559.706 172.489 559.131 171.906 558.694C171.324 558.257 170.596 558.039 169.722 558.039C168.848 558.039 168.087 558.257 167.44 558.694C166.809 559.131 166.494 559.803 166.494 560.709C166.494 561.194 166.663 561.615 167.003 561.971C167.343 562.311 167.78 562.594 168.314 562.82C168.864 563.031 169.471 563.241 170.134 563.451C170.798 563.646 171.453 563.872 172.1 564.131C172.764 564.39 173.362 564.697 173.896 565.053C174.447 565.393 174.892 565.862 175.231 566.461C175.571 567.06 175.741 567.764 175.741 568.573C175.741 570.175 175.183 571.461 174.066 572.432C172.966 573.387 171.502 573.864 169.673 573.864ZM183.688 573.864C181.892 573.864 180.452 573.265 179.368 572.068C178.283 570.854 177.741 569.341 177.741 567.529C177.741 565.798 178.3 564.358 179.416 563.209C180.533 562.06 181.932 561.485 183.615 561.485C185.492 561.485 186.949 562.1 187.984 563.33C189.036 564.544 189.481 566.162 189.319 568.184H180.144C180.241 569.366 180.605 570.28 181.237 570.927C181.884 571.558 182.701 571.874 183.688 571.874C185.452 571.874 186.698 571.04 187.426 569.374L189.295 570.15C188.826 571.283 188.105 572.189 187.135 572.869C186.164 573.532 185.015 573.864 183.688 573.864ZM180.169 566.461H187.062C186.965 565.442 186.609 564.681 185.994 564.18C185.379 563.662 184.586 563.403 183.615 563.403C182.677 563.403 181.9 563.694 181.285 564.277C180.67 564.843 180.298 565.571 180.169 566.461ZM194.398 563.913C195.304 562.537 196.615 561.85 198.33 561.85V564.01C197.019 564.01 196.032 564.35 195.369 565.029C194.722 565.709 194.398 566.607 194.398 567.723V573.5H192.068V561.85H194.398V563.913ZM209.352 561.85H211.876L206.828 573.5H204.765L199.716 561.85H202.265L205.808 570.83L209.352 561.85ZM218.673 573.864C216.877 573.864 215.437 573.265 214.353 572.068C213.269 570.854 212.727 569.341 212.727 567.529C212.727 565.798 213.285 564.358 214.401 563.209C215.518 562.06 216.918 561.485 218.601 561.485C220.478 561.485 221.934 562.1 222.969 563.33C224.021 564.544 224.466 566.162 224.304 568.184H215.13C215.227 569.366 215.591 570.28 216.222 570.927C216.869 571.558 217.686 571.874 218.673 571.874C220.437 571.874 221.683 571.04 222.411 569.374L224.28 570.15C223.811 571.283 223.091 572.189 222.12 572.869C221.149 573.532 220 573.864 218.673 573.864ZM215.154 566.461H222.047C221.95 565.442 221.594 564.681 220.979 564.18C220.364 563.662 219.571 563.403 218.601 563.403C217.662 563.403 216.885 563.694 216.27 564.277C215.656 564.843 215.283 565.571 215.154 566.461ZM229.383 563.913C230.29 562.537 231.6 561.85 233.316 561.85V564.01C232.005 564.01 231.018 564.35 230.354 565.029C229.707 565.709 229.383 566.607 229.383 567.723V573.5H227.053V561.85H229.383V563.913Z"
     fill="white"
     id="path16794" />
  <rect
     x="50.52"
     y="525.5"
     width="239"
     height="79"
     rx="9.5"
     stroke="#F0F0F0"
     id="rect16796" />
  <rect
     x="580.52"
     y="50.5"
     width="319"
     height="149"
     rx="29.5"
     fill="white"
     id="rect16798" />
  <g
     clip-path="url(#clip0_102_1219)"
     id="g16808">
    <path
       d="M693.579 90.6772H786.519C787.43 90.6772 788.304 91.0392 788.948 91.6836C789.592 92.3279 789.954 93.2019 789.954 94.1131V155.958C789.954 156.87 789.592 157.744 788.948 158.388C788.304 159.032 787.43 159.394 786.519 159.394H693.579C692.668 159.394 691.794 159.032 691.15 158.388C690.506 157.744 690.144 156.87 690.144 155.958V94.1131C690.144 93.2019 690.506 92.3279 691.15 91.6836C691.794 91.0392 692.668 90.6772 693.579 90.6772V90.6772Z"
       fill="white"
       id="path16800" />
    <path
       d="M699.031 150.304V138.454H702.688C705.345 138.454 707.055 139.453 707.055 141.518C707.055 142.686 706.513 143.499 705.752 143.973C706.852 144.48 707.495 145.462 707.495 146.8C707.495 149.187 705.752 150.304 703.043 150.304L699.031 150.304ZM701.384 143.38H703.128C704.194 143.38 704.651 142.855 704.651 141.89C704.651 140.858 703.822 140.519 702.704 140.519H701.384V143.38ZM701.384 148.238H702.84C704.262 148.238 705.091 147.883 705.091 146.766C705.091 145.665 704.38 145.208 703.043 145.208H701.384V148.238ZM712.058 150.507C709.739 150.507 708.571 149.373 708.571 147.849C708.571 146.173 709.942 145.191 711.974 145.174C712.479 145.184 712.982 145.229 713.48 145.31V144.904C713.48 143.871 712.888 143.38 711.754 143.38C710.99 143.37 710.231 143.508 709.519 143.786L709.096 141.958C709.824 141.653 710.992 141.45 712.025 141.45C714.513 141.45 715.749 142.771 715.749 145.056V149.762C715.055 150.118 713.751 150.507 712.058 150.507V150.507ZM713.48 148.594V146.783C713.086 146.695 712.683 146.649 712.278 146.647C711.5 146.647 710.89 146.952 710.89 147.748C710.89 148.459 711.398 148.831 712.295 148.831C712.703 148.844 713.109 148.763 713.48 148.594ZM717.394 150.304V142.195C718.61 141.706 719.908 141.454 721.219 141.45C723.691 141.45 725.113 142.669 725.113 144.92V150.304H722.777V145.09C722.777 143.922 722.235 143.38 721.202 143.38C720.69 143.373 720.181 143.477 719.713 143.685V150.304L717.394 150.304ZM733.277 141.958L732.837 143.803C732.232 143.541 731.583 143.398 730.924 143.38C729.553 143.38 728.808 144.345 728.808 145.936C728.808 147.68 729.586 148.577 731.042 148.577C731.692 148.559 732.331 148.41 732.921 148.137L733.294 150.016C732.527 150.357 731.695 150.525 730.856 150.507C728.046 150.507 726.421 148.763 726.421 146.004C726.421 143.262 728.029 141.45 730.721 141.45C731.598 141.446 732.468 141.619 733.277 141.958H733.277ZM738.324 150.507C735.717 150.507 734.091 148.696 734.091 145.97C734.091 143.262 735.717 141.45 738.324 141.45C740.948 141.45 742.539 143.262 742.539 145.97C742.539 148.696 740.948 150.507 738.324 150.507H738.324ZM738.324 148.577C739.526 148.577 740.152 147.578 740.152 145.97C740.152 144.379 739.526 143.38 738.324 143.38C737.139 143.38 736.478 144.379 736.478 145.97C736.478 147.578 737.139 148.577 738.324 148.577H738.324ZM743.891 150.304V142.195C745.107 141.706 746.406 141.454 747.717 141.45C750.188 141.45 751.61 142.669 751.61 144.92V150.304H749.274V145.09C749.274 143.922 748.732 143.38 747.7 143.38C747.187 143.373 746.679 143.477 746.21 143.685V150.304L743.891 150.304ZM756.879 150.507C754.864 150.507 753.831 149.407 753.831 147.172V143.515H752.68V141.653H753.831V139.774L756.168 139.656V141.653H758.047V143.515H756.168V147.138C756.168 148.12 756.574 148.577 757.336 148.577C757.638 148.576 757.938 148.542 758.233 148.476L758.351 150.355C757.868 150.462 757.374 150.513 756.879 150.507H756.879ZM762.775 150.507C760.456 150.507 759.288 149.373 759.288 147.849C759.288 146.173 760.659 145.191 762.69 145.174C763.195 145.184 763.699 145.229 764.197 145.31V144.904C764.197 143.871 763.605 143.38 762.47 143.38C761.706 143.37 760.948 143.508 760.236 143.786L759.813 141.958C760.541 141.653 761.709 141.45 762.741 141.45C765.23 141.45 766.465 142.771 766.465 145.056V149.762C765.771 150.118 764.468 150.507 762.775 150.507H762.775ZM764.197 148.594V146.783C763.802 146.695 763.399 146.649 762.995 146.647C762.216 146.647 761.607 146.952 761.607 147.748C761.607 148.459 762.115 148.831 763.012 148.831C763.42 148.844 763.826 148.763 764.197 148.594H764.197ZM774.458 141.958L774.018 143.803C773.413 143.541 772.764 143.398 772.105 143.38C770.734 143.38 769.989 144.345 769.989 145.936C769.989 147.68 770.768 148.577 772.224 148.577C772.873 148.559 773.513 148.41 774.103 148.137L774.475 150.016C773.709 150.357 772.876 150.525 772.037 150.507C769.227 150.507 767.602 148.763 767.602 146.004C767.602 143.262 769.21 141.45 771.902 141.45C772.78 141.446 773.649 141.619 774.458 141.958H774.458ZM779.594 150.507C777.58 150.507 776.547 149.407 776.547 147.172V143.515H775.396V141.653H776.547V139.774L778.883 139.656V141.653H780.763V143.515H778.883V147.138C778.883 148.12 779.29 148.577 780.052 148.577C780.353 148.576 780.654 148.542 780.949 148.476L781.067 150.355C780.584 150.462 780.09 150.513 779.594 150.507H779.594Z"
       fill="#1E3764"
       id="path16802" />
    <path
       d="M715.326 132.529C727.688 132.529 733.868 124.288 740.049 116.047H699.031V132.529H715.326Z"
       fill="url(#paint0_linear_102_1219)"
       id="path16804" />
    <path
       d="M764.772 99.5647C752.411 99.5647 746.23 107.806 740.049 116.047H781.067V99.5647H764.772Z"
       fill="url(#paint1_linear_102_1219)"
       id="path16806" />
  </g>
  <rect
     x="580.52"
     y="50.5"
     width="319"
     height="149"
     rx="29.5"
     stroke="#005AB9"
     id="rect16810" />
  <rect
     x="110.52"
     y="180.48999"
     width="119"
     height="87.892502"
     rx="4.5"
     fill="#ffffff"
     id="rect16834" />
  <g
     clip-path="url(#clip1_102_1219)"
     id="g16844"
     transform="translate(0,-92)">
    <path
       d="m 123.579,282.114 h 92.94 c 0.911,0 1.785,0.361 2.429,1.006 0.644,0.644 1.006,1.518 1.006,2.429 v 61.846 c 0,0.911 -0.362,1.785 -1.006,2.429 -0.644,0.645 -1.518,1.007 -2.429,1.007 h -92.94 c -0.911,0 -1.785,-0.362 -2.429,-1.007 -0.644,-0.644 -1.006,-1.518 -1.006,-2.429 v -61.846 c 0,-0.911 0.362,-1.785 1.006,-2.429 0.644,-0.644 1.518,-1.006 2.429,-1.006 z"
       fill="#ffffff"
       id="path16836" />
    <path
       d="m 129.031,341.74 v -11.85 h 3.657 c 2.657,0 4.367,0.999 4.367,3.064 0,1.168 -0.541,1.981 -1.303,2.455 1.1,0.508 1.743,1.489 1.743,2.827 0,2.387 -1.743,3.504 -4.452,3.504 z m 2.353,-6.924 h 1.744 c 1.066,0 1.523,-0.525 1.523,-1.489 0,-1.033 -0.829,-1.372 -1.946,-1.372 h -1.321 z m 0,4.859 h 1.456 c 1.422,0 2.252,-0.356 2.252,-1.473 0,-1.1 -0.711,-1.557 -2.049,-1.557 h -1.659 z m 10.675,2.268 c -2.32,0 -3.488,-1.134 -3.488,-2.658 0,-1.676 1.371,-2.657 3.403,-2.674 0.505,0.009 1.008,0.054 1.507,0.135 v -0.406 c 0,-1.033 -0.593,-1.524 -1.727,-1.524 -0.764,-0.009 -1.523,0.129 -2.235,0.407 l -0.423,-1.829 c 0.728,-0.304 1.896,-0.508 2.929,-0.508 2.488,0 3.724,1.321 3.724,3.606 v 4.706 c -0.694,0.356 -1.998,0.745 -3.69,0.745 z m 1.422,-1.913 v -1.811 c -0.395,-0.088 -0.798,-0.133 -1.202,-0.136 -0.779,0 -1.389,0.305 -1.389,1.101 0,0.711 0.508,1.083 1.406,1.083 0.407,0.014 0.813,-0.068 1.185,-0.237 z m 3.913,1.71 v -8.109 c 1.216,-0.488 2.515,-0.741 3.825,-0.745 2.472,0 3.894,1.219 3.894,3.471 v 5.383 h -2.336 v -5.214 c 0,-1.168 -0.542,-1.71 -1.574,-1.71 -0.513,-0.007 -1.021,0.097 -1.49,0.305 v 6.619 z m 15.883,-8.346 -0.44,1.845 c -0.605,-0.262 -1.254,-0.405 -1.913,-0.423 -1.371,0 -2.116,0.965 -2.116,2.556 0,1.744 0.779,2.641 2.234,2.641 0.65,-0.017 1.289,-0.167 1.879,-0.44 l 0.373,1.879 c -0.767,0.341 -1.599,0.509 -2.438,0.491 -2.81,0 -4.435,-1.743 -4.435,-4.503 0,-2.742 1.608,-4.554 4.3,-4.554 0.877,-0.004 1.747,0.169 2.556,0.508 z m 5.047,8.549 c -2.607,0 -4.232,-1.811 -4.232,-4.537 0,-2.708 1.625,-4.52 4.232,-4.52 2.624,0 4.215,1.812 4.215,4.52 0,2.726 -1.591,4.537 -4.215,4.537 z m 0,-1.93 c 1.202,0 1.828,-0.998 1.828,-2.607 0,-1.591 -0.626,-2.59 -1.828,-2.59 -1.185,0 -1.845,0.999 -1.845,2.59 0,1.609 0.66,2.607 1.845,2.607 z m 5.567,1.727 v -8.109 c 1.216,-0.488 2.515,-0.741 3.826,-0.745 2.471,0 3.893,1.219 3.893,3.471 v 5.383 h -2.336 v -5.214 c 0,-1.168 -0.542,-1.71 -1.574,-1.71 -0.513,-0.007 -1.021,0.097 -1.49,0.305 v 6.619 z m 12.988,0.203 c -2.015,0 -3.047,-1.1 -3.047,-3.335 v -3.656 h -1.152 v -1.862 h 1.152 v -1.88 l 2.336,-0.118 v 1.998 h 1.879 v 1.862 h -1.879 v 3.622 c 0,0.982 0.406,1.439 1.168,1.439 0.302,0 0.603,-0.034 0.897,-0.101 l 0.118,1.879 c -0.483,0.107 -0.977,0.158 -1.472,0.152 z m 5.896,0 c -2.319,0 -3.487,-1.134 -3.487,-2.658 0,-1.676 1.371,-2.657 3.403,-2.674 0.504,0.009 1.008,0.054 1.506,0.135 v -0.406 c 0,-1.033 -0.592,-1.524 -1.726,-1.524 -0.765,-0.009 -1.523,0.129 -2.235,0.407 l -0.423,-1.829 c 0.728,-0.304 1.896,-0.508 2.928,-0.508 2.489,0 3.725,1.321 3.725,3.606 v 4.706 c -0.694,0.356 -1.998,0.745 -3.691,0.745 z m 1.422,-1.913 v -1.811 c -0.394,-0.088 -0.797,-0.133 -1.202,-0.136 -0.778,0 -1.388,0.305 -1.388,1.101 0,0.711 0.508,1.083 1.405,1.083 0.408,0.014 0.814,-0.068 1.185,-0.237 z m 10.261,-6.636 -0.44,1.845 c -0.605,-0.262 -1.254,-0.405 -1.913,-0.423 -1.371,0 -2.116,0.965 -2.116,2.556 0,1.744 0.779,2.641 2.235,2.641 0.65,-0.017 1.289,-0.167 1.879,-0.44 l 0.372,1.879 c -0.766,0.341 -1.599,0.509 -2.437,0.491 -2.811,0 -4.436,-1.743 -4.436,-4.503 0,-2.742 1.609,-4.554 4.3,-4.554 0.878,-0.004 1.747,0.169 2.556,0.508 z m 5.137,8.549 c -2.015,0 -3.048,-1.1 -3.048,-3.335 v -3.656 h -1.151 v -1.862 h 1.151 v -1.88 l 2.337,-0.118 v 1.998 h 1.879 v 1.862 h -1.879 v 3.622 c 0,0.982 0.406,1.439 1.168,1.439 0.302,0 0.602,-0.034 0.897,-0.101 l 0.118,1.879 c -0.483,0.107 -0.977,0.158 -1.472,0.152 z"
       fill="#1e3764"
       id="path16838" />
    <path
       d="m 145.326,323.965 c 12.362,0 18.542,-8.241 24.723,-16.482 h -41.018 v 16.482 z"
       fill="url(#paint2_linear_102_1219)"
       id="path16840"
       style="fill:url(#paint2_linear_102_1219)" />
    <path
       d="m 194.772,291.001 c -12.361,0 -18.542,8.241 -24.723,16.482 h 41.018 v -16.482 z"
       fill="url(#paint3_linear_102_1219)"
       id="path16842"
       style="fill:url(#paint3_linear_102_1219)" />
  </g>
  <rect
     x="110.52"
     y="180.48999"
     width="119"
     height="87.892502"
     rx="4.5"
     stroke="#005ab9"
     id="rect16846" />
  <rect
     x="10.52"
     y="50.5"
     width="319"
     height="349.883"
     rx="29.5"
     stroke="#B1B4AE"
     id="rect16848" />
  <rect
     x="50.52"
     y="10.5"
     width="239"
     height="79"
     rx="9.5"
     fill="black"
     id="rect16850" />
  <rect
     x="50.52"
     y="10.5"
     width="239"
     height="79"
     rx="9.5"
     stroke="#F0F0F0"
     id="rect16854" />
  <path
     d="M576.02 720C576.02 722.209 577.811 724 580.02 724C582.229 724 584.02 722.209 584.02 720C584.02 717.791 582.229 716 580.02 716C577.811 716 576.02 717.791 576.02 720ZM330.02 720.75H580.02V719.25H330.02V720.75Z"
     fill="#B1B4AE"
     id="path16864" />
  <path
     d="M326.02 690C326.02 692.209 327.811 694 330.02 694C332.229 694 334.02 692.209 334.02 690C334.02 687.791 332.229 686 330.02 686C327.811 686 326.02 687.791 326.02 690ZM330.02 690.75H580.02V689.25H330.02V690.75Z"
     fill="#B1B4AE"
     id="path16866" />
  <path
     d="M114.02 527.001C114.02 529.21 115.812 531.001 118.021 531.001C120.23 531 122.02 529.209 122.02 527C122.02 524.791 120.229 523 118.019 523.001C115.81 523.001 114.02 524.792 114.02 527.001ZM117.25 401L117.27 527.001L118.77 527.001L118.75 401L117.25 401Z"
     fill="#B1B4AE"
     id="path16868" />
  <path
     d="M214.01 401C214.01 403.209 215.801 405 218.01 405C220.219 405 222.01 403.209 222.01 401C222.01 398.791 220.219 397 218.01 397C215.801 397 214.01 398.791 214.01 401ZM217.26 401V526.001H218.76V401H217.26Z"
     fill="#B1B4AE"
     id="path16870" />
  <path
     d="M433.02 344C433.02 346.209 434.811 348 437.02 348C439.229 348 441.02 346.209 441.02 344C441.02 341.791 439.229 340 437.02 340C434.811 340 433.02 341.791 433.02 344ZM437.02 344.75H580.41V343.25H437.02V344.75Z"
     fill="#B1B4AE"
     id="path16872" />
  <path
     d="M576.02 314C576.02 316.209 577.811 318 580.02 318C582.229 318 584.02 316.209 584.02 314C584.02 311.791 582.229 310 580.02 310C577.811 310 576.02 311.791 576.02 314ZM580.02 313.25H437.02V314.75H580.02V313.25Z"
     fill="#B1B4AE"
     id="path16874" />
  <path
     d="M326.02 98C326.02 100.209 327.811 102 330.02 102C332.229 102 334.02 100.209 334.02 98C334.02 95.7909 332.229 94 330.02 94C327.811 94 326.02 95.7909 326.02 98ZM330.02 98.75L580.02 98.75V97.25L330.02 97.25V98.75Z"
     fill="#B1B4AE"
     id="path16876" />
  <path
     d="M576.02 143C576.02 145.209 577.811 147 580.02 147C582.229 147 584.02 145.209 584.02 143C584.02 140.791 582.229 139 580.02 139C577.811 139 576.02 140.791 576.02 143ZM580.02 142.25H438.02V143.75H580.02V142.25Z"
     fill="#B1B4AE"
     id="path16878" />
  <defs
     id="defs16906">
    <linearGradient
       id="paint0_linear_102_1219"
       x1="707.328"
       y1="125.049"
       x2="737.334"
       y2="113.904"
       gradientUnits="userSpaceOnUse">
      <stop
         stop-color="#005AB9"
         id="stop16880" />
      <stop
         offset="1"
         stop-color="#1E3764"
         id="stop16882" />
    </linearGradient>
    <linearGradient
       id="paint1_linear_102_1219"
       x1="742.533"
       y1="117.476"
       x2="774.394"
       y2="106.606"
       gradientUnits="userSpaceOnUse">
      <stop
         stop-color="#FBA900"
         id="stop16885" />
      <stop
         offset="1"
         stop-color="#FFD800"
         id="stop16887" />
    </linearGradient>
    <linearGradient
       id="paint2_linear_102_1219"
       x1="137.328"
       y1="316.485"
       x2="167.334"
       y2="305.34"
       gradientUnits="userSpaceOnUse">
      <stop
         stop-color="#005AB9"
         id="stop16890" />
      <stop
         offset="1"
         stop-color="#1E3764"
         id="stop16892" />
    </linearGradient>
    <linearGradient
       id="paint3_linear_102_1219"
       x1="172.533"
       y1="308.913"
       x2="204.393"
       y2="298.042"
       gradientUnits="userSpaceOnUse">
      <stop
         stop-color="#FBA900"
         id="stop16895" />
      <stop
         offset="1"
         stop-color="#FFD800"
         id="stop16897" />
    </linearGradient>
    <clipPath
       id="clip0_102_1219">
      <rect
         width="100"
         height="68.8925"
         fill="white"
         transform="translate(690.02 90.5537)"
         id="rect16900" />
    </clipPath>
    <clipPath
       id="clip1_102_1219">
      <rect
         width="100"
         height="68.8925"
         fill="white"
         transform="translate(120.02 281.99)"
         id="rect16903" />
    </clipPath>
    <rect
       x="645.54578"
       y="15.927834"
       width="174.26926"
       height="59.963612"
       id="rect908" />
    <rect
       x="60.422371"
       y="33.987583"
       width="202.9814"
       height="54.757774"
       id="rect3960" />
    <rect
       x="254.73517"
       y="133.78178"
       width="170.43433"
       height="132.86546"
       id="rect15418-6" />
    <rect
       x="254.73517"
       y="164.02013"
       width="196.09109"
       height="108.125"
       id="rect15424-4" />
    <rect
       x="254.73517"
       y="164.02013"
       width="196.09109"
       height="108.125"
       id="rect15424" />
    <rect
       x="254.73517"
       y="133.78178"
       width="170.43433"
       height="132.86546"
       id="rect15418" />
  </defs>
  <text
     xml:space="preserve"
     id="text906"
     style="font-size:26.6667px;font-family:Forth;-inkscape-font-specification:Forth;text-align:center;white-space:pre;shape-inside:url(#rect908);display:inline;fill:#ffffff;stroke-opacity:0.839216"
     transform="translate(9.3142312,253.84521)"><tspan
       x="682.89332"
       y="39.402941"
       id="tspan17514"><tspan
         style="font-weight:600;-inkscape-font-specification:'Forth Semi-Bold'"
         id="tspan17512">BR-DGE</tspan></tspan></text>
  <text
     xml:space="preserve"
     id="text3958"
     style="font-style:normal;font-variant:normal;font-weight:normal;font-stretch:normal;font-size:26.6667px;font-family:Forth;-inkscape-font-specification:Forth;text-align:center;white-space:pre;shape-inside:url(#rect3960);display:inline;fill:#ffffff;stroke-opacity:0.839216"
     transform="translate(9.7741058,-0.6584678)"><tspan
       x="68.11391"
       y="57.463488"
       id="tspan17516">Your Client App</tspan></text>
  <rect
     x="235.85593"
     y="271.68326"
     width="200"
     height="103"
     rx="10"
     fill="#7bdfa7"
     id="rect14242" />
  <rect
     x="235.85593"
     y="111.68326"
     width="200"
     height="154.31355"
     rx="10"
     fill="#7bdfa7"
     id="rect14246"
     style="stroke-width:1.22401" />
  <text
     xml:space="preserve"
     id="text15416"
     style="font-style:normal;font-variant:normal;font-weight:bold;font-stretch:normal;font-size:26.6667px;font-family:Forth;-inkscape-font-specification:'Forth Bold';text-align:center;white-space:pre;shape-inside:url(#rect15418);display:inline;fill:#ffffff;stroke-opacity:0.839216"
     transform="translate(-2.144067,-3.316737)"><tspan
       x="289.55734"
       y="157.25646"
       id="tspan17518">BR-DGE</tspan></text>
  <text
     xml:space="preserve"
     id="text15416-1"
     style="font-style:normal;font-variant:normal;font-weight:bold;font-stretch:normal;font-size:26.6667px;font-family:Forth;-inkscape-font-specification:'Forth Bold';text-align:center;white-space:pre;shape-inside:url(#rect15418-6);display:inline;fill:#ffffff;stroke-opacity:0.839216"
     transform="translate(-5.357028,146.08491)"><tspan
       x="289.55734"
       y="157.25646"
       id="tspan17520">BR-DGE</tspan></text>
  <text
     xml:space="preserve"
     id="text15422"
     style="font-weight:500;font-size:26.6667px;font-family:Forth;-inkscape-font-specification:'Forth Medium';text-align:center;white-space:pre;shape-inside:url(#rect15424);display:inline;fill:#ffffff;stroke-opacity:0.839216"
     transform="translate(-16.144067,-3.316737)"><tspan
       x="265.12997"
       y="187.49474"
       id="tspan17522">post-response
</tspan><tspan
       x="308.09427"
       y="220.82811"
       id="tspan17524">-action
</tspan><tspan
       x="307.08454"
       y="254.16149"
       id="tspan17526">module</tspan></text>
  <text
     xml:space="preserve"
     id="text15422-4"
     style="font-weight:500;font-size:26.6667px;font-family:Forth;-inkscape-font-specification:'Forth Medium';text-align:center;white-space:pre;shape-inside:url(#rect15424-4);display:inline;fill:#ffffff;stroke-opacity:0.839216"
     transform="translate(-19.015354,144.39444)"><tspan
       x="283.65421"
       y="187.49474"
       id="tspan17528">bancontact
</tspan><tspan
       x="307.08454"
       y="220.82811"
       id="tspan17530">module</tspan></text>
</svg>
