<?xml version="1.0" encoding="UTF-8" standalone="no"?>
<!-- Generator: Adobe Illustrator 26.0.3, SVG Export Plug-In . SVG Version: 6.00 Build 0)  -->

<svg
   version="1.1"
   id="Layer_1"
   x="0px"
   y="0px"
   viewBox="0 0 943.71 871.23"
   style="enable-background:new 0 0 943.71 871.23;"
   xml:space="preserve"
   sodipodi:docname="comcarde-web-paypal-smart-module-components.svg"
   inkscape:version="1.2.1 (9c6d41e4, 2022-07-14)"
   xmlns:inkscape="http://www.inkscape.org/namespaces/inkscape"
   xmlns:sodipodi="http://sodipodi.sourceforge.net/DTD/sodipodi-0.dtd"
   xmlns="http://www.w3.org/2000/svg"
   xmlns:svg="http://www.w3.org/2000/svg"><defs
   id="defs1805"><rect
     x="117.05954"
     y="15.35207"
     width="203.41493"
     height="51.813238"
     id="rect9608" /><rect
     x="60.422371"
     y="33.987583"
     width="202.9814"
     height="54.757774"
     id="rect3960" /><rect
     x="645.54578"
     y="15.927834"
     width="174.26926"
     height="59.963612"
     id="rect908" /><rect
     x="645.54578"
     y="15.927834"
     width="174.26926"
     height="59.963612"
     id="rect908-5" /></defs><sodipodi:namedview
   id="namedview1803"
   pagecolor="#505050"
   bordercolor="#eeeeee"
   borderopacity="1"
   inkscape:pageshadow="0"
   inkscape:pageopacity="0"
   inkscape:pagecheckerboard="0"
   showgrid="false"
   inkscape:zoom="1.0422047"
   inkscape:cx="376.60548"
   inkscape:cy="313.27819"
   inkscape:window-width="2560"
   inkscape:window-height="1387"
   inkscape:window-x="0"
   inkscape:window-y="25"
   inkscape:window-maximized="1"
   inkscape:current-layer="g1307"
   inkscape:showpageshadow="2"
   inkscape:deskcolor="#505050" />
<style
   type="text/css"
   id="style908">
	.st0{fill:#FFFFFF;}
	.st1{fill:#CBCBCB;}
	.st2{fill:#B2B2B2;}
	.st3{fill:#FFC43A;}
	.st4{fill:#D2F3FD;}
	.st5{fill-rule:evenodd;clip-rule:evenodd;fill:#1D3A7F;}
	.st6{fill-rule:evenodd;clip-rule:evenodd;fill:#489CDC;}
	.st7{fill:none;stroke:#489CDC;stroke-width:2;stroke-miterlimit:10;}
	.st8{fill:none;stroke:#CCCCCC;stroke-width:2;}
	.st9{fill:#ECECEC;}
	.st10{fill:none;stroke:#FFFFFF;stroke-miterlimit:10;}
	.st11{fill:#95DCAB;}
	.st12{fill:#558A72;}
	.st13{fill:#D4D4D4;}
	.st14{fill:#646363;}
	.st15{stroke:#999;stroke-width:1.5;}
	.st16{enable-background:new;fill:#999}
	.st17{fill:none;stroke:#999;stroke-width:1.5;stroke-miterlimit:10;}
	.st18{fill:#7BDFA7;}
	.st19{fill:#FFFFFF;stroke:#999;stroke-width:1.5;}
	.st20{enable-background:new;fill:#000}
</style>
<g
   id="g1800">
	
	
	
	
	
	
	<path
   class="st3"
   d="m 338.45,212.87 h -250 c -2.76,0 -5,-2.24 -5,-5 v -20 c 0,-2.76 2.24,-5 5,-5 h 250 c 2.76,0 5,2.24 5,5 v 20 c 0,2.76 -2.24,5 -5,5 z"
   id="path930" />
	<path
   class="st4"
   d="M912.71,190.23h-260c-16.57,0-30-13.43-30-30V71.45c0-16.57,13.43-30,30-30h260c16.57,0,30,13.43,30,30v88.78   C942.71,176.8,929.28,190.23,912.71,190.23z"
   id="path932" />
	<g
   id="PayPal_00000155127048487507780320000000899250259729914775_"
   transform="translate(1086.176 2772.135)">
		<path
   id="Path_3560_00000093155366550527218620000011055842214418228131_"
   class="st5"
   d="M-359.32-2676.28    c4.9,0,9.42,2.66,8.8,9.28c-0.75,7.87-4.97,12.22-11.62,12.25h-5.81c-0.83,0-1.24,0.68-1.46,2.08l-1.12,7.15    c-0.17,1.08-0.72,1.61-1.53,1.61h-5.41c-0.86,0-1.16-0.55-0.97-1.79l4.46-28.65c0.23-1.41,0.75-1.93,1.71-1.93h12.96H-359.32z     M-368.13-2660.94h4.4c2.76-0.11,4.6-2.01,4.77-5.45c0.18-1.82-1.15-3.45-2.97-3.63c-0.21-0.02-0.42-0.02-0.63,0l-4.15,0.02    L-368.13-2660.94L-368.13-2660.94z M-335.82-2646.11c0.5-0.45,1-0.68,0.93-0.13l-0.18,1.33c-0.09,0.69,0.18,1.06,0.83,1.06h4.81    c0.81,0,1.2-0.33,1.4-1.58l2.96-18.58c0.15-0.93-0.08-1.39-0.79-1.39h-5.28c-0.48,0-0.71,0.26-0.83,0.99l-0.19,1.14    c-0.1,0.6-0.38,0.7-0.63,0.1c-0.9-2.12-3.18-3.06-6.38-3c-7.1,0.15-12.82,5.89-12.94,12.99c-0.56,4.9,2.96,9.34,7.86,9.9    c0.33,0.04,0.66,0.06,0.99,0.06c2.79,0.18,5.52-0.87,7.46-2.89l0,0H-335.82z M-339.84-2648.97c-2.66,0.11-4.91-1.97-5.02-4.63    c-0.01-0.34,0.01-0.69,0.07-1.03c0.59-3.22,3.36-5.59,6.64-5.66c2.66-0.11,4.91,1.97,5.02,4.63c0.01,0.34-0.01,0.69-0.07,1.03    C-333.79-2651.4-336.57-2649.03-339.84-2648.97L-339.84-2648.97z M-315.67-2665.46h-4.87c-1,0-1.41,0.75-1.1,1.67l6.05,17.71    l-5.93,8.42c-0.51,0.7-0.11,1.35,0.59,1.35h5.48c0.65,0.08,1.29-0.24,1.63-0.8l18.6-26.68c0.57-0.82,0.3-1.68-0.64-1.68h-5.19    c-0.89,0-1.24,0.35-1.75,1.09l-7.76,11.23l-3.47-11.27c-0.21-0.71-0.91-1.17-1.64-1.06L-315.67-2665.46z" />
		<path
   id="Path_3561_00000119826456747194767720000006403122845667006899_"
   class="st6"
   d="M-275.87-2676.28    c4.9,0,9.42,2.66,8.8,9.28c-0.75,7.87-4.97,12.24-11.62,12.24h-5.81c-0.83,0-1.24,0.68-1.46,2.08l-1.12,7.15    c-0.17,1.08-0.72,1.61-1.53,1.61h-5.41c-0.86,0-1.16-0.55-0.97-1.79l4.47-28.65c0.23-1.41,0.75-1.93,1.71-1.93h12.94V-2676.28z     M-284.68-2660.94h4.41c2.76-0.11,4.6-2.01,4.77-5.45c0.18-1.82-1.15-3.45-2.97-3.63c-0.21-0.02-0.42-0.02-0.63,0l-4.15,0.02    L-284.68-2660.94z M-252.37-2646.11c0.5-0.45,1-0.68,0.93-0.13l-0.18,1.33c-0.09,0.69,0.18,1.06,0.83,1.06h4.81    c0.81,0,1.2-0.33,1.4-1.58l2.96-18.58c0.15-0.93-0.08-1.39-0.79-1.39h-5.27c-0.48,0-0.71,0.26-0.83,0.99l-0.19,1.14    c-0.1,0.6-0.38,0.7-0.63,0.1c-0.9-2.12-3.18-3.06-6.38-3c-7.1,0.15-12.82,5.89-12.94,12.99c-0.56,4.9,2.96,9.34,7.86,9.9    c0.33,0.04,0.66,0.06,0.99,0.06c2.79,0.18,5.52-0.87,7.46-2.89l0,0H-252.37z M-256.39-2648.97c-2.66,0.11-4.91-1.97-5.02-4.63    c-0.01-0.34,0.01-0.69,0.07-1.03c0.59-3.22,3.36-5.59,6.64-5.66c2.66-0.11,4.91,1.97,5.02,4.63c0.01,0.34-0.01,0.69-0.07,1.03    C-250.34-2651.4-253.11-2649.04-256.39-2648.97L-256.39-2648.97z M-234.23-2643.82h-5.54c-0.36,0.02-0.67-0.26-0.69-0.63    c0-0.04,0-0.08,0.01-0.12l4.87-30.87c0.1-0.43,0.48-0.75,0.92-0.75h5.54c0.36-0.01,0.66,0.27,0.68,0.63c0,0.04,0,0.08,0,0.12    l-4.87,30.87c-0.09,0.44-0.47,0.76-0.92,0.77V-2643.82z" />
	</g>
	<path
   class="st7"
   d="M912.71,190.23h-260c-16.57,0-30-13.43-30-30V71.45c0-16.57,13.43-30,30-30h260c16.57,0,30,13.43,30,30v88.78   C942.71,176.8,929.28,190.23,912.71,190.23z"
   id="path937" />
	<path
   class="st8"
   d="M912.71,870.23h-260c-16.57,0-30-13.43-30-30V286.57c0-16.57,13.43-30,30-30h260c16.57,0,30,13.43,30,30   v553.67C942.71,856.8,929.28,870.23,912.71,870.23z"
   id="path939" />
	<g
   id="g1267">
		<g
   id="g1151">
			<g
   id="g981">
				<rect
   x="665.21"
   y="652.34"
   class="st9"
   width="235"
   height="65"
   id="rect941" />
				<rect
   x="672.71"
   y="659.84"
   class="st10"
   width="157.5"
   height="50"
   id="rect943" />
				<rect
   x="680.21"
   y="664.84"
   class="st11"
   width="5"
   height="40"
   id="rect945" />
				<rect
   x="692.71"
   y="664.84"
   class="st12"
   width="5"
   height="40"
   id="rect947" />
				<rect
   x="705.21"
   y="664.84"
   class="st12"
   width="5"
   height="40"
   id="rect949" />
				<rect
   x="717.71"
   y="664.84"
   class="st12"
   width="5"
   height="40"
   id="rect951" />
				<rect
   x="730.21"
   y="664.84"
   class="st12"
   width="5"
   height="40"
   id="rect953" />
				<rect
   x="742.71"
   y="664.84"
   class="st12"
   width="5"
   height="40"
   id="rect955" />
				<rect
   x="755.21"
   y="664.84"
   class="st12"
   width="5"
   height="40"
   id="rect957" />
				<rect
   x="767.71"
   y="664.84"
   class="st12"
   width="5"
   height="40"
   id="rect959" />
				<rect
   x="780.21"
   y="664.84"
   class="st12"
   width="5"
   height="40"
   id="rect961" />
				<rect
   x="792.71"
   y="664.84"
   class="st12"
   width="5"
   height="40"
   id="rect963" />
				<rect
   x="805.21"
   y="664.84"
   class="st12"
   width="5"
   height="40"
   id="rect965" />
				<rect
   x="817.71"
   y="664.84"
   class="st12"
   width="5"
   height="40"
   id="rect967" />
				<rect
   x="885.21"
   y="659.84"
   class="st12"
   width="7.5"
   height="50"
   id="rect969" />
				<circle
   class="st0"
   cx="873.71"
   cy="663.84"
   r="4"
   id="circle971" />
				<circle
   class="st12"
   cx="873.71"
   cy="677.84"
   r="4"
   id="circle973" />
				<circle
   class="st12"
   cx="873.71"
   cy="705.84"
   r="4"
   id="circle975" />
				<circle
   class="st11"
   cx="873.71"
   cy="691.84"
   r="4"
   id="circle977" />
				<rect
   x="672.71"
   y="717.34"
   class="st13"
   width="220"
   height="5"
   id="rect979" />
			</g>
			<g
   id="g1023">
				<rect
   x="665.21"
   y="582.34"
   class="st9"
   width="235"
   height="65"
   id="rect983" />
				<rect
   x="672.71"
   y="589.84"
   class="st10"
   width="157.5"
   height="50"
   id="rect985" />
				<rect
   x="680.21"
   y="594.84"
   class="st12"
   width="5"
   height="40"
   id="rect987" />
				<rect
   x="692.71"
   y="594.84"
   class="st12"
   width="5"
   height="40"
   id="rect989" />
				<rect
   x="705.21"
   y="594.84"
   class="st12"
   width="5"
   height="40"
   id="rect991" />
				<rect
   x="717.71"
   y="594.84"
   class="st12"
   width="5"
   height="40"
   id="rect993" />
				<rect
   x="730.21"
   y="594.84"
   class="st12"
   width="5"
   height="40"
   id="rect995" />
				<rect
   x="742.71"
   y="594.84"
   class="st12"
   width="5"
   height="40"
   id="rect997" />
				<rect
   x="755.21"
   y="594.84"
   class="st12"
   width="5"
   height="40"
   id="rect999" />
				<rect
   x="767.71"
   y="594.84"
   class="st12"
   width="5"
   height="40"
   id="rect1001" />
				<rect
   x="780.21"
   y="594.84"
   class="st12"
   width="5"
   height="40"
   id="rect1003" />
				<rect
   x="792.71"
   y="594.84"
   class="st12"
   width="5"
   height="40"
   id="rect1005" />
				<rect
   x="805.21"
   y="594.84"
   class="st11"
   width="5"
   height="40"
   id="rect1007" />
				<rect
   x="817.71"
   y="594.84"
   class="st12"
   width="5"
   height="40"
   id="rect1009" />
				<rect
   x="885.21"
   y="589.84"
   class="st12"
   width="7.5"
   height="50"
   id="rect1011" />
				<circle
   class="st11"
   cx="873.71"
   cy="593.84"
   r="4"
   id="circle1013" />
				<circle
   class="st12"
   cx="873.71"
   cy="607.84"
   r="4"
   id="circle1015" />
				<circle
   class="st0"
   cx="873.71"
   cy="635.84"
   r="4"
   id="circle1017" />
				<circle
   class="st12"
   cx="873.71"
   cy="621.84"
   r="4"
   id="circle1019" />
				<rect
   x="672.71"
   y="647.34"
   class="st13"
   width="220"
   height="5"
   id="rect1021" />
			</g>
			<g
   id="g1065">
				<rect
   x="665.21"
   y="512.34"
   class="st9"
   width="235"
   height="65"
   id="rect1025" />
				<rect
   x="672.71"
   y="519.84"
   class="st10"
   width="157.5"
   height="50"
   id="rect1027" />
				<rect
   x="680.21"
   y="524.84"
   class="st12"
   width="5"
   height="40"
   id="rect1029" />
				<rect
   x="692.71"
   y="524.84"
   class="st12"
   width="5"
   height="40"
   id="rect1031" />
				<rect
   x="705.21"
   y="524.84"
   class="st12"
   width="5"
   height="40"
   id="rect1033" />
				<rect
   x="717.71"
   y="524.84"
   class="st12"
   width="5"
   height="40"
   id="rect1035" />
				<rect
   x="730.21"
   y="524.84"
   class="st11"
   width="5"
   height="40"
   id="rect1037" />
				<rect
   x="742.71"
   y="524.84"
   class="st12"
   width="5"
   height="40"
   id="rect1039" />
				<rect
   x="755.21"
   y="524.84"
   class="st12"
   width="5"
   height="40"
   id="rect1041" />
				<rect
   x="767.71"
   y="524.84"
   class="st12"
   width="5"
   height="40"
   id="rect1043" />
				<rect
   x="780.21"
   y="524.84"
   class="st12"
   width="5"
   height="40"
   id="rect1045" />
				<rect
   x="792.71"
   y="524.84"
   class="st12"
   width="5"
   height="40"
   id="rect1047" />
				<rect
   x="805.21"
   y="524.84"
   class="st12"
   width="5"
   height="40"
   id="rect1049" />
				<rect
   x="817.71"
   y="524.84"
   class="st12"
   width="5"
   height="40"
   id="rect1051" />
				<rect
   x="885.21"
   y="519.84"
   class="st12"
   width="7.5"
   height="50"
   id="rect1053" />
				<circle
   class="st12"
   cx="873.71"
   cy="523.84"
   r="4"
   id="circle1055" />
				<circle
   class="st11"
   cx="873.71"
   cy="537.84"
   r="4"
   id="circle1057" />
				<circle
   class="st12"
   cx="873.71"
   cy="565.84"
   r="4"
   id="circle1059" />
				<circle
   class="st0"
   cx="873.71"
   cy="551.84"
   r="4"
   id="circle1061" />
				<rect
   x="672.71"
   y="577.34"
   class="st13"
   width="220"
   height="5"
   id="rect1063" />
			</g>
			<g
   id="g1107">
				<rect
   x="665.21"
   y="442.34"
   class="st9"
   width="235"
   height="65"
   id="rect1067" />
				<rect
   x="672.71"
   y="449.84"
   class="st10"
   width="157.5"
   height="50"
   id="rect1069" />
				<rect
   x="680.21"
   y="454.84"
   class="st12"
   width="5"
   height="40"
   id="rect1071" />
				<rect
   x="692.71"
   y="454.84"
   class="st12"
   width="5"
   height="40"
   id="rect1073" />
				<rect
   x="705.21"
   y="454.84"
   class="st12"
   width="5"
   height="40"
   id="rect1075" />
				<rect
   x="717.71"
   y="454.84"
   class="st12"
   width="5"
   height="40"
   id="rect1077" />
				<rect
   x="730.21"
   y="454.84"
   class="st12"
   width="5"
   height="40"
   id="rect1079" />
				<rect
   x="742.71"
   y="454.84"
   class="st12"
   width="5"
   height="40"
   id="rect1081" />
				<rect
   x="755.21"
   y="454.84"
   class="st12"
   width="5"
   height="40"
   id="rect1083" />
				<rect
   x="767.71"
   y="454.84"
   class="st12"
   width="5"
   height="40"
   id="rect1085" />
				<rect
   x="780.21"
   y="454.84"
   class="st12"
   width="5"
   height="40"
   id="rect1087" />
				<rect
   x="792.71"
   y="454.84"
   class="st12"
   width="5"
   height="40"
   id="rect1089" />
				<rect
   x="805.21"
   y="454.84"
   class="st12"
   width="5"
   height="40"
   id="rect1091" />
				<rect
   x="817.71"
   y="454.84"
   class="st11"
   width="5"
   height="40"
   id="rect1093" />
				<rect
   x="885.21"
   y="449.84"
   class="st12"
   width="7.5"
   height="50"
   id="rect1095" />
				<circle
   class="st11"
   cx="873.71"
   cy="453.84"
   r="4"
   id="circle1097" />
				<circle
   class="st12"
   cx="873.71"
   cy="467.84"
   r="4"
   id="circle1099" />
				<circle
   class="st0"
   cx="873.71"
   cy="495.84"
   r="4"
   id="circle1101" />
				<circle
   class="st12"
   cx="873.71"
   cy="481.84"
   r="4"
   id="circle1103" />
				<rect
   x="672.71"
   y="507.34"
   class="st13"
   width="220"
   height="5"
   id="rect1105" />
			</g>
			<g
   id="g1149">
				<rect
   x="665.21"
   y="372.34"
   class="st9"
   width="235"
   height="65"
   id="rect1109" />
				<rect
   x="672.71"
   y="379.84"
   class="st10"
   width="157.5"
   height="50"
   id="rect1111" />
				<rect
   x="680.21"
   y="384.84"
   class="st12"
   width="5"
   height="40"
   id="rect1113" />
				<rect
   x="692.71"
   y="384.84"
   class="st11"
   width="5"
   height="40"
   id="rect1115" />
				<rect
   x="705.21"
   y="384.84"
   class="st12"
   width="5"
   height="40"
   id="rect1117" />
				<rect
   x="717.71"
   y="384.84"
   class="st12"
   width="5"
   height="40"
   id="rect1119" />
				<rect
   x="730.21"
   y="384.84"
   class="st12"
   width="5"
   height="40"
   id="rect1121" />
				<rect
   x="742.71"
   y="384.84"
   class="st12"
   width="5"
   height="40"
   id="rect1123" />
				<rect
   x="755.21"
   y="384.84"
   class="st12"
   width="5"
   height="40"
   id="rect1125" />
				<rect
   x="767.71"
   y="384.84"
   class="st12"
   width="5"
   height="40"
   id="rect1127" />
				<rect
   x="780.21"
   y="384.84"
   class="st12"
   width="5"
   height="40"
   id="rect1129" />
				<rect
   x="792.71"
   y="384.84"
   class="st12"
   width="5"
   height="40"
   id="rect1131" />
				<rect
   x="805.21"
   y="384.84"
   class="st12"
   width="5"
   height="40"
   id="rect1133" />
				<rect
   x="817.71"
   y="384.84"
   class="st12"
   width="5"
   height="40"
   id="rect1135" />
				<rect
   x="885.21"
   y="379.84"
   class="st12"
   width="7.5"
   height="50"
   id="rect1137" />
				<circle
   class="st12"
   cx="873.71"
   cy="383.84"
   r="4"
   id="circle1139" />
				<circle
   class="st0"
   cx="873.71"
   cy="397.84"
   r="4"
   id="circle1141" />
				<circle
   class="st11"
   cx="873.71"
   cy="425.84"
   r="4"
   id="circle1143" />
				<circle
   class="st12"
   cx="873.71"
   cy="411.84"
   r="4"
   id="circle1145" />
				<rect
   x="672.71"
   y="437.34"
   class="st13"
   width="220"
   height="5"
   id="rect1147" />
			</g>
		</g>
		<g
   id="g1265">
			<g
   id="g1157">
				<rect
   x="665.21"
   y="722.34"
   class="st9"
   width="235"
   height="65"
   id="rect1153" />
				<rect
   x="672.71"
   y="787.34"
   class="st13"
   width="220"
   height="5"
   id="rect1155" />
			</g>
			<g
   id="g1255">
				<rect
   x="672.71"
   y="732.9"
   class="st13"
   width="5"
   height="5"
   id="rect1159" />
				<rect
   x="682.71"
   y="732.9"
   class="st13"
   width="5"
   height="5"
   id="rect1161" />
				<rect
   x="692.71"
   y="732.9"
   class="st13"
   width="5"
   height="5"
   id="rect1163" />
				<rect
   x="702.71"
   y="732.9"
   class="st13"
   width="5"
   height="5"
   id="rect1165" />
				<rect
   x="712.71"
   y="732.9"
   class="st13"
   width="5"
   height="5"
   id="rect1167" />
				<rect
   x="722.71"
   y="732.9"
   class="st13"
   width="5"
   height="5"
   id="rect1169" />
				<rect
   x="732.71"
   y="732.9"
   class="st13"
   width="5"
   height="5"
   id="rect1171" />
				<rect
   x="742.71"
   y="732.9"
   class="st13"
   width="5"
   height="5"
   id="rect1173" />
				<rect
   x="752.71"
   y="732.9"
   class="st13"
   width="5"
   height="5"
   id="rect1175" />
				<rect
   x="762.71"
   y="732.9"
   class="st13"
   width="5"
   height="5"
   id="rect1177" />
				<rect
   x="677.71"
   y="742.9"
   class="st13"
   width="5"
   height="5"
   id="rect1179" />
				<rect
   x="687.71"
   y="742.9"
   class="st13"
   width="5"
   height="5"
   id="rect1181" />
				<rect
   x="697.71"
   y="742.9"
   class="st13"
   width="5"
   height="5"
   id="rect1183" />
				<rect
   x="707.71"
   y="742.9"
   class="st13"
   width="5"
   height="5"
   id="rect1185" />
				<rect
   x="717.71"
   y="742.9"
   class="st13"
   width="5"
   height="5"
   id="rect1187" />
				<rect
   x="727.71"
   y="742.9"
   class="st13"
   width="5"
   height="5"
   id="rect1189" />
				<rect
   x="737.71"
   y="742.9"
   class="st13"
   width="5"
   height="5"
   id="rect1191" />
				<rect
   x="747.71"
   y="742.9"
   class="st13"
   width="5"
   height="5"
   id="rect1193" />
				<rect
   x="757.71"
   y="742.9"
   class="st13"
   width="5"
   height="5"
   id="rect1195" />
				<rect
   x="672.71"
   y="752.9"
   class="st13"
   width="5"
   height="5"
   id="rect1197" />
				<rect
   x="682.71"
   y="752.9"
   class="st13"
   width="5"
   height="5"
   id="rect1199" />
				<rect
   x="692.71"
   y="752.9"
   class="st13"
   width="5"
   height="5"
   id="rect1201" />
				<rect
   x="702.71"
   y="752.9"
   class="st13"
   width="5"
   height="5"
   id="rect1203" />
				<rect
   x="712.71"
   y="752.9"
   class="st13"
   width="5"
   height="5"
   id="rect1205" />
				<rect
   x="722.71"
   y="752.9"
   class="st13"
   width="5"
   height="5"
   id="rect1207" />
				<rect
   x="732.71"
   y="752.9"
   class="st13"
   width="5"
   height="5"
   id="rect1209" />
				<rect
   x="742.71"
   y="752.9"
   class="st13"
   width="5"
   height="5"
   id="rect1211" />
				<rect
   x="752.71"
   y="752.9"
   class="st13"
   width="5"
   height="5"
   id="rect1213" />
				<rect
   x="762.71"
   y="752.9"
   class="st13"
   width="5"
   height="5"
   id="rect1215" />
				<rect
   x="677.71"
   y="762.9"
   class="st13"
   width="5"
   height="5"
   id="rect1217" />
				<rect
   x="687.71"
   y="762.9"
   class="st13"
   width="5"
   height="5"
   id="rect1219" />
				<rect
   x="697.71"
   y="762.9"
   class="st13"
   width="5"
   height="5"
   id="rect1221" />
				<rect
   x="707.71"
   y="762.9"
   class="st13"
   width="5"
   height="5"
   id="rect1223" />
				<rect
   x="717.71"
   y="762.9"
   class="st13"
   width="5"
   height="5"
   id="rect1225" />
				<rect
   x="727.71"
   y="762.9"
   class="st13"
   width="5"
   height="5"
   id="rect1227" />
				<rect
   x="737.71"
   y="762.9"
   class="st13"
   width="5"
   height="5"
   id="rect1229" />
				<rect
   x="747.71"
   y="762.9"
   class="st13"
   width="5"
   height="5"
   id="rect1231" />
				<rect
   x="757.71"
   y="762.9"
   class="st13"
   width="5"
   height="5"
   id="rect1233" />
				<rect
   x="672.71"
   y="772.9"
   class="st13"
   width="5"
   height="5"
   id="rect1235" />
				<rect
   x="682.71"
   y="772.9"
   class="st13"
   width="5"
   height="5"
   id="rect1237" />
				<rect
   x="692.71"
   y="772.9"
   class="st13"
   width="5"
   height="5"
   id="rect1239" />
				<rect
   x="702.71"
   y="772.9"
   class="st13"
   width="5"
   height="5"
   id="rect1241" />
				<rect
   x="712.71"
   y="772.9"
   class="st13"
   width="5"
   height="5"
   id="rect1243" />
				<rect
   x="722.71"
   y="772.9"
   class="st13"
   width="5"
   height="5"
   id="rect1245" />
				<rect
   x="732.71"
   y="772.9"
   class="st13"
   width="5"
   height="5"
   id="rect1247" />
				<rect
   x="742.71"
   y="772.9"
   class="st13"
   width="5"
   height="5"
   id="rect1249" />
				<rect
   x="752.71"
   y="772.9"
   class="st13"
   width="5"
   height="5"
   id="rect1251" />
				<rect
   x="762.71"
   y="772.9"
   class="st13"
   width="5"
   height="5"
   id="rect1253" />
			</g>
			<rect
   x="880.21"
   y="729.84"
   class="st10"
   width="12.5"
   height="50"
   id="rect1257" />
			<path
   class="st14"
   d="M886.46,754.87L886.46,754.87c-2.07,0-3.75-1.68-3.75-3.75v-15.03c0-2.07,1.68-3.75,3.75-3.75l0,0     c2.07,0,3.75,1.68,3.75,3.75v15.03C890.21,753.19,888.54,754.87,886.46,754.87z"
   id="path1259" />
			<circle
   class="st0"
   cx="886.46"
   cy="772.9"
   r="4"
   id="circle1261" />
			<circle
   cx="886.46"
   cy="736.34"
   r="2.5"
   id="circle1263" />
		</g>
	</g>
	
	<path
   class="st8"
   d="M343.45,870.23h-260c-16.57,0-30-13.43-30-30v-260c0-16.57,13.43-30,30-30h260c16.57,0,30,13.43,30,30v260   C373.45,856.8,360.01,870.23,343.45,870.23z"
   id="path1309" />
	<path
   id="Path_3462_00000162342193119194904550000017952891775618592410_"
   class="st17"
   d="M373.08,291.46h250" />
	<path
   id="Path_3462_00000017509951718718435280000014214572830248126908_"
   class="st17"
   d="M 451.27961,115.84 H 623.08" />
	<path
   class="st15"
   d="M313.45,594.52h-200c-5.52,0-10-4.48-10-10v-60c0-5.52,4.48-10,10-10h200c5.52,0,10,4.48,10,10v60   C323.45,590.05,318.97,594.52,313.45,594.52z"
   id="path1313" />
	<g
   class="st16"
   id="g1335">
		<path
   class="st0"
   d="M160.48,544.91l-6.33,11.21v6.71h-2.42v-6.71l-6.41-11.21h2.8l4.85,8.81l4.74-8.81H160.48z"
   id="path1315" />
		<path
   class="st0"
   d="M158.87,556.77c0-3.61,2.75-6.44,6.51-6.44c3.76,0,6.49,2.83,6.49,6.44c0,3.58-2.73,6.44-6.49,6.44    C161.62,563.21,158.87,560.35,158.87,556.77z M169.39,556.77c0-2.42-1.56-4.29-4.01-4.29c-2.37,0-4.04,1.87-4.04,4.29    c0,2.4,1.64,4.29,4.04,4.29C167.83,561.06,169.39,559.17,169.39,556.77z"
   id="path1317" />
		<path
   class="st0"
   d="M187.39,560.61v2.22h-0.73c-1.62,0-2.3-0.66-2.6-1.87c-0.93,1.41-2.47,2.25-4.37,2.25    c-3.1,0-5.17-1.84-5.17-5.53v-6.97h2.45v6.61c0,2.57,1.19,3.63,3.18,3.63c2.15,0,3.51-1.57,3.51-3.86v-6.38h2.42v8.61    c0,0.88,0.05,1.29,0.81,1.29H187.39z"
   id="path1319" />
		<path
   class="st0"
   d="M196.93,550.71v2.25c-2.83,0-4.09,1.64-4.09,3.86v6.01h-2.42v-12.11h2.42v2.15    C193.73,551.52,195.17,550.71,196.93,550.71z"
   id="path1321" />
		<path
   class="st0"
   d="M204.78,558.13l2.27-0.73c0.38,1.72,1.59,3.56,4.19,3.56c2.2,0,3.76-1.09,3.76-3.1    c0-4.04-9.62-2.45-9.62-8.08c0-3.41,2.88-5.25,5.8-5.25c2.85,0,5.02,1.51,5.86,4.01l-2.25,0.68c-0.48-1.39-1.67-2.47-3.56-2.47    c-1.62,0-3.36,0.76-3.36,2.78c0,3.76,9.62,1.99,9.62,8.18c0,3.33-2.5,5.5-6.31,5.5C207.38,563.21,205.36,560.71,204.78,558.13z"
   id="path1323" />
		<path
   class="st0"
   d="M219.58,556.62c0-3.61,2.62-6.28,6.11-6.28c3.91,0,6.26,2.78,5.93,6.97h-9.54c0.2,2.52,1.69,3.84,3.68,3.84    c1.94,0,3.18-0.98,3.89-2.6l1.94,0.81c-0.93,2.27-3,3.86-5.83,3.86C221.95,563.21,219.58,560.28,219.58,556.62z M229.27,555.51    c-0.2-2.2-1.64-3.18-3.58-3.18c-2.02,0-3.33,1.41-3.58,3.18H229.27z"
   id="path1325" />
		<path
   class="st0"
   d="M240.98,550.71v2.25c-2.83,0-4.09,1.64-4.09,3.86v6.01h-2.42v-12.11h2.42v2.15    C237.77,551.52,239.21,550.71,240.98,550.71z"
   id="path1327" />
		<path
   class="st0"
   d="M255.06,550.71l-5.25,12.11h-2.15l-5.25-12.11h2.65l3.69,9.34l3.68-9.34H255.06z"
   id="path1329" />
		<path
   class="st0"
   d="M255.95,556.62c0-3.61,2.62-6.28,6.11-6.28c3.91,0,6.26,2.78,5.93,6.97h-9.54c0.2,2.52,1.69,3.84,3.68,3.84    c1.94,0,3.18-0.98,3.89-2.6l1.94,0.81c-0.93,2.27-3,3.86-5.83,3.86C258.32,563.21,255.95,560.28,255.95,556.62z M265.64,555.51    c-0.2-2.2-1.64-3.18-3.58-3.18c-2.02,0-3.33,1.41-3.58,3.18H265.64z"
   id="path1331" />
		<path
   class="st0"
   d="M277.35,550.71v2.25c-2.83,0-4.09,1.64-4.09,3.86v6.01h-2.42v-12.11h2.42v2.15    C274.15,551.52,275.59,550.71,277.35,550.71z"
   id="path1333" />
	</g>
	<path
   class="st8"
   d="M343.45,401.46h-260c-16.57,0-30-13.43-30-30v-300c0-16.57,13.43-30,30-30h260c16.57,0,30,13.43,30,30v300   C373.45,388.02,360.01,401.46,343.45,401.46z"
   id="path1337" />
	<g
   id="g1381">
		<g
   id="g1379">
			<rect
   x="95.95"
   y="645.23"
   class="st9"
   width="235"
   height="65"
   id="rect1339" />
			<rect
   x="103.45"
   y="652.73"
   class="st10"
   width="157.5"
   height="50"
   id="rect1341" />
			<rect
   x="110.95"
   y="657.73"
   class="st12"
   width="5"
   height="40"
   id="rect1343" />
			<rect
   x="123.45"
   y="657.73"
   class="st12"
   width="5"
   height="40"
   id="rect1345" />
			<rect
   x="135.95"
   y="657.73"
   class="st12"
   width="5"
   height="40"
   id="rect1347" />
			<rect
   x="148.45"
   y="657.73"
   class="st12"
   width="5"
   height="40"
   id="rect1349" />
			<rect
   x="160.95"
   y="657.73"
   class="st12"
   width="5"
   height="40"
   id="rect1351" />
			<rect
   x="173.45"
   y="657.73"
   class="st12"
   width="5"
   height="40"
   id="rect1353" />
			<rect
   x="185.95"
   y="657.73"
   class="st12"
   width="5"
   height="40"
   id="rect1355" />
			<rect
   x="198.45"
   y="657.73"
   class="st12"
   width="5"
   height="40"
   id="rect1357" />
			<rect
   x="210.95"
   y="657.73"
   class="st12"
   width="5"
   height="40"
   id="rect1359" />
			<rect
   x="223.45"
   y="657.73"
   class="st12"
   width="5"
   height="40"
   id="rect1361" />
			<rect
   x="235.95"
   y="657.73"
   class="st11"
   width="5"
   height="40"
   id="rect1363" />
			<rect
   x="248.45"
   y="657.73"
   class="st12"
   width="5"
   height="40"
   id="rect1365" />
			<rect
   x="315.95"
   y="652.73"
   class="st12"
   width="7.5"
   height="50"
   id="rect1367" />
			<circle
   class="st12"
   cx="304.45"
   cy="656.73"
   r="4"
   id="circle1369" />
			<circle
   class="st11"
   cx="304.45"
   cy="670.73"
   r="4"
   id="circle1371" />
			<circle
   class="st0"
   cx="304.45"
   cy="698.73"
   r="4"
   id="circle1373" />
			<circle
   class="st12"
   cx="304.45"
   cy="684.73"
   r="4"
   id="circle1375" />
			<rect
   x="103.45"
   y="710.23"
   class="st13"
   width="220"
   height="5"
   id="rect1377" />
		</g>
	</g>
	<g
   id="g1495">
		<g
   id="g1387">
			<rect
   x="95.95"
   y="715.23"
   class="st9"
   width="235"
   height="65"
   id="rect1383" />
			<rect
   x="103.45"
   y="780.23"
   class="st13"
   width="220"
   height="5"
   id="rect1385" />
		</g>
		<g
   id="g1485">
			<rect
   x="103.45"
   y="725.79"
   class="st13"
   width="5"
   height="5"
   id="rect1389" />
			<rect
   x="113.45"
   y="725.79"
   class="st13"
   width="5"
   height="5"
   id="rect1391" />
			<rect
   x="123.45"
   y="725.79"
   class="st13"
   width="5"
   height="5"
   id="rect1393" />
			<rect
   x="133.45"
   y="725.79"
   class="st13"
   width="5"
   height="5"
   id="rect1395" />
			<rect
   x="143.45"
   y="725.79"
   class="st13"
   width="5"
   height="5"
   id="rect1397" />
			<rect
   x="153.45"
   y="725.79"
   class="st13"
   width="5"
   height="5"
   id="rect1399" />
			<rect
   x="163.45"
   y="725.79"
   class="st13"
   width="5"
   height="5"
   id="rect1401" />
			<rect
   x="173.45"
   y="725.79"
   class="st13"
   width="5"
   height="5"
   id="rect1403" />
			<rect
   x="183.45"
   y="725.79"
   class="st13"
   width="5"
   height="5"
   id="rect1405" />
			<rect
   x="193.45"
   y="725.79"
   class="st13"
   width="5"
   height="5"
   id="rect1407" />
			<rect
   x="108.45"
   y="735.79"
   class="st13"
   width="5"
   height="5"
   id="rect1409" />
			<rect
   x="118.45"
   y="735.79"
   class="st13"
   width="5"
   height="5"
   id="rect1411" />
			<rect
   x="128.45"
   y="735.79"
   class="st13"
   width="5"
   height="5"
   id="rect1413" />
			<rect
   x="138.45"
   y="735.79"
   class="st13"
   width="5"
   height="5"
   id="rect1415" />
			<rect
   x="148.45"
   y="735.79"
   class="st13"
   width="5"
   height="5"
   id="rect1417" />
			<rect
   x="158.45"
   y="735.79"
   class="st13"
   width="5"
   height="5"
   id="rect1419" />
			<rect
   x="168.45"
   y="735.79"
   class="st13"
   width="5"
   height="5"
   id="rect1421" />
			<rect
   x="178.45"
   y="735.79"
   class="st13"
   width="5"
   height="5"
   id="rect1423" />
			<rect
   x="188.45"
   y="735.79"
   class="st13"
   width="5"
   height="5"
   id="rect1425" />
			<rect
   x="103.45"
   y="745.79"
   class="st13"
   width="5"
   height="5"
   id="rect1427" />
			<rect
   x="113.45"
   y="745.79"
   class="st13"
   width="5"
   height="5"
   id="rect1429" />
			<rect
   x="123.45"
   y="745.79"
   class="st13"
   width="5"
   height="5"
   id="rect1431" />
			<rect
   x="133.45"
   y="745.79"
   class="st13"
   width="5"
   height="5"
   id="rect1433" />
			<rect
   x="143.45"
   y="745.79"
   class="st13"
   width="5"
   height="5"
   id="rect1435" />
			<rect
   x="153.45"
   y="745.79"
   class="st13"
   width="5"
   height="5"
   id="rect1437" />
			<rect
   x="163.45"
   y="745.79"
   class="st13"
   width="5"
   height="5"
   id="rect1439" />
			<rect
   x="173.45"
   y="745.79"
   class="st13"
   width="5"
   height="5"
   id="rect1441" />
			<rect
   x="183.45"
   y="745.79"
   class="st13"
   width="5"
   height="5"
   id="rect1443" />
			<rect
   x="193.45"
   y="745.79"
   class="st13"
   width="5"
   height="5"
   id="rect1445" />
			<rect
   x="108.45"
   y="755.79"
   class="st13"
   width="5"
   height="5"
   id="rect1447" />
			<rect
   x="118.45"
   y="755.79"
   class="st13"
   width="5"
   height="5"
   id="rect1449" />
			<rect
   x="128.45"
   y="755.79"
   class="st13"
   width="5"
   height="5"
   id="rect1451" />
			<rect
   x="138.45"
   y="755.79"
   class="st13"
   width="5"
   height="5"
   id="rect1453" />
			<rect
   x="148.45"
   y="755.79"
   class="st13"
   width="5"
   height="5"
   id="rect1455" />
			<rect
   x="158.45"
   y="755.79"
   class="st13"
   width="5"
   height="5"
   id="rect1457" />
			<rect
   x="168.45"
   y="755.79"
   class="st13"
   width="5"
   height="5"
   id="rect1459" />
			<rect
   x="178.45"
   y="755.79"
   class="st13"
   width="5"
   height="5"
   id="rect1461" />
			<rect
   x="188.45"
   y="755.79"
   class="st13"
   width="5"
   height="5"
   id="rect1463" />
			<rect
   x="103.45"
   y="765.79"
   class="st13"
   width="5"
   height="5"
   id="rect1465" />
			<rect
   x="113.45"
   y="765.79"
   class="st13"
   width="5"
   height="5"
   id="rect1467" />
			<rect
   x="123.45"
   y="765.79"
   class="st13"
   width="5"
   height="5"
   id="rect1469" />
			<rect
   x="133.45"
   y="765.79"
   class="st13"
   width="5"
   height="5"
   id="rect1471" />
			<rect
   x="143.45"
   y="765.79"
   class="st13"
   width="5"
   height="5"
   id="rect1473" />
			<rect
   x="153.45"
   y="765.79"
   class="st13"
   width="5"
   height="5"
   id="rect1475" />
			<rect
   x="163.45"
   y="765.79"
   class="st13"
   width="5"
   height="5"
   id="rect1477" />
			<rect
   x="173.45"
   y="765.79"
   class="st13"
   width="5"
   height="5"
   id="rect1479" />
			<rect
   x="183.45"
   y="765.79"
   class="st13"
   width="5"
   height="5"
   id="rect1481" />
			<rect
   x="193.45"
   y="765.79"
   class="st13"
   width="5"
   height="5"
   id="rect1483" />
		</g>
		<rect
   x="310.95"
   y="722.73"
   class="st10"
   width="12.5"
   height="50"
   id="rect1487" />
		<path
   class="st14"
   d="M317.2,747.76L317.2,747.76c-2.07,0-3.75-1.68-3.75-3.75v-15.03c0-2.07,1.68-3.75,3.75-3.75l0,0    c2.07,0,3.75,1.68,3.75,3.75v15.03C320.95,746.08,319.27,747.76,317.2,747.76z"
   id="path1489" />
		<circle
   class="st0"
   cx="317.2"
   cy="765.79"
   r="4"
   id="circle1491" />
		<circle
   cx="317.2"
   cy="729.23"
   r="2.5"
   id="circle1493" />
	</g>
	<circle
   id="Ellipse_257_00000165201766281734482540000017055063464670298782_"
   cx="623.08"
   cy="290.98"
   r="5"
   fill="#999" />
	<circle
   id="Ellipse_257_00000009587945019429907930000014801166142955339659_"
   cx="623.08"
   cy="115.84"
   r="5"
   fill="#999" />
	<path
   class="st18"
   d="m 531.91802,310.29522 h -190 c -5.52,0 -10,-6.10527 -10,-13.62783 v -183.9757 c 0,-7.52256 4.48,-13.62783 10,-13.62783 h 190 c 5.52,0 10,6.10527 10,13.62783 v 183.9757 c 0,7.53619 -4.48,13.62783 -10,13.62783 z"
   id="path1499"
   style="stroke-width:1.16738" />
	
	<g
   class="st16"
   id="g1551"
   transform="translate(6.2367786,-95.48927)">
		<path
   class="st0"
   d="m 354.36,291.45 h 2.45 v 1.62 c 0.81,-1.29 2.47,-1.99 4.14,-1.99 3.33,0 6.16,2.55 6.16,6.44 0,3.86 -2.83,6.44 -6.16,6.44 -1.67,0 -3.33,-0.76 -4.14,-2.04 v 7.47 h -2.45 z m 10.29,6.05 c 0,-2.4 -1.51,-4.29 -3.96,-4.29 -2.27,0 -3.89,1.79 -3.89,4.29 0,2.5 1.62,4.29 3.89,4.29 2.45,0 3.96,-1.89 3.96,-4.29 z"
   id="path1527" />
		<path
   class="st0"
   d="m 381.36,301.34 v 2.22 h -0.56 c -1.97,0 -2.85,-0.48 -3.13,-1.74 -0.68,1.24 -2.47,2.12 -4.19,2.12 -2.37,0 -4.21,-1.29 -4.21,-3.61 0,-3.23 4.09,-3.99 7.92,-4.64 -0.05,-1.72 -1.08,-2.6 -2.6,-2.6 -1.56,0 -2.78,0.78 -3.23,2.47 L 369.24,295 c 0.83,-2.9 3.26,-3.94 5.53,-3.94 2.68,0 4.85,1.67 4.85,4.8 v 4.32 c 0,0.88 0.05,1.16 1.19,1.16 z m -4.16,-3.91 c -2.73,0.43 -5.48,0.91 -5.48,2.7 0,1.29 0.93,1.84 2.2,1.84 2.22,0 3.28,-1.56 3.28,-3.68 z"
   id="path1529" />
		<path
   class="st0"
   d="m 395.27,291.45 -7.52,17.92 h -2.6 l 2.5,-5.78 -5.27,-12.14 h 2.65 l 3.86,9.39 3.73,-9.39 z"
   id="path1531" />
		<path
   class="st0"
   d="m 397.42,291.45 h 2.45 v 1.62 c 0.81,-1.29 2.47,-1.99 4.14,-1.99 3.33,0 6.16,2.55 6.16,6.44 0,3.86 -2.83,6.44 -6.16,6.44 -1.67,0 -3.33,-0.76 -4.14,-2.04 v 7.47 h -2.45 z m 10.3,6.05 c 0,-2.4 -1.51,-4.29 -3.96,-4.29 -2.27,0 -3.89,1.79 -3.89,4.29 0,2.5 1.62,4.29 3.89,4.29 2.44,0 3.96,-1.89 3.96,-4.29 z"
   id="path1533" />
		<path
   class="st0"
   d="m 424.43,301.34 v 2.22 h -0.56 c -1.97,0 -2.85,-0.48 -3.13,-1.74 -0.68,1.24 -2.47,2.12 -4.19,2.12 -2.37,0 -4.21,-1.29 -4.21,-3.61 0,-3.23 4.09,-3.99 7.92,-4.64 -0.05,-1.72 -1.09,-2.6 -2.6,-2.6 -1.56,0 -2.78,0.78 -3.23,2.47 L 412.31,295 c 0.83,-2.9 3.26,-3.94 5.53,-3.94 2.67,0 4.85,1.67 4.85,4.8 v 4.32 c 0,0.88 0.05,1.16 1.19,1.16 z m -4.17,-3.91 c -2.73,0.43 -5.48,0.91 -5.48,2.7 0,1.29 0.93,1.84 2.2,1.84 2.22,0 3.28,-1.56 3.28,-3.68 z"
   id="path1535" />
		<path
   class="st0"
   d="m 427.21,300.08 v -14.44 h 2.45 v 14.41 c 0,0.88 0.28,1.29 1.06,1.29 h 0.98 v 2.22 h -1.21 c -2.1,0 -3.28,-1.31 -3.28,-3.48 z"
   id="path1537" />
		<path
   class="st0"
   d="m 444.44,295.26 v 2.22 h -10.1 v -2.22 z"
   id="path1539" />
		<path
   class="st0"
   d="m 447.25,300.43 2.3,-0.61 c 0.3,1.24 1.14,2.09 2.6,2.09 1.51,0 2.5,-0.68 2.5,-1.82 0,-2.6 -6.92,-1.08 -6.92,-5.25 0,-2.2 1.89,-3.79 4.42,-3.79 2.09,0 3.51,0.93 4.42,2.57 l -1.97,0.96 c -0.53,-0.93 -1.26,-1.51 -2.47,-1.51 -1.29,0 -1.99,0.71 -1.99,1.54 0,2.32 6.94,0.81 6.94,5.35 0,2.32 -1.94,3.96 -4.95,3.96 -2.61,0.02 -4.35,-1.37 -4.88,-3.49 z"
   id="path1541" />
		<path
   class="st0"
   d="m 478.49,296.24 v 7.32 h -2.42 v -6.92 c 0,-2.45 -0.96,-3.33 -2.57,-3.33 -1.64,0 -2.98,1.21 -2.98,3.38 v 6.87 h -2.42 v -6.92 c 0,-2.45 -0.96,-3.33 -2.57,-3.33 -1.74,0 -2.98,1.39 -2.98,3.66 v 6.59 h -2.45 v -12.11 h 2.45 v 1.64 c 0.76,-1.26 2.02,-2.02 3.46,-2.02 1.89,0 3.26,0.68 3.94,2.25 0.88,-1.62 2.37,-2.25 4.04,-2.25 2.76,0 4.5,1.76 4.5,5.17 z"
   id="path1543" />
		<path
   class="st0"
   d="m 493.39,301.34 v 2.22 h -0.56 c -1.97,0 -2.85,-0.48 -3.13,-1.74 -0.68,1.24 -2.47,2.12 -4.19,2.12 -2.37,0 -4.21,-1.29 -4.21,-3.61 0,-3.23 4.09,-3.99 7.92,-4.64 -0.05,-1.72 -1.08,-2.6 -2.6,-2.6 -1.56,0 -2.78,0.78 -3.23,2.47 L 481.27,295 c 0.83,-2.9 3.26,-3.94 5.53,-3.94 2.68,0 4.85,1.67 4.85,4.8 v 4.32 c 0,0.88 0.05,1.16 1.19,1.16 z m -4.17,-3.91 c -2.73,0.43 -5.48,0.91 -5.48,2.7 0,1.29 0.93,1.84 2.2,1.84 2.22,0 3.28,-1.56 3.28,-3.68 z"
   id="path1545" />
		<path
   class="st0"
   d="m 502.7,291.45 v 2.25 c -2.83,0 -4.09,1.64 -4.09,3.86 v 6.01 h -2.42 v -12.11 h 2.42 v 2.15 c 0.89,-1.36 2.33,-2.16 4.09,-2.16 z"
   id="path1547" />
		<path
   class="st0"
   d="m 509.44,293.52 v 6.51 c 0,0.88 0.25,1.31 1.24,1.31 h 1.62 v 2.22 h -1.67 c -2.45,0 -3.61,-1.39 -3.61,-3.58 v -6.46 h -2.62 v -2.07 h 2.62 v -3.58 l 2.42,-0.63 v 4.21 h 3.36 v 2.07 z"
   id="path1549" />
	</g>
	<g
   class="st16"
   id="g1565"
   transform="translate(6.2367786,-95.48927)">
		<path
   class="st0"
   d="m 408.37,326.24 v 7.32 h -2.42 v -6.92 c 0,-2.45 -0.96,-3.33 -2.57,-3.33 -1.64,0 -2.98,1.21 -2.98,3.38 v 6.87 h -2.42 v -6.92 c 0,-2.45 -0.96,-3.33 -2.57,-3.33 -1.74,0 -2.98,1.39 -2.98,3.66 v 6.59 h -2.45 v -12.11 h 2.45 v 1.64 c 0.76,-1.26 2.02,-2.02 3.46,-2.02 1.89,0 3.26,0.68 3.94,2.25 0.88,-1.62 2.37,-2.25 4.04,-2.25 2.76,0 4.5,1.76 4.5,5.17 z"
   id="path1553" />
		<path
   class="st0"
   d="m 410.9,327.5 c 0,-3.61 2.75,-6.44 6.51,-6.44 3.76,0 6.49,2.83 6.49,6.44 0,3.58 -2.73,6.44 -6.49,6.44 -3.76,0 -6.51,-2.85 -6.51,-6.44 z m 10.53,0 c 0,-2.42 -1.56,-4.29 -4.01,-4.29 -2.37,0 -4.04,1.87 -4.04,4.29 0,2.4 1.64,4.29 4.04,4.29 2.44,0 4.01,-1.89 4.01,-4.29 z"
   id="path1555" />
		<path
   class="st0"
   d="m 425.92,327.5 c 0,-3.89 2.83,-6.44 6.18,-6.44 1.67,0 3.31,0.73 4.14,2.02 v -7.45 h 2.42 v 17.92 h -2.42 v -1.64 c -0.83,1.29 -2.47,2.02 -4.14,2.02 -3.35,0.01 -6.18,-2.57 -6.18,-6.43 z m 10.32,0 c 0,-2.5 -1.62,-4.29 -3.89,-4.29 -2.45,0 -3.96,1.89 -3.96,4.29 0,2.4 1.51,4.29 3.96,4.29 2.28,0 3.89,-1.79 3.89,-4.29 z"
   id="path1557" />
		<path
   class="st0"
   d="m 455.07,331.34 v 2.22 h -0.73 c -1.62,0 -2.3,-0.66 -2.6,-1.87 -0.93,1.41 -2.47,2.25 -4.37,2.25 -3.1,0 -5.17,-1.84 -5.17,-5.53 v -6.97 h 2.45 v 6.61 c 0,2.57 1.19,3.63 3.18,3.63 2.15,0 3.51,-1.57 3.51,-3.86 v -6.38 h 2.42 v 8.61 c 0,0.88 0.05,1.29 0.81,1.29 z"
   id="path1559" />
		<path
   class="st0"
   d="m 458.08,330.08 v -14.44 h 2.45 v 14.41 c 0,0.88 0.28,1.29 1.06,1.29 h 0.98 v 2.22 h -1.21 c -2.09,0 -3.28,-1.31 -3.28,-3.48 z"
   id="path1561" />
		<path
   class="st0"
   d="m 464.21,327.35 c 0,-3.61 2.62,-6.28 6.11,-6.28 3.91,0 6.26,2.78 5.93,6.97 h -9.54 c 0.2,2.52 1.69,3.84 3.68,3.84 1.94,0 3.18,-0.98 3.89,-2.6 l 1.94,0.81 c -0.93,2.27 -3,3.86 -5.83,3.86 -3.8,-0.01 -6.18,-2.94 -6.18,-6.6 z m 9.7,-1.11 c -0.2,-2.2 -1.64,-3.18 -3.58,-3.18 -2.02,0 -3.33,1.41 -3.58,3.18 z"
   id="path1563" />
	</g>
	
	
	<path
   id="Path_3462_00000165920713233271977900000006903424971004251545_"
   class="st15"
   d="M213.45,467.82v31.5" />
	<path
   id="Path_3462_00000065074180766367602140000014565113267985752741_"
   class="st15"
   d="M213.45,401.46v23.87" />
	<circle
   id="Ellipse_257_00000113340180283901434860000002211518731318863538_"
   cx="213.45"
   cy="499.32"
   r="5"
   fill="#999" />
	<path
   id="Path_3462_00000134226853112245125440000010803627581558585755_"
   class="st15"
   d="M 213.45,213.65092 V 327.46" />
	<circle
   id="Ellipse_257_00000152953023932463405920000017383914786144172676_"
   cx="213.45"
   cy="327.46"
   r="5"
   fill="#999" />
	<g
   class="st16"
   id="g1664">
		<path
   d="M0,444.88c0-5.05,4.2-9.34,9.11-9.34c3.74,0,6.88,2.09,8.11,5.3l-2.35,0.78c-0.92-2.37-2.97-3.81-5.76-3.81    c-3.63,0-6.6,3.13-6.6,7.07c0,3.94,2.97,7.07,6.6,7.07c2.71,0,4.61-1.36,5.66-3.51l2.3,0.93c-1.43,3-4.38,4.85-7.96,4.85    C4.2,454.22,0,449.93,0,444.88z"
   id="path1602" />
		<path
   d="M31.62,446.88v6.97h-2.46v-6.64c0-2.5-1.23-3.61-3.25-3.61c-2.15,0-3.53,1.57-3.53,3.86v6.38h-2.48v-17.92h2.48v7.7    c0.82-1.36,2.15-2.27,3.99-2.27C29.55,441.35,31.62,443.17,31.62,446.88z"
   id="path1604" />
		<path
   d="M34.18,447.63c0-3.61,2.66-6.28,6.19-6.28c3.97,0,6.35,2.78,6.01,6.97h-9.67c0.21,2.52,1.71,3.84,3.74,3.84    c1.97,0,3.22-0.98,3.94-2.6l1.97,0.81c-0.95,2.27-3.04,3.86-5.91,3.86C36.59,454.22,34.18,451.29,34.18,447.63z M44.01,446.52    c-0.2-2.2-1.66-3.18-3.63-3.18c-2.05,0-3.38,1.41-3.63,3.18H44.01z"
   id="path1606" />
		<path
   d="M55.04,454.22c-3.76,0-6.55-2.93-6.55-6.59c0-3.61,2.76-6.28,6.58-6.28c2.66,0,4.73,1.34,5.66,3.51l-2.12,0.86    c-0.59-1.44-1.74-2.22-3.53-2.22c-2.43,0-4.07,1.72-4.07,4.14s1.61,4.44,4.04,4.44c1.69,0,2.84-0.83,3.48-2.27l2.1,0.91    C59.64,452.86,57.67,454.22,55.04,454.22z"
   id="path1608" />
		<path
   d="M67.16,448.14l-1.43,1.41v4.29h-2.46v-17.92h2.46v11.03l4.84-5.22h3.15l-4.89,4.79l5.4,7.32h-3.02L67.16,448.14z"
   id="path1610" />
		<path
   d="M75.09,447.79c0-3.61,2.79-6.44,6.6-6.44c3.81,0,6.58,2.83,6.58,6.44c0,3.58-2.76,6.44-6.58,6.44    C77.88,454.22,75.09,451.37,75.09,447.79z M85.76,447.79c0-2.42-1.59-4.29-4.07-4.29c-2.41,0-4.09,1.87-4.09,4.29    c0,2.4,1.66,4.29,4.09,4.29C84.18,452.08,85.76,450.18,85.76,447.79z"
   id="path1612" />
		<path
   d="M104.01,451.62v2.22h-0.74c-1.64,0-2.33-0.66-2.64-1.87c-0.95,1.41-2.51,2.25-4.43,2.25c-3.15,0-5.25-1.84-5.25-5.53    v-6.97h2.48v6.61c0,2.57,1.2,3.63,3.22,3.63c2.17,0,3.56-1.57,3.56-3.86v-6.38h2.46v8.61c0,0.88,0.05,1.29,0.82,1.29H104.01z"
   id="path1614" />
		<path
   d="M110.51,443.8v6.51c0,0.88,0.26,1.31,1.25,1.31h1.64v2.22h-1.69c-2.48,0-3.66-1.39-3.66-3.58v-6.46h-2.66v-2.07h2.66    v-3.58l2.46-0.63v4.21h3.4v2.07H110.51z"
   id="path1616" />
		<path
   d="M121.71,447.79c0-3.89,2.87-6.44,6.27-6.44c1.69,0,3.35,0.73,4.2,2.02v-7.45h2.46v17.92h-2.46v-1.64    c-0.84,1.29-2.51,2.02-4.2,2.02C124.58,454.22,121.71,451.65,121.71,447.79z M132.18,447.79c0-2.5-1.64-4.29-3.94-4.29    c-2.48,0-4.02,1.89-4.02,4.29c0,2.4,1.54,4.29,4.02,4.29C130.54,452.08,132.18,450.29,132.18,447.79z"
   id="path1618" />
		<path
   d="M137.45,447.63c0-3.61,2.66-6.28,6.19-6.28c3.97,0,6.35,2.78,6.01,6.97h-9.67c0.21,2.52,1.71,3.84,3.74,3.84    c1.97,0,3.22-0.98,3.94-2.6l1.97,0.81c-0.95,2.27-3.04,3.86-5.91,3.86C139.85,454.22,137.45,451.29,137.45,447.63z M147.27,446.52    c-0.2-2.2-1.66-3.18-3.63-3.18c-2.05,0-3.38,1.41-3.63,3.18H147.27z"
   id="path1620" />
		<path
   d="M155.97,443.8v6.51c0,0.88,0.26,1.31,1.25,1.31h1.64v2.22h-1.69c-2.48,0-3.66-1.39-3.66-3.58v-6.46h-2.66v-2.07h2.66    v-3.58l2.46-0.63v4.21h3.4v2.07H155.97z"
   id="path1622" />
		<path
   d="M173.7,451.62v2.22h-0.56c-2,0-2.89-0.48-3.17-1.74c-0.69,1.24-2.51,2.12-4.25,2.12c-2.41,0-4.27-1.29-4.27-3.61    c0-3.23,4.15-3.99,8.04-4.64c-0.05-1.72-1.1-2.6-2.64-2.6c-1.59,0-2.81,0.78-3.28,2.47l-2.15-0.56c0.84-2.9,3.3-3.94,5.6-3.94    c2.71,0,4.91,1.67,4.91,4.8v4.32c0,0.88,0.05,1.16,1.2,1.16H173.7z M169.48,447.71c-2.76,0.43-5.55,0.91-5.55,2.7    c0,1.29,0.95,1.84,2.23,1.84c2.25,0,3.33-1.56,3.33-3.68V447.71z"
   id="path1624" />
		<path
   d="M177.97,436.56c0.92,0,1.66,0.71,1.66,1.64c0,0.91-0.77,1.62-1.66,1.62c-0.95,0-1.71-0.71-1.71-1.62    C176.26,437.24,177.03,436.56,177.97,436.56z M179.2,453.84h-2.46v-12.11h2.46V453.84z"
   id="path1626" />
		<path
   d="M183.09,450.36v-14.44h2.48v14.41c0,0.88,0.28,1.29,1.07,1.29h1v2.22h-1.23C184.29,453.84,183.09,452.53,183.09,450.36z"
   id="path1628" />
		<path
   d="M189.72,450.71l2.33-0.61c0.31,1.24,1.15,2.09,2.64,2.09c1.54,0,2.53-0.68,2.53-1.82c0-2.6-7.01-1.08-7.01-5.25    c0-2.2,1.92-3.79,4.48-3.79c2.12,0,3.56,0.93,4.48,2.57l-2,0.96c-0.54-0.93-1.28-1.51-2.51-1.51c-1.31,0-2.02,0.71-2.02,1.54    c0,2.32,7.04,0.81,7.04,5.35c0,2.32-1.97,3.96-5.01,3.96C192.02,454.22,190.25,452.83,189.72,450.71z"
   id="path1630" />
		<path
   d="M210.34,436.56c0.92,0,1.66,0.71,1.66,1.64c0,0.91-0.77,1.62-1.66,1.62c-0.95,0-1.71-0.71-1.71-1.62    C208.62,437.24,209.39,436.56,210.34,436.56z M211.57,453.84h-2.46v-12.11h2.46V453.84z"
   id="path1632" />
		<path
   d="M227.07,446.88v6.97h-2.48v-6.64c0-2.5-1.2-3.61-3.22-3.61c-2.17,0-3.56,1.57-3.56,3.86v6.38h-2.46v-12.11h2.46v1.94    c0.84-1.39,2.17-2.32,4.02-2.32C224.98,441.35,227.07,443.17,227.07,446.88z"
   id="path1634" />
		<path
   d="M236.31,454.22c-3.76,0-6.55-2.93-6.55-6.59c0-3.61,2.76-6.28,6.58-6.28c2.66,0,4.73,1.34,5.66,3.51l-2.12,0.86    c-0.59-1.44-1.74-2.22-3.53-2.22c-2.43,0-4.07,1.72-4.07,4.14s1.61,4.44,4.04,4.44c1.69,0,2.84-0.83,3.48-2.27l2.1,0.91    C240.92,452.86,238.95,454.22,236.31,454.22z"
   id="path1636" />
		<path
   d="M244.67,450.36v-14.44h2.48v14.41c0,0.88,0.28,1.29,1.07,1.29h1v2.22H248C245.88,453.84,244.67,452.53,244.67,450.36z"
   id="path1638" />
		<path
   d="M252.99,450.97c0.92,0,1.66,0.71,1.66,1.64c0,0.91-0.77,1.62-1.66,1.62c-0.95,0-1.71-0.71-1.71-1.62    C251.28,451.65,252.04,450.97,252.99,450.97z"
   id="path1640" />
		<path
   d="M276.38,441.5c0,3.38-2.58,5.53-6.12,5.53h-4.04v6.81h-2.48v-17.92h6.53C273.77,435.92,276.38,438.1,276.38,441.5z     M273.89,441.48c0-2.17-1.59-3.33-3.89-3.33h-3.79v6.69h3.86C272.36,444.83,273.89,443.65,273.89,441.48z"
   id="path1642" />
		<path
   d="M289.94,451.62v2.22h-0.56c-2,0-2.89-0.48-3.17-1.74c-0.69,1.24-2.51,2.12-4.25,2.12c-2.41,0-4.27-1.29-4.27-3.61    c0-3.23,4.15-3.99,8.04-4.64c-0.05-1.72-1.1-2.6-2.64-2.6c-1.59,0-2.81,0.78-3.28,2.47l-2.15-0.56c0.84-2.9,3.3-3.94,5.6-3.94    c2.71,0,4.91,1.67,4.91,4.8v4.32c0,0.88,0.05,1.16,1.2,1.16H289.94z M285.71,447.71c-2.76,0.43-5.55,0.91-5.55,2.7    c0,1.29,0.95,1.84,2.23,1.84c2.25,0,3.33-1.56,3.33-3.68V447.71z"
   id="path1644" />
		<path
   d="M304.04,441.73l-7.63,17.92h-2.64l2.53-5.78l-5.35-12.14h2.69l3.92,9.39l3.79-9.39H304.04z"
   id="path1646" />
		<path
   d="M319.11,441.5c0,3.38-2.58,5.53-6.12,5.53h-4.04v6.81h-2.48v-17.92h6.53C316.5,435.92,319.11,438.1,319.11,441.5z     M316.62,441.48c0-2.17-1.59-3.33-3.89-3.33h-3.79v6.69h3.86C315.09,444.83,316.62,443.65,316.62,441.48z"
   id="path1648" />
		<path
   d="M332.67,451.62v2.22h-0.56c-2,0-2.89-0.48-3.17-1.74c-0.69,1.24-2.51,2.12-4.25,2.12c-2.41,0-4.27-1.29-4.27-3.61    c0-3.23,4.15-3.99,8.04-4.64c-0.05-1.72-1.1-2.6-2.64-2.6c-1.59,0-2.81,0.78-3.28,2.47l-2.15-0.56c0.84-2.9,3.3-3.94,5.6-3.94    c2.71,0,4.91,1.67,4.91,4.8v4.32c0,0.88,0.05,1.16,1.2,1.16H332.67z M328.44,447.71c-2.76,0.43-5.55,0.91-5.55,2.7    c0,1.29,0.95,1.84,2.23,1.84c2.25,0,3.33-1.56,3.33-3.68V447.71z"
   id="path1650" />
		<path
   d="M335.48,450.36v-14.44h2.48v14.41c0,0.88,0.28,1.29,1.07,1.29h1v2.22h-1.23C336.68,453.84,335.48,452.53,335.48,450.36z"
   id="path1652" />
		<path
   d="M363.06,435.92v17.92h-2.3l-9.42-13.63v13.63h-2.48v-17.92h2.33l9.42,13.63v-13.63H363.06z"
   id="path1654" />
		<path
   d="M365.87,447.79c0-3.61,2.79-6.44,6.6-6.44c3.81,0,6.58,2.83,6.58,6.44c0,3.58-2.76,6.44-6.58,6.44    C368.66,454.22,365.87,451.37,365.87,447.79z M376.54,447.79c0-2.42-1.59-4.29-4.07-4.29c-2.41,0-4.09,1.87-4.09,4.29    c0,2.4,1.66,4.29,4.09,4.29C374.96,452.08,376.54,450.18,376.54,447.79z"
   id="path1656" />
		<path
   d="M393.48,446.88v6.97H391v-6.64c0-2.5-1.2-3.61-3.22-3.61c-2.17,0-3.56,1.57-3.56,3.86v6.38h-2.46v-12.11h2.46v1.94    c0.84-1.39,2.17-2.32,4.02-2.32C391.38,441.35,393.48,443.17,393.48,446.88z"
   id="path1658" />
		<path
   d="M402.72,454.22c-3.76,0-6.55-2.93-6.55-6.59c0-3.61,2.76-6.28,6.58-6.28c2.66,0,4.73,1.34,5.66,3.51l-2.12,0.86    c-0.59-1.44-1.74-2.22-3.53-2.22c-2.43,0-4.07,1.72-4.07,4.14s1.61,4.44,4.04,4.44c1.69,0,2.84-0.83,3.48-2.27l2.1,0.91    C407.32,452.86,405.35,454.22,402.72,454.22z"
   id="path1660" />
		<path
   d="M410.32,447.63c0-3.61,2.66-6.28,6.19-6.28c3.97,0,6.35,2.78,6.01,6.97h-9.67c0.21,2.52,1.71,3.84,3.74,3.84    c1.97,0,3.22-0.98,3.94-2.6l1.97,0.81c-0.95,2.27-3.04,3.86-5.91,3.86C412.72,454.22,410.32,451.29,410.32,447.63z M420.14,446.52    c-0.21-2.2-1.66-3.18-3.63-3.18c-2.05,0-3.38,1.41-3.63,3.18H420.14z"
   id="path1662" />
	</g>
	<path
   id="Path_3462_00000108307091847415578090000014300718809763470006_"
   class="st17"
   d="M373.08,710.23h250" />
	<circle
   id="Ellipse_257_00000086659933274238817250000008427234572796121784_"
   cx="623.08"
   cy="710.23"
   r="5"
   fill="#999" />
	<g
   class="st16"
   id="g1690">
		<path
   d="M430.61,735.89c0,3.38-2.58,5.53-6.12,5.53h-4.04v6.81h-2.48v-17.92h6.53C428,730.31,430.61,732.48,430.61,735.89z     M428.13,735.87c0-2.17-1.59-3.33-3.89-3.33h-3.79v6.69h3.86C426.59,739.22,428.13,738.04,428.13,735.87z"
   id="path1668" />
		<path
   d="M444.17,746.01v2.22h-0.56c-2,0-2.89-0.48-3.17-1.74c-0.69,1.24-2.51,2.12-4.25,2.12c-2.41,0-4.27-1.29-4.27-3.61    c0-3.23,4.15-3.99,8.04-4.64c-0.05-1.72-1.1-2.6-2.64-2.6c-1.59,0-2.81,0.78-3.28,2.47l-2.15-0.56c0.84-2.9,3.3-3.94,5.6-3.94    c2.71,0,4.91,1.67,4.91,4.8v4.32c0,0.88,0.05,1.16,1.2,1.16H444.17z M439.95,742.1c-2.76,0.43-5.55,0.91-5.55,2.7    c0,1.29,0.95,1.84,2.23,1.84c2.25,0,3.33-1.56,3.33-3.68V742.1z"
   id="path1670" />
		<path
   d="M458.27,736.12l-7.63,17.92h-2.64l2.53-5.78l-5.35-12.14h2.69l3.92,9.39l3.79-9.39H458.27z"
   id="path1672" />
		<path
   d="M473.34,735.89c0,3.38-2.58,5.53-6.12,5.53h-4.04v6.81h-2.48v-17.92h6.53C470.73,730.31,473.34,732.48,473.34,735.89z     M470.86,735.87c0-2.17-1.59-3.33-3.89-3.33h-3.79v6.69h3.86C469.32,739.22,470.86,738.04,470.86,735.87z"
   id="path1674" />
		<path
   d="M486.9,746.01v2.22h-0.56c-2,0-2.89-0.48-3.17-1.74c-0.69,1.24-2.51,2.12-4.25,2.12c-2.41,0-4.27-1.29-4.27-3.61    c0-3.23,4.15-3.99,8.04-4.64c-0.05-1.72-1.1-2.6-2.64-2.6c-1.59,0-2.81,0.78-3.28,2.47l-2.15-0.56c0.84-2.9,3.3-3.94,5.6-3.94    c2.71,0,4.91,1.67,4.91,4.8v4.32c0,0.88,0.05,1.16,1.2,1.16H486.9z M482.68,742.1c-2.76,0.43-5.55,0.91-5.55,2.7    c0,1.29,0.95,1.84,2.23,1.84c2.25,0,3.33-1.56,3.33-3.68V742.1z"
   id="path1676" />
		<path
   d="M489.71,744.75v-14.44h2.48v14.41c0,0.88,0.28,1.29,1.07,1.29h1v2.22h-1.23C490.92,748.23,489.71,746.92,489.71,744.75z"
   id="path1678" />
		<path
   d="M517.3,730.31v17.92h-2.3l-9.42-13.63v13.63h-2.48v-17.92h2.33l9.42,13.63v-13.63H517.3z"
   id="path1680" />
		<path
   d="M520.11,742.18c0-3.61,2.79-6.44,6.6-6.44c3.81,0,6.58,2.83,6.58,6.44c0,3.58-2.76,6.44-6.58,6.44    C522.9,748.61,520.11,745.76,520.11,742.18z M530.78,742.18c0-2.42-1.59-4.29-4.07-4.29c-2.41,0-4.09,1.87-4.09,4.29    c0,2.4,1.66,4.29,4.09,4.29C529.19,746.47,530.78,744.57,530.78,742.18z"
   id="path1682" />
		<path
   d="M547.72,741.27v6.97h-2.48v-6.64c0-2.5-1.2-3.61-3.22-3.61c-2.17,0-3.56,1.57-3.56,3.86v6.38H536v-12.11h2.46v1.94    c0.84-1.39,2.17-2.32,4.02-2.32C545.62,735.74,547.72,737.56,547.72,741.27z"
   id="path1684" />
		<path
   d="M556.95,748.61c-3.76,0-6.55-2.93-6.55-6.59c0-3.61,2.76-6.28,6.58-6.28c2.66,0,4.73,1.34,5.66,3.51l-2.12,0.86    c-0.59-1.44-1.74-2.22-3.53-2.22c-2.43,0-4.07,1.72-4.07,4.14s1.61,4.44,4.04,4.44c1.69,0,2.84-0.83,3.48-2.27l2.1,0.91    C561.56,747.25,559.59,748.61,556.95,748.61z"
   id="path1686" />
		<path
   d="M564.55,742.02c0-3.61,2.66-6.28,6.19-6.28c3.97,0,6.35,2.78,6.01,6.97h-9.67c0.21,2.52,1.71,3.84,3.74,3.84    c1.97,0,3.22-0.98,3.94-2.6l1.97,0.81c-0.95,2.27-3.04,3.86-5.91,3.86C566.96,748.61,564.55,745.68,564.55,742.02z M574.38,740.91    c-0.2-2.2-1.66-3.18-3.63-3.18c-2.05,0-3.38,1.41-3.63,3.18H574.38z"
   id="path1688" />
	</g>
	<g
   class="st16"
   id="g1706">
		<path
   d="M459.95,765.89c0,3.38-2.58,5.53-6.12,5.53h-4.04v6.81h-2.48v-17.92h6.53C457.34,760.31,459.95,762.48,459.95,765.89z     M457.46,765.87c0-2.17-1.59-3.33-3.89-3.33h-3.79v6.69h3.86C455.93,769.22,457.46,768.04,457.46,765.87z"
   id="path1692" />
		<path
   d="M473.51,776.01v2.22h-0.56c-2,0-2.89-0.48-3.17-1.74c-0.69,1.24-2.51,2.12-4.25,2.12c-2.41,0-4.27-1.29-4.27-3.61    c0-3.23,4.15-3.99,8.04-4.64c-0.05-1.72-1.1-2.6-2.64-2.6c-1.59,0-2.81,0.78-3.28,2.47l-2.15-0.56c0.84-2.9,3.3-3.94,5.6-3.94    c2.71,0,4.91,1.67,4.91,4.8v4.32c0,0.88,0.05,1.16,1.2,1.16H473.51z M469.28,772.1c-2.76,0.43-5.55,0.91-5.55,2.7    c0,1.29,0.95,1.84,2.23,1.84c2.25,0,3.33-1.56,3.33-3.68V772.1z"
   id="path1694" />
		<path
   d="M487.6,766.12l-7.63,17.92h-2.64l2.53-5.78l-5.35-12.14h2.69l3.92,9.39l3.79-9.39H487.6z"
   id="path1696" />
		<path
   d="M508.94,770.91v7.32h-2.46v-6.92c0-2.45-0.97-3.33-2.61-3.33c-1.66,0-3.02,1.21-3.02,3.38v6.87h-2.46v-6.92    c0-2.45-0.97-3.33-2.61-3.33c-1.77,0-3.02,1.39-3.02,3.66v6.59h-2.48v-12.11h2.48v1.64c0.77-1.26,2.05-2.02,3.51-2.02    c1.92,0,3.3,0.68,3.99,2.25c0.9-1.62,2.41-2.25,4.09-2.25C507.18,765.74,508.94,767.51,508.94,770.91z"
   id="path1698" />
		<path
   d="M511.5,772.02c0-3.61,2.66-6.28,6.19-6.28c3.97,0,6.35,2.78,6.01,6.97h-9.67c0.21,2.52,1.71,3.84,3.74,3.84    c1.97,0,3.22-0.98,3.94-2.6l1.97,0.81c-0.95,2.27-3.04,3.86-5.91,3.86C513.9,778.61,511.5,775.68,511.5,772.02z M521.33,770.91    c-0.2-2.2-1.66-3.18-3.63-3.18c-2.05,0-3.38,1.41-3.63,3.18H521.33z"
   id="path1700" />
		<path
   d="M538.19,771.27v6.97h-2.48v-6.64c0-2.5-1.2-3.61-3.22-3.61c-2.17,0-3.56,1.57-3.56,3.86v6.38h-2.46v-12.11h2.46v1.94    c0.84-1.39,2.17-2.32,4.02-2.32C536.09,765.74,538.19,767.56,538.19,771.27z"
   id="path1702" />
		<path
   d="M544.46,768.19v6.51c0,0.88,0.26,1.31,1.25,1.31h1.64v2.22h-1.69c-2.48,0-3.66-1.39-3.66-3.58v-6.46h-2.66v-2.07H542    v-3.58l2.46-0.63v4.21h3.4v2.07H544.46z"
   id="path1704" />
	</g>
	<path
   class="st15"
   d="M323.45,80.75h-220c-5.52,0-10-4.48-10-10v-60c0-5.52,4.48-10,10-10h220c5.52,0,10,4.48,10,10v60   C333.45,76.27,328.97,80.75,323.45,80.75z"
   id="path1708" />
	
	<g
   class="st16"
   id="g1760">
		<path
   d="M146.86,355.59c0,3.38-2.55,5.53-6.03,5.53h-3.99v6.81h-2.45v-17.92h6.44C144.29,350.01,146.86,352.18,146.86,355.59z     M144.42,355.56c0-2.17-1.56-3.33-3.84-3.33h-3.74v6.69h3.81C142.9,358.92,144.42,357.73,144.42,355.56z"
   id="path1738" />
		<path
   d="M160.24,365.71v2.22h-0.56c-1.97,0-2.85-0.48-3.13-1.74c-0.68,1.24-2.47,2.12-4.19,2.12c-2.37,0-4.21-1.29-4.21-3.61    c0-3.23,4.09-3.99,7.92-4.64c-0.05-1.72-1.09-2.6-2.6-2.6c-1.56,0-2.78,0.78-3.23,2.47l-2.12-0.56c0.83-2.9,3.26-3.94,5.53-3.94    c2.67,0,4.85,1.67,4.85,4.8v4.32c0,0.88,0.05,1.16,1.19,1.16H160.24z M156.08,361.79c-2.73,0.43-5.48,0.91-5.48,2.7    c0,1.29,0.93,1.84,2.2,1.84c2.22,0,3.28-1.56,3.28-3.68V361.79z"
   id="path1740" />
		<path
   d="M174.15,355.81l-7.52,17.92h-2.6l2.5-5.78l-5.27-12.14h2.65l3.86,9.39l3.73-9.39H174.15z"
   id="path1742" />
		<path
   d="M189.02,355.59c0,3.38-2.55,5.53-6.03,5.53H179v6.81h-2.45v-17.92h6.44C186.44,350.01,189.02,352.18,189.02,355.59z     M186.57,355.56c0-2.17-1.56-3.33-3.84-3.33H179v6.69h3.81C185.06,358.92,186.57,357.73,186.57,355.56z"
   id="path1744" />
		<path
   d="M202.4,365.71v2.22h-0.56c-1.97,0-2.85-0.48-3.13-1.74c-0.68,1.24-2.47,2.12-4.19,2.12c-2.37,0-4.21-1.29-4.21-3.61    c0-3.23,4.09-3.99,7.92-4.64c-0.05-1.72-1.09-2.6-2.6-2.6c-1.56,0-2.78,0.78-3.23,2.47l-2.12-0.56c0.83-2.9,3.26-3.94,5.53-3.94    c2.67,0,4.85,1.67,4.85,4.8v4.32c0,0.88,0.05,1.16,1.19,1.16H202.4z M198.23,361.79c-2.73,0.43-5.48,0.91-5.48,2.7    c0,1.29,0.93,1.84,2.2,1.84c2.22,0,3.28-1.56,3.28-3.68V361.79z"
   id="path1746" />
		<path
   d="M205.18,364.45v-14.44h2.45v14.41c0,0.88,0.28,1.29,1.06,1.29h0.98v2.22h-1.21C206.36,367.93,205.18,366.62,205.18,364.45    z"
   id="path1748" />
		<path
   d="M232.39,350.01v17.92h-2.27l-9.29-13.63v13.63h-2.45v-17.92h2.3l9.29,13.63v-13.63H232.39z"
   id="path1750" />
		<path
   d="M235.16,361.87c0-3.61,2.75-6.44,6.51-6.44c3.76,0,6.49,2.83,6.49,6.44c0,3.58-2.73,6.44-6.49,6.44    C237.92,368.31,235.16,365.45,235.16,361.87z M245.69,361.87c0-2.42-1.56-4.29-4.01-4.29c-2.37,0-4.04,1.87-4.04,4.29    c0,2.4,1.64,4.29,4.04,4.29C244.12,366.16,245.69,364.27,245.69,361.87z"
   id="path1752" />
		<path
   d="M262.4,360.96v6.97h-2.45v-6.64c0-2.5-1.19-3.61-3.18-3.61c-2.15,0-3.51,1.57-3.51,3.86v6.38h-2.42v-12.11h2.42v1.94    c0.83-1.39,2.15-2.32,3.96-2.32C260.33,355.43,262.4,357.25,262.4,360.96z"
   id="path1754" />
		<path
   d="M271.51,368.31c-3.71,0-6.46-2.93-6.46-6.59c0-3.61,2.73-6.28,6.49-6.28c2.62,0,4.67,1.34,5.58,3.51l-2.09,0.86    c-0.58-1.44-1.72-2.22-3.48-2.22c-2.4,0-4.01,1.72-4.01,4.14s1.59,4.44,3.99,4.44c1.67,0,2.8-0.83,3.43-2.27l2.07,0.91    C276.05,366.94,274.11,368.31,271.51,368.31z"
   id="path1756" />
		<path
   d="M279.01,361.72c0-3.61,2.62-6.28,6.11-6.28c3.91,0,6.26,2.78,5.93,6.97h-9.54c0.2,2.52,1.69,3.84,3.68,3.84    c1.94,0,3.18-0.98,3.89-2.6l1.94,0.81c-0.93,2.27-3,3.86-5.83,3.86C281.38,368.31,279.01,365.38,279.01,361.72z M288.7,360.61    c-0.2-2.2-1.64-3.18-3.58-3.18c-2.02,0-3.33,1.41-3.58,3.18H288.7z"
   id="path1758" />
	</g>
	<g
   id="Group_1256_00000105396054086437321860000016415056294506343095_"
   transform="translate(308,-2471)">
		<g
   id="PayPal_00000018937606328637206100000009644979012417418651_"
   transform="translate(1086.176,2772.135)">
			<path
   id="Path_3560_00000147935502755188900750000013014271538760615309_"
   class="st5"
   d="m -1164.23,-110.56 c 1.79,0 3.44,0.97 3.21,3.39 -0.27,2.87 -1.81,4.46 -4.24,4.47 h -2.12 c -0.3,0 -0.45,0.25 -0.53,0.76 l -0.41,2.61 c -0.06,0.39 -0.26,0.59 -0.56,0.59 h -1.97 c -0.32,0 -0.42,-0.2 -0.35,-0.65 l 1.63,-10.45 c 0.08,-0.51 0.27,-0.71 0.63,-0.71 z m -3.22,5.6 h 1.61 c 1.01,-0.04 1.68,-0.73 1.74,-1.99 0.07,-0.67 -0.42,-1.26 -1.08,-1.33 -0.08,-0.01 -0.15,-0.01 -0.23,0 l -1.51,0.01 z m 11.79,5.41 c 0.18,-0.17 0.36,-0.25 0.34,-0.05 l -0.06,0.48 c -0.03,0.25 0.07,0.39 0.3,0.39 h 1.75 c 0.3,0 0.44,-0.12 0.51,-0.58 l 1.08,-6.78 c 0.05,-0.34 -0.03,-0.51 -0.29,-0.51 h -1.93 c -0.17,0 -0.26,0.09 -0.3,0.36 l -0.07,0.42 c -0.04,0.22 -0.14,0.26 -0.23,0.04 -0.33,-0.77 -1.16,-1.12 -2.33,-1.09 -2.59,0.06 -4.68,2.15 -4.72,4.74 -0.21,1.79 1.08,3.41 2.87,3.61 0.12,0.01 0.24,0.02 0.36,0.02 1.02,0.07 2.02,-0.31 2.72,-1.05 z m -1.47,-1.04 c -0.97,0.04 -1.79,-0.72 -1.83,-1.69 -0.01,-0.13 0,-0.25 0.03,-0.38 0.21,-1.18 1.23,-2.04 2.42,-2.06 0.97,-0.04 1.79,0.72 1.83,1.69 0.01,0.13 0,0.25 -0.02,0.38 -0.22,1.17 -1.23,2.03 -2.43,2.06 z m 8.82,-6.02 h -1.78 c -0.37,0 -0.52,0.27 -0.4,0.61 l 2.21,6.46 -2.16,3.07 c -0.19,0.26 -0.04,0.49 0.21,0.49 h 2 c 0.24,0.03 0.47,-0.09 0.59,-0.29 l 6.79,-9.74 c 0.21,-0.3 0.11,-0.61 -0.23,-0.61 h -1.89 c -0.32,0 -0.45,0.13 -0.64,0.4 l -2.83,4.1 -1.26,-4.11 c -0.08,-0.26 -0.34,-0.42 -0.61,-0.38 z" />
			<path
   id="Path_3561_00000057111819612211932410000000033087235480262033_"
   class="st6"
   d="m -1133.78,-110.56 c 1.79,0 3.44,0.97 3.21,3.39 -0.27,2.87 -1.81,4.47 -4.24,4.47 h -2.12 c -0.3,0 -0.45,0.25 -0.53,0.76 l -0.41,2.61 c -0.06,0.39 -0.26,0.59 -0.56,0.59 h -1.97 c -0.32,0 -0.42,-0.2 -0.35,-0.65 l 1.63,-10.45 c 0.08,-0.51 0.27,-0.71 0.62,-0.71 z m -3.22,5.6 h 1.61 c 1.01,-0.04 1.68,-0.73 1.74,-1.99 0.07,-0.67 -0.42,-1.26 -1.08,-1.33 -0.08,-0.01 -0.15,-0.01 -0.23,0 l -1.51,0.01 z m 11.79,5.41 c 0.18,-0.17 0.36,-0.25 0.34,-0.05 l -0.06,0.48 c -0.03,0.25 0.07,0.39 0.3,0.39 h 1.75 c 0.3,0 0.44,-0.12 0.51,-0.58 l 1.08,-6.78 c 0.05,-0.34 -0.03,-0.51 -0.29,-0.51 h -1.92 c -0.17,0 -0.26,0.09 -0.3,0.36 l -0.07,0.42 c -0.04,0.22 -0.14,0.26 -0.23,0.04 -0.33,-0.77 -1.16,-1.12 -2.33,-1.09 -2.59,0.06 -4.68,2.15 -4.72,4.74 -0.21,1.79 1.08,3.41 2.87,3.61 0.12,0.01 0.24,0.02 0.36,0.02 1.01,0.07 2.01,-0.31 2.71,-1.05 z m -1.47,-1.04 c -0.97,0.04 -1.79,-0.72 -1.83,-1.69 -0.01,-0.13 0,-0.25 0.03,-0.38 0.21,-1.18 1.23,-2.04 2.42,-2.06 0.97,-0.04 1.79,0.72 1.83,1.69 0.01,0.13 0,0.25 -0.03,0.38 -0.21,1.17 -1.22,2.03 -2.42,2.06 z m 8.09,1.88 h -2.02 c -0.13,0.01 -0.24,-0.1 -0.25,-0.23 0,-0.02 0,-0.03 0,-0.05 l 1.78,-11.26 c 0.03,-0.16 0.17,-0.27 0.34,-0.27 h 2.02 c 0.13,0 0.24,0.1 0.25,0.23 0,0.01 0,0.03 0,0.04 l -1.78,11.26 c -0.04,0.16 -0.18,0.28 -0.34,0.28 z" />
		</g>
	</g>
	<g
   class="st16"
   id="g1790"
   transform="translate(0,-90)">
		<path
   d="m 147.6,287.2 c 0,-1.94 1.59,-3.59 3.45,-3.59 1.42,0 2.61,0.81 3.08,2.04 l -0.89,0.3 c -0.35,-0.91 -1.13,-1.46 -2.18,-1.46 -1.38,0 -2.5,1.2 -2.5,2.72 0,1.52 1.13,2.72 2.5,2.72 1.03,0 1.75,-0.52 2.15,-1.35 l 0.87,0.36 c -0.54,1.16 -1.66,1.86 -3.02,1.86 -1.87,-0.01 -3.46,-1.66 -3.46,-3.6 z"
   id="path1766" />
		<path
   d="m 159.59,287.97 v 2.68 h -0.93 v -2.55 c 0,-0.96 -0.47,-1.39 -1.23,-1.39 -0.82,0 -1.34,0.6 -1.34,1.49 v 2.46 h -0.94 v -6.89 h 0.94 v 2.96 c 0.31,-0.52 0.82,-0.87 1.51,-0.87 1.21,-0.01 1.99,0.68 1.99,2.11 z"
   id="path1768" />
		<path
   d="m 160.57,288.26 c 0,-1.39 1.01,-2.42 2.35,-2.42 1.5,0 2.41,1.07 2.28,2.68 h -3.67 c 0.08,0.97 0.65,1.47 1.42,1.47 0.75,0 1.22,-0.38 1.49,-1 l 0.75,0.31 c -0.36,0.87 -1.16,1.48 -2.24,1.48 -1.47,0.01 -2.38,-1.11 -2.38,-2.52 z m 3.72,-0.43 c -0.08,-0.84 -0.63,-1.22 -1.38,-1.22 -0.78,0 -1.28,0.54 -1.38,1.22 z"
   id="path1770" />
		<path
   d="m 168.48,290.79 c -1.43,0 -2.48,-1.13 -2.48,-2.53 0,-1.39 1.05,-2.42 2.49,-2.42 1.01,0 1.8,0.51 2.14,1.35 l -0.81,0.33 c -0.22,-0.55 -0.66,-0.85 -1.34,-0.85 -0.92,0 -1.54,0.66 -1.54,1.59 0,0.93 0.61,1.71 1.53,1.71 0.64,0 1.08,-0.32 1.32,-0.87 l 0.8,0.35 c -0.37,0.82 -1.11,1.34 -2.11,1.34 z"
   id="path1772" />
		<path
   d="m 173.08,288.46 -0.54,0.54 v 1.65 h -0.93 v -6.89 h 0.93 V 288 l 1.83,-2.01 h 1.19 l -1.85,1.84 2.05,2.81 h -1.15 z"
   id="path1774" />
		<path
   d="m 178.71,288.32 c 0,-1.39 1.06,-2.47 2.5,-2.47 1.45,0 2.49,1.09 2.49,2.47 0,1.38 -1.05,2.47 -2.49,2.47 -1.44,0 -2.5,-1.09 -2.5,-2.47 z m 4.05,0 c 0,-0.93 -0.6,-1.65 -1.54,-1.65 -0.91,0 -1.55,0.72 -1.55,1.65 0,0.92 0.63,1.65 1.55,1.65 0.94,0 1.54,-0.73 1.54,-1.65 z"
   id="path1776" />
		<path
   d="m 189.68,289.8 v 0.85 h -0.28 c -0.62,0 -0.88,-0.25 -1,-0.72 -0.36,0.54 -0.95,0.86 -1.68,0.86 -1.19,0 -1.99,-0.71 -1.99,-2.12 v -2.68 h 0.94 v 2.54 c 0,0.99 0.46,1.4 1.22,1.4 0.83,0 1.35,-0.6 1.35,-1.49 v -2.46 h 0.93 v 3.31 c 0,0.34 0.02,0.5 0.31,0.5 h 0.2 z"
   id="path1778" />
		<path
   d="m 192.15,286.79 v 2.5 c 0,0.34 0.1,0.5 0.48,0.5 h 0.62 v 0.85 h -0.64 c -0.94,0 -1.39,-0.53 -1.39,-1.38 v -2.48 h -1.01 v -0.8 h 1.01 v -1.38 l 0.93,-0.24 v 1.62 h 1.29 v 0.8 h -1.29 z"
   id="path1780" />
		<path
   d="m 202.8,285.99 -1.51,4.66 h -0.78 l -1.08,-3.53 -1.08,3.53 h -0.79 l -1.5,-4.66 H 197 l 0.99,3.43 1.04,-3.43 h 0.79 l 1.05,3.43 0.99,-3.43 z"
   id="path1782" />
		<path
   d="m 204.32,284 c 0.35,0 0.63,0.27 0.63,0.63 0,0.35 -0.29,0.62 -0.63,0.62 -0.36,0 -0.65,-0.27 -0.65,-0.62 0,-0.37 0.29,-0.63 0.65,-0.63 z m 0.47,6.65 h -0.93 v -4.66 h 0.93 z"
   id="path1784" />
		<path
   d="m 207.62,286.79 v 2.5 c 0,0.34 0.1,0.5 0.48,0.5 h 0.62 v 0.85 h -0.64 c -0.94,0 -1.39,-0.53 -1.39,-1.38 v -2.48 h -1.01 v -0.8 h 1.01 v -1.38 l 0.93,-0.24 v 1.62 h 1.29 v 0.8 h -1.29 z"
   id="path1786" />
		<path
   d="m 214.23,287.97 v 2.68 h -0.93 v -2.55 c 0,-0.96 -0.47,-1.39 -1.23,-1.39 -0.82,0 -1.34,0.6 -1.34,1.49 v 2.46 h -0.94 v -6.89 h 0.94 v 2.96 c 0.31,-0.52 0.82,-0.87 1.51,-0.87 1.21,-0.01 1.99,0.68 1.99,2.11 z"
   id="path1788" />
	</g>
	
<text
   xml:space="preserve"
   id="text9606"
   style="font-size:26.6667px;font-family:Forth;-inkscape-font-specification:Forth;text-align:center;white-space:pre;shape-inside:url(#rect9608);display:inline;fill:#ffffff;stroke-opacity:0.839216"
   transform="translate(-4,8)"><tspan
     x="124.96743"
     y="38.826769"
     id="tspan10469">Your Client App</tspan></text><g
   id="g1307">
		<path
   class="st15"
   d="M877.71,306.57h-190c-5.52,0-10-4.48-10-10v-70c0-5.52,4.48-10,10-10h190c5.52,0,10,4.48,10,10v70    C887.71,302.09,883.24,306.57,877.71,306.57z"
   id="path1269" />
		
	<text
   xml:space="preserve"
   id="text906"
   style="font-style:normal;font-variant:normal;font-weight:bold;font-stretch:normal;font-size:26.6667px;font-family:Forth;-inkscape-font-specification:'Forth Bold';text-align:center;white-space:pre;shape-inside:url(#rect908);display:inline;fill:#ffffff;stroke-opacity:0.839216"
   transform="translate(49.984466,226.93519)"><tspan
     x="682.28488"
     y="39.402941"
     id="tspan10471">BR-DGE</tspan></text><text
   xml:space="preserve"
   id="text906-0"
   style="font-style:normal;font-variant:normal;font-weight:bold;font-stretch:normal;font-size:26.6667px;font-family:Forth;-inkscape-font-specification:'Forth Bold';text-align:center;white-space:pre;shape-inside:url(#rect908-5);display:inline;fill:#ffffff;stroke-opacity:0.839216"
   transform="translate(-296.23464,140.18722)"><tspan
     x="682.28488"
     y="39.402941"
     id="tspan10473">BR-DGE</tspan></text></g></g>
</svg>
