<?xml version="1.0" encoding="UTF-8" standalone="no"?>
<!-- Generator: Adobe Illustrator 26.0.3, SVG Export Plug-In . SVG Version: 6.00 Build 0)  -->

<svg
   version="1.1"
   id="Layer_1"
   x="0px"
   y="0px"
   viewBox="0 0 891.26 871.23"
   style="enable-background:new 0 0 891.26 871.23;"
   xml:space="preserve"
   sodipodi:docname="comcarde-web-overview.svg"
   inkscape:version="1.2.1 (9c6d41e4, 2022-07-14)"
   xmlns:inkscape="http://www.inkscape.org/namespaces/inkscape"
   xmlns:sodipodi="http://sodipodi.sourceforge.net/DTD/sodipodi-0.dtd"
   xmlns="http://www.w3.org/2000/svg"
   xmlns:svg="http://www.w3.org/2000/svg"><defs
   id="defs4015"><rect
     x="242.72615"
     y="154.12649"
     width="152.28066"
     height="111.67249"
     id="rect4645" /><rect
     x="66.498276"
     y="40.510441"
     width="191.85133"
     height="44.332184"
     id="rect3674" /></defs><sodipodi:namedview
   id="namedview4013"
   pagecolor="#ffffff"
   bordercolor="#000000"
   borderopacity="0.25"
   inkscape:showpageshadow="2"
   inkscape:pageopacity="0.0"
   inkscape:pagecheckerboard="0"
   inkscape:deskcolor="#d1d1d1"
   showgrid="false"
   inkscape:zoom="1.0835256"
   inkscape:cx="245.03343"
   inkscape:cy="441.61393"
   inkscape:window-width="1920"
   inkscape:window-height="1147"
   inkscape:window-x="1512"
   inkscape:window-y="25"
   inkscape:window-maximized="1"
   inkscape:current-layer="g4010" />
<style
   type="text/css"
   id="style3302">
	.st0{fill:#FFFFFF;}
	.st1{fill:#CBCBCB;}
	.st2{fill:#B2B2B2;}
	.st3{enable-background:new    ;}
	.st4{stroke:#999;stroke-width:1.5;}
	.st5{fill:none;stroke:#CCCCCC;stroke-width:2;}
	.st6{fill:none;stroke:#999;stroke-width:1.5;stroke-miterlimit:10;}
	.st7{fill:#ECECEC;}
	.st8{fill:none;stroke:#FFFFFF;stroke-miterlimit:10;}
	.st9{fill:#95DCAB;}
	.st10{fill:#558A72;}
	.st11{fill:#D4D4D4;}
	.st12{fill:#646363;}
	.st13{fill:#FFFFFF;stroke:#999;stroke-width:1.5;stroke-miterlimit:10;}
	.st14{fill:#CCCCCC;}
	.st15{fill:#7BDFA7;}
</style>
<g
   id="g4010">
	
	<g
   id="g3337">
		<path
   id="Path_3462_00000070091789295647624390000001892698918916571534_"
   class="st4"
   d="M161,361.46v137.87" />
	</g>
	<circle
   id="Ellipse_257_00000009587542930075918850000008847067289022542765_"
   cx="161"
   cy="499.32"
   r="5"
   fill="#999" />
	<path
   class="st5"
   d="M291,870.23H31c-16.57,0-30-13.43-30-30v-260c0-16.57,13.43-30,30-30h260c16.57,0,30,13.43,30,30v260   C321,856.8,307.56,870.23,291,870.23z"
   id="path3340" />
	<path
   id="Path_3462_00000173142658572171659630000009495218795520660921_"
   class="st5"
   d="M320.63,660.23h250" />
	<path
   class="st5"
   d="M860.26,747.71h-260c-16.57,0-30-13.43-30-30V194.05c0-16.57,13.43-30,30-30h260c16.57,0,30,13.43,30,30   v523.67C890.26,734.28,876.83,747.71,860.26,747.71z"
   id="path3343" />
	<path
   id="Path_3462_00000014598051878306589610000016281013574551454398_"
   class="st6"
   d="M320.63,251.46h250" />
	<g
   id="g3672">
		<g
   id="g3556">
			<g
   id="g3386">
				<rect
   x="612.76"
   y="544.82"
   class="st7"
   width="235"
   height="65"
   id="rect3346" />
				<rect
   x="620.26"
   y="552.32"
   class="st8"
   width="157.5"
   height="50"
   id="rect3348" />
				<rect
   x="627.76"
   y="557.32"
   class="st9"
   width="5"
   height="40"
   id="rect3350" />
				<rect
   x="640.26"
   y="557.32"
   class="st10"
   width="5"
   height="40"
   id="rect3352" />
				<rect
   x="652.76"
   y="557.32"
   class="st10"
   width="5"
   height="40"
   id="rect3354" />
				<rect
   x="665.26"
   y="557.32"
   class="st10"
   width="5"
   height="40"
   id="rect3356" />
				<rect
   x="677.76"
   y="557.32"
   class="st10"
   width="5"
   height="40"
   id="rect3358" />
				<rect
   x="690.26"
   y="557.32"
   class="st10"
   width="5"
   height="40"
   id="rect3360" />
				<rect
   x="702.76"
   y="557.32"
   class="st10"
   width="5"
   height="40"
   id="rect3362" />
				<rect
   x="715.26"
   y="557.32"
   class="st10"
   width="5"
   height="40"
   id="rect3364" />
				<rect
   x="727.76"
   y="557.32"
   class="st10"
   width="5"
   height="40"
   id="rect3366" />
				<rect
   x="740.26"
   y="557.32"
   class="st10"
   width="5"
   height="40"
   id="rect3368" />
				<rect
   x="752.76"
   y="557.32"
   class="st10"
   width="5"
   height="40"
   id="rect3370" />
				<rect
   x="765.26"
   y="557.32"
   class="st10"
   width="5"
   height="40"
   id="rect3372" />
				<rect
   x="832.76"
   y="552.32"
   class="st10"
   width="7.5"
   height="50"
   id="rect3374" />
				<circle
   class="st0"
   cx="821.26"
   cy="556.32"
   r="4"
   id="circle3376" />
				<circle
   class="st10"
   cx="821.26"
   cy="570.32"
   r="4"
   id="circle3378" />
				<circle
   class="st10"
   cx="821.26"
   cy="598.32"
   r="4"
   id="circle3380" />
				<circle
   class="st9"
   cx="821.26"
   cy="584.32"
   r="4"
   id="circle3382" />
				<rect
   x="620.26"
   y="609.82"
   class="st11"
   width="220"
   height="5"
   id="rect3384" />
			</g>
			<g
   id="g3428">
				<rect
   x="612.76"
   y="474.82"
   class="st7"
   width="235"
   height="65"
   id="rect3388" />
				<rect
   x="620.26"
   y="482.32"
   class="st8"
   width="157.5"
   height="50"
   id="rect3390" />
				<rect
   x="627.76"
   y="487.32"
   class="st10"
   width="5"
   height="40"
   id="rect3392" />
				<rect
   x="640.26"
   y="487.32"
   class="st10"
   width="5"
   height="40"
   id="rect3394" />
				<rect
   x="652.76"
   y="487.32"
   class="st10"
   width="5"
   height="40"
   id="rect3396" />
				<rect
   x="665.26"
   y="487.32"
   class="st10"
   width="5"
   height="40"
   id="rect3398" />
				<rect
   x="677.76"
   y="487.32"
   class="st10"
   width="5"
   height="40"
   id="rect3400" />
				<rect
   x="690.26"
   y="487.32"
   class="st10"
   width="5"
   height="40"
   id="rect3402" />
				<rect
   x="702.76"
   y="487.32"
   class="st10"
   width="5"
   height="40"
   id="rect3404" />
				<rect
   x="715.26"
   y="487.32"
   class="st10"
   width="5"
   height="40"
   id="rect3406" />
				<rect
   x="727.76"
   y="487.32"
   class="st10"
   width="5"
   height="40"
   id="rect3408" />
				<rect
   x="740.26"
   y="487.32"
   class="st10"
   width="5"
   height="40"
   id="rect3410" />
				<rect
   x="752.76"
   y="487.32"
   class="st9"
   width="5"
   height="40"
   id="rect3412" />
				<rect
   x="765.26"
   y="487.32"
   class="st10"
   width="5"
   height="40"
   id="rect3414" />
				<rect
   x="832.76"
   y="482.32"
   class="st10"
   width="7.5"
   height="50"
   id="rect3416" />
				<circle
   class="st9"
   cx="821.26"
   cy="486.32"
   r="4"
   id="circle3418" />
				<circle
   class="st10"
   cx="821.26"
   cy="500.32"
   r="4"
   id="circle3420" />
				<circle
   class="st0"
   cx="821.26"
   cy="528.32"
   r="4"
   id="circle3422" />
				<circle
   class="st10"
   cx="821.26"
   cy="514.32"
   r="4"
   id="circle3424" />
				<rect
   x="620.26"
   y="539.82"
   class="st11"
   width="220"
   height="5"
   id="rect3426" />
			</g>
			<g
   id="g3470">
				<rect
   x="612.76"
   y="404.82"
   class="st7"
   width="235"
   height="65"
   id="rect3430" />
				<rect
   x="620.26"
   y="412.32"
   class="st8"
   width="157.5"
   height="50"
   id="rect3432" />
				<rect
   x="627.76"
   y="417.32"
   class="st10"
   width="5"
   height="40"
   id="rect3434" />
				<rect
   x="640.26"
   y="417.32"
   class="st10"
   width="5"
   height="40"
   id="rect3436" />
				<rect
   x="652.76"
   y="417.32"
   class="st10"
   width="5"
   height="40"
   id="rect3438" />
				<rect
   x="665.26"
   y="417.32"
   class="st10"
   width="5"
   height="40"
   id="rect3440" />
				<rect
   x="677.76"
   y="417.32"
   class="st9"
   width="5"
   height="40"
   id="rect3442" />
				<rect
   x="690.26"
   y="417.32"
   class="st10"
   width="5"
   height="40"
   id="rect3444" />
				<rect
   x="702.76"
   y="417.32"
   class="st10"
   width="5"
   height="40"
   id="rect3446" />
				<rect
   x="715.26"
   y="417.32"
   class="st10"
   width="5"
   height="40"
   id="rect3448" />
				<rect
   x="727.76"
   y="417.32"
   class="st10"
   width="5"
   height="40"
   id="rect3450" />
				<rect
   x="740.26"
   y="417.32"
   class="st10"
   width="5"
   height="40"
   id="rect3452" />
				<rect
   x="752.76"
   y="417.32"
   class="st10"
   width="5"
   height="40"
   id="rect3454" />
				<rect
   x="765.26"
   y="417.32"
   class="st10"
   width="5"
   height="40"
   id="rect3456" />
				<rect
   x="832.76"
   y="412.32"
   class="st10"
   width="7.5"
   height="50"
   id="rect3458" />
				<circle
   class="st10"
   cx="821.26"
   cy="416.32"
   r="4"
   id="circle3460" />
				<circle
   class="st9"
   cx="821.26"
   cy="430.32"
   r="4"
   id="circle3462" />
				<circle
   class="st10"
   cx="821.26"
   cy="458.32"
   r="4"
   id="circle3464" />
				<circle
   class="st0"
   cx="821.26"
   cy="444.32"
   r="4"
   id="circle3466" />
				<rect
   x="620.26"
   y="469.82"
   class="st11"
   width="220"
   height="5"
   id="rect3468" />
			</g>
			<g
   id="g3512">
				<rect
   x="612.76"
   y="334.82"
   class="st7"
   width="235"
   height="65"
   id="rect3472" />
				<rect
   x="620.26"
   y="342.32"
   class="st8"
   width="157.5"
   height="50"
   id="rect3474" />
				<rect
   x="627.76"
   y="347.32"
   class="st10"
   width="5"
   height="40"
   id="rect3476" />
				<rect
   x="640.26"
   y="347.32"
   class="st10"
   width="5"
   height="40"
   id="rect3478" />
				<rect
   x="652.76"
   y="347.32"
   class="st10"
   width="5"
   height="40"
   id="rect3480" />
				<rect
   x="665.26"
   y="347.32"
   class="st10"
   width="5"
   height="40"
   id="rect3482" />
				<rect
   x="677.76"
   y="347.32"
   class="st10"
   width="5"
   height="40"
   id="rect3484" />
				<rect
   x="690.26"
   y="347.32"
   class="st10"
   width="5"
   height="40"
   id="rect3486" />
				<rect
   x="702.76"
   y="347.32"
   class="st10"
   width="5"
   height="40"
   id="rect3488" />
				<rect
   x="715.26"
   y="347.32"
   class="st10"
   width="5"
   height="40"
   id="rect3490" />
				<rect
   x="727.76"
   y="347.32"
   class="st10"
   width="5"
   height="40"
   id="rect3492" />
				<rect
   x="740.26"
   y="347.32"
   class="st10"
   width="5"
   height="40"
   id="rect3494" />
				<rect
   x="752.76"
   y="347.32"
   class="st10"
   width="5"
   height="40"
   id="rect3496" />
				<rect
   x="765.26"
   y="347.32"
   class="st9"
   width="5"
   height="40"
   id="rect3498" />
				<rect
   x="832.76"
   y="342.32"
   class="st10"
   width="7.5"
   height="50"
   id="rect3500" />
				<circle
   class="st9"
   cx="821.26"
   cy="346.32"
   r="4"
   id="circle3502" />
				<circle
   class="st10"
   cx="821.26"
   cy="360.32"
   r="4"
   id="circle3504" />
				<circle
   class="st0"
   cx="821.26"
   cy="388.32"
   r="4"
   id="circle3506" />
				<circle
   class="st10"
   cx="821.26"
   cy="374.32"
   r="4"
   id="circle3508" />
				<rect
   x="620.26"
   y="399.82"
   class="st11"
   width="220"
   height="5"
   id="rect3510" />
			</g>
			<g
   id="g3554">
				<rect
   x="612.76"
   y="264.82"
   class="st7"
   width="235"
   height="65"
   id="rect3514" />
				<rect
   x="620.26"
   y="272.32"
   class="st8"
   width="157.5"
   height="50"
   id="rect3516" />
				<rect
   x="627.76"
   y="277.32"
   class="st10"
   width="5"
   height="40"
   id="rect3518" />
				<rect
   x="640.26"
   y="277.32"
   class="st9"
   width="5"
   height="40"
   id="rect3520" />
				<rect
   x="652.76"
   y="277.32"
   class="st10"
   width="5"
   height="40"
   id="rect3522" />
				<rect
   x="665.26"
   y="277.32"
   class="st10"
   width="5"
   height="40"
   id="rect3524" />
				<rect
   x="677.76"
   y="277.32"
   class="st10"
   width="5"
   height="40"
   id="rect3526" />
				<rect
   x="690.26"
   y="277.32"
   class="st10"
   width="5"
   height="40"
   id="rect3528" />
				<rect
   x="702.76"
   y="277.32"
   class="st10"
   width="5"
   height="40"
   id="rect3530" />
				<rect
   x="715.26"
   y="277.32"
   class="st10"
   width="5"
   height="40"
   id="rect3532" />
				<rect
   x="727.76"
   y="277.32"
   class="st10"
   width="5"
   height="40"
   id="rect3534" />
				<rect
   x="740.26"
   y="277.32"
   class="st10"
   width="5"
   height="40"
   id="rect3536" />
				<rect
   x="752.76"
   y="277.32"
   class="st10"
   width="5"
   height="40"
   id="rect3538" />
				<rect
   x="765.26"
   y="277.32"
   class="st10"
   width="5"
   height="40"
   id="rect3540" />
				<rect
   x="832.76"
   y="272.32"
   class="st10"
   width="7.5"
   height="50"
   id="rect3542" />
				<circle
   class="st10"
   cx="821.26"
   cy="276.32"
   r="4"
   id="circle3544" />
				<circle
   class="st0"
   cx="821.26"
   cy="290.32"
   r="4"
   id="circle3546" />
				<circle
   class="st9"
   cx="821.26"
   cy="318.32"
   r="4"
   id="circle3548" />
				<circle
   class="st10"
   cx="821.26"
   cy="304.32"
   r="4"
   id="circle3550" />
				<rect
   x="620.26"
   y="329.82"
   class="st11"
   width="220"
   height="5"
   id="rect3552" />
			</g>
		</g>
		<g
   id="g3670">
			<g
   id="g3562">
				<rect
   x="612.76"
   y="614.82"
   class="st7"
   width="235"
   height="65"
   id="rect3558" />
				<rect
   x="620.26"
   y="679.82"
   class="st11"
   width="220"
   height="5"
   id="rect3560" />
			</g>
			<g
   id="g3660">
				<rect
   x="620.26"
   y="625.38"
   class="st11"
   width="5"
   height="5"
   id="rect3564" />
				<rect
   x="630.26"
   y="625.38"
   class="st11"
   width="5"
   height="5"
   id="rect3566" />
				<rect
   x="640.26"
   y="625.38"
   class="st11"
   width="5"
   height="5"
   id="rect3568" />
				<rect
   x="650.26"
   y="625.38"
   class="st11"
   width="5"
   height="5"
   id="rect3570" />
				<rect
   x="660.26"
   y="625.38"
   class="st11"
   width="5"
   height="5"
   id="rect3572" />
				<rect
   x="670.26"
   y="625.38"
   class="st11"
   width="5"
   height="5"
   id="rect3574" />
				<rect
   x="680.26"
   y="625.38"
   class="st11"
   width="5"
   height="5"
   id="rect3576" />
				<rect
   x="690.26"
   y="625.38"
   class="st11"
   width="5"
   height="5"
   id="rect3578" />
				<rect
   x="700.26"
   y="625.38"
   class="st11"
   width="5"
   height="5"
   id="rect3580" />
				<rect
   x="710.26"
   y="625.38"
   class="st11"
   width="5"
   height="5"
   id="rect3582" />
				<rect
   x="625.26"
   y="635.38"
   class="st11"
   width="5"
   height="5"
   id="rect3584" />
				<rect
   x="635.26"
   y="635.38"
   class="st11"
   width="5"
   height="5"
   id="rect3586" />
				<rect
   x="645.26"
   y="635.38"
   class="st11"
   width="5"
   height="5"
   id="rect3588" />
				<rect
   x="655.26"
   y="635.38"
   class="st11"
   width="5"
   height="5"
   id="rect3590" />
				<rect
   x="665.26"
   y="635.38"
   class="st11"
   width="5"
   height="5"
   id="rect3592" />
				<rect
   x="675.26"
   y="635.38"
   class="st11"
   width="5"
   height="5"
   id="rect3594" />
				<rect
   x="685.26"
   y="635.38"
   class="st11"
   width="5"
   height="5"
   id="rect3596" />
				<rect
   x="695.26"
   y="635.38"
   class="st11"
   width="5"
   height="5"
   id="rect3598" />
				<rect
   x="705.26"
   y="635.38"
   class="st11"
   width="5"
   height="5"
   id="rect3600" />
				<rect
   x="620.26"
   y="645.38"
   class="st11"
   width="5"
   height="5"
   id="rect3602" />
				<rect
   x="630.26"
   y="645.38"
   class="st11"
   width="5"
   height="5"
   id="rect3604" />
				<rect
   x="640.26"
   y="645.38"
   class="st11"
   width="5"
   height="5"
   id="rect3606" />
				<rect
   x="650.26"
   y="645.38"
   class="st11"
   width="5"
   height="5"
   id="rect3608" />
				<rect
   x="660.26"
   y="645.38"
   class="st11"
   width="5"
   height="5"
   id="rect3610" />
				<rect
   x="670.26"
   y="645.38"
   class="st11"
   width="5"
   height="5"
   id="rect3612" />
				<rect
   x="680.26"
   y="645.38"
   class="st11"
   width="5"
   height="5"
   id="rect3614" />
				<rect
   x="690.26"
   y="645.38"
   class="st11"
   width="5"
   height="5"
   id="rect3616" />
				<rect
   x="700.26"
   y="645.38"
   class="st11"
   width="5"
   height="5"
   id="rect3618" />
				<rect
   x="710.26"
   y="645.38"
   class="st11"
   width="5"
   height="5"
   id="rect3620" />
				<rect
   x="625.26"
   y="655.38"
   class="st11"
   width="5"
   height="5"
   id="rect3622" />
				<rect
   x="635.26"
   y="655.38"
   class="st11"
   width="5"
   height="5"
   id="rect3624" />
				<rect
   x="645.26"
   y="655.38"
   class="st11"
   width="5"
   height="5"
   id="rect3626" />
				<rect
   x="655.26"
   y="655.38"
   class="st11"
   width="5"
   height="5"
   id="rect3628" />
				<rect
   x="665.26"
   y="655.38"
   class="st11"
   width="5"
   height="5"
   id="rect3630" />
				<rect
   x="675.26"
   y="655.38"
   class="st11"
   width="5"
   height="5"
   id="rect3632" />
				<rect
   x="685.26"
   y="655.38"
   class="st11"
   width="5"
   height="5"
   id="rect3634" />
				<rect
   x="695.26"
   y="655.38"
   class="st11"
   width="5"
   height="5"
   id="rect3636" />
				<rect
   x="705.26"
   y="655.38"
   class="st11"
   width="5"
   height="5"
   id="rect3638" />
				<rect
   x="620.26"
   y="665.38"
   class="st11"
   width="5"
   height="5"
   id="rect3640" />
				<rect
   x="630.26"
   y="665.38"
   class="st11"
   width="5"
   height="5"
   id="rect3642" />
				<rect
   x="640.26"
   y="665.38"
   class="st11"
   width="5"
   height="5"
   id="rect3644" />
				<rect
   x="650.26"
   y="665.38"
   class="st11"
   width="5"
   height="5"
   id="rect3646" />
				<rect
   x="660.26"
   y="665.38"
   class="st11"
   width="5"
   height="5"
   id="rect3648" />
				<rect
   x="670.26"
   y="665.38"
   class="st11"
   width="5"
   height="5"
   id="rect3650" />
				<rect
   x="680.26"
   y="665.38"
   class="st11"
   width="5"
   height="5"
   id="rect3652" />
				<rect
   x="690.26"
   y="665.38"
   class="st11"
   width="5"
   height="5"
   id="rect3654" />
				<rect
   x="700.26"
   y="665.38"
   class="st11"
   width="5"
   height="5"
   id="rect3656" />
				<rect
   x="710.26"
   y="665.38"
   class="st11"
   width="5"
   height="5"
   id="rect3658" />
			</g>
			<rect
   x="827.76"
   y="622.32"
   class="st8"
   width="12.5"
   height="50"
   id="rect3662" />
			<path
   class="st12"
   d="M834.01,647.35L834.01,647.35c-2.07,0-3.75-1.68-3.75-3.75v-15.03c0-2.07,1.68-3.75,3.75-3.75l0,0     c2.07,0,3.75,1.68,3.75,3.75v15.03C837.76,645.67,836.09,647.35,834.01,647.35z"
   id="path3664" />
			<circle
   class="st0"
   cx="834.01"
   cy="665.38"
   r="4"
   id="circle3666" />
			<circle
   cx="834.01"
   cy="628.82"
   r="2.5"
   id="circle3668" />
		</g>
	</g>
	<path
   class="st4"
   d="M261,594.52H61c-5.52,0-10-4.48-10-10v-60c0-5.52,4.48-10,10-10h200c5.52,0,10,4.48,10,10v60   C271,590.05,266.52,594.52,261,594.52z"
   id="path3674" />
	<g
   id="g3698">
		<g
   class="st3"
   id="g3696">
			<path
   class="st0"
   d="M108.04,544.91l-6.33,11.21v6.71h-2.42v-6.71l-6.41-11.21h2.8l4.85,8.81l4.74-8.81H108.04z"
   id="path3676" />
			<path
   class="st0"
   d="M106.42,556.77c0-3.61,2.75-6.44,6.51-6.44c3.76,0,6.49,2.83,6.49,6.44c0,3.58-2.73,6.44-6.49,6.44     C109.17,563.21,106.42,560.35,106.42,556.77z M116.95,556.77c0-2.42-1.56-4.29-4.01-4.29c-2.37,0-4.04,1.87-4.04,4.29     c0,2.4,1.64,4.29,4.04,4.29C115.38,561.06,116.95,559.17,116.95,556.77z"
   id="path3678" />
			<path
   class="st0"
   d="M134.94,560.61v2.22h-0.73c-1.62,0-2.3-0.66-2.6-1.87c-0.93,1.41-2.47,2.25-4.37,2.25     c-3.1,0-5.17-1.84-5.17-5.53v-6.97h2.45v6.61c0,2.57,1.19,3.63,3.18,3.63c2.15,0,3.51-1.57,3.51-3.86v-6.38h2.42v8.61     c0,0.88,0.05,1.29,0.81,1.29H134.94z"
   id="path3680" />
			<path
   class="st0"
   d="M144.49,550.71v2.25c-2.83,0-4.09,1.64-4.09,3.86v6.01h-2.42v-12.11h2.42v2.15     C141.28,551.52,142.72,550.71,144.49,550.71z"
   id="path3682" />
			<path
   class="st0"
   d="M152.34,558.13l2.27-0.73c0.38,1.72,1.59,3.56,4.19,3.56c2.2,0,3.76-1.09,3.76-3.1     c0-4.04-9.62-2.45-9.62-8.08c0-3.41,2.88-5.25,5.8-5.25c2.85,0,5.02,1.51,5.86,4.01l-2.25,0.68c-0.48-1.39-1.67-2.47-3.56-2.47     c-1.62,0-3.36,0.76-3.36,2.78c0,3.76,9.62,1.99,9.62,8.18c0,3.33-2.5,5.5-6.31,5.5C154.94,563.21,152.92,560.71,152.34,558.13z"
   id="path3684" />
			<path
   class="st0"
   d="M167.13,556.62c0-3.61,2.62-6.28,6.11-6.28c3.91,0,6.26,2.78,5.93,6.97h-9.54c0.2,2.52,1.69,3.84,3.68,3.84     c1.94,0,3.18-0.98,3.89-2.6l1.94,0.81c-0.93,2.27-3,3.86-5.83,3.86C169.5,563.21,167.13,560.28,167.13,556.62z M176.82,555.51     c-0.2-2.2-1.64-3.18-3.58-3.18c-2.02,0-3.33,1.41-3.58,3.18H176.82z"
   id="path3686" />
			<path
   class="st0"
   d="M188.53,550.71v2.25c-2.83,0-4.09,1.64-4.09,3.86v6.01h-2.42v-12.11h2.42v2.15     C185.33,551.52,186.77,550.71,188.53,550.71z"
   id="path3688" />
			<path
   class="st0"
   d="M202.62,550.71l-5.25,12.11h-2.15l-5.25-12.11h2.65l3.69,9.34l3.68-9.34H202.62z"
   id="path3690" />
			<path
   class="st0"
   d="M203.5,556.62c0-3.61,2.62-6.28,6.11-6.28c3.91,0,6.26,2.78,5.93,6.97H206c0.2,2.52,1.69,3.84,3.68,3.84     c1.94,0,3.18-0.98,3.89-2.6l1.94,0.81c-0.93,2.27-3,3.86-5.83,3.86C205.88,563.21,203.5,560.28,203.5,556.62z M213.2,555.51     c-0.2-2.2-1.64-3.18-3.58-3.18c-2.02,0-3.33,1.41-3.58,3.18H213.2z"
   id="path3692" />
			<path
   class="st0"
   d="M224.91,550.71v2.25c-2.83,0-4.09,1.64-4.09,3.86v6.01h-2.42v-12.11h2.42v2.15     C221.7,551.52,223.14,550.71,224.91,550.71z"
   id="path3694" />
		</g>
	</g>
	<path
   class="st5"
   d="M291,361.46H31c-16.57,0-30-13.43-30-30v-260c0-16.57,13.43-30,30-30h260c16.57,0,30,13.43,30,30v260   C321,348.02,307.56,361.46,291,361.46z"
   id="path3700" />
	<g
   id="g3860">
		<g
   id="g3744">
			<g
   id="g3742">
				<rect
   x="43.5"
   y="645.23"
   class="st7"
   width="235"
   height="65"
   id="rect3702" />
				<rect
   x="51"
   y="652.73"
   class="st8"
   width="157.5"
   height="50"
   id="rect3704" />
				<rect
   x="58.5"
   y="657.73"
   class="st10"
   width="5"
   height="40"
   id="rect3706" />
				<rect
   x="71"
   y="657.73"
   class="st10"
   width="5"
   height="40"
   id="rect3708" />
				<rect
   x="83.5"
   y="657.73"
   class="st10"
   width="5"
   height="40"
   id="rect3710" />
				<rect
   x="96"
   y="657.73"
   class="st10"
   width="5"
   height="40"
   id="rect3712" />
				<rect
   x="108.5"
   y="657.73"
   class="st10"
   width="5"
   height="40"
   id="rect3714" />
				<rect
   x="121"
   y="657.73"
   class="st10"
   width="5"
   height="40"
   id="rect3716" />
				<rect
   x="133.5"
   y="657.73"
   class="st10"
   width="5"
   height="40"
   id="rect3718" />
				<rect
   x="146"
   y="657.73"
   class="st10"
   width="5"
   height="40"
   id="rect3720" />
				<rect
   x="158.5"
   y="657.73"
   class="st10"
   width="5"
   height="40"
   id="rect3722" />
				<rect
   x="171"
   y="657.73"
   class="st10"
   width="5"
   height="40"
   id="rect3724" />
				<rect
   x="183.5"
   y="657.73"
   class="st9"
   width="5"
   height="40"
   id="rect3726" />
				<rect
   x="196"
   y="657.73"
   class="st10"
   width="5"
   height="40"
   id="rect3728" />
				<rect
   x="263.5"
   y="652.73"
   class="st10"
   width="7.5"
   height="50"
   id="rect3730" />
				<circle
   class="st10"
   cx="252"
   cy="656.73"
   r="4"
   id="circle3732" />
				<circle
   class="st9"
   cx="252"
   cy="670.73"
   r="4"
   id="circle3734" />
				<circle
   class="st0"
   cx="252"
   cy="698.73"
   r="4"
   id="circle3736" />
				<circle
   class="st10"
   cx="252"
   cy="684.73"
   r="4"
   id="circle3738" />
				<rect
   x="51"
   y="710.23"
   class="st11"
   width="220"
   height="5"
   id="rect3740" />
			</g>
		</g>
		<g
   id="g3858">
			<g
   id="g3750">
				<rect
   x="43.5"
   y="715.23"
   class="st7"
   width="235"
   height="65"
   id="rect3746" />
				<rect
   x="51"
   y="780.23"
   class="st11"
   width="220"
   height="5"
   id="rect3748" />
			</g>
			<g
   id="g3848">
				<rect
   x="51"
   y="725.79"
   class="st11"
   width="5"
   height="5"
   id="rect3752" />
				<rect
   x="61"
   y="725.79"
   class="st11"
   width="5"
   height="5"
   id="rect3754" />
				<rect
   x="71"
   y="725.79"
   class="st11"
   width="5"
   height="5"
   id="rect3756" />
				<rect
   x="81"
   y="725.79"
   class="st11"
   width="5"
   height="5"
   id="rect3758" />
				<rect
   x="91"
   y="725.79"
   class="st11"
   width="5"
   height="5"
   id="rect3760" />
				<rect
   x="101"
   y="725.79"
   class="st11"
   width="5"
   height="5"
   id="rect3762" />
				<rect
   x="111"
   y="725.79"
   class="st11"
   width="5"
   height="5"
   id="rect3764" />
				<rect
   x="121"
   y="725.79"
   class="st11"
   width="5"
   height="5"
   id="rect3766" />
				<rect
   x="131"
   y="725.79"
   class="st11"
   width="5"
   height="5"
   id="rect3768" />
				<rect
   x="141"
   y="725.79"
   class="st11"
   width="5"
   height="5"
   id="rect3770" />
				<rect
   x="56"
   y="735.79"
   class="st11"
   width="5"
   height="5"
   id="rect3772" />
				<rect
   x="66"
   y="735.79"
   class="st11"
   width="5"
   height="5"
   id="rect3774" />
				<rect
   x="76"
   y="735.79"
   class="st11"
   width="5"
   height="5"
   id="rect3776" />
				<rect
   x="86"
   y="735.79"
   class="st11"
   width="5"
   height="5"
   id="rect3778" />
				<rect
   x="96"
   y="735.79"
   class="st11"
   width="5"
   height="5"
   id="rect3780" />
				<rect
   x="106"
   y="735.79"
   class="st11"
   width="5"
   height="5"
   id="rect3782" />
				<rect
   x="116"
   y="735.79"
   class="st11"
   width="5"
   height="5"
   id="rect3784" />
				<rect
   x="126"
   y="735.79"
   class="st11"
   width="5"
   height="5"
   id="rect3786" />
				<rect
   x="136"
   y="735.79"
   class="st11"
   width="5"
   height="5"
   id="rect3788" />
				<rect
   x="51"
   y="745.79"
   class="st11"
   width="5"
   height="5"
   id="rect3790" />
				<rect
   x="61"
   y="745.79"
   class="st11"
   width="5"
   height="5"
   id="rect3792" />
				<rect
   x="71"
   y="745.79"
   class="st11"
   width="5"
   height="5"
   id="rect3794" />
				<rect
   x="81"
   y="745.79"
   class="st11"
   width="5"
   height="5"
   id="rect3796" />
				<rect
   x="91"
   y="745.79"
   class="st11"
   width="5"
   height="5"
   id="rect3798" />
				<rect
   x="101"
   y="745.79"
   class="st11"
   width="5"
   height="5"
   id="rect3800" />
				<rect
   x="111"
   y="745.79"
   class="st11"
   width="5"
   height="5"
   id="rect3802" />
				<rect
   x="121"
   y="745.79"
   class="st11"
   width="5"
   height="5"
   id="rect3804" />
				<rect
   x="131"
   y="745.79"
   class="st11"
   width="5"
   height="5"
   id="rect3806" />
				<rect
   x="141"
   y="745.79"
   class="st11"
   width="5"
   height="5"
   id="rect3808" />
				<rect
   x="56"
   y="755.79"
   class="st11"
   width="5"
   height="5"
   id="rect3810" />
				<rect
   x="66"
   y="755.79"
   class="st11"
   width="5"
   height="5"
   id="rect3812" />
				<rect
   x="76"
   y="755.79"
   class="st11"
   width="5"
   height="5"
   id="rect3814" />
				<rect
   x="86"
   y="755.79"
   class="st11"
   width="5"
   height="5"
   id="rect3816" />
				<rect
   x="96"
   y="755.79"
   class="st11"
   width="5"
   height="5"
   id="rect3818" />
				<rect
   x="106"
   y="755.79"
   class="st11"
   width="5"
   height="5"
   id="rect3820" />
				<rect
   x="116"
   y="755.79"
   class="st11"
   width="5"
   height="5"
   id="rect3822" />
				<rect
   x="126"
   y="755.79"
   class="st11"
   width="5"
   height="5"
   id="rect3824" />
				<rect
   x="136"
   y="755.79"
   class="st11"
   width="5"
   height="5"
   id="rect3826" />
				<rect
   x="51"
   y="765.79"
   class="st11"
   width="5"
   height="5"
   id="rect3828" />
				<rect
   x="61"
   y="765.79"
   class="st11"
   width="5"
   height="5"
   id="rect3830" />
				<rect
   x="71"
   y="765.79"
   class="st11"
   width="5"
   height="5"
   id="rect3832" />
				<rect
   x="81"
   y="765.79"
   class="st11"
   width="5"
   height="5"
   id="rect3834" />
				<rect
   x="91"
   y="765.79"
   class="st11"
   width="5"
   height="5"
   id="rect3836" />
				<rect
   x="101"
   y="765.79"
   class="st11"
   width="5"
   height="5"
   id="rect3838" />
				<rect
   x="111"
   y="765.79"
   class="st11"
   width="5"
   height="5"
   id="rect3840" />
				<rect
   x="121"
   y="765.79"
   class="st11"
   width="5"
   height="5"
   id="rect3842" />
				<rect
   x="131"
   y="765.79"
   class="st11"
   width="5"
   height="5"
   id="rect3844" />
				<rect
   x="141"
   y="765.79"
   class="st11"
   width="5"
   height="5"
   id="rect3846" />
			</g>
			<rect
   x="258.5"
   y="722.73"
   class="st8"
   width="12.5"
   height="50"
   id="rect3850" />
			<path
   class="st12"
   d="M264.75,747.76L264.75,747.76c-2.07,0-3.75-1.68-3.75-3.75v-15.03c0-2.07,1.68-3.75,3.75-3.75l0,0     c2.07,0,3.75,1.68,3.75,3.75v15.03C268.5,746.08,266.82,747.76,264.75,747.76z"
   id="path3852" />
			<circle
   class="st0"
   cx="264.75"
   cy="765.79"
   r="4"
   id="circle3854" />
			<circle
   cx="264.75"
   cy="729.23"
   r="2.5"
   id="circle3856" />
		</g>
	</g>
	<g
   id="g3900">
		<path
   class="st4"
   d="M825.26,214.05h-190c-5.52,0-10-4.48-10-10v-70c0-5.52,4.48-10,10-10h190c5.52,0,10,4.48,10,10v70    C835.26,209.57,830.79,214.05,825.26,214.05z"
   id="path3862" />
		<g
   id="g3898">
			<g
   class="st3"
   id="g3880">
				<path
   class="st0"
   d="M669.87,155.39c0-5.05,4.14-9.34,8.98-9.34c3.69,0,6.79,2.09,8,5.3l-2.32,0.78      c-0.91-2.37-2.93-3.81-5.68-3.81c-3.58,0-6.51,3.13-6.51,7.07c0,3.94,2.93,7.07,6.51,7.07c2.68,0,4.54-1.36,5.58-3.51l2.27,0.93      c-1.41,3-4.32,4.85-7.85,4.85C674.01,164.73,669.87,160.44,669.87,155.39z"
   id="path3864" />
				<path
   class="st0"
   d="M688.63,158.29c0-3.61,2.75-6.44,6.51-6.44c3.76,0,6.49,2.83,6.49,6.44c0,3.58-2.73,6.44-6.49,6.44      C691.38,164.73,688.63,161.88,688.63,158.29z M699.15,158.29c0-2.42-1.56-4.29-4.01-4.29c-2.37,0-4.04,1.87-4.04,4.29      c0,2.4,1.64,4.29,4.04,4.29C697.59,162.58,699.15,160.69,699.15,158.29z"
   id="path3866" />
				<path
   class="st0"
   d="M722.8,157.03v7.32h-2.42v-6.92c0-2.45-0.96-3.33-2.57-3.33c-1.64,0-2.98,1.21-2.98,3.38v6.87h-2.42v-6.92      c0-2.45-0.96-3.33-2.57-3.33c-1.74,0-2.98,1.39-2.98,3.66v6.59h-2.45v-12.11h2.45v1.64c0.76-1.26,2.02-2.02,3.46-2.02      c1.89,0,3.26,0.68,3.94,2.25c0.88-1.62,2.37-2.25,4.04-2.25C721.06,151.86,722.8,153.62,722.8,157.03z"
   id="path3868" />
				<path
   class="st0"
   d="M732.04,164.73c-3.71,0-6.46-2.93-6.46-6.59c0-3.61,2.73-6.28,6.49-6.28c2.62,0,4.67,1.34,5.58,3.51      l-2.09,0.86c-0.58-1.44-1.72-2.22-3.48-2.22c-2.4,0-4.01,1.72-4.01,4.14s1.59,4.44,3.99,4.44c1.67,0,2.8-0.83,3.43-2.27      l2.07,0.91C736.59,163.36,734.64,164.73,732.04,164.73z"
   id="path3870" />
				<path
   class="st0"
   d="M751.78,162.13v2.22h-0.56c-1.97,0-2.85-0.48-3.13-1.74c-0.68,1.24-2.47,2.12-4.19,2.12      c-2.37,0-4.21-1.29-4.21-3.61c0-3.23,4.09-3.99,7.92-4.64c-0.05-1.72-1.08-2.6-2.6-2.6c-1.57,0-2.78,0.78-3.23,2.47l-2.12-0.56      c0.83-2.9,3.26-3.94,5.53-3.94c2.67,0,4.85,1.67,4.85,4.8v4.32c0,0.88,0.05,1.16,1.19,1.16H751.78z M747.62,158.22      c-2.73,0.43-5.48,0.91-5.48,2.7c0,1.29,0.93,1.84,2.2,1.84c2.22,0,3.28-1.56,3.28-3.68V158.22z"
   id="path3872" />
				<path
   class="st0"
   d="M761.1,152.23v2.25c-2.83,0-4.09,1.64-4.09,3.86v6.01h-2.42v-12.11h2.42v2.15      C757.89,153.04,759.33,152.23,761.1,152.23z"
   id="path3874" />
				<path
   class="st0"
   d="M762.28,158.29c0-3.89,2.83-6.44,6.18-6.44c1.67,0,3.31,0.73,4.14,2.02v-7.45h2.42v17.92h-2.42v-1.64      c-0.83,1.29-2.47,2.02-4.14,2.02C765.11,164.73,762.28,162.15,762.28,158.29z M772.61,158.29c0-2.5-1.62-4.29-3.89-4.29      c-2.45,0-3.96,1.89-3.96,4.29c0,2.4,1.51,4.29,3.96,4.29C770.99,162.58,772.61,160.79,772.61,158.29z"
   id="path3876" />
				<path
   class="st0"
   d="M777.81,158.14c0-3.61,2.62-6.28,6.11-6.28c3.91,0,6.26,2.78,5.93,6.97h-9.54c0.2,2.52,1.69,3.84,3.68,3.84      c1.94,0,3.18-0.98,3.89-2.6l1.94,0.81c-0.93,2.27-3,3.86-5.83,3.86C780.18,164.73,777.81,161.8,777.81,158.14z M787.5,157.03      c-0.2-2.2-1.64-3.18-3.58-3.18c-2.02,0-3.33,1.41-3.58,3.18H787.5z"
   id="path3878" />
			</g>
			<g
   class="st3"
   id="g3896">
				<path
   class="st0"
   d="M689.29,190.35l-3.36-6.81h-0.05h-3.99v6.81h-2.45v-17.92h6.44c3.46,0,6.03,2.17,6.03,5.58      c0,2.5-1.39,4.32-3.51,5.1l3.61,7.24H689.29z M681.9,181.34h3.81c2.25,0,3.76-1.19,3.76-3.36c0-2.17-1.57-3.33-3.84-3.33h-3.74      V181.34z"
   id="path3882" />
				<path
   class="st0"
   d="M697.55,174.65v5.58h8.2v2.22h-8.2v5.68h8.96v2.22h-11.38v-17.92h11.38v2.22H697.55z"
   id="path3884" />
				<path
   class="st0"
   d="M708.63,185.65l2.27-0.73c0.38,1.72,1.59,3.56,4.19,3.56c2.2,0,3.76-1.09,3.76-3.1      c0-4.04-9.62-2.45-9.62-8.08c0-3.41,2.88-5.25,5.8-5.25c2.85,0,5.02,1.51,5.86,4.01l-2.25,0.68c-0.48-1.39-1.67-2.47-3.56-2.47      c-1.62,0-3.36,0.76-3.36,2.78c0,3.76,9.62,1.99,9.62,8.18c0,3.33-2.5,5.5-6.31,5.5S709.21,188.23,708.63,185.65z"
   id="path3886" />
				<path
   class="st0"
   d="M735.91,174.65h-5.65v15.7h-2.42v-15.7h-5.68v-2.22h13.75V174.65z"
   id="path3888" />
				<path
   class="st0"
   d="M755.96,185.96h-8.18l-1.67,4.39h-2.62l7.14-17.92h2.45l7.14,17.92h-2.6L755.96,185.96z M755.15,183.84      l-3.31-8.71l-3.28,8.71H755.15z"
   id="path3890" />
				<path
   class="st0"
   d="M775.09,178.01c0,3.38-2.55,5.53-6.03,5.53h-3.99v6.81h-2.45v-17.92h6.44      C772.52,172.43,775.09,174.6,775.09,178.01z M772.64,177.98c0-2.17-1.56-3.33-3.84-3.33h-3.74v6.69h3.81      C771.13,181.34,772.64,180.15,772.64,177.98z"
   id="path3892" />
				<path
   class="st0"
   d="M777.87,172.43h2.45v17.92h-2.45V172.43z"
   id="path3894" />
			</g>
		</g>
	</g>
	<g
   id="g3908">
		<circle
   class="st13"
   cx="485.63"
   cy="251.46"
   r="25"
   id="circle3902" />
		<g
   class="st3"
   id="g3906">
			<path
   d="M487.65,242.62v17.92h-2.42v-13.33c-0.88,0.33-2.12,0.48-3.84,0.48v-2.22c2.7,0.03,3.84-0.88,3.84-2.85H487.65z"
   id="path3904" />
		</g>
	</g>
	<g
   id="g3916">
		<circle
   class="st13"
   cx="445.63"
   cy="660.38"
   r="25"
   id="circle3910" />
		<g
   class="st3"
   id="g3914">
			<path
   d="M451.31,663.91c0,3.36-2.83,5.93-6.21,5.93c-3.08,0-5.73-2.2-6.18-5l2.47-0.58c0.2,1.84,1.84,3.26,3.71,3.26     c2.04,0,3.74-1.46,3.74-3.61c0-2.42-1.79-3.94-4.24-3.76c-0.5,0.03-1.06,0.23-1.56,0.48l-0.86-1.74l5.35-5.12h-7.85v-2.22h11.23     v1.89l-5.12,4.8C449.14,658.3,451.31,660.8,451.31,663.91z"
   id="path3912" />
		</g>
	</g>
	<g
   id="g3924">
		<circle
   class="st13"
   cx="161"
   cy="437.89"
   r="25"
   id="circle3918" />
		<g
   class="st3"
   id="g3922">
			<path
   d="M158.2,444.75h8.66v2.22h-12.34v-1.64c4.69-5,9.89-7.6,9.89-11.08c0-2.3-1.56-3.36-3.79-3.33c-2.2,0-3.84,1.62-4.14,3.89     l-2.4-0.5c0.5-3.25,3.1-5.63,6.56-5.63c3.61,0,6.26,1.77,6.26,5.68C166.9,437.83,162.64,440.81,158.2,444.75z"
   id="path3920" />
		</g>
	</g>
	<circle
   id="Ellipse_257_00000147219911113643805070000018165264882787990448_"
   class="st14"
   cx="570.63"
   cy="660.23"
   r="5"
   fill="#999" />
	<circle
   id="Ellipse_257_00000071548515629906182630000002686891881218292646_"
   cx="570.63"
   cy="251.46"
   r="5"
   fill="#999" />
	<g
   id="g3960">
		<path
   class="st4"
   d="M271,80.75H51c-5.52,0-10-4.48-10-10v-60c0-5.52,4.48-10,10-10h220c5.52,0,10,4.48,10,10v60    C281,76.27,276.52,80.75,271,80.75z"
   id="path3928" />
		
	<g
   id="g545"
   transform="translate(2.763088,-18.786369)">
		
	<text
   xml:space="preserve"
   style="font-style:normal;font-variant:normal;font-weight:bold;font-stretch:normal;font-size:26.6667px;font-family:Forth;-inkscape-font-specification:'Forth Bold';fill:#ffffff;fill-opacity:1;stroke:none;stroke-opacity:0.839216"
   x="99.365234"
   y="71.084358"
   id="text3670"><tspan
     id="tspan3668"
     sodipodi:role="line"
     x="99.365234"
     y="71.084358" /></text><text
   xml:space="preserve"
   id="text3672"
   style="font-style:normal;font-variant:normal;font-weight:500;font-stretch:normal;font-size:26.6667px;font-family:Forth;-inkscape-font-specification:'Forth Medium';white-space:pre;shape-inside:url(#rect3674);display:inline;fill:#ffffff;fill-opacity:1;stroke:none;stroke-opacity:0.839216"
   transform="translate(-1.5286959,4.5860878)"><tspan
     x="66.498047"
     y="63.984973"
     id="tspan5022"><tspan
       style="font-weight:normal;-inkscape-font-specification:Forth"
       id="tspan5020">Your Client App</tspan></tspan></text></g></g>
	
	
	
	
<g
   class="st1"
   id="g30"
   style="enable-background:new"
   transform="matrix(0.8626955,0,0,0.83487616,15.693972,14.866272)">
		<path
   class="st2"
   d="m 31.72,126.39 c 0,-3.88 3.19,-7.19 6.95,-7.19 2.84,0 5.26,1.61 6.18,4.1 l -2.08,0.7 c -0.66,-1.75 -2.08,-2.78 -4.1,-2.78 -2.64,0 -4.74,2.25 -4.74,5.17 0,2.91 2.1,5.17 4.74,5.17 1.98,0 3.26,-0.97 4.04,-2.54 l 2.04,0.83 c -1.09,2.29 -3.32,3.73 -6.08,3.73 -3.77,0 -6.95,-3.3 -6.95,-7.19 z"
   id="path6"
   style="fill:#b8b8b8" />
		<path
   class="st2"
   d="m 56.83,131.33 v 1.96 h -0.58 c -1.32,0 -1.88,-0.47 -2.16,-1.34 -0.7,1.01 -1.86,1.63 -3.32,1.63 -2.41,0 -3.96,-1.46 -3.96,-4.25 v -5.36 H 49 v 5.01 c 0,1.83 0.82,2.6 2.23,2.6 1.5,0 2.43,-1.07 2.43,-2.76 v -4.86 h 2.19 v 6.45 c 0,0.6 0.02,0.91 0.56,0.91 h 0.42 z"
   id="path8"
   style="fill:#b8b8b8" />
		<path
   class="st2"
   d="m 58.55,130.8 2.06,-0.5 c 0.21,0.87 0.8,1.51 1.83,1.51 1.03,0 1.71,-0.45 1.71,-1.2 0,-1.85 -5.21,-0.72 -5.21,-3.94 0,-1.73 1.5,-2.99 3.5,-2.99 1.61,0 2.74,0.7 3.46,2.02 l -1.75,0.8 c -0.37,-0.64 -0.91,-1.05 -1.73,-1.05 -0.85,0 -1.34,0.47 -1.34,1.01 0,1.65 5.23,0.53 5.23,4.02 0,1.84 -1.55,3.11 -3.88,3.11 -2.05,-0.01 -3.47,-1.12 -3.88,-2.79 z"
   id="path10"
   style="fill:#b8b8b8" />
		<path
   class="st2"
   d="m 71.44,125.79 v 4.6 c 0,0.62 0.17,0.91 0.83,0.91 h 1.3 v 1.98 H 72.2 c -1.92,0 -2.95,-1.13 -2.95,-2.89 v -4.6 h -1.98 v -1.83 h 1.98 v -2.7 l 2.19,-0.52 v 3.22 h 2.52 v 1.83 z"
   id="path12"
   style="fill:#b8b8b8" />
		<path
   class="st2"
   d="m 75.21,128.62 c 0,-2.78 2.14,-4.95 5.03,-4.95 2.91,0 5.05,2.18 5.05,4.95 0,2.78 -2.14,4.95 -5.05,4.95 -2.89,0.01 -5.03,-2.17 -5.03,-4.95 z m 7.87,0 c 0,-1.73 -1.09,-3.05 -2.84,-3.05 -1.71,0 -2.84,1.32 -2.84,3.05 0,1.73 1.13,3.05 2.84,3.05 1.75,0 2.84,-1.32 2.84,-3.05 z"
   id="path14"
   style="fill:#b8b8b8" />
		<path
   class="st2"
   d="m 101.51,127.63 v 5.65 h -2.19 v -5.23 c 0,-1.75 -0.62,-2.39 -1.75,-2.39 -1.17,0 -2.06,0.82 -2.06,2.41 v 5.21 h -2.19 v -5.23 c 0,-1.75 -0.62,-2.39 -1.77,-2.39 -1.2,0 -2.06,0.91 -2.06,2.54 v 5.07 h -2.2 v -9.32 h 2.2 v 1.17 c 0.54,-0.87 1.48,-1.46 2.54,-1.46 1.44,0 2.45,0.52 2.95,1.65 0.68,-1.2 1.79,-1.65 3.05,-1.65 2.17,0.01 3.48,1.49 3.48,3.97 z"
   id="path16"
   style="fill:#b8b8b8" />
		<path
   class="st2"
   d="m 103.33,128.53 c 0,-2.82 2.06,-4.86 4.74,-4.86 2.99,0 4.82,2.18 4.56,5.46 h -7.09 c 0.16,1.71 1.19,2.64 2.6,2.64 1.36,0 2.25,-0.7 2.74,-1.83 l 1.71,0.7 c -0.72,1.73 -2.33,2.93 -4.45,2.93 -2.95,0.01 -4.81,-2.21 -4.81,-5.04 z m 7.22,-0.93 c -0.19,-1.5 -1.15,-2.18 -2.49,-2.18 -1.36,0 -2.29,0.93 -2.51,2.18 z"
   id="path18"
   style="fill:#b8b8b8" />
		<path
   class="st2"
   d="m 119.95,123.96 v 2 c -2.25,0 -3.09,1.17 -3.09,2.76 v 4.56 h -2.2 v -9.32 h 2.2 v 1.52 c 0.68,-0.93 1.77,-1.52 3.09,-1.52 z"
   id="path20"
   style="fill:#b8b8b8" />
		<path
   class="st2"
   d="m 137.15,119.5 v 13.79 h -2.04 l -6.7,-9.95 v 9.95 h -2.19 V 119.5 h 2.04 l 6.7,9.95 v -9.95 z"
   id="path22"
   style="fill:#b8b8b8" />
		<path
   class="st2"
   d="m 148.73,131.33 v 1.96 h -0.39 c -1.57,0 -2.29,-0.31 -2.58,-1.26 -0.51,0.91 -1.85,1.55 -3.19,1.55 -1.81,0 -3.26,-0.99 -3.26,-2.76 0,-2.49 3.05,-3.09 5.96,-3.59 -0.06,-1.18 -0.78,-1.79 -1.81,-1.79 -1.11,0 -1.96,0.58 -2.31,1.77 l -1.86,-0.5 c 0.72,-2.31 2.62,-3.03 4.35,-3.03 2.12,0 3.83,1.3 3.83,3.75 v 3.07 c 0,0.6 0.02,0.83 0.87,0.83 z m -3.46,-2.59 c -1.88,0.29 -3.77,0.64 -3.77,1.84 0,0.91 0.66,1.26 1.5,1.26 1.59,0 2.27,-1.13 2.27,-2.54 z"
   id="path24"
   style="fill:#b8b8b8" />
		<path
   class="st2"
   d="m 165.02,127.63 v 5.65 h -2.19 v -5.23 c 0,-1.75 -0.62,-2.39 -1.75,-2.39 -1.17,0 -2.06,0.82 -2.06,2.41 v 5.21 h -2.19 v -5.23 c 0,-1.75 -0.62,-2.39 -1.77,-2.39 -1.2,0 -2.06,0.91 -2.06,2.54 v 5.07 h -2.2 v -9.32 h 2.2 v 1.17 c 0.54,-0.87 1.48,-1.46 2.54,-1.46 1.44,0 2.45,0.52 2.95,1.65 0.68,-1.2 1.79,-1.65 3.05,-1.65 2.18,0.01 3.48,1.49 3.48,3.97 z"
   id="path26"
   style="fill:#b8b8b8" />
		<path
   class="st2"
   d="m 166.84,128.53 c 0,-2.82 2.06,-4.86 4.74,-4.86 2.99,0 4.82,2.18 4.56,5.46 h -7.09 c 0.16,1.71 1.19,2.64 2.6,2.64 1.36,0 2.25,-0.7 2.74,-1.83 l 1.71,0.7 c -0.72,1.73 -2.33,2.93 -4.45,2.93 -2.95,0.01 -4.81,-2.21 -4.81,-5.04 z m 7.23,-0.93 c -0.19,-1.5 -1.15,-2.18 -2.49,-2.18 -1.36,0 -2.29,0.93 -2.51,2.18 z"
   id="path28"
   style="fill:#b8b8b8" />
	</g><g
   class="st1"
   id="g54"
   style="enable-background:new"
   transform="matrix(0.8626955,0,0,0.83487616,15.693972,14.866272)">
		<path
   class="st2"
   d="m 31.72,243.74 c 0,-3.88 3.19,-7.19 6.95,-7.19 2.84,0 5.26,1.61 6.18,4.1 l -2.08,0.7 c -0.66,-1.75 -2.08,-2.78 -4.1,-2.78 -2.64,0 -4.74,2.25 -4.74,5.17 0,2.91 2.1,5.17 4.74,5.17 1.98,0 3.26,-0.97 4.04,-2.54 l 2.04,0.83 c -1.09,2.29 -3.32,3.73 -6.08,3.73 -3.77,0 -6.95,-3.31 -6.95,-7.19 z"
   id="path32"
   style="fill:#b8b8b8" />
		<path
   class="st2"
   d="m 55.78,248.67 v 1.96 h -0.39 c -1.57,0 -2.29,-0.31 -2.58,-1.26 -0.51,0.91 -1.85,1.55 -3.19,1.55 -1.81,0 -3.26,-0.99 -3.26,-2.76 0,-2.49 3.05,-3.09 5.96,-3.59 -0.06,-1.18 -0.78,-1.79 -1.81,-1.79 -1.11,0 -1.96,0.58 -2.31,1.77 l -1.86,-0.5 c 0.72,-2.31 2.62,-3.03 4.35,-3.03 2.12,0 3.83,1.3 3.83,3.75 v 3.07 c 0,0.6 0.02,0.83 0.87,0.83 z m -3.46,-2.58 c -1.88,0.29 -3.77,0.64 -3.77,1.84 0,0.91 0.66,1.26 1.5,1.26 1.59,0 2.27,-1.13 2.27,-2.54 z"
   id="path34"
   style="fill:#b8b8b8" />
		<path
   class="st2"
   d="m 63.13,241.31 v 2 c -2.25,0 -3.09,1.17 -3.09,2.76 v 4.56 h -2.2 v -9.32 h 2.2 v 1.52 c 0.69,-0.94 1.77,-1.52 3.09,-1.52 z"
   id="path36"
   style="fill:#b8b8b8" />
		<path
   class="st2"
   d="m 63.99,245.97 c 0,-3.07 2.27,-4.95 4.74,-4.95 1.22,0 2.43,0.52 3.01,1.4 v -5.57 h 2.19 v 13.79 h -2.19 v -1.09 c -0.58,0.87 -1.79,1.38 -3.01,1.38 -2.47,0 -4.74,-1.89 -4.74,-4.96 z m 7.75,0 c 0,-1.77 -1.09,-3.05 -2.76,-3.05 -1.75,0 -2.8,1.32 -2.8,3.05 0,1.73 1.05,3.05 2.8,3.05 1.67,0 2.76,-1.28 2.76,-3.05 z"
   id="path38"
   style="fill:#b8b8b8" />
		<path
   class="st2"
   d="m 92.4,243.74 c 0,4.08 -2.85,6.9 -6.99,6.9 h -4.55 v -13.79 h 4.55 c 4.11,-0.01 6.99,2.87 6.99,6.89 z m -2.22,0 c 0,-2.97 -1.86,-4.92 -4.78,-4.92 h -2.35 v 9.83 h 2.35 c 2.92,0 4.78,-1.9 4.78,-4.91 z"
   id="path40"
   style="fill:#b8b8b8" />
		<path
   class="st2"
   d="m 93.85,245.88 c 0,-2.82 2.06,-4.86 4.74,-4.86 2.99,0 4.82,2.18 4.56,5.46 h -7.09 c 0.16,1.71 1.19,2.64 2.6,2.64 1.36,0 2.25,-0.7 2.74,-1.83 l 1.71,0.7 c -0.72,1.73 -2.33,2.93 -4.45,2.93 -2.94,0.01 -4.81,-2.21 -4.81,-5.04 z m 7.23,-0.94 c -0.19,-1.5 -1.15,-2.18 -2.49,-2.18 -1.36,0 -2.29,0.93 -2.51,2.18 z"
   id="path42"
   style="fill:#b8b8b8" />
		<path
   class="st2"
   d="m 108.12,243.14 v 4.6 c 0,0.62 0.17,0.91 0.83,0.91 h 1.3 v 1.98 h -1.38 c -1.92,0 -2.95,-1.13 -2.95,-2.89 v -4.6 h -1.98 v -1.83 h 1.98 v -2.7 l 2.19,-0.52 v 3.22 h 2.52 v 1.83 z"
   id="path44"
   style="fill:#b8b8b8" />
		<path
   class="st2"
   d="m 121.64,248.67 v 1.96 h -0.39 c -1.57,0 -2.29,-0.31 -2.58,-1.26 -0.51,0.91 -1.85,1.55 -3.19,1.55 -1.81,0 -3.26,-0.99 -3.26,-2.76 0,-2.49 3.05,-3.09 5.96,-3.59 -0.06,-1.18 -0.78,-1.79 -1.81,-1.79 -1.11,0 -1.96,0.58 -2.31,1.77 l -1.86,-0.5 c 0.72,-2.31 2.62,-3.03 4.35,-3.03 2.12,0 3.83,1.3 3.83,3.75 v 3.07 c 0,0.6 0.02,0.83 0.87,0.83 z m -3.46,-2.58 c -1.88,0.29 -3.77,0.64 -3.77,1.84 0,0.91 0.66,1.26 1.5,1.26 1.59,0 2.27,-1.13 2.27,-2.54 z"
   id="path46"
   style="fill:#b8b8b8" />
		<path
   class="st2"
   d="m 124.96,237.23 c 0.78,0 1.42,0.6 1.42,1.42 0,0.78 -0.64,1.36 -1.42,1.36 -0.8,0 -1.44,-0.58 -1.44,-1.36 0,-0.84 0.64,-1.42 1.44,-1.42 z m 1.09,13.4 h -2.18 v -9.32 h 2.18 z"
   id="path48"
   style="fill:#b8b8b8" />
		<path
   class="st2"
   d="m 128.84,247.78 v -10.94 h 2.2 v 10.92 c 0,0.6 0.21,0.91 0.76,0.91 h 0.7 v 1.96 h -0.87 c -1.74,0 -2.79,-1.08 -2.79,-2.85 z"
   id="path50"
   style="fill:#b8b8b8" />
		<path
   class="st2"
   d="m 134.01,248.15 2.06,-0.5 c 0.21,0.87 0.8,1.51 1.83,1.51 1.03,0 1.71,-0.45 1.71,-1.2 0,-1.85 -5.21,-0.72 -5.21,-3.94 0,-1.73 1.5,-2.99 3.5,-2.99 1.61,0 2.74,0.7 3.46,2.02 l -1.75,0.8 c -0.37,-0.64 -0.91,-1.05 -1.73,-1.05 -0.85,0 -1.34,0.47 -1.34,1.01 0,1.65 5.23,0.53 5.23,4.02 0,1.84 -1.55,3.11 -3.88,3.11 -2.06,-0.01 -3.48,-1.12 -3.88,-2.79 z"
   id="path52"
   style="fill:#b8b8b8" />
	</g><path
   class="st3"
   d="M 51.064491,139.09585 H 258.11141 c 4.76208,0 8.62696,3.74024 8.62696,8.34876 v 28.38579 c 0,4.60852 -3.86488,8.34876 -8.62696,8.34876 H 51.064491 c -4.762079,0 -8.626955,-3.74024 -8.626955,-8.34876 v -28.38579 c 0,-4.60852 3.856249,-8.34876 8.626955,-8.34876 z"
   id="path56"
   style="fill:#ffffff;stroke:#ececec;stroke-width:1.69734" /><path
   class="st3"
   d="M 51.064491,236.55094 H 258.11141 c 4.76208,0 8.62696,3.74025 8.62696,8.34877 v 28.38578 c 0,4.60852 -3.86488,8.34877 -8.62696,8.34877 H 51.064491 c -4.762079,0 -8.626955,-3.74025 -8.626955,-8.34877 v -28.38578 c 0,-4.60852 3.856249,-8.34877 8.626955,-8.34877 z"
   id="path58"
   style="fill:#ffffff;stroke:#ececec;stroke-width:1.69734" /><g
   class="st1"
   id="g78"
   style="enable-background:new"
   transform="matrix(0.8626955,0,0,0.83487616,15.693972,14.866272)">
		<path
   d="m 46.7,178.67 2.04,-0.43 c 0.16,2.08 1.07,2.74 2.21,2.74 1.19,0 2.1,-0.87 2.1,-2.47 v -9.62 h 2.19 v 9.62 c 0,2.64 -1.75,4.47 -4.29,4.47 -2.51,0 -4.06,-1.59 -4.25,-4.31 z"
   id="path60" />
		<path
   d="m 57.05,178.03 c 0,-2.78 2.14,-4.95 5.03,-4.95 2.91,0 5.05,2.18 5.05,4.95 0,2.78 -2.14,4.95 -5.05,4.95 -2.9,0 -5.03,-2.18 -5.03,-4.95 z m 7.86,0 c 0,-1.73 -1.09,-3.05 -2.84,-3.05 -1.71,0 -2.84,1.32 -2.84,3.05 0,1.73 1.13,3.05 2.84,3.05 1.75,0 2.84,-1.33 2.84,-3.05 z"
   id="path62" />
		<path
   d="m 78.17,177.33 v 5.36 h -2.19 v -5.01 c 0,-1.79 -0.82,-2.6 -2.25,-2.6 -1.5,0 -2.41,1.07 -2.41,2.76 v 4.86 h -2.2 v -13.8 h 2.2 v 5.79 c 0.6,-0.97 1.55,-1.61 2.87,-1.61 2.43,-0.01 3.98,1.45 3.98,4.25 z"
   id="path64" />
		<path
   d="m 89.84,177.33 v 5.36 h -2.19 v -5.01 c 0,-1.79 -0.84,-2.6 -2.25,-2.6 -1.5,0 -2.43,1.07 -2.43,2.76 v 4.86 h -2.2 v -9.32 h 2.2 v 1.32 c 0.62,-0.95 1.57,-1.61 2.89,-1.61 2.43,-0.02 3.98,1.44 3.98,4.24 z"
   id="path66" />
		<path
   d="m 96.56,178.94 2.06,-0.64 c 0.25,1.38 1.19,2.68 3.03,2.68 1.55,0 2.66,-0.74 2.66,-2.14 0,-2.86 -7.26,-1.75 -7.26,-6.1 0,-2.56 2.14,-4.14 4.54,-4.14 2.25,0 3.96,1.22 4.6,3.22 l -2.04,0.56 c -0.29,-0.97 -1.15,-1.81 -2.53,-1.81 -1.19,0 -2.33,0.56 -2.33,1.94 0,2.66 7.26,1.4 7.26,6.16 0,2.6 -1.98,4.29 -4.95,4.29 -2.92,0.02 -4.61,-1.9 -5.04,-4.02 z"
   id="path68" />
		<path
   d="m 122.76,177.04 v 5.65 h -2.19 v -5.23 c 0,-1.75 -0.62,-2.39 -1.75,-2.39 -1.17,0 -2.06,0.82 -2.06,2.41 v 5.21 h -2.19 v -5.23 c 0,-1.75 -0.62,-2.39 -1.77,-2.39 -1.2,0 -2.06,0.91 -2.06,2.54 v 5.07 h -2.2 v -9.32 h 2.2 v 1.17 c 0.54,-0.87 1.48,-1.46 2.54,-1.46 1.44,0 2.45,0.52 2.95,1.65 0.68,-1.2 1.79,-1.65 3.05,-1.65 2.18,0 3.48,1.48 3.48,3.97 z"
   id="path70" />
		<path
   d="m 126.6,169.28 c 0.78,0 1.42,0.6 1.42,1.42 0,0.78 -0.64,1.36 -1.42,1.36 -0.8,0 -1.44,-0.58 -1.44,-1.36 0,-0.83 0.64,-1.42 1.44,-1.42 z m 1.09,13.41 h -2.18 v -9.32 h 2.18 z"
   id="path72" />
		<path
   d="m 133.55,175.19 v 4.6 c 0,0.62 0.17,0.91 0.83,0.91 h 1.3 v 1.98 h -1.38 c -1.92,0 -2.95,-1.13 -2.95,-2.89 v -4.6 h -1.98 v -1.83 h 1.98 v -2.7 l 2.19,-0.52 v 3.22 h 2.52 v 1.83 z"
   id="path74" />
		<path
   d="m 146.81,177.33 v 5.36 h -2.19 v -5.01 c 0,-1.79 -0.82,-2.6 -2.25,-2.6 -1.5,0 -2.41,1.07 -2.41,2.76 v 4.86 h -2.2 v -13.8 h 2.2 v 5.79 c 0.6,-0.97 1.55,-1.61 2.87,-1.61 2.43,-0.01 3.98,1.45 3.98,4.25 z"
   id="path76" />
	</g><g
   class="st1"
   id="g112"
   style="enable-background:new"
   transform="matrix(0.8626955,0,0,0.83487616,15.693972,14.866272)">
		<path
   d="m 49.9,293.13 -0.99,1.69 -1.28,-0.99 1.26,-1.61 -1.86,-0.58 0.49,-1.44 1.73,0.8 -0.12,-1.86 h 1.63 l -0.14,1.84 1.67,-0.78 0.54,1.46 -1.9,0.56 1.24,1.65 -1.34,0.95 z"
   id="path80" />
		<path
   d="m 57.78,293.13 -0.99,1.69 -1.28,-0.99 1.26,-1.61 -1.86,-0.58 0.49,-1.44 1.73,0.8 -0.12,-1.86 h 1.63 l -0.14,1.84 1.67,-0.78 0.54,1.46 -1.9,0.56 1.24,1.65 -1.34,0.95 z"
   id="path82" />
		<path
   d="m 65.67,293.13 -0.99,1.69 -1.28,-0.99 1.26,-1.61 -1.86,-0.58 0.49,-1.44 1.73,0.8 -0.12,-1.86 h 1.63 l -0.14,1.84 1.67,-0.78 0.54,1.46 -1.9,0.56 1.24,1.65 -1.34,0.95 z"
   id="path84" />
		<path
   d="m 73.55,293.13 -0.99,1.69 -1.28,-0.99 1.26,-1.61 -1.86,-0.58 0.49,-1.44 1.73,0.8 -0.12,-1.86 h 1.63 l -0.14,1.84 1.67,-0.78 0.54,1.46 -1.9,0.56 1.24,1.65 -1.34,0.95 z"
   id="path86" />
		<path
   d="m 86.15,293.13 -0.99,1.69 -1.28,-0.99 1.26,-1.61 -1.86,-0.58 0.49,-1.44 1.73,0.8 -0.12,-1.86 h 1.63 l -0.14,1.84 1.67,-0.78 0.54,1.46 -1.9,0.56 1.24,1.65 -1.34,0.95 z"
   id="path88" />
		<path
   d="m 94.04,293.13 -0.99,1.69 -1.28,-0.99 1.26,-1.61 -1.86,-0.58 0.49,-1.44 1.73,0.8 -0.12,-1.86 h 1.63 l -0.14,1.84 1.67,-0.78 0.54,1.46 -1.9,0.56 1.24,1.65 -1.34,0.95 z"
   id="path90" />
		<path
   d="m 101.92,293.13 -0.99,1.69 -1.28,-0.99 1.26,-1.61 -1.86,-0.58 0.49,-1.44 1.73,0.8 -0.12,-1.86 h 1.63 l -0.14,1.84 1.67,-0.78 0.54,1.46 -1.9,0.56 1.24,1.65 -1.34,0.95 z"
   id="path92" />
		<path
   d="m 109.8,293.13 -0.99,1.69 -1.28,-0.99 1.26,-1.61 -1.86,-0.58 0.49,-1.44 1.73,0.8 -0.12,-1.86 h 1.63 l -0.14,1.84 1.67,-0.78 0.54,1.46 -1.9,0.56 1.24,1.65 -1.34,0.95 z"
   id="path94" />
		<path
   d="m 122.4,293.13 -0.99,1.69 -1.28,-0.99 1.26,-1.61 -1.86,-0.58 0.49,-1.44 1.73,0.8 -0.12,-1.86 h 1.63 l -0.14,1.84 1.67,-0.78 0.54,1.46 -1.9,0.56 1.24,1.65 -1.34,0.95 z"
   id="path96" />
		<path
   d="m 130.29,293.13 -0.99,1.69 -1.28,-0.99 1.26,-1.61 -1.86,-0.58 0.49,-1.44 1.73,0.8 -0.12,-1.86 h 1.63 l -0.14,1.84 1.67,-0.78 0.54,1.46 -1.9,0.56 1.24,1.65 -1.34,0.95 z"
   id="path98" />
		<path
   d="m 138.17,293.13 -0.99,1.69 -1.28,-0.99 1.26,-1.61 -1.86,-0.58 0.49,-1.44 1.73,0.8 -0.12,-1.86 h 1.63 l -0.14,1.84 1.67,-0.78 0.54,1.46 -1.9,0.56 1.24,1.65 -1.34,0.95 z"
   id="path100" />
		<path
   d="m 146.05,293.13 -0.99,1.69 -1.28,-0.99 1.26,-1.61 -1.86,-0.58 0.49,-1.44 1.73,0.8 -0.12,-1.86 h 1.63 l -0.14,1.84 1.67,-0.78 0.54,1.46 -1.9,0.56 1.24,1.65 -1.34,0.95 z"
   id="path102" />
		<path
   d="m 165.92,298.43 c 0,2.68 -2.27,4.78 -5.07,4.78 -2.49,0 -4.51,-1.69 -4.95,-3.81 l 2.18,-0.52 c 0.23,1.26 1.34,2.31 2.78,2.31 1.57,0 2.86,-1.19 2.86,-2.76 0,-1.69 -1.2,-2.89 -2.86,-2.89 -1.07,0 -1.94,0.43 -2.7,1.32 l -1.86,-0.49 1.63,-7.25 h 7.5 v 1.98 h -5.92 l -0.76,3.13 c 0.78,-0.45 1.65,-0.72 2.51,-0.72 2.62,0.01 4.66,2.12 4.66,4.92 z"
   id="path104" />
		<path
   d="m 178.41,299.05 c 0,2.45 -2.18,4.16 -5.11,4.16 -2.95,0 -5.09,-1.69 -5.09,-4.14 0,-1.57 0.8,-2.84 2.33,-3.5 -1.24,-0.66 -1.86,-1.61 -1.86,-3.03 0,-2.23 2.1,-3.71 4.62,-3.71 2.52,0 4.64,1.52 4.64,3.71 0,1.42 -0.62,2.37 -1.88,3.03 1.53,0.65 2.35,1.89 2.35,3.48 z m -2.22,-0.13 c 0,-1.5 -1.17,-2.35 -2.89,-2.35 -1.67,0 -2.88,0.89 -2.88,2.37 0,1.36 1.13,2.29 2.88,2.29 1.71,0 2.89,-0.97 2.89,-2.31 z m -5.3,-6.24 c 0,1.28 1.07,2.04 2.41,2.04 1.46,0 2.43,-0.72 2.43,-2.04 0,-1.15 -1.05,-1.87 -2.43,-1.87 -1.38,0.01 -2.41,0.73 -2.41,1.87 z"
   id="path106" />
		<path
   d="m 189.8,298.61 c 0,2.58 -2.18,4.6 -4.84,4.6 -2.39,0 -4.47,-1.67 -4.84,-3.87 l 2.21,-0.5 c 0.14,1.32 1.28,2.31 2.62,2.31 1.44,0 2.62,-1.03 2.62,-2.54 0,-1.73 -1.18,-2.84 -2.91,-2.74 -0.43,0 -0.93,0.19 -1.38,0.45 l -0.8,-1.5 3.96,-3.71 h -5.79 v -1.98 h 8.84 v 1.63 l -3.75,3.44 c 2.55,0.15 4.06,2.09 4.06,4.41 z"
   id="path108" />
		<path
   d="m 202.21,299.05 c 0,2.45 -2.18,4.16 -5.11,4.16 -2.95,0 -5.09,-1.69 -5.09,-4.14 0,-1.57 0.8,-2.84 2.33,-3.5 -1.24,-0.66 -1.86,-1.61 -1.86,-3.03 0,-2.23 2.1,-3.71 4.62,-3.71 2.52,0 4.64,1.52 4.64,3.71 0,1.42 -0.62,2.37 -1.88,3.03 1.54,0.65 2.35,1.89 2.35,3.48 z M 200,298.92 c 0,-1.5 -1.17,-2.35 -2.89,-2.35 -1.67,0 -2.88,0.89 -2.88,2.37 0,1.36 1.13,2.29 2.88,2.29 1.7,0 2.89,-0.97 2.89,-2.31 z m -5.31,-6.24 c 0,1.28 1.07,2.04 2.41,2.04 1.46,0 2.43,-0.72 2.43,-2.04 0,-1.15 -1.05,-1.87 -2.43,-1.87 -1.38,0.01 -2.41,0.73 -2.41,1.87 z"
   id="path110" />
	</g><path
   class="st15"
   d="m 407.21,307.55412 h -180 c -5.52,0 -10,-2.03295 -10,-4.53786 V 200.91439 c 0,-2.50491 4.48,-4.53787 10,-4.53787 h 180 c 5.52,0 10,2.03296 10,4.53787 v 102.10187 c 0,2.50491 -4.48,4.53786 -10,4.53786 z"
   id="path3962"
   style="stroke-width:0.673636" /><text
   xml:space="preserve"
   id="text4643"
   style="font-size:26.6667px;font-family:Forth;-inkscape-font-specification:Forth;text-align:center;white-space:pre;shape-inside:url(#rect4645);fill:#ffffff;stroke-opacity:0.839216"
   transform="translate(0,68)"><tspan
     x="269.70121"
     y="177.60216"
     id="tspan5024">BR-DGE
</tspan><tspan
     x="263.64296"
     y="210.93553"
     id="tspan5026">Web SDK</tspan></text></g>
</svg>
