<?xml version="1.0" encoding="UTF-8" standalone="no"?>
<!-- Generator: Adobe Illustrator 26.0.3, SVG Export Plug-In . SVG Version: 6.00 Build 0)  -->

<svg
   version="1.1"
   id="Layer_1"
   x="0px"
   y="0px"
   viewBox="0 0 891.26 870.63993"
   xml:space="preserve"
   sodipodi:docname="comcarde-web-comcarde-hosted-fields-module-components.svg"
   width="891.26001"
   height="870.63995"
   inkscape:version="1.2.1 (9c6d41e4, 2022-07-14)"
   xmlns:inkscape="http://www.inkscape.org/namespaces/inkscape"
   xmlns:sodipodi="http://sodipodi.sourceforge.net/DTD/sodipodi-0.dtd"
   xmlns="http://www.w3.org/2000/svg"
   xmlns:svg="http://www.w3.org/2000/svg"><defs
   id="defs945"><rect
     x="23.761431"
     y="154.00927"
     width="276.33664"
     height="143.44864"
     id="rect2870" /><rect
     x="339.70045"
     y="386.34326"
     width="146.0888"
     height="163.68986"
     id="rect2817" /><rect
     x="62.483761"
     y="485.78925"
     width="195.37177"
     height="111.76673"
     id="rect1282" /><rect
     x="66.498276"
     y="40.510441"
     width="191.85133"
     height="44.332184"
     id="rect3674" /><rect
     x="62.483761"
     y="485.78925"
     width="195.37177"
     height="111.76673"
     id="rect1282-9" /><rect
     x="645.54578"
     y="15.927834"
     width="174.26926"
     height="59.963612"
     id="rect908" /><rect
     x="62.483761"
     y="485.78925"
     width="195.37177"
     height="111.76673"
     id="rect1282-6" /></defs><sodipodi:namedview
   id="namedview943"
   pagecolor="#ffffff"
   bordercolor="#000000"
   borderopacity="0.25"
   inkscape:showpageshadow="2"
   inkscape:pageopacity="0.0"
   inkscape:pagecheckerboard="0"
   inkscape:deskcolor="#d1d1d1"
   showgrid="false"
   inkscape:zoom="0.93802178"
   inkscape:cx="125.26362"
   inkscape:cy="402.44268"
   inkscape:window-width="2560"
   inkscape:window-height="1387"
   inkscape:window-x="0"
   inkscape:window-y="25"
   inkscape:window-maximized="1"
   inkscape:current-layer="g940" />
<style
   type="text/css"
   id="style2">
	.st0{opacity:0.72;fill:#7BDFA7;enable-background:new;}
	.st1{stroke:#999;stroke-width:1.5;}
	.st2{fill:none;stroke:#CCC;stroke-width:2;}
	.st3{enable-background:new;fill:#999;}
	.st4{fill:#FFFFFF;}
	.st5{fill:#ECECEC;}
	.st6{fill:none;stroke:#FFFFFF;stroke-miterlimit:10;}
	.st7{fill:#558A72;}
	.st8{fill:#95DCAB;}
	.st9{fill:#D4D4D4;}
	.st10{fill:#646363;}
	.st11{fill:none;stroke:#999;stroke-width:1.5;stroke-miterlimit:10;}
	.st12{fill:#7BDFA7;stroke:#CCC;stroke-width:2;stroke-miterlimit:10;opacity:0.75}
	.st13{fill:#7BDFA7;}
	.st14{enable-background:new;fill:#FFF;}
</style>
<g
   id="g940"
   transform="translate(0,39.869952)">
	<rect
   x="1"
   y="102.66"
   class="st12"
   width="320"
   height="116.67"
   id="rect4" />
	<path
   class="st0"
   d="m 860.26,707.25 h -260 c -16.57,0 -30,-13.43 -30,-30 V 153.59 c 0,-16.57 13.43,-30 30,-30 h 260 c 16.57,0 30,13.43 30,30 v 523.67 c 0,16.56 -13.43,29.99 -30,29.99 z"
   id="path6" />
	<path
   id="Path_3462_00000077288862367329625810000015493449189801827973_"
   class="st1"
   d="m 161,418.86 v 40" />
	<path
   id="Path_3462_00000105406838746993260010000011820110302265361329_"
   class="st1"
   d="m 161,321 v 35.37" />
	<circle
   id="Ellipse_257_00000147921283200100640150000011036634683777490095_"
   cx="161"
   cy="458.85999"
   r="5"
   fill="#999999" /><path
   id="Path_3462_00000077288862367329625810000015493449189801827973_-9"
   class="st1"
   d="M 161.60636,220.30068 V 255.9747"
   style="stroke:#999999;stroke-width:1.41657" /><circle
   id="Ellipse_257_00000147921283200100640150000011036634683777490095_-7"
   cx="161.60635"
   cy="258.30066"
   r="5"
   fill="#999999" />
	<path
   class="st2"
   d="M 291,829.77 H 31 c -16.57,0 -30,-13.43 -30,-30 v -260 c 0,-16.57 13.43,-30 30,-30 h 260 c 16.57,0 30,13.43 30,30 v 260 c 0,16.57 -13.44,30 -30,30 z"
   id="path11" />
	<path
   class="st1"
   d="M 261,554.06 H 61 c -5.52,0 -10,-4.48 -10,-10 v -60 c 0,-5.52 4.48,-10 10,-10 h 200 c 5.52,0 10,4.48 10,10 v 60 c 0,5.53 -4.48,10 -10,10 z"
   id="path13" />
	<rect
   class="st0"
   x="1"
   y="102.66"
   width="320"
   height="116.67"
   id="rect15" />
	
	<path
   class="st2"
   d="M 291,321 H 31 C 14.43,321 1,307.57 1,291 V 31 C 1,14.43 14.43,1 31,1 h 260 c 16.57,0 30,13.43 30,30 v 260 c 0,16.56 -13.44,30 -30,30 z"
   id="path67" />
	<g
   id="g227">
		<g
   id="g111">
			<g
   id="g109">
				<rect
   x="43.5"
   y="604.77002"
   class="st5"
   width="235"
   height="65"
   id="rect69" />
				<rect
   x="51"
   y="612.27002"
   class="st6"
   width="157.5"
   height="50"
   id="rect71" />
				<rect
   x="58.5"
   y="617.27002"
   class="st7"
   width="5"
   height="40"
   id="rect73" />
				<rect
   x="71"
   y="617.27002"
   class="st7"
   width="5"
   height="40"
   id="rect75" />
				<rect
   x="83.5"
   y="617.27002"
   class="st7"
   width="5"
   height="40"
   id="rect77" />
				<rect
   x="96"
   y="617.27002"
   class="st7"
   width="5"
   height="40"
   id="rect79" />
				<rect
   x="108.5"
   y="617.27002"
   class="st7"
   width="5"
   height="40"
   id="rect81" />
				<rect
   x="121"
   y="617.27002"
   class="st7"
   width="5"
   height="40"
   id="rect83" />
				<rect
   x="133.5"
   y="617.27002"
   class="st7"
   width="5"
   height="40"
   id="rect85" />
				<rect
   x="146"
   y="617.27002"
   class="st7"
   width="5"
   height="40"
   id="rect87" />
				<rect
   x="158.5"
   y="617.27002"
   class="st7"
   width="5"
   height="40"
   id="rect89" />
				<rect
   x="171"
   y="617.27002"
   class="st7"
   width="5"
   height="40"
   id="rect91" />
				<rect
   x="183.5"
   y="617.27002"
   class="st8"
   width="5"
   height="40"
   id="rect93" />
				<rect
   x="196"
   y="617.27002"
   class="st7"
   width="5"
   height="40"
   id="rect95" />
				<rect
   x="263.5"
   y="612.27002"
   class="st7"
   width="7.5"
   height="50"
   id="rect97" />
				<circle
   class="st7"
   cx="252"
   cy="616.27002"
   r="4"
   id="circle99" />
				<circle
   class="st8"
   cx="252"
   cy="630.27002"
   r="4"
   id="circle101" />
				<circle
   class="st4"
   cx="252"
   cy="658.27002"
   r="4"
   id="circle103" />
				<circle
   class="st7"
   cx="252"
   cy="644.27002"
   r="4"
   id="circle105" />
				<rect
   x="51"
   y="669.77002"
   class="st9"
   width="220"
   height="5"
   id="rect107" />
			</g>
		</g>
		<g
   id="g225">
			<g
   id="g117">
				<rect
   x="43.5"
   y="674.77002"
   class="st5"
   width="235"
   height="65"
   id="rect113" />
				<rect
   x="51"
   y="739.77002"
   class="st9"
   width="220"
   height="5"
   id="rect115" />
			</g>
			<g
   id="g215">
				<rect
   x="51"
   y="685.33002"
   class="st9"
   width="5"
   height="5"
   id="rect119" />
				<rect
   x="61"
   y="685.33002"
   class="st9"
   width="5"
   height="5"
   id="rect121" />
				<rect
   x="71"
   y="685.33002"
   class="st9"
   width="5"
   height="5"
   id="rect123" />
				<rect
   x="81"
   y="685.33002"
   class="st9"
   width="5"
   height="5"
   id="rect125" />
				<rect
   x="91"
   y="685.33002"
   class="st9"
   width="5"
   height="5"
   id="rect127" />
				<rect
   x="101"
   y="685.33002"
   class="st9"
   width="5"
   height="5"
   id="rect129" />
				<rect
   x="111"
   y="685.33002"
   class="st9"
   width="5"
   height="5"
   id="rect131" />
				<rect
   x="121"
   y="685.33002"
   class="st9"
   width="5"
   height="5"
   id="rect133" />
				<rect
   x="131"
   y="685.33002"
   class="st9"
   width="5"
   height="5"
   id="rect135" />
				<rect
   x="141"
   y="685.33002"
   class="st9"
   width="5"
   height="5"
   id="rect137" />
				<rect
   x="56"
   y="695.33002"
   class="st9"
   width="5"
   height="5"
   id="rect139" />
				<rect
   x="66"
   y="695.33002"
   class="st9"
   width="5"
   height="5"
   id="rect141" />
				<rect
   x="76"
   y="695.33002"
   class="st9"
   width="5"
   height="5"
   id="rect143" />
				<rect
   x="86"
   y="695.33002"
   class="st9"
   width="5"
   height="5"
   id="rect145" />
				<rect
   x="96"
   y="695.33002"
   class="st9"
   width="5"
   height="5"
   id="rect147" />
				<rect
   x="106"
   y="695.33002"
   class="st9"
   width="5"
   height="5"
   id="rect149" />
				<rect
   x="116"
   y="695.33002"
   class="st9"
   width="5"
   height="5"
   id="rect151" />
				<rect
   x="126"
   y="695.33002"
   class="st9"
   width="5"
   height="5"
   id="rect153" />
				<rect
   x="136"
   y="695.33002"
   class="st9"
   width="5"
   height="5"
   id="rect155" />
				<rect
   x="51"
   y="705.33002"
   class="st9"
   width="5"
   height="5"
   id="rect157" />
				<rect
   x="61"
   y="705.33002"
   class="st9"
   width="5"
   height="5"
   id="rect159" />
				<rect
   x="71"
   y="705.33002"
   class="st9"
   width="5"
   height="5"
   id="rect161" />
				<rect
   x="81"
   y="705.33002"
   class="st9"
   width="5"
   height="5"
   id="rect163" />
				<rect
   x="91"
   y="705.33002"
   class="st9"
   width="5"
   height="5"
   id="rect165" />
				<rect
   x="101"
   y="705.33002"
   class="st9"
   width="5"
   height="5"
   id="rect167" />
				<rect
   x="111"
   y="705.33002"
   class="st9"
   width="5"
   height="5"
   id="rect169" />
				<rect
   x="121"
   y="705.33002"
   class="st9"
   width="5"
   height="5"
   id="rect171" />
				<rect
   x="131"
   y="705.33002"
   class="st9"
   width="5"
   height="5"
   id="rect173" />
				<rect
   x="141"
   y="705.33002"
   class="st9"
   width="5"
   height="5"
   id="rect175" />
				<rect
   x="56"
   y="715.33002"
   class="st9"
   width="5"
   height="5"
   id="rect177" />
				<rect
   x="66"
   y="715.33002"
   class="st9"
   width="5"
   height="5"
   id="rect179" />
				<rect
   x="76"
   y="715.33002"
   class="st9"
   width="5"
   height="5"
   id="rect181" />
				<rect
   x="86"
   y="715.33002"
   class="st9"
   width="5"
   height="5"
   id="rect183" />
				<rect
   x="96"
   y="715.33002"
   class="st9"
   width="5"
   height="5"
   id="rect185" />
				<rect
   x="106"
   y="715.33002"
   class="st9"
   width="5"
   height="5"
   id="rect187" />
				<rect
   x="116"
   y="715.33002"
   class="st9"
   width="5"
   height="5"
   id="rect189" />
				<rect
   x="126"
   y="715.33002"
   class="st9"
   width="5"
   height="5"
   id="rect191" />
				<rect
   x="136"
   y="715.33002"
   class="st9"
   width="5"
   height="5"
   id="rect193" />
				<rect
   x="51"
   y="725.33002"
   class="st9"
   width="5"
   height="5"
   id="rect195" />
				<rect
   x="61"
   y="725.33002"
   class="st9"
   width="5"
   height="5"
   id="rect197" />
				<rect
   x="71"
   y="725.33002"
   class="st9"
   width="5"
   height="5"
   id="rect199" />
				<rect
   x="81"
   y="725.33002"
   class="st9"
   width="5"
   height="5"
   id="rect201" />
				<rect
   x="91"
   y="725.33002"
   class="st9"
   width="5"
   height="5"
   id="rect203" />
				<rect
   x="101"
   y="725.33002"
   class="st9"
   width="5"
   height="5"
   id="rect205" />
				<rect
   x="111"
   y="725.33002"
   class="st9"
   width="5"
   height="5"
   id="rect207" />
				<rect
   x="121"
   y="725.33002"
   class="st9"
   width="5"
   height="5"
   id="rect209" />
				<rect
   x="131"
   y="725.33002"
   class="st9"
   width="5"
   height="5"
   id="rect211" />
				<rect
   x="141"
   y="725.33002"
   class="st9"
   width="5"
   height="5"
   id="rect213" />
			</g>
			<rect
   x="258.5"
   y="682.27002"
   class="st6"
   width="12.5"
   height="50"
   id="rect217" />
			<path
   class="st10"
   d="m 264.75,707.3 v 0 c -2.07,0 -3.75,-1.68 -3.75,-3.75 v -15.03 c 0,-2.07 1.68,-3.75 3.75,-3.75 v 0 c 2.07,0 3.75,1.68 3.75,3.75 v 15.03 c 0,2.07 -1.68,3.75 -3.75,3.75 z"
   id="path219" />
			<circle
   class="st4"
   cx="264.75"
   cy="725.33002"
   r="4"
   id="circle221" />
			<circle
   cx="264.75"
   cy="688.77002"
   r="2.5"
   id="circle223" />
		</g>
	</g>
	<path
   id="Path_3462_00000051366179012674298570000002464352225173285508_"
   class="st11"
   d="m 320.63,619.77 h 250" />
	<path
   class="st12"
   d="m 860.26,707.25 h -260 c -16.57,0 -30,-13.43 -30,-30 V 153.59 c 0,-16.57 13.43,-30 30,-30 h 260 c 16.57,0 30,13.43 30,30 v 523.67 c 0,16.56 -13.43,29.99 -30,29.99 z"
   id="path230" />
	<path
   id="Path_3462_00000003063669701080956700000014379712910499418038_"
   class="st11"
   d="m 320.63,211.33 h 250" />
	<circle
   id="Ellipse_257_00000166659905405051511940000016225762412633164675_"
   cx="570.63"
   cy="211"
   r="5"
   fill="#999999" />
	<circle
   id="Ellipse_257_00000176732398701335258860000002252514520572641465_"
   cx="570.63"
   cy="619.77002"
   r="5"
   fill="#999999" />
	<g
   id="g561">
		<g
   id="g445">
			<g
   id="g275">
				<rect
   x="612.76001"
   y="504.35999"
   class="st5"
   width="235"
   height="65"
   id="rect235" />
				<rect
   x="620.26001"
   y="511.85999"
   class="st6"
   width="157.5"
   height="50"
   id="rect237" />
				<rect
   x="627.76001"
   y="516.85999"
   class="st8"
   width="5"
   height="40"
   id="rect239" />
				<rect
   x="640.26001"
   y="516.85999"
   class="st7"
   width="5"
   height="40"
   id="rect241" />
				<rect
   x="652.76001"
   y="516.85999"
   class="st7"
   width="5"
   height="40"
   id="rect243" />
				<rect
   x="665.26001"
   y="516.85999"
   class="st7"
   width="5"
   height="40"
   id="rect245" />
				<rect
   x="677.76001"
   y="516.85999"
   class="st7"
   width="5"
   height="40"
   id="rect247" />
				<rect
   x="690.26001"
   y="516.85999"
   class="st7"
   width="5"
   height="40"
   id="rect249" />
				<rect
   x="702.76001"
   y="516.85999"
   class="st7"
   width="5"
   height="40"
   id="rect251" />
				<rect
   x="715.26001"
   y="516.85999"
   class="st7"
   width="5"
   height="40"
   id="rect253" />
				<rect
   x="727.76001"
   y="516.85999"
   class="st7"
   width="5"
   height="40"
   id="rect255" />
				<rect
   x="740.26001"
   y="516.85999"
   class="st7"
   width="5"
   height="40"
   id="rect257" />
				<rect
   x="752.76001"
   y="516.85999"
   class="st7"
   width="5"
   height="40"
   id="rect259" />
				<rect
   x="765.26001"
   y="516.85999"
   class="st7"
   width="5"
   height="40"
   id="rect261" />
				<rect
   x="832.76001"
   y="511.85999"
   class="st7"
   width="7.5"
   height="50"
   id="rect263" />
				<circle
   class="st4"
   cx="821.26001"
   cy="515.85999"
   r="4"
   id="circle265" />
				<circle
   class="st7"
   cx="821.26001"
   cy="529.85999"
   r="4"
   id="circle267" />
				<circle
   class="st7"
   cx="821.26001"
   cy="557.85999"
   r="4"
   id="circle269" />
				<circle
   class="st8"
   cx="821.26001"
   cy="543.85999"
   r="4"
   id="circle271" />
				<rect
   x="620.26001"
   y="569.35999"
   class="st9"
   width="220"
   height="5"
   id="rect273" />
			</g>
			<g
   id="g317">
				<rect
   x="612.76001"
   y="434.35999"
   class="st5"
   width="235"
   height="65"
   id="rect277" />
				<rect
   x="620.26001"
   y="441.85999"
   class="st6"
   width="157.5"
   height="50"
   id="rect279" />
				<rect
   x="627.76001"
   y="446.85999"
   class="st7"
   width="5"
   height="40"
   id="rect281" />
				<rect
   x="640.26001"
   y="446.85999"
   class="st7"
   width="5"
   height="40"
   id="rect283" />
				<rect
   x="652.76001"
   y="446.85999"
   class="st7"
   width="5"
   height="40"
   id="rect285" />
				<rect
   x="665.26001"
   y="446.85999"
   class="st7"
   width="5"
   height="40"
   id="rect287" />
				<rect
   x="677.76001"
   y="446.85999"
   class="st7"
   width="5"
   height="40"
   id="rect289" />
				<rect
   x="690.26001"
   y="446.85999"
   class="st7"
   width="5"
   height="40"
   id="rect291" />
				<rect
   x="702.76001"
   y="446.85999"
   class="st7"
   width="5"
   height="40"
   id="rect293" />
				<rect
   x="715.26001"
   y="446.85999"
   class="st7"
   width="5"
   height="40"
   id="rect295" />
				<rect
   x="727.76001"
   y="446.85999"
   class="st7"
   width="5"
   height="40"
   id="rect297" />
				<rect
   x="740.26001"
   y="446.85999"
   class="st7"
   width="5"
   height="40"
   id="rect299" />
				<rect
   x="752.76001"
   y="446.85999"
   class="st8"
   width="5"
   height="40"
   id="rect301" />
				<rect
   x="765.26001"
   y="446.85999"
   class="st7"
   width="5"
   height="40"
   id="rect303" />
				<rect
   x="832.76001"
   y="441.85999"
   class="st7"
   width="7.5"
   height="50"
   id="rect305" />
				<circle
   class="st8"
   cx="821.26001"
   cy="445.85999"
   r="4"
   id="circle307" />
				<circle
   class="st7"
   cx="821.26001"
   cy="459.85999"
   r="4"
   id="circle309" />
				<circle
   class="st4"
   cx="821.26001"
   cy="487.85999"
   r="4"
   id="circle311" />
				<circle
   class="st7"
   cx="821.26001"
   cy="473.85999"
   r="4"
   id="circle313" />
				<rect
   x="620.26001"
   y="499.35999"
   class="st9"
   width="220"
   height="5"
   id="rect315" />
			</g>
			<g
   id="g359">
				<rect
   x="612.76001"
   y="364.35999"
   class="st5"
   width="235"
   height="65"
   id="rect319" />
				<rect
   x="620.26001"
   y="371.85999"
   class="st6"
   width="157.5"
   height="50"
   id="rect321" />
				<rect
   x="627.76001"
   y="376.85999"
   class="st7"
   width="5"
   height="40"
   id="rect323" />
				<rect
   x="640.26001"
   y="376.85999"
   class="st7"
   width="5"
   height="40"
   id="rect325" />
				<rect
   x="652.76001"
   y="376.85999"
   class="st7"
   width="5"
   height="40"
   id="rect327" />
				<rect
   x="665.26001"
   y="376.85999"
   class="st7"
   width="5"
   height="40"
   id="rect329" />
				<rect
   x="677.76001"
   y="376.85999"
   class="st8"
   width="5"
   height="40"
   id="rect331" />
				<rect
   x="690.26001"
   y="376.85999"
   class="st7"
   width="5"
   height="40"
   id="rect333" />
				<rect
   x="702.76001"
   y="376.85999"
   class="st7"
   width="5"
   height="40"
   id="rect335" />
				<rect
   x="715.26001"
   y="376.85999"
   class="st7"
   width="5"
   height="40"
   id="rect337" />
				<rect
   x="727.76001"
   y="376.85999"
   class="st7"
   width="5"
   height="40"
   id="rect339" />
				<rect
   x="740.26001"
   y="376.85999"
   class="st7"
   width="5"
   height="40"
   id="rect341" />
				<rect
   x="752.76001"
   y="376.85999"
   class="st7"
   width="5"
   height="40"
   id="rect343" />
				<rect
   x="765.26001"
   y="376.85999"
   class="st7"
   width="5"
   height="40"
   id="rect345" />
				<rect
   x="832.76001"
   y="371.85999"
   class="st7"
   width="7.5"
   height="50"
   id="rect347" />
				<circle
   class="st7"
   cx="821.26001"
   cy="375.85999"
   r="4"
   id="circle349" />
				<circle
   class="st8"
   cx="821.26001"
   cy="389.85999"
   r="4"
   id="circle351" />
				<circle
   class="st7"
   cx="821.26001"
   cy="417.85999"
   r="4"
   id="circle353" />
				<circle
   class="st4"
   cx="821.26001"
   cy="403.85999"
   r="4"
   id="circle355" />
				<rect
   x="620.26001"
   y="429.35999"
   class="st9"
   width="220"
   height="5"
   id="rect357" />
			</g>
			<g
   id="g401">
				<rect
   x="612.76001"
   y="294.35999"
   class="st5"
   width="235"
   height="65"
   id="rect361" />
				<rect
   x="620.26001"
   y="301.85999"
   class="st6"
   width="157.5"
   height="50"
   id="rect363" />
				<rect
   x="627.76001"
   y="306.85999"
   class="st7"
   width="5"
   height="40"
   id="rect365" />
				<rect
   x="640.26001"
   y="306.85999"
   class="st7"
   width="5"
   height="40"
   id="rect367" />
				<rect
   x="652.76001"
   y="306.85999"
   class="st7"
   width="5"
   height="40"
   id="rect369" />
				<rect
   x="665.26001"
   y="306.85999"
   class="st7"
   width="5"
   height="40"
   id="rect371" />
				<rect
   x="677.76001"
   y="306.85999"
   class="st7"
   width="5"
   height="40"
   id="rect373" />
				<rect
   x="690.26001"
   y="306.85999"
   class="st7"
   width="5"
   height="40"
   id="rect375" />
				<rect
   x="702.76001"
   y="306.85999"
   class="st7"
   width="5"
   height="40"
   id="rect377" />
				<rect
   x="715.26001"
   y="306.85999"
   class="st7"
   width="5"
   height="40"
   id="rect379" />
				<rect
   x="727.76001"
   y="306.85999"
   class="st7"
   width="5"
   height="40"
   id="rect381" />
				<rect
   x="740.26001"
   y="306.85999"
   class="st7"
   width="5"
   height="40"
   id="rect383" />
				<rect
   x="752.76001"
   y="306.85999"
   class="st7"
   width="5"
   height="40"
   id="rect385" />
				<rect
   x="765.26001"
   y="306.85999"
   class="st8"
   width="5"
   height="40"
   id="rect387" />
				<rect
   x="832.76001"
   y="301.85999"
   class="st7"
   width="7.5"
   height="50"
   id="rect389" />
				<circle
   class="st8"
   cx="821.26001"
   cy="305.85999"
   r="4"
   id="circle391" />
				<circle
   class="st7"
   cx="821.26001"
   cy="319.85999"
   r="4"
   id="circle393" />
				<circle
   class="st4"
   cx="821.26001"
   cy="347.85999"
   r="4"
   id="circle395" />
				<circle
   class="st7"
   cx="821.26001"
   cy="333.85999"
   r="4"
   id="circle397" />
				<rect
   x="620.26001"
   y="359.35999"
   class="st9"
   width="220"
   height="5"
   id="rect399" />
			</g>
			<g
   id="g443">
				<rect
   x="612.76001"
   y="224.36"
   class="st5"
   width="235"
   height="65"
   id="rect403" />
				<rect
   x="620.26001"
   y="231.86"
   class="st6"
   width="157.5"
   height="50"
   id="rect405" />
				<rect
   x="627.76001"
   y="236.86"
   class="st7"
   width="5"
   height="40"
   id="rect407" />
				<rect
   x="640.26001"
   y="236.86"
   class="st8"
   width="5"
   height="40"
   id="rect409" />
				<rect
   x="652.76001"
   y="236.86"
   class="st7"
   width="5"
   height="40"
   id="rect411" />
				<rect
   x="665.26001"
   y="236.86"
   class="st7"
   width="5"
   height="40"
   id="rect413" />
				<rect
   x="677.76001"
   y="236.86"
   class="st7"
   width="5"
   height="40"
   id="rect415" />
				<rect
   x="690.26001"
   y="236.86"
   class="st7"
   width="5"
   height="40"
   id="rect417" />
				<rect
   x="702.76001"
   y="236.86"
   class="st7"
   width="5"
   height="40"
   id="rect419" />
				<rect
   x="715.26001"
   y="236.86"
   class="st7"
   width="5"
   height="40"
   id="rect421" />
				<rect
   x="727.76001"
   y="236.86"
   class="st7"
   width="5"
   height="40"
   id="rect423" />
				<rect
   x="740.26001"
   y="236.86"
   class="st7"
   width="5"
   height="40"
   id="rect425" />
				<rect
   x="752.76001"
   y="236.86"
   class="st7"
   width="5"
   height="40"
   id="rect427" />
				<rect
   x="765.26001"
   y="236.86"
   class="st7"
   width="5"
   height="40"
   id="rect429" />
				<rect
   x="832.76001"
   y="231.86"
   class="st7"
   width="7.5"
   height="50"
   id="rect431" />
				<circle
   class="st7"
   cx="821.26001"
   cy="235.86"
   r="4"
   id="circle433" />
				<circle
   class="st4"
   cx="821.26001"
   cy="249.86"
   r="4"
   id="circle435" />
				<circle
   class="st8"
   cx="821.26001"
   cy="277.85999"
   r="4"
   id="circle437" />
				<circle
   class="st7"
   cx="821.26001"
   cy="263.85999"
   r="4"
   id="circle439" />
				<rect
   x="620.26001"
   y="289.35999"
   class="st9"
   width="220"
   height="5"
   id="rect441" />
			</g>
		</g>
		<g
   id="g559">
			<g
   id="g451">
				<rect
   x="612.76001"
   y="574.35999"
   class="st5"
   width="235"
   height="65"
   id="rect447" />
				<rect
   x="620.26001"
   y="639.35999"
   class="st9"
   width="220"
   height="5"
   id="rect449" />
			</g>
			<g
   id="g549">
				<rect
   x="620.26001"
   y="584.91998"
   class="st9"
   width="5"
   height="5"
   id="rect453" />
				<rect
   x="630.26001"
   y="584.91998"
   class="st9"
   width="5"
   height="5"
   id="rect455" />
				<rect
   x="640.26001"
   y="584.91998"
   class="st9"
   width="5"
   height="5"
   id="rect457" />
				<rect
   x="650.26001"
   y="584.91998"
   class="st9"
   width="5"
   height="5"
   id="rect459" />
				<rect
   x="660.26001"
   y="584.91998"
   class="st9"
   width="5"
   height="5"
   id="rect461" />
				<rect
   x="670.26001"
   y="584.91998"
   class="st9"
   width="5"
   height="5"
   id="rect463" />
				<rect
   x="680.26001"
   y="584.91998"
   class="st9"
   width="5"
   height="5"
   id="rect465" />
				<rect
   x="690.26001"
   y="584.91998"
   class="st9"
   width="5"
   height="5"
   id="rect467" />
				<rect
   x="700.26001"
   y="584.91998"
   class="st9"
   width="5"
   height="5"
   id="rect469" />
				<rect
   x="710.26001"
   y="584.91998"
   class="st9"
   width="5"
   height="5"
   id="rect471" />
				<rect
   x="625.26001"
   y="594.91998"
   class="st9"
   width="5"
   height="5"
   id="rect473" />
				<rect
   x="635.26001"
   y="594.91998"
   class="st9"
   width="5"
   height="5"
   id="rect475" />
				<rect
   x="645.26001"
   y="594.91998"
   class="st9"
   width="5"
   height="5"
   id="rect477" />
				<rect
   x="655.26001"
   y="594.91998"
   class="st9"
   width="5"
   height="5"
   id="rect479" />
				<rect
   x="665.26001"
   y="594.91998"
   class="st9"
   width="5"
   height="5"
   id="rect481" />
				<rect
   x="675.26001"
   y="594.91998"
   class="st9"
   width="5"
   height="5"
   id="rect483" />
				<rect
   x="685.26001"
   y="594.91998"
   class="st9"
   width="5"
   height="5"
   id="rect485" />
				<rect
   x="695.26001"
   y="594.91998"
   class="st9"
   width="5"
   height="5"
   id="rect487" />
				<rect
   x="705.26001"
   y="594.91998"
   class="st9"
   width="5"
   height="5"
   id="rect489" />
				<rect
   x="620.26001"
   y="604.91998"
   class="st9"
   width="5"
   height="5"
   id="rect491" />
				<rect
   x="630.26001"
   y="604.91998"
   class="st9"
   width="5"
   height="5"
   id="rect493" />
				<rect
   x="640.26001"
   y="604.91998"
   class="st9"
   width="5"
   height="5"
   id="rect495" />
				<rect
   x="650.26001"
   y="604.91998"
   class="st9"
   width="5"
   height="5"
   id="rect497" />
				<rect
   x="660.26001"
   y="604.91998"
   class="st9"
   width="5"
   height="5"
   id="rect499" />
				<rect
   x="670.26001"
   y="604.91998"
   class="st9"
   width="5"
   height="5"
   id="rect501" />
				<rect
   x="680.26001"
   y="604.91998"
   class="st9"
   width="5"
   height="5"
   id="rect503" />
				<rect
   x="690.26001"
   y="604.91998"
   class="st9"
   width="5"
   height="5"
   id="rect505" />
				<rect
   x="700.26001"
   y="604.91998"
   class="st9"
   width="5"
   height="5"
   id="rect507" />
				<rect
   x="710.26001"
   y="604.91998"
   class="st9"
   width="5"
   height="5"
   id="rect509" />
				<rect
   x="625.26001"
   y="614.91998"
   class="st9"
   width="5"
   height="5"
   id="rect511" />
				<rect
   x="635.26001"
   y="614.91998"
   class="st9"
   width="5"
   height="5"
   id="rect513" />
				<rect
   x="645.26001"
   y="614.91998"
   class="st9"
   width="5"
   height="5"
   id="rect515" />
				<rect
   x="655.26001"
   y="614.91998"
   class="st9"
   width="5"
   height="5"
   id="rect517" />
				<rect
   x="665.26001"
   y="614.91998"
   class="st9"
   width="5"
   height="5"
   id="rect519" />
				<rect
   x="675.26001"
   y="614.91998"
   class="st9"
   width="5"
   height="5"
   id="rect521" />
				<rect
   x="685.26001"
   y="614.91998"
   class="st9"
   width="5"
   height="5"
   id="rect523" />
				<rect
   x="695.26001"
   y="614.91998"
   class="st9"
   width="5"
   height="5"
   id="rect525" />
				<rect
   x="705.26001"
   y="614.91998"
   class="st9"
   width="5"
   height="5"
   id="rect527" />
				<rect
   x="620.26001"
   y="624.91998"
   class="st9"
   width="5"
   height="5"
   id="rect529" />
				<rect
   x="630.26001"
   y="624.91998"
   class="st9"
   width="5"
   height="5"
   id="rect531" />
				<rect
   x="640.26001"
   y="624.91998"
   class="st9"
   width="5"
   height="5"
   id="rect533" />
				<rect
   x="650.26001"
   y="624.91998"
   class="st9"
   width="5"
   height="5"
   id="rect535" />
				<rect
   x="660.26001"
   y="624.91998"
   class="st9"
   width="5"
   height="5"
   id="rect537" />
				<rect
   x="670.26001"
   y="624.91998"
   class="st9"
   width="5"
   height="5"
   id="rect539" />
				<rect
   x="680.26001"
   y="624.91998"
   class="st9"
   width="5"
   height="5"
   id="rect541" />
				<rect
   x="690.26001"
   y="624.91998"
   class="st9"
   width="5"
   height="5"
   id="rect543" />
				<rect
   x="700.26001"
   y="624.91998"
   class="st9"
   width="5"
   height="5"
   id="rect545" />
				<rect
   x="710.26001"
   y="624.91998"
   class="st9"
   width="5"
   height="5"
   id="rect547" />
			</g>
			<rect
   x="827.76001"
   y="581.85999"
   class="st6"
   width="12.5"
   height="50"
   id="rect551" />
			<path
   class="st10"
   d="m 834.01,606.89 v 0 c -2.07,0 -3.75,-1.68 -3.75,-3.75 v -15.03 c 0,-2.07 1.68,-3.75 3.75,-3.75 v 0 c 2.07,0 3.75,1.68 3.75,3.75 v 15.03 c 0,2.07 -1.67,3.75 -3.75,3.75 z"
   id="path553" />
			<circle
   class="st4"
   cx="834.01001"
   cy="624.91998"
   r="4"
   id="circle555" />
			<circle
   cx="834.01001"
   cy="588.35999"
   r="2.5"
   id="circle557" />
		</g>
	</g>
	
	<g
   class="st3"
   id="g582">
		<path
   d="m 398.83,652.07 h -5.73 v 15.7 h -2.46 v -15.7 h -5.76 v -2.22 h 13.95 z"
   id="path564" />
		<path
   d="m 397.16,661.72 c 0,-3.61 2.79,-6.44 6.6,-6.44 3.81,0 6.58,2.83 6.58,6.44 0,3.58 -2.76,6.44 -6.58,6.44 -3.81,-0.01 -6.6,-2.86 -6.6,-6.44 z m 10.67,0 c 0,-2.42 -1.59,-4.29 -4.07,-4.29 -2.41,0 -4.09,1.87 -4.09,4.29 0,2.4 1.66,4.29 4.09,4.29 2.48,0 4.07,-1.9 4.07,-4.29 z"
   id="path566" />
		<path
   d="m 417.04,662.07 -1.43,1.41 v 4.29 h -2.46 v -17.92 h 2.46 v 11.03 l 4.84,-5.22 h 3.15 l -4.89,4.79 5.4,7.32 h -3.02 z"
   id="path568" />
		<path
   d="m 425.1,661.56 c 0,-3.61 2.66,-6.28 6.19,-6.28 3.97,0 6.35,2.78 6.01,6.97 h -9.67 c 0.21,2.52 1.71,3.84 3.74,3.84 1.97,0 3.22,-0.98 3.94,-2.6 l 1.97,0.81 c -0.95,2.27 -3.04,3.86 -5.91,3.86 -3.86,-0.01 -6.27,-2.94 -6.27,-6.6 z m 9.83,-1.11 c -0.21,-2.2 -1.66,-3.18 -3.63,-3.18 -2.05,0 -3.38,1.41 -3.63,3.18 z"
   id="path570" />
		<path
   d="m 451.79,660.81 v 6.97 h -2.48 v -6.64 c 0,-2.5 -1.2,-3.61 -3.22,-3.61 -2.17,0 -3.56,1.57 -3.56,3.86 v 6.38 h -2.46 v -12.11 h 2.46 v 1.94 c 0.84,-1.39 2.17,-2.32 4.02,-2.32 3.14,0 5.24,1.82 5.24,5.53 z"
   id="path572" />
		<path
   d="m 456.7,650.48 c 0.92,0 1.66,0.71 1.66,1.64 0,0.91 -0.77,1.62 -1.66,1.62 -0.95,0 -1.71,-0.71 -1.71,-1.62 -0.01,-0.95 0.76,-1.64 1.71,-1.64 z m 1.23,17.29 h -2.46 v -12.11 h 2.46 z"
   id="path574" />
		<path
   d="m 471.26,657.4 -6.65,8.23 h 6.42 v 2.15 h -9.47 v -1.77 l 6.7,-8.23 h -6.45 v -2.12 h 9.44 v 1.74 z"
   id="path576" />
		<path
   d="m 472.92,661.56 c 0,-3.61 2.66,-6.28 6.19,-6.28 3.97,0 6.35,2.78 6.01,6.97 h -9.67 c 0.21,2.52 1.71,3.84 3.74,3.84 1.97,0 3.22,-0.98 3.94,-2.6 l 1.97,0.81 c -0.95,2.27 -3.04,3.86 -5.91,3.86 -3.86,-0.01 -6.27,-2.94 -6.27,-6.6 z m 9.83,-1.11 c -0.2,-2.2 -1.66,-3.18 -3.63,-3.18 -2.05,0 -3.38,1.41 -3.63,3.18 z"
   id="path578" />
		<path
   d="m 487.35,661.72 c 0,-3.89 2.87,-6.44 6.27,-6.44 1.69,0 3.35,0.73 4.2,2.02 v -7.45 h 2.46 v 17.92 h -2.46 v -1.64 c -0.84,1.29 -2.51,2.02 -4.2,2.02 -3.4,0 -6.27,-2.57 -6.27,-6.43 z m 10.47,0 c 0,-2.5 -1.64,-4.29 -3.94,-4.29 -2.48,0 -4.02,1.89 -4.02,4.29 0,2.4 1.54,4.29 4.02,4.29 2.3,0 3.94,-1.8 3.94,-4.29 z"
   id="path580" />
	</g>
	<g
   class="st3"
   id="g598">
		<path
   d="m 407.5,685.43 c 0,3.38 -2.58,5.53 -6.12,5.53 h -4.04 v 6.81 h -2.48 v -17.92 h 6.53 c 3.5,0 6.11,2.17 6.11,5.58 z m -2.48,-0.02 c 0,-2.17 -1.59,-3.33 -3.89,-3.33 h -3.79 v 6.69 h 3.86 c 2.29,-0.01 3.82,-1.19 3.82,-3.36 z"
   id="path584" />
		<path
   d="m 421.06,695.55 v 2.22 h -0.56 c -2,0 -2.89,-0.48 -3.17,-1.74 -0.69,1.24 -2.51,2.12 -4.25,2.12 -2.41,0 -4.27,-1.29 -4.27,-3.61 0,-3.23 4.15,-3.99 8.04,-4.64 -0.05,-1.72 -1.1,-2.6 -2.64,-2.6 -1.59,0 -2.81,0.78 -3.28,2.47 l -2.15,-0.56 c 0.84,-2.9 3.3,-3.94 5.6,-3.94 2.71,0 4.91,1.67 4.91,4.8 v 4.32 c 0,0.88 0.05,1.16 1.2,1.16 z m -4.22,-3.91 c -2.76,0.43 -5.55,0.91 -5.55,2.7 0,1.29 0.95,1.84 2.23,1.84 2.25,0 3.33,-1.56 3.33,-3.68 v -0.86 z"
   id="path586" />
		<path
   d="m 435.16,685.66 -7.63,17.92 h -2.64 l 2.53,-5.78 -5.35,-12.14 h 2.69 l 3.92,9.39 3.79,-9.39 z"
   id="path588" />
		<path
   d="m 456.5,690.45 v 7.32 h -2.46 v -6.92 c 0,-2.45 -0.97,-3.33 -2.61,-3.33 -1.66,0 -3.02,1.21 -3.02,3.38 v 6.87 h -2.46 v -6.92 c 0,-2.45 -0.97,-3.33 -2.61,-3.33 -1.77,0 -3.02,1.39 -3.02,3.66 v 6.59 h -2.48 v -12.11 h 2.48 v 1.64 c 0.77,-1.26 2.05,-2.02 3.51,-2.02 1.92,0 3.3,0.68 3.99,2.25 0.9,-1.62 2.41,-2.25 4.09,-2.25 2.83,0 4.59,1.77 4.59,5.17 z"
   id="path590" />
		<path
   d="m 459.06,691.56 c 0,-3.61 2.66,-6.28 6.19,-6.28 3.97,0 6.35,2.78 6.01,6.97 h -9.67 c 0.21,2.52 1.71,3.84 3.74,3.84 1.97,0 3.22,-0.98 3.94,-2.6 l 1.97,0.81 c -0.95,2.27 -3.04,3.86 -5.91,3.86 -3.87,-0.01 -6.27,-2.94 -6.27,-6.6 z m 9.82,-1.11 c -0.2,-2.2 -1.66,-3.18 -3.63,-3.18 -2.05,0 -3.38,1.41 -3.63,3.18 z"
   id="path592" />
		<path
   d="m 485.74,690.81 v 6.97 h -2.48 v -6.64 c 0,-2.5 -1.2,-3.61 -3.22,-3.61 -2.17,0 -3.56,1.57 -3.56,3.86 v 6.38 h -2.46 v -12.11 h 2.46 v 1.94 c 0.84,-1.39 2.17,-2.32 4.02,-2.32 3.15,0 5.24,1.82 5.24,5.53 z"
   id="path594" />
		<path
   d="m 492.01,687.73 v 6.51 c 0,0.88 0.26,1.31 1.25,1.31 h 1.64 v 2.22 h -1.69 c -2.48,0 -3.66,-1.39 -3.66,-3.58 v -6.46 h -2.66 v -2.07 h 2.66 v -3.58 l 2.46,-0.63 v 4.21 h 3.4 v 2.07 z"
   id="path596" />
	</g>
	<g
   class="st3"
   id="g616">
		<path
   d="m 406.69,134.86 h -5.73 v 15.7 h -2.46 v -15.7 h -5.76 v -2.22 h 13.95 z"
   id="path600" />
		<path
   d="m 405.03,144.5 c 0,-3.61 2.79,-6.44 6.6,-6.44 3.81,0 6.58,2.83 6.58,6.44 0,3.58 -2.76,6.44 -6.58,6.44 -3.81,0 -6.6,-2.85 -6.6,-6.44 z m 10.67,0 c 0,-2.42 -1.59,-4.29 -4.07,-4.29 -2.41,0 -4.09,1.87 -4.09,4.29 0,2.4 1.66,4.29 4.09,4.29 2.48,0 4.07,-1.89 4.07,-4.29 z"
   id="path602" />
		<path
   d="m 424.91,144.86 -1.43,1.41 v 4.29 h -2.46 v -17.92 h 2.46 v 11.03 l 4.84,-5.22 h 3.15 l -4.89,4.8 5.4,7.32 h -3.02 z"
   id="path604" />
		<path
   d="m 432.97,144.35 c 0,-3.61 2.66,-6.28 6.19,-6.28 3.97,0 6.35,2.78 6.01,6.97 h -9.67 c 0.21,2.52 1.71,3.84 3.74,3.84 1.97,0 3.22,-0.98 3.94,-2.6 l 1.97,0.81 c -0.95,2.27 -3.04,3.86 -5.91,3.86 -3.87,-0.01 -6.27,-2.94 -6.27,-6.6 z m 9.82,-1.11 c -0.21,-2.2 -1.66,-3.18 -3.63,-3.18 -2.05,0 -3.38,1.41 -3.63,3.18 z"
   id="path606" />
		<path
   d="m 459.65,143.59 v 6.97 h -2.48 v -6.64 c 0,-2.5 -1.2,-3.61 -3.22,-3.61 -2.17,0 -3.56,1.56 -3.56,3.86 v 6.39 h -2.46 v -12.11 h 2.46 v 1.94 c 0.84,-1.39 2.17,-2.32 4.02,-2.32 3.15,0 5.24,1.81 5.24,5.52 z"
   id="path608" />
		<path
   d="m 464.57,133.27 c 0.92,0 1.66,0.71 1.66,1.64 0,0.91 -0.77,1.62 -1.66,1.62 -0.95,0 -1.71,-0.71 -1.71,-1.62 -0.01,-0.96 0.76,-1.64 1.71,-1.64 z m 1.23,17.29 h -2.46 v -12.11 h 2.46 z"
   id="path610" />
		<path
   d="m 479.13,140.19 -6.65,8.23 h 6.42 v 2.15 h -9.47 v -1.77 l 6.7,-8.23 h -6.45 v -2.12 h 9.44 v 1.74 z"
   id="path612" />
		<path
   d="m 480.79,144.35 c 0,-3.61 2.66,-6.28 6.19,-6.28 3.97,0 6.35,2.78 6.01,6.97 h -9.67 c 0.21,2.52 1.71,3.84 3.74,3.84 1.97,0 3.22,-0.98 3.94,-2.6 l 1.97,0.81 c -0.95,2.27 -3.04,3.86 -5.91,3.86 -3.87,-0.01 -6.27,-2.94 -6.27,-6.6 z m 9.82,-1.11 c -0.2,-2.2 -1.66,-3.18 -3.63,-3.18 -2.05,0 -3.38,1.41 -3.63,3.18 z"
   id="path614" />
	</g>
	<g
   class="st3"
   id="g646">
		<path
   d="m 343.32,171.6 c 0,-5.05 4.2,-9.34 9.11,-9.34 3.74,0 6.88,2.09 8.11,5.3 l -2.35,0.78 c -0.92,-2.37 -2.97,-3.81 -5.76,-3.81 -3.63,0 -6.6,3.13 -6.6,7.07 0,3.94 2.97,7.07 6.6,7.07 2.71,0 4.61,-1.36 5.66,-3.51 l 2.3,0.93 c -1.43,3 -4.38,4.85 -7.96,4.85 -4.92,0 -9.11,-4.29 -9.11,-9.34 z"
   id="path618" />
		<path
   d="m 374.86,178.34 v 2.22 h -0.56 c -2,0 -2.89,-0.48 -3.17,-1.74 -0.69,1.24 -2.51,2.12 -4.25,2.12 -2.41,0 -4.27,-1.29 -4.27,-3.61 0,-3.23 4.15,-3.99 8.04,-4.64 -0.05,-1.72 -1.1,-2.6 -2.64,-2.6 -1.59,0 -2.81,0.78 -3.28,2.47 L 362.58,172 c 0.84,-2.9 3.3,-3.94 5.6,-3.94 2.71,0 4.91,1.67 4.91,4.8 v 4.32 c 0,0.88 0.05,1.16 1.2,1.16 z m -4.22,-3.91 c -2.76,0.43 -5.55,0.91 -5.55,2.7 0,1.29 0.95,1.84 2.23,1.84 2.25,0 3.33,-1.56 3.33,-3.68 v -0.86 z"
   id="path620" />
		<path
   d="m 384.3,168.44 v 2.25 c -2.87,0 -4.15,1.64 -4.15,3.86 v 6.01 h -2.46 v -12.11 h 2.46 v 2.15 c 0.9,-1.35 2.36,-2.16 4.15,-2.16 z"
   id="path622" />
		<path
   d="m 385.51,174.5 c 0,-3.89 2.87,-6.44 6.27,-6.44 1.69,0 3.35,0.73 4.2,2.02 v -7.45 h 2.46 v 17.92 h -2.46 v -1.64 c -0.84,1.29 -2.51,2.02 -4.2,2.02 -3.41,0.01 -6.27,-2.57 -6.27,-6.43 z m 10.46,0 c 0,-2.5 -1.64,-4.29 -3.94,-4.29 -2.48,0 -4.02,1.89 -4.02,4.29 0,2.4 1.54,4.29 4.02,4.29 2.3,0 3.94,-1.79 3.94,-4.29 z"
   id="path624" />
		<path
   d="m 421.56,162.64 v 17.92 h -2.46 v -8.08 h -9.11 v 8.08 h -2.48 v -17.92 h 2.48 v 7.72 l 9.11,0.03 v -7.75 z"
   id="path626" />
		<path
   d="m 424.37,174.5 c 0,-3.61 2.79,-6.44 6.6,-6.44 3.81,0 6.58,2.83 6.58,6.44 0,3.58 -2.76,6.44 -6.58,6.44 -3.81,0 -6.6,-2.86 -6.6,-6.44 z m 10.67,0 c 0,-2.42 -1.59,-4.29 -4.07,-4.29 -2.41,0 -4.09,1.87 -4.09,4.29 0,2.4 1.66,4.29 4.09,4.29 2.49,0 4.07,-1.89 4.07,-4.29 z"
   id="path628" />
		<path
   d="m 440.36,177.08 v -14.44 h 2.48 v 14.41 c 0,0.88 0.28,1.29 1.07,1.29 h 1 v 2.22 h -1.23 c -2.11,0 -3.32,-1.31 -3.32,-3.48 z"
   id="path630" />
		<path
   d="m 446.96,174.5 c 0,-3.89 2.87,-6.44 6.27,-6.44 1.69,0 3.35,0.73 4.2,2.02 v -7.45 h 2.46 v 17.92 h -2.46 v -1.64 c -0.84,1.29 -2.51,2.02 -4.2,2.02 -3.4,0.01 -6.27,-2.57 -6.27,-6.43 z m 10.47,0 c 0,-2.5 -1.64,-4.29 -3.94,-4.29 -2.48,0 -4.02,1.89 -4.02,4.29 0,2.4 1.54,4.29 4.02,4.29 2.3,0 3.94,-1.79 3.94,-4.29 z"
   id="path632" />
		<path
   d="m 462.7,174.35 c 0,-3.61 2.66,-6.28 6.19,-6.28 3.97,0 6.35,2.78 6.01,6.97 h -9.67 c 0.21,2.52 1.71,3.84 3.74,3.84 1.97,0 3.22,-0.98 3.94,-2.6 l 1.97,0.81 c -0.95,2.27 -3.04,3.86 -5.91,3.86 -3.87,-0.01 -6.27,-2.94 -6.27,-6.6 z m 9.82,-1.11 c -0.21,-2.2 -1.66,-3.18 -3.63,-3.18 -2.05,0 -3.38,1.41 -3.63,3.18 z"
   id="path634" />
		<path
   d="m 484.4,168.44 v 2.25 c -2.87,0 -4.15,1.64 -4.15,3.86 v 6.01 h -2.46 v -12.11 h 2.46 v 2.15 c 0.9,-1.35 2.36,-2.16 4.15,-2.16 z"
   id="path636" />
		<path
   d="m 508.22,171.6 c 0,5.3 -3.74,8.96 -9.16,8.96 h -5.91 v -17.92 h 5.91 c 5.4,0 9.16,3.71 9.16,8.96 z m -2.48,0 c 0,-4.06 -2.64,-6.74 -6.68,-6.74 h -3.43 v 13.48 h 3.43 c 4.04,0 6.68,-2.65 6.68,-6.74 z"
   id="path638" />
		<path
   d="m 522.7,178.34 v 2.22 h -0.56 c -2,0 -2.89,-0.48 -3.17,-1.74 -0.69,1.24 -2.51,2.12 -4.25,2.12 -2.41,0 -4.27,-1.29 -4.27,-3.61 0,-3.23 4.15,-3.99 8.04,-4.64 -0.05,-1.72 -1.1,-2.6 -2.64,-2.6 -1.59,0 -2.81,0.78 -3.28,2.47 L 510.42,172 c 0.84,-2.9 3.3,-3.94 5.6,-3.94 2.71,0 4.91,1.67 4.91,4.8 v 4.32 c 0,0.88 0.05,1.16 1.2,1.16 z m -4.22,-3.91 c -2.76,0.43 -5.55,0.91 -5.55,2.7 0,1.29 0.95,1.84 2.23,1.84 2.25,0 3.33,-1.56 3.33,-3.68 v -0.86 z"
   id="path640" />
		<path
   d="m 528.2,170.51 v 6.51 c 0,0.88 0.26,1.31 1.25,1.31 h 1.64 v 2.22 h -1.69 c -2.48,0 -3.66,-1.39 -3.66,-3.58 v -6.46 h -2.66 v -2.07 h 2.66 v -3.58 l 2.46,-0.63 v 4.21 h 3.4 v 2.07 z"
   id="path642" />
		<path
   d="m 545.93,178.34 v 2.22 h -0.56 c -2,0 -2.89,-0.48 -3.17,-1.74 -0.69,1.24 -2.51,2.12 -4.25,2.12 -2.41,0 -4.27,-1.29 -4.27,-3.61 0,-3.23 4.15,-3.99 8.04,-4.64 -0.05,-1.72 -1.1,-2.6 -2.64,-2.6 -1.59,0 -2.81,0.78 -3.28,2.47 L 533.65,172 c 0.84,-2.9 3.3,-3.94 5.6,-3.94 2.71,0 4.91,1.67 4.91,4.8 v 4.32 c 0,0.88 0.05,1.16 1.2,1.16 z m -4.22,-3.91 c -2.76,0.43 -5.55,0.91 -5.55,2.7 0,1.29 0.95,1.84 2.23,1.84 2.25,0 3.33,-1.56 3.33,-3.68 v -0.86 z"
   id="path644" />
	</g>
	<g
   class="st3"
   id="g678">
		<path
   d="m 60.09,369.96 c 0,-5.05 4.2,-9.34 9.11,-9.34 3.74,0 6.88,2.09 8.11,5.3 l -2.35,0.78 c -0.92,-2.37 -2.97,-3.81 -5.76,-3.81 -3.63,0 -6.6,3.13 -6.6,7.07 0,3.94 2.97,7.07 6.6,7.07 2.71,0 4.61,-1.36 5.66,-3.51 l 2.3,0.93 c -1.43,3 -4.38,4.85 -7.96,4.85 -4.92,0 -9.11,-4.29 -9.11,-9.34 z"
   id="path648" />
		<path
   d="m 91.71,371.96 v 6.97 h -2.46 v -6.64 c 0,-2.5 -1.23,-3.61 -3.25,-3.61 -2.15,0 -3.53,1.57 -3.53,3.86 v 6.38 H 79.99 V 361 h 2.48 v 7.7 c 0.82,-1.36 2.15,-2.27 3.99,-2.27 3.18,0 5.25,1.82 5.25,5.53 z"
   id="path650" />
		<path
   d="m 94.27,372.72 c 0,-3.61 2.66,-6.28 6.19,-6.28 3.97,0 6.35,2.78 6.01,6.97 H 96.8 c 0.21,2.52 1.71,3.84 3.74,3.84 1.97,0 3.22,-0.98 3.94,-2.6 l 1.97,0.81 c -0.95,2.27 -3.04,3.86 -5.91,3.86 -3.87,-0.02 -6.27,-2.94 -6.27,-6.6 z m 9.83,-1.11 c -0.2,-2.2 -1.66,-3.18 -3.63,-3.18 -2.05,0 -3.38,1.41 -3.63,3.18 z"
   id="path652" />
		<path
   d="m 115.12,379.3 c -3.76,0 -6.55,-2.93 -6.55,-6.59 0,-3.61 2.76,-6.28 6.58,-6.28 2.66,0 4.73,1.34 5.66,3.51 l -2.12,0.86 c -0.59,-1.44 -1.74,-2.22 -3.53,-2.22 -2.43,0 -4.07,1.72 -4.07,4.14 0,2.42 1.61,4.44 4.04,4.44 1.69,0 2.84,-0.83 3.48,-2.27 l 2.1,0.91 c -0.98,2.14 -2.95,3.5 -5.59,3.5 z"
   id="path654" />
		<path
   d="m 127.25,373.22 -1.43,1.41 v 4.29 h -2.46 V 361 h 2.46 v 11.03 l 4.84,-5.22 h 3.15 l -4.89,4.79 5.4,7.32 h -3.02 z"
   id="path656" />
		<path
   d="m 135.18,372.87 c 0,-3.61 2.79,-6.44 6.6,-6.44 3.81,0 6.58,2.83 6.58,6.44 0,3.58 -2.76,6.44 -6.58,6.44 -3.81,-0.01 -6.6,-2.86 -6.6,-6.44 z m 10.67,0 c 0,-2.42 -1.59,-4.29 -4.07,-4.29 -2.41,0 -4.09,1.87 -4.09,4.29 0,2.4 1.66,4.29 4.09,4.29 2.48,0 4.07,-1.89 4.07,-4.29 z"
   id="path658" />
		<path
   d="m 164.09,376.7 v 2.22 h -0.74 c -1.64,0 -2.33,-0.66 -2.64,-1.87 -0.95,1.41 -2.51,2.25 -4.43,2.25 -3.15,0 -5.25,-1.84 -5.25,-5.53 v -6.97 h 2.48 v 6.61 c 0,2.57 1.2,3.63 3.22,3.63 2.17,0 3.56,-1.57 3.56,-3.86 v -6.38 h 2.46 v 8.61 c 0,0.88 0.05,1.29 0.82,1.29 z"
   id="path660" />
		<path
   d="m 170.59,368.88 v 6.51 c 0,0.88 0.26,1.31 1.25,1.31 h 1.64 v 2.22 h -1.69 c -2.48,0 -3.66,-1.39 -3.66,-3.58 v -6.46 h -2.66 v -2.07 h 2.66 v -3.58 l 2.46,-0.63 v 4.21 h 3.4 v 2.07 z"
   id="path662" />
		<path
   d="m 181.8,372.87 c 0,-3.89 2.87,-6.44 6.27,-6.44 1.69,0 3.35,0.73 4.2,2.02 V 361 h 2.46 v 17.92 h -2.46 v -1.64 c -0.84,1.29 -2.51,2.02 -4.2,2.02 -3.41,0 -6.27,-2.57 -6.27,-6.43 z m 10.46,0 c 0,-2.5 -1.64,-4.29 -3.94,-4.29 -2.48,0 -4.02,1.89 -4.02,4.29 0,2.4 1.54,4.29 4.02,4.29 2.31,0 3.94,-1.79 3.94,-4.29 z"
   id="path664" />
		<path
   d="m 197.53,372.72 c 0,-3.61 2.66,-6.28 6.19,-6.28 3.97,0 6.35,2.78 6.01,6.97 h -9.67 c 0.21,2.52 1.71,3.84 3.74,3.84 1.97,0 3.22,-0.98 3.94,-2.6 l 1.97,0.81 c -0.95,2.27 -3.04,3.86 -5.91,3.86 -3.86,-0.02 -6.27,-2.94 -6.27,-6.6 z m 9.83,-1.11 c -0.2,-2.2 -1.66,-3.18 -3.63,-3.18 -2.05,0 -3.38,1.41 -3.63,3.18 z"
   id="path666" />
		<path
   d="m 216.06,368.88 v 6.51 c 0,0.88 0.26,1.31 1.25,1.31 h 1.64 v 2.22 h -1.69 c -2.48,0 -3.66,-1.39 -3.66,-3.58 v -6.46 h -2.66 v -2.07 h 2.66 v -3.58 l 2.46,-0.63 v 4.21 h 3.4 v 2.07 z"
   id="path668" />
		<path
   d="m 233.79,376.7 v 2.22 h -0.56 c -2,0 -2.89,-0.48 -3.17,-1.74 -0.69,1.24 -2.51,2.12 -4.25,2.12 -2.41,0 -4.27,-1.29 -4.27,-3.61 0,-3.23 4.15,-3.99 8.04,-4.64 -0.05,-1.72 -1.1,-2.6 -2.64,-2.6 -1.59,0 -2.81,0.78 -3.28,2.47 l -2.15,-0.56 c 0.84,-2.9 3.3,-3.94 5.6,-3.94 2.71,0 4.91,1.67 4.91,4.8 v 4.32 c 0,0.88 0.05,1.16 1.2,1.16 z m -4.22,-3.91 c -2.76,0.43 -5.55,0.91 -5.55,2.7 0,1.29 0.95,1.84 2.23,1.84 2.25,0 3.33,-1.56 3.33,-3.68 v -0.86 z"
   id="path670" />
		<path
   d="m 238.06,361.64 c 0.92,0 1.66,0.71 1.66,1.64 0,0.91 -0.77,1.62 -1.66,1.62 -0.95,0 -1.71,-0.71 -1.71,-1.62 0,-0.96 0.76,-1.64 1.71,-1.64 z m 1.23,17.28 h -2.46 v -12.11 h 2.46 z"
   id="path672" />
		<path
   d="M 243.18,375.44 V 361 h 2.48 v 14.41 c 0,0.88 0.28,1.29 1.07,1.29 h 1 v 2.22 h -1.23 c -2.12,0 -3.32,-1.31 -3.32,-3.48 z"
   id="path674" />
		<path
   d="m 249.8,375.79 2.33,-0.61 c 0.31,1.24 1.15,2.09 2.64,2.09 1.54,0 2.53,-0.68 2.53,-1.82 0,-2.6 -7.01,-1.08 -7.01,-5.25 0,-2.2 1.92,-3.79 4.48,-3.79 2.12,0 3.56,0.93 4.48,2.57 l -2,0.96 c -0.54,-0.93 -1.28,-1.51 -2.51,-1.51 -1.31,0 -2.02,0.71 -2.02,1.54 0,2.32 7.04,0.81 7.04,5.35 0,2.32 -1.97,3.96 -5.01,3.96 -2.64,0.02 -4.41,-1.37 -4.95,-3.49 z"
   id="path676" />
	</g>
	<g
   class="st3"
   id="g700">
		<path
   d="m 102.57,391.64 c 0.92,0 1.66,0.71 1.66,1.64 0,0.91 -0.77,1.62 -1.66,1.62 -0.95,0 -1.71,-0.71 -1.71,-1.62 0,-0.96 0.77,-1.64 1.71,-1.64 z m 1.23,17.28 h -2.46 v -12.11 h 2.46 z"
   id="path680" />
		<path
   d="m 119.31,401.96 v 6.97 h -2.48 v -6.64 c 0,-2.5 -1.2,-3.61 -3.22,-3.61 -2.17,0 -3.56,1.57 -3.56,3.86 v 6.38 h -2.46 v -12.11 h 2.46 v 1.94 c 0.84,-1.39 2.17,-2.32 4.02,-2.32 3.14,0 5.24,1.82 5.24,5.53 z"
   id="path682" />
		<path
   d="m 128.54,409.3 c -3.76,0 -6.55,-2.93 -6.55,-6.59 0,-3.61 2.76,-6.28 6.58,-6.28 2.66,0 4.73,1.34 5.66,3.51 l -2.12,0.86 c -0.59,-1.44 -1.74,-2.22 -3.53,-2.22 -2.43,0 -4.07,1.72 -4.07,4.14 0,2.42 1.61,4.44 4.04,4.44 1.69,0 2.84,-0.83 3.48,-2.27 l 2.1,0.91 c -0.98,2.14 -2.95,3.5 -5.59,3.5 z"
   id="path684" />
		<path
   d="M 136.91,405.44 V 391 h 2.48 v 14.41 c 0,0.88 0.28,1.29 1.07,1.29 h 1 v 2.22 h -1.23 c -2.12,0 -3.32,-1.31 -3.32,-3.48 z"
   id="path686" />
		<path
   d="m 145.22,406.05 c 0.92,0 1.66,0.71 1.66,1.64 0,0.91 -0.77,1.62 -1.66,1.62 -0.95,0 -1.71,-0.71 -1.71,-1.62 0,-0.96 0.77,-1.64 1.71,-1.64 z"
   id="path688" />
		<path
   d="m 159.55,398.88 v 6.51 c 0,0.88 0.26,1.31 1.25,1.31 h 1.64 v 2.22 h -1.69 c -2.48,0 -3.66,-1.39 -3.66,-3.58 v -6.46 h -2.66 v -2.07 h 2.66 v -3.58 l 2.46,-0.63 v 4.21 h 3.4 v 2.07 z"
   id="path690" />
		<path
   d="m 164.62,402.87 c 0,-3.61 2.79,-6.44 6.6,-6.44 3.81,0 6.58,2.83 6.58,6.44 0,3.58 -2.76,6.44 -6.58,6.44 -3.81,-0.01 -6.6,-2.86 -6.6,-6.44 z m 10.67,0 c 0,-2.42 -1.59,-4.29 -4.07,-4.29 -2.41,0 -4.09,1.87 -4.09,4.29 0,2.4 1.66,4.29 4.09,4.29 2.48,0 4.07,-1.89 4.07,-4.29 z"
   id="path692" />
		<path
   d="m 184.5,403.22 -1.43,1.41 v 4.29 h -2.46 V 391 h 2.46 v 11.03 l 4.84,-5.22 h 3.15 l -4.89,4.79 5.4,7.32 h -3.02 z"
   id="path694" />
		<path
   d="m 192.56,402.72 c 0,-3.61 2.66,-6.28 6.19,-6.28 3.97,0 6.35,2.78 6.01,6.97 h -9.67 c 0.21,2.52 1.71,3.84 3.74,3.84 1.97,0 3.22,-0.98 3.94,-2.6 l 1.97,0.81 c -0.95,2.27 -3.04,3.86 -5.91,3.86 -3.87,-0.02 -6.27,-2.94 -6.27,-6.6 z m 9.82,-1.11 c -0.2,-2.2 -1.66,-3.18 -3.63,-3.18 -2.05,0 -3.38,1.41 -3.63,3.18 z"
   id="path696" />
		<path
   d="m 219.24,401.96 v 6.97 h -2.48 v -6.64 c 0,-2.5 -1.2,-3.61 -3.22,-3.61 -2.17,0 -3.56,1.57 -3.56,3.86 v 6.38 h -2.46 v -12.11 h 2.46 v 1.94 c 0.84,-1.39 2.17,-2.32 4.02,-2.32 3.15,0 5.24,1.82 5.24,5.53 z"
   id="path698" />
	</g>
	
	
	
	
	
	<g
   class="st3"
   id="g866">
		
		
		
		
		
		
		
		<path
   d="m 142.34,272.66 h -5.73 v 15.7 h -2.46 v -15.7 h -5.76 v -2.22 h 13.95 z"
   id="path856" />
		<path
   d="m 140.68,282.31 c 0,-3.61 2.79,-6.44 6.6,-6.44 3.81,0 6.58,2.83 6.58,6.44 0,3.58 -2.76,6.44 -6.58,6.44 -3.81,-0.01 -6.6,-2.86 -6.6,-6.44 z m 10.67,0 c 0,-2.42 -1.59,-4.29 -4.07,-4.29 -2.41,0 -4.09,1.87 -4.09,4.29 0,2.4 1.66,4.29 4.09,4.29 2.48,0 4.07,-1.9 4.07,-4.29 z"
   id="path858" />
		<path
   d="m 160.56,282.66 -1.43,1.41 v 4.29 h -2.46 v -17.92 h 2.46 v 11.03 l 4.84,-5.22 h 3.15 l -4.89,4.79 5.4,7.32 h -3.02 z"
   id="path860" />
		<path
   d="m 168.62,282.15 c 0,-3.61 2.66,-6.28 6.19,-6.28 3.97,0 6.35,2.78 6.01,6.97 h -9.67 c 0.21,2.52 1.71,3.84 3.74,3.84 1.97,0 3.22,-0.98 3.94,-2.6 l 1.97,0.81 c -0.95,2.27 -3.04,3.86 -5.91,3.86 -3.87,-0.01 -6.27,-2.94 -6.27,-6.6 z m 9.82,-1.11 c -0.21,-2.2 -1.66,-3.18 -3.63,-3.18 -2.05,0 -3.38,1.41 -3.63,3.18 z"
   id="path862" />
		<path
   d="m 195.3,281.4 v 6.97 h -2.48 v -6.64 c 0,-2.5 -1.2,-3.61 -3.22,-3.61 -2.17,0 -3.56,1.57 -3.56,3.86 v 6.38 h -2.46 v -12.11 h 2.46 v 1.94 c 0.84,-1.39 2.17,-2.32 4.02,-2.32 3.15,0 5.24,1.82 5.24,5.53 z"
   id="path864" />
	</g>
	<path
   class="st1"
   d="m 840.26,173.59 h -220 c -5.52,0 -10,-4.48 -10,-10 v -85 c 0,-5.52 4.48,-10 10,-10 h 220 c 5.52,0 10,4.48 10,10 v 85 c 0,5.52 -4.47,10 -10,10 z"
   id="path868" />
	<g
   id="g930">
		
		
		<g
   class="st3"
   id="g928">
			<path
   class="st4"
   d="m 649.38,142.32 c 0,3.38 -2.55,5.53 -6.03,5.53 h -3.99 v 6.81 h -2.45 v -17.92 h 6.44 c 3.45,0 6.03,2.17 6.03,5.58 z m -2.45,-0.02 c 0,-2.17 -1.56,-3.33 -3.84,-3.33 h -3.74 v 6.69 h 3.81 c 2.25,-0.01 3.77,-1.19 3.77,-3.36 z"
   id="path904" />
			<path
   class="st4"
   d="m 651.27,145.7 c 0,-5.05 4.14,-9.34 8.98,-9.34 3.69,0 6.79,2.09 8,5.3 l -2.32,0.78 c -0.91,-2.37 -2.93,-3.81 -5.68,-3.81 -3.58,0 -6.51,3.13 -6.51,7.07 0,3.94 2.93,7.07 6.51,7.07 2.68,0 4.54,-1.36 5.58,-3.51 l 2.27,0.93 c -1.41,3 -4.32,4.85 -7.85,4.85 -4.84,0 -8.98,-4.29 -8.98,-9.34 z"
   id="path906" />
			<path
   class="st4"
   d="m 671.16,136.74 h 2.45 v 17.92 h -2.45 z"
   id="path908" />
			<path
   class="st4"
   d="m 687.11,146.36 v 2.22 h -10.1 v -2.22 z"
   id="path910" />
			<path
   class="st4"
   d="m 705.39,145.7 c 0,5.3 -3.68,8.96 -9.04,8.96 h -5.83 v -17.92 h 5.83 c 5.33,0 9.04,3.71 9.04,8.96 z m -2.45,0 c 0,-4.06 -2.6,-6.74 -6.59,-6.74 h -3.38 v 13.48 h 3.38 c 3.99,0 6.59,-2.65 6.59,-6.74 z"
   id="path912" />
			<path
   class="st4"
   d="m 707.41,149.97 2.27,-0.73 c 0.38,1.72 1.59,3.56 4.19,3.56 2.2,0 3.76,-1.09 3.76,-3.1 0,-4.04 -9.62,-2.45 -9.62,-8.08 0,-3.41 2.88,-5.25 5.8,-5.25 2.85,0 5.02,1.51 5.86,4.01 l -2.25,0.68 c -0.48,-1.39 -1.67,-2.47 -3.56,-2.47 -1.62,0 -3.36,0.76 -3.36,2.78 0,3.76 9.62,1.99 9.62,8.18 0,3.33 -2.5,5.5 -6.31,5.5 -3.81,0 -5.82,-2.51 -6.4,-5.08 z"
   id="path914" />
			<path
   class="st4"
   d="m 722.17,149.97 2.27,-0.73 c 0.38,1.72 1.59,3.56 4.19,3.56 2.2,0 3.76,-1.09 3.76,-3.1 0,-4.04 -9.62,-2.45 -9.62,-8.08 0,-3.41 2.88,-5.25 5.8,-5.25 2.85,0 5.02,1.51 5.86,4.01 l -2.25,0.68 c -0.48,-1.39 -1.67,-2.47 -3.56,-2.47 -1.62,0 -3.36,0.76 -3.36,2.78 0,3.76 9.62,1.99 9.62,8.18 0,3.33 -2.5,5.5 -6.31,5.5 -3.8,-0.01 -5.81,-2.51 -6.4,-5.08 z"
   id="path916" />
			<path
   class="st4"
   d="m 743,149.97 2.27,-0.73 c 0.38,1.72 1.59,3.56 4.19,3.56 2.2,0 3.76,-1.09 3.76,-3.1 0,-4.04 -9.62,-2.45 -9.62,-8.08 0,-3.41 2.88,-5.25 5.8,-5.25 2.85,0 5.02,1.51 5.86,4.01 l -2.25,0.68 c -0.48,-1.39 -1.67,-2.47 -3.56,-2.47 -1.62,0 -3.36,0.76 -3.36,2.78 0,3.76 9.62,1.99 9.62,8.18 0,3.33 -2.5,5.5 -6.31,5.5 -3.8,-0.01 -5.82,-2.51 -6.4,-5.08 z"
   id="path918" />
			<path
   class="st4"
   d="m 769.12,150.27 h -8.18 l -1.67,4.39 h -2.62 l 7.14,-17.92 h 2.45 l 7.14,17.92 h -2.6 z m -0.8,-2.12 -3.31,-8.71 -3.28,8.71 z"
   id="path920" />
			<path
   class="st4"
   d="m 790.58,151.96 1.89,1.87 -1.57,1.62 -1.97,-1.97 c -1.44,0.98 -3.21,1.57 -5.17,1.57 -5.2,0 -8.99,-3.96 -8.99,-9.34 0,-5.38 3.79,-9.34 8.99,-9.34 5.17,0 8.98,3.96 8.98,9.34 0.01,2.47 -0.8,4.61 -2.16,6.25 z m -3.33,-0.17 -3.84,-3.84 1.57,-1.59 3.89,3.89 c 0.91,-1.21 1.44,-2.78 1.44,-4.54 0,-4.09 -2.83,-7.09 -6.54,-7.09 -3.74,0 -6.51,3 -6.51,7.09 0,4.09 2.78,7.09 6.51,7.09 1.28,0 2.47,-0.36 3.48,-1.01 z"
   id="path922" />
			<path
   class="st4"
   d="m 805.58,146.36 v 2.22 h -10.1 v -2.22 z"
   id="path924" />
			<path
   class="st4"
   d="m 823.85,145.7 c 0,5.3 -3.68,8.96 -9.04,8.96 h -5.83 v -17.92 h 5.83 c 5.33,0 9.04,3.71 9.04,8.96 z m -2.45,0 c 0,-4.06 -2.6,-6.74 -6.59,-6.74 h -3.38 v 13.48 h 3.38 c 3.99,0 6.59,-2.65 6.59,-6.74 z"
   id="path926" />
		</g>
	</g>
	<line
   class="st2"
   x1="321"
   y1="219.33"
   x2="1"
   y2="219.33"
   id="line932" />
	<line
   class="st2"
   x1="321"
   y1="102.66"
   x2="1"
   y2="102.66"
   id="line934" />
	<g
   id="g938">
		<path
   class="st4"
   d="m 847.76,224.36 v 65 h -7.5 v 5 h 7.5 v 65 h -7.5 v 5 h 7.5 v 65 h -7.5 v 5 h 7.5 v 65 h -7.5 v 5 h 7.5 v 65 h -7.5 v 5 h 7.5 v 65 h -7.5 v 5 h -220 v -5 h -7.5 v -65 h 7.5 v -5 h -7.5 v -65 h 7.5 v -5 h -7.5 v -65 h 7.5 v -5 h -7.5 v -65 h 7.5 v -5 h -7.5 v -65 h 7.5 v -5 h -7.5 v -65 h 235 m 3,-3 h -3 -235 -3 v 3 65 3 2 65 3 2 65 3 2 65 3 2 65 3 2 65 3 h 3 4.5 v 2 3 h 3 220 3 v -3 -2 h 4.5 3 v -3 -65 -2 -3 -65 -2 -3 -65 -2 -3 -65 -2 -3 -65 -2 -3 -65 z"
   id="path936" />
	</g>
<text
   xml:space="preserve"
   id="text1280"
   style="font-size:26.6667px;font-family:Forth;-inkscape-font-specification:Forth;text-align:center;white-space:pre;shape-inside:url(#rect1282);fill:#ffffff;stroke-opacity:0.839216"
   transform="translate(0,-4)"><tspan
     x="92.286561"
     y="509.26427"
     id="tspan3944">Your Server
</tspan><tspan
     x="66.940154"
     y="542.59764"
     id="tspan3946">PCI DSS SAQ-A</tspan></text><text
   xml:space="preserve"
   id="text1280-53"
   style="font-style:normal;font-variant:normal;font-weight:bold;font-stretch:normal;font-size:26.6667px;font-family:Forth;-inkscape-font-specification:'Forth Bold';text-align:center;white-space:pre;shape-inside:url(#rect1282-6);fill:#ffffff;stroke-opacity:0.839216"
   transform="translate(568.42876,-395.85296)"><tspan
     x="109.77511"
     y="509.26427"
     id="tspan3948">BR-DGE</tspan></text><path
   class="st1"
   d="M 264.56991,42.372596 H 64.569905 c -5.52,0 -10,-4.48 -10,-10 v -60 c 0,-5.52 4.48,-10 10,-10 H 264.56991 c 5.52,0 10,4.48 10,10 v 60 c 0,5.53 -4.48,10 -10,10 z"
   id="path13-5"
   style="stroke:#999999;stroke-width:1.5" /><text
   xml:space="preserve"
   id="text1280-5"
   style="font-size:26.6667px;font-family:Forth;-inkscape-font-specification:Forth;text-align:center;white-space:pre;shape-inside:url(#rect1282-9);fill:#ffffff;stroke-opacity:0.839216"
   transform="translate(2.0444016,-516.34759)"><tspan
     x="66.370746"
     y="509.26427"
     id="tspan3950">Your Client App
</tspan><tspan
     x="66.940154"
     y="542.59764"
     id="tspan3952">PCI DSS SAQ-A</tspan></text><text
   xml:space="preserve"
   transform="translate(0,-29.869952)"
   id="text2868"
   style="font-size:26.6667px;font-family:Forth;-inkscape-font-specification:Forth;text-align:center;white-space:pre;shape-inside:url(#rect2870);fill:#ffffff;stroke-opacity:0.839216"><tspan
     x="50.486548"
     y="177.48497"
     id="tspan3954">Input fields hosted
</tspan><tspan
     x="95.716199"
     y="210.81835"
     id="tspan3956">by BR-DGE</tspan></text></g>
</svg>
