<?xml version="1.0" encoding="UTF-8" standalone="no"?>
<!-- Generator: Adobe Illustrator 26.0.3, SVG Export Plug-In . SVG Version: 6.00 Build 0)  -->

<svg
   version="1.1"
   id="Layer_1"
   x="0px"
   y="0px"
   viewBox="0 0 1261.26 771.23"
   style="enable-background:new 0 0 1261.26 771.23;"
   xml:space="preserve"
   sodipodi:docname="integration-overview.svg"
   inkscape:version="1.2.1 (9c6d41e4, 2022-07-14)"
   xmlns:inkscape="http://www.inkscape.org/namespaces/inkscape"
   xmlns:sodipodi="http://sodipodi.sourceforge.net/DTD/sodipodi-0.dtd"
   xmlns="http://www.w3.org/2000/svg"
   xmlns:svg="http://www.w3.org/2000/svg"><defs
   id="defs8907"><rect
     x="66.498276"
     y="40.510441"
     width="191.85133"
     height="44.332184"
     id="rect3674" /></defs><sodipodi:namedview
   id="namedview8905"
   pagecolor="#ffffff"
   bordercolor="#000000"
   borderopacity="0.25"
   inkscape:showpageshadow="2"
   inkscape:pageopacity="0.0"
   inkscape:pagecheckerboard="0"
   inkscape:deskcolor="#d1d1d1"
   showgrid="false"
   inkscape:zoom="1.2240188"
   inkscape:cx="451.38195"
   inkscape:cy="385.61499"
   inkscape:window-width="1920"
   inkscape:window-height="1200"
   inkscape:window-x="1512"
   inkscape:window-y="0"
   inkscape:window-maximized="0"
   inkscape:current-layer="g8902" />
<style
   type="text/css"
   id="style7990">
	.st0{fill:none;stroke:#ECECEC;stroke-width:2;}
	.st1{fill:none;stroke:#D7D7D7;stroke-width:2;}
	.st2{fill:none;stroke:#CCCCCC;stroke-width:2;}
	.st3{fill:#49E2A1;}
	.st4{fill:#ECECEC;}
	.st5{fill:none;stroke:#FFFFFF;stroke-miterlimit:10;}
	.st6{fill:#95DCAB;}
	.st7{fill:#558A72;}
	.st8{fill:#FFFFFF;}
	.st9{fill:#D4D4D4;}
	.st10{fill:#646363;}
	.st11{stroke:#999;stroke-width:1.5;}
	.st12{enable-background:new    ;}
	.st13{fill:#B8B8B8;}
	.st14{fill:#FFFFFF;stroke:#ECECEC;stroke-width:2;}
	.st15{fill:none;stroke:#999;stroke-width:1.5;stroke-miterlimit:10;}
</style>
<g
   id="g8902">
	<path
   class="st0"
   d="M1225.26,575.68c0,5.52-4.48,10-10,10h-230c-5.52,0-10-4.48-10-10"
   id="path7992" />
	<path
   class="st1"
   d="M1235.26,565.68c0,5.52-4.48,10-10,10h-250c-5.52,0-10-4.48-10-10"
   id="path7994" />
	<path
   class="st2"
   d="M1230.26,565.68h-260c-16.57,0-30-13.43-30-30v-260c0-16.57,13.43-30,30-30h260c16.57,0,30,13.43,30,30v260   C1260.26,552.25,1246.83,565.68,1230.26,565.68z"
   id="path7996" />
	<g
   id="g8340">
		<g
   id="g8000">
			<path
   class="st2"
   d="M760.26,727.71h-260c-16.57,0-30-13.43-30-30V114.05c0-16.57,13.43-30,30-30h260c16.57,0,30,13.43,30,30     v583.67C790.26,714.28,776.83,727.71,760.26,727.71z"
   id="path7998" />
		</g>
		<g
   id="g8338">
			<g
   id="Group_784_00000048479299992478394350000004865466149321431691_"
   transform="translate(406.779 141.354)">
				<g
   id="Group_783_00000103264261015440647230000007372779175622621575_"
   transform="translate(0 0.45)">
					<path
   id="Path_9_00000005949504778273026270000004217833597209112197_"
   d="M138.35,34.08h-6.42v-7.83h6.42       c3.16,0,5.06,1.26,5.06,3.94C143.41,32.86,141.51,34.08,138.35,34.08 M131.92,12.14h5.98c3.31,0,5.11,1.17,5.16,3.94       c0,2.63-1.9,3.89-5.01,3.89h-6.14L131.92,12.14z M145.69,22.99c2.82-1.26,4.59-4.11,4.48-7.2c-0.05-6.08-4.62-9.93-11.43-9.93       h-13.92V40.4h14.01c7.01,0,11.68-3.8,11.68-9.93C150.61,27.23,148.69,24.25,145.69,22.99"
   fill="#323232" />
					<path
   id="Path_10_00000132807176229322798480000010553950357733218739_"
   d="M168.67,21.92h-5.49v-9.78h5.35       c3.41,0,5.55,1.61,5.55,4.87C174.07,20.31,171.97,21.92,168.67,21.92 M181.18,17.05c0-6.71-5.16-11.19-12.21-11.19h-12.89V40.4       h7.11V28.14h5.89l5.84,12.26h7.83l-6.76-14.01C179.28,24.46,181.27,20.88,181.18,17.05"
   fill="#323232" />
				</g>

					<rect
   id="Rectangle_665_00000084490768514088055870000014518154383416082364_"
   x="185.37"
   y="20.03"
   class="st3"
   width="34.54"
   height="7.1" />
				<path
   id="Path_3463_00000054267709137606610260000003312083690805719469_"
   d="M237.26,34.58h-4.72v-22h4.72      c6.42,0,10.51,4.28,10.51,11C247.77,30.34,243.73,34.58,237.26,34.58 M237.26,6.31h-11.83v34.54h11.82      c10.41,0,17.61-7.11,17.61-17.27C254.87,13.51,247.62,6.31,237.26,6.31"
   fill="#323232" />
				<path
   id="Path_3464_00000155860452239752598420000001929891220869406898_"
   d="M274.29,26.65h12.7      c-0.29,4.38-3.16,8.42-10.36,8.42c-5.84,0-10.27-5.21-10.27-11.48s4.72-11.48,10.56-11.48c3.7-0.17,7.14,1.86,8.79,5.18      l6.49-2.6c-2.94-5.7-8.86-9.23-15.28-9.1c-9.81,0.18-17.67,8.19-17.66,18c-0.14,9.75,7.62,17.79,17.37,18      c11.92,0,17.52-8.42,17.52-17.12v-4.09H274.3v6.27H274.29z"
   fill="#323232" />
				<path
   id="Path_3465_00000111886332096219390780000006468762126942396589_"
   d="M299.49,6.32v34.54h23.26v-6.28H306.6v-7.93h14.79      v-6.28H306.6v-7.78h16.15V6.32H299.49z"
   fill="#323232" />
			</g>
			<g
   id="g8336">
				<g
   id="g8220">
					<g
   id="g8050">
						<rect
   x="512.76"
   y="524.82"
   class="st4"
   width="235"
   height="65"
   id="rect8010" />
						<rect
   x="520.26"
   y="532.32"
   class="st5"
   width="157.5"
   height="50"
   id="rect8012" />
						<rect
   x="527.76"
   y="537.32"
   class="st6"
   width="5"
   height="40"
   id="rect8014" />
						<rect
   x="540.26"
   y="537.32"
   class="st7"
   width="5"
   height="40"
   id="rect8016" />
						<rect
   x="552.76"
   y="537.32"
   class="st7"
   width="5"
   height="40"
   id="rect8018" />
						<rect
   x="565.26"
   y="537.32"
   class="st7"
   width="5"
   height="40"
   id="rect8020" />
						<rect
   x="577.76"
   y="537.32"
   class="st7"
   width="5"
   height="40"
   id="rect8022" />
						<rect
   x="590.26"
   y="537.32"
   class="st7"
   width="5"
   height="40"
   id="rect8024" />
						<rect
   x="602.76"
   y="537.32"
   class="st7"
   width="5"
   height="40"
   id="rect8026" />
						<rect
   x="615.26"
   y="537.32"
   class="st7"
   width="5"
   height="40"
   id="rect8028" />
						<rect
   x="627.76"
   y="537.32"
   class="st7"
   width="5"
   height="40"
   id="rect8030" />
						<rect
   x="640.26"
   y="537.32"
   class="st7"
   width="5"
   height="40"
   id="rect8032" />
						<rect
   x="652.76"
   y="537.32"
   class="st7"
   width="5"
   height="40"
   id="rect8034" />
						<rect
   x="665.26"
   y="537.32"
   class="st7"
   width="5"
   height="40"
   id="rect8036" />
						<rect
   x="732.76"
   y="532.32"
   class="st7"
   width="7.5"
   height="50"
   id="rect8038" />
						<circle
   class="st8"
   cx="721.26"
   cy="536.32"
   r="4"
   id="circle8040" />
						<circle
   class="st7"
   cx="721.26"
   cy="550.32"
   r="4"
   id="circle8042" />
						<circle
   class="st7"
   cx="721.26"
   cy="578.32"
   r="4"
   id="circle8044" />
						<circle
   class="st6"
   cx="721.26"
   cy="564.32"
   r="4"
   id="circle8046" />
						<rect
   x="520.26"
   y="589.82"
   class="st9"
   width="220"
   height="5"
   id="rect8048" />
					</g>
					<g
   id="g8092">
						<rect
   x="512.76"
   y="454.82"
   class="st4"
   width="235"
   height="65"
   id="rect8052" />
						<rect
   x="520.26"
   y="462.32"
   class="st5"
   width="157.5"
   height="50"
   id="rect8054" />
						<rect
   x="527.76"
   y="467.32"
   class="st7"
   width="5"
   height="40"
   id="rect8056" />
						<rect
   x="540.26"
   y="467.32"
   class="st7"
   width="5"
   height="40"
   id="rect8058" />
						<rect
   x="552.76"
   y="467.32"
   class="st7"
   width="5"
   height="40"
   id="rect8060" />
						<rect
   x="565.26"
   y="467.32"
   class="st7"
   width="5"
   height="40"
   id="rect8062" />
						<rect
   x="577.76"
   y="467.32"
   class="st7"
   width="5"
   height="40"
   id="rect8064" />
						<rect
   x="590.26"
   y="467.32"
   class="st7"
   width="5"
   height="40"
   id="rect8066" />
						<rect
   x="602.76"
   y="467.32"
   class="st7"
   width="5"
   height="40"
   id="rect8068" />
						<rect
   x="615.26"
   y="467.32"
   class="st7"
   width="5"
   height="40"
   id="rect8070" />
						<rect
   x="627.76"
   y="467.32"
   class="st7"
   width="5"
   height="40"
   id="rect8072" />
						<rect
   x="640.26"
   y="467.32"
   class="st7"
   width="5"
   height="40"
   id="rect8074" />
						<rect
   x="652.76"
   y="467.32"
   class="st6"
   width="5"
   height="40"
   id="rect8076" />
						<rect
   x="665.26"
   y="467.32"
   class="st7"
   width="5"
   height="40"
   id="rect8078" />
						<rect
   x="732.76"
   y="462.32"
   class="st7"
   width="7.5"
   height="50"
   id="rect8080" />
						<circle
   class="st6"
   cx="721.26"
   cy="466.32"
   r="4"
   id="circle8082" />
						<circle
   class="st7"
   cx="721.26"
   cy="480.32"
   r="4"
   id="circle8084" />
						<circle
   class="st8"
   cx="721.26"
   cy="508.32"
   r="4"
   id="circle8086" />
						<circle
   class="st7"
   cx="721.26"
   cy="494.32"
   r="4"
   id="circle8088" />
						<rect
   x="520.26"
   y="519.82"
   class="st9"
   width="220"
   height="5"
   id="rect8090" />
					</g>
					<g
   id="g8134">
						<rect
   x="512.76"
   y="384.82"
   class="st4"
   width="235"
   height="65"
   id="rect8094" />
						<rect
   x="520.26"
   y="392.32"
   class="st5"
   width="157.5"
   height="50"
   id="rect8096" />
						<rect
   x="527.76"
   y="397.32"
   class="st7"
   width="5"
   height="40"
   id="rect8098" />
						<rect
   x="540.26"
   y="397.32"
   class="st7"
   width="5"
   height="40"
   id="rect8100" />
						<rect
   x="552.76"
   y="397.32"
   class="st7"
   width="5"
   height="40"
   id="rect8102" />
						<rect
   x="565.26"
   y="397.32"
   class="st7"
   width="5"
   height="40"
   id="rect8104" />
						<rect
   x="577.76"
   y="397.32"
   class="st6"
   width="5"
   height="40"
   id="rect8106" />
						<rect
   x="590.26"
   y="397.32"
   class="st7"
   width="5"
   height="40"
   id="rect8108" />
						<rect
   x="602.76"
   y="397.32"
   class="st7"
   width="5"
   height="40"
   id="rect8110" />
						<rect
   x="615.26"
   y="397.32"
   class="st7"
   width="5"
   height="40"
   id="rect8112" />
						<rect
   x="627.76"
   y="397.32"
   class="st7"
   width="5"
   height="40"
   id="rect8114" />
						<rect
   x="640.26"
   y="397.32"
   class="st7"
   width="5"
   height="40"
   id="rect8116" />
						<rect
   x="652.76"
   y="397.32"
   class="st7"
   width="5"
   height="40"
   id="rect8118" />
						<rect
   x="665.26"
   y="397.32"
   class="st7"
   width="5"
   height="40"
   id="rect8120" />
						<rect
   x="732.76"
   y="392.32"
   class="st7"
   width="7.5"
   height="50"
   id="rect8122" />
						<circle
   class="st7"
   cx="721.26"
   cy="396.32"
   r="4"
   id="circle8124" />
						<circle
   class="st6"
   cx="721.26"
   cy="410.32"
   r="4"
   id="circle8126" />
						<circle
   class="st7"
   cx="721.26"
   cy="438.32"
   r="4"
   id="circle8128" />
						<circle
   class="st8"
   cx="721.26"
   cy="424.32"
   r="4"
   id="circle8130" />
						<rect
   x="520.26"
   y="449.82"
   class="st9"
   width="220"
   height="5"
   id="rect8132" />
					</g>
					<g
   id="g8176">
						<rect
   x="512.76"
   y="314.82"
   class="st4"
   width="235"
   height="65"
   id="rect8136" />
						<rect
   x="520.26"
   y="322.32"
   class="st5"
   width="157.5"
   height="50"
   id="rect8138" />
						<rect
   x="527.76"
   y="327.32"
   class="st7"
   width="5"
   height="40"
   id="rect8140" />
						<rect
   x="540.26"
   y="327.32"
   class="st7"
   width="5"
   height="40"
   id="rect8142" />
						<rect
   x="552.76"
   y="327.32"
   class="st7"
   width="5"
   height="40"
   id="rect8144" />
						<rect
   x="565.26"
   y="327.32"
   class="st7"
   width="5"
   height="40"
   id="rect8146" />
						<rect
   x="577.76"
   y="327.32"
   class="st7"
   width="5"
   height="40"
   id="rect8148" />
						<rect
   x="590.26"
   y="327.32"
   class="st7"
   width="5"
   height="40"
   id="rect8150" />
						<rect
   x="602.76"
   y="327.32"
   class="st7"
   width="5"
   height="40"
   id="rect8152" />
						<rect
   x="615.26"
   y="327.32"
   class="st7"
   width="5"
   height="40"
   id="rect8154" />
						<rect
   x="627.76"
   y="327.32"
   class="st7"
   width="5"
   height="40"
   id="rect8156" />
						<rect
   x="640.26"
   y="327.32"
   class="st7"
   width="5"
   height="40"
   id="rect8158" />
						<rect
   x="652.76"
   y="327.32"
   class="st7"
   width="5"
   height="40"
   id="rect8160" />
						<rect
   x="665.26"
   y="327.32"
   class="st6"
   width="5"
   height="40"
   id="rect8162" />
						<rect
   x="732.76"
   y="322.32"
   class="st7"
   width="7.5"
   height="50"
   id="rect8164" />
						<circle
   class="st6"
   cx="721.26"
   cy="326.32"
   r="4"
   id="circle8166" />
						<circle
   class="st7"
   cx="721.26"
   cy="340.32"
   r="4"
   id="circle8168" />
						<circle
   class="st8"
   cx="721.26"
   cy="368.32"
   r="4"
   id="circle8170" />
						<circle
   class="st7"
   cx="721.26"
   cy="354.32"
   r="4"
   id="circle8172" />
						<rect
   x="520.26"
   y="379.82"
   class="st9"
   width="220"
   height="5"
   id="rect8174" />
					</g>
					<g
   id="g8218">
						<rect
   x="512.76"
   y="244.82"
   class="st4"
   width="235"
   height="65"
   id="rect8178" />
						<rect
   x="520.26"
   y="252.32"
   class="st5"
   width="157.5"
   height="50"
   id="rect8180" />
						<rect
   x="527.76"
   y="257.32"
   class="st7"
   width="5"
   height="40"
   id="rect8182" />
						<rect
   x="540.26"
   y="257.32"
   class="st6"
   width="5"
   height="40"
   id="rect8184" />
						<rect
   x="552.76"
   y="257.32"
   class="st7"
   width="5"
   height="40"
   id="rect8186" />
						<rect
   x="565.26"
   y="257.32"
   class="st7"
   width="5"
   height="40"
   id="rect8188" />
						<rect
   x="577.76"
   y="257.32"
   class="st7"
   width="5"
   height="40"
   id="rect8190" />
						<rect
   x="590.26"
   y="257.32"
   class="st7"
   width="5"
   height="40"
   id="rect8192" />
						<rect
   x="602.76"
   y="257.32"
   class="st7"
   width="5"
   height="40"
   id="rect8194" />
						<rect
   x="615.26"
   y="257.32"
   class="st7"
   width="5"
   height="40"
   id="rect8196" />
						<rect
   x="627.76"
   y="257.32"
   class="st7"
   width="5"
   height="40"
   id="rect8198" />
						<rect
   x="640.26"
   y="257.32"
   class="st7"
   width="5"
   height="40"
   id="rect8200" />
						<rect
   x="652.76"
   y="257.32"
   class="st7"
   width="5"
   height="40"
   id="rect8202" />
						<rect
   x="665.26"
   y="257.32"
   class="st7"
   width="5"
   height="40"
   id="rect8204" />
						<rect
   x="732.76"
   y="252.32"
   class="st7"
   width="7.5"
   height="50"
   id="rect8206" />
						<circle
   class="st7"
   cx="721.26"
   cy="256.32"
   r="4"
   id="circle8208" />
						<circle
   class="st8"
   cx="721.26"
   cy="270.32"
   r="4"
   id="circle8210" />
						<circle
   class="st6"
   cx="721.26"
   cy="298.32"
   r="4"
   id="circle8212" />
						<circle
   class="st7"
   cx="721.26"
   cy="284.32"
   r="4"
   id="circle8214" />
						<rect
   x="520.26"
   y="309.82"
   class="st9"
   width="220"
   height="5"
   id="rect8216" />
					</g>
				</g>
				<g
   id="g8334">
					<g
   id="g8226">
						<rect
   x="512.76"
   y="594.82"
   class="st4"
   width="235"
   height="65"
   id="rect8222" />
						<rect
   x="520.26"
   y="659.82"
   class="st9"
   width="220"
   height="5"
   id="rect8224" />
					</g>
					<g
   id="g8324">
						<rect
   x="520.26"
   y="605.38"
   class="st9"
   width="5"
   height="5"
   id="rect8228" />
						<rect
   x="530.26"
   y="605.38"
   class="st9"
   width="5"
   height="5"
   id="rect8230" />
						<rect
   x="540.26"
   y="605.38"
   class="st9"
   width="5"
   height="5"
   id="rect8232" />
						<rect
   x="550.26"
   y="605.38"
   class="st9"
   width="5"
   height="5"
   id="rect8234" />
						<rect
   x="560.26"
   y="605.38"
   class="st9"
   width="5"
   height="5"
   id="rect8236" />
						<rect
   x="570.26"
   y="605.38"
   class="st9"
   width="5"
   height="5"
   id="rect8238" />
						<rect
   x="580.26"
   y="605.38"
   class="st9"
   width="5"
   height="5"
   id="rect8240" />
						<rect
   x="590.26"
   y="605.38"
   class="st9"
   width="5"
   height="5"
   id="rect8242" />
						<rect
   x="600.26"
   y="605.38"
   class="st9"
   width="5"
   height="5"
   id="rect8244" />
						<rect
   x="610.26"
   y="605.38"
   class="st9"
   width="5"
   height="5"
   id="rect8246" />
						<rect
   x="525.26"
   y="615.38"
   class="st9"
   width="5"
   height="5"
   id="rect8248" />
						<rect
   x="535.26"
   y="615.38"
   class="st9"
   width="5"
   height="5"
   id="rect8250" />
						<rect
   x="545.26"
   y="615.38"
   class="st9"
   width="5"
   height="5"
   id="rect8252" />
						<rect
   x="555.26"
   y="615.38"
   class="st9"
   width="5"
   height="5"
   id="rect8254" />
						<rect
   x="565.26"
   y="615.38"
   class="st9"
   width="5"
   height="5"
   id="rect8256" />
						<rect
   x="575.26"
   y="615.38"
   class="st9"
   width="5"
   height="5"
   id="rect8258" />
						<rect
   x="585.26"
   y="615.38"
   class="st9"
   width="5"
   height="5"
   id="rect8260" />
						<rect
   x="595.26"
   y="615.38"
   class="st9"
   width="5"
   height="5"
   id="rect8262" />
						<rect
   x="605.26"
   y="615.38"
   class="st9"
   width="5"
   height="5"
   id="rect8264" />
						<rect
   x="520.26"
   y="625.38"
   class="st9"
   width="5"
   height="5"
   id="rect8266" />
						<rect
   x="530.26"
   y="625.38"
   class="st9"
   width="5"
   height="5"
   id="rect8268" />
						<rect
   x="540.26"
   y="625.38"
   class="st9"
   width="5"
   height="5"
   id="rect8270" />
						<rect
   x="550.26"
   y="625.38"
   class="st9"
   width="5"
   height="5"
   id="rect8272" />
						<rect
   x="560.26"
   y="625.38"
   class="st9"
   width="5"
   height="5"
   id="rect8274" />
						<rect
   x="570.26"
   y="625.38"
   class="st9"
   width="5"
   height="5"
   id="rect8276" />
						<rect
   x="580.26"
   y="625.38"
   class="st9"
   width="5"
   height="5"
   id="rect8278" />
						<rect
   x="590.26"
   y="625.38"
   class="st9"
   width="5"
   height="5"
   id="rect8280" />
						<rect
   x="600.26"
   y="625.38"
   class="st9"
   width="5"
   height="5"
   id="rect8282" />
						<rect
   x="610.26"
   y="625.38"
   class="st9"
   width="5"
   height="5"
   id="rect8284" />
						<rect
   x="525.26"
   y="635.38"
   class="st9"
   width="5"
   height="5"
   id="rect8286" />
						<rect
   x="535.26"
   y="635.38"
   class="st9"
   width="5"
   height="5"
   id="rect8288" />
						<rect
   x="545.26"
   y="635.38"
   class="st9"
   width="5"
   height="5"
   id="rect8290" />
						<rect
   x="555.26"
   y="635.38"
   class="st9"
   width="5"
   height="5"
   id="rect8292" />
						<rect
   x="565.26"
   y="635.38"
   class="st9"
   width="5"
   height="5"
   id="rect8294" />
						<rect
   x="575.26"
   y="635.38"
   class="st9"
   width="5"
   height="5"
   id="rect8296" />
						<rect
   x="585.26"
   y="635.38"
   class="st9"
   width="5"
   height="5"
   id="rect8298" />
						<rect
   x="595.26"
   y="635.38"
   class="st9"
   width="5"
   height="5"
   id="rect8300" />
						<rect
   x="605.26"
   y="635.38"
   class="st9"
   width="5"
   height="5"
   id="rect8302" />
						<rect
   x="520.26"
   y="645.38"
   class="st9"
   width="5"
   height="5"
   id="rect8304" />
						<rect
   x="530.26"
   y="645.38"
   class="st9"
   width="5"
   height="5"
   id="rect8306" />
						<rect
   x="540.26"
   y="645.38"
   class="st9"
   width="5"
   height="5"
   id="rect8308" />
						<rect
   x="550.26"
   y="645.38"
   class="st9"
   width="5"
   height="5"
   id="rect8310" />
						<rect
   x="560.26"
   y="645.38"
   class="st9"
   width="5"
   height="5"
   id="rect8312" />
						<rect
   x="570.26"
   y="645.38"
   class="st9"
   width="5"
   height="5"
   id="rect8314" />
						<rect
   x="580.26"
   y="645.38"
   class="st9"
   width="5"
   height="5"
   id="rect8316" />
						<rect
   x="590.26"
   y="645.38"
   class="st9"
   width="5"
   height="5"
   id="rect8318" />
						<rect
   x="600.26"
   y="645.38"
   class="st9"
   width="5"
   height="5"
   id="rect8320" />
						<rect
   x="610.26"
   y="645.38"
   class="st9"
   width="5"
   height="5"
   id="rect8322" />
					</g>
					<rect
   x="727.76"
   y="602.32"
   class="st5"
   width="12.5"
   height="50"
   id="rect8326" />
					<path
   class="st10"
   d="M734.01,627.35L734.01,627.35c-2.07,0-3.75-1.68-3.75-3.75v-15.03c0-2.07,1.68-3.75,3.75-3.75l0,0       c2.07,0,3.75,1.68,3.75,3.75v15.03C737.76,625.67,736.09,627.35,734.01,627.35z"
   id="path8328" />
					<circle
   class="st8"
   cx="734.01"
   cy="645.38"
   r="4"
   id="circle8330" />
					<circle
   cx="734.01"
   cy="608.82"
   r="2.5"
   id="circle8332" />
				</g>
			</g>
		</g>
	</g>
	<path
   class="st2"
   d="M291,770.23H31c-16.57,0-30-13.43-30-30v-260c0-16.57,13.43-30,30-30h260c16.57,0,30,13.43,30,30v260   C321,756.8,307.56,770.23,291,770.23z"
   id="path8342" />
	<path
   class="st11"
   d="M261,489.52H61c-5.52,0-10-4.48-10-10v-60c0-5.52,4.48-10,10-10h200c5.52,0,10,4.48,10,10v60   C271,485.05,266.52,489.52,261,489.52z"
   id="path8344" />
	<g
   id="g8368">
		<g
   class="st12"
   id="g8366">
			<path
   class="st8"
   d="M108.03,439.91l-6.33,11.21v6.71h-2.42v-6.71l-6.41-11.21h2.8l4.85,8.81l4.74-8.81H108.03z"
   id="path8346" />
			<path
   class="st8"
   d="M106.42,451.77c0-3.61,2.75-6.44,6.51-6.44s6.49,2.83,6.49,6.44c0,3.58-2.73,6.44-6.49,6.44     S106.42,455.35,106.42,451.77z M116.94,451.77c0-2.42-1.56-4.29-4.01-4.29c-2.37,0-4.04,1.87-4.04,4.29     c0,2.4,1.64,4.29,4.04,4.29C115.38,456.06,116.94,454.17,116.94,451.77z"
   id="path8348" />
			<path
   class="st8"
   d="M134.94,455.61v2.22h-0.73c-1.62,0-2.3-0.66-2.6-1.87c-0.93,1.41-2.47,2.25-4.37,2.25     c-3.1,0-5.17-1.84-5.17-5.53v-6.97h2.45v6.61c0,2.57,1.19,3.63,3.18,3.63c2.15,0,3.51-1.57,3.51-3.86v-6.38h2.42v8.61     c0,0.88,0.05,1.29,0.81,1.29H134.94z"
   id="path8350" />
			<path
   class="st8"
   d="M144.48,445.71v2.25c-2.83,0-4.09,1.64-4.09,3.86v6.01h-2.42v-12.11h2.42v2.15     C141.28,446.52,142.72,445.71,144.48,445.71z"
   id="path8352" />
			<path
   class="st8"
   d="M152.34,453.13l2.27-0.73c0.38,1.72,1.59,3.56,4.19,3.56c2.2,0,3.76-1.09,3.76-3.1     c0-4.04-9.62-2.45-9.62-8.08c0-3.41,2.88-5.25,5.8-5.25c2.85,0,5.02,1.51,5.86,4.01l-2.25,0.68c-0.48-1.39-1.67-2.47-3.56-2.47     c-1.62,0-3.36,0.76-3.36,2.78c0,3.76,9.62,1.99,9.62,8.18c0,3.33-2.5,5.5-6.31,5.5C154.94,458.21,152.92,455.71,152.34,453.13z"
   id="path8354" />
			<path
   class="st8"
   d="M167.13,451.62c0-3.61,2.62-6.28,6.11-6.28c3.91,0,6.26,2.78,5.93,6.97h-9.54c0.2,2.52,1.69,3.84,3.68,3.84     c1.94,0,3.18-0.98,3.89-2.6l1.94,0.81c-0.93,2.27-3,3.86-5.83,3.86C169.5,458.21,167.13,455.28,167.13,451.62z M176.82,450.51     c-0.2-2.2-1.64-3.18-3.58-3.18c-2.02,0-3.33,1.41-3.58,3.18H176.82z"
   id="path8356" />
			<path
   class="st8"
   d="M188.53,445.71v2.25c-2.83,0-4.09,1.64-4.09,3.86v6.01h-2.42v-12.11h2.42v2.15     C185.33,446.52,186.77,445.71,188.53,445.71z"
   id="path8358" />
			<path
   class="st8"
   d="M202.62,445.71l-5.25,12.11h-2.15l-5.25-12.11h2.65l3.69,9.34l3.68-9.34H202.62z"
   id="path8360" />
			<path
   class="st8"
   d="M203.5,451.62c0-3.61,2.62-6.28,6.11-6.28c3.91,0,6.26,2.78,5.93,6.97H206c0.2,2.52,1.69,3.84,3.68,3.84     c1.94,0,3.18-0.98,3.89-2.6l1.94,0.81c-0.93,2.27-3,3.86-5.83,3.86C205.88,458.21,203.5,455.28,203.5,451.62z M213.19,450.51     c-0.2-2.2-1.64-3.18-3.58-3.18c-2.02,0-3.33,1.41-3.58,3.18H213.19z"
   id="path8362" />
			<path
   class="st8"
   d="M224.91,445.71v2.25c-2.83,0-4.09,1.64-4.09,3.86v6.01h-2.42v-12.11h2.42v2.15     C221.7,446.52,223.14,445.71,224.91,445.71z"
   id="path8364" />
		</g>
	</g>
	<path
   class="st2"
   d="M291,361.46H31c-16.57,0-30-13.43-30-30v-260c0-16.57,13.43-30,30-30h260c16.57,0,30,13.43,30,30v260   C321,348.02,307.56,361.46,291,361.46z"
   id="path8370" />
	<g
   class="st12"
   id="g8396">
		<path
   class="st13"
   d="M31.71,126.39c0-3.88,3.19-7.19,6.95-7.19c2.84,0,5.26,1.61,6.18,4.1l-2.08,0.7    c-0.66-1.75-2.08-2.78-4.1-2.78c-2.64,0-4.74,2.25-4.74,5.17c0,2.91,2.1,5.17,4.74,5.17c1.98,0,3.26-0.97,4.04-2.54l2.04,0.83    c-1.09,2.29-3.32,3.73-6.08,3.73C34.9,133.58,31.71,130.28,31.71,126.39z"
   id="path8372" />
		<path
   class="st13"
   d="M56.82,131.33v1.96h-0.58c-1.32,0-1.88-0.47-2.16-1.34c-0.7,1.01-1.87,1.63-3.32,1.63    c-2.41,0-3.96-1.46-3.96-4.25v-5.36H49v5.01c0,1.83,0.82,2.6,2.23,2.6c1.5,0,2.43-1.07,2.43-2.76v-4.86h2.2v6.45    c0,0.6,0.02,0.91,0.56,0.91H56.82z"
   id="path8374" />
		<path
   class="st13"
   d="M58.55,130.8l2.06-0.5c0.21,0.87,0.8,1.51,1.83,1.51s1.71-0.45,1.71-1.2c0-1.85-5.21-0.72-5.21-3.94    c0-1.73,1.5-2.99,3.5-2.99c1.61,0,2.74,0.7,3.46,2.02l-1.75,0.8c-0.37-0.64-0.91-1.05-1.73-1.05c-0.85,0-1.34,0.47-1.34,1.01    c0,1.65,5.22,0.53,5.22,4.02c0,1.84-1.55,3.11-3.88,3.11C60.37,133.58,58.96,132.47,58.55,130.8z"
   id="path8376" />
		<path
   class="st13"
   d="M71.44,125.79v4.6c0,0.62,0.17,0.91,0.83,0.91h1.3v1.98H72.2c-1.92,0-2.95-1.13-2.95-2.89v-4.6h-1.98v-1.83    h1.98v-2.7l2.2-0.52v3.22h2.52v1.83H71.44z"
   id="path8378" />
		<path
   class="st13"
   d="M75.21,128.62c0-2.78,2.14-4.95,5.03-4.95c2.91,0,5.05,2.18,5.05,4.95c0,2.78-2.14,4.95-5.05,4.95    C77.34,133.58,75.21,131.4,75.21,128.62z M83.07,128.62c0-1.73-1.09-3.05-2.84-3.05c-1.71,0-2.84,1.32-2.84,3.05    c0,1.73,1.13,3.05,2.84,3.05C81.99,131.67,83.07,130.35,83.07,128.62z"
   id="path8380" />
		<path
   class="st13"
   d="M101.5,127.63v5.65h-2.2v-5.23c0-1.75-0.62-2.39-1.75-2.39c-1.17,0-2.06,0.82-2.06,2.41v5.21h-2.2v-5.23    c0-1.75-0.62-2.39-1.77-2.39c-1.2,0-2.06,0.91-2.06,2.54v5.07h-2.2v-9.32h2.2v1.17c0.54-0.87,1.48-1.46,2.54-1.46    c1.44,0,2.45,0.52,2.95,1.65c0.68-1.2,1.79-1.65,3.05-1.65C100.2,123.67,101.5,125.15,101.5,127.63z"
   id="path8382" />
		<path
   class="st13"
   d="M103.32,128.53c0-2.82,2.06-4.86,4.74-4.86c2.99,0,4.82,2.18,4.56,5.46h-7.09c0.16,1.71,1.18,2.64,2.6,2.64    c1.36,0,2.25-0.7,2.74-1.83l1.71,0.7c-0.72,1.73-2.33,2.93-4.45,2.93C105.19,133.58,103.32,131.36,103.32,128.53z M110.55,127.6    c-0.19-1.5-1.15-2.18-2.49-2.18c-1.36,0-2.29,0.93-2.51,2.18H110.55z"
   id="path8384" />
		<path
   class="st13"
   d="M119.95,123.96v2c-2.25,0-3.09,1.17-3.09,2.76v4.56h-2.2v-9.32h2.2v1.52    C117.54,124.55,118.63,123.96,119.95,123.96z"
   id="path8386" />
		<path
   class="st13"
   d="M137.15,119.5v13.79h-2.04l-6.7-9.95v9.95h-2.2V119.5h2.04l6.7,9.95v-9.95H137.15z"
   id="path8388" />
		<path
   class="st13"
   d="M148.72,131.33v1.96h-0.39c-1.57,0-2.29-0.31-2.58-1.26c-0.51,0.91-1.85,1.55-3.19,1.55    c-1.81,0-3.26-0.99-3.26-2.76c0-2.49,3.05-3.09,5.96-3.59c-0.06-1.18-0.78-1.79-1.81-1.79c-1.11,0-1.96,0.58-2.31,1.77l-1.87-0.5    c0.72-2.31,2.62-3.03,4.35-3.03c2.12,0,3.83,1.3,3.83,3.75v3.07c0,0.6,0.02,0.83,0.87,0.83H148.72z M145.27,128.74    c-1.88,0.29-3.77,0.64-3.77,1.84c0,0.91,0.66,1.26,1.5,1.26c1.59,0,2.27-1.13,2.27-2.54V128.74z"
   id="path8390" />
		<path
   class="st13"
   d="M165.02,127.63v5.65h-2.2v-5.23c0-1.75-0.62-2.39-1.75-2.39c-1.17,0-2.06,0.82-2.06,2.41v5.21h-2.2v-5.23    c0-1.75-0.62-2.39-1.77-2.39c-1.2,0-2.06,0.91-2.06,2.54v5.07h-2.2v-9.32h2.2v1.17c0.54-0.87,1.48-1.46,2.54-1.46    c1.44,0,2.45,0.52,2.95,1.65c0.68-1.2,1.79-1.65,3.05-1.65C163.72,123.67,165.02,125.15,165.02,127.63z"
   id="path8392" />
		<path
   class="st13"
   d="M166.84,128.53c0-2.82,2.06-4.86,4.74-4.86c2.99,0,4.82,2.18,4.56,5.46h-7.09c0.16,1.71,1.18,2.64,2.6,2.64    c1.36,0,2.25-0.7,2.74-1.83l1.71,0.7c-0.72,1.73-2.33,2.93-4.45,2.93C168.7,133.58,166.84,131.36,166.84,128.53z M174.06,127.6    c-0.19-1.5-1.15-2.18-2.49-2.18c-1.36,0-2.29,0.93-2.51,2.18H174.06z"
   id="path8394" />
	</g>
	<g
   class="st12"
   id="g8420">
		<path
   class="st13"
   d="M31.71,243.74c0-3.88,3.19-7.19,6.95-7.19c2.84,0,5.26,1.61,6.18,4.1l-2.08,0.7    c-0.66-1.75-2.08-2.78-4.1-2.78c-2.64,0-4.74,2.25-4.74,5.17c0,2.91,2.1,5.17,4.74,5.17c1.98,0,3.26-0.97,4.04-2.54l2.04,0.83    c-1.09,2.29-3.32,3.73-6.08,3.73C34.9,250.93,31.71,247.62,31.71,243.74z"
   id="path8398" />
		<path
   class="st13"
   d="M55.77,248.67v1.96h-0.39c-1.57,0-2.29-0.31-2.58-1.26c-0.5,0.91-1.84,1.55-3.19,1.55    c-1.81,0-3.26-0.99-3.26-2.76c0-2.49,3.05-3.09,5.96-3.59c-0.06-1.18-0.78-1.79-1.81-1.79c-1.11,0-1.96,0.58-2.31,1.77l-1.86-0.5    c0.72-2.31,2.62-3.03,4.35-3.03c2.12,0,3.83,1.3,3.83,3.75v3.07c0,0.6,0.02,0.83,0.88,0.83H55.77z M52.32,246.09    c-1.88,0.29-3.77,0.64-3.77,1.84c0,0.91,0.66,1.26,1.5,1.26c1.59,0,2.27-1.13,2.27-2.54V246.09z"
   id="path8400" />
		<path
   class="st13"
   d="M63.13,241.31v2c-2.25,0-3.09,1.17-3.09,2.76v4.56h-2.2v-9.32h2.2v1.52    C60.72,241.89,61.81,241.31,63.13,241.31z"
   id="path8402" />
		<path
   class="st13"
   d="M63.98,245.97c0-3.07,2.27-4.95,4.74-4.95c1.22,0,2.43,0.52,3.01,1.4v-5.57h2.19v13.79h-2.19v-1.09    c-0.58,0.87-1.79,1.38-3.01,1.38C66.26,250.93,63.98,249.04,63.98,245.97z M71.74,245.97c0-1.77-1.09-3.05-2.76-3.05    c-1.75,0-2.8,1.32-2.8,3.05c0,1.73,1.05,3.05,2.8,3.05C70.65,249.02,71.74,247.74,71.74,245.97z"
   id="path8404" />
		<path
   class="st13"
   d="M92.4,243.74c0,4.08-2.86,6.9-6.99,6.9h-4.54v-13.79h4.54C89.52,236.84,92.4,239.72,92.4,243.74z     M90.18,243.74c0-2.97-1.86-4.92-4.78-4.92h-2.35v9.83h2.35C88.32,248.65,90.18,246.75,90.18,243.74z"
   id="path8406" />
		<path
   class="st13"
   d="M93.85,245.88c0-2.82,2.06-4.86,4.74-4.86c2.99,0,4.82,2.18,4.56,5.46h-7.09c0.16,1.71,1.19,2.64,2.6,2.64    c1.36,0,2.25-0.7,2.74-1.83l1.71,0.7c-0.72,1.73-2.33,2.93-4.45,2.93C95.71,250.93,93.85,248.71,93.85,245.88z M101.07,244.94    c-0.19-1.5-1.15-2.18-2.49-2.18c-1.36,0-2.29,0.93-2.51,2.18H101.07z"
   id="path8408" />
		<path
   class="st13"
   d="M108.12,243.14v4.6c0,0.62,0.17,0.91,0.83,0.91h1.3v1.98h-1.38c-1.92,0-2.95-1.13-2.95-2.89v-4.6h-1.98    v-1.83h1.98v-2.7l2.2-0.52v3.22h2.52v1.83H108.12z"
   id="path8410" />
		<path
   class="st13"
   d="M121.64,248.67v1.96h-0.39c-1.57,0-2.29-0.31-2.58-1.26c-0.5,0.91-1.84,1.55-3.19,1.55    c-1.81,0-3.26-0.99-3.26-2.76c0-2.49,3.05-3.09,5.96-3.59c-0.06-1.18-0.78-1.79-1.81-1.79c-1.11,0-1.96,0.58-2.31,1.77l-1.86-0.5    c0.72-2.31,2.62-3.03,4.35-3.03c2.12,0,3.83,1.3,3.83,3.75v3.07c0,0.6,0.02,0.83,0.88,0.83H121.64z M118.18,246.09    c-1.88,0.29-3.77,0.64-3.77,1.84c0,0.91,0.66,1.26,1.5,1.26c1.59,0,2.27-1.13,2.27-2.54V246.09z"
   id="path8412" />
		<path
   class="st13"
   d="M124.96,237.23c0.78,0,1.42,0.6,1.42,1.42c0,0.78-0.64,1.36-1.42,1.36c-0.8,0-1.44-0.58-1.44-1.36    C123.52,237.81,124.16,237.23,124.96,237.23z M126.04,250.63h-2.17v-9.32h2.17V250.63z"
   id="path8414" />
		<path
   class="st13"
   d="M128.84,247.78v-10.94h2.2v10.92c0,0.6,0.21,0.91,0.76,0.91h0.7v1.96h-0.87    C129.89,250.63,128.84,249.55,128.84,247.78z"
   id="path8416" />
		<path
   class="st13"
   d="M134,248.15l2.06-0.5c0.21,0.87,0.8,1.51,1.83,1.51s1.71-0.45,1.71-1.2c0-1.85-5.21-0.72-5.21-3.94    c0-1.73,1.5-2.99,3.5-2.99c1.61,0,2.74,0.7,3.46,2.02l-1.75,0.8c-0.37-0.64-0.91-1.05-1.73-1.05c-0.85,0-1.34,0.47-1.34,1.01    c0,1.65,5.22,0.53,5.22,4.02c0,1.84-1.55,3.11-3.88,3.11C135.83,250.93,134.41,249.82,134,248.15z"
   id="path8418" />
	</g>
	<path
   class="st14"
   d="M41,148.8h240c5.52,0,10,4.48,10,10v34c0,5.52-4.48,10-10,10H41c-5.52,0-10-4.48-10-10v-34   C31,153.28,35.47,148.8,41,148.8z"
   id="path8422" />
	<path
   class="st14"
   d="M41,265.53h240c5.52,0,10,4.48,10,10v34c0,5.52-4.48,10-10,10H41c-5.52,0-10-4.48-10-10v-34   C31,270.01,35.47,265.53,41,265.53z"
   id="path8424" />
	<g
   class="st12"
   id="g8444">
		<path
   d="M46.69,178.67l2.04-0.43c0.16,2.08,1.07,2.74,2.21,2.74c1.19,0,2.1-0.87,2.1-2.47v-9.62h2.19v9.62    c0,2.64-1.75,4.47-4.29,4.47C48.44,182.98,46.89,181.39,46.69,178.67z"
   id="path8426" />
		<path
   d="M57.04,178.03c0-2.78,2.14-4.95,5.03-4.95c2.91,0,5.05,2.18,5.05,4.95c0,2.78-2.14,4.95-5.05,4.95    C59.18,182.98,57.04,180.8,57.04,178.03z M64.91,178.03c0-1.73-1.09-3.05-2.84-3.05c-1.71,0-2.84,1.32-2.84,3.05    c0,1.73,1.13,3.05,2.84,3.05C63.82,181.08,64.91,179.75,64.91,178.03z"
   id="path8428" />
		<path
   d="M78.17,177.33v5.36h-2.2v-5.01c0-1.79-0.82-2.6-2.25-2.6c-1.5,0-2.41,1.07-2.41,2.76v4.86h-2.2V168.9h2.2v5.79    c0.6-0.97,1.55-1.61,2.87-1.61C76.62,173.07,78.17,174.53,78.17,177.33z"
   id="path8430" />
		<path
   d="M89.84,177.33v5.36h-2.2v-5.01c0-1.79-0.83-2.6-2.25-2.6c-1.5,0-2.43,1.07-2.43,2.76v4.86h-2.2v-9.32h2.2v1.32    c0.62-0.95,1.57-1.61,2.89-1.61C88.29,173.07,89.84,174.53,89.84,177.33z"
   id="path8432" />
		<path
   d="M96.56,178.94l2.06-0.64c0.25,1.38,1.18,2.68,3.03,2.68c1.55,0,2.66-0.74,2.66-2.14c0-2.86-7.26-1.75-7.26-6.1    c0-2.56,2.14-4.14,4.54-4.14c2.25,0,3.96,1.22,4.6,3.22l-2.04,0.56c-0.29-0.97-1.15-1.81-2.53-1.81c-1.19,0-2.33,0.56-2.33,1.94    c0,2.66,7.26,1.4,7.26,6.16c0,2.6-1.98,4.29-4.95,4.29C98.67,182.98,96.98,181.06,96.56,178.94z"
   id="path8434" />
		<path
   d="M122.76,177.04v5.65h-2.19v-5.23c0-1.75-0.62-2.39-1.75-2.39c-1.17,0-2.06,0.82-2.06,2.41v5.21h-2.19v-5.23    c0-1.75-0.62-2.39-1.77-2.39c-1.2,0-2.06,0.91-2.06,2.54v5.07h-2.2v-9.32h2.2v1.17c0.54-0.87,1.48-1.46,2.54-1.46    c1.44,0,2.45,0.52,2.95,1.65c0.68-1.2,1.79-1.65,3.05-1.65C121.46,173.07,122.76,174.55,122.76,177.04z"
   id="path8436" />
		<path
   d="M126.6,169.28c0.78,0,1.42,0.6,1.42,1.42c0,0.78-0.64,1.36-1.42,1.36c-0.8,0-1.44-0.58-1.44-1.36    C125.16,169.87,125.8,169.28,126.6,169.28z M127.68,182.69h-2.17v-9.32h2.17V182.69z"
   id="path8438" />
		<path
   d="M133.55,175.19v4.6c0,0.62,0.17,0.91,0.83,0.91h1.3v1.98h-1.38c-1.92,0-2.95-1.13-2.95-2.89v-4.6h-1.98v-1.83h1.98v-2.7    l2.2-0.52v3.22h2.52v1.83H133.55z"
   id="path8440" />
		<path
   d="M146.81,177.33v5.36h-2.19v-5.01c0-1.79-0.82-2.6-2.25-2.6c-1.5,0-2.41,1.07-2.41,2.76v4.86h-2.2V168.9h2.2v5.79    c0.6-0.97,1.55-1.61,2.88-1.61C145.26,173.07,146.81,174.53,146.81,177.33z"
   id="path8442" />
	</g>
	<g
   class="st12"
   id="g8478">
		<path
   d="M49.9,293.13l-0.99,1.69l-1.28-0.99l1.26-1.61l-1.87-0.58l0.49-1.44l1.73,0.8l-0.12-1.86h1.63l-0.14,1.84l1.67-0.78    l0.54,1.46l-1.9,0.56l1.24,1.65l-1.34,0.95L49.9,293.13z"
   id="path8446" />
		<path
   d="M57.78,293.13l-0.99,1.69l-1.28-0.99l1.26-1.61l-1.86-0.58l0.49-1.44l1.73,0.8l-0.12-1.86h1.63l-0.14,1.84l1.67-0.78    l0.54,1.46l-1.9,0.56l1.24,1.65l-1.34,0.95L57.78,293.13z"
   id="path8448" />
		<path
   d="M65.67,293.13l-0.99,1.69l-1.28-0.99l1.26-1.61l-1.87-0.58l0.49-1.44l1.73,0.8l-0.12-1.86h1.63l-0.14,1.84l1.67-0.78    l0.54,1.46l-1.9,0.56l1.24,1.65l-1.34,0.95L65.67,293.13z"
   id="path8450" />
		<path
   d="M73.55,293.13l-0.99,1.69l-1.28-0.99l1.26-1.61l-1.86-0.58l0.49-1.44l1.73,0.8l-0.12-1.86h1.63l-0.14,1.84l1.67-0.78    l0.54,1.46l-1.9,0.56l1.24,1.65l-1.34,0.95L73.55,293.13z"
   id="path8452" />
		<path
   d="M86.15,293.13l-0.99,1.69l-1.28-0.99l1.26-1.61l-1.86-0.58l0.49-1.44l1.73,0.8l-0.12-1.86h1.63l-0.14,1.84l1.67-0.78    l0.54,1.46l-1.9,0.56l1.24,1.65l-1.34,0.95L86.15,293.13z"
   id="path8454" />
		<path
   d="M94.03,293.13l-0.99,1.69l-1.28-0.99l1.26-1.61l-1.87-0.58l0.49-1.44l1.73,0.8l-0.12-1.86h1.63l-0.14,1.84l1.67-0.78    l0.54,1.46l-1.9,0.56l1.24,1.65l-1.34,0.95L94.03,293.13z"
   id="path8456" />
		<path
   d="M101.92,293.13l-0.99,1.69l-1.28-0.99l1.26-1.61l-1.86-0.58l0.49-1.44l1.73,0.8l-0.12-1.86h1.63l-0.14,1.84l1.67-0.78    l0.54,1.46l-1.9,0.56l1.24,1.65l-1.34,0.95L101.92,293.13z"
   id="path8458" />
		<path
   d="M109.8,293.13l-0.99,1.69l-1.28-0.99l1.26-1.61l-1.87-0.58l0.49-1.44l1.73,0.8l-0.12-1.86h1.63l-0.14,1.84l1.67-0.78    l0.54,1.46l-1.9,0.56l1.24,1.65l-1.34,0.95L109.8,293.13z"
   id="path8460" />
		<path
   d="M122.4,293.13l-0.99,1.69l-1.28-0.99l1.26-1.61l-1.87-0.58l0.49-1.44l1.73,0.8l-0.12-1.86h1.63l-0.14,1.84l1.67-0.78    l0.54,1.46l-1.9,0.56l1.24,1.65l-1.34,0.95L122.4,293.13z"
   id="path8462" />
		<path
   d="M130.29,293.13l-0.99,1.69l-1.28-0.99l1.26-1.61l-1.86-0.58l0.49-1.44l1.73,0.8l-0.12-1.86h1.63l-0.14,1.84l1.67-0.78    l0.54,1.46l-1.9,0.56l1.24,1.65l-1.34,0.95L130.29,293.13z"
   id="path8464" />
		<path
   d="M138.17,293.13l-0.99,1.69l-1.28-0.99l1.26-1.61l-1.87-0.58l0.49-1.44l1.73,0.8l-0.12-1.86h1.63l-0.14,1.84l1.67-0.78    l0.54,1.46l-1.9,0.56l1.24,1.65l-1.34,0.95L138.17,293.13z"
   id="path8466" />
		<path
   d="M146.05,293.13l-0.99,1.69l-1.28-0.99l1.26-1.61l-1.86-0.58l0.49-1.44l1.73,0.8l-0.12-1.86h1.63l-0.14,1.84l1.67-0.78    l0.54,1.46l-1.9,0.56l1.24,1.65l-1.34,0.95L146.05,293.13z"
   id="path8468" />
		<path
   d="M165.92,298.43c0,2.68-2.27,4.78-5.07,4.78c-2.49,0-4.51-1.69-4.95-3.81l2.18-0.52c0.23,1.26,1.34,2.31,2.78,2.31    c1.57,0,2.86-1.19,2.86-2.76c0-1.69-1.2-2.89-2.86-2.89c-1.07,0-1.94,0.43-2.7,1.32l-1.87-0.49l1.63-7.25h7.5v1.98h-5.92    l-0.76,3.13c0.78-0.45,1.65-0.72,2.51-0.72C163.88,293.52,165.92,295.63,165.92,298.43z"
   id="path8470" />
		<path
   d="M178.4,299.05c0,2.45-2.17,4.16-5.11,4.16c-2.95,0-5.09-1.69-5.09-4.14c0-1.57,0.8-2.84,2.33-3.5    c-1.24-0.66-1.87-1.61-1.87-3.03c0-2.23,2.1-3.71,4.62-3.71s4.64,1.52,4.64,3.71c0,1.42-0.62,2.37-1.88,3.03    C177.59,296.22,178.4,297.46,178.4,299.05z M176.19,298.92c0-1.5-1.17-2.35-2.89-2.35c-1.67,0-2.88,0.89-2.88,2.37    c0,1.36,1.13,2.29,2.88,2.29C175.01,301.23,176.19,300.26,176.19,298.92z M170.89,292.68c0,1.28,1.07,2.04,2.41,2.04    c1.46,0,2.43-0.72,2.43-2.04c0-1.15-1.05-1.87-2.43-1.87S170.89,291.54,170.89,292.68z"
   id="path8472" />
		<path
   d="M189.8,298.61c0,2.58-2.18,4.6-4.84,4.6c-2.39,0-4.47-1.67-4.84-3.87l2.21-0.5c0.14,1.32,1.28,2.31,2.62,2.31    c1.44,0,2.62-1.03,2.62-2.54c0-1.73-1.18-2.84-2.91-2.74c-0.43,0-0.93,0.19-1.38,0.45l-0.8-1.5l3.96-3.71h-5.79v-1.98h8.84v1.63    l-3.75,3.44C188.29,294.35,189.8,296.29,189.8,298.61z"
   id="path8474" />
		<path
   d="M202.21,299.05c0,2.45-2.17,4.16-5.11,4.16c-2.95,0-5.09-1.69-5.09-4.14c0-1.57,0.8-2.84,2.33-3.5    c-1.24-0.66-1.87-1.61-1.87-3.03c0-2.23,2.1-3.71,4.62-3.71s4.64,1.52,4.64,3.71c0,1.42-0.62,2.37-1.88,3.03    C201.39,296.22,202.21,297.46,202.21,299.05z M200,298.92c0-1.5-1.17-2.35-2.89-2.35c-1.67,0-2.88,0.89-2.88,2.37    c0,1.36,1.13,2.29,2.88,2.29C198.81,301.23,200,300.26,200,298.92z M194.69,292.68c0,1.28,1.07,2.04,2.41,2.04    c1.46,0,2.43-0.72,2.43-2.04c0-1.15-1.05-1.87-2.43-1.87S194.69,291.54,194.69,292.68z"
   id="path8476" />
	</g>
	<path
   class="st11"
   d="M261,80.75H61c-5.52,0-10-4.48-10-10v-60c0-5.52,4.48-10,10-10h200c5.52,0,10,4.48,10,10v60   C271,76.27,266.52,80.75,261,80.75z"
   id="path8480" />
	
	<g
   id="g8516">
		<g
   id="g8509">
			<path
   id="Path_3462_00000154398886350643381270000004288568830599421619_"
   class="st15"
   d="M320.63,201.46h150" />
			<circle
   id="Ellipse_257_00000155111987677538960630000001093099714991266953_"
   cx="320.63"
   cy="201.46"
   r="5"
   fill="#999" />
			<circle
   id="Ellipse_257_00000115473786529441229270000012292010475916101819_"
   cx="470.63"
   cy="201.46"
   r="5"
   fill="#999" />
		</g>
		<g
   id="g8514">
			<path
   id="Path_3462_00000022530126575565247960000007762099266824495542_"
   class="st15"
   d="M320.63,610.23h150" />
			<circle
   id="Ellipse_257_00000147191989486239978370000004776648982410489250_"
   cx="320.63"
   cy="610.23"
   r="5"
   fill="#999" />
			<circle
   id="Ellipse_257_00000012435272961083318790000001494824002084866738_"
   cx="470.63"
   cy="610.23"
   r="5"
   fill="#999" />
		</g>
	</g>
	<g
   id="g8523">
		<g
   id="g8521">
			<path
   id="Path_3462_00000146474952092447782330000001913588872553623937_"
   class="st15"
   d="M790.26,405.84h150" />
			<circle
   id="Ellipse_257_00000106118386424861340310000000130192888853875094_"
   cx="790.26"
   cy="405.84"
   r="5"
   fill="#999" />
			<circle
   id="Ellipse_257_00000027587755466755015840000008553103255726055583_"
   cx="940.26"
   cy="405.84"
   r="5"
   fill="#999" />
		</g>
	</g>
	<path
   id="Path_3462_00000119832441729963875120000006287379494996524980_"
   class="st11"
   d="M161,360.36v49.17" />
	<circle
   id="Ellipse_257_00000147202794123055244550000008153916714586507963_"
   cx="161"
   cy="360.36"
   r="5"
   fill="#999" />
	<circle
   id="Ellipse_257_00000068636442337230267460000012442820390112675261_"
   cx="161"
   cy="409.52"
   r="5"
   fill="#999" />
	<g
   id="g8686">
		<g
   id="g8570">
			<g
   id="g8568">
				<rect
   x="43.5"
   y="545.23"
   class="st4"
   width="235"
   height="65"
   id="rect8528" />
				<rect
   x="51"
   y="552.73"
   class="st5"
   width="157.5"
   height="50"
   id="rect8530" />
				<rect
   x="58.5"
   y="557.73"
   class="st7"
   width="5"
   height="40"
   id="rect8532" />
				<rect
   x="71"
   y="557.73"
   class="st7"
   width="5"
   height="40"
   id="rect8534" />
				<rect
   x="83.5"
   y="557.73"
   class="st7"
   width="5"
   height="40"
   id="rect8536" />
				<rect
   x="96"
   y="557.73"
   class="st7"
   width="5"
   height="40"
   id="rect8538" />
				<rect
   x="108.5"
   y="557.73"
   class="st7"
   width="5"
   height="40"
   id="rect8540" />
				<rect
   x="121"
   y="557.73"
   class="st7"
   width="5"
   height="40"
   id="rect8542" />
				<rect
   x="133.5"
   y="557.73"
   class="st7"
   width="5"
   height="40"
   id="rect8544" />
				<rect
   x="146"
   y="557.73"
   class="st7"
   width="5"
   height="40"
   id="rect8546" />
				<rect
   x="158.5"
   y="557.73"
   class="st7"
   width="5"
   height="40"
   id="rect8548" />
				<rect
   x="171"
   y="557.73"
   class="st7"
   width="5"
   height="40"
   id="rect8550" />
				<rect
   x="183.5"
   y="557.73"
   class="st6"
   width="5"
   height="40"
   id="rect8552" />
				<rect
   x="196"
   y="557.73"
   class="st7"
   width="5"
   height="40"
   id="rect8554" />
				<rect
   x="263.5"
   y="552.73"
   class="st7"
   width="7.5"
   height="50"
   id="rect8556" />
				<circle
   class="st7"
   cx="252"
   cy="556.73"
   r="4"
   id="circle8558" />
				<circle
   class="st6"
   cx="252"
   cy="570.73"
   r="4"
   id="circle8560" />
				<circle
   class="st8"
   cx="252"
   cy="598.73"
   r="4"
   id="circle8562" />
				<circle
   class="st7"
   cx="252"
   cy="584.73"
   r="4"
   id="circle8564" />
				<rect
   x="51"
   y="610.23"
   class="st9"
   width="220"
   height="5"
   id="rect8566" />
			</g>
		</g>
		<g
   id="g8684">
			<g
   id="g8576">
				<rect
   x="43.5"
   y="615.23"
   class="st4"
   width="235"
   height="65"
   id="rect8572" />
				<rect
   x="51"
   y="680.23"
   class="st9"
   width="220"
   height="5"
   id="rect8574" />
			</g>
			<g
   id="g8674">
				<rect
   x="51"
   y="625.79"
   class="st9"
   width="5"
   height="5"
   id="rect8578" />
				<rect
   x="61"
   y="625.79"
   class="st9"
   width="5"
   height="5"
   id="rect8580" />
				<rect
   x="71"
   y="625.79"
   class="st9"
   width="5"
   height="5"
   id="rect8582" />
				<rect
   x="81"
   y="625.79"
   class="st9"
   width="5"
   height="5"
   id="rect8584" />
				<rect
   x="91"
   y="625.79"
   class="st9"
   width="5"
   height="5"
   id="rect8586" />
				<rect
   x="101"
   y="625.79"
   class="st9"
   width="5"
   height="5"
   id="rect8588" />
				<rect
   x="111"
   y="625.79"
   class="st9"
   width="5"
   height="5"
   id="rect8590" />
				<rect
   x="121"
   y="625.79"
   class="st9"
   width="5"
   height="5"
   id="rect8592" />
				<rect
   x="131"
   y="625.79"
   class="st9"
   width="5"
   height="5"
   id="rect8594" />
				<rect
   x="141"
   y="625.79"
   class="st9"
   width="5"
   height="5"
   id="rect8596" />
				<rect
   x="56"
   y="635.79"
   class="st9"
   width="5"
   height="5"
   id="rect8598" />
				<rect
   x="66"
   y="635.79"
   class="st9"
   width="5"
   height="5"
   id="rect8600" />
				<rect
   x="76"
   y="635.79"
   class="st9"
   width="5"
   height="5"
   id="rect8602" />
				<rect
   x="86"
   y="635.79"
   class="st9"
   width="5"
   height="5"
   id="rect8604" />
				<rect
   x="96"
   y="635.79"
   class="st9"
   width="5"
   height="5"
   id="rect8606" />
				<rect
   x="106"
   y="635.79"
   class="st9"
   width="5"
   height="5"
   id="rect8608" />
				<rect
   x="116"
   y="635.79"
   class="st9"
   width="5"
   height="5"
   id="rect8610" />
				<rect
   x="126"
   y="635.79"
   class="st9"
   width="5"
   height="5"
   id="rect8612" />
				<rect
   x="136"
   y="635.79"
   class="st9"
   width="5"
   height="5"
   id="rect8614" />
				<rect
   x="51"
   y="645.79"
   class="st9"
   width="5"
   height="5"
   id="rect8616" />
				<rect
   x="61"
   y="645.79"
   class="st9"
   width="5"
   height="5"
   id="rect8618" />
				<rect
   x="71"
   y="645.79"
   class="st9"
   width="5"
   height="5"
   id="rect8620" />
				<rect
   x="81"
   y="645.79"
   class="st9"
   width="5"
   height="5"
   id="rect8622" />
				<rect
   x="91"
   y="645.79"
   class="st9"
   width="5"
   height="5"
   id="rect8624" />
				<rect
   x="101"
   y="645.79"
   class="st9"
   width="5"
   height="5"
   id="rect8626" />
				<rect
   x="111"
   y="645.79"
   class="st9"
   width="5"
   height="5"
   id="rect8628" />
				<rect
   x="121"
   y="645.79"
   class="st9"
   width="5"
   height="5"
   id="rect8630" />
				<rect
   x="131"
   y="645.79"
   class="st9"
   width="5"
   height="5"
   id="rect8632" />
				<rect
   x="141"
   y="645.79"
   class="st9"
   width="5"
   height="5"
   id="rect8634" />
				<rect
   x="56"
   y="655.79"
   class="st9"
   width="5"
   height="5"
   id="rect8636" />
				<rect
   x="66"
   y="655.79"
   class="st9"
   width="5"
   height="5"
   id="rect8638" />
				<rect
   x="76"
   y="655.79"
   class="st9"
   width="5"
   height="5"
   id="rect8640" />
				<rect
   x="86"
   y="655.79"
   class="st9"
   width="5"
   height="5"
   id="rect8642" />
				<rect
   x="96"
   y="655.79"
   class="st9"
   width="5"
   height="5"
   id="rect8644" />
				<rect
   x="106"
   y="655.79"
   class="st9"
   width="5"
   height="5"
   id="rect8646" />
				<rect
   x="116"
   y="655.79"
   class="st9"
   width="5"
   height="5"
   id="rect8648" />
				<rect
   x="126"
   y="655.79"
   class="st9"
   width="5"
   height="5"
   id="rect8650" />
				<rect
   x="136"
   y="655.79"
   class="st9"
   width="5"
   height="5"
   id="rect8652" />
				<rect
   x="51"
   y="665.79"
   class="st9"
   width="5"
   height="5"
   id="rect8654" />
				<rect
   x="61"
   y="665.79"
   class="st9"
   width="5"
   height="5"
   id="rect8656" />
				<rect
   x="71"
   y="665.79"
   class="st9"
   width="5"
   height="5"
   id="rect8658" />
				<rect
   x="81"
   y="665.79"
   class="st9"
   width="5"
   height="5"
   id="rect8660" />
				<rect
   x="91"
   y="665.79"
   class="st9"
   width="5"
   height="5"
   id="rect8662" />
				<rect
   x="101"
   y="665.79"
   class="st9"
   width="5"
   height="5"
   id="rect8664" />
				<rect
   x="111"
   y="665.79"
   class="st9"
   width="5"
   height="5"
   id="rect8666" />
				<rect
   x="121"
   y="665.79"
   class="st9"
   width="5"
   height="5"
   id="rect8668" />
				<rect
   x="131"
   y="665.79"
   class="st9"
   width="5"
   height="5"
   id="rect8670" />
				<rect
   x="141"
   y="665.79"
   class="st9"
   width="5"
   height="5"
   id="rect8672" />
			</g>
			<rect
   x="258.5"
   y="622.73"
   class="st5"
   width="12.5"
   height="50"
   id="rect8676" />
			<path
   class="st10"
   d="M264.75,647.76L264.75,647.76c-2.07,0-3.75-1.68-3.75-3.75v-15.03c0-2.07,1.68-3.75,3.75-3.75l0,0     c2.07,0,3.75,1.68,3.75,3.75v15.03C268.5,646.08,266.82,647.76,264.75,647.76z"
   id="path8678" />
			<circle
   class="st8"
   cx="264.75"
   cy="665.79"
   r="4"
   id="circle8680" />
			<circle
   cx="264.75"
   cy="629.23"
   r="2.5"
   id="circle8682" />
		</g>
	</g>
	<path
   class="st11"
   d="M1220.26,295.68h-240c-5.52,0-10-4.48-10-10v-80c0-5.52,4.48-10,10-10h240c5.52,0,10,4.48,10,10v80   C1230.26,291.2,1225.79,295.68,1220.26,295.68z"
   id="path8688" />
	<g
   id="g8740">
		<g
   class="st12"
   id="g8718">
			<path
   class="st8"
   d="M1016.43,228.64c0,3.38-2.55,5.53-6.03,5.53h-3.99v6.81h-2.45v-17.92h6.44     C1013.86,223.06,1016.43,225.23,1016.43,228.64z M1013.98,228.62c0-2.17-1.56-3.33-3.84-3.33h-3.74v6.69h3.81     C1012.47,231.97,1013.98,230.79,1013.98,228.62z"
   id="path8690" />
			<path
   class="st8"
   d="M1029.81,238.76v2.22h-0.55c-1.97,0-2.85-0.48-3.13-1.74c-0.68,1.24-2.47,2.12-4.19,2.12     c-2.37,0-4.21-1.29-4.21-3.61c0-3.23,4.09-3.99,7.92-4.64c-0.05-1.72-1.08-2.6-2.6-2.6c-1.56,0-2.78,0.78-3.23,2.47l-2.12-0.56     c0.83-2.9,3.26-3.94,5.53-3.94c2.67,0,4.85,1.67,4.85,4.8v4.32c0,0.88,0.05,1.16,1.19,1.16H1029.81z M1025.65,234.85     c-2.73,0.43-5.48,0.91-5.48,2.7c0,1.29,0.93,1.84,2.2,1.84c2.22,0,3.28-1.56,3.28-3.68V234.85z"
   id="path8692" />
			<path
   class="st8"
   d="M1043.72,228.87l-7.52,17.92h-2.6l2.5-5.78l-5.28-12.14h2.65l3.86,9.39l3.74-9.39H1043.72z"
   id="path8694" />
			<path
   class="st8"
   d="M1064.77,233.66v7.32h-2.42v-6.92c0-2.45-0.96-3.33-2.57-3.33c-1.64,0-2.98,1.21-2.98,3.38v6.87h-2.42v-6.92     c0-2.45-0.96-3.33-2.57-3.33c-1.74,0-2.98,1.39-2.98,3.66v6.59h-2.45v-12.11h2.45v1.64c0.76-1.26,2.02-2.02,3.46-2.02     c1.89,0,3.26,0.68,3.94,2.25c0.88-1.62,2.37-2.25,4.04-2.25C1063.03,228.49,1064.77,230.26,1064.77,233.66z"
   id="path8696" />
			<path
   class="st8"
   d="M1067.3,234.77c0-3.61,2.62-6.28,6.11-6.28c3.91,0,6.26,2.78,5.93,6.97h-9.54c0.2,2.52,1.69,3.84,3.68,3.84     c1.94,0,3.18-0.98,3.89-2.6l1.94,0.81c-0.93,2.27-3,3.86-5.83,3.86C1069.67,241.36,1067.3,238.43,1067.3,234.77z M1076.99,233.66     c-0.2-2.2-1.64-3.18-3.58-3.18c-2.02,0-3.33,1.41-3.58,3.18H1076.99z"
   id="path8698" />
			<path
   class="st8"
   d="M1093.62,234.02v6.97h-2.45v-6.64c0-2.5-1.19-3.61-3.18-3.61c-2.14,0-3.51,1.57-3.51,3.86v6.38h-2.42v-12.11     h2.42v1.94c0.83-1.39,2.15-2.32,3.96-2.32C1091.55,228.49,1093.62,230.31,1093.62,234.02z"
   id="path8700" />
			<path
   class="st8"
   d="M1099.81,230.94v6.51c0,0.88,0.25,1.31,1.24,1.31h1.62v2.22H1101c-2.45,0-3.61-1.39-3.61-3.58v-6.46h-2.62     v-2.07h2.62v-3.58l2.42-0.63v4.21h3.36v2.07H1099.81z"
   id="path8702" />
			<path
   class="st8"
   d="M1110.84,236.29l2.27-0.73c0.38,1.72,1.59,3.56,4.19,3.56c2.2,0,3.76-1.09,3.76-3.1     c0-4.04-9.62-2.45-9.62-8.08c0-3.41,2.88-5.25,5.8-5.25c2.85,0,5.02,1.51,5.86,4.01l-2.25,0.68c-0.48-1.39-1.67-2.47-3.56-2.47     c-1.62,0-3.36,0.76-3.36,2.78c0,3.76,9.62,1.99,9.62,8.18c0,3.33-2.5,5.5-6.31,5.5C1113.44,241.36,1111.42,238.86,1110.84,236.29     z"
   id="path8704" />
			<path
   class="st8"
   d="M1125.63,234.77c0-3.61,2.62-6.28,6.11-6.28c3.91,0,6.26,2.78,5.93,6.97h-9.54c0.2,2.52,1.69,3.84,3.68,3.84     c1.94,0,3.18-0.98,3.89-2.6l1.94,0.81c-0.93,2.27-3,3.86-5.83,3.86C1128,241.36,1125.63,238.43,1125.63,234.77z M1135.32,233.66     c-0.2-2.2-1.64-3.18-3.58-3.18c-2.02,0-3.33,1.41-3.58,3.18H1135.32z"
   id="path8706" />
			<path
   class="st8"
   d="M1147.04,228.87v2.25c-2.83,0-4.09,1.64-4.09,3.86v6.01h-2.42v-12.11h2.42v2.15     C1143.83,229.68,1145.27,228.87,1147.04,228.87z"
   id="path8708" />
			<path
   class="st8"
   d="M1161.12,228.87l-5.25,12.11h-2.15l-5.25-12.11h2.65l3.68,9.34l3.68-9.34H1161.12z"
   id="path8710" />
			<path
   class="st8"
   d="M1164.71,223.69c0.91,0,1.64,0.71,1.64,1.64c0,0.91-0.76,1.62-1.64,1.62c-0.93,0-1.69-0.71-1.69-1.62     C1163.02,224.38,1163.77,223.69,1164.71,223.69z M1165.92,240.98h-2.42v-12.11h2.42V240.98z"
   id="path8712" />
			<path
   class="st8"
   d="M1175.33,241.36c-3.71,0-6.46-2.93-6.46-6.59c0-3.61,2.73-6.28,6.49-6.28c2.62,0,4.67,1.34,5.58,3.51     l-2.09,0.86c-0.58-1.44-1.72-2.22-3.48-2.22c-2.4,0-4.01,1.72-4.01,4.14s1.59,4.44,3.99,4.44c1.67,0,2.8-0.83,3.43-2.27     l2.07,0.91C1179.88,240,1177.93,241.36,1175.33,241.36z"
   id="path8714" />
			<path
   class="st8"
   d="M1182.83,234.77c0-3.61,2.62-6.28,6.11-6.28c3.91,0,6.26,2.78,5.93,6.97h-9.54c0.2,2.52,1.69,3.84,3.68,3.84     c1.94,0,3.18-0.98,3.89-2.6l1.94,0.81c-0.93,2.27-3,3.86-5.83,3.86C1185.2,241.36,1182.83,238.43,1182.83,234.77z      M1192.52,233.66c-0.2-2.2-1.64-3.18-3.58-3.18c-2.02,0-3.33,1.41-3.58,3.18H1192.52z"
   id="path8716" />
		</g>
		<g
   class="st12"
   id="g8738">
			<path
   class="st8"
   d="M1059.37,258.64c0,3.38-2.55,5.53-6.03,5.53h-3.99v6.81h-2.45v-17.92h6.44     C1056.8,253.06,1059.37,255.23,1059.37,258.64z M1056.92,258.62c0-2.17-1.57-3.33-3.84-3.33h-3.74v6.69h3.81     C1055.41,261.97,1056.92,260.79,1056.92,258.62z"
   id="path8720" />
			<path
   class="st8"
   d="M1068.18,258.87v2.25c-2.83,0-4.09,1.64-4.09,3.86v6.01h-2.42v-12.11h2.42v2.15     C1064.98,259.68,1066.42,258.87,1068.18,258.87z"
   id="path8722" />
			<path
   class="st8"
   d="M1069.5,264.93c0-3.61,2.75-6.44,6.51-6.44s6.49,2.83,6.49,6.44c0,3.58-2.73,6.44-6.49,6.44     S1069.5,268.51,1069.5,264.93z M1080.02,264.93c0-2.42-1.56-4.29-4.01-4.29c-2.37,0-4.04,1.87-4.04,4.29     c0,2.4,1.64,4.29,4.04,4.29C1078.46,269.22,1080.02,267.32,1080.02,264.93z"
   id="path8724" />
			<path
   class="st8"
   d="M1095.77,258.87l-5.25,12.11h-2.15l-5.25-12.11h2.65l3.69,9.34l3.68-9.34H1095.77z"
   id="path8726" />
			<path
   class="st8"
   d="M1099.36,253.69c0.91,0,1.64,0.71,1.64,1.64c0,0.91-0.76,1.62-1.64,1.62c-0.93,0-1.69-0.71-1.69-1.62     C1097.67,254.38,1098.42,253.69,1099.36,253.69z M1100.57,270.98h-2.42v-12.11h2.42V270.98z"
   id="path8728" />
			<path
   class="st8"
   d="M1103.52,264.93c0-3.89,2.83-6.44,6.18-6.44c1.67,0,3.31,0.73,4.14,2.02v-7.45h2.42v17.92h-2.42v-1.64     c-0.83,1.29-2.47,2.02-4.14,2.02C1106.35,271.36,1103.52,268.79,1103.52,264.93z M1113.84,264.93c0-2.5-1.62-4.29-3.89-4.29     c-2.45,0-3.96,1.89-3.96,4.29c0,2.4,1.51,4.29,3.96,4.29C1112.23,269.22,1113.84,267.42,1113.84,264.93z"
   id="path8730" />
			<path
   class="st8"
   d="M1119.05,264.77c0-3.61,2.62-6.28,6.11-6.28c3.91,0,6.26,2.78,5.93,6.97h-9.54c0.2,2.52,1.69,3.84,3.68,3.84     c1.94,0,3.18-0.98,3.89-2.6l1.94,0.81c-0.93,2.27-3,3.86-5.83,3.86C1121.42,271.36,1119.05,268.43,1119.05,264.77z      M1128.74,263.66c-0.2-2.2-1.64-3.18-3.58-3.18c-2.02,0-3.33,1.41-3.58,3.18H1128.74z"
   id="path8732" />
			<path
   class="st8"
   d="M1140.45,258.87v2.25c-2.83,0-4.09,1.64-4.09,3.86v6.01h-2.42v-12.11h2.42v2.15     C1137.25,259.68,1138.68,258.87,1140.45,258.87z"
   id="path8734" />
			<path
   class="st8"
   d="M1142.04,267.85l2.3-0.61c0.3,1.24,1.14,2.09,2.6,2.09c1.51,0,2.5-0.68,2.5-1.82c0-2.6-6.92-1.08-6.92-5.25     c0-2.2,1.89-3.79,4.42-3.79c2.09,0,3.51,0.93,4.42,2.57l-1.97,0.96c-0.53-0.93-1.26-1.51-2.47-1.51c-1.29,0-1.99,0.71-1.99,1.54     c0,2.32,6.94,0.81,6.94,5.35c0,2.32-1.94,3.96-4.95,3.96C1144.31,271.36,1142.57,269.97,1142.04,267.85z"
   id="path8736" />
		</g>
	</g>
	<g
   id="g8900">
		<g
   id="g8784">
			<g
   id="g8782">
				<rect
   x="982.76"
   y="340.68"
   class="st4"
   width="235"
   height="65"
   id="rect8742" />
				<rect
   x="990.26"
   y="348.18"
   class="st5"
   width="157.5"
   height="50"
   id="rect8744" />
				<rect
   x="997.76"
   y="353.18"
   class="st7"
   width="5"
   height="40"
   id="rect8746" />
				<rect
   x="1010.26"
   y="353.18"
   class="st7"
   width="5"
   height="40"
   id="rect8748" />
				<rect
   x="1022.76"
   y="353.18"
   class="st7"
   width="5"
   height="40"
   id="rect8750" />
				<rect
   x="1035.26"
   y="353.18"
   class="st7"
   width="5"
   height="40"
   id="rect8752" />
				<rect
   x="1047.76"
   y="353.18"
   class="st7"
   width="5"
   height="40"
   id="rect8754" />
				<rect
   x="1060.26"
   y="353.18"
   class="st7"
   width="5"
   height="40"
   id="rect8756" />
				<rect
   x="1072.76"
   y="353.18"
   class="st7"
   width="5"
   height="40"
   id="rect8758" />
				<rect
   x="1085.26"
   y="353.18"
   class="st7"
   width="5"
   height="40"
   id="rect8760" />
				<rect
   x="1097.76"
   y="353.18"
   class="st7"
   width="5"
   height="40"
   id="rect8762" />
				<rect
   x="1110.26"
   y="353.18"
   class="st7"
   width="5"
   height="40"
   id="rect8764" />
				<rect
   x="1122.76"
   y="353.18"
   class="st6"
   width="5"
   height="40"
   id="rect8766" />
				<rect
   x="1135.26"
   y="353.18"
   class="st7"
   width="5"
   height="40"
   id="rect8768" />
				<rect
   x="1202.76"
   y="348.18"
   class="st7"
   width="7.5"
   height="50"
   id="rect8770" />
				<circle
   class="st7"
   cx="1191.26"
   cy="352.18"
   r="4"
   id="circle8772" />
				<circle
   class="st6"
   cx="1191.26"
   cy="366.18"
   r="4"
   id="circle8774" />
				<circle
   class="st8"
   cx="1191.26"
   cy="394.18"
   r="4"
   id="circle8776" />
				<circle
   class="st7"
   cx="1191.26"
   cy="380.18"
   r="4"
   id="circle8778" />
				<rect
   x="990.26"
   y="405.68"
   class="st9"
   width="220"
   height="5"
   id="rect8780" />
			</g>
		</g>
		<g
   id="g8898">
			<g
   id="g8790">
				<rect
   x="982.76"
   y="410.68"
   class="st4"
   width="235"
   height="65"
   id="rect8786" />
				<rect
   x="990.26"
   y="475.68"
   class="st9"
   width="220"
   height="5"
   id="rect8788" />
			</g>
			<g
   id="g8888">
				<rect
   x="990.26"
   y="421.24"
   class="st9"
   width="5"
   height="5"
   id="rect8792" />
				<rect
   x="1000.26"
   y="421.24"
   class="st9"
   width="5"
   height="5"
   id="rect8794" />
				<rect
   x="1010.26"
   y="421.24"
   class="st9"
   width="5"
   height="5"
   id="rect8796" />
				<rect
   x="1020.26"
   y="421.24"
   class="st9"
   width="5"
   height="5"
   id="rect8798" />
				<rect
   x="1030.26"
   y="421.24"
   class="st9"
   width="5"
   height="5"
   id="rect8800" />
				<rect
   x="1040.26"
   y="421.24"
   class="st9"
   width="5"
   height="5"
   id="rect8802" />
				<rect
   x="1050.26"
   y="421.24"
   class="st9"
   width="5"
   height="5"
   id="rect8804" />
				<rect
   x="1060.26"
   y="421.24"
   class="st9"
   width="5"
   height="5"
   id="rect8806" />
				<rect
   x="1070.26"
   y="421.24"
   class="st9"
   width="5"
   height="5"
   id="rect8808" />
				<rect
   x="1080.26"
   y="421.24"
   class="st9"
   width="5"
   height="5"
   id="rect8810" />
				<rect
   x="995.26"
   y="431.24"
   class="st9"
   width="5"
   height="5"
   id="rect8812" />
				<rect
   x="1005.26"
   y="431.24"
   class="st9"
   width="5"
   height="5"
   id="rect8814" />
				<rect
   x="1015.26"
   y="431.24"
   class="st9"
   width="5"
   height="5"
   id="rect8816" />
				<rect
   x="1025.26"
   y="431.24"
   class="st9"
   width="5"
   height="5"
   id="rect8818" />
				<rect
   x="1035.26"
   y="431.24"
   class="st9"
   width="5"
   height="5"
   id="rect8820" />
				<rect
   x="1045.26"
   y="431.24"
   class="st9"
   width="5"
   height="5"
   id="rect8822" />
				<rect
   x="1055.26"
   y="431.24"
   class="st9"
   width="5"
   height="5"
   id="rect8824" />
				<rect
   x="1065.26"
   y="431.24"
   class="st9"
   width="5"
   height="5"
   id="rect8826" />
				<rect
   x="1075.26"
   y="431.24"
   class="st9"
   width="5"
   height="5"
   id="rect8828" />
				<rect
   x="990.26"
   y="441.24"
   class="st9"
   width="5"
   height="5"
   id="rect8830" />
				<rect
   x="1000.26"
   y="441.24"
   class="st9"
   width="5"
   height="5"
   id="rect8832" />
				<rect
   x="1010.26"
   y="441.24"
   class="st9"
   width="5"
   height="5"
   id="rect8834" />
				<rect
   x="1020.26"
   y="441.24"
   class="st9"
   width="5"
   height="5"
   id="rect8836" />
				<rect
   x="1030.26"
   y="441.24"
   class="st9"
   width="5"
   height="5"
   id="rect8838" />
				<rect
   x="1040.26"
   y="441.24"
   class="st9"
   width="5"
   height="5"
   id="rect8840" />
				<rect
   x="1050.26"
   y="441.24"
   class="st9"
   width="5"
   height="5"
   id="rect8842" />
				<rect
   x="1060.26"
   y="441.24"
   class="st9"
   width="5"
   height="5"
   id="rect8844" />
				<rect
   x="1070.26"
   y="441.24"
   class="st9"
   width="5"
   height="5"
   id="rect8846" />
				<rect
   x="1080.26"
   y="441.24"
   class="st9"
   width="5"
   height="5"
   id="rect8848" />
				<rect
   x="995.26"
   y="451.24"
   class="st9"
   width="5"
   height="5"
   id="rect8850" />
				<rect
   x="1005.26"
   y="451.24"
   class="st9"
   width="5"
   height="5"
   id="rect8852" />
				<rect
   x="1015.26"
   y="451.24"
   class="st9"
   width="5"
   height="5"
   id="rect8854" />
				<rect
   x="1025.26"
   y="451.24"
   class="st9"
   width="5"
   height="5"
   id="rect8856" />
				<rect
   x="1035.26"
   y="451.24"
   class="st9"
   width="5"
   height="5"
   id="rect8858" />
				<rect
   x="1045.26"
   y="451.24"
   class="st9"
   width="5"
   height="5"
   id="rect8860" />
				<rect
   x="1055.26"
   y="451.24"
   class="st9"
   width="5"
   height="5"
   id="rect8862" />
				<rect
   x="1065.26"
   y="451.24"
   class="st9"
   width="5"
   height="5"
   id="rect8864" />
				<rect
   x="1075.26"
   y="451.24"
   class="st9"
   width="5"
   height="5"
   id="rect8866" />
				<rect
   x="990.26"
   y="461.24"
   class="st9"
   width="5"
   height="5"
   id="rect8868" />
				<rect
   x="1000.26"
   y="461.24"
   class="st9"
   width="5"
   height="5"
   id="rect8870" />
				<rect
   x="1010.26"
   y="461.24"
   class="st9"
   width="5"
   height="5"
   id="rect8872" />
				<rect
   x="1020.26"
   y="461.24"
   class="st9"
   width="5"
   height="5"
   id="rect8874" />
				<rect
   x="1030.26"
   y="461.24"
   class="st9"
   width="5"
   height="5"
   id="rect8876" />
				<rect
   x="1040.26"
   y="461.24"
   class="st9"
   width="5"
   height="5"
   id="rect8878" />
				<rect
   x="1050.26"
   y="461.24"
   class="st9"
   width="5"
   height="5"
   id="rect8880" />
				<rect
   x="1060.26"
   y="461.24"
   class="st9"
   width="5"
   height="5"
   id="rect8882" />
				<rect
   x="1070.26"
   y="461.24"
   class="st9"
   width="5"
   height="5"
   id="rect8884" />
				<rect
   x="1080.26"
   y="461.24"
   class="st9"
   width="5"
   height="5"
   id="rect8886" />
			</g>
			<rect
   x="1197.76"
   y="418.18"
   class="st5"
   width="12.5"
   height="50"
   id="rect8890" />
			<path
   class="st10"
   d="M1204.01,443.21L1204.01,443.21c-2.07,0-3.75-1.68-3.75-3.75v-15.03c0-2.07,1.68-3.75,3.75-3.75l0,0     c2.07,0,3.75,1.68,3.75,3.75v15.03C1207.76,441.53,1206.09,443.21,1204.01,443.21z"
   id="path8892" />
			<circle
   class="st8"
   cx="1204.01"
   cy="461.24"
   r="4"
   id="circle8894" />
			<circle
   cx="1204.01"
   cy="424.68"
   r="2.5"
   id="circle8896" />
		</g>
	</g>
<text
   xml:space="preserve"
   id="text3672"
   style="font-style:normal;font-variant:normal;font-weight:500;font-stretch:normal;font-size:26.6667px;font-family:Forth;-inkscape-font-specification:'Forth Medium';white-space:pre;shape-inside:url(#rect3674);display:inline;fill:#ffffff;fill-opacity:1;stroke:none;stroke-opacity:0.839216"
   transform="translate(1.854394,-14.277209)"><tspan
     x="66.498047"
     y="63.984973"
     id="tspan9528"><tspan
       style="font-weight:normal;-inkscape-font-specification:Forth"
       id="tspan9526">Your Client App</tspan></tspan></text></g>
</svg>
