<svg xmlns="http://www.w3.org/2000/svg" xmlns:xlink="http://www.w3.org/1999/xlink" xmlns:lucid="lucid" width="764" height="164"><g transform="translate(-178 -76.66666666666669)" lucid:page-tab-id="0_0"><path d="M0 0h1870.87v1322.84H0z" fill="#fff"/><path d="M200 104.67a6 6 0 0 1 6-6h188a6 6 0 0 1 6 6v108a6 6 0 0 1-6 6H206a6 6 0 0 1-6-6z" stroke="#3a414a" stroke-width="4" fill="#fff"/><use xlink:href="#a" transform="matrix(1,0,0,1,212,110.66666666666669) translate(17.762675296655885 28.22222222222222)"/><use xlink:href="#b" transform="matrix(1,0,0,1,212,110.66666666666669) translate(76.05825242718447 28.22222222222222)"/><use xlink:href="#c" transform="matrix(1,0,0,1,212,110.66666666666669) translate(120.95577130528588 28.22222222222222)"/><use xlink:href="#d" transform="matrix(1,0,0,1,212,110.66666666666669) translate(9.855447680690403 55.40668824163969)"/><use xlink:href="#e" transform="matrix(1,0,0,1,212,110.66666666666669) translate(122.54153182308522 55.40668824163969)"/><use xlink:href="#f" transform="matrix(1,0,0,1,212,110.66666666666669) translate(32.358144552319324 82.59115426105717)"/><path d="M404 158.67h31.26" stroke="#3a414a" stroke-width="4" fill="none"/><path d="M404.05 160.67H402v-4h2.05z" stroke="#3a414a" stroke-width=".05" fill="#3a414a"/><path d="M451.53 158.67l-14.27 4.63v-9.27z" stroke="#3a414a" stroke-width="4" fill="#3a414a"/><path d="M460 104.67a6 6 0 0 1 6-6h188a6 6 0 0 1 6 6v108a6 6 0 0 1-6 6H466a6 6 0 0 1-6-6z" stroke="#3a414a" stroke-width="4" fill="#fff"/><use xlink:href="#g" transform="matrix(1,0,0,1,472,110.66666666666669) translate(0.8263214670981682 43.22222222222222)"/><use xlink:href="#h" transform="matrix(1,0,0,1,472,110.66666666666669) translate(85.59439050701187 43.22222222222222)"/><use xlink:href="#i" transform="matrix(1,0,0,1,472,110.66666666666669) translate(116.29557713052859 43.22222222222222)"/><use xlink:href="#j" transform="matrix(1,0,0,1,472,110.66666666666669) translate(43.4368932038835 70.4066882416397)"/><path d="M664 158.67h31.26" stroke="#3a414a" stroke-width="4" fill="none"/><path d="M664.05 160.67H662v-4h2.05z" stroke="#3a414a" stroke-width=".05" fill="#3a414a"/><path d="M711.53 158.67l-14.27 4.63v-9.27z" stroke="#3a414a" stroke-width="4" fill="#3a414a"/><path d="M720 104.67a6 6 0 0 1 6-6h188a6 6 0 0 1 6 6v108a6 6 0 0 1-6 6H726a6 6 0 0 1-6-6z" stroke="#3a414a" stroke-width="4" fill="#fff"/><g><use xlink:href="#k" transform="matrix(1,0,0,1,732,110.66666666666669) translate(48.2049622437972 43.22222222222222)"/><use xlink:href="#l" transform="matrix(1,0,0,1,732,110.66666666666669) translate(3.3721682847896517 70.4066882416397)"/><use xlink:href="#m" transform="matrix(1,0,0,1,732,110.66666666666669) translate(127.55771305285869 70.4066882416397)"/></g><defs><path fill="#3a414a" d="M537-581H205v160h304v129H205v163h332V0H59v-710h478v129" id="n"/><path fill="#3a414a" d="M340-495c127 0 204 81 204 219V0H398v-249c0-78-32-115-94-115s-97 42-97 120V0H61v-480h146v49c30-39 74-64 133-64" id="o"/><path fill="#3a414a" d="M379-362H254v196c-5 52 60 34 104 37V0h-79C177 0 108-66 108-165v-197H10v-118h98v-133l146-30v163h125v118" id="p"/><path fill="#3a414a" d="M284 15C130 15 30-95 30-245c0-147 112-250 248-250 155 0 250 117 236 291H175c8 64 50 103 109 103 56 0 96-30 117-76l111 45C474-46 389 15 284 15zM177-300h201c-11-56-46-84-100-84-50 0-89 31-101 84" id="q"/><path fill="#3a414a" d="M207-415c36-40 88-65 153-65v131c-126 0-153 49-153 120V0H61v-480h146v65" id="r"/><g id="a"><use transform="matrix(0.02157497303128371,0,0,0.02157497303128371,0,0)" xlink:href="#n"/><use transform="matrix(0.02157497303128371,0,0,0.02157497303128371,12.4487594390507,0)" xlink:href="#o"/><use transform="matrix(0.02157497303128371,0,0,0.02157497303128371,24.638619201725994,0)" xlink:href="#p"/><use transform="matrix(0.02157497303128371,0,0,0.02157497303128371,33.247033441208195,0)" xlink:href="#q"/><use transform="matrix(0.02157497303128371,0,0,0.02157497303128371,45.0269687162891,0)" xlink:href="#r"/></g><path fill="#3a414a" d="M50-613c0-51 40-87 90-87 49 0 89 36 89 87 0 49-41 85-89 85-49 0-90-36-90-85zm163 133V0H67v-480h146" id="s"/><path fill="#3a414a" d="M294 15C144 15 30-95 30-240s114-255 264-255 264 110 264 255S444 15 294 15zm0-123c76 0 118-56 118-132s-42-132-118-132-118 56-118 132 42 132 118 132" id="t"/><g id="b"><use transform="matrix(0.02157497303128371,0,0,0.02157497303128371,0,0)" xlink:href="#s"/><use transform="matrix(0.02157497303128371,0,0,0.02157497303128371,6.019417475728154,0)" xlink:href="#o"/><use transform="matrix(0.02157497303128371,0,0,0.02157497303128371,18.209277238403452,0)" xlink:href="#p"/><use transform="matrix(0.02157497303128371,0,0,0.02157497303128371,27.033441208198486,0)" xlink:href="#t"/></g><path fill="#3a414a" d="M614-710h184V0H652v-442L486 0H374L207-443V0H61v-710h184l185 506" id="u"/><path fill="#3a414a" d="M60 0v-710h146V0H60" id="v"/><path fill="#3a414a" d="M583-710v129H380V0H234v-581H30v-129h553" id="w"/><g id="c"><use transform="matrix(0.02157497303128371,0,0,0.02157497303128371,0,0)" xlink:href="#u"/><use transform="matrix(0.02157497303128371,0,0,0.02157497303128371,18.532901833872707,0)" xlink:href="#v"/><use transform="matrix(0.02157497303128371,0,0,0.02157497303128371,24.056094929881336,0)" xlink:href="#w"/></g><path fill="#3a414a" d="M479-166c-7 28 16 40 59 37V0c-89 1-146-7-167-57-26 41-90 72-160 72-92 0-171-52-171-142 0-126 147-160 293-186-4-45-35-69-73-69-47 0-81 27-100 77L40-340c43-126 147-155 233-155 116 0 206 67 206 198v131zM244-97c76-2 92-56 89-121-74 13-147 28-147 74 0 38 28 47 58 47" id="x"/><path fill="#3a414a" d="M402-480h146V0c0 132-106 230-271 230-124 0-203-64-245-156l115-58c21 61 73 95 130 95 95-3 134-57 125-150-26 32-81 54-138 54C147 15 30-73 30-240s117-255 234-255c57 0 112 22 138 54v-39zM289-108c66 0 113-46 113-132s-47-132-113-132-113 46-113 132 47 132 113 132" id="y"/><path fill="#3a414a" d="M622-495c116 0 178 87 178 201V0H654v-261c0-75-21-103-69-103-47 0-82 29-82 104V0H357v-261c0-75-21-103-69-103s-82 29-82 104V0H60v-480h146v50c25-37 68-65 119-65 73 0 120 24 145 76 35-57 87-76 152-76" id="z"/><g id="d"><use transform="matrix(0.02157497303128371,0,0,0.02157497303128371,0,0)" xlink:href="#x"/><use transform="matrix(0.02157497303128371,0,0,0.02157497303128371,12.68608414239482,0)" xlink:href="#y"/><use transform="matrix(0.02157497303128371,0,0,0.02157497303128371,25.587918015102478,0)" xlink:href="#r"/><use transform="matrix(0.02157497303128371,0,0,0.02157497303128371,33.247033441208195,0)" xlink:href="#q"/><use transform="matrix(0.02157497303128371,0,0,0.02157497303128371,45.0269687162891,0)" xlink:href="#q"/><use transform="matrix(0.02157497303128371,0,0,0.02157497303128371,56.80690399137001,0)" xlink:href="#z"/><use transform="matrix(0.02157497303128371,0,0,0.02157497303128371,75.14563106796116,0)" xlink:href="#q"/><use transform="matrix(0.02157497303128371,0,0,0.02157497303128371,86.70981661272923,0)" xlink:href="#o"/><use transform="matrix(0.02157497303128371,0,0,0.02157497303128371,98.89967637540452,0)" xlink:href="#p"/></g><path fill="#3a414a" d="M578-480h142L569 0H455l-85-309L284 0H170L20-480h142l72 287 78-287h115l79 288" id="A"/><path fill="#3a414a" d="M339-495c127 0 204 81 204 219V0H397v-249c0-78-32-115-94-115s-97 42-97 120V0H60v-710h146v279c30-39 74-64 133-64" id="B"/><g id="e"><use transform="matrix(0.02157497303128371,0,0,0.02157497303128371,0,0)" xlink:href="#A"/><use transform="matrix(0.02157497303128371,0,0,0.02157497303128371,15.965480043149945,0)" xlink:href="#s"/><use transform="matrix(0.02157497303128371,0,0,0.02157497303128371,21.9848975188781,0)" xlink:href="#p"/><use transform="matrix(0.02157497303128371,0,0,0.02157497303128371,30.5933117583603,0)" xlink:href="#B"/></g><path fill="#3a414a" d="M513-125C475-39 391 15 291 15 145 15 30-97 30-245c0-145 113-250 261-250 100 0 190 54 226 141l-120 48c-18-44-53-66-105-66-76 0-116 51-116 127s39 137 115 137c48 0 83-23 103-68" id="C"/><path fill="#3a414a" d="M274 15C157 15 30-73 30-240s127-255 244-255c57 0 112 22 138 54v-269h146V0H412v-39c-26 32-81 54-138 54zm20-123c76 0 118-56 118-132s-42-132-118-132-118 56-118 132 42 132 118 132" id="D"/><path fill="#3a414a" d="M270 0C143 11 60-53 60-165v-545h146v544c-3 36 28 40 64 37V0" id="E"/><g id="f"><use transform="matrix(0.02157497303128371,0,0,0.02157497303128371,0,0)" xlink:href="#C"/><use transform="matrix(0.02157497303128371,0,0,0.02157497303128371,11.801510248112189,0)" xlink:href="#x"/><use transform="matrix(0.02157497303128371,0,0,0.02157497303128371,24.271844660194173,0)" xlink:href="#r"/><use transform="matrix(0.02157497303128371,0,0,0.02157497303128371,32.14670981661273,0)" xlink:href="#D"/><use transform="matrix(0.02157497303128371,0,0,0.02157497303128371,45.480043149946056,0)" xlink:href="#B"/><use transform="matrix(0.02157497303128371,0,0,0.02157497303128371,58.48975188781012,0)" xlink:href="#t"/><use transform="matrix(0.02157497303128371,0,0,0.02157497303128371,71.17583603020495,0)" xlink:href="#E"/><use transform="matrix(0.02157497303128371,0,0,0.02157497303128371,77.8640776699029,0)" xlink:href="#D"/><use transform="matrix(0.02157497303128371,0,0,0.02157497303128371,91.19741100323621,0)" xlink:href="#q"/><use transform="matrix(0.02157497303128371,0,0,0.02157497303128371,102.97734627831713,0)" xlink:href="#r"/></g><path fill="#3a414a" d="M325-710c145 0 251 92 251 230 0 137-105 228-251 228H206V0H60v-710h265zM206-380c110 3 224 12 224-101 0-110-114-104-224-100v201" id="F"/><path fill="#3a414a" d="M379-480v118H254V0H108v-362H10v-118h98v-55c0-99 79-175 181-175h79v129c-55-1-119-9-114 50v51h125" id="G"/><g id="g"><use transform="matrix(0.02157497303128371,0,0,0.02157497303128371,0,0)" xlink:href="#F"/><use transform="matrix(0.02157497303128371,0,0,0.02157497303128371,12.427184466019416,0)" xlink:href="#q"/><use transform="matrix(0.02157497303128371,0,0,0.02157497303128371,24.20711974110032,0)" xlink:href="#r"/><use transform="matrix(0.02157497303128371,0,0,0.02157497303128371,31.86623516720604,0)" xlink:href="#G"/><use transform="matrix(0.02157497303128371,0,0,0.02157497303128371,40.04314994606256,0)" xlink:href="#t"/><use transform="matrix(0.02157497303128371,0,0,0.02157497303128371,52.72923408845738,0)" xlink:href="#r"/><use transform="matrix(0.02157497303128371,0,0,0.02157497303128371,61.03559870550161,0)" xlink:href="#z"/></g><g id="h"><use transform="matrix(0.02157497303128371,0,0,0.02157497303128371,0,0)" xlink:href="#x"/><use transform="matrix(0.02157497303128371,0,0,0.02157497303128371,12.470334412081984,0)" xlink:href="#o"/></g><g id="i"><use transform="matrix(0.02157497303128371,0,0,0.02157497303128371,0,0)" xlink:href="#s"/><use transform="matrix(0.02157497303128371,0,0,0.02157497303128371,6.019417475728154,0)" xlink:href="#o"/><use transform="matrix(0.02157497303128371,0,0,0.02157497303128371,19.0722761596548,0)" xlink:href="#s"/><use transform="matrix(0.02157497303128371,0,0,0.02157497303128371,25.091693635382953,0)" xlink:href="#p"/><use transform="matrix(0.02157497303128371,0,0,0.02157497303128371,33.700107874865154,0)" xlink:href="#s"/><use transform="matrix(0.02157497303128371,0,0,0.02157497303128371,39.71952535059331,0)" xlink:href="#x"/><use transform="matrix(0.02157497303128371,0,0,0.02157497303128371,52.18985976267529,0)" xlink:href="#E"/></g><path fill="#3a414a" d="M60 230v-710h146v39c26-32 81-54 138-54 117 0 244 88 244 255S461 15 344 15c-57 0-112-22-138-54v269H60zm264-338c76 0 118-56 118-132s-42-132-118-132-118 56-118 132 42 132 118 132" id="H"/><path fill="#3a414a" d="M421-480h154L283 230H129L229 0 20-480h155l125 326" id="I"/><g id="j"><use transform="matrix(0.02157497303128371,0,0,0.02157497303128371,0,0)" xlink:href="#H"/><use transform="matrix(0.02157497303128371,0,0,0.02157497303128371,13.333333333333332,0)" xlink:href="#x"/><use transform="matrix(0.02157497303128371,0,0,0.02157497303128371,25.587918015102478,0)" xlink:href="#I"/><use transform="matrix(0.02157497303128371,0,0,0.02157497303128371,38.42502696871629,0)" xlink:href="#z"/><use transform="matrix(0.02157497303128371,0,0,0.02157497303128371,56.76375404530744,0)" xlink:href="#q"/><use transform="matrix(0.02157497303128371,0,0,0.02157497303128371,68.3279395900755,0)" xlink:href="#o"/><use transform="matrix(0.02157497303128371,0,0,0.02157497303128371,80.5177993527508,0)" xlink:href="#p"/></g><g id="k"><use transform="matrix(0.02157497303128371,0,0,0.02157497303128371,0,0)" xlink:href="#F"/><use transform="matrix(0.02157497303128371,0,0,0.02157497303128371,12.427184466019416,0)" xlink:href="#q"/><use transform="matrix(0.02157497303128371,0,0,0.02157497303128371,24.20711974110032,0)" xlink:href="#r"/><use transform="matrix(0.02157497303128371,0,0,0.02157497303128371,31.86623516720604,0)" xlink:href="#G"/><use transform="matrix(0.02157497303128371,0,0,0.02157497303128371,40.04314994606256,0)" xlink:href="#t"/><use transform="matrix(0.02157497303128371,0,0,0.02157497303128371,52.72923408845738,0)" xlink:href="#r"/><use transform="matrix(0.02157497303128371,0,0,0.02157497303128371,61.03559870550161,0)" xlink:href="#z"/></g><path fill="#3a414a" d="M241 15C133 15 53-47 31-137l137-29c8 37 34 68 74 68 39 0 67-15 67-43 0-78-257-24-257-194 0-91 84-160 191-160 85 0 147 34 185 106l-115 48c-15-24-39-41-71-41-31 0-49 15-49 33 0 72 258 17 258 198 0 99-87 166-210 166" id="J"/><path fill="#3a414a" d="M543-166c-6 35 14 40 46 37V0c-83 5-142-15-160-60-34 45-92 75-165 75C137 15 60-66 60-204v-276h146v249c0 78 32 115 94 115s97-42 97-120v-244h146v314" id="K"/><path fill="#3a414a" d="M344 15c-57 0-112-22-138-54V0H60v-710h146v269c26-32 81-54 138-54 117 0 244 88 244 255S461 15 344 15zm-20-123c76 0 118-56 118-132s-42-132-118-132-118 56-118 132 42 132 118 132" id="L"/><path fill="#3a414a" d="M412 230V-39c-26 32-81 54-138 54C157 15 30-73 30-240s127-255 244-255c57 0 112 22 138 54v-39h146v710H412zM294-108c76 0 118-56 118-132s-42-132-118-132-118 56-118 132 42 132 118 132" id="M"/><g id="l"><use transform="matrix(0.02157497303128371,0,0,0.02157497303128371,0,0)" xlink:href="#J"/><use transform="matrix(0.02157497303128371,0,0,0.02157497303128371,10.377562028047464,0)" xlink:href="#K"/><use transform="matrix(0.02157497303128371,0,0,0.02157497303128371,24.099244875943903,0)" xlink:href="#L"/><use transform="matrix(0.02157497303128371,0,0,0.02157497303128371,37.43257820927724,0)" xlink:href="#J"/><use transform="matrix(0.02157497303128371,0,0,0.02157497303128371,47.8101402373247,0)" xlink:href="#q"/><use transform="matrix(0.02157497303128371,0,0,0.02157497303128371,59.590075512405605,0)" xlink:href="#M"/><use transform="matrix(0.02157497303128371,0,0,0.02157497303128371,72.92340884573893,0)" xlink:href="#K"/><use transform="matrix(0.02157497303128371,0,0,0.02157497303128371,86.64509169363538,0)" xlink:href="#q"/><use transform="matrix(0.02157497303128371,0,0,0.02157497303128371,98.20927723840344,0)" xlink:href="#o"/><use transform="matrix(0.02157497303128371,0,0,0.02157497303128371,110.39913700107874,0)" xlink:href="#p"/></g><g id="m"><use transform="matrix(0.02157497303128371,0,0,0.02157497303128371,0,0)" xlink:href="#u"/><use transform="matrix(0.02157497303128371,0,0,0.02157497303128371,18.532901833872707,0)" xlink:href="#v"/><use transform="matrix(0.02157497303128371,0,0,0.02157497303128371,24.056094929881336,0)" xlink:href="#w"/><use transform="matrix(0.02157497303128371,0,0,0.02157497303128371,34.692556634304204,0)" xlink:href="#J"/></g></defs></g></svg>