<?xml version="1.0" encoding="utf-8"?>
<!-- Generator: Adobe Illustrator 26.0.3, SVG Export Plug-In . SVG Version: 6.00 Build 0)  -->
<svg version="1.1" id="Layer_1" xmlns="http://www.w3.org/2000/svg" xmlns:xlink="http://www.w3.org/1999/xlink" x="0px" y="0px"
	 viewBox="0 0 302 401" style="enable-background:new 0 0 302 401;" xml:space="preserve">
<style type="text/css">
	.st0{fill:none;stroke:#CCCCCC;stroke-width:2;}
	.st1{fill:none;stroke:#CCCCCC;stroke-width:2;stroke-dasharray:8.972,8.972;}
	.st2{fill:#93D500;}
	.st3{fill:#4D5A31;}
	.st4{fill:#6BA43A;}
	.st5{fill:#424143;}
	.st6{fill:#7BDFA7;}
	.st7{enable-background:new    ;}
	.st8{fill:#FFFFFF;}
</style>
<g>
	<g>
		<g>
			<line class="st0" x1="271" y1="301" x2="266.5" y2="301"/>
			<path class="st1" d="M257.53,301H31c-16.57,0-30-13.43-30-30V31C1,14.43,14.43,1,31,1h240c16.57,0,30,13.43,30,30v240
				c0,13.48-8.9,24.89-21.14,28.67"/>
			<path class="st0" d="M275.49,300.67c-1.46,0.22-2.96,0.33-4.49,0.33"/>
		</g>
	</g>
	<g transform="matrix(.293753 0 0 .293753 6.241652 12.66668)">
		<path class="st2" d="M389.55,481.07H236.86l0.09,2.24l0.26,4.3l0.11,1.84l0.41,4.97l0.1,1.11l0.59,5.5
			c0.01,0.18,0.03,0.36,0.06,0.53l0.78,5.91c1.77,12.24,4.39,24.3,7.9,36.15l0.05,0.16l1.82,5.89l0.1,0.33l1.68,5l0.44,1.26
			l1.57,4.32l0.74,1.95l1.4,3.62l1.1,2.69l1.17,2.79l1.55,3.4l0.9,2.07l1.9,4.07l0.63,1.3l2.29,4.62l0.36,0.71l2.79,5.3l0.59,1.03
			l130.83-78.95C393.95,504.31,390.74,492.78,389.55,481.07L389.55,481.07z M244.07,551.13l0.04,0.14l4.93-1.55L244.07,551.13z"/>
		<path class="st3" d="M427.08,551.21L319.11,659.13l1.67,1.54l4.61,4.09l3.67,3.11l0.99,0.83l4.2,3.38l0.54,0.43l4.62,3.54
			c0.06,0.04,0.12,0.08,0.18,0.13l20.12,13.6l0.72,0.44l3.96,2.34l2.43,1.38l2.3,1.29l4.21,2.27l0.58,0.31l11.9,5.78l58.1-141.14
			c-5.9-3.15-11.56-6.89-16.89-11.26L427.08,551.21z"/>
		<path class="st4" d="M415.88,540.5l-3.36-3.95l-2.79-3.6l-2.99-4.23l-2.79-4.35l-130.58,78.65l6.73,10.56l0.54,0.8l0.03,0.05
			l7.02,9.89l0.16,0.21l0.16,0.21l3.17,4.13l3.81,4.73l0.82,0.98l3.12,3.68l1.37,1.56l2.71,3.1l1.53,1.66l0.7,0.75l2.07,2.17
			l0.83,0.85l3.62,3.7l107.71-107.71l-3.53-3.77L415.88,540.5z"/>
		<path class="st3" d="M558.66,551.15l-3.6,2.79l0.27,0.45l78.54,130.37l10.75-7.4c7.59-5.61,14.96-11.68,22.04-18.22L559.09,551.58
			L558.66,551.15z"/>
		<g>
			<path class="st2" d="M623.94,690.97l0.18-0.1l-0.01-0.01L623.94,690.97L623.94,690.97z M623.86,691.02L623.86,691.02
				L623.86,691.02L623.86,691.02z"/>
			<path class="st2" d="M624.11,690.81l1.03-0.52l-0.02-0.04l-1.01,0.6V690.81z M623.94,690.97l-0.05,0.03L623.94,690.97z"/>
			<path class="st2" d="M623.86,691.02L623.86,691.02l-0.19-0.32L623.86,691.02z M623.94,690.97l0.18-0.09L623.94,690.97z"/>
			<path class="st2" d="M623.84,691.02l-0.05,0.03L623.84,691.02L623.84,691.02z M623.86,691.02h-0.02l0.03-0.01L623.86,691.02z
				 M623.89,690.99l-0.03,0.02l0.08-0.05L623.89,690.99z M624.11,690.87l1.02-0.58L624.11,690.87z M625.12,690.25l0.02,0.04
				L625.12,690.25z M623.75,691.07h0.01H623.75z"/>
			<path class="st2" d="M623.79,691.05l-0.03,0.02L623.79,691.05L623.79,691.05z"/>
			<path class="st2" d="M622.45,685.83l-75.97-126.05l-4.52,2.52l-4.63,2.32c-13.93,6.63-29.17,10.07-44.59,10.09
				c-10.05,0-20.04-1.46-29.66-4.33l-4.88-1.72l-4.88-1.73l-58,140.85l0.42,0.15l0.44,0.17h0.01l0.11,0.05l11.13,4.26
				c16.94,5.98,34.47,10.17,52.28,12.51c0.7,0.09,1.39,0.18,2.09,0.28l6.31,0.69l1.02,0.09l5.06,0.42l1.72,0.1l4.43,0.26l2.72,0.1
				l3.52,0.12l6.29,0.08c14.25,0,28.48-1.19,42.53-3.54l0.71-0.1l4.46-0.81l2.58-0.49l2.61-0.55l4.35-0.96l0.79-0.18
				c21.38-4.99,42.03-12.69,61.46-22.92l0.01-0.01l3.77-2.07l7.66-4.32l-0.12-0.36l0.19,0.33l0.25-0.14l1.01-0.6L622.45,685.83z
				 M427.14,390.41l3.6-2.79l-0.27-0.45l-78.53-130.32l-10.77,7.42c-7.59,5.59-14.95,11.66-22.02,18.2l107.57,107.52L427.14,390.41z
				"/>
		</g>
		<path class="st3" d="M311.7,289.58l-7.15,7.47c-7.95,8.6-15.21,17.56-21.76,26.97l-0.94,1.34l-2.19,3.23l-2.22,3.39l-0.81,1.24
			c-24.28,38.14-38.01,82.05-39.78,127.23l-0.14,5.17l-0.09,5.17h152.34l0.25-5.17l0.28-5.17c2-20.36,9.99-39.67,22.97-55.48
			c1.03-1.32,2.31-2.56,3.47-3.84s2.23-2.6,3.46-3.83L311.7,289.58z M626.02,251.76l-0.63-0.38l-4.04-2.4l-2.36-1.34l-2.38-1.32
			l-4.13-2.23l-0.65-0.34c-8.94-4.67-18.11-8.78-27.47-12.4l-0.72-0.28l-6.2-2.24c-16.64-5.81-33.85-9.89-51.33-12.18l-2.14-0.29
			l-2.14-0.24l-4.13-0.45l-1.16-0.1l-4.92-0.41l-6.2-0.38l-2.24-0.09V367.4c7.84,0.81,15.6,2.48,23.13,5.04l112.43-112.33
			c-4.16-2.91-8.4-5.69-12.73-8.34L626.02,251.76z"/>
		<g>
			<path class="st4" d="M360.69,251.3l2.67,4.43L360.69,251.3z M360.69,251.3l-0.07-0.02L360.69,251.3z"/>
			<path class="st4" d="M487.74,214.62l-5.17,0.1c-10.78,0.43-21.53,1.53-32.2,3.32l-0.7,0.12l-4.47,0.81l-2.58,0.49l-2.62,0.55
				l-4.34,0.95l-0.79,0.18c-21.38,4.99-42.04,12.7-61.47,22.93h-0.01l-12.76,7.2l0.02,0.03l78.63,130.55l4.52-2.52
				c1.52-0.82,3.06-1.59,4.62-2.33c10.73-5.12,22.27-8.35,34.1-9.56l5.17-0.41c0,0,3.44-0.18,5.17-0.18l0.01-152.33
				c-1.73-0.01-3.45,0.07-5.17,0.1H487.74z"/>
		</g>
		<path class="st3" d="M748.86,458.18l-0.25-4.11l-0.13-2.05l-0.4-4.83l-0.1-1.25l-0.57-5.39l-0.05-0.43l-0.03-0.21l-0.77-5.81
			c-0.01-0.05-0.01-0.13-0.03-0.18c-1.76-12.18-4.39-24.22-7.87-36.02l-0.07-0.23l-1.69-5.49l-0.23-0.72l-1.65-4.93l-0.46-1.33
			l-1.55-4.25l-0.78-2.01l-1.37-3.5l-1.13-2.76l-1.14-2.72l-1.52-3.46l-0.88-1.95l-1.93-4.12l-0.6-1.25l-2.31-4.68l-0.34-0.65
			l-2.69-5.17c-0.04-0.05-0.06-0.12-0.1-0.18c-4.44-8.16-9.31-16.06-14.58-23.65L591.2,437.3c2.54,7.5,4.22,15.26,5.03,23.13h152.71
			L748.86,458.18z"/>
		<path class="st4" d="M596.83,470.78l-0.25,5.17l-0.28,5.17c-1.96,19.84-9.62,39.26-22.97,55.48c-1.03,1.32-2.31,2.56-3.47,3.84
			s-2.23,2.6-3.46,3.83l107.71,107.71c1.22-1.22,2.38-2.49,3.56-3.74l3.56-3.74c7.97-8.63,15.26-17.67,21.82-27.05l0.76-1.11
			l2.37-3.48l2.04-3.13l1.03-1.52c24.7-38.8,37.92-82.76,39.7-127.12l0.14-5.17l0.09-5.17L596.83,470.78L596.83,470.78z"/>
		<path class="st5" d="M794.41,169.27c-27.87-27.87-73.06-27.87-100.93,0c-22.24,22.23-26.68,55.46-13.43,82.15L524.6,406.88
			c-26.69-13.24-59.93-8.8-82.16,13.43c-27.86,27.88-27.86,73.05,0,100.93c27.88,27.86,73.06,27.86,100.94-0.01
			c22.23-22.23,26.67-55.46,13.43-82.16l155.45-155.45c26.69,13.24,59.93,8.8,82.15-13.43c27.88-27.86,27.88-73.05,0.01-100.92
			H794.41z"/>
	</g>
	<path class="st6" d="M291,401H11c-5.52,0-10-4.48-10-10v-55c0-5.52,4.48-10,10-10h280c5.52,0,10,4.48,10,10v55
		C301,396.52,296.52,401,291,401z"/>
	<g>
		<g class="st7">
			<path class="st8" d="M108.3,350.07c0,5.3-3.68,8.96-9.04,8.96h-5.83v-17.92h5.83C104.59,341.11,108.3,344.82,108.3,350.07z
				 M105.85,350.07c0-4.06-2.6-6.74-6.59-6.74h-3.38v13.48h3.38C103.25,356.81,105.85,354.16,105.85,350.07z"/>
			<path class="st8" d="M110.47,352.97c0-3.61,2.75-6.44,6.51-6.44c3.76,0,6.49,2.83,6.49,6.44c0,3.58-2.73,6.44-6.49,6.44
				C113.22,359.41,110.47,356.56,110.47,352.97z M121,352.97c0-2.42-1.56-4.29-4.01-4.29c-2.37,0-4.04,1.87-4.04,4.29
				c0,2.4,1.64,4.29,4.04,4.29C119.43,357.26,121,355.37,121,352.97z"/>
			<path class="st8" d="M142.12,346.92l-3.94,12.11h-2.02l-2.8-9.19l-2.8,9.19h-2.04l-3.91-12.11h2.45l2.57,8.91l2.7-8.91h2.04
				l2.73,8.91l2.57-8.91H142.12z"/>
			<path class="st8" d="M156.11,352.06v6.97h-2.45v-6.64c0-2.5-1.19-3.61-3.18-3.61c-2.15,0-3.51,1.57-3.51,3.86v6.38h-2.42v-12.11
				h2.42v1.94c0.83-1.39,2.15-2.32,3.96-2.32C154.04,346.54,156.11,348.35,156.11,352.06z"/>
			<path class="st8" d="M159.64,355.55v-14.44h2.45v14.41c0,0.88,0.28,1.29,1.06,1.29h0.98v2.22h-1.21
				C160.83,359.03,159.64,357.72,159.64,355.55z"/>
			<path class="st8" d="M166.16,352.97c0-3.61,2.75-6.44,6.51-6.44c3.76,0,6.49,2.83,6.49,6.44c0,3.58-2.73,6.44-6.49,6.44
				C168.91,359.41,166.16,356.56,166.16,352.97z M176.68,352.97c0-2.42-1.56-4.29-4.01-4.29c-2.37,0-4.04,1.87-4.04,4.29
				c0,2.4,1.64,4.29,4.04,4.29C175.12,357.26,176.68,355.37,176.68,352.97z"/>
			<path class="st8" d="M193.42,356.81v2.22h-0.55c-1.97,0-2.85-0.48-3.13-1.74c-0.68,1.24-2.47,2.12-4.19,2.12
				c-2.37,0-4.21-1.29-4.21-3.61c0-3.23,4.09-3.99,7.92-4.64c-0.05-1.72-1.08-2.6-2.6-2.6c-1.56,0-2.78,0.78-3.23,2.47l-2.12-0.56
				c0.83-2.9,3.26-3.94,5.53-3.94c2.67,0,4.85,1.67,4.85,4.8v4.32c0,0.88,0.05,1.16,1.19,1.16H193.42z M189.25,352.9
				c-2.73,0.43-5.48,0.91-5.48,2.7c0,1.29,0.93,1.84,2.2,1.84c2.22,0,3.28-1.56,3.28-3.68V352.9z"/>
			<path class="st8" d="M195.31,352.97c0-3.89,2.83-6.44,6.18-6.44c1.67,0,3.31,0.73,4.14,2.02v-7.45h2.42v17.92h-2.42v-1.64
				c-0.83,1.29-2.47,2.02-4.14,2.02C198.14,359.41,195.31,356.83,195.31,352.97z M205.63,352.97c0-2.5-1.62-4.29-3.89-4.29
				c-2.45,0-3.96,1.89-3.96,4.29c0,2.4,1.51,4.29,3.96,4.29C204.02,357.26,205.63,355.47,205.63,352.97z"/>
		</g>
		<g class="st7">
			<path class="st8" d="M43.96,376.07c0-5.38,3.79-9.34,8.98-9.34c5.17,0,8.98,3.96,8.98,9.34c0,5.38-3.81,9.34-8.98,9.34
				C47.75,385.41,43.96,381.45,43.96,376.07z M59.48,376.07c0-4.09-2.83-7.09-6.54-7.09c-3.74,0-6.51,3-6.51,7.09
				c0,4.09,2.78,7.09,6.51,7.09C56.66,383.16,59.48,380.16,59.48,376.07z"/>
			<path class="st8" d="M64.58,372.92h2.45v1.62c0.81-1.29,2.47-1.99,4.14-1.99c3.33,0,6.16,2.55,6.16,6.44
				c0,3.86-2.83,6.44-6.16,6.44c-1.67,0-3.33-0.76-4.14-2.04v7.47h-2.45V372.92z M74.88,378.97c0-2.4-1.51-4.29-3.96-4.29
				c-2.27,0-3.89,1.79-3.89,4.29c0,2.5,1.62,4.29,3.89,4.29C73.37,383.26,74.88,381.37,74.88,378.97z"/>
			<path class="st8" d="M79.35,378.82c0-3.61,2.62-6.28,6.11-6.28c3.91,0,6.26,2.78,5.93,6.97h-9.54c0.2,2.52,1.69,3.84,3.68,3.84
				c1.94,0,3.18-0.98,3.89-2.6l1.94,0.81c-0.93,2.27-3,3.86-5.83,3.86C81.72,385.41,79.35,382.48,79.35,378.82z M89.04,377.71
				c-0.2-2.2-1.64-3.18-3.58-3.18c-2.02,0-3.33,1.41-3.58,3.18H89.04z"/>
			<path class="st8" d="M105.68,378.06v6.97h-2.45v-6.64c0-2.5-1.19-3.61-3.18-3.61c-2.15,0-3.51,1.57-3.51,3.86v6.38h-2.42v-12.11
				h2.42v1.94c0.83-1.39,2.15-2.32,3.96-2.32C103.61,372.54,105.68,374.35,105.68,378.06z"/>
			<path class="st8" d="M120.54,380.64h-8.18l-1.67,4.39h-2.62l7.14-17.92h2.45l7.14,17.92h-2.6L120.54,380.64z M119.74,378.52
				l-3.31-8.71l-3.28,8.71H119.74z"/>
			<path class="st8" d="M139.68,372.69c0,3.38-2.55,5.53-6.03,5.53h-3.99v6.81h-2.45v-17.92h6.44
				C137.1,367.11,139.68,369.28,139.68,372.69z M137.23,372.66c0-2.17-1.56-3.33-3.84-3.33h-3.74v6.69h3.81
				C135.72,376.02,137.23,374.83,137.23,372.66z"/>
			<path class="st8" d="M142.46,367.11h2.45v17.92h-2.45V367.11z"/>
			<path class="st8" d="M153.84,380.34l2.27-0.73c0.38,1.72,1.59,3.56,4.19,3.56c2.2,0,3.76-1.09,3.76-3.1
				c0-4.04-9.62-2.45-9.62-8.08c0-3.41,2.88-5.25,5.8-5.25c2.85,0,5.02,1.51,5.86,4.01l-2.25,0.68c-0.48-1.39-1.67-2.47-3.56-2.47
				c-1.62,0-3.36,0.76-3.36,2.78c0,3.76,9.62,1.99,9.62,8.18c0,3.33-2.5,5.5-6.31,5.5C156.44,385.41,154.42,382.91,153.84,380.34z"
				/>
			<path class="st8" d="M169.26,372.92h2.45v1.62c0.81-1.29,2.47-1.99,4.14-1.99c3.33,0,6.16,2.55,6.16,6.44
				c0,3.86-2.83,6.44-6.16,6.44c-1.67,0-3.33-0.76-4.14-2.04v7.47h-2.45V372.92z M179.56,378.97c0-2.4-1.51-4.29-3.96-4.29
				c-2.27,0-3.89,1.79-3.89,4.29c0,2.5,1.62,4.29,3.89,4.29C178.05,383.26,179.56,381.37,179.56,378.97z"/>
			<path class="st8" d="M184.03,378.82c0-3.61,2.62-6.28,6.11-6.28c3.91,0,6.26,2.78,5.93,6.97h-9.54c0.2,2.52,1.69,3.84,3.68,3.84
				c1.94,0,3.18-0.98,3.89-2.6l1.94,0.81c-0.93,2.27-3,3.86-5.83,3.86C186.4,385.41,184.03,382.48,184.03,378.82z M193.72,377.71
				c-0.2-2.2-1.64-3.18-3.58-3.18c-2.02,0-3.33,1.41-3.58,3.18H193.72z"/>
			<path class="st8" d="M204.6,385.41c-3.71,0-6.46-2.93-6.46-6.59c0-3.61,2.73-6.28,6.49-6.28c2.62,0,4.67,1.34,5.58,3.51
				l-2.09,0.86c-0.58-1.44-1.72-2.22-3.48-2.22c-2.4,0-4.01,1.72-4.01,4.14s1.59,4.44,3.99,4.44c1.67,0,2.8-0.83,3.43-2.27
				l2.07,0.91C209.14,384.05,207.2,385.41,204.6,385.41z"/>
			<path class="st8" d="M221.46,369.33v5.58h8.2v2.22h-8.2v7.9h-2.42v-17.92h11.38v2.22H221.46z"/>
			<path class="st8" d="M234.26,367.74c0.91,0,1.64,0.71,1.64,1.64c0,0.91-0.76,1.62-1.64,1.62c-0.93,0-1.69-0.71-1.69-1.62
				C232.57,368.42,233.33,367.74,234.26,367.74z M235.47,385.03h-2.42v-12.11h2.42V385.03z"/>
			<path class="st8" d="M239.31,381.55v-14.44h2.45v14.41c0,0.88,0.28,1.29,1.06,1.29h0.98v2.22h-1.21
				C240.5,385.03,239.31,383.72,239.31,381.55z"/>
			<path class="st8" d="M245.44,378.82c0-3.61,2.62-6.28,6.11-6.28c3.91,0,6.26,2.78,5.93,6.97h-9.54c0.2,2.52,1.69,3.84,3.68,3.84
				c1.94,0,3.18-0.98,3.89-2.6l1.94,0.81c-0.93,2.27-3,3.86-5.83,3.86C247.82,385.41,245.44,382.48,245.44,378.82z M255.14,377.71
				c-0.2-2.2-1.64-3.18-3.58-3.18c-2.02,0-3.33,1.41-3.58,3.18H255.14z"/>
		</g>
	</g>
</g>
</svg>
