<?xml version="1.0" encoding="UTF-8" standalone="no"?>
<svg
   width="910"
   height="865"
   viewBox="0 0 910 865"
   fill="none"
   version="1.1"
   id="svg2055"
   sodipodi:docname="redirect-payment-flow.svg"
   inkscape:version="1.2.1 (9c6d41e4, 2022-07-14)"
   xmlns:inkscape="http://www.inkscape.org/namespaces/inkscape"
   xmlns:sodipodi="http://sodipodi.sourceforge.net/DTD/sodipodi-0.dtd"
   xmlns="http://www.w3.org/2000/svg"
   xmlns:svg="http://www.w3.org/2000/svg">
  <defs
     id="defs2059">
    <rect
       x="380.71197"
       y="401.24056"
       width="20.528587"
       height="31.725998"
       id="rect3230" />
    <rect
       x="336.85545"
       y="449.76268"
       width="18.662348"
       height="34.525351"
       id="rect2497" />
    <rect
       x="249.14239"
       y="462.82632"
       width="27.993527"
       height="32.659116"
       id="rect2437" />
    <rect
       x="336.85544"
       y="449.76266"
       width="18.662348"
       height="34.525352"
       id="rect2497-4" />
    <rect
       x="66.498276"
       y="40.510441"
       width="191.85133"
       height="44.332184"
       id="rect3674" />
  </defs>
  <sodipodi:namedview
     id="namedview2057"
     pagecolor="#ffffff"
     bordercolor="#000000"
     borderopacity="0.25"
     inkscape:showpageshadow="2"
     inkscape:pageopacity="0.0"
     inkscape:pagecheckerboard="0"
     inkscape:deskcolor="#d1d1d1"
     showgrid="false"
     inkscape:zoom="1.0716763"
     inkscape:cx="284.1343"
     inkscape:cy="450.22923"
     inkscape:window-width="1920"
     inkscape:window-height="1147"
     inkscape:window-x="1512"
     inkscape:window-y="25"
     inkscape:window-maximized="1"
     inkscape:current-layer="svg2055" />
  <path
     d="M857.5 635H622.5V700H857.5V635Z"
     fill="#ECECEC"
     id="path1493" />
  <path
     d="M787.5 642.5H630V692.5H787.5V642.5Z"
     stroke="white"
     stroke-miterlimit="10"
     id="path1495" />
  <path
     d="M642.5 647.5H637.5V687.5H642.5V647.5Z"
     fill="#95DCAB"
     id="path1497" />
  <path
     d="M655 647.5H650V687.5H655V647.5Z"
     fill="#558A72"
     id="path1499" />
  <path
     d="M667.5 647.5H662.5V687.5H667.5V647.5Z"
     fill="#558A72"
     id="path1501" />
  <path
     d="M680 647.5H675V687.5H680V647.5Z"
     fill="#558A72"
     id="path1503" />
  <path
     d="M692.5 647.5H687.5V687.5H692.5V647.5Z"
     fill="#558A72"
     id="path1505" />
  <path
     d="M705 647.5H700V687.5H705V647.5Z"
     fill="#558A72"
     id="path1507" />
  <path
     d="M717.5 647.5H712.5V687.5H717.5V647.5Z"
     fill="#558A72"
     id="path1509" />
  <path
     d="M730 647.5H725V687.5H730V647.5Z"
     fill="#558A72"
     id="path1511" />
  <path
     d="M742.5 647.5H737.5V687.5H742.5V647.5Z"
     fill="#558A72"
     id="path1513" />
  <path
     d="M755 647.5H750V687.5H755V647.5Z"
     fill="#558A72"
     id="path1515" />
  <path
     d="M767.5 647.5H762.5V687.5H767.5V647.5Z"
     fill="#558A72"
     id="path1517" />
  <path
     d="M780 647.5H775V687.5H780V647.5Z"
     fill="#558A72"
     id="path1519" />
  <path
     d="M850 642.5H842.5V692.5H850V642.5Z"
     fill="#558A72"
     id="path1521" />
  <path
     d="M831 650.5C833.209 650.5 835 648.709 835 646.5C835 644.291 833.209 642.5 831 642.5C828.791 642.5 827 644.291 827 646.5C827 648.709 828.791 650.5 831 650.5Z"
     fill="white"
     id="path1523" />
  <path
     d="M831 664.5C833.209 664.5 835 662.709 835 660.5C835 658.291 833.209 656.5 831 656.5C828.791 656.5 827 658.291 827 660.5C827 662.709 828.791 664.5 831 664.5Z"
     fill="#558A72"
     id="path1525" />
  <path
     d="M831 692.5C833.209 692.5 835 690.709 835 688.5C835 686.291 833.209 684.5 831 684.5C828.791 684.5 827 686.291 827 688.5C827 690.709 828.791 692.5 831 692.5Z"
     fill="#558A72"
     id="path1527" />
  <path
     d="M831 678.5C833.209 678.5 835 676.709 835 674.5C835 672.291 833.209 670.5 831 670.5C828.791 670.5 827 672.291 827 674.5C827 676.709 828.791 678.5 831 678.5Z"
     fill="#95DCAB"
     id="path1529" />
  <path
     d="M850 700H630V705H850V700Z"
     fill="#D4D4D4"
     id="path1531" />
  <path
     d="M857.5 565H622.5V630H857.5V565Z"
     fill="#ECECEC"
     id="path1533" />
  <path
     d="M787.5 572.5H630V622.5H787.5V572.5Z"
     stroke="white"
     stroke-miterlimit="10"
     id="path1535" />
  <path
     d="M642.5 577.5H637.5V617.5H642.5V577.5Z"
     fill="#558A72"
     id="path1537" />
  <path
     d="M655 577.5H650V617.5H655V577.5Z"
     fill="#558A72"
     id="path1539" />
  <path
     d="M667.5 577.5H662.5V617.5H667.5V577.5Z"
     fill="#558A72"
     id="path1541" />
  <path
     d="M680 577.5H675V617.5H680V577.5Z"
     fill="#558A72"
     id="path1543" />
  <path
     d="M692.5 577.5H687.5V617.5H692.5V577.5Z"
     fill="#558A72"
     id="path1545" />
  <path
     d="M705 577.5H700V617.5H705V577.5Z"
     fill="#558A72"
     id="path1547" />
  <path
     d="M717.5 577.5H712.5V617.5H717.5V577.5Z"
     fill="#558A72"
     id="path1549" />
  <path
     d="M730 577.5H725V617.5H730V577.5Z"
     fill="#558A72"
     id="path1551" />
  <path
     d="M742.5 577.5H737.5V617.5H742.5V577.5Z"
     fill="#558A72"
     id="path1553" />
  <path
     d="M755 577.5H750V617.5H755V577.5Z"
     fill="#558A72"
     id="path1555" />
  <path
     d="M767.5 577.5H762.5V617.5H767.5V577.5Z"
     fill="#95DCAB"
     id="path1557" />
  <path
     d="M780 577.5H775V617.5H780V577.5Z"
     fill="#558A72"
     id="path1559" />
  <path
     d="M850 572.5H842.5V622.5H850V572.5Z"
     fill="#558A72"
     id="path1561" />
  <path
     d="M831 580.5C833.209 580.5 835 578.709 835 576.5C835 574.291 833.209 572.5 831 572.5C828.791 572.5 827 574.291 827 576.5C827 578.709 828.791 580.5 831 580.5Z"
     fill="#95DCAB"
     id="path1563" />
  <path
     d="M831 594.5C833.209 594.5 835 592.709 835 590.5C835 588.291 833.209 586.5 831 586.5C828.791 586.5 827 588.291 827 590.5C827 592.709 828.791 594.5 831 594.5Z"
     fill="#558A72"
     id="path1565" />
  <path
     d="M831 622.5C833.209 622.5 835 620.709 835 618.5C835 616.291 833.209 614.5 831 614.5C828.791 614.5 827 616.291 827 618.5C827 620.709 828.791 622.5 831 622.5Z"
     fill="white"
     id="path1567" />
  <path
     d="M831 608.5C833.209 608.5 835 606.709 835 604.5C835 602.291 833.209 600.5 831 600.5C828.791 600.5 827 602.291 827 604.5C827 606.709 828.791 608.5 831 608.5Z"
     fill="#558A72"
     id="path1569" />
  <path
     d="M850 630H630V635H850V630Z"
     fill="#D4D4D4"
     id="path1571" />
  <path
     d="M857.5 495H622.5V560H857.5V495Z"
     fill="#ECECEC"
     id="path1573" />
  <path
     d="M787.5 502.5H630V552.5H787.5V502.5Z"
     stroke="white"
     stroke-miterlimit="10"
     id="path1575" />
  <path
     d="M642.5 507.5H637.5V547.5H642.5V507.5Z"
     fill="#558A72"
     id="path1577" />
  <path
     d="M655 507.5H650V547.5H655V507.5Z"
     fill="#558A72"
     id="path1579" />
  <path
     d="M667.5 507.5H662.5V547.5H667.5V507.5Z"
     fill="#558A72"
     id="path1581" />
  <path
     d="M680 507.5H675V547.5H680V507.5Z"
     fill="#558A72"
     id="path1583" />
  <path
     d="M692.5 507.5H687.5V547.5H692.5V507.5Z"
     fill="#95DCAB"
     id="path1585" />
  <path
     d="M705 507.5H700V547.5H705V507.5Z"
     fill="#558A72"
     id="path1587" />
  <path
     d="M717.5 507.5H712.5V547.5H717.5V507.5Z"
     fill="#558A72"
     id="path1589" />
  <path
     d="M730 507.5H725V547.5H730V507.5Z"
     fill="#558A72"
     id="path1591" />
  <path
     d="M742.5 507.5H737.5V547.5H742.5V507.5Z"
     fill="#558A72"
     id="path1593" />
  <path
     d="M755 507.5H750V547.5H755V507.5Z"
     fill="#558A72"
     id="path1595" />
  <path
     d="M767.5 507.5H762.5V547.5H767.5V507.5Z"
     fill="#558A72"
     id="path1597" />
  <path
     d="M780 507.5H775V547.5H780V507.5Z"
     fill="#558A72"
     id="path1599" />
  <path
     d="M850 502.5H842.5V552.5H850V502.5Z"
     fill="#558A72"
     id="path1601" />
  <path
     d="M831 510.5C833.209 510.5 835 508.709 835 506.5C835 504.291 833.209 502.5 831 502.5C828.791 502.5 827 504.291 827 506.5C827 508.709 828.791 510.5 831 510.5Z"
     fill="#558A72"
     id="path1603" />
  <path
     d="M831 524.5C833.209 524.5 835 522.709 835 520.5C835 518.291 833.209 516.5 831 516.5C828.791 516.5 827 518.291 827 520.5C827 522.709 828.791 524.5 831 524.5Z"
     fill="#95DCAB"
     id="path1605" />
  <path
     d="M831 552.5C833.209 552.5 835 550.709 835 548.5C835 546.291 833.209 544.5 831 544.5C828.791 544.5 827 546.291 827 548.5C827 550.709 828.791 552.5 831 552.5Z"
     fill="#558A72"
     id="path1607" />
  <path
     d="M831 538.5C833.209 538.5 835 536.709 835 534.5C835 532.291 833.209 530.5 831 530.5C828.791 530.5 827 532.291 827 534.5C827 536.709 828.791 538.5 831 538.5Z"
     fill="white"
     id="path1609" />
  <path
     d="M850 560H630V565H850V560Z"
     fill="#D4D4D4"
     id="path1611" />
  <path
     d="M857.5 425H622.5V490H857.5V425Z"
     fill="#ECECEC"
     id="path1613" />
  <path
     d="M787.5 432.5H630V482.5H787.5V432.5Z"
     stroke="white"
     stroke-miterlimit="10"
     id="path1615" />
  <path
     d="M642.5 437.5H637.5V477.5H642.5V437.5Z"
     fill="#558A72"
     id="path1617" />
  <path
     d="M655 437.5H650V477.5H655V437.5Z"
     fill="#558A72"
     id="path1619" />
  <path
     d="M667.5 437.5H662.5V477.5H667.5V437.5Z"
     fill="#558A72"
     id="path1621" />
  <path
     d="M680 437.5H675V477.5H680V437.5Z"
     fill="#558A72"
     id="path1623" />
  <path
     d="M692.5 437.5H687.5V477.5H692.5V437.5Z"
     fill="#558A72"
     id="path1625" />
  <path
     d="M705 437.5H700V477.5H705V437.5Z"
     fill="#558A72"
     id="path1627" />
  <path
     d="M717.5 437.5H712.5V477.5H717.5V437.5Z"
     fill="#558A72"
     id="path1629" />
  <path
     d="M730 437.5H725V477.5H730V437.5Z"
     fill="#558A72"
     id="path1631" />
  <path
     d="M742.5 437.5H737.5V477.5H742.5V437.5Z"
     fill="#558A72"
     id="path1633" />
  <path
     d="M755 437.5H750V477.5H755V437.5Z"
     fill="#558A72"
     id="path1635" />
  <path
     d="M767.5 437.5H762.5V477.5H767.5V437.5Z"
     fill="#558A72"
     id="path1637" />
  <path
     d="M780 437.5H775V477.5H780V437.5Z"
     fill="#95DCAB"
     id="path1639" />
  <path
     d="M850 432.5H842.5V482.5H850V432.5Z"
     fill="#558A72"
     id="path1641" />
  <path
     d="M831 440.5C833.209 440.5 835 438.709 835 436.5C835 434.291 833.209 432.5 831 432.5C828.791 432.5 827 434.291 827 436.5C827 438.709 828.791 440.5 831 440.5Z"
     fill="#95DCAB"
     id="path1643" />
  <path
     d="M831 454.5C833.209 454.5 835 452.709 835 450.5C835 448.291 833.209 446.5 831 446.5C828.791 446.5 827 448.291 827 450.5C827 452.709 828.791 454.5 831 454.5Z"
     fill="#558A72"
     id="path1645" />
  <path
     d="M831 482.5C833.209 482.5 835 480.709 835 478.5C835 476.291 833.209 474.5 831 474.5C828.791 474.5 827 476.291 827 478.5C827 480.709 828.791 482.5 831 482.5Z"
     fill="white"
     id="path1647" />
  <path
     d="M831 468.5C833.209 468.5 835 466.709 835 464.5C835 462.291 833.209 460.5 831 460.5C828.791 460.5 827 462.291 827 464.5C827 466.709 828.791 468.5 831 468.5Z"
     fill="#558A72"
     id="path1649" />
  <path
     d="M850 490H630V495H850V490Z"
     fill="#D4D4D4"
     id="path1651" />
  <path
     d="M857.5 355H622.5V420H857.5V355Z"
     fill="#ECECEC"
     id="path1653" />
  <path
     d="M787.5 362.5H630V412.5H787.5V362.5Z"
     stroke="white"
     stroke-miterlimit="10"
     id="path1655" />
  <path
     d="M642.5 367.5H637.5V407.5H642.5V367.5Z"
     fill="#558A72"
     id="path1657" />
  <path
     d="M655 367.5H650V407.5H655V367.5Z"
     fill="#95DCAB"
     id="path1659" />
  <path
     d="M667.5 367.5H662.5V407.5H667.5V367.5Z"
     fill="#558A72"
     id="path1661" />
  <path
     d="M680 367.5H675V407.5H680V367.5Z"
     fill="#558A72"
     id="path1663" />
  <path
     d="M692.5 367.5H687.5V407.5H692.5V367.5Z"
     fill="#558A72"
     id="path1665" />
  <path
     d="M705 367.5H700V407.5H705V367.5Z"
     fill="#558A72"
     id="path1667" />
  <path
     d="M717.5 367.5H712.5V407.5H717.5V367.5Z"
     fill="#558A72"
     id="path1669" />
  <path
     d="M730 367.5H725V407.5H730V367.5Z"
     fill="#558A72"
     id="path1671" />
  <path
     d="M742.5 367.5H737.5V407.5H742.5V367.5Z"
     fill="#558A72"
     id="path1673" />
  <path
     d="M755 367.5H750V407.5H755V367.5Z"
     fill="#558A72"
     id="path1675" />
  <path
     d="M767.5 367.5H762.5V407.5H767.5V367.5Z"
     fill="#558A72"
     id="path1677" />
  <path
     d="M780 367.5H775V407.5H780V367.5Z"
     fill="#558A72"
     id="path1679" />
  <path
     d="M850 362.5H842.5V412.5H850V362.5Z"
     fill="#558A72"
     id="path1681" />
  <path
     d="M831 370.5C833.209 370.5 835 368.709 835 366.5C835 364.291 833.209 362.5 831 362.5C828.791 362.5 827 364.291 827 366.5C827 368.709 828.791 370.5 831 370.5Z"
     fill="#558A72"
     id="path1683" />
  <path
     d="M831 384.5C833.209 384.5 835 382.709 835 380.5C835 378.291 833.209 376.5 831 376.5C828.791 376.5 827 378.291 827 380.5C827 382.709 828.791 384.5 831 384.5Z"
     fill="white"
     id="path1685" />
  <path
     d="M831 412.5C833.209 412.5 835 410.709 835 408.5C835 406.291 833.209 404.5 831 404.5C828.791 404.5 827 406.291 827 408.5C827 410.709 828.791 412.5 831 412.5Z"
     fill="#95DCAB"
     id="path1687" />
  <path
     d="M831 398.5C833.209 398.5 835 396.709 835 394.5C835 392.291 833.209 390.5 831 390.5C828.791 390.5 827 392.291 827 394.5C827 396.709 828.791 398.5 831 398.5Z"
     fill="#558A72"
     id="path1689" />
  <path
     d="M850 420H630V425H850V420Z"
     fill="#D4D4D4"
     id="path1691" />
  <path
     d="M857.5 705H622.5V770H857.5V705Z"
     fill="#ECECEC"
     id="path1693" />
  <path
     d="M850 770H630V775H850V770Z"
     fill="#D4D4D4"
     id="path1695" />
  <path
     d="M635 715.56H630V720.56H635V715.56Z"
     fill="#D4D4D4"
     id="path1697" />
  <path
     d="M645 715.56H640V720.56H645V715.56Z"
     fill="#D4D4D4"
     id="path1699" />
  <path
     d="M655 715.56H650V720.56H655V715.56Z"
     fill="#D4D4D4"
     id="path1701" />
  <path
     d="M665 715.56H660V720.56H665V715.56Z"
     fill="#D4D4D4"
     id="path1703" />
  <path
     d="M675 715.56H670V720.56H675V715.56Z"
     fill="#D4D4D4"
     id="path1705" />
  <path
     d="M685 715.56H680V720.56H685V715.56Z"
     fill="#D4D4D4"
     id="path1707" />
  <path
     d="M695 715.56H690V720.56H695V715.56Z"
     fill="#D4D4D4"
     id="path1709" />
  <path
     d="M705 715.56H700V720.56H705V715.56Z"
     fill="#D4D4D4"
     id="path1711" />
  <path
     d="M715 715.56H710V720.56H715V715.56Z"
     fill="#D4D4D4"
     id="path1713" />
  <path
     d="M725 715.56H720V720.56H725V715.56Z"
     fill="#D4D4D4"
     id="path1715" />
  <path
     d="M640 725.56H635V730.56H640V725.56Z"
     fill="#D4D4D4"
     id="path1717" />
  <path
     d="M650 725.56H645V730.56H650V725.56Z"
     fill="#D4D4D4"
     id="path1719" />
  <path
     d="M660 725.56H655V730.56H660V725.56Z"
     fill="#D4D4D4"
     id="path1721" />
  <path
     d="M670 725.56H665V730.56H670V725.56Z"
     fill="#D4D4D4"
     id="path1723" />
  <path
     d="M680 725.56H675V730.56H680V725.56Z"
     fill="#D4D4D4"
     id="path1725" />
  <path
     d="M690 725.56H685V730.56H690V725.56Z"
     fill="#D4D4D4"
     id="path1727" />
  <path
     d="M700 725.56H695V730.56H700V725.56Z"
     fill="#D4D4D4"
     id="path1729" />
  <path
     d="M710 725.56H705V730.56H710V725.56Z"
     fill="#D4D4D4"
     id="path1731" />
  <path
     d="M720 725.56H715V730.56H720V725.56Z"
     fill="#D4D4D4"
     id="path1733" />
  <path
     d="M635 735.56H630V740.56H635V735.56Z"
     fill="#D4D4D4"
     id="path1735" />
  <path
     d="M645 735.56H640V740.56H645V735.56Z"
     fill="#D4D4D4"
     id="path1737" />
  <path
     d="M655 735.56H650V740.56H655V735.56Z"
     fill="#D4D4D4"
     id="path1739" />
  <path
     d="M665 735.56H660V740.56H665V735.56Z"
     fill="#D4D4D4"
     id="path1741" />
  <path
     d="M675 735.56H670V740.56H675V735.56Z"
     fill="#D4D4D4"
     id="path1743" />
  <path
     d="M685 735.56H680V740.56H685V735.56Z"
     fill="#D4D4D4"
     id="path1745" />
  <path
     d="M695 735.56H690V740.56H695V735.56Z"
     fill="#D4D4D4"
     id="path1747" />
  <path
     d="M705 735.56H700V740.56H705V735.56Z"
     fill="#D4D4D4"
     id="path1749" />
  <path
     d="M715 735.56H710V740.56H715V735.56Z"
     fill="#D4D4D4"
     id="path1751" />
  <path
     d="M725 735.56H720V740.56H725V735.56Z"
     fill="#D4D4D4"
     id="path1753" />
  <path
     d="M640 745.56H635V750.56H640V745.56Z"
     fill="#D4D4D4"
     id="path1755" />
  <path
     d="M650 745.56H645V750.56H650V745.56Z"
     fill="#D4D4D4"
     id="path1757" />
  <path
     d="M660 745.56H655V750.56H660V745.56Z"
     fill="#D4D4D4"
     id="path1759" />
  <path
     d="M670 745.56H665V750.56H670V745.56Z"
     fill="#D4D4D4"
     id="path1761" />
  <path
     d="M680 745.56H675V750.56H680V745.56Z"
     fill="#D4D4D4"
     id="path1763" />
  <path
     d="M690 745.56H685V750.56H690V745.56Z"
     fill="#D4D4D4"
     id="path1765" />
  <path
     d="M700 745.56H695V750.56H700V745.56Z"
     fill="#D4D4D4"
     id="path1767" />
  <path
     d="M710 745.56H705V750.56H710V745.56Z"
     fill="#D4D4D4"
     id="path1769" />
  <path
     d="M720 745.56H715V750.56H720V745.56Z"
     fill="#D4D4D4"
     id="path1771" />
  <path
     d="M635 755.56H630V760.56H635V755.56Z"
     fill="#D4D4D4"
     id="path1773" />
  <path
     d="M645 755.56H640V760.56H645V755.56Z"
     fill="#D4D4D4"
     id="path1775" />
  <path
     d="M655 755.56H650V760.56H655V755.56Z"
     fill="#D4D4D4"
     id="path1777" />
  <path
     d="M665 755.56H660V760.56H665V755.56Z"
     fill="#D4D4D4"
     id="path1779" />
  <path
     d="M675 755.56H670V760.56H675V755.56Z"
     fill="#D4D4D4"
     id="path1781" />
  <path
     d="M685 755.56H680V760.56H685V755.56Z"
     fill="#D4D4D4"
     id="path1783" />
  <path
     d="M695 755.56H690V760.56H695V755.56Z"
     fill="#D4D4D4"
     id="path1785" />
  <path
     d="M705 755.56H700V760.56H705V755.56Z"
     fill="#D4D4D4"
     id="path1787" />
  <path
     d="M715 755.56H710V760.56H715V755.56Z"
     fill="#D4D4D4"
     id="path1789" />
  <path
     d="M725 755.56H720V760.56H725V755.56Z"
     fill="#D4D4D4"
     id="path1791" />
  <path
     d="M850 712.5H837.5V762.5H850V712.5Z"
     stroke="white"
     stroke-miterlimit="10"
     id="path1793" />
  <path
     d="M843.75 737.53C841.68 737.53 840 735.85 840 733.78V718.75C840 716.68 841.68 715 843.75 715C845.82 715 847.5 716.68 847.5 718.75V733.78C847.5 735.85 845.83 737.53 843.75 737.53Z"
     fill="#646363"
     id="path1795" />
  <path
     d="M843.75 759.56C845.959 759.56 847.75 757.769 847.75 755.56C847.75 753.351 845.959 751.56 843.75 751.56C841.541 751.56 839.75 753.351 839.75 755.56C839.75 757.769 841.541 759.56 843.75 759.56Z"
     fill="white"
     id="path1797" />
  <path
     d="M843.75 721.5C845.131 721.5 846.25 720.381 846.25 719C846.25 717.619 845.131 716.5 843.75 716.5C842.369 716.5 841.25 717.619 841.25 719C841.25 720.381 842.369 721.5 843.75 721.5Z"
     fill="black"
     id="path1799" />
  <rect
     x="580.5"
     y="285.5"
     width="319"
     height="529"
     rx="29.5"
     stroke="#B1B4AE"
     id="rect1801" />
  <rect
     x="620.5"
     y="245.5"
     width="239"
     height="79"
     rx="9.5"
     fill="black"
     id="rect1803" />
  <rect
     x="620.5"
     y="245.5"
     width="239"
     height="79"
     rx="9.5"
     stroke="#F0F0F0"
     id="rect1807" />
  <path
     d="M287.5 635H52.5V700H287.5V635Z"
     fill="#ECECEC"
     id="path1809" />
  <path
     d="M217.5 642.5H60V692.5H217.5V642.5Z"
     stroke="white"
     stroke-miterlimit="10"
     id="path1811" />
  <path
     d="M72.5 647.5H67.5V687.5H72.5V647.5Z"
     fill="#558A72"
     id="path1813" />
  <path
     d="M85 647.5H80V687.5H85V647.5Z"
     fill="#558A72"
     id="path1815" />
  <path
     d="M97.5 647.5H92.5V687.5H97.5V647.5Z"
     fill="#558A72"
     id="path1817" />
  <path
     d="M110 647.5H105V687.5H110V647.5Z"
     fill="#558A72"
     id="path1819" />
  <path
     d="M122.5 647.5H117.5V687.5H122.5V647.5Z"
     fill="#558A72"
     id="path1821" />
  <path
     d="M135 647.5H130V687.5H135V647.5Z"
     fill="#558A72"
     id="path1823" />
  <path
     d="M147.5 647.5H142.5V687.5H147.5V647.5Z"
     fill="#558A72"
     id="path1825" />
  <path
     d="M160 647.5H155V687.5H160V647.5Z"
     fill="#558A72"
     id="path1827" />
  <path
     d="M172.5 647.5H167.5V687.5H172.5V647.5Z"
     fill="#558A72"
     id="path1829" />
  <path
     d="M185 647.5H180V687.5H185V647.5Z"
     fill="#558A72"
     id="path1831" />
  <path
     d="M197.5 647.5H192.5V687.5H197.5V647.5Z"
     fill="#95DCAB"
     id="path1833" />
  <path
     d="M210 647.5H205V687.5H210V647.5Z"
     fill="#558A72"
     id="path1835" />
  <path
     d="M280 642.5H272.5V692.5H280V642.5Z"
     fill="#558A72"
     id="path1837" />
  <path
     d="M261 650.5C263.209 650.5 265 648.709 265 646.5C265 644.291 263.209 642.5 261 642.5C258.791 642.5 257 644.291 257 646.5C257 648.709 258.791 650.5 261 650.5Z"
     fill="#558A72"
     id="path1839" />
  <path
     d="M261 664.5C263.209 664.5 265 662.709 265 660.5C265 658.291 263.209 656.5 261 656.5C258.791 656.5 257 658.291 257 660.5C257 662.709 258.791 664.5 261 664.5Z"
     fill="#95DCAB"
     id="path1841" />
  <path
     d="M261 692.5C263.209 692.5 265 690.709 265 688.5C265 686.291 263.209 684.5 261 684.5C258.791 684.5 257 686.291 257 688.5C257 690.709 258.791 692.5 261 692.5Z"
     fill="white"
     id="path1843" />
  <path
     d="M261 678.5C263.209 678.5 265 676.709 265 674.5C265 672.291 263.209 670.5 261 670.5C258.791 670.5 257 672.291 257 674.5C257 676.709 258.791 678.5 261 678.5Z"
     fill="#558A72"
     id="path1845" />
  <path
     d="M280 700H60V705H280V700Z"
     fill="#D4D4D4"
     id="path1847" />
  <path
     d="M287.5 705H52.5V770H287.5V705Z"
     fill="#ECECEC"
     id="path1849" />
  <path
     d="M280 770H60V775H280V770Z"
     fill="#D4D4D4"
     id="path1851" />
  <path
     d="M65 715.56H60V720.56H65V715.56Z"
     fill="#D4D4D4"
     id="path1853" />
  <path
     d="M75 715.56H70V720.56H75V715.56Z"
     fill="#D4D4D4"
     id="path1855" />
  <path
     d="M85 715.56H80V720.56H85V715.56Z"
     fill="#D4D4D4"
     id="path1857" />
  <path
     d="M95 715.56H90V720.56H95V715.56Z"
     fill="#D4D4D4"
     id="path1859" />
  <path
     d="M105 715.56H100V720.56H105V715.56Z"
     fill="#D4D4D4"
     id="path1861" />
  <path
     d="M115 715.56H110V720.56H115V715.56Z"
     fill="#D4D4D4"
     id="path1863" />
  <path
     d="M125 715.56H120V720.56H125V715.56Z"
     fill="#D4D4D4"
     id="path1865" />
  <path
     d="M135 715.56H130V720.56H135V715.56Z"
     fill="#D4D4D4"
     id="path1867" />
  <path
     d="M145 715.56H140V720.56H145V715.56Z"
     fill="#D4D4D4"
     id="path1869" />
  <path
     d="M155 715.56H150V720.56H155V715.56Z"
     fill="#D4D4D4"
     id="path1871" />
  <path
     d="M70 725.56H65V730.56H70V725.56Z"
     fill="#D4D4D4"
     id="path1873" />
  <path
     d="M80 725.56H75V730.56H80V725.56Z"
     fill="#D4D4D4"
     id="path1875" />
  <path
     d="M90 725.56H85V730.56H90V725.56Z"
     fill="#D4D4D4"
     id="path1877" />
  <path
     d="M100 725.56H95V730.56H100V725.56Z"
     fill="#D4D4D4"
     id="path1879" />
  <path
     d="M110 725.56H105V730.56H110V725.56Z"
     fill="#D4D4D4"
     id="path1881" />
  <path
     d="M120 725.56H115V730.56H120V725.56Z"
     fill="#D4D4D4"
     id="path1883" />
  <path
     d="M130 725.56H125V730.56H130V725.56Z"
     fill="#D4D4D4"
     id="path1885" />
  <path
     d="M140 725.56H135V730.56H140V725.56Z"
     fill="#D4D4D4"
     id="path1887" />
  <path
     d="M150 725.56H145V730.56H150V725.56Z"
     fill="#D4D4D4"
     id="path1889" />
  <path
     d="M65 735.56H60V740.56H65V735.56Z"
     fill="#D4D4D4"
     id="path1891" />
  <path
     d="M75 735.56H70V740.56H75V735.56Z"
     fill="#D4D4D4"
     id="path1893" />
  <path
     d="M85 735.56H80V740.56H85V735.56Z"
     fill="#D4D4D4"
     id="path1895" />
  <path
     d="M95 735.56H90V740.56H95V735.56Z"
     fill="#D4D4D4"
     id="path1897" />
  <path
     d="M105 735.56H100V740.56H105V735.56Z"
     fill="#D4D4D4"
     id="path1899" />
  <path
     d="M115 735.56H110V740.56H115V735.56Z"
     fill="#D4D4D4"
     id="path1901" />
  <path
     d="M125 735.56H120V740.56H125V735.56Z"
     fill="#D4D4D4"
     id="path1903" />
  <path
     d="M135 735.56H130V740.56H135V735.56Z"
     fill="#D4D4D4"
     id="path1905" />
  <path
     d="M145 735.56H140V740.56H145V735.56Z"
     fill="#D4D4D4"
     id="path1907" />
  <path
     d="M155 735.56H150V740.56H155V735.56Z"
     fill="#D4D4D4"
     id="path1909" />
  <path
     d="M70 745.56H65V750.56H70V745.56Z"
     fill="#D4D4D4"
     id="path1911" />
  <path
     d="M80 745.56H75V750.56H80V745.56Z"
     fill="#D4D4D4"
     id="path1913" />
  <path
     d="M90 745.56H85V750.56H90V745.56Z"
     fill="#D4D4D4"
     id="path1915" />
  <path
     d="M100 745.56H95V750.56H100V745.56Z"
     fill="#D4D4D4"
     id="path1917" />
  <path
     d="M110 745.56H105V750.56H110V745.56Z"
     fill="#D4D4D4"
     id="path1919" />
  <path
     d="M120 745.56H115V750.56H120V745.56Z"
     fill="#D4D4D4"
     id="path1921" />
  <path
     d="M130 745.56H125V750.56H130V745.56Z"
     fill="#D4D4D4"
     id="path1923" />
  <path
     d="M140 745.56H135V750.56H140V745.56Z"
     fill="#D4D4D4"
     id="path1925" />
  <path
     d="M150 745.56H145V750.56H150V745.56Z"
     fill="#D4D4D4"
     id="path1927" />
  <path
     d="M65 755.56H60V760.56H65V755.56Z"
     fill="#D4D4D4"
     id="path1929" />
  <path
     d="M75 755.56H70V760.56H75V755.56Z"
     fill="#D4D4D4"
     id="path1931" />
  <path
     d="M85 755.56H80V760.56H85V755.56Z"
     fill="#D4D4D4"
     id="path1933" />
  <path
     d="M95 755.56H90V760.56H95V755.56Z"
     fill="#D4D4D4"
     id="path1935" />
  <path
     d="M105 755.56H100V760.56H105V755.56Z"
     fill="#D4D4D4"
     id="path1937" />
  <path
     d="M115 755.56H110V760.56H115V755.56Z"
     fill="#D4D4D4"
     id="path1939" />
  <path
     d="M125 755.56H120V760.56H125V755.56Z"
     fill="#D4D4D4"
     id="path1941" />
  <path
     d="M135 755.56H130V760.56H135V755.56Z"
     fill="#D4D4D4"
     id="path1943" />
  <path
     d="M145 755.56H140V760.56H145V755.56Z"
     fill="#D4D4D4"
     id="path1945" />
  <path
     d="M155 755.56H150V760.56H155V755.56Z"
     fill="#D4D4D4"
     id="path1947" />
  <path
     d="M280 712.5H267.5V762.5H280V712.5Z"
     stroke="white"
     stroke-miterlimit="10"
     id="path1949" />
  <path
     d="M273.75 737.53C271.68 737.53 270 735.85 270 733.78V718.75C270 716.68 271.68 715 273.75 715C275.82 715 277.5 716.68 277.5 718.75V733.78C277.5 735.85 275.82 737.53 273.75 737.53Z"
     fill="#646363"
     id="path1951" />
  <path
     d="M273.75 759.56C275.959 759.56 277.75 757.769 277.75 755.56C277.75 753.351 275.959 751.56 273.75 751.56C271.541 751.56 269.75 753.351 269.75 755.56C269.75 757.769 271.541 759.56 273.75 759.56Z"
     fill="white"
     id="path1953" />
  <path
     d="M273.75 721.5C275.131 721.5 276.25 720.381 276.25 719C276.25 717.619 275.131 716.5 273.75 716.5C272.369 716.5 271.25 717.619 271.25 719C271.25 720.381 272.369 721.5 273.75 721.5Z"
     fill="black"
     id="path1955" />
  <rect
     x="10.5"
     y="565.5"
     width="319"
     height="249"
     rx="29.5"
     stroke="#B1B4AE"
     id="rect1957" />
  <rect
     x="50.5"
     y="525.5"
     width="239"
     height="79"
     rx="9.5"
     fill="black"
     id="rect1959" />
  <path
     d="M118.207 556.267H120.877L114.785 567.044V573.5H112.454V567.044L106.289 556.267H108.984L113.644 564.738L118.207 556.267ZM130.051 572.092C128.87 573.273 127.381 573.864 125.585 573.864C123.789 573.864 122.292 573.265 121.095 572.068C119.914 570.871 119.323 569.406 119.323 567.675C119.323 565.927 119.914 564.463 121.095 563.282C122.292 562.084 123.789 561.485 125.585 561.485C127.381 561.485 128.87 562.084 130.051 563.282C131.232 564.463 131.823 565.927 131.823 567.675C131.823 569.422 131.232 570.895 130.051 572.092ZM125.585 571.801C126.734 571.801 127.664 571.413 128.376 570.636C129.088 569.843 129.444 568.856 129.444 567.675C129.444 566.494 129.088 565.515 128.376 564.738C127.664 563.945 126.734 563.549 125.585 563.549C124.452 563.549 123.522 563.945 122.794 564.738C122.066 565.515 121.702 566.494 121.702 567.675C121.702 568.84 122.066 569.819 122.794 570.612C123.522 571.405 124.452 571.801 125.585 571.801ZM146.275 571.364H146.761V573.5H146.057C145.313 573.5 144.746 573.354 144.358 573.063C143.97 572.772 143.703 572.319 143.557 571.704C142.602 573.144 141.203 573.864 139.358 573.864C137.821 573.864 136.607 573.411 135.717 572.505C134.827 571.599 134.382 570.28 134.382 568.549V561.85H136.737V568.209C136.737 570.539 137.756 571.704 139.795 571.704C140.814 571.704 141.631 571.364 142.246 570.684C142.861 570.005 143.169 569.107 143.169 567.99V561.85H145.499V570.126C145.499 570.595 145.539 570.919 145.62 571.097C145.717 571.275 145.936 571.364 146.275 571.364ZM151.995 563.913C152.901 562.537 154.212 561.85 155.927 561.85V564.01C154.617 564.01 153.63 564.35 152.966 565.029C152.319 565.709 151.995 566.607 151.995 567.723V573.5H149.665V561.85H151.995V563.913ZM169.653 573.864C167.938 573.864 166.554 573.395 165.503 572.456C164.467 571.518 163.796 570.361 163.488 568.985L165.673 568.282C165.883 569.236 166.32 570.045 166.983 570.709C167.647 571.372 168.553 571.704 169.702 571.704C170.786 571.704 171.66 571.445 172.323 570.927C172.986 570.409 173.318 569.673 173.318 568.718C173.318 568.201 173.148 567.748 172.808 567.359C172.469 566.971 172.024 566.655 171.474 566.413C170.94 566.17 170.341 565.943 169.677 565.733C169.014 565.523 168.351 565.296 167.687 565.053C167.04 564.794 166.441 564.503 165.891 564.18C165.357 563.856 164.92 563.419 164.58 562.869C164.241 562.319 164.071 561.68 164.071 560.951C164.071 559.398 164.621 558.168 165.721 557.262C166.838 556.356 168.148 555.903 169.653 555.903C171.012 555.903 172.186 556.243 173.173 556.922C174.176 557.602 174.88 558.549 175.284 559.762L173.124 560.417C172.881 559.706 172.469 559.131 171.886 558.694C171.304 558.257 170.575 558.039 169.702 558.039C168.828 558.039 168.067 558.257 167.42 558.694C166.789 559.131 166.474 559.803 166.474 560.709C166.474 561.194 166.643 561.615 166.983 561.971C167.323 562.311 167.76 562.594 168.294 562.82C168.844 563.031 169.451 563.241 170.114 563.451C170.778 563.646 171.433 563.872 172.08 564.131C172.744 564.39 173.342 564.697 173.876 565.053C174.427 565.393 174.872 565.862 175.211 566.461C175.551 567.06 175.721 567.764 175.721 568.573C175.721 570.175 175.163 571.461 174.046 572.432C172.946 573.387 171.482 573.864 169.653 573.864ZM183.668 573.864C181.872 573.864 180.432 573.265 179.348 572.068C178.263 570.854 177.721 569.341 177.721 567.529C177.721 565.798 178.28 564.358 179.396 563.209C180.513 562.06 181.912 561.485 183.595 561.485C185.472 561.485 186.928 562.1 187.964 563.33C189.016 564.544 189.461 566.162 189.299 568.184H180.124C180.221 569.366 180.585 570.28 181.217 570.927C181.864 571.558 182.681 571.874 183.668 571.874C185.432 571.874 186.678 571.04 187.406 569.374L189.275 570.15C188.806 571.283 188.085 572.189 187.115 572.869C186.144 573.532 184.995 573.864 183.668 573.864ZM180.149 566.461H187.042C186.945 565.442 186.589 564.681 185.974 564.18C185.359 563.662 184.566 563.403 183.595 563.403C182.657 563.403 181.88 563.694 181.265 564.277C180.65 564.843 180.278 565.571 180.149 566.461ZM194.378 563.913C195.284 562.537 196.595 561.85 198.31 561.85V564.01C196.999 564.01 196.012 564.35 195.349 565.029C194.702 565.709 194.378 566.607 194.378 567.723V573.5H192.048V561.85H194.378V563.913ZM209.332 561.85H211.856L206.808 573.5H204.745L199.696 561.85H202.245L205.788 570.83L209.332 561.85ZM218.653 573.864C216.857 573.864 215.417 573.265 214.333 572.068C213.249 570.854 212.707 569.341 212.707 567.529C212.707 565.798 213.265 564.358 214.381 563.209C215.498 562.06 216.898 561.485 218.581 561.485C220.458 561.485 221.914 562.1 222.949 563.33C224.001 564.544 224.446 566.162 224.284 568.184H215.11C215.207 569.366 215.571 570.28 216.202 570.927C216.849 571.558 217.666 571.874 218.653 571.874C220.417 571.874 221.663 571.04 222.391 569.374L224.26 570.15C223.791 571.283 223.071 572.189 222.1 572.869C221.129 573.532 219.98 573.864 218.653 573.864ZM215.134 566.461H222.027C221.93 565.442 221.574 564.681 220.959 564.18C220.344 563.662 219.551 563.403 218.581 563.403C217.642 563.403 216.865 563.694 216.25 564.277C215.636 564.843 215.263 565.571 215.134 566.461ZM229.363 563.913C230.27 562.537 231.58 561.85 233.295 561.85V564.01C231.985 564.01 230.998 564.35 230.334 565.029C229.687 565.709 229.363 566.607 229.363 567.723V573.5H227.033V561.85H229.363V563.913Z"
     fill="white"
     id="path1961" />
  <rect
     x="50.5"
     y="525.5"
     width="239"
     height="79"
     rx="9.5"
     stroke="#F0F0F0"
     id="rect1963" />
  <rect
     x="580.5"
     y="50.5"
     width="319"
     height="149"
     rx="29.5"
     fill="white"
     id="rect1965"
     style="fill:none;fill-opacity:1;stroke:none;stroke-opacity:0.90588236" />
  <rect
     x="580.5"
     y="50.5"
     width="319"
     height="149"
     rx="29.5"
     stroke="#6163F5"
     id="rect1969"
     style="stroke:#b1b4ae;stroke-opacity:1" />
  <rect
     x="64.5"
     y="198.20599"
     width="211"
     height="77"
     rx="4.5"
     fill="#ffffff"
     id="rect1989" />
  <path
     d="m 128.865,213.473 c 1.683,0 3.066,0.493 4.15,1.48 1.101,0.971 1.651,2.266 1.651,3.884 0,1.602 -0.542,2.888 -1.626,3.859 -1.084,0.971 -2.476,1.456 -4.175,1.456 h -3.835 v 6.554 h -2.354 v -17.233 z m -0.17,8.568 c 1.1,0 1.974,-0.283 2.621,-0.85 0.664,-0.566 0.996,-1.359 0.996,-2.378 0,-1.02 -0.34,-1.805 -1.02,-2.355 -0.663,-0.566 -1.553,-0.849 -2.67,-0.849 h -3.592 v 6.432 z m 18.309,6.529 h 0.534 v 2.136 h -0.534 c -0.955,0 -1.667,-0.13 -2.136,-0.389 -0.453,-0.258 -0.745,-0.687 -0.874,-1.286 -0.324,0.599 -0.874,1.092 -1.651,1.481 -0.76,0.372 -1.553,0.558 -2.378,0.558 -1.181,0 -2.152,-0.308 -2.913,-0.922 -0.76,-0.615 -1.141,-1.465 -1.141,-2.549 0,-0.502 0.089,-0.955 0.267,-1.359 0.195,-0.405 0.494,-0.753 0.898,-1.044 0.421,-0.291 0.834,-0.542 1.238,-0.752 0.405,-0.211 0.947,-0.397 1.627,-0.559 0.679,-0.178 1.246,-0.315 1.699,-0.412 0.469,-0.097 1.1,-0.211 1.893,-0.34 -0.016,-0.809 -0.251,-1.424 -0.704,-1.845 -0.453,-0.437 -1.052,-0.655 -1.796,-0.655 -1.651,0 -2.686,0.793 -3.107,2.379 l -2.039,-0.534 c 0.372,-1.295 1.044,-2.25 2.015,-2.864 0.987,-0.615 2.087,-0.923 3.301,-0.923 1.343,0 2.451,0.405 3.325,1.214 0.89,0.809 1.335,1.942 1.335,3.398 v 4.15 c 0,0.453 0.057,0.753 0.17,0.898 0.129,0.146 0.453,0.219 0.971,0.219 z m -3.471,-2.937 v -0.825 c -0.842,0.129 -1.505,0.251 -1.991,0.364 -0.469,0.097 -0.995,0.243 -1.577,0.437 -0.583,0.194 -1.012,0.445 -1.287,0.752 -0.275,0.291 -0.412,0.639 -0.412,1.044 0,0.599 0.186,1.044 0.558,1.335 0.388,0.291 0.906,0.437 1.553,0.437 1.036,0 1.821,-0.324 2.355,-0.971 0.534,-0.647 0.801,-1.505 0.801,-2.573 z m 14.833,-6.578 h 2.549 l -7.233,17.233 h -2.5 l 2.403,-5.558 -5.073,-11.675 h 2.549 l 3.713,9.029 z m 22.019,0 h 2.355 l -3.787,11.651 h -1.942 l -2.694,-8.835 -2.694,8.835 h -1.966 l -3.762,-11.651 h 2.354 l 2.476,8.568 2.597,-8.568 h 1.966 l 2.621,8.568 z m 4.548,-3.398 c 0,-0.453 0.154,-0.825 0.461,-1.116 0.324,-0.308 0.712,-0.461 1.165,-0.461 0.437,0 0.809,0.153 1.117,0.461 0.307,0.291 0.461,0.663 0.461,1.116 0,0.437 -0.154,0.809 -0.461,1.117 -0.308,0.291 -0.68,0.437 -1.117,0.437 -0.453,0 -0.841,-0.146 -1.165,-0.437 -0.307,-0.308 -0.461,-0.68 -0.461,-1.117 z m 2.791,3.398 v 11.651 h -2.33 v -11.651 z m 10.328,1.991 h -3.228 v 6.262 c 0,0.453 0.081,0.776 0.242,0.971 0.178,0.194 0.494,0.291 0.947,0.291 h 1.553 v 2.136 h -1.602 c -1.148,0 -2.014,-0.3 -2.597,-0.898 -0.582,-0.615 -0.873,-1.465 -0.873,-2.549 v -6.213 h -2.525 v -1.991 h 2.525 v -3.446 l 2.33,-0.607 v 4.053 h 3.228 z m 8.328,-2.355 c 1.553,0 2.767,0.453 3.641,1.359 0.89,0.89 1.335,2.209 1.335,3.957 v 6.699 h -2.331 v -6.384 c 0,-2.314 -1.027,-3.471 -3.082,-3.471 -1.019,0 -1.837,0.34 -2.452,1.02 -0.598,0.679 -0.898,1.578 -0.898,2.694 v 6.141 h -2.354 v -17.233 h 2.354 v 7.403 c 0.858,-1.457 2.12,-2.185 3.787,-2.185 z M 86.8693,244.609 h -8.6165 v 5.364 h 7.8883 v 2.136 h -7.8883 v 5.461 h 8.6165 v 2.136 H 75.9227 v -17.233 h 10.9466 z m 1.5856,15.097 4.6359,-5.825 -4.6116,-5.826 h 2.7912 l 3.2767,4.394 3.2282,-4.394 h 2.7917 l -4.5878,5.826 4.6118,5.825 h -2.7914 l -3.2525,-4.393 -3.3009,4.393 z m 20.9491,-9.66 h -3.228 v 6.262 c 0,0.453 0.081,0.776 0.243,0.971 0.178,0.194 0.493,0.291 0.947,0.291 h 1.553 v 2.136 h -1.602 c -1.149,0 -2.015,-0.3 -2.597,-0.898 -0.583,-0.615 -0.874,-1.465 -0.874,-2.549 v -6.213 h -2.524 v -1.991 h 2.524 v -3.446 l 2.33,-0.607 v 4.053 h 3.228 z m 7.284,10.024 c -1.796,0 -3.236,-0.599 -4.32,-1.796 -1.085,-1.214 -1.627,-2.727 -1.627,-4.539 0,-1.731 0.559,-3.172 1.675,-4.32 1.117,-1.149 2.516,-1.724 4.199,-1.724 1.877,0 3.334,0.615 4.369,1.845 1.052,1.213 1.497,2.832 1.335,4.854 h -9.175 c 0.097,1.182 0.461,2.096 1.093,2.743 0.647,0.631 1.464,0.947 2.451,0.947 1.764,0 3.01,-0.834 3.738,-2.5 l 1.869,0.776 c -0.469,1.133 -1.19,2.039 -2.16,2.719 -0.971,0.663 -2.12,0.995 -3.447,0.995 z m -3.519,-7.403 h 6.893 c -0.097,-1.019 -0.453,-1.78 -1.068,-2.282 -0.615,-0.517 -1.408,-0.776 -2.379,-0.776 -0.938,0 -1.715,0.291 -2.33,0.874 -0.615,0.566 -0.987,1.294 -1.116,2.184 z m 14.229,-2.549 c 0.906,-1.375 2.217,-2.063 3.932,-2.063 v 2.161 c -1.311,0 -2.298,0.339 -2.961,1.019 -0.647,0.68 -0.971,1.578 -0.971,2.694 v 5.777 h -2.33 v -11.651 h 2.33 z m 12.575,-2.427 c 1.538,0 2.751,0.453 3.641,1.359 0.89,0.907 1.335,2.225 1.335,3.957 v 6.699 h -2.354 v -6.384 c 0,-2.314 -1.02,-3.471 -3.058,-3.471 -1.02,0 -1.837,0.34 -2.452,1.02 -0.615,0.679 -0.922,1.578 -0.922,2.694 v 6.141 h -2.33 v -11.651 h 2.33 v 1.869 c 0.89,-1.488 2.16,-2.233 3.81,-2.233 z m 18.896,9.879 h 0.534 v 2.136 h -0.534 c -0.955,0 -1.667,-0.13 -2.136,-0.389 -0.453,-0.258 -0.744,-0.687 -0.874,-1.286 -0.323,0.599 -0.874,1.092 -1.65,1.481 -0.761,0.372 -1.554,0.558 -2.379,0.558 -1.181,0 -2.152,-0.308 -2.913,-0.922 -0.76,-0.615 -1.14,-1.465 -1.14,-2.549 0,-0.502 0.089,-0.955 0.267,-1.359 0.194,-0.405 0.493,-0.753 0.898,-1.044 0.42,-0.291 0.833,-0.542 1.238,-0.752 0.404,-0.211 0.946,-0.397 1.626,-0.559 0.679,-0.178 1.246,-0.315 1.699,-0.412 0.469,-0.097 1.1,-0.211 1.893,-0.34 -0.016,-0.809 -0.251,-1.424 -0.704,-1.845 -0.453,-0.437 -1.052,-0.655 -1.796,-0.655 -1.65,0 -2.686,0.793 -3.107,2.379 l -2.039,-0.534 c 0.373,-1.295 1.044,-2.25 2.015,-2.864 0.987,-0.615 2.087,-0.923 3.301,-0.923 1.343,0 2.451,0.405 3.325,1.214 0.89,0.809 1.335,1.942 1.335,3.398 v 4.15 c 0,0.453 0.057,0.753 0.17,0.898 0.129,0.146 0.453,0.219 0.971,0.219 z m -3.471,-2.937 v -0.825 c -0.841,0.129 -1.505,0.251 -1.99,0.364 -0.47,0.097 -0.995,0.243 -1.578,0.437 -0.582,0.194 -1.011,0.445 -1.286,0.752 -0.275,0.291 -0.413,0.639 -0.413,1.044 0,0.599 0.186,1.044 0.558,1.335 0.389,0.291 0.906,0.437 1.554,0.437 1.035,0 1.82,-0.324 2.354,-0.971 0.534,-0.647 0.801,-1.505 0.801,-2.573 z m 9.837,5.073 c -1.003,0 -1.78,-0.291 -2.33,-0.874 -0.55,-0.599 -0.825,-1.424 -0.825,-2.476 v -13.883 h 2.354 v 13.859 c 0,0.437 0.073,0.752 0.219,0.947 0.162,0.194 0.429,0.291 0.801,0.291 h 0.946 v 2.136 z m 15.974,-17.233 c 1.683,0 3.066,0.493 4.15,1.48 1.1,0.971 1.651,2.266 1.651,3.884 0,1.602 -0.542,2.888 -1.627,3.859 -1.084,0.971 -2.475,1.456 -4.174,1.456 h -3.835 v 6.554 h -2.355 v -17.233 z m -0.17,8.568 c 1.1,0 1.974,-0.283 2.621,-0.85 0.664,-0.566 0.995,-1.359 0.995,-2.378 0,-1.02 -0.34,-1.805 -1.019,-2.355 -0.664,-0.566 -1.554,-0.849 -2.67,-0.849 h -3.592 v 6.432 z m 10.519,-0.923 c 0.906,-1.375 2.217,-2.063 3.932,-2.063 v 2.161 c -1.31,0 -2.297,0.339 -2.961,1.019 -0.647,0.68 -0.971,1.578 -0.971,2.694 v 5.777 h -2.33 v -11.651 h 2.33 z m 15.922,8.18 c -1.181,1.181 -2.67,1.772 -4.466,1.772 -1.796,0 -3.293,-0.599 -4.49,-1.796 -1.181,-1.198 -1.772,-2.662 -1.772,-4.393 0,-1.748 0.591,-3.212 1.772,-4.394 1.197,-1.197 2.694,-1.796 4.49,-1.796 1.796,0 3.285,0.599 4.466,1.796 1.182,1.182 1.772,2.646 1.772,4.394 0,1.747 -0.59,3.22 -1.772,4.417 z m -4.466,-0.291 c 1.149,0 2.08,-0.389 2.792,-1.165 0.711,-0.793 1.067,-1.78 1.067,-2.961 0,-1.182 -0.356,-2.161 -1.067,-2.937 -0.712,-0.793 -1.643,-1.19 -2.792,-1.19 -1.132,0 -2.063,0.397 -2.791,1.19 -0.728,0.776 -1.092,1.755 -1.092,2.937 0,1.165 0.364,2.144 1.092,2.936 0.728,0.793 1.659,1.19 2.791,1.19 z m 16.487,-9.952 h 2.524 l -5.049,11.651 h -2.063 l -5.048,-11.651 h 2.548 l 3.544,8.981 z m 4.348,-3.398 c 0,-0.453 0.154,-0.825 0.461,-1.116 0.324,-0.308 0.712,-0.461 1.165,-0.461 0.437,0 0.809,0.153 1.117,0.461 0.307,0.291 0.461,0.663 0.461,1.116 0,0.437 -0.154,0.809 -0.461,1.117 -0.308,0.291 -0.68,0.437 -1.117,0.437 -0.453,0 -0.841,-0.146 -1.165,-0.437 -0.307,-0.308 -0.461,-0.68 -0.461,-1.117 z m 2.791,3.398 v 11.651 h -2.33 v -11.651 z m 8.798,12.015 c -1.651,0 -3.058,-0.575 -4.223,-1.723 -1.149,-1.165 -1.724,-2.654 -1.724,-4.466 0,-1.829 0.575,-3.318 1.724,-4.466 1.165,-1.149 2.572,-1.724 4.223,-1.724 0.825,0 1.594,0.17 2.306,0.51 0.728,0.34 1.286,0.817 1.675,1.432 v -7.16 h 2.33 v 17.233 h -2.33 v -1.578 c -0.389,0.615 -0.947,1.092 -1.675,1.432 -0.712,0.34 -1.481,0.51 -2.306,0.51 z m 0.243,-2.063 c 1.084,0 1.974,-0.389 2.67,-1.165 0.712,-0.777 1.068,-1.764 1.068,-2.961 0,-1.198 -0.356,-2.185 -1.068,-2.962 -0.696,-0.776 -1.586,-1.165 -2.67,-1.165 -1.149,0 -2.071,0.397 -2.767,1.19 -0.696,0.776 -1.044,1.755 -1.044,2.937 0,1.181 0.348,2.168 1.044,2.961 0.696,0.776 1.618,1.165 2.767,1.165 z m 14.674,2.063 c -1.796,0 -3.236,-0.599 -4.32,-1.796 -1.085,-1.214 -1.627,-2.727 -1.627,-4.539 0,-1.731 0.559,-3.172 1.675,-4.32 1.117,-1.149 2.516,-1.724 4.199,-1.724 1.877,0 3.333,0.615 4.369,1.845 1.052,1.213 1.497,2.832 1.335,4.854 h -9.175 c 0.097,1.182 0.461,2.096 1.093,2.743 0.647,0.631 1.464,0.947 2.451,0.947 1.764,0 3.01,-0.834 3.738,-2.5 l 1.869,0.776 c -0.469,1.133 -1.19,2.039 -2.16,2.719 -0.971,0.663 -2.12,0.995 -3.447,0.995 z m -3.519,-7.403 h 6.893 c -0.097,-1.019 -0.453,-1.78 -1.068,-2.282 -0.615,-0.517 -1.408,-0.776 -2.379,-0.776 -0.938,0 -1.715,0.291 -2.33,0.874 -0.615,0.566 -0.987,1.294 -1.116,2.184 z m 14.229,-2.549 c 0.906,-1.375 2.217,-2.063 3.932,-2.063 v 2.161 c -1.311,0 -2.298,0.339 -2.961,1.019 -0.647,0.68 -0.971,1.578 -0.971,2.694 v 5.777 h -2.33 v -11.651 h 2.33 z"
     fill="#636362"
     id="path1991" />
  <rect
     x="64.5"
     y="198.20599"
     width="211"
     height="77"
     rx="4.5"
     stroke="#6163F5"
     id="rect1993"
     style="stroke:#b1b4ae;stroke-opacity:1" />
  <rect
     x="10.5"
     y="50.5"
     width="319"
     height="368.706"
     rx="29.5"
     stroke="#B1B4AE"
     id="rect1995" />
  <rect
     x="50.5"
     y="10.5"
     width="239"
     height="79"
     rx="9.5"
     fill="black"
     id="rect1997" />
  <rect
     x="624.1947"
     y="9.9552317"
     width="239"
     height="79"
     rx="9.5"
     fill="#000000"
     id="rect1997-9"
     style="stroke:#e0e0e0;stroke-opacity:0.8392157" />
  <rect
     x="50.5"
     y="10.5"
     width="239"
     height="79"
     rx="9.5"
     stroke="#F0F0F0"
     id="rect2001" />
  <path
     d="m 576,677.22461 c 0,2.209 1.791,4 4,4 2.209,0 4,-1.791 4,-4 0,-2.209 -1.791,-4 -4,-4 -2.209,0 -4,1.791 -4,4 z m -246,0.75 h 250 v -1.5 H 330 Z"
     fill="#b1b4ae"
     id="path2007" />
  <path
     d="m 575.2945,344.71845 c 0,2.209 1.791,4 4,4 2.209,0 4,-1.791 4,-4 0,-2.209 -1.791,-4 -4,-4 -2.209,0 -4,1.791 -4,4 z m -246,0.75 h 250 v -1.5 h -250 z"
     fill="#b1b4ae"
     id="path2007-3" />
  <path
     d="m 576.22762,151.03452 c 0,2.209 1.791,4 4,4 2.209,0 4,-1.791 4,-4 0,-2.209 -1.791,-4 -4,-4 -2.209,0 -4,1.791 -4,4 z m -246,0.75 h 250 v -1.5 h -250 z"
     fill="#b1b4ae"
     id="path2007-5" />
  <path
     d="m 575.29449,732.49731 c 0,2.209 1.79101,4 4,4 2.209,0 4,-1.791 4,-4 0,-2.209 -1.791,-4 -4,-4 -2.20899,0 -4,1.791 -4,4 z m -246,0.75 h 250 v -1.5 h -250 z"
     fill="#b1b4ae"
     id="path2007-0" />
  <path
     d="m 137.31823,525.06688 c 0,2.209 1.791,4 4,4 2.209,0 4,-1.791 4,-4 0,-2.209 -1.791,-4 -4,-4 -2.209,0 -4,1.791 -4,4 z m 3.25,-106 v 106 h 1.5 v -106 z"
     fill="#b1b4ae"
     id="path2009" />
  <path
     d="m 254.47357,525.95685 c 0,2.209 1.791,4 4,4 2.209,0 4,-1.791 4,-4 0,-2.209 -1.791,-4 -4,-4 -2.209,0 -4,1.791 -4,4 z m 3.25,-106 v 106 h 1.5 v -106 z"
     fill="#b1b4ae"
     id="path2009-8" />
  <path
     d="m 83.748652,419.06688 c 0,2.209 1.791,4 4,4 2.209,0 4,-1.791 4,-4 0,-2.209 -1.791,-4 -4,-4 -2.209,0 -4,1.791 -4,4 z m 3.25,0 v 106 h 1.5 v -106 z"
     fill="#b1b4ae"
     id="path2011" />
  <path
     d="m 200.48652,419.29126 c 0,2.209 1.791,4 4,4 2.209,0 4,-1.791 4,-4 0,-2.209 -1.791,-4 -4,-4 -2.209,0 -4,1.791 -4,4 z m 3.25,0 v 106 h 1.5 v -106 z"
     fill="#b1b4ae"
     id="path2011-7" />
  <path
     d="M326 98C326 100.209 327.791 102 330 102C332.209 102 334 100.209 334 98C334 95.7909 332.209 94 330 94C327.791 94 326 95.7909 326 98ZM330 98.75L580 98.75V97.25L330 97.25V98.75Z"
     fill="#B1B4AE"
     id="path2015" />
  <rect
     x="66.5"
     y="453.5"
     width="39"
     height="39"
     rx="19.5"
     fill="#ffffff"
     id="rect2019" />
  <path
     d="m 86.094,464.267 h 2.331 V 481.5 h -2.331 v -12.816 c -0.825,0.308 -2.055,0.462 -3.689,0.462 v -2.136 c 1.295,0.016 2.233,-0.194 2.816,-0.631 0.582,-0.453 0.873,-1.157 0.873,-2.112 z"
     fill="#636362"
     id="path2021" />
  <rect
     x="66.5"
     y="453.5"
     width="39"
     height="39"
     rx="19.5"
     stroke="#b1b4ae"
     id="rect2023" />
  <rect
     x="121.5"
     y="453.5"
     width="39"
     height="39"
     rx="19.5"
     fill="#ffffff"
     id="rect2025" />
  <path
     d="m 141.634,470.699 c 1.585,0.032 2.864,0.574 3.834,1.626 0.988,1.036 1.481,2.314 1.481,3.835 0,1.602 -0.591,2.953 -1.772,4.054 -1.165,1.1 -2.565,1.65 -4.199,1.65 -1.472,0 -2.775,-0.461 -3.908,-1.383 -1.132,-0.923 -1.812,-2.064 -2.038,-3.423 l 2.378,-0.558 c 0.097,0.89 0.486,1.634 1.165,2.233 0.696,0.599 1.497,0.898 2.403,0.898 1.003,0 1.853,-0.324 2.549,-0.971 0.696,-0.647 1.043,-1.48 1.043,-2.5 0,-1.149 -0.388,-2.055 -1.165,-2.718 -0.76,-0.68 -1.731,-0.979 -2.912,-0.898 -0.437,0.016 -0.939,0.17 -1.505,0.461 l -0.825,-1.675 5.145,-4.927 h -7.548 v -2.136 h 10.801 v 1.82 z"
     fill="#636362"
     id="path2027" />
  <rect
     x="121.5"
     y="453.5"
     width="39"
     height="39"
     rx="19.5"
     stroke="#b1b4ae"
     id="rect2029" />
  <rect
     x="184.89659"
     y="453.47043"
     width="39"
     height="39"
     rx="19.5"
     fill="#ffffff"
     id="rect2025-7" />
  <rect
     x="184.89659"
     y="453.47043"
     width="39"
     height="39"
     rx="19.5"
     stroke="#b1b4ae"
     id="rect2029-3" />
  <rect
     x="439.5"
     y="325.5"
     width="39"
     height="39"
     rx="19.5"
     fill="#ffffff"
     id="rect2031" />
  <path
     d="m 465.168,341.364 c 0,0.534 -0.122,1.092 -0.364,1.675 -0.243,0.566 -0.518,1.076 -0.826,1.529 -0.307,0.453 -0.784,1.011 -1.432,1.675 -0.647,0.647 -1.197,1.173 -1.65,1.577 -0.437,0.389 -1.117,0.979 -2.039,1.772 -0.906,0.777 -1.594,1.368 -2.063,1.772 h 8.325 V 353.5 H 453.25 v -1.578 c 0.906,-0.971 2.015,-2.03 3.326,-3.179 1.326,-1.149 2.386,-2.063 3.179,-2.743 0.793,-0.68 1.489,-1.44 2.088,-2.282 0.614,-0.857 0.922,-1.674 0.922,-2.451 0,-1.068 -0.332,-1.869 -0.995,-2.403 -0.648,-0.55 -1.529,-0.817 -2.646,-0.801 -1.052,0 -1.942,0.348 -2.67,1.044 -0.728,0.696 -1.165,1.594 -1.31,2.694 l -2.306,-0.485 c 0.242,-1.586 0.938,-2.881 2.087,-3.884 1.165,-1.019 2.573,-1.529 4.223,-1.529 1.829,0 3.285,0.461 4.369,1.383 1.101,0.907 1.651,2.266 1.651,4.078 z"
     fill="#636362"
     id="path2033" />
  <rect
     x="439.5"
     y="325.5"
     width="39"
     height="39"
     rx="19.5"
     stroke="#b1b4ae"
     id="rect2035" />
  <rect
     x="435.5"
     y="132.5"
     width="39"
     height="39"
     rx="19.5"
     fill="#ffffff"
     id="rect2037" />
  <path
     d="m 204.27855,469.99698 c 1.666,0 3.066,0.582 4.199,1.747 1.132,1.165 1.699,2.606 1.699,4.321 0,1.666 -0.615,3.074 -1.845,4.223 -1.214,1.133 -2.686,1.699 -4.417,1.699 -1.505,0 -2.824,-0.461 -3.957,-1.383 -1.132,-0.923 -1.836,-2.055 -2.111,-3.398 l 2.354,-0.559 c 0.146,0.874 0.566,1.618 1.262,2.233 0.712,0.615 1.529,0.923 2.452,0.923 1.084,0 1.998,-0.356 2.742,-1.068 0.761,-0.712 1.141,-1.602 1.141,-2.67 0,-1.117 -0.372,-2.039 -1.116,-2.767 -0.745,-0.745 -1.667,-1.117 -2.767,-1.117 -1.392,0 -2.573,0.55 -3.544,1.651 l -2.015,-0.51 2.063,-8.932 h 9.102 v 2.136 h -7.403 l -1.068,4.417 c 1.036,-0.631 2.112,-0.946 3.229,-0.946 z"
     fill="#636362"
     id="path2039" />
  <rect
     x="435.5"
     y="132.5"
     width="39"
     height="39"
     rx="19.5"
     stroke="#b1b4ae"
     id="rect2041" />
  <rect
     x="435.5"
     y="78.5"
     width="39"
     height="39"
     rx="19.5"
     fill="white"
     id="rect2043" />
  <path
     d="m 456.18094,143.25729 -3.52,5.4369 c 0.421,-0.1942 0.882,-0.2913 1.384,-0.2913 1.796,0 3.26,0.5987 4.393,1.7961 1.149,1.1974 1.723,2.6618 1.723,4.3933 0,1.748 -0.598,3.22 -1.796,4.417 -1.181,1.198 -2.67,1.797 -4.466,1.797 -1.796,0 -3.285,-0.599 -4.466,-1.797 -1.181,-1.197 -1.772,-2.669 -1.772,-4.417 0,-0.534 0.057,-1.0437 0.17,-1.5292 0.13,-0.4854 0.397,-1.1084 0.801,-1.8689 0.405,-0.7605 0.753,-1.3835 1.044,-1.8689 0.307,-0.5017 0.898,-1.424 1.772,-2.767 0.874,-1.3431 1.577,-2.4434 2.111,-3.301 z m -2.282,7.233 c -1.149,0 -2.079,0.3964 -2.791,1.1893 -0.712,0.7767 -1.068,1.7476 -1.068,2.9127 0,1.181 0.348,2.16 1.044,2.937 0.712,0.777 1.65,1.165 2.815,1.165 1.133,0 2.063,-0.388 2.791,-1.165 0.729,-0.777 1.093,-1.756 1.093,-2.937 0,-1.1651 -0.364,-2.136 -1.093,-2.9127 -0.728,-0.7929 -1.658,-1.1893 -2.791,-1.1893 z"
     fill="#636362"
     id="path2045" />
  <rect
     x="435.5"
     y="78.5"
     width="39"
     height="39"
     rx="19.5"
     stroke="#B1B4AE"
     id="rect2047" />
  <rect
     x="435.5"
     y="657.638"
     width="39"
     height="39"
     rx="19.5"
     stroke="#b1b4ae"
     id="rect2053"
     style="fill:#ffffff" />
  <rect
     x="434.92825"
     y="712.06415"
     width="39"
     height="39"
     rx="19.5"
     stroke="#b1b4ae"
     id="rect2053-7"
     style="fill:#ffffff" />
  <path
     d="m 459.29,679.983 v 2.136 h -1.918 v 3.519 h -2.33 v -3.519 h -8.689 v -1.748 l 8.981,-11.966 h 2.038 v 11.578 z m -9.952,0 h 5.704 v -7.84 z"
     fill="#636362"
     id="path2051" />
  <rect
     x="238.71574"
     y="453.31985"
     width="39"
     height="39"
     rx="19.5"
     stroke="#b1b4ae"
     id="rect2029-3-4"
     style="fill:#ffffff" />
  <text
     xml:space="preserve"
     id="text2435"
     style="white-space:pre;shape-inside:url(#rect2437);display:inline;fill:#ffffff"><tspan
       x="249.14258"
       y="473.77414"
       id="tspan1062">8</tspan></text>
  <g
     aria-label="8"
     transform="matrix(1.0705315,0,0,1.0974098,-111.58338,-36.887713)"
     id="text2495"
     style="font-size:26.6667px;white-space:pre;shape-inside:url(#rect2497);display:inline;fill:#636362">
    <path
       d="m 348.27296,464.35592 c 1.78641,-0.85437 2.74434,-2.17476 2.74434,-4.19418 0,-2.95146 -2.71845,-4.84143 -5.9547,-4.84143 -3.26214,0 -5.98059,1.83819 -5.98059,4.84143 0,2.01942 0.95793,3.3657 2.71845,4.19418 -2.12298,0.85437 -3.3657,2.48544 -3.3657,4.68609 0,3.39159 2.79612,5.4369 6.62784,5.4369 3.75405,0 6.60195,-2.0712 6.60195,-5.46279 0,-2.22654 -1.24272,-3.85761 -3.39159,-4.6602 z m -3.21036,-7.11975 c 2.14887,0 3.85761,1.08738 3.85761,3.00324 0,2.17476 -1.63107,3.26214 -3.85761,3.26214 -2.0712,0 -3.8835,-1.11327 -3.8835,-3.26214 0,-1.91586 1.73463,-3.00324 3.8835,-3.00324 z m 0,15.30099 c -2.74434,0 -4.53075,-1.44984 -4.53075,-3.57282 0,-2.25243 1.99353,-3.6246 4.53075,-3.6246 2.589,0 4.50486,1.34628 4.50486,3.59871 0,2.12298 -1.8123,3.59871 -4.50486,3.59871 z"
       style="font-family:Forth;-inkscape-font-specification:Forth"
       id="path6987" />
  </g>
  <g
     aria-label="9"
     transform="matrix(1.0705315,0,0,1.0974098,85.04174,221.3788)"
     id="text2495-8"
     style="font-size:26.6667px;white-space:pre;shape-inside:url(#rect2497-4);display:inline;fill:#636362">
    <path
       d="m 352.0508,463.23117 q 0,2.53906 -0.58594,4.60938 -0.57292,2.07032 -1.74479,3.52865 -1.1849,1.48438 -2.96876,2.29167 -1.78385,0.80729 -4.19271,0.80729 -0.67708,0 -1.27604,-0.0781 -0.59896,-0.0651 -1.06771,-0.22136 v -2.48698 h 0.13021 q 0.3776,0.19531 1.06771,0.37761 0.6901,0.16927 1.53646,0.16927 2.8776,0 4.50521,-1.71876 1.64063,-1.73177 1.90104,-4.76563 -1.21093,0.72917 -2.27864,1.04167 -1.06771,0.3125 -2.33074,0.3125 -1.19791,0 -2.17448,-0.23437 -0.96354,-0.23438 -1.9401,-0.91146 -1.14584,-0.79428 -1.73178,-2.01823 -0.57292,-1.22396 -0.57292,-2.9297 0,-2.96875 1.95313,-4.83073 1.95313,-1.86198 4.76563,-1.86198 1.40626,0 2.60417,0.44271 1.19792,0.42968 2.09636,1.30208 1.10677,1.08073 1.70573,2.78646 0.59896,1.69271 0.59896,4.38803 z m -2.63021,-0.5599 q 0,-2.01823 -0.41667,-3.24219 -0.41667,-1.22396 -1.14583,-1.90104 -0.61198,-0.58594 -1.31511,-0.83334 -0.70312,-0.26041 -1.52344,-0.26041 -1.875,0 -2.96875,1.17187 -1.08073,1.17188 -1.08073,3.29428 0,1.23698 0.35156,2.01823 0.35156,0.78125 1.1849,1.36719 0.58594,0.40364 1.28906,0.54687 0.70313,0.13021 1.5625,0.13021 1.01563,0 2.0573,-0.27344 1.04167,-0.27343 1.95313,-0.79427 0.013,-0.27344 0.026,-0.53385 0.026,-0.27344 0.026,-0.69011 z"
       id="path6990" />
  </g>
  <g
     aria-label="7"
     transform="translate(66.251348,-317.25998)"
     id="text3228"
     style="font-size:26.6667px;font-family:Forth;-inkscape-font-specification:Forth;white-space:pre;shape-inside:url(#rect3230);display:inline;fill:#636362">
    <path
       d="m 382.52519,406.33354 v 1.91586 h 9.8382 l -7.71522,16.46604 h 2.38188 l 7.58577,-16.5696 v -1.8123 z"
       id="path6984" />
  </g>
  <g
     aria-label="External Provider"
     id="text3436"
     style="font-size:26.6667px;font-family:Forth;-inkscape-font-specification:Forth;fill:#ffffff">
    <path
       d="m 659.07659,41.514551 v -1.91586 h -11.46927 v 18.3819 h 11.46927 v -1.91586 h -9.42396 v -6.34305 h 8.62137 v -1.94175 h -8.62137 v -6.26538 z"
       id="path7373" />
    <path
       d="m 660.70761,57.980591 h 2.53722 l 3.70227,-4.89321 3.67638,4.89321 h 2.53722 l -4.9191,-6.2136 4.89321,-6.2136 h -2.51133 l -3.67638,4.9191 -3.67638,-4.9191 h -2.53722 l 4.9191,6.2136 z"
       id="path7375" />
    <path
       d="m 682.32571,47.391581 v -1.83819 h -3.52104 v -4.34952 l -2.0712,0.59547 v 3.75405 h -2.71845 v 1.83819 h 2.71845 v 7.11975 c 0,2.14887 1.00971,3.46926 3.49515,3.46926 h 1.57929 v -1.91586 h -1.57929 c -1.16505,0 -1.42395,-0.46602 -1.42395,-1.47573 v -7.19742 z"
       id="path7377" />
    <path
       d="m 690.04088,58.368941 c 2.95146,0 5.07444,-1.63107 6.00648,-3.98706 l -1.70874,-0.75081 c -0.7767,1.83819 -2.12298,2.92557 -4.29774,2.92557 -2.20065,0 -3.90939,-1.47573 -4.11651,-4.34952 h 10.12299 c 0.36246,-4.24596 -2.04531,-7.04208 -6.05826,-7.04208 -3.59871,0 -6.2136,2.77023 -6.2136,6.44661 0,3.72816 2.38188,6.75729 6.26538,6.75729 z m -4.09062,-7.79289 c 0.2589,-1.96764 1.70874,-3.65049 4.03884,-3.65049 2.17476,0 3.85761,1.11327 4.03884,3.65049 z"
       id="path7379" />
    <path
       d="m 701.22531,47.909381 v -2.35599 h -2.0712 v 12.4272 h 2.0712 v -6.23949 c 0,-2.40777 1.47573,-4.24596 4.24596,-4.24596 v -1.94175 c -1.8123,0 -3.31392,0.88026 -4.24596,2.35599 z"
       id="path7381" />
    <path
       d="m 714.61044,45.165041 c -1.94175,0 -3.3657,0.98382 -4.24596,2.51133 v -2.12298 h -2.0712 v 12.4272 h 2.0712 v -6.62784 c 0,-2.45955 1.5534,-4.24596 3.93528,-4.24596 2.20065,0 3.54693,1.21683 3.54693,3.96117 v 6.91263 h 2.0712 v -7.14564 c 0,-3.85761 -2.14887,-5.66991 -5.30745,-5.66991 z"
       id="path7383" />
    <path
       d="m 734.70106,56.064731 c -1.21683,0 -1.26861,-0.2589 -1.26861,-1.26861 v -4.78965 c 0,-3.13269 -2.17476,-4.84143 -4.86732,-4.84143 -2.35599,0 -4.76376,1.19094 -5.51458,4.03884 l 1.8382,0.49191 c 0.46602,-1.88997 1.8123,-2.74434 3.57282,-2.74434 1.73463,0 2.87379,1.00971 2.89968,2.95146 -3.96117,0.67314 -8.3107,1.44984 -8.3107,4.76376 0,2.38188 1.8382,3.70227 4.32364,3.70227 1.73463,0 3.6246,-0.93204 4.34952,-2.25243 0.18123,1.2945 1.00971,1.86408 2.97735,1.86408 h 0.59547 v -1.91586 z m -3.33981,-3.57282 c 0,2.45955 -1.24272,4.1424 -3.70227,4.1424 -1.44984,0 -2.48544,-0.64725 -2.48544,-2.09709 0,-2.04531 3.13269,-2.56311 6.18771,-3.05502 z"
       id="path7385" />
    <path
       d="m 741.22529,57.980591 h 1.32039 v -1.91586 h -1.08738 c -0.85437,0 -1.16505,-0.41424 -1.16505,-1.42395 v -15.04209 h -2.0712 v 15.04209 c 0,2.12298 1.0356,3.33981 3.00324,3.33981 z"
       id="path7387" />
    <path
       d="m 758.36441,39.598691 h -6.49839 v 18.3819 h 2.0712 v -7.11975 h 4.42719 c 3.52104,0 6.11004,-2.14887 6.11004,-5.61813 0,-3.46926 -2.61489,-5.64402 -6.11004,-5.64402 z m -0.15534,9.34629 h -4.27185 v -7.43043 h 4.19418 c 2.48544,0 4.24596,1.32039 4.24596,3.70227 0,2.40777 -1.68285,3.72816 -4.16829,3.72816 z"
       id="path7389" />
    <path
       d="m 768.90159,47.909381 v -2.35599 h -2.0712 v 12.4272 h 2.0712 v -6.23949 c 0,-2.40777 1.47573,-4.24596 4.24596,-4.24596 v -1.94175 c -1.8123,0 -3.31392,0.88026 -4.24596,2.35599 z"
       id="path7391" />
    <path
       d="m 781.1993,58.368941 c 3.83172,0 6.57606,-2.92557 6.57606,-6.60195 0,-3.67638 -2.74434,-6.60195 -6.57606,-6.60195 -3.85761,0 -6.62784,2.92557 -6.62784,6.60195 0,3.67638 2.77023,6.60195 6.62784,6.60195 z m 0,-1.86408 c -2.64078,0 -4.50486,-2.09709 -4.50486,-4.73787 0,-2.64078 1.91586,-4.73787 4.50486,-4.73787 2.69256,0 4.47897,2.09709 4.47897,4.73787 0,2.64078 -1.78641,4.73787 -4.47897,4.73787 z"
       id="path7393" />
    <path
       d="m 798.9598,45.553391 -4.06473,10.07121 -4.06473,-10.07121 h -2.25243 l 5.38512,12.4272 h 1.86408 l 5.38512,-12.4272 z"
       id="path7395" />
    <path
       d="m 803.36104,41.877011 c 0,0.82848 0.69903,1.47573 1.52751,1.47573 0.80259,0 1.50162,-0.64725 1.50162,-1.47573 0,-0.85437 -0.67314,-1.50162 -1.50162,-1.50162 -0.85437,0 -1.52751,0.64725 -1.52751,1.50162 z m 2.56311,3.67638 h -2.0712 v 12.4272 h 2.0712 z"
       id="path7397" />
    <path
       d="m 815.47755,58.368941 c 1.78641,0 3.57282,-0.80259 4.47897,-2.27832 v 1.88997 h 2.0712 v -18.3819 h -2.0712 v 7.87056 c -0.90615,-1.47573 -2.69256,-2.30421 -4.47897,-2.30421 -3.57282,0 -6.34306,2.74434 -6.34306,6.60195 0,3.85761 2.77024,6.60195 6.34306,6.60195 z m 0.18123,-1.86408 c -2.69256,0 -4.4013,-2.12298 -4.4013,-4.73787 0,-2.61489 1.70874,-4.73787 4.4013,-4.73787 2.43366,0 4.29774,1.96764 4.29774,4.73787 0,2.77023 -1.86408,4.73787 -4.29774,4.73787 z"
       id="path7399" />
    <path
       d="m 831.2963,58.368941 c 2.95146,0 5.07444,-1.63107 6.00648,-3.98706 l -1.70874,-0.75081 c -0.7767,1.83819 -2.12298,2.92557 -4.29774,2.92557 -2.20065,0 -3.90939,-1.47573 -4.11651,-4.34952 h 10.12299 c 0.36246,-4.24596 -2.04531,-7.04208 -6.05826,-7.04208 -3.59871,0 -6.2136,2.77023 -6.2136,6.44661 0,3.72816 2.38188,6.75729 6.26538,6.75729 z m -4.09062,-7.79289 c 0.2589,-1.96764 1.70874,-3.65049 4.03884,-3.65049 2.17476,0 3.85761,1.11327 4.03884,3.65049 z"
       id="path7401" />
    <path
       d="m 842.48073,47.909381 v -2.35599 h -2.0712 v 12.4272 h 2.0712 v -6.23949 c 0,-2.40777 1.47573,-4.24596 4.24596,-4.24596 v -1.94175 c -1.8123,0 -3.31392,0.88026 -4.24596,2.35599 z"
       id="path7403" />
  </g>
  <path
     d="M 837.86676,102.62675 H 649.52264 v 38.57278 h 188.34412 z"
     fill="#ececec"
     id="path1809-3"
     style="stroke-width:0.689645" />
  <path
     d="M 781.76426,107.07746 H 655.53363 v 29.67136 h 126.23063 z"
     stroke="#ffffff"
     stroke-miterlimit="10"
     id="path1811-9"
     style="stroke-width:0.689645" />
  <path
     d="m 665.55193,110.04459 h -4.00732 v 23.7371 h 4.00732 z"
     fill="#558a72"
     id="path1813-0"
     style="stroke-width:0.689645" />
  <path
     d="m 675.57024,110.04459 h -4.00733 v 23.7371 h 4.00733 z"
     fill="#558a72"
     id="path1815-5"
     style="stroke-width:0.689645" />
  <path
     d="m 685.58854,110.04459 h -4.00732 v 23.7371 h 4.00732 z"
     fill="#558a72"
     id="path1817-5"
     style="stroke-width:0.689645" />
  <path
     d="m 695.60684,110.04459 h -4.00732 v 23.7371 h 4.00732 z"
     fill="#558a72"
     id="path1819-6"
     style="stroke-width:0.689645" />
  <path
     d="m 705.62514,110.04459 h -4.00732 v 23.7371 h 4.00732 z"
     fill="#558a72"
     id="path1821-3"
     style="stroke-width:0.689645" />
  <path
     d="m 715.64345,110.04459 h -4.00732 v 23.7371 h 4.00732 z"
     fill="#558a72"
     id="path1823-2"
     style="stroke-width:0.689645" />
  <path
     d="m 725.66176,110.04459 h -4.00733 v 23.7371 h 4.00733 z"
     fill="#558a72"
     id="path1825-6"
     style="stroke-width:0.689645" />
  <path
     d="m 735.68007,110.04459 h -4.00733 v 23.7371 h 4.00733 z"
     fill="#558a72"
     id="path1827-8"
     style="stroke-width:0.689645" />
  <path
     d="m 745.69836,110.04459 h -4.00731 v 23.7371 h 4.00731 z"
     fill="#558a72"
     id="path1829-9"
     style="stroke-width:0.689645" />
  <path
     d="m 755.71667,110.04459 h -4.00733 v 23.7371 h 4.00733 z"
     fill="#558a72"
     id="path1831-1"
     style="stroke-width:0.689645" />
  <path
     d="m 765.73498,110.04459 h -4.00733 v 23.7371 h 4.00733 z"
     fill="#95dcab"
     id="path1833-4"
     style="stroke-width:0.689645" />
  <path
     d="m 775.75328,110.04459 h -4.00733 v 23.7371 h 4.00733 z"
     fill="#558a72"
     id="path1835-8"
     style="stroke-width:0.689645" />
  <path
     d="m 831.85579,107.07746 h -6.01098 v 29.67136 h 6.01098 z"
     fill="#558a72"
     id="path1837-8"
     style="stroke-width:0.689645" />
  <path
     d="m 816.62796,111.82488 c 1.77044,0 3.20586,-1.06284 3.20586,-2.37372 0,-1.31088 -1.43542,-2.3737 -3.20586,-2.3737 -1.77043,0 -3.20586,1.06282 -3.20586,2.3737 0,1.31088 1.43543,2.37372 3.20586,2.37372 z"
     fill="#558a72"
     id="path1839-7"
     style="stroke-width:0.689645" />
  <path
     d="m 816.62796,120.13285 c 1.77044,0 3.20586,-1.06282 3.20586,-2.3737 0,-1.31088 -1.43542,-2.37372 -3.20586,-2.37372 -1.77043,0 -3.20586,1.06284 -3.20586,2.37372 0,1.31088 1.43543,2.3737 3.20586,2.3737 z"
     fill="#95dcab"
     id="path1841-1"
     style="stroke-width:0.689645" />
  <path
     d="m 816.62796,136.74882 c 1.77044,0 3.20586,-1.06282 3.20586,-2.37371 0,-1.31088 -1.43542,-2.37371 -3.20586,-2.37371 -1.77043,0 -3.20586,1.06283 -3.20586,2.37371 0,1.31089 1.43543,2.37371 3.20586,2.37371 z"
     fill="#ffffff"
     id="path1843-9"
     style="stroke-width:0.689645" />
  <path
     d="m 816.62796,128.44084 c 1.77044,0 3.20586,-1.06283 3.20586,-2.37371 0,-1.31088 -1.43542,-2.37371 -3.20586,-2.37371 -1.77043,0 -3.20586,1.06283 -3.20586,2.37371 0,1.31088 1.43543,2.37371 3.20586,2.37371 z"
     fill="#558a72"
     id="path1845-3"
     style="stroke-width:0.689645" />
  <path
     d="M 831.85579,141.19953 H 655.53363 v 2.96714 h 176.32216 z"
     fill="#d4d4d4"
     id="path1847-1"
     style="stroke-width:0.689645" />
  <path
     d="M 837.86676,144.16667 H 649.52264 v 38.57277 h 188.34412 z"
     fill="#ececec"
     id="path1849-1"
     style="stroke-width:0.689645" />
  <path
     d="M 831.85579,182.73944 H 655.53363 v 2.96713 h 176.32216 z"
     fill="#d4d4d4"
     id="path1851-4"
     style="stroke-width:0.689645" />
  <path
     d="m 659.54096,150.43325 h -4.00733 v 2.96715 h 4.00733 z"
     fill="#d4d4d4"
     id="path1853-9"
     style="stroke-width:0.689645" />
  <path
     d="m 667.5556,150.43325 h -4.00733 v 2.96715 h 4.00733 z"
     fill="#d4d4d4"
     id="path1855-5"
     style="stroke-width:0.689645" />
  <path
     d="m 675.57024,150.43325 h -4.00733 v 2.96715 h 4.00733 z"
     fill="#d4d4d4"
     id="path1857-9"
     style="stroke-width:0.689645" />
  <path
     d="m 683.58487,150.43325 h -4.00731 v 2.96715 h 4.00731 z"
     fill="#d4d4d4"
     id="path1859-0"
     style="stroke-width:0.689645" />
  <path
     d="m 691.59952,150.43325 h -4.00732 v 2.96715 h 4.00732 z"
     fill="#d4d4d4"
     id="path1861-9"
     style="stroke-width:0.689645" />
  <path
     d="m 699.61417,150.43325 h -4.00733 v 2.96715 h 4.00733 z"
     fill="#d4d4d4"
     id="path1863-3"
     style="stroke-width:0.689645" />
  <path
     d="m 707.62881,150.43325 h -4.00732 v 2.96715 h 4.00732 z"
     fill="#d4d4d4"
     id="path1865-4"
     style="stroke-width:0.689645" />
  <path
     d="m 715.64345,150.43325 h -4.00732 v 2.96715 h 4.00732 z"
     fill="#d4d4d4"
     id="path1867-0"
     style="stroke-width:0.689645" />
  <path
     d="m 723.6581,150.43325 h -4.00732 v 2.96715 h 4.00732 z"
     fill="#d4d4d4"
     id="path1869-7"
     style="stroke-width:0.689645" />
  <path
     d="m 731.67274,150.43325 h -4.00732 v 2.96715 h 4.00732 z"
     fill="#d4d4d4"
     id="path1871-5"
     style="stroke-width:0.689645" />
  <path
     d="m 663.54827,156.36753 h -4.00731 v 2.96714 h 4.00731 z"
     fill="#d4d4d4"
     id="path1873-7"
     style="stroke-width:0.689645" />
  <path
     d="m 671.56291,156.36753 h -4.00731 v 2.96714 h 4.00731 z"
     fill="#d4d4d4"
     id="path1875-5"
     style="stroke-width:0.689645" />
  <path
     d="m 679.57756,156.36753 h -4.00732 v 2.96714 h 4.00732 z"
     fill="#d4d4d4"
     id="path1877-0"
     style="stroke-width:0.689645" />
  <path
     d="m 687.5922,156.36753 h -4.00733 v 2.96714 h 4.00733 z"
     fill="#d4d4d4"
     id="path1879-6"
     style="stroke-width:0.689645" />
  <path
     d="m 695.60684,156.36753 h -4.00732 v 2.96714 h 4.00732 z"
     fill="#d4d4d4"
     id="path1881-4"
     style="stroke-width:0.689645" />
  <path
     d="m 703.62149,156.36753 h -4.00732 v 2.96714 h 4.00732 z"
     fill="#d4d4d4"
     id="path1883-7"
     style="stroke-width:0.689645" />
  <path
     d="m 711.63613,156.36753 h -4.00732 v 2.96714 h 4.00732 z"
     fill="#d4d4d4"
     id="path1885-8"
     style="stroke-width:0.689645" />
  <path
     d="m 719.65078,156.36753 h -4.00733 v 2.96714 h 4.00733 z"
     fill="#d4d4d4"
     id="path1887-4"
     style="stroke-width:0.689645" />
  <path
     d="m 727.66542,156.36753 h -4.00732 v 2.96714 h 4.00732 z"
     fill="#d4d4d4"
     id="path1889-0"
     style="stroke-width:0.689645" />
  <path
     d="m 659.54096,162.3018 h -4.00733 v 2.96714 h 4.00733 z"
     fill="#d4d4d4"
     id="path1891-0"
     style="stroke-width:0.689645" />
  <path
     d="m 667.5556,162.3018 h -4.00733 v 2.96714 h 4.00733 z"
     fill="#d4d4d4"
     id="path1893-6"
     style="stroke-width:0.689645" />
  <path
     d="m 675.57024,162.3018 h -4.00733 v 2.96714 h 4.00733 z"
     fill="#d4d4d4"
     id="path1895-2"
     style="stroke-width:0.689645" />
  <path
     d="m 683.58487,162.3018 h -4.00731 v 2.96714 h 4.00731 z"
     fill="#d4d4d4"
     id="path1897-4"
     style="stroke-width:0.689645" />
  <path
     d="m 691.59952,162.3018 h -4.00732 v 2.96714 h 4.00732 z"
     fill="#d4d4d4"
     id="path1899-7"
     style="stroke-width:0.689645" />
  <path
     d="m 699.61417,162.3018 h -4.00733 v 2.96714 h 4.00733 z"
     fill="#d4d4d4"
     id="path1901-4"
     style="stroke-width:0.689645" />
  <path
     d="m 707.62881,162.3018 h -4.00732 v 2.96714 h 4.00732 z"
     fill="#d4d4d4"
     id="path1903-1"
     style="stroke-width:0.689645" />
  <path
     d="m 715.64345,162.3018 h -4.00732 v 2.96714 h 4.00732 z"
     fill="#d4d4d4"
     id="path1905-8"
     style="stroke-width:0.689645" />
  <path
     d="m 723.6581,162.3018 h -4.00732 v 2.96714 h 4.00732 z"
     fill="#d4d4d4"
     id="path1907-5"
     style="stroke-width:0.689645" />
  <path
     d="m 731.67274,162.3018 h -4.00732 v 2.96714 h 4.00732 z"
     fill="#d4d4d4"
     id="path1909-8"
     style="stroke-width:0.689645" />
  <path
     d="m 663.54827,168.23607 h -4.00731 v 2.96714 h 4.00731 z"
     fill="#d4d4d4"
     id="path1911-9"
     style="stroke-width:0.689645" />
  <path
     d="m 671.56291,168.23607 h -4.00731 v 2.96714 h 4.00731 z"
     fill="#d4d4d4"
     id="path1913-9"
     style="stroke-width:0.689645" />
  <path
     d="m 679.57756,168.23607 h -4.00732 v 2.96714 h 4.00732 z"
     fill="#d4d4d4"
     id="path1915-9"
     style="stroke-width:0.689645" />
  <path
     d="m 687.5922,168.23607 h -4.00733 v 2.96714 h 4.00733 z"
     fill="#d4d4d4"
     id="path1917-3"
     style="stroke-width:0.689645" />
  <path
     d="m 695.60684,168.23607 h -4.00732 v 2.96714 h 4.00732 z"
     fill="#d4d4d4"
     id="path1919-3"
     style="stroke-width:0.689645" />
  <path
     d="m 703.62149,168.23607 h -4.00732 v 2.96714 h 4.00732 z"
     fill="#d4d4d4"
     id="path1921-7"
     style="stroke-width:0.689645" />
  <path
     d="m 711.63613,168.23607 h -4.00732 v 2.96714 h 4.00732 z"
     fill="#d4d4d4"
     id="path1923-7"
     style="stroke-width:0.689645" />
  <path
     d="m 719.65078,168.23607 h -4.00733 v 2.96714 h 4.00733 z"
     fill="#d4d4d4"
     id="path1925-3"
     style="stroke-width:0.689645" />
  <path
     d="m 727.66542,168.23607 h -4.00732 v 2.96714 h 4.00732 z"
     fill="#d4d4d4"
     id="path1927-2"
     style="stroke-width:0.689645" />
  <path
     d="m 659.54096,174.17035 h -4.00733 v 2.96713 h 4.00733 z"
     fill="#d4d4d4"
     id="path1929-5"
     style="stroke-width:0.689645" />
  <path
     d="m 667.5556,174.17035 h -4.00733 v 2.96713 h 4.00733 z"
     fill="#d4d4d4"
     id="path1931-6"
     style="stroke-width:0.689645" />
  <path
     d="m 675.57024,174.17035 h -4.00733 v 2.96713 h 4.00733 z"
     fill="#d4d4d4"
     id="path1933-3"
     style="stroke-width:0.689645" />
  <path
     d="m 683.58487,174.17035 h -4.00731 v 2.96713 h 4.00731 z"
     fill="#d4d4d4"
     id="path1935-4"
     style="stroke-width:0.689645" />
  <path
     d="m 691.59952,174.17035 h -4.00732 v 2.96713 h 4.00732 z"
     fill="#d4d4d4"
     id="path1937-0"
     style="stroke-width:0.689645" />
  <path
     d="m 699.61417,174.17035 h -4.00733 v 2.96713 h 4.00733 z"
     fill="#d4d4d4"
     id="path1939-6"
     style="stroke-width:0.689645" />
  <path
     d="m 707.62881,174.17035 h -4.00732 v 2.96713 h 4.00732 z"
     fill="#d4d4d4"
     id="path1941-0"
     style="stroke-width:0.689645" />
  <path
     d="m 715.64345,174.17035 h -4.00732 v 2.96713 h 4.00732 z"
     fill="#d4d4d4"
     id="path1943-4"
     style="stroke-width:0.689645" />
  <path
     d="m 723.6581,174.17035 h -4.00732 v 2.96713 h 4.00732 z"
     fill="#d4d4d4"
     id="path1945-0"
     style="stroke-width:0.689645" />
  <path
     d="m 731.67274,174.17035 h -4.00732 v 2.96713 h 4.00732 z"
     fill="#d4d4d4"
     id="path1947-5"
     style="stroke-width:0.689645" />
  <path
     d="m 831.85579,148.61737 h -10.01832 v 29.67136 h 10.01832 z"
     stroke="#ffffff"
     stroke-miterlimit="10"
     id="path1949-6"
     style="stroke-width:0.689645" />
  <path
     d="m 826.84663,163.47085 c -1.65902,0 -3.00549,-0.99696 -3.00549,-2.22535 v -8.91921 c 0,-1.22839 1.34647,-2.22535 3.00549,-2.22535 1.65903,0 3.00549,0.99696 3.00549,2.22535 v 8.91921 c 0,1.22839 -1.34646,2.22535 -3.00549,2.22535 z"
     fill="#646363"
     id="path1951-8"
     style="stroke-width:0.689645" />
  <path
     d="m 826.84663,176.54406 c 1.77043,0 3.20586,-1.06283 3.20586,-2.37371 0,-1.31088 -1.43543,-2.37371 -3.20586,-2.37371 -1.77043,0 -3.20586,1.06283 -3.20586,2.37371 0,1.31088 1.43543,2.37371 3.20586,2.37371 z"
     fill="#ffffff"
     id="path1953-5"
     style="stroke-width:0.689645" />
  <path
     d="m 826.84663,153.95822 c 1.10682,0 2.00367,-0.66405 2.00367,-1.48358 0,-0.81952 -0.89685,-1.48356 -2.00367,-1.48356 -1.10682,0 -2.00366,0.66404 -2.00366,1.48356 0,0.81953 0.89684,1.48358 2.00366,1.48358 z"
     fill="#000000"
     id="path1955-3"
     style="stroke-width:0.689645" />
  <g
     id="g545"
     transform="translate(9.9574714,-9.9087006)">
    <text
       xml:space="preserve"
       style="font-style:normal;font-variant:normal;font-weight:bold;font-stretch:normal;font-size:26.6667px;font-family:Forth;-inkscape-font-specification:'Forth Bold';fill:#ffffff;fill-opacity:1;stroke:none;stroke-opacity:0.839216"
       x="99.365234"
       y="71.084358"
       id="text3670"><tspan
         id="tspan3668"
         sodipodi:role="line"
         x="99.365234"
         y="71.084358" /></text>
    <text
       xml:space="preserve"
       id="text3672"
       style="font-style:normal;font-variant:normal;font-weight:500;font-stretch:normal;font-size:26.6667px;font-family:Forth;-inkscape-font-specification:'Forth Medium';white-space:pre;shape-inside:url(#rect3674);display:inline;fill:#ffffff;fill-opacity:1;stroke:none;stroke-opacity:0.839216"
       transform="translate(-1.5286959,4.5860878)"><tspan
         x="66.498047"
         y="63.984973"
         id="tspan1066"><tspan
           style="font-weight:normal;-inkscape-font-specification:Forth"
           id="tspan1064">Your Client App</tspan></tspan></text>
  </g>
  <text
     xml:space="preserve"
     style="font-weight:500;font-size:26.6667px;font-family:Forth;-inkscape-font-specification:'Forth Medium';text-align:center;text-anchor:middle;fill:#ffffff;stroke-opacity:0.839216"
     x="740.93201"
     y="295.12622"
     id="text1252"><tspan
       sodipodi:role="line"
       id="tspan1250"
       x="740.93201"
       y="295.12622"
       style="font-style:normal;font-variant:normal;font-weight:bold;font-stretch:normal;font-family:Forth;-inkscape-font-specification:'Forth Bold'">BR-DGE</tspan></text>
</svg>
