<?xml version="1.0" encoding="utf-8"?>
<!-- Generator: Adobe Illustrator 26.0.3, SVG Export Plug-In . SVG Version: 6.00 Build 0)  -->
<svg version="1.1" id="Layer_1" xmlns="http://www.w3.org/2000/svg" xmlns:xlink="http://www.w3.org/1999/xlink" x="0px" y="0px"
	 viewBox="0 0 891.26 871.23" style="enable-background:new 0 0 891.26 871.23;" xml:space="preserve">
<style type="text/css">
	.st0{fill:none;stroke:#CCCCCC;stroke-width:2;}
	.st1{enable-background:new    ;}
	.st2{fill:#B8B8B8;}
	.st3{fill:#FFFFFF;stroke:#ECECEC;stroke-width:2;}
	.st4{stroke:#999;stroke-width:1.5;}
	.st5{fill:none;stroke:#999;stroke-width:1.5;stroke-miterlimit:10;}
	.st6{fill:#ECECEC;}
	.st7{fill:none;stroke:#FFFFFF;stroke-miterlimit:10;}
	.st8{fill:#95DCAB;}
	.st9{fill:#558A72;}
	.st10{fill:#FFFFFF;}
	.st11{fill:#D4D4D4;}
	.st12{fill:#646363;}
	.st13{fill:#7BDFA7;}
</style>
<g>
	<g>
		<path class="st0" d="M291,361.46H31c-16.57,0-30-13.43-30-30v-260c0-16.57,13.43-30,30-30h260c16.57,0,30,13.43,30,30v260
			C321,348.02,307.56,361.46,291,361.46z"/>
		<g class="st1">
			<path class="st2" d="M31.71,126.39c0-3.88,3.19-7.19,6.95-7.19c2.84,0,5.26,1.61,6.18,4.1l-2.08,0.7
				c-0.66-1.75-2.08-2.78-4.1-2.78c-2.64,0-4.74,2.25-4.74,5.17c0,2.91,2.1,5.17,4.74,5.17c1.98,0,3.26-0.97,4.04-2.54l2.04,0.83
				c-1.09,2.29-3.32,3.73-6.08,3.73C34.9,133.58,31.71,130.28,31.71,126.39z"/>
			<path class="st2" d="M56.82,131.33v1.96h-0.58c-1.32,0-1.88-0.47-2.16-1.34c-0.7,1.01-1.86,1.63-3.32,1.63
				c-2.41,0-3.96-1.46-3.96-4.25v-5.36H49v5.01c0,1.83,0.82,2.6,2.23,2.6c1.5,0,2.43-1.07,2.43-2.76v-4.86h2.19v6.45
				c0,0.6,0.02,0.91,0.56,0.91H56.82z"/>
			<path class="st2" d="M58.55,130.8l2.06-0.5c0.21,0.87,0.8,1.51,1.83,1.51c1.03,0,1.71-0.45,1.71-1.2c0-1.85-5.21-0.72-5.21-3.94
				c0-1.73,1.5-2.99,3.5-2.99c1.61,0,2.74,0.7,3.46,2.02l-1.75,0.8c-0.37-0.64-0.91-1.05-1.73-1.05c-0.85,0-1.34,0.47-1.34,1.01
				c0,1.65,5.23,0.53,5.23,4.02c0,1.84-1.55,3.11-3.88,3.11C60.37,133.58,58.96,132.47,58.55,130.8z"/>
			<path class="st2" d="M71.44,125.79v4.6c0,0.62,0.17,0.91,0.83,0.91h1.3v1.98H72.2c-1.92,0-2.95-1.13-2.95-2.89v-4.6h-1.98v-1.83
				h1.98v-2.7l2.19-0.52v3.22h2.52v1.83H71.44z"/>
			<path class="st2" d="M75.21,128.62c0-2.78,2.14-4.95,5.03-4.95c2.91,0,5.05,2.18,5.05,4.95c0,2.78-2.14,4.95-5.05,4.95
				C77.34,133.58,75.21,131.4,75.21,128.62z M83.07,128.62c0-1.73-1.09-3.05-2.84-3.05c-1.71,0-2.84,1.32-2.84,3.05
				c0,1.73,1.13,3.05,2.84,3.05C81.99,131.67,83.07,130.35,83.07,128.62z"/>
			<path class="st2" d="M101.5,127.63v5.65h-2.19v-5.23c0-1.75-0.62-2.39-1.75-2.39c-1.17,0-2.06,0.82-2.06,2.41v5.21h-2.19v-5.23
				c0-1.75-0.62-2.39-1.77-2.39c-1.2,0-2.06,0.91-2.06,2.54v5.07h-2.2v-9.32h2.2v1.17c0.54-0.87,1.48-1.46,2.54-1.46
				c1.44,0,2.45,0.52,2.95,1.65c0.68-1.2,1.79-1.65,3.05-1.65C100.2,123.67,101.5,125.15,101.5,127.63z"/>
			<path class="st2" d="M103.32,128.53c0-2.82,2.06-4.86,4.74-4.86c2.99,0,4.82,2.18,4.56,5.46h-7.09c0.16,1.71,1.19,2.64,2.6,2.64
				c1.36,0,2.25-0.7,2.74-1.83l1.71,0.7c-0.72,1.73-2.33,2.93-4.45,2.93C105.19,133.58,103.32,131.36,103.32,128.53z M110.55,127.6
				c-0.19-1.5-1.15-2.18-2.49-2.18c-1.36,0-2.29,0.93-2.51,2.18H110.55z"/>
			<path class="st2" d="M119.95,123.96v2c-2.25,0-3.09,1.17-3.09,2.76v4.56h-2.2v-9.32h2.2v1.52
				C117.54,124.55,118.63,123.96,119.95,123.96z"/>
			<path class="st2" d="M137.15,119.5v13.79h-2.04l-6.7-9.95v9.95h-2.19V119.5h2.04l6.7,9.95v-9.95H137.15z"/>
			<path class="st2" d="M148.72,131.33v1.96h-0.39c-1.57,0-2.29-0.31-2.58-1.26c-0.51,0.91-1.85,1.55-3.19,1.55
				c-1.81,0-3.26-0.99-3.26-2.76c0-2.49,3.05-3.09,5.96-3.59c-0.06-1.18-0.78-1.79-1.81-1.79c-1.11,0-1.96,0.58-2.31,1.77l-1.86-0.5
				c0.72-2.31,2.62-3.03,4.35-3.03c2.12,0,3.83,1.3,3.83,3.75v3.07c0,0.6,0.02,0.83,0.87,0.83H148.72z M145.27,128.74
				c-1.88,0.29-3.77,0.64-3.77,1.84c0,0.91,0.66,1.26,1.5,1.26c1.59,0,2.27-1.13,2.27-2.54V128.74z"/>
			<path class="st2" d="M165.02,127.63v5.65h-2.19v-5.23c0-1.75-0.62-2.39-1.75-2.39c-1.17,0-2.06,0.82-2.06,2.41v5.21h-2.19v-5.23
				c0-1.75-0.62-2.39-1.77-2.39c-1.2,0-2.06,0.91-2.06,2.54v5.07h-2.2v-9.32h2.2v1.17c0.54-0.87,1.48-1.46,2.54-1.46
				c1.44,0,2.45,0.52,2.95,1.65c0.68-1.2,1.79-1.65,3.05-1.65C163.72,123.67,165.02,125.15,165.02,127.63z"/>
			<path class="st2" d="M166.84,128.53c0-2.82,2.06-4.86,4.74-4.86c2.99,0,4.82,2.18,4.56,5.46h-7.09c0.16,1.71,1.19,2.64,2.6,2.64
				c1.36,0,2.25-0.7,2.74-1.83l1.71,0.7c-0.72,1.73-2.33,2.93-4.45,2.93C168.7,133.58,166.84,131.36,166.84,128.53z M174.06,127.6
				c-0.19-1.5-1.15-2.18-2.49-2.18c-1.36,0-2.29,0.93-2.51,2.18H174.06z"/>
		</g>
		<g class="st1">
			<path class="st2" d="M31.71,243.74c0-3.88,3.19-7.19,6.95-7.19c2.84,0,5.26,1.61,6.18,4.1l-2.08,0.7
				c-0.66-1.75-2.08-2.78-4.1-2.78c-2.64,0-4.74,2.25-4.74,5.17c0,2.91,2.1,5.17,4.74,5.17c1.98,0,3.26-0.97,4.04-2.54l2.04,0.83
				c-1.09,2.29-3.32,3.73-6.08,3.73C34.9,250.93,31.71,247.62,31.71,243.74z"/>
			<path class="st2" d="M55.78,248.67v1.96h-0.39c-1.57,0-2.29-0.31-2.58-1.26c-0.51,0.91-1.85,1.55-3.19,1.55
				c-1.81,0-3.26-0.99-3.26-2.76c0-2.49,3.05-3.09,5.96-3.59c-0.06-1.18-0.78-1.79-1.81-1.79c-1.11,0-1.96,0.58-2.31,1.77l-1.86-0.5
				c0.72-2.31,2.62-3.03,4.35-3.03c2.12,0,3.83,1.3,3.83,3.75v3.07c0,0.6,0.02,0.83,0.87,0.83H55.78z M52.32,246.09
				c-1.88,0.29-3.77,0.64-3.77,1.84c0,0.91,0.66,1.26,1.5,1.26c1.59,0,2.27-1.13,2.27-2.54V246.09z"/>
			<path class="st2" d="M63.13,241.31v2c-2.25,0-3.09,1.17-3.09,2.76v4.56h-2.2v-9.32h2.2v1.52
				C60.72,241.89,61.81,241.31,63.13,241.31z"/>
			<path class="st2" d="M63.98,245.97c0-3.07,2.27-4.95,4.74-4.95c1.22,0,2.43,0.52,3.01,1.4v-5.57h2.19v13.79h-2.19v-1.09
				c-0.58,0.87-1.79,1.38-3.01,1.38C66.26,250.93,63.98,249.04,63.98,245.97z M71.74,245.97c0-1.77-1.09-3.05-2.76-3.05
				c-1.75,0-2.8,1.32-2.8,3.05c0,1.73,1.05,3.05,2.8,3.05C70.65,249.02,71.74,247.74,71.74,245.97z"/>
			<path class="st2" d="M92.4,243.74c0,4.08-2.85,6.9-6.99,6.9h-4.55v-13.79h4.55C89.52,236.84,92.4,239.72,92.4,243.74z
				 M90.18,243.74c0-2.97-1.86-4.92-4.78-4.92h-2.35v9.83h2.35C88.32,248.65,90.18,246.75,90.18,243.74z"/>
			<path class="st2" d="M93.85,245.88c0-2.82,2.06-4.86,4.74-4.86c2.99,0,4.82,2.18,4.56,5.46h-7.09c0.16,1.71,1.19,2.64,2.6,2.64
				c1.36,0,2.25-0.7,2.74-1.83l1.71,0.7c-0.72,1.73-2.33,2.93-4.45,2.93C95.71,250.93,93.85,248.71,93.85,245.88z M101.07,244.94
				c-0.19-1.5-1.15-2.18-2.49-2.18c-1.36,0-2.29,0.93-2.51,2.18H101.07z"/>
			<path class="st2" d="M108.12,243.14v4.6c0,0.62,0.17,0.91,0.83,0.91h1.3v1.98h-1.38c-1.92,0-2.95-1.13-2.95-2.89v-4.6h-1.98
				v-1.83h1.98v-2.7l2.19-0.52v3.22h2.52v1.83H108.12z"/>
			<path class="st2" d="M121.64,248.67v1.96h-0.39c-1.57,0-2.29-0.31-2.58-1.26c-0.51,0.91-1.85,1.55-3.19,1.55
				c-1.81,0-3.26-0.99-3.26-2.76c0-2.49,3.05-3.09,5.96-3.59c-0.06-1.18-0.78-1.79-1.81-1.79c-1.11,0-1.96,0.58-2.31,1.77l-1.86-0.5
				c0.72-2.31,2.62-3.03,4.35-3.03c2.12,0,3.83,1.3,3.83,3.75v3.07c0,0.6,0.02,0.83,0.87,0.83H121.64z M118.18,246.09
				c-1.88,0.29-3.77,0.64-3.77,1.84c0,0.91,0.66,1.26,1.5,1.26c1.59,0,2.27-1.13,2.27-2.54V246.09z"/>
			<path class="st2" d="M124.96,237.23c0.78,0,1.42,0.6,1.42,1.42c0,0.78-0.64,1.36-1.42,1.36c-0.8,0-1.44-0.58-1.44-1.36
				C123.52,237.81,124.16,237.23,124.96,237.23z M126.04,250.63h-2.18v-9.32h2.18V250.63z"/>
			<path class="st2" d="M128.84,247.78v-10.94h2.2v10.92c0,0.6,0.21,0.91,0.76,0.91h0.7v1.96h-0.87
				C129.89,250.63,128.84,249.55,128.84,247.78z"/>
			<path class="st2" d="M134,248.15l2.06-0.5c0.21,0.87,0.8,1.51,1.83,1.51c1.03,0,1.71-0.45,1.71-1.2c0-1.85-5.21-0.72-5.21-3.94
				c0-1.73,1.5-2.99,3.5-2.99c1.61,0,2.74,0.7,3.46,2.02l-1.75,0.8c-0.37-0.64-0.91-1.05-1.73-1.05c-0.85,0-1.34,0.47-1.34,1.01
				c0,1.65,5.23,0.53,5.23,4.02c0,1.84-1.55,3.11-3.88,3.11C135.83,250.93,134.41,249.82,134,248.15z"/>
		</g>
		<path class="st3" d="M41,148.8h240c5.52,0,10,4.48,10,10v34c0,5.52-4.48,10-10,10H41c-5.52,0-10-4.48-10-10v-34
			C31,153.28,35.47,148.8,41,148.8z"/>
		<path class="st3" d="M41,265.53h240c5.52,0,10,4.48,10,10v34c0,5.52-4.48,10-10,10H41c-5.52,0-10-4.48-10-10v-34
			C31,270.01,35.47,265.53,41,265.53z"/>
		<g class="st1">
			<path d="M46.69,178.67l2.04-0.43c0.16,2.08,1.07,2.74,2.21,2.74c1.19,0,2.1-0.87,2.1-2.47v-9.62h2.19v9.62
				c0,2.64-1.75,4.47-4.29,4.47C48.44,182.98,46.89,181.39,46.69,178.67z"/>
			<path d="M57.04,178.03c0-2.78,2.14-4.95,5.03-4.95c2.91,0,5.05,2.18,5.05,4.95c0,2.78-2.14,4.95-5.05,4.95
				C59.18,182.98,57.04,180.8,57.04,178.03z M64.91,178.03c0-1.73-1.09-3.05-2.84-3.05c-1.71,0-2.84,1.32-2.84,3.05
				c0,1.73,1.13,3.05,2.84,3.05C63.82,181.08,64.91,179.75,64.91,178.03z"/>
			<path d="M78.17,177.33v5.36h-2.19v-5.01c0-1.79-0.82-2.6-2.25-2.6c-1.5,0-2.41,1.07-2.41,2.76v4.86h-2.2V168.9h2.2v5.79
				c0.6-0.97,1.55-1.61,2.87-1.61C76.62,173.07,78.17,174.53,78.17,177.33z"/>
			<path d="M89.84,177.33v5.36h-2.19v-5.01c0-1.79-0.84-2.6-2.25-2.6c-1.5,0-2.43,1.07-2.43,2.76v4.86h-2.2v-9.32h2.2v1.32
				c0.62-0.95,1.57-1.61,2.89-1.61C88.29,173.07,89.84,174.53,89.84,177.33z"/>
			<path d="M96.56,178.94l2.06-0.64c0.25,1.38,1.19,2.68,3.03,2.68c1.55,0,2.66-0.74,2.66-2.14c0-2.86-7.26-1.75-7.26-6.1
				c0-2.56,2.14-4.14,4.54-4.14c2.25,0,3.96,1.22,4.6,3.22l-2.04,0.56c-0.29-0.97-1.15-1.81-2.53-1.81c-1.19,0-2.33,0.56-2.33,1.94
				c0,2.66,7.26,1.4,7.26,6.16c0,2.6-1.98,4.29-4.95,4.29C98.67,182.98,96.98,181.06,96.56,178.94z"/>
			<path d="M122.76,177.04v5.65h-2.19v-5.23c0-1.75-0.62-2.39-1.75-2.39c-1.17,0-2.06,0.82-2.06,2.41v5.21h-2.19v-5.23
				c0-1.75-0.62-2.39-1.77-2.39c-1.2,0-2.06,0.91-2.06,2.54v5.07h-2.2v-9.32h2.2v1.17c0.54-0.87,1.48-1.46,2.54-1.46
				c1.44,0,2.45,0.52,2.95,1.65c0.68-1.2,1.79-1.65,3.05-1.65C121.46,173.07,122.76,174.55,122.76,177.04z"/>
			<path d="M126.6,169.28c0.78,0,1.42,0.6,1.42,1.42c0,0.78-0.64,1.36-1.42,1.36c-0.8,0-1.44-0.58-1.44-1.36
				C125.16,169.87,125.8,169.28,126.6,169.28z M127.68,182.69h-2.18v-9.32h2.18V182.69z"/>
			<path d="M133.55,175.19v4.6c0,0.62,0.17,0.91,0.83,0.91h1.3v1.98h-1.38c-1.92,0-2.95-1.13-2.95-2.89v-4.6h-1.98v-1.83h1.98v-2.7
				l2.19-0.52v3.22h2.52v1.83H133.55z"/>
			<path d="M146.81,177.33v5.36h-2.19v-5.01c0-1.79-0.82-2.6-2.25-2.6c-1.5,0-2.41,1.07-2.41,2.76v4.86h-2.2V168.9h2.2v5.79
				c0.6-0.97,1.55-1.61,2.87-1.61C145.26,173.07,146.81,174.53,146.81,177.33z"/>
		</g>
		<g class="st1">
			<path d="M49.9,293.13l-0.99,1.69l-1.28-0.99l1.26-1.61l-1.86-0.58l0.49-1.44l1.73,0.8l-0.12-1.86h1.63l-0.14,1.84l1.67-0.78
				l0.54,1.46l-1.9,0.56l1.24,1.65l-1.34,0.95L49.9,293.13z"/>
			<path d="M57.78,293.13l-0.99,1.69l-1.28-0.99l1.26-1.61l-1.86-0.58l0.49-1.44l1.73,0.8l-0.12-1.86h1.63l-0.14,1.84l1.67-0.78
				l0.54,1.46l-1.9,0.56l1.24,1.65l-1.34,0.95L57.78,293.13z"/>
			<path d="M65.67,293.13l-0.99,1.69l-1.28-0.99l1.26-1.61l-1.86-0.58l0.49-1.44l1.73,0.8l-0.12-1.86h1.63l-0.14,1.84l1.67-0.78
				l0.54,1.46l-1.9,0.56l1.24,1.65l-1.34,0.95L65.67,293.13z"/>
			<path d="M73.55,293.13l-0.99,1.69l-1.28-0.99l1.26-1.61l-1.86-0.58l0.49-1.44l1.73,0.8l-0.12-1.86h1.63l-0.14,1.84l1.67-0.78
				l0.54,1.46l-1.9,0.56l1.24,1.65l-1.34,0.95L73.55,293.13z"/>
			<path d="M86.15,293.13l-0.99,1.69l-1.28-0.99l1.26-1.61l-1.86-0.58l0.49-1.44l1.73,0.8l-0.12-1.86h1.63l-0.14,1.84l1.67-0.78
				l0.54,1.46l-1.9,0.56l1.24,1.65l-1.34,0.95L86.15,293.13z"/>
			<path d="M94.03,293.13l-0.99,1.69l-1.28-0.99l1.26-1.61l-1.86-0.58l0.49-1.44l1.73,0.8l-0.12-1.86h1.63l-0.14,1.84l1.67-0.78
				l0.54,1.46l-1.9,0.56l1.24,1.65l-1.34,0.95L94.03,293.13z"/>
			<path d="M101.92,293.13l-0.99,1.69l-1.28-0.99l1.26-1.61l-1.86-0.58l0.49-1.44l1.73,0.8l-0.12-1.86h1.63l-0.14,1.84l1.67-0.78
				l0.54,1.46l-1.9,0.56l1.24,1.65l-1.34,0.95L101.92,293.13z"/>
			<path d="M109.8,293.13l-0.99,1.69l-1.28-0.99l1.26-1.61l-1.86-0.58l0.49-1.44l1.73,0.8l-0.12-1.86h1.63l-0.14,1.84l1.67-0.78
				l0.54,1.46l-1.9,0.56l1.24,1.65l-1.34,0.95L109.8,293.13z"/>
			<path d="M122.4,293.13l-0.99,1.69l-1.28-0.99l1.26-1.61l-1.86-0.58l0.49-1.44l1.73,0.8l-0.12-1.86h1.63l-0.14,1.84l1.67-0.78
				l0.54,1.46l-1.9,0.56l1.24,1.65l-1.34,0.95L122.4,293.13z"/>
			<path d="M130.29,293.13l-0.99,1.69l-1.28-0.99l1.26-1.61l-1.86-0.58l0.49-1.44l1.73,0.8l-0.12-1.86h1.63l-0.14,1.84l1.67-0.78
				l0.54,1.46l-1.9,0.56l1.24,1.65l-1.34,0.95L130.29,293.13z"/>
			<path d="M138.17,293.13l-0.99,1.69l-1.28-0.99l1.26-1.61l-1.86-0.58l0.49-1.44l1.73,0.8l-0.12-1.86h1.63l-0.14,1.84l1.67-0.78
				l0.54,1.46l-1.9,0.56l1.24,1.65l-1.34,0.95L138.17,293.13z"/>
			<path d="M146.05,293.13l-0.99,1.69l-1.28-0.99l1.26-1.61l-1.86-0.58l0.49-1.44l1.73,0.8l-0.12-1.86h1.63l-0.14,1.84l1.67-0.78
				l0.54,1.46l-1.9,0.56l1.24,1.65l-1.34,0.95L146.05,293.13z"/>
			<path d="M165.92,298.43c0,2.68-2.27,4.78-5.07,4.78c-2.49,0-4.51-1.69-4.95-3.81l2.18-0.52c0.23,1.26,1.34,2.31,2.78,2.31
				c1.57,0,2.86-1.19,2.86-2.76c0-1.69-1.2-2.89-2.86-2.89c-1.07,0-1.94,0.43-2.7,1.32l-1.86-0.49l1.63-7.25h7.5v1.98h-5.92
				l-0.76,3.13c0.78-0.45,1.65-0.72,2.51-0.72C163.88,293.52,165.92,295.63,165.92,298.43z"/>
			<path d="M178.4,299.05c0,2.45-2.18,4.16-5.11,4.16c-2.95,0-5.09-1.69-5.09-4.14c0-1.57,0.8-2.84,2.33-3.5
				c-1.24-0.66-1.86-1.61-1.86-3.03c0-2.23,2.1-3.71,4.62-3.71s4.64,1.52,4.64,3.71c0,1.42-0.62,2.37-1.88,3.03
				C177.59,296.22,178.4,297.46,178.4,299.05z M176.19,298.92c0-1.5-1.17-2.35-2.89-2.35c-1.67,0-2.88,0.89-2.88,2.37
				c0,1.36,1.13,2.29,2.88,2.29C175.01,301.23,176.19,300.26,176.19,298.92z M170.89,292.68c0,1.28,1.07,2.04,2.41,2.04
				c1.46,0,2.43-0.72,2.43-2.04c0-1.15-1.05-1.87-2.43-1.87C171.92,290.82,170.89,291.54,170.89,292.68z"/>
			<path d="M189.8,298.61c0,2.58-2.18,4.6-4.84,4.6c-2.39,0-4.47-1.67-4.84-3.87l2.21-0.5c0.14,1.32,1.28,2.31,2.62,2.31
				c1.44,0,2.62-1.03,2.62-2.54c0-1.73-1.18-2.84-2.91-2.74c-0.43,0-0.93,0.19-1.38,0.45l-0.8-1.5l3.96-3.71h-5.79v-1.98h8.84v1.63
				l-3.75,3.44C188.29,294.35,189.8,296.29,189.8,298.61z"/>
			<path d="M202.21,299.05c0,2.45-2.18,4.16-5.11,4.16c-2.95,0-5.09-1.69-5.09-4.14c0-1.57,0.8-2.84,2.33-3.5
				c-1.24-0.66-1.86-1.61-1.86-3.03c0-2.23,2.1-3.71,4.62-3.71s4.64,1.52,4.64,3.71c0,1.42-0.62,2.37-1.88,3.03
				C201.39,296.22,202.21,297.46,202.21,299.05z M200,298.92c0-1.5-1.17-2.35-2.89-2.35c-1.67,0-2.88,0.89-2.88,2.37
				c0,1.36,1.13,2.29,2.88,2.29C198.81,301.23,200,300.26,200,298.92z M194.69,292.68c0,1.28,1.07,2.04,2.41,2.04
				c1.46,0,2.43-0.72,2.43-2.04c0-1.15-1.05-1.87-2.43-1.87C195.72,290.82,194.69,291.54,194.69,292.68z"/>
		</g>
	</g>
	<g>
		<g>
			<path id="Path_3462_00000000925985984823150070000003295242174095323551_" class="st4" d="M161,361.46v137.87"/>
		</g>
		<circle id="Ellipse_257_00000101819849528911900590000006200552854321656994_" cx="161" cy="499.32" r="5" fill="#999" />
	</g>
	<path class="st0" d="M291,870.23H31c-16.57,0-30-13.43-30-30v-260c0-16.57,13.43-30,30-30h260c16.57,0,30,13.43,30,30v260
		C321,856.8,307.56,870.23,291,870.23z"/>
	<path id="Path_3462_00000056402898410309545900000002858858063711017915_" class="st5" d="M320.63,660.23h250"/>
	<path class="st0" d="M860.26,747.71h-260c-16.57,0-30-13.43-30-30V194.05c0-16.57,13.43-30,30-30h260c16.57,0,30,13.43,30,30
		v523.67C890.26,734.28,876.83,747.71,860.26,747.71z"/>
	<path id="Path_3462_00000129172709337984025850000011982815660015201166_" class="st5" d="M320.63,251.46h250"/>
	<g>
		<g>
			<g>
				<rect x="612.76" y="544.82" class="st6" width="235" height="65"/>
				<rect x="620.26" y="552.32" class="st7" width="157.5" height="50"/>
				<rect x="627.76" y="557.32" class="st8" width="5" height="40"/>
				<rect x="640.26" y="557.32" class="st9" width="5" height="40"/>
				<rect x="652.76" y="557.32" class="st9" width="5" height="40"/>
				<rect x="665.26" y="557.32" class="st9" width="5" height="40"/>
				<rect x="677.76" y="557.32" class="st9" width="5" height="40"/>
				<rect x="690.26" y="557.32" class="st9" width="5" height="40"/>
				<rect x="702.76" y="557.32" class="st9" width="5" height="40"/>
				<rect x="715.26" y="557.32" class="st9" width="5" height="40"/>
				<rect x="727.76" y="557.32" class="st9" width="5" height="40"/>
				<rect x="740.26" y="557.32" class="st9" width="5" height="40"/>
				<rect x="752.76" y="557.32" class="st9" width="5" height="40"/>
				<rect x="765.26" y="557.32" class="st9" width="5" height="40"/>
				<rect x="832.76" y="552.32" class="st9" width="7.5" height="50"/>
				<circle class="st10" cx="821.26" cy="556.32" r="4"/>
				<circle class="st9" cx="821.26" cy="570.32" r="4"/>
				<circle class="st9" cx="821.26" cy="598.32" r="4"/>
				<circle class="st8" cx="821.26" cy="584.32" r="4"/>
				<rect x="620.26" y="609.82" class="st11" width="220" height="5"/>
			</g>
			<g>
				<rect x="612.76" y="474.82" class="st6" width="235" height="65"/>
				<rect x="620.26" y="482.32" class="st7" width="157.5" height="50"/>
				<rect x="627.76" y="487.32" class="st9" width="5" height="40"/>
				<rect x="640.26" y="487.32" class="st9" width="5" height="40"/>
				<rect x="652.76" y="487.32" class="st9" width="5" height="40"/>
				<rect x="665.26" y="487.32" class="st9" width="5" height="40"/>
				<rect x="677.76" y="487.32" class="st9" width="5" height="40"/>
				<rect x="690.26" y="487.32" class="st9" width="5" height="40"/>
				<rect x="702.76" y="487.32" class="st9" width="5" height="40"/>
				<rect x="715.26" y="487.32" class="st9" width="5" height="40"/>
				<rect x="727.76" y="487.32" class="st9" width="5" height="40"/>
				<rect x="740.26" y="487.32" class="st9" width="5" height="40"/>
				<rect x="752.76" y="487.32" class="st8" width="5" height="40"/>
				<rect x="765.26" y="487.32" class="st9" width="5" height="40"/>
				<rect x="832.76" y="482.32" class="st9" width="7.5" height="50"/>
				<circle class="st8" cx="821.26" cy="486.32" r="4"/>
				<circle class="st9" cx="821.26" cy="500.32" r="4"/>
				<circle class="st10" cx="821.26" cy="528.32" r="4"/>
				<circle class="st9" cx="821.26" cy="514.32" r="4"/>
				<rect x="620.26" y="539.82" class="st11" width="220" height="5"/>
			</g>
			<g>
				<rect x="612.76" y="404.82" class="st6" width="235" height="65"/>
				<rect x="620.26" y="412.32" class="st7" width="157.5" height="50"/>
				<rect x="627.76" y="417.32" class="st9" width="5" height="40"/>
				<rect x="640.26" y="417.32" class="st9" width="5" height="40"/>
				<rect x="652.76" y="417.32" class="st9" width="5" height="40"/>
				<rect x="665.26" y="417.32" class="st9" width="5" height="40"/>
				<rect x="677.76" y="417.32" class="st8" width="5" height="40"/>
				<rect x="690.26" y="417.32" class="st9" width="5" height="40"/>
				<rect x="702.76" y="417.32" class="st9" width="5" height="40"/>
				<rect x="715.26" y="417.32" class="st9" width="5" height="40"/>
				<rect x="727.76" y="417.32" class="st9" width="5" height="40"/>
				<rect x="740.26" y="417.32" class="st9" width="5" height="40"/>
				<rect x="752.76" y="417.32" class="st9" width="5" height="40"/>
				<rect x="765.26" y="417.32" class="st9" width="5" height="40"/>
				<rect x="832.76" y="412.32" class="st9" width="7.5" height="50"/>
				<circle class="st9" cx="821.26" cy="416.32" r="4"/>
				<circle class="st8" cx="821.26" cy="430.32" r="4"/>
				<circle class="st9" cx="821.26" cy="458.32" r="4"/>
				<circle class="st10" cx="821.26" cy="444.32" r="4"/>
				<rect x="620.26" y="469.82" class="st11" width="220" height="5"/>
			</g>
			<g>
				<rect x="612.76" y="334.82" class="st6" width="235" height="65"/>
				<rect x="620.26" y="342.32" class="st7" width="157.5" height="50"/>
				<rect x="627.76" y="347.32" class="st9" width="5" height="40"/>
				<rect x="640.26" y="347.32" class="st9" width="5" height="40"/>
				<rect x="652.76" y="347.32" class="st9" width="5" height="40"/>
				<rect x="665.26" y="347.32" class="st9" width="5" height="40"/>
				<rect x="677.76" y="347.32" class="st9" width="5" height="40"/>
				<rect x="690.26" y="347.32" class="st9" width="5" height="40"/>
				<rect x="702.76" y="347.32" class="st9" width="5" height="40"/>
				<rect x="715.26" y="347.32" class="st9" width="5" height="40"/>
				<rect x="727.76" y="347.32" class="st9" width="5" height="40"/>
				<rect x="740.26" y="347.32" class="st9" width="5" height="40"/>
				<rect x="752.76" y="347.32" class="st9" width="5" height="40"/>
				<rect x="765.26" y="347.32" class="st8" width="5" height="40"/>
				<rect x="832.76" y="342.32" class="st9" width="7.5" height="50"/>
				<circle class="st8" cx="821.26" cy="346.32" r="4"/>
				<circle class="st9" cx="821.26" cy="360.32" r="4"/>
				<circle class="st10" cx="821.26" cy="388.32" r="4"/>
				<circle class="st9" cx="821.26" cy="374.32" r="4"/>
				<rect x="620.26" y="399.82" class="st11" width="220" height="5"/>
			</g>
			<g>
				<rect x="612.76" y="264.82" class="st6" width="235" height="65"/>
				<rect x="620.26" y="272.32" class="st7" width="157.5" height="50"/>
				<rect x="627.76" y="277.32" class="st9" width="5" height="40"/>
				<rect x="640.26" y="277.32" class="st8" width="5" height="40"/>
				<rect x="652.76" y="277.32" class="st9" width="5" height="40"/>
				<rect x="665.26" y="277.32" class="st9" width="5" height="40"/>
				<rect x="677.76" y="277.32" class="st9" width="5" height="40"/>
				<rect x="690.26" y="277.32" class="st9" width="5" height="40"/>
				<rect x="702.76" y="277.32" class="st9" width="5" height="40"/>
				<rect x="715.26" y="277.32" class="st9" width="5" height="40"/>
				<rect x="727.76" y="277.32" class="st9" width="5" height="40"/>
				<rect x="740.26" y="277.32" class="st9" width="5" height="40"/>
				<rect x="752.76" y="277.32" class="st9" width="5" height="40"/>
				<rect x="765.26" y="277.32" class="st9" width="5" height="40"/>
				<rect x="832.76" y="272.32" class="st9" width="7.5" height="50"/>
				<circle class="st9" cx="821.26" cy="276.32" r="4"/>
				<circle class="st10" cx="821.26" cy="290.32" r="4"/>
				<circle class="st8" cx="821.26" cy="318.32" r="4"/>
				<circle class="st9" cx="821.26" cy="304.32" r="4"/>
				<rect x="620.26" y="329.82" class="st11" width="220" height="5"/>
			</g>
		</g>
		<g>
			<g>
				<rect x="612.76" y="614.82" class="st6" width="235" height="65"/>
				<rect x="620.26" y="679.82" class="st11" width="220" height="5"/>
			</g>
			<g>
				<rect x="620.26" y="625.38" class="st11" width="5" height="5"/>
				<rect x="630.26" y="625.38" class="st11" width="5" height="5"/>
				<rect x="640.26" y="625.38" class="st11" width="5" height="5"/>
				<rect x="650.26" y="625.38" class="st11" width="5" height="5"/>
				<rect x="660.26" y="625.38" class="st11" width="5" height="5"/>
				<rect x="670.26" y="625.38" class="st11" width="5" height="5"/>
				<rect x="680.26" y="625.38" class="st11" width="5" height="5"/>
				<rect x="690.26" y="625.38" class="st11" width="5" height="5"/>
				<rect x="700.26" y="625.38" class="st11" width="5" height="5"/>
				<rect x="710.26" y="625.38" class="st11" width="5" height="5"/>
				<rect x="625.26" y="635.38" class="st11" width="5" height="5"/>
				<rect x="635.26" y="635.38" class="st11" width="5" height="5"/>
				<rect x="645.26" y="635.38" class="st11" width="5" height="5"/>
				<rect x="655.26" y="635.38" class="st11" width="5" height="5"/>
				<rect x="665.26" y="635.38" class="st11" width="5" height="5"/>
				<rect x="675.26" y="635.38" class="st11" width="5" height="5"/>
				<rect x="685.26" y="635.38" class="st11" width="5" height="5"/>
				<rect x="695.26" y="635.38" class="st11" width="5" height="5"/>
				<rect x="705.26" y="635.38" class="st11" width="5" height="5"/>
				<rect x="620.26" y="645.38" class="st11" width="5" height="5"/>
				<rect x="630.26" y="645.38" class="st11" width="5" height="5"/>
				<rect x="640.26" y="645.38" class="st11" width="5" height="5"/>
				<rect x="650.26" y="645.38" class="st11" width="5" height="5"/>
				<rect x="660.26" y="645.38" class="st11" width="5" height="5"/>
				<rect x="670.26" y="645.38" class="st11" width="5" height="5"/>
				<rect x="680.26" y="645.38" class="st11" width="5" height="5"/>
				<rect x="690.26" y="645.38" class="st11" width="5" height="5"/>
				<rect x="700.26" y="645.38" class="st11" width="5" height="5"/>
				<rect x="710.26" y="645.38" class="st11" width="5" height="5"/>
				<rect x="625.26" y="655.38" class="st11" width="5" height="5"/>
				<rect x="635.26" y="655.38" class="st11" width="5" height="5"/>
				<rect x="645.26" y="655.38" class="st11" width="5" height="5"/>
				<rect x="655.26" y="655.38" class="st11" width="5" height="5"/>
				<rect x="665.26" y="655.38" class="st11" width="5" height="5"/>
				<rect x="675.26" y="655.38" class="st11" width="5" height="5"/>
				<rect x="685.26" y="655.38" class="st11" width="5" height="5"/>
				<rect x="695.26" y="655.38" class="st11" width="5" height="5"/>
				<rect x="705.26" y="655.38" class="st11" width="5" height="5"/>
				<rect x="620.26" y="665.38" class="st11" width="5" height="5"/>
				<rect x="630.26" y="665.38" class="st11" width="5" height="5"/>
				<rect x="640.26" y="665.38" class="st11" width="5" height="5"/>
				<rect x="650.26" y="665.38" class="st11" width="5" height="5"/>
				<rect x="660.26" y="665.38" class="st11" width="5" height="5"/>
				<rect x="670.26" y="665.38" class="st11" width="5" height="5"/>
				<rect x="680.26" y="665.38" class="st11" width="5" height="5"/>
				<rect x="690.26" y="665.38" class="st11" width="5" height="5"/>
				<rect x="700.26" y="665.38" class="st11" width="5" height="5"/>
				<rect x="710.26" y="665.38" class="st11" width="5" height="5"/>
			</g>
			<rect x="827.76" y="622.32" class="st7" width="12.5" height="50"/>
			<path class="st12" d="M834.01,647.35L834.01,647.35c-2.07,0-3.75-1.68-3.75-3.75v-15.03c0-2.07,1.68-3.75,3.75-3.75l0,0
				c2.07,0,3.75,1.68,3.75,3.75v15.03C837.76,645.67,836.09,647.35,834.01,647.35z"/>
			<circle class="st10" cx="834.01" cy="665.38" r="4"/>
			<circle cx="834.01" cy="628.82" r="2.5"/>
		</g>
	</g>
	<path class="st4" d="M261,594.52H61c-5.52,0-10-4.48-10-10v-60c0-5.52,4.48-10,10-10h200c5.52,0,10,4.48,10,10v60
		C271,590.05,266.52,594.52,261,594.52z"/>
	<g>
		<g class="st1">
			<path class="st10" d="M108.03,544.91l-6.33,11.21v6.71h-2.42v-6.71l-6.41-11.21h2.8l4.85,8.81l4.74-8.81H108.03z"/>
			<path class="st10" d="M106.42,556.77c0-3.61,2.75-6.44,6.51-6.44c3.76,0,6.49,2.83,6.49,6.44c0,3.58-2.73,6.44-6.49,6.44
				C109.17,563.21,106.42,560.35,106.42,556.77z M116.94,556.77c0-2.42-1.56-4.29-4.01-4.29c-2.37,0-4.04,1.87-4.04,4.29
				c0,2.4,1.64,4.29,4.04,4.29C115.38,561.06,116.94,559.17,116.94,556.77z"/>
			<path class="st10" d="M134.94,560.61v2.22h-0.73c-1.62,0-2.3-0.66-2.6-1.87c-0.93,1.41-2.47,2.25-4.37,2.25
				c-3.1,0-5.17-1.84-5.17-5.53v-6.97h2.45v6.61c0,2.57,1.19,3.63,3.18,3.63c2.15,0,3.51-1.57,3.51-3.86v-6.38h2.42v8.61
				c0,0.88,0.05,1.29,0.81,1.29H134.94z"/>
			<path class="st10" d="M144.48,550.71v2.25c-2.83,0-4.09,1.64-4.09,3.86v6.01h-2.42v-12.11h2.42v2.15
				C141.28,551.52,142.72,550.71,144.48,550.71z"/>
			<path class="st10" d="M152.34,558.13l2.27-0.73c0.38,1.72,1.59,3.56,4.19,3.56c2.2,0,3.76-1.09,3.76-3.1
				c0-4.04-9.62-2.45-9.62-8.08c0-3.41,2.88-5.25,5.8-5.25c2.85,0,5.02,1.51,5.86,4.01l-2.25,0.68c-0.48-1.39-1.67-2.47-3.56-2.47
				c-1.62,0-3.36,0.76-3.36,2.78c0,3.76,9.62,1.99,9.62,8.18c0,3.33-2.5,5.5-6.31,5.5C154.94,563.21,152.92,560.71,152.34,558.13z"
				/>
			<path class="st10" d="M167.13,556.62c0-3.61,2.62-6.28,6.11-6.28c3.91,0,6.26,2.78,5.93,6.97h-9.54c0.2,2.52,1.69,3.84,3.68,3.84
				c1.94,0,3.18-0.98,3.89-2.6l1.94,0.81c-0.93,2.27-3,3.86-5.83,3.86C169.5,563.21,167.13,560.28,167.13,556.62z M176.82,555.51
				c-0.2-2.2-1.64-3.18-3.58-3.18c-2.02,0-3.33,1.41-3.58,3.18H176.82z"/>
			<path class="st10" d="M188.53,550.71v2.25c-2.83,0-4.09,1.64-4.09,3.86v6.01h-2.42v-12.11h2.42v2.15
				C185.33,551.52,186.77,550.71,188.53,550.71z"/>
			<path class="st10" d="M202.62,550.71l-5.25,12.11h-2.15l-5.25-12.11h2.65l3.69,9.34l3.68-9.34H202.62z"/>
			<path class="st10" d="M203.5,556.62c0-3.61,2.62-6.28,6.11-6.28c3.91,0,6.26,2.78,5.93,6.97H206c0.2,2.52,1.69,3.84,3.68,3.84
				c1.94,0,3.18-0.98,3.89-2.6l1.94,0.81c-0.93,2.27-3,3.86-5.83,3.86C205.88,563.21,203.5,560.28,203.5,556.62z M213.19,555.51
				c-0.2-2.2-1.64-3.18-3.58-3.18c-2.02,0-3.33,1.41-3.58,3.18H213.19z"/>
			<path class="st10" d="M224.91,550.71v2.25c-2.83,0-4.09,1.64-4.09,3.86v6.01h-2.42v-12.11h2.42v2.15
				C221.7,551.52,223.14,550.71,224.91,550.71z"/>
		</g>
	</g>
	<path class="st4" d="M261,80.75H61c-5.52,0-10-4.48-10-10v-60c0-5.52,4.48-10,10-10h200c5.52,0,10,4.48,10,10v60
		C271,76.27,266.52,80.75,261,80.75z"/>
	<g>
		<g class="st1">
			<path class="st10" d="M110.08,31.13l-6.33,11.21v6.71h-2.42v-6.71l-6.41-11.21h2.8l4.85,8.81l4.74-8.81H110.08z"/>
			<path class="st10" d="M108.47,42.99c0-3.61,2.75-6.44,6.51-6.44c3.76,0,6.49,2.83,6.49,6.44c0,3.58-2.73,6.44-6.49,6.44
				C111.22,49.43,108.47,46.58,108.47,42.99z M118.99,42.99c0-2.42-1.56-4.29-4.01-4.29c-2.37,0-4.04,1.87-4.04,4.29
				c0,2.4,1.64,4.29,4.04,4.29C117.43,47.28,118.99,45.39,118.99,42.99z"/>
			<path class="st10" d="M136.99,46.83v2.22h-0.73c-1.62,0-2.3-0.66-2.6-1.87c-0.93,1.41-2.47,2.25-4.37,2.25
				c-3.1,0-5.17-1.84-5.17-5.53v-6.97h2.45v6.61c0,2.57,1.19,3.63,3.18,3.63c2.15,0,3.51-1.57,3.51-3.86v-6.38h2.42v8.61
				c0,0.88,0.05,1.29,0.81,1.29H136.99z"/>
			<path class="st10" d="M146.53,36.94v2.25c-2.83,0-4.09,1.64-4.09,3.86v6.01h-2.42V36.94h2.42v2.15
				C143.32,37.74,144.76,36.94,146.53,36.94z"/>
			<path class="st10" d="M154.41,40.09c0-5.05,4.14-9.34,8.98-9.34c3.69,0,6.79,2.09,8,5.3l-2.32,0.78
				c-0.91-2.37-2.93-3.81-5.68-3.81c-3.58,0-6.51,3.13-6.51,7.07c0,3.94,2.93,7.07,6.51,7.07c2.68,0,4.54-1.36,5.58-3.51l2.27,0.93
				c-1.41,3-4.32,4.85-7.85,4.85C158.55,49.43,154.41,45.14,154.41,40.09z"/>
			<path class="st10" d="M174.05,45.57V31.13h2.45v14.41c0,0.88,0.28,1.29,1.06,1.29h0.98v2.22h-1.21
				C175.23,49.05,174.05,47.74,174.05,45.57z"/>
			<path class="st10" d="M182.63,31.76c0.91,0,1.64,0.71,1.64,1.64c0,0.91-0.76,1.62-1.64,1.62c-0.93,0-1.69-0.71-1.69-1.62
				C180.94,32.44,181.69,31.76,182.63,31.76z M183.84,49.05h-2.42V36.94h2.42V49.05z"/>
			<path class="st10" d="M186.79,42.84c0-3.61,2.62-6.28,6.11-6.28c3.91,0,6.26,2.78,5.93,6.97h-9.54c0.2,2.52,1.69,3.84,3.68,3.84
				c1.94,0,3.18-0.98,3.89-2.6l1.94,0.81c-0.93,2.27-3,3.86-5.83,3.86C189.16,49.43,186.79,46.5,186.79,42.84z M196.48,41.73
				c-0.2-2.2-1.64-3.18-3.58-3.18c-2.02,0-3.33,1.41-3.58,3.18H196.48z"/>
			<path class="st10" d="M213.12,42.08v6.97h-2.45v-6.64c0-2.5-1.19-3.61-3.18-3.61c-2.15,0-3.51,1.57-3.51,3.86v6.38h-2.42V36.94
				h2.42v1.94c0.83-1.39,2.15-2.32,3.96-2.32C211.05,36.56,213.12,38.37,213.12,42.08z"/>
			<path class="st10" d="M219.3,39.01v6.51c0,0.88,0.25,1.31,1.24,1.31h1.62v2.22h-1.67c-2.45,0-3.61-1.39-3.61-3.58v-6.46h-2.62
				v-2.07h2.62v-3.58l2.42-0.63v4.21h3.36v2.07H219.3z"/>
		</g>
	</g>
	<g>
		<g>
			<g>
				<rect x="43.5" y="645.23" class="st6" width="235" height="65"/>
				<rect x="51" y="652.73" class="st7" width="157.5" height="50"/>
				<rect x="58.5" y="657.73" class="st9" width="5" height="40"/>
				<rect x="71" y="657.73" class="st9" width="5" height="40"/>
				<rect x="83.5" y="657.73" class="st9" width="5" height="40"/>
				<rect x="96" y="657.73" class="st9" width="5" height="40"/>
				<rect x="108.5" y="657.73" class="st9" width="5" height="40"/>
				<rect x="121" y="657.73" class="st9" width="5" height="40"/>
				<rect x="133.5" y="657.73" class="st9" width="5" height="40"/>
				<rect x="146" y="657.73" class="st9" width="5" height="40"/>
				<rect x="158.5" y="657.73" class="st9" width="5" height="40"/>
				<rect x="171" y="657.73" class="st9" width="5" height="40"/>
				<rect x="183.5" y="657.73" class="st8" width="5" height="40"/>
				<rect x="196" y="657.73" class="st9" width="5" height="40"/>
				<rect x="263.5" y="652.73" class="st9" width="7.5" height="50"/>
				<circle class="st9" cx="252" cy="656.73" r="4"/>
				<circle class="st8" cx="252" cy="670.73" r="4"/>
				<circle class="st10" cx="252" cy="698.73" r="4"/>
				<circle class="st9" cx="252" cy="684.73" r="4"/>
				<rect x="51" y="710.23" class="st11" width="220" height="5"/>
			</g>
		</g>
		<g>
			<g>
				<rect x="43.5" y="715.23" class="st6" width="235" height="65"/>
				<rect x="51" y="780.23" class="st11" width="220" height="5"/>
			</g>
			<g>
				<rect x="51" y="725.79" class="st11" width="5" height="5"/>
				<rect x="61" y="725.79" class="st11" width="5" height="5"/>
				<rect x="71" y="725.79" class="st11" width="5" height="5"/>
				<rect x="81" y="725.79" class="st11" width="5" height="5"/>
				<rect x="91" y="725.79" class="st11" width="5" height="5"/>
				<rect x="101" y="725.79" class="st11" width="5" height="5"/>
				<rect x="111" y="725.79" class="st11" width="5" height="5"/>
				<rect x="121" y="725.79" class="st11" width="5" height="5"/>
				<rect x="131" y="725.79" class="st11" width="5" height="5"/>
				<rect x="141" y="725.79" class="st11" width="5" height="5"/>
				<rect x="56" y="735.79" class="st11" width="5" height="5"/>
				<rect x="66" y="735.79" class="st11" width="5" height="5"/>
				<rect x="76" y="735.79" class="st11" width="5" height="5"/>
				<rect x="86" y="735.79" class="st11" width="5" height="5"/>
				<rect x="96" y="735.79" class="st11" width="5" height="5"/>
				<rect x="106" y="735.79" class="st11" width="5" height="5"/>
				<rect x="116" y="735.79" class="st11" width="5" height="5"/>
				<rect x="126" y="735.79" class="st11" width="5" height="5"/>
				<rect x="136" y="735.79" class="st11" width="5" height="5"/>
				<rect x="51" y="745.79" class="st11" width="5" height="5"/>
				<rect x="61" y="745.79" class="st11" width="5" height="5"/>
				<rect x="71" y="745.79" class="st11" width="5" height="5"/>
				<rect x="81" y="745.79" class="st11" width="5" height="5"/>
				<rect x="91" y="745.79" class="st11" width="5" height="5"/>
				<rect x="101" y="745.79" class="st11" width="5" height="5"/>
				<rect x="111" y="745.79" class="st11" width="5" height="5"/>
				<rect x="121" y="745.79" class="st11" width="5" height="5"/>
				<rect x="131" y="745.79" class="st11" width="5" height="5"/>
				<rect x="141" y="745.79" class="st11" width="5" height="5"/>
				<rect x="56" y="755.79" class="st11" width="5" height="5"/>
				<rect x="66" y="755.79" class="st11" width="5" height="5"/>
				<rect x="76" y="755.79" class="st11" width="5" height="5"/>
				<rect x="86" y="755.79" class="st11" width="5" height="5"/>
				<rect x="96" y="755.79" class="st11" width="5" height="5"/>
				<rect x="106" y="755.79" class="st11" width="5" height="5"/>
				<rect x="116" y="755.79" class="st11" width="5" height="5"/>
				<rect x="126" y="755.79" class="st11" width="5" height="5"/>
				<rect x="136" y="755.79" class="st11" width="5" height="5"/>
				<rect x="51" y="765.79" class="st11" width="5" height="5"/>
				<rect x="61" y="765.79" class="st11" width="5" height="5"/>
				<rect x="71" y="765.79" class="st11" width="5" height="5"/>
				<rect x="81" y="765.79" class="st11" width="5" height="5"/>
				<rect x="91" y="765.79" class="st11" width="5" height="5"/>
				<rect x="101" y="765.79" class="st11" width="5" height="5"/>
				<rect x="111" y="765.79" class="st11" width="5" height="5"/>
				<rect x="121" y="765.79" class="st11" width="5" height="5"/>
				<rect x="131" y="765.79" class="st11" width="5" height="5"/>
				<rect x="141" y="765.79" class="st11" width="5" height="5"/>
			</g>
			<rect x="258.5" y="722.73" class="st7" width="12.5" height="50"/>
			<path class="st12" d="M264.75,747.76L264.75,747.76c-2.07,0-3.75-1.68-3.75-3.75v-15.03c0-2.07,1.68-3.75,3.75-3.75l0,0
				c2.07,0,3.75,1.68,3.75,3.75v15.03C268.5,746.08,266.82,747.76,264.75,747.76z"/>
			<circle class="st10" cx="264.75" cy="765.79" r="4"/>
			<circle cx="264.75" cy="729.23" r="2.5"/>
		</g>
	</g>
	<g>
		<path class="st4" d="M825.26,214.05h-190c-5.52,0-10-4.48-10-10v-70c0-5.52,4.48-10,10-10h190c5.52,0,10,4.48,10,10v70
			C835.26,209.57,830.79,214.05,825.26,214.05z"/>
		<g>
			<g class="st1">
				<path class="st10" d="M669.87,155.39c0-5.05,4.14-9.34,8.98-9.34c3.69,0,6.79,2.09,8,5.3l-2.32,0.78
					c-0.91-2.37-2.93-3.81-5.68-3.81c-3.58,0-6.51,3.13-6.51,7.07c0,3.94,2.93,7.07,6.51,7.07c2.68,0,4.54-1.36,5.58-3.51l2.27,0.93
					c-1.41,3-4.32,4.85-7.85,4.85C674.01,164.73,669.87,160.44,669.87,155.39z"/>
				<path class="st10" d="M688.63,158.29c0-3.61,2.75-6.44,6.51-6.44c3.76,0,6.49,2.83,6.49,6.44c0,3.58-2.73,6.44-6.49,6.44
					C691.38,164.73,688.63,161.87,688.63,158.29z M699.15,158.29c0-2.42-1.56-4.29-4.01-4.29c-2.37,0-4.04,1.87-4.04,4.29
					c0,2.4,1.64,4.29,4.04,4.29C697.59,162.58,699.15,160.69,699.15,158.29z"/>
				<path class="st10" d="M722.8,157.03v7.32h-2.42v-6.92c0-2.45-0.96-3.33-2.57-3.33c-1.64,0-2.98,1.21-2.98,3.38v6.87h-2.42v-6.92
					c0-2.45-0.96-3.33-2.57-3.33c-1.74,0-2.98,1.39-2.98,3.66v6.59h-2.45v-12.11h2.45v1.64c0.76-1.26,2.02-2.02,3.46-2.02
					c1.89,0,3.26,0.68,3.94,2.25c0.88-1.62,2.37-2.25,4.04-2.25C721.06,151.86,722.8,153.62,722.8,157.03z"/>
				<path class="st10" d="M732.04,164.73c-3.71,0-6.46-2.93-6.46-6.59c0-3.61,2.73-6.28,6.49-6.28c2.62,0,4.67,1.34,5.58,3.51
					l-2.09,0.86c-0.58-1.44-1.72-2.22-3.48-2.22c-2.4,0-4.01,1.72-4.01,4.14s1.59,4.44,3.99,4.44c1.67,0,2.8-0.83,3.43-2.27
					l2.07,0.91C736.58,163.36,734.64,164.73,732.04,164.73z"/>
				<path class="st10" d="M751.78,162.13v2.22h-0.55c-1.97,0-2.85-0.48-3.13-1.74c-0.68,1.24-2.47,2.12-4.19,2.12
					c-2.37,0-4.21-1.29-4.21-3.61c0-3.23,4.09-3.99,7.92-4.64c-0.05-1.72-1.08-2.6-2.6-2.6c-1.56,0-2.78,0.78-3.23,2.47l-2.12-0.56
					c0.83-2.9,3.26-3.94,5.53-3.94c2.67,0,4.85,1.67,4.85,4.8v4.32c0,0.88,0.05,1.16,1.19,1.16H751.78z M747.62,158.22
					c-2.73,0.43-5.48,0.91-5.48,2.7c0,1.29,0.93,1.84,2.2,1.84c2.22,0,3.28-1.56,3.28-3.68V158.22z"/>
				<path class="st10" d="M761.09,152.23v2.25c-2.83,0-4.09,1.64-4.09,3.86v6.01h-2.42v-12.11h2.42v2.15
					C757.89,153.04,759.33,152.23,761.09,152.23z"/>
				<path class="st10" d="M762.28,158.29c0-3.89,2.83-6.44,6.18-6.44c1.67,0,3.31,0.73,4.14,2.02v-7.45h2.42v17.92h-2.42v-1.64
					c-0.83,1.29-2.47,2.02-4.14,2.02C765.11,164.73,762.28,162.15,762.28,158.29z M772.6,158.29c0-2.5-1.62-4.29-3.89-4.29
					c-2.45,0-3.96,1.89-3.96,4.29c0,2.4,1.51,4.29,3.96,4.29C770.99,162.58,772.6,160.79,772.6,158.29z"/>
				<path class="st10" d="M777.81,158.14c0-3.61,2.62-6.28,6.11-6.28c3.91,0,6.26,2.78,5.93,6.97h-9.54
					c0.2,2.52,1.69,3.84,3.68,3.84c1.94,0,3.18-0.98,3.89-2.6l1.94,0.81c-0.93,2.27-3,3.86-5.83,3.86
					C780.18,164.73,777.81,161.8,777.81,158.14z M787.5,157.03c-0.2-2.2-1.64-3.18-3.58-3.18c-2.02,0-3.33,1.41-3.58,3.18H787.5z"/>
			</g>
			<g class="st1">
				<path class="st10" d="M689.29,190.35l-3.36-6.81h-0.05h-3.99v6.81h-2.45v-17.92h6.44c3.46,0,6.03,2.17,6.03,5.58
					c0,2.5-1.39,4.32-3.51,5.1l3.61,7.24H689.29z M681.9,181.34h3.81c2.25,0,3.76-1.19,3.76-3.36c0-2.17-1.57-3.33-3.84-3.33h-3.74
					V181.34z"/>
				<path class="st10" d="M697.55,174.65v5.58h8.2v2.22h-8.2v5.68h8.96v2.22h-11.38v-17.92h11.38v2.22H697.55z"/>
				<path class="st10" d="M708.63,185.65l2.27-0.73c0.38,1.72,1.59,3.56,4.19,3.56c2.2,0,3.76-1.09,3.76-3.1
					c0-4.04-9.62-2.45-9.62-8.08c0-3.41,2.88-5.25,5.8-5.25c2.85,0,5.02,1.51,5.86,4.01l-2.25,0.68c-0.48-1.39-1.67-2.47-3.56-2.47
					c-1.62,0-3.36,0.76-3.36,2.78c0,3.76,9.62,1.99,9.62,8.18c0,3.33-2.5,5.5-6.31,5.5S709.21,188.23,708.63,185.65z"/>
				<path class="st10" d="M735.91,174.65h-5.65v15.7h-2.42v-15.7h-5.68v-2.22h13.75V174.65z"/>
				<path class="st10" d="M755.96,185.96h-8.18l-1.67,4.39h-2.62l7.14-17.92h2.45l7.14,17.92h-2.6L755.96,185.96z M755.15,183.84
					l-3.31-8.71l-3.28,8.71H755.15z"/>
				<path class="st10" d="M775.09,178.01c0,3.38-2.55,5.53-6.03,5.53h-3.99v6.81h-2.45v-17.92h6.44
					C772.51,172.43,775.09,174.6,775.09,178.01z M772.64,177.98c0-2.17-1.56-3.33-3.84-3.33h-3.74v6.69h3.81
					C771.13,181.34,772.64,180.15,772.64,177.98z"/>
				<path class="st10" d="M777.87,172.43h2.45v17.92h-2.45V172.43z"/>
			</g>
		</g>
	</g>
	<circle id="Ellipse_257_00000063601745392028508520000010412432009577232057_" cx="570.63" cy="660.23" r="5" fill="#999" />
	<circle id="Ellipse_257_00000134218039215050802240000016855003169624525973_" cx="570.63" cy="251.46" r="5" fill="#999" />
	<g>
		<path class="st13" d="M392.21,336.46h-150c-5.52,0-10-4.48-10-10v-225c0-5.52,4.48-10,10-10h150c5.52,0,10,4.48,10,10v225
			C402.21,331.98,397.73,336.46,392.21,336.46z"/>
		<g class="st1">
			<path class="st10" d="M256.81,198.07c0-5.05,4.14-9.34,8.98-9.34c3.69,0,6.79,2.09,8,5.3l-2.32,0.78
				c-0.91-2.37-2.93-3.81-5.68-3.81c-3.58,0-6.51,3.13-6.51,7.07c0,3.94,2.93,7.07,6.51,7.07c2.68,0,4.54-1.36,5.58-3.51l2.27,0.93
				c-1.41,3-4.32,4.85-7.85,4.85C260.95,207.41,256.81,203.12,256.81,198.07z"/>
			<path class="st10" d="M275.57,200.98c0-3.61,2.75-6.44,6.51-6.44c3.76,0,6.49,2.83,6.49,6.44c0,3.58-2.73,6.44-6.49,6.44
				C278.32,207.41,275.57,204.56,275.57,200.98z M286.09,200.98c0-2.42-1.56-4.29-4.01-4.29c-2.37,0-4.04,1.87-4.04,4.29
				c0,2.4,1.64,4.29,4.04,4.29C284.53,205.27,286.09,203.37,286.09,200.98z"/>
			<path class="st10" d="M309.74,199.71v7.32h-2.42v-6.92c0-2.45-0.96-3.33-2.57-3.33c-1.64,0-2.98,1.21-2.98,3.38v6.87h-2.42v-6.92
				c0-2.45-0.96-3.33-2.57-3.33c-1.74,0-2.98,1.39-2.98,3.66v6.59h-2.45v-12.11h2.45v1.64c0.76-1.26,2.02-2.02,3.46-2.02
				c1.89,0,3.26,0.68,3.94,2.25c0.88-1.62,2.37-2.25,4.04-2.25C308,194.54,309.74,196.31,309.74,199.71z"/>
			<path class="st10" d="M318.98,207.41c-3.71,0-6.46-2.93-6.46-6.59c0-3.61,2.73-6.28,6.49-6.28c2.62,0,4.67,1.34,5.58,3.51
				l-2.09,0.86c-0.58-1.44-1.72-2.22-3.48-2.22c-2.4,0-4.01,1.72-4.01,4.14s1.59,4.44,3.99,4.44c1.67,0,2.8-0.83,3.43-2.27
				l2.07,0.91C323.53,206.05,321.58,207.41,318.98,207.41z"/>
			<path class="st10" d="M338.72,204.81v2.22h-0.55c-1.97,0-2.85-0.48-3.13-1.74c-0.68,1.24-2.47,2.12-4.19,2.12
				c-2.37,0-4.21-1.29-4.21-3.61c0-3.23,4.09-3.99,7.92-4.64c-0.05-1.72-1.08-2.6-2.6-2.6c-1.56,0-2.78,0.78-3.23,2.47l-2.12-0.56
				c0.83-2.9,3.26-3.94,5.53-3.94c2.67,0,4.85,1.67,4.85,4.8v4.32c0,0.88,0.05,1.16,1.19,1.16H338.72z M334.56,200.9
				c-2.73,0.43-5.48,0.91-5.48,2.7c0,1.29,0.93,1.84,2.2,1.84c2.22,0,3.28-1.56,3.28-3.68V200.9z"/>
			<path class="st10" d="M348.04,194.92v2.25c-2.83,0-4.09,1.64-4.09,3.86v6.01h-2.42v-12.11h2.42v2.15
				C344.83,195.73,346.27,194.92,348.04,194.92z"/>
			<path class="st10" d="M349.23,200.98c0-3.89,2.83-6.44,6.18-6.44c1.67,0,3.31,0.73,4.14,2.02v-7.45h2.42v17.92h-2.42v-1.64
				c-0.83,1.29-2.47,2.02-4.14,2.02C352.05,207.41,349.23,204.84,349.23,200.98z M359.55,200.98c0-2.5-1.62-4.29-3.89-4.29
				c-2.45,0-3.96,1.89-3.96,4.29c0,2.4,1.51,4.29,3.96,4.29C357.93,205.27,359.55,203.48,359.55,200.98z"/>
			<path class="st10" d="M364.75,200.82c0-3.61,2.62-6.28,6.11-6.28c3.91,0,6.26,2.78,5.93,6.97h-9.54c0.2,2.52,1.69,3.84,3.68,3.84
				c1.94,0,3.18-0.98,3.89-2.6l1.94,0.81c-0.93,2.27-3,3.86-5.83,3.86C367.12,207.41,364.75,204.48,364.75,200.82z M374.44,199.71
				c-0.2-2.2-1.64-3.18-3.58-3.18c-2.02,0-3.33,1.41-3.58,3.18H374.44z"/>
		</g>
		<g class="st1">
			<path class="st10" d="M255.7,228.07c0-5.05,4.14-9.34,8.98-9.34c3.69,0,6.79,2.09,8,5.3l-2.32,0.78
				c-0.91-2.37-2.93-3.81-5.68-3.81c-3.58,0-6.51,3.13-6.51,7.07c0,3.94,2.93,7.07,6.51,7.07c2.68,0,4.54-1.36,5.58-3.51l2.27,0.93
				c-1.41,3-4.32,4.85-7.85,4.85C259.84,237.41,255.7,233.12,255.7,228.07z"/>
			<path class="st10" d="M275.34,233.55v-14.44h2.45v14.41c0,0.88,0.28,1.29,1.06,1.29h0.98v2.22h-1.21
				C276.53,237.03,275.34,235.72,275.34,233.55z"/>
			<path class="st10" d="M283.92,219.75c0.91,0,1.64,0.71,1.64,1.64c0,0.91-0.76,1.62-1.64,1.62c-0.93,0-1.69-0.71-1.69-1.62
				C282.23,220.43,282.99,219.75,283.92,219.75z M285.13,237.03h-2.42v-12.11h2.42V237.03z"/>
			<path class="st10" d="M288.09,230.82c0-3.61,2.62-6.28,6.11-6.28c3.91,0,6.26,2.78,5.93,6.97h-9.54c0.2,2.52,1.69,3.84,3.68,3.84
				c1.94,0,3.18-0.98,3.89-2.6l1.94,0.81c-0.93,2.27-3,3.86-5.83,3.86C290.46,237.41,288.09,234.48,288.09,230.82z M297.78,229.71
				c-0.2-2.2-1.64-3.18-3.58-3.18c-2.02,0-3.33,1.41-3.58,3.18H297.78z"/>
			<path class="st10" d="M314.42,230.07v6.97h-2.45v-6.64c0-2.5-1.19-3.61-3.18-3.61c-2.15,0-3.51,1.57-3.51,3.86v6.38h-2.42v-12.11
				h2.42v1.94c0.83-1.39,2.15-2.32,3.96-2.32C312.35,224.54,314.42,226.36,314.42,230.07z"/>
			<path class="st10" d="M320.6,226.99v6.51c0,0.88,0.25,1.31,1.24,1.31h1.62v2.22h-1.67c-2.45,0-3.61-1.39-3.61-3.58v-6.46h-2.62
				v-2.07h2.62v-3.58l2.42-0.63v4.21h3.36v2.07H320.6z"/>
			<path class="st10" d="M331.63,232.34l2.27-0.73c0.38,1.72,1.59,3.56,4.19,3.56c2.2,0,3.76-1.09,3.76-3.1
				c0-4.04-9.62-2.45-9.62-8.08c0-3.41,2.88-5.25,5.8-5.25c2.85,0,5.02,1.51,5.86,4.01l-2.25,0.68c-0.48-1.39-1.67-2.47-3.56-2.47
				c-1.62,0-3.36,0.76-3.36,2.78c0,3.76,9.62,1.99,9.62,8.18c0,3.33-2.5,5.5-6.31,5.5C334.23,237.41,332.21,234.91,331.63,232.34z"
				/>
			<path class="st10" d="M362.42,228.07c0,5.3-3.68,8.96-9.04,8.96h-5.83v-17.92h5.83C358.71,219.11,362.42,222.82,362.42,228.07z
				 M359.98,228.07c0-4.06-2.6-6.74-6.59-6.74h-3.38v13.48h3.38C357.38,234.81,359.98,232.16,359.98,228.07z"/>
			<path class="st10" d="M370.13,229.03l-2.57,3.25v4.75h-2.45v-17.92h2.45v9.72l7.27-9.72h3.08l-6.23,7.92l7.07,9.99h-3.18
				L370.13,229.03z"/>
		</g>
	</g>
	<g>
		<g>
			<path class="st13" d="M392.21,845.23h-150c-5.52,0-10-4.48-10-10v-225c0-5.52,4.48-10,10-10h150c5.52,0,10,4.48,10,10v225
				C402.21,840.76,397.73,845.23,392.21,845.23z"/>
			<g class="st1">
				<path class="st10" d="M256.81,706.85c0-5.05,4.14-9.34,8.98-9.34c3.69,0,6.79,2.09,8,5.3l-2.32,0.78
					c-0.91-2.37-2.93-3.81-5.68-3.81c-3.58,0-6.51,3.13-6.51,7.07c0,3.94,2.93,7.07,6.51,7.07c2.68,0,4.54-1.36,5.58-3.51l2.27,0.93
					c-1.41,3-4.32,4.85-7.85,4.85C260.95,716.19,256.81,711.9,256.81,706.85z"/>
				<path class="st10" d="M275.57,709.75c0-3.61,2.75-6.44,6.51-6.44c3.76,0,6.49,2.83,6.49,6.44c0,3.58-2.73,6.44-6.49,6.44
					C278.32,716.19,275.57,713.34,275.57,709.75z M286.09,709.75c0-2.42-1.56-4.29-4.01-4.29c-2.37,0-4.04,1.87-4.04,4.29
					c0,2.4,1.64,4.29,4.04,4.29C284.53,714.04,286.09,712.15,286.09,709.75z"/>
				<path class="st10" d="M309.74,708.49v7.32h-2.42v-6.92c0-2.45-0.96-3.33-2.57-3.33c-1.64,0-2.98,1.21-2.98,3.38v6.87h-2.42
					v-6.92c0-2.45-0.96-3.33-2.57-3.33c-1.74,0-2.98,1.39-2.98,3.66v6.59h-2.45V703.7h2.45v1.64c0.76-1.26,2.02-2.02,3.46-2.02
					c1.89,0,3.26,0.68,3.94,2.25c0.88-1.62,2.37-2.25,4.04-2.25C308,703.32,309.74,705.08,309.74,708.49z"/>
				<path class="st10" d="M318.98,716.19c-3.71,0-6.46-2.93-6.46-6.59c0-3.61,2.73-6.28,6.49-6.28c2.62,0,4.67,1.34,5.58,3.51
					l-2.09,0.86c-0.58-1.44-1.72-2.22-3.48-2.22c-2.4,0-4.01,1.72-4.01,4.14s1.59,4.44,3.99,4.44c1.67,0,2.8-0.83,3.43-2.27
					l2.07,0.91C323.53,714.83,321.58,716.19,318.98,716.19z"/>
				<path class="st10" d="M338.72,713.59v2.22h-0.55c-1.97,0-2.85-0.48-3.13-1.74c-0.68,1.24-2.47,2.12-4.19,2.12
					c-2.37,0-4.21-1.29-4.21-3.61c0-3.23,4.09-3.99,7.92-4.64c-0.05-1.72-1.08-2.6-2.6-2.6c-1.56,0-2.78,0.78-3.23,2.47l-2.12-0.56
					c0.83-2.9,3.26-3.94,5.53-3.94c2.67,0,4.85,1.67,4.85,4.8v4.32c0,0.88,0.05,1.16,1.19,1.16H338.72z M334.56,709.68
					c-2.73,0.43-5.48,0.91-5.48,2.7c0,1.29,0.93,1.84,2.2,1.84c2.22,0,3.28-1.56,3.28-3.68V709.68z"/>
				<path class="st10" d="M348.04,703.7v2.25c-2.83,0-4.09,1.64-4.09,3.86v6.01h-2.42V703.7h2.42v2.15
					C344.83,704.5,346.27,703.7,348.04,703.7z"/>
				<path class="st10" d="M349.23,709.75c0-3.89,2.83-6.44,6.18-6.44c1.67,0,3.31,0.73,4.14,2.02v-7.45h2.42v17.92h-2.42v-1.64
					c-0.83,1.29-2.47,2.02-4.14,2.02C352.05,716.19,349.23,713.61,349.23,709.75z M359.55,709.75c0-2.5-1.62-4.29-3.89-4.29
					c-2.45,0-3.96,1.89-3.96,4.29c0,2.4,1.51,4.29,3.96,4.29C357.93,714.04,359.55,712.25,359.55,709.75z"/>
				<path class="st10" d="M364.75,709.6c0-3.61,2.62-6.28,6.11-6.28c3.91,0,6.26,2.78,5.93,6.97h-9.54c0.2,2.52,1.69,3.84,3.68,3.84
					c1.94,0,3.18-0.98,3.89-2.6l1.94,0.81c-0.93,2.27-3,3.86-5.83,3.86C367.12,716.19,364.75,713.26,364.75,709.6z M374.44,708.49
					c-0.2-2.2-1.64-3.18-3.58-3.18c-2.02,0-3.33,1.41-3.58,3.18H374.44z"/>
			</g>
			<g class="st1">
				<path class="st10" d="M253.64,741.12l2.27-0.73c0.38,1.72,1.59,3.56,4.19,3.56c2.2,0,3.76-1.09,3.76-3.1
					c0-4.04-9.62-2.45-9.62-8.08c0-3.41,2.88-5.25,5.8-5.25c2.85,0,5.02,1.51,5.86,4.01l-2.25,0.68c-0.48-1.39-1.67-2.47-3.56-2.47
					c-1.62,0-3.36,0.76-3.36,2.78c0,3.76,9.62,1.99,9.62,8.18c0,3.33-2.5,5.5-6.31,5.5C256.24,746.19,254.22,743.69,253.64,741.12z"
					/>
				<path class="st10" d="M268.43,739.6c0-3.61,2.62-6.28,6.11-6.28c3.91,0,6.26,2.78,5.93,6.97h-9.54c0.2,2.52,1.69,3.84,3.68,3.84
					c1.94,0,3.18-0.98,3.89-2.6l1.94,0.81c-0.93,2.27-3,3.86-5.83,3.86C270.8,746.19,268.43,743.26,268.43,739.6z M278.12,738.49
					c-0.2-2.2-1.64-3.18-3.58-3.18c-2.02,0-3.33,1.41-3.58,3.18H278.12z"/>
				<path class="st10" d="M289.83,733.7v2.25c-2.83,0-4.09,1.64-4.09,3.86v6.01h-2.42V733.7h2.42v2.15
					C286.63,734.5,288.07,733.7,289.83,733.7z"/>
				<path class="st10" d="M303.92,733.7l-5.25,12.11h-2.15l-5.25-12.11h2.65l3.69,9.34l3.68-9.34H303.92z"/>
				<path class="st10" d="M304.8,739.6c0-3.61,2.62-6.28,6.11-6.28c3.91,0,6.26,2.78,5.93,6.97h-9.54c0.2,2.52,1.69,3.84,3.68,3.84
					c1.94,0,3.18-0.98,3.89-2.6l1.94,0.81c-0.93,2.27-3,3.86-5.83,3.86C307.18,746.19,304.8,743.26,304.8,739.6z M314.5,738.49
					c-0.2-2.2-1.64-3.18-3.58-3.18c-2.02,0-3.33,1.41-3.58,3.18H314.5z"/>
				<path class="st10" d="M326.21,733.7v2.25c-2.83,0-4.09,1.64-4.09,3.86v6.01h-2.42V733.7h2.42v2.15
					C323,734.5,324.44,733.7,326.21,733.7z"/>
				<path class="st10" d="M334.06,741.12l2.27-0.73c0.38,1.72,1.59,3.56,4.19,3.56c2.2,0,3.76-1.09,3.76-3.1
					c0-4.04-9.62-2.45-9.62-8.08c0-3.41,2.88-5.25,5.8-5.25c2.85,0,5.02,1.51,5.86,4.01l-2.25,0.68c-0.48-1.39-1.67-2.47-3.56-2.47
					c-1.62,0-3.36,0.76-3.36,2.78c0,3.76,9.62,1.99,9.62,8.18c0,3.33-2.5,5.5-6.31,5.5C336.66,746.19,334.64,743.69,334.06,741.12z"
					/>
				<path class="st10" d="M364.85,736.85c0,5.3-3.68,8.96-9.04,8.96h-5.83v-17.92h5.83C361.14,727.89,364.85,731.6,364.85,736.85z
					 M362.4,736.85c0-4.06-2.6-6.74-6.59-6.74h-3.38v13.48h3.38C359.81,743.59,362.4,740.94,362.4,736.85z"/>
				<path class="st10" d="M372.55,737.81l-2.57,3.25v4.75h-2.45v-17.92h2.45v9.72l7.27-9.72h3.08l-6.23,7.92l7.07,9.99h-3.18
					L372.55,737.81z"/>
			</g>
		</g>
	</g>
</g>
</svg>
