<?xml version="1.0" encoding="utf-8"?>
<!-- Generator: Adobe Illustrator 26.0.3, SVG Export Plug-In . SVG Version: 6.00 Build 0)  -->
<svg version="1.1" id="Layer_1" xmlns="http://www.w3.org/2000/svg" xmlns:xlink="http://www.w3.org/1999/xlink" x="0px" y="0px"
	 viewBox="0 0 891.26 771.23" style="enable-background:new 0 0 891.26 771.23;" xml:space="preserve">
<style type="text/css">
	.st0{stroke:#999;stroke-width:1.5;}
	.st1{fill:none;stroke:#CCCCCC;stroke-width:2;}
	.st2Client{fill:none;stroke:#7BDFA7;stroke-width:1.5;stroke-miterlimit:10;}
	.st2Server{fill:none;stroke:#6263F5;stroke-width:1.5;stroke-miterlimit:10;}
	.st3{fill:#ECECEC;}
	.st4{fill:none;stroke:#FFFFFF;stroke-miterlimit:10;}
	.st5{fill:#95DCAB;}
	.st6{fill:#558A72;}
	.st7{fill:#FFFFFF;}
	.st8{fill:#D4D4D4;}
	.st9{fill:#646363;}
	.st10{enable-background:new;fill:#999}
	.st11{fill:#B8B8B8;}
	.st12{fill:#FFFFFF;stroke:#ECECEC;stroke-width:2;}
	.st13{fill:#7BDFA7;}
	.st14{fill:#6263F5;}
	.st15{fill:#7BDFA7;stroke:#ECECEC;stroke-width:2;}
</style>
<g>
	<path id="Path_3462_00000075874627681027680040000002695602037262725806_" class="st0" d="M161,361.46v38.07"/>
	<circle id="Ellipse_257_00000149358727403657257500000000231939757731842977_" cx="161" cy="399.52" r="5"/>
	<path class="st1" d="M291,770.23H31c-16.57,0-30-13.43-30-30v-260c0-16.57,13.43-30,30-30h260c16.57,0,30,13.43,30,30v260
		C321,756.8,307.56,770.23,291,770.23z"/>
	<path id="Path_3462_00000125604687453668625630000015048443611913782697_" class="st2Server" d="M320.63,610.23h250"/>
	<circle id="Ellipse_257_00000151532589892923201270000000726058373677890957_" cx="320.63" cy="610.23" r="5" fill="#6263F5"/>
	<path class="st1" d="M860.26,697.71h-260c-16.57,0-30-13.43-30-30V144.05c0-16.57,13.43-30,30-30h260c16.57,0,30,13.43,30,30
		v523.67C890.26,684.28,876.83,697.71,860.26,697.71z"/>
	<path id="Path_3462_00000178885464765702680800000017503812484421483672_" class="st2Client" d="M320.63,201.46h250"/>
	<circle id="Ellipse_257_00000013189513443503034580000012055922814608363152_" cx="570.63" cy="201.46" r="5"  fill="#7BDFA7"/>
	<g>
		<g>
			<g>
				<rect x="612.76" y="494.82" class="st3" width="235" height="65"/>
				<rect x="620.26" y="502.32" class="st4" width="157.5" height="50"/>
				<rect x="627.76" y="507.32" class="st5" width="5" height="40"/>
				<rect x="640.26" y="507.32" class="st6" width="5" height="40"/>
				<rect x="652.76" y="507.32" class="st6" width="5" height="40"/>
				<rect x="665.26" y="507.32" class="st6" width="5" height="40"/>
				<rect x="677.76" y="507.32" class="st6" width="5" height="40"/>
				<rect x="690.26" y="507.32" class="st6" width="5" height="40"/>
				<rect x="702.76" y="507.32" class="st6" width="5" height="40"/>
				<rect x="715.26" y="507.32" class="st6" width="5" height="40"/>
				<rect x="727.76" y="507.32" class="st6" width="5" height="40"/>
				<rect x="740.26" y="507.32" class="st6" width="5" height="40"/>
				<rect x="752.76" y="507.32" class="st6" width="5" height="40"/>
				<rect x="765.26" y="507.32" class="st6" width="5" height="40"/>
				<rect x="832.76" y="502.32" class="st6" width="7.5" height="50"/>
				<circle class="st7" cx="821.26" cy="506.32" r="4"/>
				<circle class="st6" cx="821.26" cy="520.32" r="4"/>
				<circle class="st6" cx="821.26" cy="548.32" r="4"/>
				<circle class="st5" cx="821.26" cy="534.32" r="4"/>
				<rect x="620.26" y="559.82" class="st8" width="220" height="5"/>
			</g>
			<g>
				<rect x="612.76" y="424.82" class="st3" width="235" height="65"/>
				<rect x="620.26" y="432.32" class="st4" width="157.5" height="50"/>
				<rect x="627.76" y="437.32" class="st6" width="5" height="40"/>
				<rect x="640.26" y="437.32" class="st6" width="5" height="40"/>
				<rect x="652.76" y="437.32" class="st6" width="5" height="40"/>
				<rect x="665.26" y="437.32" class="st6" width="5" height="40"/>
				<rect x="677.76" y="437.32" class="st6" width="5" height="40"/>
				<rect x="690.26" y="437.32" class="st6" width="5" height="40"/>
				<rect x="702.76" y="437.32" class="st6" width="5" height="40"/>
				<rect x="715.26" y="437.32" class="st6" width="5" height="40"/>
				<rect x="727.76" y="437.32" class="st6" width="5" height="40"/>
				<rect x="740.26" y="437.32" class="st6" width="5" height="40"/>
				<rect x="752.76" y="437.32" class="st5" width="5" height="40"/>
				<rect x="765.26" y="437.32" class="st6" width="5" height="40"/>
				<rect x="832.76" y="432.32" class="st6" width="7.5" height="50"/>
				<circle class="st5" cx="821.26" cy="436.32" r="4"/>
				<circle class="st6" cx="821.26" cy="450.32" r="4"/>
				<circle class="st7" cx="821.26" cy="478.32" r="4"/>
				<circle class="st6" cx="821.26" cy="464.32" r="4"/>
				<rect x="620.26" y="489.82" class="st8" width="220" height="5"/>
			</g>
			<g>
				<rect x="612.76" y="354.82" class="st3" width="235" height="65"/>
				<rect x="620.26" y="362.32" class="st4" width="157.5" height="50"/>
				<rect x="627.76" y="367.32" class="st6" width="5" height="40"/>
				<rect x="640.26" y="367.32" class="st6" width="5" height="40"/>
				<rect x="652.76" y="367.32" class="st6" width="5" height="40"/>
				<rect x="665.26" y="367.32" class="st6" width="5" height="40"/>
				<rect x="677.76" y="367.32" class="st5" width="5" height="40"/>
				<rect x="690.26" y="367.32" class="st6" width="5" height="40"/>
				<rect x="702.76" y="367.32" class="st6" width="5" height="40"/>
				<rect x="715.26" y="367.32" class="st6" width="5" height="40"/>
				<rect x="727.76" y="367.32" class="st6" width="5" height="40"/>
				<rect x="740.26" y="367.32" class="st6" width="5" height="40"/>
				<rect x="752.76" y="367.32" class="st6" width="5" height="40"/>
				<rect x="765.26" y="367.32" class="st6" width="5" height="40"/>
				<rect x="832.76" y="362.32" class="st6" width="7.5" height="50"/>
				<circle class="st6" cx="821.26" cy="366.32" r="4"/>
				<circle class="st5" cx="821.26" cy="380.32" r="4"/>
				<circle class="st6" cx="821.26" cy="408.32" r="4"/>
				<circle class="st7" cx="821.26" cy="394.32" r="4"/>
				<rect x="620.26" y="419.82" class="st8" width="220" height="5"/>
			</g>
			<g>
				<rect x="612.76" y="284.82" class="st3" width="235" height="65"/>
				<rect x="620.26" y="292.32" class="st4" width="157.5" height="50"/>
				<rect x="627.76" y="297.32" class="st6" width="5" height="40"/>
				<rect x="640.26" y="297.32" class="st6" width="5" height="40"/>
				<rect x="652.76" y="297.32" class="st6" width="5" height="40"/>
				<rect x="665.26" y="297.32" class="st6" width="5" height="40"/>
				<rect x="677.76" y="297.32" class="st6" width="5" height="40"/>
				<rect x="690.26" y="297.32" class="st6" width="5" height="40"/>
				<rect x="702.76" y="297.32" class="st6" width="5" height="40"/>
				<rect x="715.26" y="297.32" class="st6" width="5" height="40"/>
				<rect x="727.76" y="297.32" class="st6" width="5" height="40"/>
				<rect x="740.26" y="297.32" class="st6" width="5" height="40"/>
				<rect x="752.76" y="297.32" class="st6" width="5" height="40"/>
				<rect x="765.26" y="297.32" class="st5" width="5" height="40"/>
				<rect x="832.76" y="292.32" class="st6" width="7.5" height="50"/>
				<circle class="st5" cx="821.26" cy="296.32" r="4"/>
				<circle class="st6" cx="821.26" cy="310.32" r="4"/>
				<circle class="st7" cx="821.26" cy="338.32" r="4"/>
				<circle class="st6" cx="821.26" cy="324.32" r="4"/>
				<rect x="620.26" y="349.82" class="st8" width="220" height="5"/>
			</g>
			<g>
				<rect x="612.76" y="214.82" class="st3" width="235" height="65"/>
				<rect x="620.26" y="222.32" class="st4" width="157.5" height="50"/>
				<rect x="627.76" y="227.32" class="st6" width="5" height="40"/>
				<rect x="640.26" y="227.32" class="st5" width="5" height="40"/>
				<rect x="652.76" y="227.32" class="st6" width="5" height="40"/>
				<rect x="665.26" y="227.32" class="st6" width="5" height="40"/>
				<rect x="677.76" y="227.32" class="st6" width="5" height="40"/>
				<rect x="690.26" y="227.32" class="st6" width="5" height="40"/>
				<rect x="702.76" y="227.32" class="st6" width="5" height="40"/>
				<rect x="715.26" y="227.32" class="st6" width="5" height="40"/>
				<rect x="727.76" y="227.32" class="st6" width="5" height="40"/>
				<rect x="740.26" y="227.32" class="st6" width="5" height="40"/>
				<rect x="752.76" y="227.32" class="st6" width="5" height="40"/>
				<rect x="765.26" y="227.32" class="st6" width="5" height="40"/>
				<rect x="832.76" y="222.32" class="st6" width="7.5" height="50"/>
				<circle class="st6" cx="821.26" cy="226.32" r="4"/>
				<circle class="st7" cx="821.26" cy="240.32" r="4"/>
				<circle class="st5" cx="821.26" cy="268.32" r="4"/>
				<circle class="st6" cx="821.26" cy="254.32" r="4"/>
				<rect x="620.26" y="279.82" class="st8" width="220" height="5"/>
			</g>
		</g>
		<g>
			<g>
				<rect x="612.76" y="564.82" class="st3" width="235" height="65"/>
				<rect x="620.26" y="629.82" class="st8" width="220" height="5"/>
			</g>
			<g>
				<rect x="620.26" y="575.38" class="st8" width="5" height="5"/>
				<rect x="630.26" y="575.38" class="st8" width="5" height="5"/>
				<rect x="640.26" y="575.38" class="st8" width="5" height="5"/>
				<rect x="650.26" y="575.38" class="st8" width="5" height="5"/>
				<rect x="660.26" y="575.38" class="st8" width="5" height="5"/>
				<rect x="670.26" y="575.38" class="st8" width="5" height="5"/>
				<rect x="680.26" y="575.38" class="st8" width="5" height="5"/>
				<rect x="690.26" y="575.38" class="st8" width="5" height="5"/>
				<rect x="700.26" y="575.38" class="st8" width="5" height="5"/>
				<rect x="710.26" y="575.38" class="st8" width="5" height="5"/>
				<rect x="625.26" y="585.38" class="st8" width="5" height="5"/>
				<rect x="635.26" y="585.38" class="st8" width="5" height="5"/>
				<rect x="645.26" y="585.38" class="st8" width="5" height="5"/>
				<rect x="655.26" y="585.38" class="st8" width="5" height="5"/>
				<rect x="665.26" y="585.38" class="st8" width="5" height="5"/>
				<rect x="675.26" y="585.38" class="st8" width="5" height="5"/>
				<rect x="685.26" y="585.38" class="st8" width="5" height="5"/>
				<rect x="695.26" y="585.38" class="st8" width="5" height="5"/>
				<rect x="705.26" y="585.38" class="st8" width="5" height="5"/>
				<rect x="620.26" y="595.38" class="st8" width="5" height="5"/>
				<rect x="630.26" y="595.38" class="st8" width="5" height="5"/>
				<rect x="640.26" y="595.38" class="st8" width="5" height="5"/>
				<rect x="650.26" y="595.38" class="st8" width="5" height="5"/>
				<rect x="660.26" y="595.38" class="st8" width="5" height="5"/>
				<rect x="670.26" y="595.38" class="st8" width="5" height="5"/>
				<rect x="680.26" y="595.38" class="st8" width="5" height="5"/>
				<rect x="690.26" y="595.38" class="st8" width="5" height="5"/>
				<rect x="700.26" y="595.38" class="st8" width="5" height="5"/>
				<rect x="710.26" y="595.38" class="st8" width="5" height="5"/>
				<rect x="625.26" y="605.38" class="st8" width="5" height="5"/>
				<rect x="635.26" y="605.38" class="st8" width="5" height="5"/>
				<rect x="645.26" y="605.38" class="st8" width="5" height="5"/>
				<rect x="655.26" y="605.38" class="st8" width="5" height="5"/>
				<rect x="665.26" y="605.38" class="st8" width="5" height="5"/>
				<rect x="675.26" y="605.38" class="st8" width="5" height="5"/>
				<rect x="685.26" y="605.38" class="st8" width="5" height="5"/>
				<rect x="695.26" y="605.38" class="st8" width="5" height="5"/>
				<rect x="705.26" y="605.38" class="st8" width="5" height="5"/>
				<rect x="620.26" y="615.38" class="st8" width="5" height="5"/>
				<rect x="630.26" y="615.38" class="st8" width="5" height="5"/>
				<rect x="640.26" y="615.38" class="st8" width="5" height="5"/>
				<rect x="650.26" y="615.38" class="st8" width="5" height="5"/>
				<rect x="660.26" y="615.38" class="st8" width="5" height="5"/>
				<rect x="670.26" y="615.38" class="st8" width="5" height="5"/>
				<rect x="680.26" y="615.38" class="st8" width="5" height="5"/>
				<rect x="690.26" y="615.38" class="st8" width="5" height="5"/>
				<rect x="700.26" y="615.38" class="st8" width="5" height="5"/>
				<rect x="710.26" y="615.38" class="st8" width="5" height="5"/>
			</g>
			<rect x="827.76" y="572.32" class="st4" width="12.5" height="50"/>
			<path class="st9" d="M834.01,597.35L834.01,597.35c-2.07,0-3.75-1.68-3.75-3.75v-15.03c0-2.07,1.68-3.75,3.75-3.75l0,0
				c2.07,0,3.75,1.68,3.75,3.75v15.03C837.76,595.67,836.09,597.35,834.01,597.35z"/>
			<circle class="st7" cx="834.01" cy="615.38" r="4"/>
			<circle cx="834.01" cy="578.82" r="2.5"/>
		</g>
	</g>
	<path class="st0" d="M261,489.52H61c-5.52,0-10-4.48-10-10v-60c0-5.52,4.48-10,10-10h200c5.52,0,10,4.48,10,10v60
		C271,485.05,266.52,489.52,261,489.52z"/>
	<g>
		<g class="st10">
			<path class="st7" d="M108.03,439.91l-6.33,11.21v6.71h-2.42v-6.71l-6.41-11.21h2.8l4.85,8.81l4.75-8.81H108.03z"/>
			<path class="st7" d="M106.42,451.77c0-3.61,2.75-6.44,6.51-6.44c3.76,0,6.49,2.83,6.49,6.44c0,3.58-2.73,6.44-6.49,6.44
				C109.17,458.21,106.42,455.35,106.42,451.77z M116.95,451.77c0-2.42-1.56-4.29-4.01-4.29c-2.37,0-4.04,1.87-4.04,4.29
				c0,2.4,1.64,4.29,4.04,4.29C115.38,456.06,116.95,454.17,116.95,451.77z"/>
			<path class="st7" d="M134.94,455.61v2.22h-0.73c-1.62,0-2.3-0.66-2.6-1.87c-0.93,1.41-2.47,2.25-4.37,2.25
				c-3.1,0-5.17-1.84-5.17-5.53v-6.97h2.45v6.61c0,2.57,1.19,3.63,3.18,3.63c2.15,0,3.51-1.57,3.51-3.86v-6.38h2.42v8.61
				c0,0.88,0.05,1.29,0.81,1.29H134.94z"/>
			<path class="st7" d="M144.49,445.71v2.25c-2.83,0-4.09,1.64-4.09,3.86v6.01h-2.42v-12.11h2.42v2.15
				C141.28,446.52,142.72,445.71,144.49,445.71z"/>
			<path class="st7" d="M152.34,453.13l2.27-0.73c0.38,1.72,1.59,3.56,4.19,3.56c2.2,0,3.76-1.09,3.76-3.1
				c0-4.04-9.62-2.45-9.62-8.08c0-3.41,2.88-5.25,5.8-5.25c2.85,0,5.02,1.51,5.86,4.01l-2.25,0.68c-0.48-1.39-1.67-2.47-3.56-2.47
				c-1.62,0-3.36,0.76-3.36,2.78c0,3.76,9.62,1.99,9.62,8.18c0,3.33-2.5,5.5-6.31,5.5S152.92,455.71,152.34,453.13z"/>
			<path class="st7" d="M167.13,451.62c0-3.61,2.62-6.28,6.11-6.28c3.91,0,6.26,2.78,5.93,6.97h-9.54c0.2,2.52,1.69,3.84,3.68,3.84
				c1.94,0,3.18-0.98,3.89-2.6l1.94,0.81c-0.93,2.27-3,3.86-5.83,3.86C169.5,458.21,167.13,455.28,167.13,451.62z M176.82,450.51
				c-0.2-2.2-1.64-3.18-3.58-3.18c-2.02,0-3.33,1.41-3.58,3.18H176.82z"/>
			<path class="st7" d="M188.53,445.71v2.25c-2.83,0-4.09,1.64-4.09,3.86v6.01h-2.42v-12.11h2.42v2.15
				C185.33,446.52,186.77,445.71,188.53,445.71z"/>
			<path class="st7" d="M202.62,445.71l-5.25,12.11h-2.15l-5.25-12.11h2.65l3.68,9.34l3.68-9.34H202.62z"/>
			<path class="st7" d="M203.5,451.62c0-3.61,2.62-6.28,6.11-6.28c3.91,0,6.26,2.78,5.93,6.97H206c0.2,2.52,1.69,3.84,3.68,3.84
				c1.94,0,3.18-0.98,3.89-2.6l1.94,0.81c-0.93,2.27-3,3.86-5.83,3.86C205.88,458.21,203.5,455.28,203.5,451.62z M213.19,450.51
				c-0.2-2.2-1.64-3.18-3.58-3.18c-2.02,0-3.33,1.41-3.58,3.18H213.19z"/>
			<path class="st7" d="M224.91,445.71v2.25c-2.83,0-4.09,1.64-4.09,3.86v6.01h-2.42v-12.11h2.42v2.15
				C221.7,446.52,223.14,445.71,224.91,445.71z"/>
		</g>
	</g>
	<path class="st1" d="M291,361.46H31c-16.57,0-30-13.43-30-30v-260c0-16.57,13.43-30,30-30h260c16.57,0,30,13.43,30,30v260
		C321,348.02,307.56,361.46,291,361.46z"/>
	<g class="st10">
		<path class="st11" d="M31.71,126.39c0-3.88,3.19-7.19,6.95-7.19c2.84,0,5.26,1.61,6.18,4.1l-2.08,0.7
			c-0.66-1.75-2.08-2.78-4.1-2.78c-2.64,0-4.74,2.25-4.74,5.17c0,2.91,2.1,5.17,4.74,5.17c1.98,0,3.26-0.97,4.04-2.54l2.04,0.83
			c-1.09,2.29-3.32,3.73-6.08,3.73C34.9,133.58,31.71,130.28,31.71,126.39z"/>
		<path class="st11" d="M56.82,131.33v1.96h-0.58c-1.32,0-1.88-0.47-2.16-1.34c-0.7,1.01-1.87,1.63-3.32,1.63
			c-2.41,0-3.96-1.46-3.96-4.25v-5.36H49v5.01c0,1.83,0.82,2.6,2.23,2.6c1.5,0,2.43-1.07,2.43-2.76v-4.86h2.2v6.45
			c0,0.6,0.02,0.91,0.56,0.91H56.82z"/>
		<path class="st11" d="M58.55,130.8l2.06-0.5c0.21,0.87,0.8,1.51,1.83,1.51s1.71-0.45,1.71-1.2c0-1.85-5.21-0.72-5.21-3.94
			c0-1.73,1.5-2.99,3.5-2.99c1.61,0,2.74,0.7,3.46,2.02l-1.75,0.8c-0.37-0.64-0.91-1.05-1.73-1.05c-0.85,0-1.34,0.47-1.34,1.01
			c0,1.65,5.22,0.53,5.22,4.02c0,1.84-1.55,3.11-3.88,3.11C60.37,133.58,58.96,132.47,58.55,130.8z"/>
		<path class="st11" d="M71.44,125.79v4.6c0,0.62,0.17,0.91,0.83,0.91h1.3v1.98H72.2c-1.92,0-2.95-1.13-2.95-2.89v-4.6h-1.98v-1.83
			h1.98v-2.7l2.2-0.52v3.22h2.52v1.83H71.44z"/>
		<path class="st11" d="M75.21,128.62c0-2.78,2.14-4.95,5.03-4.95c2.91,0,5.05,2.18,5.05,4.95c0,2.78-2.14,4.95-5.05,4.95
			C77.34,133.58,75.21,131.4,75.21,128.62z M83.08,128.62c0-1.73-1.09-3.05-2.84-3.05c-1.71,0-2.84,1.32-2.84,3.05
			c0,1.73,1.13,3.05,2.84,3.05C81.99,131.67,83.08,130.35,83.08,128.62z"/>
		<path class="st11" d="M101.51,127.63v5.65h-2.2v-5.23c0-1.75-0.62-2.39-1.75-2.39c-1.17,0-2.06,0.82-2.06,2.41v5.21h-2.2v-5.23
			c0-1.75-0.62-2.39-1.77-2.39c-1.2,0-2.06,0.91-2.06,2.54v5.07h-2.2v-9.32h2.2v1.17c0.54-0.87,1.48-1.46,2.54-1.46
			c1.44,0,2.45,0.52,2.95,1.65c0.68-1.2,1.79-1.65,3.05-1.65C100.2,123.67,101.51,125.15,101.51,127.63z"/>
		<path class="st11" d="M103.32,128.53c0-2.82,2.06-4.86,4.74-4.86c2.99,0,4.82,2.18,4.56,5.46h-7.09c0.16,1.71,1.18,2.64,2.6,2.64
			c1.36,0,2.25-0.7,2.74-1.83l1.71,0.7c-0.72,1.73-2.33,2.93-4.45,2.93C105.19,133.58,103.32,131.36,103.32,128.53z M110.55,127.6
			c-0.19-1.5-1.15-2.18-2.49-2.18c-1.36,0-2.29,0.93-2.51,2.18H110.55z"/>
		<path class="st11" d="M119.95,123.96v2c-2.25,0-3.09,1.17-3.09,2.76v4.56h-2.2v-9.32h2.2v1.52
			C117.54,124.55,118.63,123.96,119.95,123.96z"/>
		<path class="st11" d="M137.15,119.5v13.79h-2.04l-6.7-9.95v9.95h-2.2V119.5h2.04l6.7,9.95v-9.95H137.15z"/>
		<path class="st11" d="M148.73,131.33v1.96h-0.39c-1.57,0-2.29-0.31-2.58-1.26c-0.51,0.91-1.85,1.55-3.19,1.55
			c-1.81,0-3.26-0.99-3.26-2.76c0-2.49,3.05-3.09,5.96-3.59c-0.06-1.18-0.78-1.79-1.81-1.79c-1.11,0-1.96,0.58-2.31,1.77l-1.87-0.5
			c0.72-2.31,2.62-3.03,4.35-3.03c2.12,0,3.83,1.3,3.83,3.75v3.07c0,0.6,0.02,0.83,0.87,0.83H148.73z M145.27,128.74
			c-1.88,0.29-3.77,0.64-3.77,1.84c0,0.91,0.66,1.26,1.5,1.26c1.59,0,2.27-1.13,2.27-2.54V128.74z"/>
		<path class="st11" d="M165.02,127.63v5.65h-2.2v-5.23c0-1.75-0.62-2.39-1.75-2.39c-1.17,0-2.06,0.82-2.06,2.41v5.21h-2.2v-5.23
			c0-1.75-0.62-2.39-1.77-2.39c-1.2,0-2.06,0.91-2.06,2.54v5.07h-2.2v-9.32h2.2v1.17c0.54-0.87,1.48-1.46,2.54-1.46
			c1.44,0,2.45,0.52,2.95,1.65c0.68-1.2,1.79-1.65,3.05-1.65C163.72,123.67,165.02,125.15,165.02,127.63z"/>
		<path class="st11" d="M166.84,128.53c0-2.82,2.06-4.86,4.74-4.86c2.99,0,4.82,2.18,4.56,5.46h-7.09c0.16,1.71,1.18,2.64,2.6,2.64
			c1.36,0,2.25-0.7,2.74-1.83l1.71,0.7c-0.72,1.73-2.33,2.93-4.45,2.93C168.7,133.58,166.84,131.36,166.84,128.53z M174.06,127.6
			c-0.19-1.5-1.15-2.18-2.49-2.18c-1.36,0-2.29,0.93-2.51,2.18H174.06z"/>
	</g>
	<g class="st10">
		<path class="st11" d="M31.71,243.74c0-3.88,3.19-7.19,6.95-7.19c2.84,0,5.26,1.61,6.18,4.1l-2.08,0.7
			c-0.66-1.75-2.08-2.78-4.1-2.78c-2.64,0-4.74,2.25-4.74,5.17c0,2.91,2.1,5.17,4.74,5.17c1.98,0,3.26-0.97,4.04-2.54l2.04,0.83
			c-1.09,2.29-3.32,3.73-6.08,3.73C34.9,250.93,31.71,247.62,31.71,243.74z"/>
		<path class="st11" d="M55.78,248.67v1.96h-0.39c-1.57,0-2.29-0.31-2.58-1.26c-0.5,0.91-1.84,1.55-3.19,1.55
			c-1.81,0-3.26-0.99-3.26-2.76c0-2.49,3.05-3.09,5.96-3.59c-0.06-1.18-0.78-1.79-1.81-1.79c-1.11,0-1.96,0.58-2.31,1.77l-1.86-0.5
			c0.72-2.31,2.62-3.03,4.35-3.03c2.12,0,3.83,1.3,3.83,3.75v3.07c0,0.6,0.02,0.83,0.88,0.83H55.78z M52.32,246.09
			c-1.88,0.29-3.77,0.64-3.77,1.84c0,0.91,0.66,1.26,1.5,1.26c1.59,0,2.27-1.13,2.27-2.54V246.09z"/>
		<path class="st11" d="M63.13,241.31v2c-2.25,0-3.09,1.17-3.09,2.76v4.56h-2.2v-9.32h2.2v1.52
			C60.72,241.89,61.81,241.31,63.13,241.31z"/>
		<path class="st11" d="M63.99,245.97c0-3.07,2.27-4.95,4.74-4.95c1.22,0,2.43,0.52,3.01,1.4v-5.57h2.19v13.79h-2.19v-1.09
			c-0.58,0.87-1.79,1.38-3.01,1.38C66.26,250.93,63.99,249.04,63.99,245.97z M71.74,245.97c0-1.77-1.09-3.05-2.76-3.05
			c-1.75,0-2.8,1.32-2.8,3.05c0,1.73,1.05,3.05,2.8,3.05C70.65,249.02,71.74,247.74,71.74,245.97z"/>
		<path class="st11" d="M92.4,243.74c0,4.08-2.86,6.9-6.99,6.9h-4.54v-13.79h4.54C89.52,236.84,92.4,239.72,92.4,243.74z
			 M90.18,243.74c0-2.97-1.86-4.92-4.78-4.92h-2.35v9.83h2.35C88.32,248.65,90.18,246.75,90.18,243.74z"/>
		<path class="st11" d="M93.85,245.88c0-2.82,2.06-4.86,4.74-4.86c2.99,0,4.82,2.18,4.56,5.46h-7.09c0.16,1.71,1.19,2.64,2.6,2.64
			c1.36,0,2.25-0.7,2.74-1.83l1.71,0.7c-0.72,1.73-2.33,2.93-4.45,2.93C95.71,250.93,93.85,248.71,93.85,245.88z M101.08,244.94
			c-0.19-1.5-1.15-2.18-2.49-2.18c-1.36,0-2.29,0.93-2.51,2.18H101.08z"/>
		<path class="st11" d="M108.12,243.14v4.6c0,0.62,0.17,0.91,0.83,0.91h1.3v1.98h-1.38c-1.92,0-2.95-1.13-2.95-2.89v-4.6h-1.98
			v-1.83h1.98v-2.7l2.2-0.52v3.22h2.52v1.83H108.12z"/>
		<path class="st11" d="M121.64,248.67v1.96h-0.39c-1.57,0-2.29-0.31-2.58-1.26c-0.5,0.91-1.84,1.55-3.19,1.55
			c-1.81,0-3.26-0.99-3.26-2.76c0-2.49,3.05-3.09,5.96-3.59c-0.06-1.18-0.78-1.79-1.81-1.79c-1.11,0-1.96,0.58-2.31,1.77l-1.86-0.5
			c0.72-2.31,2.62-3.03,4.35-3.03c2.12,0,3.83,1.3,3.83,3.75v3.07c0,0.6,0.02,0.83,0.88,0.83H121.64z M118.18,246.09
			c-1.88,0.29-3.77,0.64-3.77,1.84c0,0.91,0.66,1.26,1.5,1.26c1.59,0,2.27-1.13,2.27-2.54V246.09z"/>
		<path class="st11" d="M124.96,237.23c0.78,0,1.42,0.6,1.42,1.42c0,0.78-0.64,1.36-1.42,1.36c-0.8,0-1.44-0.58-1.44-1.36
			C123.52,237.81,124.16,237.23,124.96,237.23z M126.04,250.63h-2.17v-9.32h2.17V250.63z"/>
		<path class="st11" d="M128.84,247.78v-10.94h2.2v10.92c0,0.6,0.21,0.91,0.76,0.91h0.7v1.96h-0.87
			C129.89,250.63,128.84,249.55,128.84,247.78z"/>
		<path class="st11" d="M134,248.15l2.06-0.5c0.21,0.87,0.8,1.51,1.83,1.51s1.71-0.45,1.71-1.2c0-1.85-5.21-0.72-5.21-3.94
			c0-1.73,1.5-2.99,3.5-2.99c1.61,0,2.74,0.7,3.46,2.02l-1.75,0.8c-0.37-0.64-0.91-1.05-1.73-1.05c-0.85,0-1.34,0.47-1.34,1.01
			c0,1.65,5.22,0.53,5.22,4.02c0,1.84-1.55,3.11-3.88,3.11C135.83,250.93,134.41,249.82,134,248.15z"/>
	</g>
	<path class="st12" d="M41,148.8h240c5.52,0,10,4.48,10,10v34c0,5.52-4.48,10-10,10H41c-5.52,0-10-4.48-10-10v-34
		C31,153.28,35.47,148.8,41,148.8z"/>
	<path class="st12" d="M41,265.53h240c5.52,0,10,4.48,10,10v34c0,5.52-4.48,10-10,10H41c-5.52,0-10-4.48-10-10v-34
		C31,270.01,35.47,265.53,41,265.53z"/>
	<g class="st10">
		<path d="M46.69,178.67l2.04-0.43c0.16,2.08,1.07,2.74,2.21,2.74c1.19,0,2.1-0.87,2.1-2.47v-9.62h2.19v9.62
			c0,2.64-1.75,4.47-4.29,4.47C48.44,182.98,46.89,181.39,46.69,178.67z"/>
		<path d="M57.04,178.03c0-2.78,2.14-4.95,5.03-4.95c2.91,0,5.05,2.18,5.05,4.95c0,2.78-2.14,4.95-5.05,4.95
			C59.18,182.98,57.04,180.8,57.04,178.03z M64.91,178.03c0-1.73-1.09-3.05-2.84-3.05c-1.71,0-2.84,1.32-2.84,3.05
			c0,1.73,1.13,3.05,2.84,3.05C63.82,181.08,64.91,179.75,64.91,178.03z"/>
		<path d="M78.17,177.33v5.36h-2.19v-5.01c0-1.79-0.82-2.6-2.25-2.6c-1.5,0-2.41,1.07-2.41,2.76v4.86h-2.2V168.9h2.2v5.79
			c0.6-0.97,1.55-1.61,2.87-1.61C76.62,173.07,78.17,174.53,78.17,177.33z"/>
		<path d="M89.84,177.33v5.36h-2.19v-5.01c0-1.79-0.84-2.6-2.25-2.6c-1.5,0-2.43,1.07-2.43,2.76v4.86h-2.2v-9.32h2.2v1.32
			c0.62-0.95,1.57-1.61,2.89-1.61C88.29,173.07,89.84,174.53,89.84,177.33z"/>
		<path d="M96.56,178.94l2.06-0.64c0.25,1.38,1.19,2.68,3.03,2.68c1.55,0,2.66-0.74,2.66-2.14c0-2.86-7.26-1.75-7.26-6.1
			c0-2.56,2.14-4.14,4.54-4.14c2.25,0,3.96,1.22,4.6,3.22l-2.04,0.56c-0.29-0.97-1.15-1.81-2.53-1.81c-1.19,0-2.33,0.56-2.33,1.94
			c0,2.66,7.26,1.4,7.26,6.16c0,2.6-1.98,4.29-4.95,4.29C98.67,182.98,96.98,181.06,96.56,178.94z"/>
		<path d="M122.76,177.04v5.65h-2.19v-5.23c0-1.75-0.62-2.39-1.75-2.39c-1.17,0-2.06,0.82-2.06,2.41v5.21h-2.19v-5.23
			c0-1.75-0.62-2.39-1.77-2.39c-1.2,0-2.06,0.91-2.06,2.54v5.07h-2.2v-9.32h2.2v1.17c0.54-0.87,1.48-1.46,2.54-1.46
			c1.44,0,2.45,0.52,2.95,1.65c0.68-1.2,1.79-1.65,3.05-1.65C121.46,173.07,122.76,174.55,122.76,177.04z"/>
		<path d="M126.6,169.28c0.78,0,1.42,0.6,1.42,1.42c0,0.78-0.64,1.36-1.42,1.36c-0.8,0-1.44-0.58-1.44-1.36
			C125.16,169.87,125.8,169.28,126.6,169.28z M127.68,182.69h-2.18v-9.32h2.18V182.69z"/>
		<path d="M133.55,175.19v4.6c0,0.62,0.17,0.91,0.83,0.91h1.3v1.98h-1.38c-1.92,0-2.95-1.13-2.95-2.89v-4.6h-1.98v-1.83h1.98v-2.7
			l2.19-0.52v3.22h2.52v1.83H133.55z"/>
		<path d="M146.81,177.33v5.36h-2.19v-5.01c0-1.79-0.82-2.6-2.25-2.6c-1.5,0-2.41,1.07-2.41,2.76v4.86h-2.2V168.9h2.2v5.79
			c0.6-0.97,1.55-1.61,2.87-1.61C145.26,173.07,146.81,174.53,146.81,177.33z"/>
	</g>
	<g class="st10">
		<path d="M49.9,293.13l-0.99,1.69l-1.28-0.99l1.26-1.61l-1.87-0.58l0.49-1.44l1.73,0.8l-0.12-1.86h1.63l-0.14,1.84l1.67-0.78
			l0.54,1.46l-1.9,0.56l1.24,1.65l-1.34,0.95L49.9,293.13z"/>
		<path d="M57.78,293.13l-0.99,1.69l-1.28-0.99l1.26-1.61l-1.86-0.58l0.49-1.44l1.73,0.8l-0.12-1.86h1.63l-0.14,1.84l1.67-0.78
			l0.54,1.46l-1.9,0.56l1.24,1.65l-1.34,0.95L57.78,293.13z"/>
		<path d="M65.67,293.13l-0.99,1.69l-1.28-0.99l1.26-1.61l-1.87-0.58l0.49-1.44l1.73,0.8l-0.12-1.86h1.63l-0.14,1.84l1.67-0.78
			l0.54,1.46l-1.9,0.56l1.24,1.65l-1.34,0.95L65.67,293.13z"/>
		<path d="M73.55,293.13l-0.99,1.69l-1.28-0.99l1.26-1.61l-1.86-0.58l0.49-1.44l1.73,0.8l-0.12-1.86h1.63l-0.14,1.84l1.67-0.78
			l0.54,1.46l-1.9,0.56l1.24,1.65l-1.34,0.95L73.55,293.13z"/>
		<path d="M86.15,293.13l-0.99,1.69l-1.28-0.99l1.26-1.61l-1.86-0.58l0.49-1.44l1.73,0.8l-0.12-1.86h1.63l-0.14,1.84l1.67-0.78
			l0.54,1.46l-1.9,0.56l1.24,1.65l-1.34,0.95L86.15,293.13z"/>
		<path d="M94.03,293.13l-0.99,1.69l-1.28-0.99l1.26-1.61l-1.87-0.58l0.49-1.44l1.73,0.8l-0.12-1.86h1.63l-0.14,1.84l1.67-0.78
			l0.54,1.46l-1.9,0.56l1.24,1.65l-1.34,0.95L94.03,293.13z"/>
		<path d="M101.92,293.13l-0.99,1.69l-1.28-0.99l1.26-1.61l-1.86-0.58l0.49-1.44l1.73,0.8l-0.12-1.86h1.63l-0.14,1.84l1.67-0.78
			l0.54,1.46l-1.9,0.56l1.24,1.65l-1.34,0.95L101.92,293.13z"/>
		<path d="M109.8,293.13l-0.99,1.69l-1.28-0.99l1.26-1.61l-1.87-0.58l0.49-1.44l1.73,0.8l-0.12-1.86h1.63l-0.14,1.84l1.67-0.78
			l0.54,1.46l-1.9,0.56l1.24,1.65l-1.34,0.95L109.8,293.13z"/>
		<path d="M122.4,293.13l-0.99,1.69l-1.28-0.99l1.26-1.61l-1.87-0.58l0.49-1.44l1.73,0.8l-0.12-1.86h1.63l-0.14,1.84l1.67-0.78
			l0.54,1.46l-1.9,0.56l1.24,1.65l-1.34,0.95L122.4,293.13z"/>
		<path d="M130.29,293.13l-0.99,1.69l-1.28-0.99l1.26-1.61l-1.86-0.58l0.49-1.44l1.73,0.8l-0.12-1.86h1.63l-0.14,1.84l1.67-0.78
			l0.54,1.46l-1.9,0.56l1.24,1.65l-1.34,0.95L130.29,293.13z"/>
		<path d="M138.17,293.13l-0.99,1.69l-1.28-0.99l1.26-1.61l-1.87-0.58l0.49-1.44l1.73,0.8l-0.12-1.86h1.63l-0.14,1.84l1.67-0.78
			l0.54,1.46l-1.9,0.56l1.24,1.65l-1.34,0.95L138.17,293.13z"/>
		<path d="M146.05,293.13l-0.99,1.69l-1.28-0.99l1.26-1.61l-1.86-0.58l0.49-1.44l1.73,0.8l-0.12-1.86h1.63l-0.14,1.84l1.67-0.78
			l0.54,1.46l-1.9,0.56l1.24,1.65l-1.34,0.95L146.05,293.13z"/>
		<path d="M165.92,298.43c0,2.68-2.27,4.78-5.07,4.78c-2.49,0-4.51-1.69-4.95-3.81l2.18-0.52c0.23,1.26,1.34,2.31,2.78,2.31
			c1.57,0,2.86-1.19,2.86-2.76c0-1.69-1.2-2.89-2.86-2.89c-1.07,0-1.94,0.43-2.7,1.32l-1.87-0.49l1.63-7.25h7.5v1.98h-5.92
			l-0.76,3.13c0.78-0.45,1.65-0.72,2.51-0.72C163.88,293.52,165.92,295.63,165.92,298.43z"/>
		<path d="M178.4,299.05c0,2.45-2.17,4.16-5.11,4.16c-2.95,0-5.09-1.69-5.09-4.14c0-1.57,0.8-2.84,2.33-3.5
			c-1.24-0.66-1.87-1.61-1.87-3.03c0-2.23,2.1-3.71,4.62-3.71s4.64,1.52,4.64,3.71c0,1.42-0.62,2.37-1.88,3.03
			C177.59,296.22,178.4,297.46,178.4,299.05z M176.19,298.92c0-1.5-1.17-2.35-2.89-2.35c-1.67,0-2.88,0.89-2.88,2.37
			c0,1.36,1.13,2.29,2.88,2.29C175.01,301.23,176.19,300.26,176.19,298.92z M170.89,292.68c0,1.28,1.07,2.04,2.41,2.04
			c1.46,0,2.43-0.72,2.43-2.04c0-1.15-1.05-1.87-2.43-1.87S170.89,291.54,170.89,292.68z"/>
		<path d="M189.8,298.61c0,2.58-2.18,4.6-4.84,4.6c-2.39,0-4.47-1.67-4.84-3.87l2.21-0.5c0.14,1.32,1.28,2.31,2.62,2.31
			c1.44,0,2.62-1.03,2.62-2.54c0-1.73-1.18-2.84-2.91-2.74c-0.43,0-0.93,0.19-1.38,0.45l-0.8-1.5l3.96-3.71h-5.79v-1.98h8.84v1.63
			l-3.75,3.44C188.29,294.35,189.8,296.29,189.8,298.61z"/>
		<path d="M202.21,299.05c0,2.45-2.17,4.16-5.11,4.16c-2.95,0-5.09-1.69-5.09-4.14c0-1.57,0.8-2.84,2.33-3.5
			c-1.24-0.66-1.87-1.61-1.87-3.03c0-2.23,2.1-3.71,4.62-3.71s4.64,1.52,4.64,3.71c0,1.42-0.62,2.37-1.88,3.03
			C201.39,296.22,202.21,297.46,202.21,299.05z M200,298.92c0-1.5-1.17-2.35-2.89-2.35c-1.67,0-2.88,0.89-2.88,2.37
			c0,1.36,1.13,2.29,2.88,2.29C198.81,301.23,200,300.26,200,298.92z M194.69,292.68c0,1.28,1.07,2.04,2.41,2.04
			c1.46,0,2.43-0.72,2.43-2.04c0-1.15-1.05-1.87-2.43-1.87S194.69,291.54,194.69,292.68z"/>
	</g>
	<path class="st0" d="M261,80.75H61c-5.52,0-10-4.48-10-10v-60c0-5.52,4.48-10,10-10h200c5.52,0,10,4.48,10,10v60
		C271,76.27,266.52,80.75,261,80.75z"/>
	<g>
		<g class="st10">
			<path class="st7" d="M110.08,31.13l-6.33,11.21v6.71h-2.42v-6.71l-6.41-11.21h2.8l4.85,8.81l4.74-8.81H110.08z"/>
			<path class="st7" d="M108.47,42.99c0-3.61,2.75-6.44,6.51-6.44c3.76,0,6.49,2.83,6.49,6.44c0,3.58-2.73,6.44-6.49,6.44
				C111.22,49.43,108.47,46.58,108.47,42.99z M118.99,42.99c0-2.42-1.56-4.29-4.01-4.29c-2.37,0-4.04,1.87-4.04,4.29
				c0,2.4,1.64,4.29,4.04,4.29C117.43,47.28,118.99,45.39,118.99,42.99z"/>
			<path class="st7" d="M136.99,46.83v2.22h-0.73c-1.62,0-2.3-0.66-2.6-1.87c-0.93,1.41-2.47,2.25-4.37,2.25
				c-3.1,0-5.17-1.84-5.17-5.53v-6.97h2.45v6.61c0,2.57,1.19,3.63,3.18,3.63c2.15,0,3.51-1.57,3.51-3.86v-6.38h2.42v8.61
				c0,0.88,0.05,1.29,0.81,1.29H136.99z"/>
			<path class="st7" d="M146.53,36.94v2.25c-2.83,0-4.09,1.64-4.09,3.86v6.01h-2.42V36.94h2.42v2.15
				C143.33,37.74,144.76,36.94,146.53,36.94z"/>
			<path class="st7" d="M154.41,40.09c0-5.05,4.14-9.34,8.98-9.34c3.69,0,6.79,2.09,8,5.3l-2.32,0.78
				c-0.91-2.37-2.93-3.81-5.68-3.81c-3.58,0-6.51,3.13-6.51,7.07c0,3.94,2.93,7.07,6.51,7.07c2.68,0,4.54-1.36,5.58-3.51l2.27,0.93
				c-1.41,3-4.32,4.85-7.85,4.85C158.55,49.43,154.41,45.14,154.41,40.09z"/>
			<path class="st7" d="M174.05,45.57V31.13h2.45v14.41c0,0.88,0.28,1.29,1.06,1.29h0.98v2.22h-1.21
				C175.23,49.05,174.05,47.74,174.05,45.57z"/>
			<path class="st7" d="M182.63,31.76c0.91,0,1.64,0.71,1.64,1.64c0,0.91-0.76,1.62-1.64,1.62c-0.93,0-1.69-0.71-1.69-1.62
				C180.94,32.44,181.69,31.76,182.63,31.76z M183.84,49.05h-2.42V36.94h2.42V49.05z"/>
			<path class="st7" d="M186.79,42.84c0-3.61,2.62-6.28,6.11-6.28c3.91,0,6.26,2.78,5.93,6.97h-9.54c0.2,2.52,1.69,3.84,3.68,3.84
				c1.94,0,3.18-0.98,3.89-2.6l1.94,0.81c-0.93,2.27-3,3.86-5.83,3.86C189.17,49.43,186.79,46.5,186.79,42.84z M196.48,41.73
				c-0.2-2.2-1.64-3.18-3.58-3.18c-2.02,0-3.33,1.41-3.58,3.18H196.48z"/>
			<path class="st7" d="M213.12,42.08v6.97h-2.45v-6.64c0-2.5-1.19-3.61-3.18-3.61c-2.15,0-3.51,1.57-3.51,3.86v6.38h-2.42V36.94
				h2.42v1.94c0.83-1.39,2.15-2.32,3.96-2.32C211.05,36.56,213.12,38.37,213.12,42.08z"/>
			<path class="st7" d="M219.3,39.01v6.51c0,0.88,0.25,1.31,1.24,1.31h1.62v2.22h-1.67c-2.45,0-3.61-1.39-3.61-3.58v-6.46h-2.62
				v-2.07h2.62v-3.58l2.42-0.63v4.21h3.36v2.07H219.3z"/>
		</g>
	</g>
	<g>
		<g>
			<g>
				<rect x="43.5" y="545.23" class="st3" width="235" height="65"/>
				<rect x="51" y="552.73" class="st4" width="157.5" height="50"/>
				<rect x="58.5" y="557.73" class="st6" width="5" height="40"/>
				<rect x="71" y="557.73" class="st6" width="5" height="40"/>
				<rect x="83.5" y="557.73" class="st6" width="5" height="40"/>
				<rect x="96" y="557.73" class="st6" width="5" height="40"/>
				<rect x="108.5" y="557.73" class="st6" width="5" height="40"/>
				<rect x="121" y="557.73" class="st6" width="5" height="40"/>
				<rect x="133.5" y="557.73" class="st6" width="5" height="40"/>
				<rect x="146" y="557.73" class="st6" width="5" height="40"/>
				<rect x="158.5" y="557.73" class="st6" width="5" height="40"/>
				<rect x="171" y="557.73" class="st6" width="5" height="40"/>
				<rect x="183.5" y="557.73" class="st5" width="5" height="40"/>
				<rect x="196" y="557.73" class="st6" width="5" height="40"/>
				<rect x="263.5" y="552.73" class="st6" width="7.5" height="50"/>
				<circle class="st6" cx="252" cy="556.73" r="4"/>
				<circle class="st5" cx="252" cy="570.73" r="4"/>
				<circle class="st7" cx="252" cy="598.73" r="4"/>
				<circle class="st6" cx="252" cy="584.73" r="4"/>
				<rect x="51" y="610.23" class="st8" width="220" height="5"/>
			</g>
		</g>
		<g>
			<g>
				<rect x="43.5" y="615.23" class="st3" width="235" height="65"/>
				<rect x="51" y="680.23" class="st8" width="220" height="5"/>
			</g>
			<g>
				<rect x="51" y="625.79" class="st8" width="5" height="5"/>
				<rect x="61" y="625.79" class="st8" width="5" height="5"/>
				<rect x="71" y="625.79" class="st8" width="5" height="5"/>
				<rect x="81" y="625.79" class="st8" width="5" height="5"/>
				<rect x="91" y="625.79" class="st8" width="5" height="5"/>
				<rect x="101" y="625.79" class="st8" width="5" height="5"/>
				<rect x="111" y="625.79" class="st8" width="5" height="5"/>
				<rect x="121" y="625.79" class="st8" width="5" height="5"/>
				<rect x="131" y="625.79" class="st8" width="5" height="5"/>
				<rect x="141" y="625.79" class="st8" width="5" height="5"/>
				<rect x="56" y="635.79" class="st8" width="5" height="5"/>
				<rect x="66" y="635.79" class="st8" width="5" height="5"/>
				<rect x="76" y="635.79" class="st8" width="5" height="5"/>
				<rect x="86" y="635.79" class="st8" width="5" height="5"/>
				<rect x="96" y="635.79" class="st8" width="5" height="5"/>
				<rect x="106" y="635.79" class="st8" width="5" height="5"/>
				<rect x="116" y="635.79" class="st8" width="5" height="5"/>
				<rect x="126" y="635.79" class="st8" width="5" height="5"/>
				<rect x="136" y="635.79" class="st8" width="5" height="5"/>
				<rect x="51" y="645.79" class="st8" width="5" height="5"/>
				<rect x="61" y="645.79" class="st8" width="5" height="5"/>
				<rect x="71" y="645.79" class="st8" width="5" height="5"/>
				<rect x="81" y="645.79" class="st8" width="5" height="5"/>
				<rect x="91" y="645.79" class="st8" width="5" height="5"/>
				<rect x="101" y="645.79" class="st8" width="5" height="5"/>
				<rect x="111" y="645.79" class="st8" width="5" height="5"/>
				<rect x="121" y="645.79" class="st8" width="5" height="5"/>
				<rect x="131" y="645.79" class="st8" width="5" height="5"/>
				<rect x="141" y="645.79" class="st8" width="5" height="5"/>
				<rect x="56" y="655.79" class="st8" width="5" height="5"/>
				<rect x="66" y="655.79" class="st8" width="5" height="5"/>
				<rect x="76" y="655.79" class="st8" width="5" height="5"/>
				<rect x="86" y="655.79" class="st8" width="5" height="5"/>
				<rect x="96" y="655.79" class="st8" width="5" height="5"/>
				<rect x="106" y="655.79" class="st8" width="5" height="5"/>
				<rect x="116" y="655.79" class="st8" width="5" height="5"/>
				<rect x="126" y="655.79" class="st8" width="5" height="5"/>
				<rect x="136" y="655.79" class="st8" width="5" height="5"/>
				<rect x="51" y="665.79" class="st8" width="5" height="5"/>
				<rect x="61" y="665.79" class="st8" width="5" height="5"/>
				<rect x="71" y="665.79" class="st8" width="5" height="5"/>
				<rect x="81" y="665.79" class="st8" width="5" height="5"/>
				<rect x="91" y="665.79" class="st8" width="5" height="5"/>
				<rect x="101" y="665.79" class="st8" width="5" height="5"/>
				<rect x="111" y="665.79" class="st8" width="5" height="5"/>
				<rect x="121" y="665.79" class="st8" width="5" height="5"/>
				<rect x="131" y="665.79" class="st8" width="5" height="5"/>
				<rect x="141" y="665.79" class="st8" width="5" height="5"/>
			</g>
			<rect x="258.5" y="622.73" class="st4" width="12.5" height="50"/>
			<path class="st9" d="M264.75,647.76L264.75,647.76c-2.07,0-3.75-1.68-3.75-3.75v-15.03c0-2.07,1.68-3.75,3.75-3.75l0,0
				c2.07,0,3.75,1.68,3.75,3.75v15.03C268.5,646.08,266.82,647.76,264.75,647.76z"/>
			<circle class="st7" cx="264.75" cy="665.79" r="4"/>
			<circle cx="264.75" cy="629.23" r="2.5"/>
		</g>
	</g>
	<path id="Rectangle_921_00000088133769790530361200000008236836430868348844_" class="st13" d="M461.48,198.53l5.86-5.86
		c1.62-1.62,4.24-1.62,5.86,0l5.86,5.86c1.62,1.62,1.62,4.24,0,5.86l-5.86,5.86c-1.62,1.62-4.24,1.62-5.86,0l-5.86-5.86
		C459.86,202.77,459.86,200.14,461.48,198.53z"/>
	<path id="Rectangle_921_00000113312429860812732730000010858082458324057474_" class="st14" d="M402.21,607.45l5.86-5.86
		c1.62-1.62,4.24-1.62,5.86,0l5.86,5.86c1.62,1.62,1.62,4.24,0,5.86l-5.86,5.86c-1.62,1.62-4.24,1.62-5.86,0l-5.86-5.86
		C400.59,611.69,400.59,609.07,402.21,607.45z"/>
	<g class="st10">
		<path d="M360.37,653.54l2.3-0.73c0.38,1.72,1.61,3.56,4.25,3.56c2.23,0,3.81-1.09,3.81-3.1c0-4.04-9.75-2.45-9.75-8.08
			c0-3.41,2.92-5.25,5.89-5.25c2.89,0,5.09,1.51,5.94,4.01l-2.28,0.68c-0.49-1.39-1.69-2.47-3.61-2.47c-1.64,0-3.4,0.76-3.4,2.78
			c0,3.76,9.75,1.99,9.75,8.18c0,3.33-2.53,5.5-6.4,5.5C363.01,658.61,360.96,656.11,360.37,653.54z"/>
		<path d="M375.36,652.02c0-3.61,2.66-6.28,6.19-6.28c3.97,0,6.35,2.78,6.01,6.97h-9.67c0.21,2.52,1.71,3.84,3.74,3.84
			c1.97,0,3.22-0.98,3.94-2.6l1.97,0.81c-0.95,2.27-3.04,3.86-5.91,3.86C377.77,658.61,375.36,655.68,375.36,652.02z M385.19,650.91
			c-0.2-2.2-1.66-3.18-3.63-3.18c-2.05,0-3.38,1.41-3.63,3.18H385.19z"/>
		<path d="M397.06,646.12v2.25c-2.87,0-4.15,1.64-4.15,3.86v6.01h-2.46v-12.11h2.46v2.15C393.81,646.93,395.27,646.12,397.06,646.12
			z"/>
		<path d="M411.34,646.12l-5.32,12.11h-2.18l-5.32-12.11h2.69l3.74,9.34l3.74-9.34H411.34z"/>
		<path d="M412.23,652.02c0-3.61,2.66-6.28,6.19-6.28c3.97,0,6.35,2.78,6.01,6.97h-9.67c0.21,2.52,1.71,3.84,3.74,3.84
			c1.97,0,3.22-0.98,3.94-2.6l1.97,0.81c-0.95,2.27-3.04,3.86-5.91,3.86C414.64,658.61,412.23,655.68,412.23,652.02z M422.06,650.91
			c-0.2-2.2-1.66-3.18-3.63-3.18c-2.05,0-3.38,1.41-3.63,3.18H422.06z"/>
		<path d="M433.93,646.12v2.25c-2.87,0-4.15,1.64-4.15,3.86v6.01h-2.46v-12.11h2.46v2.15C430.68,646.93,432.14,646.12,433.93,646.12
			z"/>
		<path d="M454.17,653.84h-8.29l-1.69,4.39h-2.66l7.24-17.92h2.48l7.24,17.92h-2.64L454.17,653.84z M453.35,651.72l-3.35-8.71
			l-3.33,8.71H453.35z"/>
		<path d="M473.56,645.89c0,3.38-2.58,5.53-6.12,5.53h-4.04v6.81h-2.48v-17.92h6.53C470.95,640.31,473.56,642.48,473.56,645.89z
			 M471.08,645.87c0-2.17-1.59-3.33-3.89-3.33h-3.79v6.69h3.86C469.55,649.22,471.08,648.04,471.08,645.87z"/>
		<path d="M476.38,640.31h2.48v17.92h-2.48V640.31z"/>
		<path d="M493.67,650.23l-2.61,3.25v4.75h-2.48v-17.92h2.48v9.72l7.37-9.72h3.12l-6.32,7.92l7.17,9.99h-3.22L493.67,650.23z"/>
		<path d="M502.75,652.02c0-3.61,2.66-6.28,6.19-6.28c3.97,0,6.35,2.78,6.01,6.97h-9.67c0.21,2.52,1.71,3.84,3.74,3.84
			c1.97,0,3.22-0.98,3.94-2.6l1.97,0.81c-0.95,2.27-3.04,3.86-5.91,3.86C505.16,658.61,502.75,655.68,502.75,652.02z M512.58,650.91
			c-0.2-2.2-1.66-3.18-3.63-3.18c-2.05,0-3.38,1.41-3.63,3.18H512.58z"/>
		<path d="M528.98,646.12l-7.63,17.92h-2.64l2.53-5.78l-5.35-12.14h2.69l3.92,9.39l3.79-9.39H528.98z"/>
	</g>
	<g class="st10">
		<path d="M362.47,238.36c0-5.05,4.2-9.34,9.11-9.34c3.74,0,6.88,2.09,8.11,5.3l-2.35,0.78c-0.92-2.37-2.97-3.81-5.76-3.81
			c-3.63,0-6.6,3.13-6.6,7.07c0,3.94,2.97,7.07,6.6,7.07c2.71,0,4.61-1.36,5.66-3.51l2.3,0.93c-1.43,3-4.38,4.85-7.96,4.85
			C366.66,247.7,362.47,243.41,362.47,238.36z"/>
		<path d="M382.37,243.84V229.4h2.48v14.41c0,0.88,0.28,1.29,1.07,1.29h1v2.22h-1.23C383.58,247.32,382.37,246.01,382.37,243.84z"/>
		<path d="M391.07,230.04c0.92,0,1.66,0.71,1.66,1.64c0,0.91-0.77,1.62-1.66,1.62c-0.95,0-1.71-0.71-1.71-1.62
			C389.36,230.72,390.13,230.04,391.07,230.04z M392.3,247.32h-2.46v-12.11h2.46V247.32z"/>
		<path d="M395.29,241.11c0-3.61,2.66-6.28,6.19-6.28c3.97,0,6.35,2.78,6.01,6.97h-9.67c0.21,2.52,1.71,3.84,3.74,3.84
			c1.97,0,3.22-0.98,3.94-2.6l1.97,0.81c-0.95,2.27-3.04,3.86-5.91,3.86C397.7,247.7,395.29,244.77,395.29,241.11z M405.12,240
			c-0.21-2.2-1.66-3.18-3.63-3.18c-2.05,0-3.38,1.41-3.63,3.18H405.12z"/>
		<path d="M421.98,240.36v6.97h-2.48v-6.64c0-2.5-1.2-3.61-3.22-3.61c-2.17,0-3.56,1.57-3.56,3.86v6.38h-2.46v-12.11h2.46v1.94
			c0.84-1.39,2.17-2.32,4.02-2.32C419.88,234.83,421.98,236.65,421.98,240.36z"/>
		<path d="M428.25,237.28v6.51c0,0.88,0.26,1.31,1.25,1.31h1.64v2.22h-1.69c-2.48,0-3.66-1.39-3.66-3.58v-6.46h-2.66v-2.07h2.66
			v-3.58l2.46-0.63v4.21h3.4v2.07H428.25z"/>
		<path d="M451.71,242.93h-8.29l-1.69,4.39h-2.66l7.24-17.92h2.48l7.24,17.92h-2.64L451.71,242.93z M450.89,240.81l-3.35-8.71
			l-3.33,8.71H450.89z"/>
		<path d="M471.11,234.98c0,3.38-2.58,5.53-6.12,5.53h-4.04v6.81h-2.48V229.4h6.53C468.5,229.4,471.11,231.57,471.11,234.98z
			 M468.62,234.96c0-2.17-1.59-3.33-3.89-3.33h-3.79v6.69h3.86C467.09,238.31,468.62,237.13,468.62,234.96z"/>
		<path d="M473.92,229.4h2.48v17.92h-2.48V229.4z"/>
		<path d="M491.22,239.32l-2.61,3.25v4.75h-2.48V229.4h2.48v9.72l7.37-9.72h3.12l-6.32,7.92l7.17,9.99h-3.22L491.22,239.32z"/>
		<path d="M500.3,241.11c0-3.61,2.66-6.28,6.19-6.28c3.97,0,6.35,2.78,6.01,6.97h-9.67c0.21,2.52,1.71,3.84,3.74,3.84
			c1.97,0,3.22-0.98,3.94-2.6l1.97,0.81c-0.95,2.27-3.04,3.86-5.91,3.86C502.7,247.7,500.3,244.77,500.3,241.11z M510.12,240
			c-0.2-2.2-1.66-3.18-3.63-3.18c-2.05,0-3.38,1.41-3.63,3.18H510.12z"/>
		<path d="M526.52,235.21l-7.63,17.92h-2.64l2.53-5.78l-5.35-12.14h2.69l3.92,9.39l3.79-9.39H526.52z"/>
	</g>
	<g>
		<g id="Rectangle_958_00000057126192938991470780000012394720406412633756_" transform="translate(988.722 2569.271) rotate(180)">
			<g>
				<path class="st14" d="M560.09,1987.89c10.48,0,19,8.52,19,19s-8.52,19-19,19h-34c-10.48,0-19-8.52-19-19s8.52-19,19-19H560.09z"
					/>
				<path class="st3" d="M526.09,2024.89c-9.94,0-18-8.06-18-18s8.06-18,18-18h34c9.94,0,18,8.06,18,18s-8.06,18-18,18H526.09
					 M526.09,2026.89h34c11.03,0,20-8.97,20-20s-8.97-20-20-20h-34c-11.03,0-20,8.97-20,20S515.06,2026.89,526.09,2026.89
					L526.09,2026.89z"/>
			</g>
		</g>
		<circle id="Ellipse_261_00000018959095346127237980000011655517340027782042_" class="st7" cx="460.69" cy="562.38" r="12.46"/>
		<path id="Icon_awesome-lock_00000111894652035469512000000006520917949900459420_" class="st7" d="M434.43,560.82h-0.57v-1.72
			c-0.08-2.01-1.76-3.58-3.77-3.5c-1.9,0.07-3.43,1.6-3.5,3.5v1.72h-0.57c-0.63,0-1.15,0.51-1.15,1.15l0,0v4.59
			c0,0.63,0.51,1.15,1.15,1.15l0,0h8.42c0.63,0,1.15-0.51,1.15-1.15l0,0v-4.59C435.58,561.33,435.07,560.82,434.43,560.82
			L434.43,560.82z M431.95,560.82h-3.44v-1.72c0.04-0.95,0.84-1.69,1.79-1.65c0.9,0.04,1.61,0.75,1.65,1.65V560.82z"/>
	</g>
	<g>
		<g id="Rectangle_958_00000154388035823706009280000002710253598217933994_" transform="translate(988.722 2569.271) rotate(180)">
			<path class="st15" d="M525.27,2397.79h34.46c10.08,0,18.24,8.06,18.24,18l0,0c0,9.94-8.17,18-18.24,18h-34.46
				c-10.08,0-18.24-8.06-18.24-18l0,0C507.03,2405.85,515.2,2397.79,525.27,2397.79z"/>
		</g>

			<ellipse id="Ellipse_261_00000083076997453396615020000004636994765503194020_" class="st7" cx="461.48" cy="153.48" rx="12.63" ry="12.46"/>
		<path id="Icon_awesome-lock_00000080207395808428581480000018416639811084798377_" class="st7" d="M434.87,151.92h-0.58v-1.72
			c-0.08-2.01-1.79-3.58-3.83-3.5c-1.93,0.07-3.48,1.6-3.55,3.5v1.72h-0.58c-0.64,0-1.16,0.51-1.16,1.15l0,0v4.6
			c0,0.63,0.52,1.15,1.16,1.15l0,0h8.54c0.64,0,1.16-0.51,1.16-1.15l0,0v-4.6C436.04,152.43,435.52,151.92,434.87,151.92
			L434.87,151.92z M432.35,151.92h-3.49v-1.72c0.04-0.95,0.85-1.69,1.82-1.65c0.91,0.04,1.64,0.75,1.67,1.65V151.92z"/>
	</g>
	<g>
		<path class="st0" d="M825.26,164.05h-190c-5.52,0-10-4.48-10-10v-70c0-5.52,4.48-10,10-10h190c5.52,0,10,4.48,10,10v70
			C835.26,159.57,830.79,164.05,825.26,164.05z"/>
		<g>
			<g class="st10">
				<path class="st7" d="M669.87,105.39c0-5.05,4.14-9.34,8.98-9.34c3.69,0,6.79,2.09,8,5.3l-2.32,0.78
					c-0.91-2.37-2.93-3.81-5.68-3.81c-3.58,0-6.51,3.13-6.51,7.07c0,3.94,2.93,7.07,6.51,7.07c2.68,0,4.54-1.36,5.58-3.51l2.27,0.93
					c-1.41,3-4.32,4.85-7.85,4.85C674.01,114.73,669.87,110.44,669.87,105.39z"/>
				<path class="st7" d="M688.63,108.29c0-3.61,2.75-6.44,6.51-6.44c3.76,0,6.49,2.83,6.49,6.44c0,3.58-2.73,6.44-6.49,6.44
					C691.38,114.73,688.63,111.88,688.63,108.29z M699.15,108.29c0-2.42-1.56-4.29-4.01-4.29c-2.37,0-4.04,1.87-4.04,4.29
					c0,2.4,1.64,4.29,4.04,4.29C697.59,112.58,699.15,110.69,699.15,108.29z"/>
				<path class="st7" d="M722.8,107.03v7.32h-2.42v-6.92c0-2.45-0.96-3.33-2.57-3.33c-1.64,0-2.98,1.21-2.98,3.38v6.87h-2.42v-6.92
					c0-2.45-0.96-3.33-2.57-3.33c-1.74,0-2.98,1.39-2.98,3.66v6.59h-2.45v-12.11h2.45v1.64c0.76-1.26,2.02-2.02,3.46-2.02
					c1.89,0,3.26,0.68,3.94,2.25c0.88-1.62,2.37-2.25,4.04-2.25C721.06,101.86,722.8,103.62,722.8,107.03z"/>
				<path class="st7" d="M732.04,114.73c-3.71,0-6.46-2.93-6.46-6.59c0-3.61,2.73-6.28,6.49-6.28c2.62,0,4.67,1.34,5.58,3.51
					l-2.09,0.86c-0.58-1.44-1.72-2.22-3.48-2.22c-2.4,0-4.01,1.72-4.01,4.14s1.59,4.44,3.99,4.44c1.67,0,2.8-0.83,3.43-2.27
					l2.07,0.91C736.59,113.36,734.64,114.73,732.04,114.73z"/>
				<path class="st7" d="M751.78,112.13v2.22h-0.55c-1.97,0-2.85-0.48-3.13-1.74c-0.68,1.24-2.47,2.12-4.19,2.12
					c-2.37,0-4.21-1.29-4.21-3.61c0-3.23,4.09-3.99,7.92-4.64c-0.05-1.72-1.08-2.6-2.6-2.6c-1.56,0-2.78,0.78-3.23,2.47l-2.12-0.56
					c0.83-2.9,3.26-3.94,5.53-3.94c2.67,0,4.85,1.67,4.85,4.8v4.32c0,0.88,0.05,1.16,1.19,1.16H751.78z M747.62,108.22
					c-2.73,0.43-5.48,0.91-5.48,2.7c0,1.29,0.93,1.84,2.2,1.84c2.22,0,3.28-1.56,3.28-3.68V108.22z"/>
				<path class="st7" d="M761.1,102.23v2.25c-2.83,0-4.09,1.64-4.09,3.86v6.01h-2.42v-12.11h2.42v2.15
					C757.89,103.04,759.33,102.23,761.1,102.23z"/>
				<path class="st7" d="M762.28,108.29c0-3.89,2.83-6.44,6.18-6.44c1.67,0,3.31,0.73,4.14,2.02v-7.45h2.42v17.92h-2.42v-1.64
					c-0.83,1.29-2.47,2.02-4.14,2.02C765.11,114.73,762.28,112.15,762.28,108.29z M772.61,108.29c0-2.5-1.62-4.29-3.89-4.29
					c-2.45,0-3.96,1.89-3.96,4.29c0,2.4,1.51,4.29,3.96,4.29C770.99,112.58,772.61,110.79,772.61,108.29z"/>
				<path class="st7" d="M777.81,108.14c0-3.61,2.62-6.28,6.11-6.28c3.91,0,6.26,2.78,5.93,6.97h-9.54c0.2,2.52,1.69,3.84,3.68,3.84
					c1.94,0,3.18-0.98,3.89-2.6l1.94,0.81c-0.93,2.27-3,3.86-5.83,3.86C780.18,114.73,777.81,111.8,777.81,108.14z M787.5,107.03
					c-0.2-2.2-1.64-3.18-3.58-3.18c-2.02,0-3.33,1.41-3.58,3.18H787.5z"/>
			</g>
			<g class="st10">
				<path class="st7" d="M689.29,140.35l-3.36-6.81h-0.05h-3.99v6.81h-2.45v-17.92h6.44c3.46,0,6.03,2.17,6.03,5.58
					c0,2.5-1.39,4.32-3.51,5.1l3.61,7.24H689.29z M681.9,131.34h3.81c2.25,0,3.76-1.19,3.76-3.36c0-2.17-1.57-3.33-3.84-3.33h-3.74
					V131.34z"/>
				<path class="st7" d="M697.55,124.65v5.58h8.2v2.22h-8.2v5.68h8.96v2.22h-11.38v-17.92h11.38v2.22H697.55z"/>
				<path class="st7" d="M708.63,135.65l2.27-0.73c0.38,1.72,1.59,3.56,4.19,3.56c2.2,0,3.76-1.09,3.76-3.1
					c0-4.04-9.62-2.45-9.62-8.08c0-3.41,2.88-5.25,5.8-5.25c2.85,0,5.02,1.51,5.86,4.01l-2.25,0.68c-0.48-1.39-1.67-2.47-3.56-2.47
					c-1.62,0-3.36,0.76-3.36,2.78c0,3.76,9.62,1.99,9.62,8.18c0,3.33-2.5,5.5-6.31,5.5S709.21,138.23,708.63,135.65z"/>
				<path class="st7" d="M735.91,124.65h-5.65v15.7h-2.42v-15.7h-5.68v-2.22h13.75V124.65z"/>
				<path class="st7" d="M755.96,135.96h-8.18l-1.67,4.39h-2.62l7.14-17.92h2.45l7.14,17.92h-2.6L755.96,135.96z M755.15,133.84
					l-3.31-8.71l-3.28,8.71H755.15z"/>
				<path class="st7" d="M775.09,128.01c0,3.38-2.55,5.53-6.03,5.53h-3.99v6.81h-2.45v-17.92h6.44
					C772.52,122.43,775.09,124.6,775.09,128.01z M772.64,127.98c0-2.17-1.56-3.33-3.84-3.33h-3.74v6.69h3.81
					C771.13,131.34,772.64,130.15,772.64,127.98z"/>
				<path class="st7" d="M777.87,122.43h2.45v17.92h-2.45V122.43z"/>
			</g>
		</g>
	</g>
</g>
</svg>
