<?xml version="1.0" encoding="UTF-8" standalone="no"?>
<!-- Generator: Adobe Illustrator 26.0.3, SVG Export Plug-In . SVG Version: 6.00 Build 0)  -->

<svg
   version="1.1"
   id="Layer_1"
   x="0px"
   y="0px"
   viewBox="0 0 891.26 891.23"
   style="enable-background:new 0 0 891.26 891.23;"
   xml:space="preserve"
   sodipodi:docname="3d-secure-payment-flow.svg"
   inkscape:version="1.2.1 (9c6d41e4, 2022-07-14)"
   xmlns:inkscape="http://www.inkscape.org/namespaces/inkscape"
   xmlns:sodipodi="http://sodipodi.sourceforge.net/DTD/sodipodi-0.dtd"
   xmlns="http://www.w3.org/2000/svg"
   xmlns:svg="http://www.w3.org/2000/svg"><defs
   id="defs891"><rect
     x="675.41793"
     y="279.68126"
     width="115.64533"
     height="31.576916"
     id="rect5690" /><rect
     x="635.82629"
     y="248.32423"
     width="105.31222"
     height="32.955176"
     id="rect5674" /><rect
     x="66.498273"
     y="40.510442"
     width="191.85134"
     height="44.332182"
     id="rect3674" /><rect
     x="262.17135"
     y="163.57046"
     width="111.5948"
     height="40.510442"
     id="rect2930" /><rect
     x="253.96278"
     y="278.50937"
     width="71.02772"
     height="30.570689"
     id="rect1228" /></defs><sodipodi:namedview
   id="namedview889"
   pagecolor="#ffffff"
   bordercolor="#000000"
   borderopacity="0.25"
   inkscape:showpageshadow="2"
   inkscape:pageopacity="0.0"
   inkscape:pagecheckerboard="0"
   inkscape:deskcolor="#d1d1d1"
   showgrid="false"
   inkscape:zoom="1.0782553"
   inkscape:cx="570.82954"
   inkscape:cy="287.96519"
   inkscape:window-width="1920"
   inkscape:window-height="1147"
   inkscape:window-x="1512"
   inkscape:window-y="25"
   inkscape:window-maximized="1"
   inkscape:current-layer="g886" />
<style
   type="text/css"
   id="style2">
	.st0{fill:none;stroke:#CCCCCC;stroke-width:2;}
	.st1{enable-background:new;}
	.st2{fill:#B8B8B8;}
	.st3{fill:#FFFFFF;stroke:#ECECEC;stroke-width:2;}
	.st4{fill:#ECECEC;}
	.st5{fill:none;stroke:#FFFFFF;stroke-miterlimit:10;}
	.st6{fill:#95DCAB;}
	.st7{fill:#558A72;}
	.st8{fill:#FFFFFF;}
	.st9{fill:#D4D4D4;}
	.st10{fill:#646363;}
	.st11{stroke:#999;stroke-width:1.5;}
	.st12{fill:none;stroke:#999;stroke-width:1.5;stroke-miterlimit:10;}
	.st13{fill:#FFFFFF;stroke:#999;stroke-width:1.5;stroke-miterlimit:10;}
	.st14{fill:#7BDFA7;}
	.st15{fill:#1400F5;}
	.st16{fill:#DCDCDC;}
	.st17{fill:#B4B4B4;}
</style>
<g
   id="g886">
	<g
   id="g114">
		<path
   class="st0"
   d="M291,381.46H31c-16.57,0-30-13.43-30-30v-260c0-16.57,13.43-30,30-30h260c16.57,0,30,13.43,30,30v260    C321,368.02,307.56,381.46,291,381.46z"
   id="path4" />
		<g
   class="st1"
   id="g30">
			<path
   class="st2"
   d="M31.71,146.39c0-3.88,3.19-7.19,6.95-7.19c2.84,0,5.26,1.61,6.18,4.1l-2.08,0.7     c-0.66-1.75-2.08-2.78-4.1-2.78c-2.64,0-4.74,2.25-4.74,5.17c0,2.91,2.1,5.17,4.74,5.17c1.98,0,3.26-0.97,4.04-2.54l2.04,0.83     c-1.09,2.29-3.32,3.73-6.08,3.73C34.9,153.58,31.71,150.28,31.71,146.39z"
   id="path6" />
			<path
   class="st2"
   d="M56.83,151.33v1.96h-0.58c-1.32,0-1.88-0.47-2.16-1.34c-0.7,1.01-1.86,1.63-3.32,1.63     c-2.41,0-3.96-1.46-3.96-4.25v-5.36H49v5.01c0,1.83,0.82,2.6,2.23,2.6c1.5,0,2.43-1.07,2.43-2.76v-4.86h2.19v6.45     c0,0.6,0.02,0.91,0.56,0.91H56.83z"
   id="path8" />
			<path
   class="st2"
   d="M58.55,150.8l2.06-0.5c0.21,0.87,0.8,1.51,1.83,1.51c1.03,0,1.71-0.45,1.71-1.2c0-1.85-5.21-0.72-5.21-3.94     c0-1.73,1.5-2.99,3.5-2.99c1.61,0,2.74,0.7,3.46,2.02l-1.75,0.8c-0.37-0.64-0.91-1.05-1.73-1.05c-0.85,0-1.34,0.47-1.34,1.01     c0,1.65,5.23,0.53,5.23,4.02c0,1.84-1.55,3.11-3.88,3.11C60.38,153.58,58.96,152.47,58.55,150.8z"
   id="path10" />
			<path
   class="st2"
   d="M71.44,145.79v4.6c0,0.62,0.17,0.91,0.83,0.91h1.3v1.98H72.2c-1.92,0-2.95-1.13-2.95-2.89v-4.6h-1.98v-1.83     h1.98v-2.7l2.19-0.52v3.22h2.52v1.83H71.44z"
   id="path12" />
			<path
   class="st2"
   d="M75.21,148.62c0-2.78,2.14-4.95,5.03-4.95c2.91,0,5.05,2.18,5.05,4.95c0,2.78-2.14,4.95-5.05,4.95     C77.35,153.58,75.21,151.4,75.21,148.62z M83.08,148.62c0-1.73-1.09-3.05-2.84-3.05c-1.71,0-2.84,1.32-2.84,3.05     c0,1.73,1.13,3.05,2.84,3.05C81.99,151.67,83.08,150.35,83.08,148.62z"
   id="path14" />
			<path
   class="st2"
   d="M101.51,147.63v5.65h-2.19v-5.23c0-1.75-0.62-2.39-1.75-2.39c-1.17,0-2.06,0.82-2.06,2.41v5.21h-2.19v-5.23     c0-1.75-0.62-2.39-1.77-2.39c-1.2,0-2.06,0.91-2.06,2.54v5.07h-2.2v-9.32h2.2v1.17c0.54-0.87,1.48-1.46,2.54-1.46     c1.44,0,2.45,0.52,2.95,1.65c0.68-1.2,1.79-1.65,3.05-1.65C100.2,143.67,101.51,145.15,101.51,147.63z"
   id="path16" />
			<path
   class="st2"
   d="M103.33,148.53c0-2.82,2.06-4.86,4.74-4.86c2.99,0,4.82,2.18,4.56,5.46h-7.09c0.16,1.71,1.19,2.64,2.6,2.64     c1.36,0,2.25-0.7,2.74-1.83l1.71,0.7c-0.72,1.73-2.33,2.93-4.45,2.93C105.19,153.58,103.33,151.36,103.33,148.53z M110.55,147.6     c-0.19-1.5-1.15-2.18-2.49-2.18c-1.36,0-2.29,0.93-2.51,2.18H110.55z"
   id="path18" />
			<path
   class="st2"
   d="M119.95,143.96v2c-2.25,0-3.09,1.17-3.09,2.76v4.56h-2.2v-9.32h2.2v1.52     C117.54,144.55,118.63,143.96,119.95,143.96z"
   id="path20" />
			<path
   class="st2"
   d="M137.15,139.5v13.79h-2.04l-6.7-9.95v9.95h-2.19V139.5h2.04l6.7,9.95v-9.95H137.15z"
   id="path22" />
			<path
   class="st2"
   d="M148.73,151.33v1.96h-0.39c-1.57,0-2.29-0.31-2.58-1.26c-0.51,0.91-1.85,1.55-3.19,1.55     c-1.81,0-3.26-0.99-3.26-2.76c0-2.49,3.05-3.09,5.96-3.59c-0.06-1.18-0.78-1.79-1.81-1.79c-1.11,0-1.96,0.58-2.31,1.77l-1.86-0.5     c0.72-2.31,2.62-3.03,4.35-3.03c2.12,0,3.83,1.3,3.83,3.75v3.07c0,0.6,0.02,0.83,0.87,0.83H148.73z M145.27,148.74     c-1.88,0.29-3.77,0.64-3.77,1.84c0,0.91,0.66,1.26,1.5,1.26c1.59,0,2.27-1.13,2.27-2.54V148.74z"
   id="path24" />
			<path
   class="st2"
   d="M165.02,147.63v5.65h-2.19v-5.23c0-1.75-0.62-2.39-1.75-2.39c-1.17,0-2.06,0.82-2.06,2.41v5.21h-2.19v-5.23     c0-1.75-0.62-2.39-1.77-2.39c-1.2,0-2.06,0.91-2.06,2.54v5.07h-2.2v-9.32h2.2v1.17c0.54-0.87,1.48-1.46,2.54-1.46     c1.44,0,2.45,0.52,2.95,1.65c0.68-1.2,1.79-1.65,3.05-1.65C163.72,143.67,165.02,145.15,165.02,147.63z"
   id="path26" />
			<path
   class="st2"
   d="M166.84,148.53c0-2.82,2.06-4.86,4.74-4.86c2.99,0,4.82,2.18,4.56,5.46h-7.09c0.16,1.71,1.19,2.64,2.6,2.64     c1.36,0,2.25-0.7,2.74-1.83l1.71,0.7c-0.72,1.73-2.33,2.93-4.45,2.93C168.7,153.58,166.84,151.36,166.84,148.53z M174.07,147.6     c-0.19-1.5-1.15-2.18-2.49-2.18c-1.36,0-2.29,0.93-2.51,2.18H174.07z"
   id="path28" />
		</g>
		<g
   class="st1"
   id="g54">
			<path
   class="st2"
   d="M31.71,263.74c0-3.88,3.19-7.19,6.95-7.19c2.84,0,5.26,1.61,6.18,4.1l-2.08,0.7     c-0.66-1.75-2.08-2.78-4.1-2.78c-2.64,0-4.74,2.25-4.74,5.17c0,2.91,2.1,5.17,4.74,5.17c1.98,0,3.26-0.97,4.04-2.54l2.04,0.83     c-1.09,2.29-3.32,3.73-6.08,3.73C34.9,270.93,31.71,267.62,31.71,263.74z"
   id="path32" />
			<path
   class="st2"
   d="M55.78,268.67v1.96h-0.39c-1.57,0-2.29-0.31-2.58-1.26c-0.51,0.91-1.85,1.55-3.19,1.55     c-1.81,0-3.26-0.99-3.26-2.76c0-2.49,3.05-3.09,5.96-3.59c-0.06-1.18-0.78-1.79-1.81-1.79c-1.11,0-1.96,0.58-2.31,1.77l-1.86-0.5     c0.72-2.31,2.62-3.03,4.35-3.03c2.12,0,3.83,1.3,3.83,3.75v3.07c0,0.6,0.02,0.83,0.87,0.83H55.78z M52.32,266.09     c-1.88,0.29-3.77,0.64-3.77,1.84c0,0.91,0.66,1.26,1.5,1.26c1.59,0,2.27-1.13,2.27-2.54V266.09z"
   id="path34" />
			<path
   class="st2"
   d="M63.13,261.31v2c-2.25,0-3.09,1.17-3.09,2.76v4.56h-2.2v-9.32h2.2v1.52     C60.73,261.89,61.81,261.31,63.13,261.31z"
   id="path36" />
			<path
   class="st2"
   d="M63.99,265.97c0-3.07,2.27-4.95,4.74-4.95c1.22,0,2.43,0.52,3.01,1.4v-5.57h2.19v13.79h-2.19v-1.09     c-0.58,0.87-1.79,1.38-3.01,1.38C66.26,270.93,63.99,269.04,63.99,265.97z M71.74,265.97c0-1.77-1.09-3.05-2.76-3.05     c-1.75,0-2.8,1.32-2.8,3.05c0,1.73,1.05,3.05,2.8,3.05C70.65,269.02,71.74,267.74,71.74,265.97z"
   id="path38" />
			<path
   class="st2"
   d="M92.4,263.74c0,4.08-2.85,6.9-6.99,6.9h-4.55v-13.79h4.55C89.52,256.84,92.4,259.72,92.4,263.74z      M90.18,263.74c0-2.97-1.86-4.92-4.78-4.92h-2.35v9.83h2.35C88.32,268.65,90.18,266.75,90.18,263.74z"
   id="path40" />
			<path
   class="st2"
   d="M93.85,265.88c0-2.82,2.06-4.86,4.74-4.86c2.99,0,4.82,2.18,4.56,5.46h-7.09c0.16,1.71,1.19,2.64,2.6,2.64     c1.36,0,2.25-0.7,2.74-1.83l1.71,0.7c-0.72,1.73-2.33,2.93-4.45,2.93C95.71,270.93,93.85,268.71,93.85,265.88z M101.08,264.94     c-0.19-1.5-1.15-2.18-2.49-2.18c-1.36,0-2.29,0.93-2.51,2.18H101.08z"
   id="path42" />
			<path
   class="st2"
   d="M108.12,263.14v4.6c0,0.62,0.17,0.91,0.83,0.91h1.3v1.98h-1.38c-1.92,0-2.95-1.13-2.95-2.89v-4.6h-1.98     v-1.83h1.98v-2.7l2.19-0.52v3.22h2.52v1.83H108.12z"
   id="path44" />
			<path
   class="st2"
   d="M121.64,268.67v1.96h-0.39c-1.57,0-2.29-0.31-2.58-1.26c-0.51,0.91-1.85,1.55-3.19,1.55     c-1.81,0-3.26-0.99-3.26-2.76c0-2.49,3.05-3.09,5.96-3.59c-0.06-1.18-0.78-1.79-1.81-1.79c-1.11,0-1.96,0.58-2.31,1.77l-1.86-0.5     c0.72-2.31,2.62-3.03,4.35-3.03c2.12,0,3.83,1.3,3.83,3.75v3.07c0,0.6,0.02,0.83,0.87,0.83H121.64z M118.18,266.09     c-1.88,0.29-3.77,0.64-3.77,1.84c0,0.91,0.66,1.26,1.5,1.26c1.59,0,2.27-1.13,2.27-2.54V266.09z"
   id="path46" />
			<path
   class="st2"
   d="M124.96,257.23c0.78,0,1.42,0.6,1.42,1.42c0,0.78-0.64,1.36-1.42,1.36c-0.8,0-1.44-0.58-1.44-1.36     C123.52,257.81,124.16,257.23,124.96,257.23z M126.05,270.63h-2.18v-9.32h2.18V270.63z"
   id="path48" />
			<path
   class="st2"
   d="M128.84,267.78v-10.94h2.2v10.92c0,0.6,0.21,0.91,0.76,0.91h0.7v1.96h-0.87     C129.89,270.63,128.84,269.55,128.84,267.78z"
   id="path50" />
			<path
   class="st2"
   d="M134,268.15l2.06-0.5c0.21,0.87,0.8,1.51,1.83,1.51c1.03,0,1.71-0.45,1.71-1.2c0-1.85-5.21-0.72-5.21-3.94     c0-1.73,1.5-2.99,3.5-2.99c1.61,0,2.74,0.7,3.46,2.02l-1.75,0.8c-0.37-0.64-0.91-1.05-1.73-1.05c-0.85,0-1.34,0.47-1.34,1.01     c0,1.65,5.23,0.53,5.23,4.02c0,1.84-1.55,3.11-3.88,3.11C135.83,270.93,134.41,269.82,134,268.15z"
   id="path52" />
		</g>
		<path
   class="st3"
   d="M41,168.8h240c5.52,0,10,4.48,10,10v34c0,5.52-4.48,10-10,10H41c-5.52,0-10-4.48-10-10v-34    C31,173.28,35.47,168.8,41,168.8z"
   id="path56" />
		<path
   class="st3"
   d="M41,285.53h240c5.52,0,10,4.48,10,10v34c0,5.52-4.48,10-10,10H41c-5.52,0-10-4.48-10-10v-34    C31,290.01,35.47,285.53,41,285.53z"
   id="path58" />
		<g
   class="st1"
   id="g78">
			<path
   d="M46.7,198.67l2.04-0.43c0.16,2.08,1.07,2.74,2.21,2.74c1.19,0,2.1-0.87,2.1-2.47v-9.62h2.19v9.62     c0,2.64-1.75,4.47-4.29,4.47C48.44,202.98,46.89,201.39,46.7,198.67z"
   id="path60" />
			<path
   d="M57.05,198.03c0-2.78,2.14-4.95,5.03-4.95c2.91,0,5.05,2.18,5.05,4.95c0,2.78-2.14,4.95-5.05,4.95     C59.18,202.98,57.05,200.8,57.05,198.03z M64.91,198.03c0-1.73-1.09-3.05-2.84-3.05c-1.71,0-2.84,1.32-2.84,3.05     c0,1.73,1.13,3.05,2.84,3.05C63.82,201.08,64.91,199.75,64.91,198.03z"
   id="path62" />
			<path
   d="M78.17,197.33v5.36h-2.19v-5.01c0-1.79-0.82-2.6-2.25-2.6c-1.5,0-2.41,1.07-2.41,2.76v4.86h-2.2V188.9h2.2v5.79     c0.6-0.97,1.55-1.61,2.87-1.61C76.62,193.07,78.17,194.53,78.17,197.33z"
   id="path64" />
			<path
   d="M89.84,197.33v5.36h-2.19v-5.01c0-1.79-0.84-2.6-2.25-2.6c-1.5,0-2.43,1.07-2.43,2.76v4.86h-2.2v-9.32h2.2v1.32     c0.62-0.95,1.57-1.61,2.89-1.61C88.29,193.07,89.84,194.53,89.84,197.33z"
   id="path66" />
			<path
   d="M96.56,198.94l2.06-0.64c0.25,1.38,1.19,2.68,3.03,2.68c1.55,0,2.66-0.74,2.66-2.14c0-2.86-7.26-1.75-7.26-6.1     c0-2.56,2.14-4.14,4.54-4.14c2.25,0,3.96,1.22,4.6,3.22l-2.04,0.56c-0.29-0.97-1.15-1.81-2.53-1.81c-1.19,0-2.33,0.56-2.33,1.94     c0,2.66,7.26,1.4,7.26,6.16c0,2.6-1.98,4.29-4.95,4.29C98.68,202.98,96.99,201.06,96.56,198.94z"
   id="path68" />
			<path
   d="M122.76,197.04v5.65h-2.19v-5.23c0-1.75-0.62-2.39-1.75-2.39c-1.17,0-2.06,0.82-2.06,2.41v5.21h-2.19v-5.23     c0-1.75-0.62-2.39-1.77-2.39c-1.2,0-2.06,0.91-2.06,2.54v5.07h-2.2v-9.32h2.2v1.17c0.54-0.87,1.48-1.46,2.54-1.46     c1.44,0,2.45,0.52,2.95,1.65c0.68-1.2,1.79-1.65,3.05-1.65C121.46,193.07,122.76,194.55,122.76,197.04z"
   id="path70" />
			<path
   d="M126.6,189.28c0.78,0,1.42,0.6,1.42,1.42c0,0.78-0.64,1.36-1.42,1.36c-0.8,0-1.44-0.58-1.44-1.36     C125.16,189.87,125.8,189.28,126.6,189.28z M127.69,202.69h-2.18v-9.32h2.18V202.69z"
   id="path72" />
			<path
   d="M133.55,195.19v4.6c0,0.62,0.17,0.91,0.83,0.91h1.3v1.98h-1.38c-1.92,0-2.95-1.13-2.95-2.89v-4.6h-1.98v-1.83h1.98v-2.7     l2.19-0.52v3.22h2.52v1.83H133.55z"
   id="path74" />
			<path
   d="M146.81,197.33v5.36h-2.19v-5.01c0-1.79-0.82-2.6-2.25-2.6c-1.5,0-2.41,1.07-2.41,2.76v4.86h-2.2V188.9h2.2v5.79     c0.6-0.97,1.55-1.61,2.87-1.61C145.26,193.07,146.81,194.53,146.81,197.33z"
   id="path76" />
		</g>
		<g
   class="st1"
   id="g112">
			<path
   d="M49.9,313.13l-0.99,1.69l-1.28-0.99l1.26-1.61l-1.86-0.58l0.49-1.44l1.73,0.8l-0.12-1.86h1.63l-0.14,1.84l1.67-0.78     l0.54,1.46l-1.9,0.56l1.24,1.65l-1.34,0.95L49.9,313.13z"
   id="path80" />
			<path
   d="M57.78,313.13l-0.99,1.69l-1.28-0.99l1.26-1.61l-1.86-0.58l0.49-1.44l1.73,0.8l-0.12-1.86h1.63l-0.14,1.84l1.67-0.78     l0.54,1.46l-1.9,0.56l1.24,1.65l-1.34,0.95L57.78,313.13z"
   id="path82" />
			<path
   d="M65.67,313.13l-0.99,1.69l-1.28-0.99l1.26-1.61l-1.86-0.58l0.49-1.44l1.73,0.8l-0.12-1.86h1.63l-0.14,1.84l1.67-0.78     l0.54,1.46l-1.9,0.56l1.24,1.65l-1.34,0.95L65.67,313.13z"
   id="path84" />
			<path
   d="M73.55,313.13l-0.99,1.69l-1.28-0.99l1.26-1.61l-1.86-0.58l0.49-1.44l1.73,0.8l-0.12-1.86h1.63l-0.14,1.84l1.67-0.78     l0.54,1.46l-1.9,0.56l1.24,1.65l-1.34,0.95L73.55,313.13z"
   id="path86" />
			<path
   d="M86.15,313.13l-0.99,1.69l-1.28-0.99l1.26-1.61l-1.86-0.58l0.49-1.44l1.73,0.8l-0.12-1.86h1.63l-0.14,1.84l1.67-0.78     l0.54,1.46l-1.9,0.56l1.24,1.65l-1.34,0.95L86.15,313.13z"
   id="path88" />
			<path
   d="M94.04,313.13l-0.99,1.69l-1.28-0.99l1.26-1.61l-1.86-0.58l0.49-1.44l1.73,0.8l-0.12-1.86h1.63l-0.14,1.84l1.67-0.78     l0.54,1.46l-1.9,0.56l1.24,1.65l-1.34,0.95L94.04,313.13z"
   id="path90" />
			<path
   d="M101.92,313.13l-0.99,1.69l-1.28-0.99l1.26-1.61l-1.86-0.58l0.49-1.44l1.73,0.8l-0.12-1.86h1.63l-0.14,1.84l1.67-0.78     l0.54,1.46l-1.9,0.56l1.24,1.65l-1.34,0.95L101.92,313.13z"
   id="path92" />
			<path
   d="M109.8,313.13l-0.99,1.69l-1.28-0.99l1.26-1.61l-1.86-0.58l0.49-1.44l1.73,0.8l-0.12-1.86h1.63l-0.14,1.84l1.67-0.78     l0.54,1.46l-1.9,0.56l1.24,1.65l-1.34,0.95L109.8,313.13z"
   id="path94" />
			<path
   d="M122.4,313.13l-0.99,1.69l-1.28-0.99l1.26-1.61l-1.86-0.58l0.49-1.44l1.73,0.8l-0.12-1.86h1.63l-0.14,1.84l1.67-0.78     l0.54,1.46l-1.9,0.56l1.24,1.65l-1.34,0.95L122.4,313.13z"
   id="path96" />
			<path
   d="M130.29,313.13l-0.99,1.69l-1.28-0.99l1.26-1.61l-1.86-0.58l0.49-1.44l1.73,0.8l-0.12-1.86h1.63l-0.14,1.84l1.67-0.78     l0.54,1.46l-1.9,0.56l1.24,1.65l-1.34,0.95L130.29,313.13z"
   id="path98" />
			<path
   d="M138.17,313.13l-0.99,1.69l-1.28-0.99l1.26-1.61l-1.86-0.58l0.49-1.44l1.73,0.8l-0.12-1.86h1.63l-0.14,1.84l1.67-0.78     l0.54,1.46l-1.9,0.56l1.24,1.65l-1.34,0.95L138.17,313.13z"
   id="path100" />
			<path
   d="M146.05,313.13l-0.99,1.69l-1.28-0.99l1.26-1.61l-1.86-0.58l0.49-1.44l1.73,0.8l-0.12-1.86h1.63l-0.14,1.84l1.67-0.78     l0.54,1.46l-1.9,0.56l1.24,1.65l-1.34,0.95L146.05,313.13z"
   id="path102" />
			<path
   d="M165.92,318.43c0,2.68-2.27,4.78-5.07,4.78c-2.49,0-4.51-1.69-4.95-3.81l2.18-0.52c0.23,1.26,1.34,2.31,2.78,2.31     c1.57,0,2.86-1.19,2.86-2.76c0-1.69-1.2-2.89-2.86-2.89c-1.07,0-1.94,0.43-2.7,1.32l-1.86-0.49l1.63-7.25h7.5v1.98h-5.92     l-0.76,3.13c0.78-0.45,1.65-0.72,2.51-0.72C163.88,313.52,165.92,315.63,165.92,318.43z"
   id="path104" />
			<path
   d="M178.41,319.05c0,2.45-2.18,4.16-5.11,4.16c-2.95,0-5.09-1.69-5.09-4.14c0-1.57,0.8-2.84,2.33-3.5     c-1.24-0.66-1.86-1.61-1.86-3.03c0-2.23,2.1-3.71,4.62-3.71s4.64,1.52,4.64,3.71c0,1.42-0.62,2.37-1.88,3.03     C177.59,316.22,178.41,317.46,178.41,319.05z M176.19,318.92c0-1.5-1.17-2.35-2.89-2.35c-1.67,0-2.88,0.89-2.88,2.37     c0,1.36,1.13,2.29,2.88,2.29C175.01,321.23,176.19,320.26,176.19,318.92z M170.89,312.68c0,1.28,1.07,2.04,2.41,2.04     c1.46,0,2.43-0.72,2.43-2.04c0-1.15-1.05-1.87-2.43-1.87C171.92,310.82,170.89,311.54,170.89,312.68z"
   id="path106" />
			<path
   d="M189.8,318.61c0,2.58-2.18,4.6-4.84,4.6c-2.39,0-4.47-1.67-4.84-3.87l2.21-0.5c0.14,1.32,1.28,2.31,2.62,2.31     c1.44,0,2.62-1.03,2.62-2.54c0-1.73-1.18-2.84-2.91-2.74c-0.43,0-0.93,0.19-1.38,0.45l-0.8-1.5l3.96-3.71h-5.79v-1.98h8.84v1.63     l-3.75,3.44C188.29,314.35,189.8,316.29,189.8,318.61z"
   id="path108" />
			<path
   d="M202.21,319.05c0,2.45-2.18,4.16-5.11,4.16c-2.95,0-5.09-1.69-5.09-4.14c0-1.57,0.8-2.84,2.33-3.5     c-1.24-0.66-1.86-1.61-1.86-3.03c0-2.23,2.1-3.71,4.62-3.71s4.64,1.52,4.64,3.71c0,1.42-0.62,2.37-1.88,3.03     C201.4,316.22,202.21,317.46,202.21,319.05z M200,318.92c0-1.5-1.17-2.35-2.89-2.35c-1.67,0-2.88,0.89-2.88,2.37     c0,1.36,1.13,2.29,2.88,2.29C198.81,321.23,200,320.26,200,318.92z M194.69,312.68c0,1.28,1.07,2.04,2.41,2.04     c1.46,0,2.43-0.72,2.43-2.04c0-1.15-1.05-1.87-2.43-1.87C195.72,310.82,194.69,311.54,194.69,312.68z"
   id="path110" />
		</g>
	</g>
	<g
   id="g486">
		<path
   class="st0"
   d="M860.26,890.23h-260c-16.57,0-30-13.43-30-30V306.57c0-16.57,13.43-30,30-30h260c16.57,0,30,13.43,30,30    v553.67C890.26,876.8,876.83,890.23,860.26,890.23z"
   id="path116" />
		<g
   id="g444">
			<g
   id="g328">
				<g
   id="g158">
					<rect
   x="612.76"
   y="672.34"
   class="st4"
   width="235"
   height="65"
   id="rect118" />
					<rect
   x="620.26"
   y="679.84"
   class="st5"
   width="157.5"
   height="50"
   id="rect120" />
					<rect
   x="627.76"
   y="684.84"
   class="st6"
   width="5"
   height="40"
   id="rect122" />
					<rect
   x="640.26"
   y="684.84"
   class="st7"
   width="5"
   height="40"
   id="rect124" />
					<rect
   x="652.76"
   y="684.84"
   class="st7"
   width="5"
   height="40"
   id="rect126" />
					<rect
   x="665.26"
   y="684.84"
   class="st7"
   width="5"
   height="40"
   id="rect128" />
					<rect
   x="677.76"
   y="684.84"
   class="st7"
   width="5"
   height="40"
   id="rect130" />
					<rect
   x="690.26"
   y="684.84"
   class="st7"
   width="5"
   height="40"
   id="rect132" />
					<rect
   x="702.76"
   y="684.84"
   class="st7"
   width="5"
   height="40"
   id="rect134" />
					<rect
   x="715.26"
   y="684.84"
   class="st7"
   width="5"
   height="40"
   id="rect136" />
					<rect
   x="727.76"
   y="684.84"
   class="st7"
   width="5"
   height="40"
   id="rect138" />
					<rect
   x="740.26"
   y="684.84"
   class="st7"
   width="5"
   height="40"
   id="rect140" />
					<rect
   x="752.76"
   y="684.84"
   class="st7"
   width="5"
   height="40"
   id="rect142" />
					<rect
   x="765.26"
   y="684.84"
   class="st7"
   width="5"
   height="40"
   id="rect144" />
					<rect
   x="832.76"
   y="679.84"
   class="st7"
   width="7.5"
   height="50"
   id="rect146" />
					<circle
   class="st8"
   cx="821.26"
   cy="683.84"
   r="4"
   id="circle148" />
					<circle
   class="st7"
   cx="821.26"
   cy="697.84"
   r="4"
   id="circle150" />
					<circle
   class="st7"
   cx="821.26"
   cy="725.84"
   r="4"
   id="circle152" />
					<circle
   class="st6"
   cx="821.26"
   cy="711.84"
   r="4"
   id="circle154" />
					<rect
   x="620.26"
   y="737.34"
   class="st9"
   width="220"
   height="5"
   id="rect156" />
				</g>
				<g
   id="g200">
					<rect
   x="612.76"
   y="602.34"
   class="st4"
   width="235"
   height="65"
   id="rect160" />
					<rect
   x="620.26"
   y="609.84"
   class="st5"
   width="157.5"
   height="50"
   id="rect162" />
					<rect
   x="627.76"
   y="614.84"
   class="st7"
   width="5"
   height="40"
   id="rect164" />
					<rect
   x="640.26"
   y="614.84"
   class="st7"
   width="5"
   height="40"
   id="rect166" />
					<rect
   x="652.76"
   y="614.84"
   class="st7"
   width="5"
   height="40"
   id="rect168" />
					<rect
   x="665.26"
   y="614.84"
   class="st7"
   width="5"
   height="40"
   id="rect170" />
					<rect
   x="677.76"
   y="614.84"
   class="st7"
   width="5"
   height="40"
   id="rect172" />
					<rect
   x="690.26"
   y="614.84"
   class="st7"
   width="5"
   height="40"
   id="rect174" />
					<rect
   x="702.76"
   y="614.84"
   class="st7"
   width="5"
   height="40"
   id="rect176" />
					<rect
   x="715.26"
   y="614.84"
   class="st7"
   width="5"
   height="40"
   id="rect178" />
					<rect
   x="727.76"
   y="614.84"
   class="st7"
   width="5"
   height="40"
   id="rect180" />
					<rect
   x="740.26"
   y="614.84"
   class="st7"
   width="5"
   height="40"
   id="rect182" />
					<rect
   x="752.76"
   y="614.84"
   class="st6"
   width="5"
   height="40"
   id="rect184" />
					<rect
   x="765.26"
   y="614.84"
   class="st7"
   width="5"
   height="40"
   id="rect186" />
					<rect
   x="832.76"
   y="609.84"
   class="st7"
   width="7.5"
   height="50"
   id="rect188" />
					<circle
   class="st6"
   cx="821.26"
   cy="613.84"
   r="4"
   id="circle190" />
					<circle
   class="st7"
   cx="821.26"
   cy="627.84"
   r="4"
   id="circle192" />
					<circle
   class="st8"
   cx="821.26"
   cy="655.84"
   r="4"
   id="circle194" />
					<circle
   class="st7"
   cx="821.26"
   cy="641.84"
   r="4"
   id="circle196" />
					<rect
   x="620.26"
   y="667.34"
   class="st9"
   width="220"
   height="5"
   id="rect198" />
				</g>
				<g
   id="g242">
					<rect
   x="612.76"
   y="532.34"
   class="st4"
   width="235"
   height="65"
   id="rect202" />
					<rect
   x="620.26"
   y="539.84"
   class="st5"
   width="157.5"
   height="50"
   id="rect204" />
					<rect
   x="627.76"
   y="544.84"
   class="st7"
   width="5"
   height="40"
   id="rect206" />
					<rect
   x="640.26"
   y="544.84"
   class="st7"
   width="5"
   height="40"
   id="rect208" />
					<rect
   x="652.76"
   y="544.84"
   class="st7"
   width="5"
   height="40"
   id="rect210" />
					<rect
   x="665.26"
   y="544.84"
   class="st7"
   width="5"
   height="40"
   id="rect212" />
					<rect
   x="677.76"
   y="544.84"
   class="st6"
   width="5"
   height="40"
   id="rect214" />
					<rect
   x="690.26"
   y="544.84"
   class="st7"
   width="5"
   height="40"
   id="rect216" />
					<rect
   x="702.76"
   y="544.84"
   class="st7"
   width="5"
   height="40"
   id="rect218" />
					<rect
   x="715.26"
   y="544.84"
   class="st7"
   width="5"
   height="40"
   id="rect220" />
					<rect
   x="727.76"
   y="544.84"
   class="st7"
   width="5"
   height="40"
   id="rect222" />
					<rect
   x="740.26"
   y="544.84"
   class="st7"
   width="5"
   height="40"
   id="rect224" />
					<rect
   x="752.76"
   y="544.84"
   class="st7"
   width="5"
   height="40"
   id="rect226" />
					<rect
   x="765.26"
   y="544.84"
   class="st7"
   width="5"
   height="40"
   id="rect228" />
					<rect
   x="832.76"
   y="539.84"
   class="st7"
   width="7.5"
   height="50"
   id="rect230" />
					<circle
   class="st7"
   cx="821.26"
   cy="543.84"
   r="4"
   id="circle232" />
					<circle
   class="st6"
   cx="821.26"
   cy="557.84"
   r="4"
   id="circle234" />
					<circle
   class="st7"
   cx="821.26"
   cy="585.84"
   r="4"
   id="circle236" />
					<circle
   class="st8"
   cx="821.26"
   cy="571.84"
   r="4"
   id="circle238" />
					<rect
   x="620.26"
   y="597.34"
   class="st9"
   width="220"
   height="5"
   id="rect240" />
				</g>
				<g
   id="g284">
					<rect
   x="612.76"
   y="462.34"
   class="st4"
   width="235"
   height="65"
   id="rect244" />
					<rect
   x="620.26"
   y="469.84"
   class="st5"
   width="157.5"
   height="50"
   id="rect246" />
					<rect
   x="627.76"
   y="474.84"
   class="st7"
   width="5"
   height="40"
   id="rect248" />
					<rect
   x="640.26"
   y="474.84"
   class="st7"
   width="5"
   height="40"
   id="rect250" />
					<rect
   x="652.76"
   y="474.84"
   class="st7"
   width="5"
   height="40"
   id="rect252" />
					<rect
   x="665.26"
   y="474.84"
   class="st7"
   width="5"
   height="40"
   id="rect254" />
					<rect
   x="677.76"
   y="474.84"
   class="st7"
   width="5"
   height="40"
   id="rect256" />
					<rect
   x="690.26"
   y="474.84"
   class="st7"
   width="5"
   height="40"
   id="rect258" />
					<rect
   x="702.76"
   y="474.84"
   class="st7"
   width="5"
   height="40"
   id="rect260" />
					<rect
   x="715.26"
   y="474.84"
   class="st7"
   width="5"
   height="40"
   id="rect262" />
					<rect
   x="727.76"
   y="474.84"
   class="st7"
   width="5"
   height="40"
   id="rect264" />
					<rect
   x="740.26"
   y="474.84"
   class="st7"
   width="5"
   height="40"
   id="rect266" />
					<rect
   x="752.76"
   y="474.84"
   class="st7"
   width="5"
   height="40"
   id="rect268" />
					<rect
   x="765.26"
   y="474.84"
   class="st6"
   width="5"
   height="40"
   id="rect270" />
					<rect
   x="832.76"
   y="469.84"
   class="st7"
   width="7.5"
   height="50"
   id="rect272" />
					<circle
   class="st6"
   cx="821.26"
   cy="473.84"
   r="4"
   id="circle274" />
					<circle
   class="st7"
   cx="821.26"
   cy="487.84"
   r="4"
   id="circle276" />
					<circle
   class="st8"
   cx="821.26"
   cy="515.84"
   r="4"
   id="circle278" />
					<circle
   class="st7"
   cx="821.26"
   cy="501.84"
   r="4"
   id="circle280" />
					<rect
   x="620.26"
   y="527.34"
   class="st9"
   width="220"
   height="5"
   id="rect282" />
				</g>
				<g
   id="g326">
					<rect
   x="612.76"
   y="392.34"
   class="st4"
   width="235"
   height="65"
   id="rect286" />
					<rect
   x="620.26"
   y="399.84"
   class="st5"
   width="157.5"
   height="50"
   id="rect288" />
					<rect
   x="627.76"
   y="404.84"
   class="st7"
   width="5"
   height="40"
   id="rect290" />
					<rect
   x="640.26"
   y="404.84"
   class="st6"
   width="5"
   height="40"
   id="rect292" />
					<rect
   x="652.76"
   y="404.84"
   class="st7"
   width="5"
   height="40"
   id="rect294" />
					<rect
   x="665.26"
   y="404.84"
   class="st7"
   width="5"
   height="40"
   id="rect296" />
					<rect
   x="677.76"
   y="404.84"
   class="st7"
   width="5"
   height="40"
   id="rect298" />
					<rect
   x="690.26"
   y="404.84"
   class="st7"
   width="5"
   height="40"
   id="rect300" />
					<rect
   x="702.76"
   y="404.84"
   class="st7"
   width="5"
   height="40"
   id="rect302" />
					<rect
   x="715.26"
   y="404.84"
   class="st7"
   width="5"
   height="40"
   id="rect304" />
					<rect
   x="727.76"
   y="404.84"
   class="st7"
   width="5"
   height="40"
   id="rect306" />
					<rect
   x="740.26"
   y="404.84"
   class="st7"
   width="5"
   height="40"
   id="rect308" />
					<rect
   x="752.76"
   y="404.84"
   class="st7"
   width="5"
   height="40"
   id="rect310" />
					<rect
   x="765.26"
   y="404.84"
   class="st7"
   width="5"
   height="40"
   id="rect312" />
					<rect
   x="832.76"
   y="399.84"
   class="st7"
   width="7.5"
   height="50"
   id="rect314" />
					<circle
   class="st7"
   cx="821.26"
   cy="403.84"
   r="4"
   id="circle316" />
					<circle
   class="st8"
   cx="821.26"
   cy="417.84"
   r="4"
   id="circle318" />
					<circle
   class="st6"
   cx="821.26"
   cy="445.84"
   r="4"
   id="circle320" />
					<circle
   class="st7"
   cx="821.26"
   cy="431.84"
   r="4"
   id="circle322" />
					<rect
   x="620.26"
   y="457.34"
   class="st9"
   width="220"
   height="5"
   id="rect324" />
				</g>
			</g>
			<g
   id="g442">
				<g
   id="g334">
					<rect
   x="612.76"
   y="742.34"
   class="st4"
   width="235"
   height="65"
   id="rect330" />
					<rect
   x="620.26"
   y="807.34"
   class="st9"
   width="220"
   height="5"
   id="rect332" />
				</g>
				<g
   id="g432">
					<rect
   x="620.26"
   y="752.9"
   class="st9"
   width="5"
   height="5"
   id="rect336" />
					<rect
   x="630.26"
   y="752.9"
   class="st9"
   width="5"
   height="5"
   id="rect338" />
					<rect
   x="640.26"
   y="752.9"
   class="st9"
   width="5"
   height="5"
   id="rect340" />
					<rect
   x="650.26"
   y="752.9"
   class="st9"
   width="5"
   height="5"
   id="rect342" />
					<rect
   x="660.26"
   y="752.9"
   class="st9"
   width="5"
   height="5"
   id="rect344" />
					<rect
   x="670.26"
   y="752.9"
   class="st9"
   width="5"
   height="5"
   id="rect346" />
					<rect
   x="680.26"
   y="752.9"
   class="st9"
   width="5"
   height="5"
   id="rect348" />
					<rect
   x="690.26"
   y="752.9"
   class="st9"
   width="5"
   height="5"
   id="rect350" />
					<rect
   x="700.26"
   y="752.9"
   class="st9"
   width="5"
   height="5"
   id="rect352" />
					<rect
   x="710.26"
   y="752.9"
   class="st9"
   width="5"
   height="5"
   id="rect354" />
					<rect
   x="625.26"
   y="762.9"
   class="st9"
   width="5"
   height="5"
   id="rect356" />
					<rect
   x="635.26"
   y="762.9"
   class="st9"
   width="5"
   height="5"
   id="rect358" />
					<rect
   x="645.26"
   y="762.9"
   class="st9"
   width="5"
   height="5"
   id="rect360" />
					<rect
   x="655.26"
   y="762.9"
   class="st9"
   width="5"
   height="5"
   id="rect362" />
					<rect
   x="665.26"
   y="762.9"
   class="st9"
   width="5"
   height="5"
   id="rect364" />
					<rect
   x="675.26"
   y="762.9"
   class="st9"
   width="5"
   height="5"
   id="rect366" />
					<rect
   x="685.26"
   y="762.9"
   class="st9"
   width="5"
   height="5"
   id="rect368" />
					<rect
   x="695.26"
   y="762.9"
   class="st9"
   width="5"
   height="5"
   id="rect370" />
					<rect
   x="705.26"
   y="762.9"
   class="st9"
   width="5"
   height="5"
   id="rect372" />
					<rect
   x="620.26"
   y="772.9"
   class="st9"
   width="5"
   height="5"
   id="rect374" />
					<rect
   x="630.26"
   y="772.9"
   class="st9"
   width="5"
   height="5"
   id="rect376" />
					<rect
   x="640.26"
   y="772.9"
   class="st9"
   width="5"
   height="5"
   id="rect378" />
					<rect
   x="650.26"
   y="772.9"
   class="st9"
   width="5"
   height="5"
   id="rect380" />
					<rect
   x="660.26"
   y="772.9"
   class="st9"
   width="5"
   height="5"
   id="rect382" />
					<rect
   x="670.26"
   y="772.9"
   class="st9"
   width="5"
   height="5"
   id="rect384" />
					<rect
   x="680.26"
   y="772.9"
   class="st9"
   width="5"
   height="5"
   id="rect386" />
					<rect
   x="690.26"
   y="772.9"
   class="st9"
   width="5"
   height="5"
   id="rect388" />
					<rect
   x="700.26"
   y="772.9"
   class="st9"
   width="5"
   height="5"
   id="rect390" />
					<rect
   x="710.26"
   y="772.9"
   class="st9"
   width="5"
   height="5"
   id="rect392" />
					<rect
   x="625.26"
   y="782.9"
   class="st9"
   width="5"
   height="5"
   id="rect394" />
					<rect
   x="635.26"
   y="782.9"
   class="st9"
   width="5"
   height="5"
   id="rect396" />
					<rect
   x="645.26"
   y="782.9"
   class="st9"
   width="5"
   height="5"
   id="rect398" />
					<rect
   x="655.26"
   y="782.9"
   class="st9"
   width="5"
   height="5"
   id="rect400" />
					<rect
   x="665.26"
   y="782.9"
   class="st9"
   width="5"
   height="5"
   id="rect402" />
					<rect
   x="675.26"
   y="782.9"
   class="st9"
   width="5"
   height="5"
   id="rect404" />
					<rect
   x="685.26"
   y="782.9"
   class="st9"
   width="5"
   height="5"
   id="rect406" />
					<rect
   x="695.26"
   y="782.9"
   class="st9"
   width="5"
   height="5"
   id="rect408" />
					<rect
   x="705.26"
   y="782.9"
   class="st9"
   width="5"
   height="5"
   id="rect410" />
					<rect
   x="620.26"
   y="792.9"
   class="st9"
   width="5"
   height="5"
   id="rect412" />
					<rect
   x="630.26"
   y="792.9"
   class="st9"
   width="5"
   height="5"
   id="rect414" />
					<rect
   x="640.26"
   y="792.9"
   class="st9"
   width="5"
   height="5"
   id="rect416" />
					<rect
   x="650.26"
   y="792.9"
   class="st9"
   width="5"
   height="5"
   id="rect418" />
					<rect
   x="660.26"
   y="792.9"
   class="st9"
   width="5"
   height="5"
   id="rect420" />
					<rect
   x="670.26"
   y="792.9"
   class="st9"
   width="5"
   height="5"
   id="rect422" />
					<rect
   x="680.26"
   y="792.9"
   class="st9"
   width="5"
   height="5"
   id="rect424" />
					<rect
   x="690.26"
   y="792.9"
   class="st9"
   width="5"
   height="5"
   id="rect426" />
					<rect
   x="700.26"
   y="792.9"
   class="st9"
   width="5"
   height="5"
   id="rect428" />
					<rect
   x="710.26"
   y="792.9"
   class="st9"
   width="5"
   height="5"
   id="rect430" />
				</g>
				<rect
   x="827.76"
   y="749.84"
   class="st5"
   width="12.5"
   height="50"
   id="rect434" />
				<path
   class="st10"
   d="M834.01,774.87L834.01,774.87c-2.07,0-3.75-1.68-3.75-3.75v-15.03c0-2.07,1.68-3.75,3.75-3.75l0,0      c2.07,0,3.75,1.68,3.75,3.75v15.03C837.76,773.19,836.09,774.87,834.01,774.87z"
   id="path436" />
				<circle
   class="st8"
   cx="834.01"
   cy="792.9"
   r="4"
   id="circle438" />
				<circle
   cx="834.01"
   cy="756.34"
   r="2.5"
   id="circle440" />
			</g>
		</g>
		<g
   id="g484">
			<path
   class="st11"
   d="M825.26,326.57h-190c-5.52,0-10-4.48-10-10v-70c0-5.52,4.48-10,10-10h190c5.52,0,10,4.48,10,10v70     C835.26,322.09,830.79,326.57,825.26,326.57z"
   id="path446" />

		</g>
	</g>
	<path
   class="st0"
   d="M291,890.23H31c-16.57,0-30-13.43-30-30v-260c0-16.57,13.43-30,30-30h260c16.57,0,30,13.43,30,30v260   C321,876.8,307.56,890.23,291,890.23z"
   id="path488" />
	<path
   id="Path_3462_00000176014291498529764460000004672376751827485068_"
   class="st12"
   d="M320.63,680.23h250" />
	<path
   id="Path_3462_00000070831953220444155090000002593049740826763940_"
   class="st12"
   d="M320.63,311.46h250" />
	<path
   id="Path_3462_00000150788156218580728150000006442525284516559490_"
   class="st12"
   d="M320.63,156.46h250" />
	<path
   class="st11"
   d="M261,614.52H61c-5.52,0-10-4.48-10-10v-60c0-5.52,4.48-10,10-10h200c5.52,0,10,4.48,10,10v60   C271,610.05,266.52,614.52,261,614.52z"
   id="path493" />
	<g
   id="g517">
		<g
   class="st1"
   id="g515">
			<path
   class="st8"
   d="M108.04,564.91l-6.33,11.21v6.71h-2.42v-6.71l-6.41-11.21h2.8l4.85,8.81l4.74-8.81H108.04z"
   id="path495" />
			<path
   class="st8"
   d="M106.42,576.77c0-3.61,2.75-6.44,6.51-6.44c3.76,0,6.49,2.83,6.49,6.44c0,3.58-2.73,6.44-6.49,6.44     C109.17,583.21,106.42,580.35,106.42,576.77z M116.95,576.77c0-2.42-1.56-4.29-4.01-4.29c-2.37,0-4.04,1.87-4.04,4.29     c0,2.4,1.64,4.29,4.04,4.29C115.38,581.06,116.95,579.17,116.95,576.77z"
   id="path497" />
			<path
   class="st8"
   d="M134.94,580.61v2.22h-0.73c-1.62,0-2.3-0.66-2.6-1.87c-0.93,1.41-2.47,2.25-4.37,2.25     c-3.1,0-5.17-1.84-5.17-5.53v-6.97h2.45v6.61c0,2.57,1.19,3.63,3.18,3.63c2.15,0,3.51-1.57,3.51-3.86v-6.38h2.42v8.61     c0,0.88,0.05,1.29,0.81,1.29H134.94z"
   id="path499" />
			<path
   class="st8"
   d="M144.49,570.71v2.25c-2.83,0-4.09,1.64-4.09,3.86v6.01h-2.42v-12.11h2.42v2.15     C141.28,571.52,142.72,570.71,144.49,570.71z"
   id="path501" />
			<path
   class="st8"
   d="M152.34,578.13l2.27-0.73c0.38,1.72,1.59,3.56,4.19,3.56c2.2,0,3.76-1.09,3.76-3.1     c0-4.04-9.62-2.45-9.62-8.08c0-3.41,2.88-5.25,5.8-5.25c2.85,0,5.02,1.51,5.86,4.01l-2.25,0.68c-0.48-1.39-1.67-2.47-3.56-2.47     c-1.62,0-3.36,0.76-3.36,2.78c0,3.76,9.62,1.99,9.62,8.18c0,3.33-2.5,5.5-6.31,5.5C154.94,583.21,152.92,580.71,152.34,578.13z"
   id="path503" />
			<path
   class="st8"
   d="M167.13,576.62c0-3.61,2.62-6.28,6.11-6.28c3.91,0,6.26,2.78,5.93,6.97h-9.54c0.2,2.52,1.69,3.84,3.68,3.84     c1.94,0,3.18-0.98,3.89-2.6l1.94,0.81c-0.93,2.27-3,3.86-5.83,3.86C169.5,583.21,167.13,580.28,167.13,576.62z M176.82,575.51     c-0.2-2.2-1.64-3.18-3.58-3.18c-2.02,0-3.33,1.41-3.58,3.18H176.82z"
   id="path505" />
			<path
   class="st8"
   d="M188.53,570.71v2.25c-2.83,0-4.09,1.64-4.09,3.86v6.01h-2.42v-12.11h2.42v2.15     C185.33,571.52,186.77,570.71,188.53,570.71z"
   id="path507" />
			<path
   class="st8"
   d="M202.62,570.71l-5.25,12.11h-2.15l-5.25-12.11h2.65l3.69,9.34l3.68-9.34H202.62z"
   id="path509" />
			<path
   class="st8"
   d="M203.5,576.62c0-3.61,2.62-6.28,6.11-6.28c3.91,0,6.26,2.78,5.93,6.97H206c0.2,2.52,1.69,3.84,3.68,3.84     c1.94,0,3.18-0.98,3.89-2.6l1.94,0.81c-0.93,2.27-3,3.86-5.83,3.86C205.88,583.21,203.5,580.28,203.5,576.62z M213.2,575.51     c-0.2-2.2-1.64-3.18-3.58-3.18c-2.02,0-3.33,1.41-3.58,3.18H213.2z"
   id="path511" />
			<path
   class="st8"
   d="M224.91,570.71v2.25c-2.83,0-4.09,1.64-4.09,3.86v6.01h-2.42v-12.11h2.42v2.15     C221.7,571.52,223.14,570.71,224.91,570.71z"
   id="path513" />
		</g>
	</g>
	<path
   class="st0"
   d="M860.26,218.34h-260c-16.57,0-30-13.43-30-30V99.56c0-16.57,13.43-30,30-30h260c16.57,0,30,13.43,30,30v88.78   C890.26,204.91,876.83,218.34,860.26,218.34z"
   id="path519" />
	<path
   class="st11"
   d="M261,100.75H61c-5.52,0-10-4.48-10-10v-60c0-5.52,4.48-10,10-10h200c5.52,0,10,4.48,10,10v60   C271,96.27,266.52,100.75,261,100.75z"
   id="path521" />
	<g
   id="g545">

	<text
   xml:space="preserve"
   style="font-style:normal;font-variant:normal;font-weight:bold;font-stretch:normal;font-size:26.6667px;font-family:Forth;-inkscape-font-specification:'Forth Bold';fill:#ffffff;fill-opacity:1;stroke:none;stroke-opacity:0.839216"
   x="99.365234"
   y="71.084358"
   id="text3670"><tspan
     id="tspan3668"
     sodipodi:role="line" /></text><text
   xml:space="preserve"
   id="text3672"
   style="font-style:normal;font-variant:normal;font-weight:500;font-stretch:normal;font-size:26.6667px;font-family:Forth;-inkscape-font-specification:'Forth Medium';white-space:pre;shape-inside:url(#rect3674);display:inline;fill:#ffffff;fill-opacity:1;stroke:none;stroke-opacity:0.839216"
   transform="translate(-1.5286959,4.5860878)"><tspan
     x="66.498047"
     y="63.984973"
     id="tspan6230"><tspan
       style="font-weight:normal;-inkscape-font-specification:Forth"
       id="tspan6228">Your Client App</tspan></tspan></text></g>
	<g
   id="g705">
		<g
   id="g589">
			<g
   id="g587">
				<rect
   x="43.5"
   y="665.23"
   class="st4"
   width="235"
   height="65"
   id="rect547" />
				<rect
   x="51"
   y="672.73"
   class="st5"
   width="157.5"
   height="50"
   id="rect549" />
				<rect
   x="58.5"
   y="677.73"
   class="st7"
   width="5"
   height="40"
   id="rect551" />
				<rect
   x="71"
   y="677.73"
   class="st7"
   width="5"
   height="40"
   id="rect553" />
				<rect
   x="83.5"
   y="677.73"
   class="st7"
   width="5"
   height="40"
   id="rect555" />
				<rect
   x="96"
   y="677.73"
   class="st7"
   width="5"
   height="40"
   id="rect557" />
				<rect
   x="108.5"
   y="677.73"
   class="st7"
   width="5"
   height="40"
   id="rect559" />
				<rect
   x="121"
   y="677.73"
   class="st7"
   width="5"
   height="40"
   id="rect561" />
				<rect
   x="133.5"
   y="677.73"
   class="st7"
   width="5"
   height="40"
   id="rect563" />
				<rect
   x="146"
   y="677.73"
   class="st7"
   width="5"
   height="40"
   id="rect565" />
				<rect
   x="158.5"
   y="677.73"
   class="st7"
   width="5"
   height="40"
   id="rect567" />
				<rect
   x="171"
   y="677.73"
   class="st7"
   width="5"
   height="40"
   id="rect569" />
				<rect
   x="183.5"
   y="677.73"
   class="st6"
   width="5"
   height="40"
   id="rect571" />
				<rect
   x="196"
   y="677.73"
   class="st7"
   width="5"
   height="40"
   id="rect573" />
				<rect
   x="263.5"
   y="672.73"
   class="st7"
   width="7.5"
   height="50"
   id="rect575" />
				<circle
   class="st7"
   cx="252"
   cy="676.73"
   r="4"
   id="circle577" />
				<circle
   class="st6"
   cx="252"
   cy="690.73"
   r="4"
   id="circle579" />
				<circle
   class="st8"
   cx="252"
   cy="718.73"
   r="4"
   id="circle581" />
				<circle
   class="st7"
   cx="252"
   cy="704.73"
   r="4"
   id="circle583" />
				<rect
   x="51"
   y="730.23"
   class="st9"
   width="220"
   height="5"
   id="rect585" />
			</g>
		</g>
		<g
   id="g703">
			<g
   id="g595">
				<rect
   x="43.5"
   y="735.23"
   class="st4"
   width="235"
   height="65"
   id="rect591" />
				<rect
   x="51"
   y="800.23"
   class="st9"
   width="220"
   height="5"
   id="rect593" />
			</g>
			<g
   id="g693">
				<rect
   x="51"
   y="745.79"
   class="st9"
   width="5"
   height="5"
   id="rect597" />
				<rect
   x="61"
   y="745.79"
   class="st9"
   width="5"
   height="5"
   id="rect599" />
				<rect
   x="71"
   y="745.79"
   class="st9"
   width="5"
   height="5"
   id="rect601" />
				<rect
   x="81"
   y="745.79"
   class="st9"
   width="5"
   height="5"
   id="rect603" />
				<rect
   x="91"
   y="745.79"
   class="st9"
   width="5"
   height="5"
   id="rect605" />
				<rect
   x="101"
   y="745.79"
   class="st9"
   width="5"
   height="5"
   id="rect607" />
				<rect
   x="111"
   y="745.79"
   class="st9"
   width="5"
   height="5"
   id="rect609" />
				<rect
   x="121"
   y="745.79"
   class="st9"
   width="5"
   height="5"
   id="rect611" />
				<rect
   x="131"
   y="745.79"
   class="st9"
   width="5"
   height="5"
   id="rect613" />
				<rect
   x="141"
   y="745.79"
   class="st9"
   width="5"
   height="5"
   id="rect615" />
				<rect
   x="56"
   y="755.79"
   class="st9"
   width="5"
   height="5"
   id="rect617" />
				<rect
   x="66"
   y="755.79"
   class="st9"
   width="5"
   height="5"
   id="rect619" />
				<rect
   x="76"
   y="755.79"
   class="st9"
   width="5"
   height="5"
   id="rect621" />
				<rect
   x="86"
   y="755.79"
   class="st9"
   width="5"
   height="5"
   id="rect623" />
				<rect
   x="96"
   y="755.79"
   class="st9"
   width="5"
   height="5"
   id="rect625" />
				<rect
   x="106"
   y="755.79"
   class="st9"
   width="5"
   height="5"
   id="rect627" />
				<rect
   x="116"
   y="755.79"
   class="st9"
   width="5"
   height="5"
   id="rect629" />
				<rect
   x="126"
   y="755.79"
   class="st9"
   width="5"
   height="5"
   id="rect631" />
				<rect
   x="136"
   y="755.79"
   class="st9"
   width="5"
   height="5"
   id="rect633" />
				<rect
   x="51"
   y="765.79"
   class="st9"
   width="5"
   height="5"
   id="rect635" />
				<rect
   x="61"
   y="765.79"
   class="st9"
   width="5"
   height="5"
   id="rect637" />
				<rect
   x="71"
   y="765.79"
   class="st9"
   width="5"
   height="5"
   id="rect639" />
				<rect
   x="81"
   y="765.79"
   class="st9"
   width="5"
   height="5"
   id="rect641" />
				<rect
   x="91"
   y="765.79"
   class="st9"
   width="5"
   height="5"
   id="rect643" />
				<rect
   x="101"
   y="765.79"
   class="st9"
   width="5"
   height="5"
   id="rect645" />
				<rect
   x="111"
   y="765.79"
   class="st9"
   width="5"
   height="5"
   id="rect647" />
				<rect
   x="121"
   y="765.79"
   class="st9"
   width="5"
   height="5"
   id="rect649" />
				<rect
   x="131"
   y="765.79"
   class="st9"
   width="5"
   height="5"
   id="rect651" />
				<rect
   x="141"
   y="765.79"
   class="st9"
   width="5"
   height="5"
   id="rect653" />
				<rect
   x="56"
   y="775.79"
   class="st9"
   width="5"
   height="5"
   id="rect655" />
				<rect
   x="66"
   y="775.79"
   class="st9"
   width="5"
   height="5"
   id="rect657" />
				<rect
   x="76"
   y="775.79"
   class="st9"
   width="5"
   height="5"
   id="rect659" />
				<rect
   x="86"
   y="775.79"
   class="st9"
   width="5"
   height="5"
   id="rect661" />
				<rect
   x="96"
   y="775.79"
   class="st9"
   width="5"
   height="5"
   id="rect663" />
				<rect
   x="106"
   y="775.79"
   class="st9"
   width="5"
   height="5"
   id="rect665" />
				<rect
   x="116"
   y="775.79"
   class="st9"
   width="5"
   height="5"
   id="rect667" />
				<rect
   x="126"
   y="775.79"
   class="st9"
   width="5"
   height="5"
   id="rect669" />
				<rect
   x="136"
   y="775.79"
   class="st9"
   width="5"
   height="5"
   id="rect671" />
				<rect
   x="51"
   y="785.79"
   class="st9"
   width="5"
   height="5"
   id="rect673" />
				<rect
   x="61"
   y="785.79"
   class="st9"
   width="5"
   height="5"
   id="rect675" />
				<rect
   x="71"
   y="785.79"
   class="st9"
   width="5"
   height="5"
   id="rect677" />
				<rect
   x="81"
   y="785.79"
   class="st9"
   width="5"
   height="5"
   id="rect679" />
				<rect
   x="91"
   y="785.79"
   class="st9"
   width="5"
   height="5"
   id="rect681" />
				<rect
   x="101"
   y="785.79"
   class="st9"
   width="5"
   height="5"
   id="rect683" />
				<rect
   x="111"
   y="785.79"
   class="st9"
   width="5"
   height="5"
   id="rect685" />
				<rect
   x="121"
   y="785.79"
   class="st9"
   width="5"
   height="5"
   id="rect687" />
				<rect
   x="131"
   y="785.79"
   class="st9"
   width="5"
   height="5"
   id="rect689" />
				<rect
   x="141"
   y="785.79"
   class="st9"
   width="5"
   height="5"
   id="rect691" />
			</g>
			<rect
   x="258.5"
   y="742.73"
   class="st5"
   width="12.5"
   height="50"
   id="rect695" />
			<path
   class="st10"
   d="M264.75,767.76L264.75,767.76c-2.07,0-3.75-1.68-3.75-3.75v-15.03c0-2.07,1.68-3.75,3.75-3.75l0,0     c2.07,0,3.75,1.68,3.75,3.75v15.03C268.5,766.08,266.82,767.76,264.75,767.76z"
   id="path697" />
			<circle
   class="st8"
   cx="264.75"
   cy="785.79"
   r="4"
   id="circle699" />
			<circle
   cx="264.75"
   cy="749.23"
   r="2.5"
   id="circle701" />
		</g>
	</g>
	<g
   id="g713">
		<circle
   class="st13"
   cx="445.63"
   cy="680.38"
   r="25"
   id="circle707" />
		<g
   class="st1"
   id="g711">
			<path
   d="M447.65,671.54v17.92h-2.42v-13.33c-0.88,0.33-2.12,0.48-3.84,0.48v-2.22c2.7,0.03,3.84-0.88,3.84-2.85H447.65z"
   id="path709" />
		</g>
	</g>
	<path
   id="Path_3462_00000154424246657457143200000014739095298473216643_"
   class="st12"
   d="M320.63,791.2h250" />
	<g
   id="g722">
		<circle
   class="st13"
   cx="445.63"
   cy="791.34"
   r="25"
   id="circle716" />
		<g
   class="st1"
   id="g720">
			<path
   d="M451.67,796.76h-1.99v3.66h-2.42v-3.66h-9.04v-1.82l9.34-12.44h2.12v12.04h1.99V796.76z M447.25,794.54v-8.15l-5.93,8.15     H447.25z"
   id="path718" />
		</g>
	</g>
	<circle
   id="Ellipse_257_00000139983928930428313280000007490370403322948267_"
   cx="570.63"
   cy="791.34"
   r="5"
   fill="#999" />
	<circle
   id="Ellipse_257_00000050634765637465271210000008972677391773108131_"
   cx="570.63"
   cy="310.98"
   r="5"
   fill="#999" />
	<circle
   id="Ellipse_257_00000147920815766571212560000000484787597243644294_"
   cx="570.63"
   cy="156.46"
   r="5"
   fill="#999" />
	<circle
   id="Ellipse_257_00000155866658076533652320000014222629369347759496_"
   cx="320.63"
   cy="680.23"
   r="5"
   fill="#999" />

	<g
   id="g838">
		<path
   class="st11"
   d="M835.26,100.75h-210c-5.52,0-10-4.48-10-10v-80c0-5.52,4.48-10,10-10h210c5.52,0,10,4.48,10,10v80    C845.26,96.27,840.79,100.75,835.26,100.75z"
   id="path770" />
		<g
   id="g836">
			<g
   class="st1"
   id="g788">
				<path
   class="st8"
   d="M686.11,28.38c0,3.36-2.83,5.93-6.21,5.93c-3.08,0-5.73-2.2-6.18-5l2.47-0.58c0.2,1.84,1.84,3.26,3.71,3.26      c2.04,0,3.74-1.46,3.74-3.61c0-2.42-1.79-3.94-4.24-3.76c-0.5,0.03-1.06,0.23-1.56,0.48l-0.86-1.74l5.35-5.12h-7.85v-2.22h11.23      v1.89l-5.12,4.8C683.94,22.78,686.11,25.28,686.11,28.38z"
   id="path772" />
				<path
   class="st8"
   d="M704.79,24.97c0,5.3-3.68,8.96-9.04,8.96h-5.83V16.02h5.83C701.08,16.02,704.79,19.73,704.79,24.97z       M702.34,24.97c0-4.06-2.6-6.74-6.59-6.74h-3.38v13.48h3.38C699.75,31.71,702.34,29.06,702.34,24.97z"
   id="path774" />
				<path
   class="st8"
   d="M713,29.24l2.27-0.73c0.38,1.72,1.59,3.56,4.19,3.56c2.2,0,3.76-1.09,3.76-3.1c0-4.04-9.62-2.45-9.62-8.08      c0-3.41,2.88-5.25,5.8-5.25c2.85,0,5.02,1.51,5.86,4.01l-2.25,0.68c-0.48-1.39-1.67-2.47-3.56-2.47c-1.62,0-3.36,0.76-3.36,2.78      c0,3.76,9.62,1.99,9.62,8.18c0,3.33-2.5,5.5-6.31,5.5S713.58,31.81,713,29.24z"
   id="path776" />
				<path
   class="st8"
   d="M727.79,27.73c0-3.61,2.62-6.28,6.11-6.28c3.91,0,6.26,2.78,5.93,6.97h-9.54c0.2,2.52,1.69,3.84,3.68,3.84      c1.94,0,3.18-0.98,3.89-2.6l1.94,0.81c-0.93,2.27-3,3.86-5.83,3.86C730.16,34.31,727.79,31.39,727.79,27.73z M737.48,26.62      c-0.2-2.2-1.64-3.18-3.58-3.18c-2.02,0-3.33,1.41-3.58,3.18H737.48z"
   id="path778" />
				<path
   class="st8"
   d="M748.36,34.31c-3.71,0-6.46-2.93-6.46-6.59c0-3.61,2.73-6.28,6.49-6.28c2.62,0,4.67,1.34,5.58,3.51      l-2.09,0.86c-0.58-1.44-1.72-2.22-3.48-2.22c-2.4,0-4.01,1.72-4.01,4.14s1.59,4.44,3.99,4.44c1.67,0,2.8-0.83,3.43-2.27      l2.07,0.91C752.9,32.95,750.96,34.31,748.36,34.31z"
   id="path780" />
				<path
   class="st8"
   d="M769.49,31.71v2.22h-0.73c-1.62,0-2.3-0.66-2.6-1.87c-0.93,1.41-2.47,2.25-4.37,2.25      c-3.1,0-5.17-1.84-5.17-5.53v-6.97h2.45v6.61c0,2.57,1.19,3.63,3.18,3.63c2.15,0,3.51-1.57,3.51-3.86v-6.38h2.42v8.61      c0,0.88,0.05,1.29,0.81,1.29H769.49z"
   id="path782" />
				<path
   class="st8"
   d="M779.03,21.82v2.25c-2.83,0-4.09,1.64-4.09,3.86v6.01h-2.42V21.82h2.42v2.15      C775.83,22.63,777.26,21.82,779.03,21.82z"
   id="path784" />
				<path
   class="st8"
   d="M780.09,27.73c0-3.61,2.62-6.28,6.11-6.28c3.91,0,6.26,2.78,5.93,6.97h-9.54c0.2,2.52,1.69,3.84,3.68,3.84      c1.94,0,3.18-0.98,3.89-2.6l1.94,0.81c-0.93,2.27-3,3.86-5.83,3.86C782.46,34.31,780.09,31.39,780.09,27.73z M789.78,26.62      c-0.2-2.2-1.64-3.18-3.58-3.18c-2.02,0-3.33,1.41-3.58,3.18H789.78z"
   id="path786" />
			</g>
			<g
   class="st1"
   id="g818">
				<path
   class="st8"
   d="M657.48,55.54h-8.18l-1.67,4.39h-2.62l7.14-17.92h2.45l7.14,17.92h-2.6L657.48,55.54z M656.67,53.42      l-3.31-8.71l-3.28,8.71H656.67z"
   id="path790" />
				<path
   class="st8"
   d="M677.02,57.71v2.22h-0.73c-1.62,0-2.3-0.66-2.6-1.87c-0.93,1.41-2.47,2.25-4.37,2.25      c-3.1,0-5.17-1.84-5.17-5.53v-6.97h2.45v6.61c0,2.57,1.19,3.63,3.18,3.63c2.15,0,3.51-1.57,3.51-3.86v-6.38h2.42v8.61      c0,0.88,0.05,1.29,0.81,1.29H677.02z"
   id="path792" />
				<path
   class="st8"
   d="M683.43,49.89v6.51c0,0.88,0.25,1.31,1.24,1.31h1.62v2.22h-1.67c-2.45,0-3.61-1.39-3.61-3.58v-6.46h-2.62      v-2.07h2.62v-3.58l2.42-0.63v4.21h3.36v2.07H683.43z"
   id="path794" />
				<path
   class="st8"
   d="M700.62,52.97v6.97h-2.42V53.3c0-2.5-1.21-3.61-3.21-3.61c-2.12,0-3.48,1.57-3.48,3.86v6.38h-2.45V42.02      h2.45v7.7c0.81-1.36,2.12-2.27,3.94-2.27C698.58,47.44,700.62,49.26,700.62,52.97z"
   id="path796" />
				<path
   class="st8"
   d="M703.15,53.73c0-3.61,2.62-6.28,6.11-6.28c3.91,0,6.26,2.78,5.93,6.97h-9.54c0.2,2.52,1.69,3.84,3.68,3.84      c1.94,0,3.18-0.98,3.89-2.6l1.94,0.81c-0.93,2.27-3,3.86-5.83,3.86C705.52,60.31,703.15,57.39,703.15,53.73z M712.84,52.62      c-0.2-2.2-1.64-3.18-3.58-3.18c-2.02,0-3.33,1.41-3.58,3.18H712.84z"
   id="path798" />
				<path
   class="st8"
   d="M729.47,52.97v6.97h-2.45V53.3c0-2.5-1.19-3.61-3.18-3.61c-2.15,0-3.51,1.57-3.51,3.86v6.38h-2.42V47.82      h2.42v1.94c0.83-1.39,2.14-2.32,3.96-2.32C727.4,47.44,729.47,49.26,729.47,52.97z"
   id="path800" />
				<path
   class="st8"
   d="M735.66,49.89v6.51c0,0.88,0.25,1.31,1.24,1.31h1.62v2.22h-1.67c-2.45,0-3.61-1.39-3.61-3.58v-6.46h-2.62      v-2.07h2.62v-3.58l2.42-0.63v4.21h3.36v2.07H735.66z"
   id="path802" />
				<path
   class="st8"
   d="M742.73,42.65c0.91,0,1.64,0.71,1.64,1.64c0,0.91-0.76,1.62-1.64,1.62c-0.93,0-1.69-0.71-1.69-1.62      C741.04,43.33,741.79,42.65,742.73,42.65z M743.94,59.93h-2.42V47.82h2.42V59.93z"
   id="path804" />
				<path
   class="st8"
   d="M753.35,60.31c-3.71,0-6.46-2.93-6.46-6.59c0-3.61,2.73-6.28,6.49-6.28c2.62,0,4.67,1.34,5.58,3.51      l-2.09,0.86c-0.58-1.44-1.72-2.22-3.48-2.22c-2.4,0-4.01,1.72-4.01,4.14s1.59,4.44,3.99,4.44c1.67,0,2.8-0.83,3.43-2.27      l2.07,0.91C757.9,58.95,755.95,60.31,753.35,60.31z"
   id="path806" />
				<path
   class="st8"
   d="M773.09,57.71v2.22h-0.56c-1.97,0-2.85-0.48-3.13-1.74c-0.68,1.24-2.47,2.12-4.19,2.12      c-2.37,0-4.21-1.29-4.21-3.61c0-3.23,4.09-3.99,7.92-4.64c-0.05-1.72-1.08-2.6-2.6-2.6c-1.57,0-2.78,0.78-3.23,2.47l-2.12-0.56      c0.83-2.9,3.26-3.94,5.53-3.94c2.68,0,4.85,1.67,4.85,4.8v4.32c0,0.88,0.05,1.16,1.19,1.16H773.09z M768.93,53.8      c-2.73,0.43-5.48,0.91-5.48,2.7c0,1.29,0.93,1.84,2.2,1.84c2.22,0,3.28-1.56,3.28-3.68V53.8z"
   id="path808" />
				<path
   class="st8"
   d="M778.52,49.89v6.51c0,0.88,0.25,1.31,1.24,1.31h1.62v2.22h-1.67c-2.45,0-3.61-1.39-3.61-3.58v-6.46h-2.62      v-2.07h2.62v-3.58l2.42-0.63v4.21h3.36v2.07H778.52z"
   id="path810" />
				<path
   class="st8"
   d="M785.59,42.65c0.91,0,1.64,0.71,1.64,1.64c0,0.91-0.76,1.62-1.64,1.62c-0.93,0-1.69-0.71-1.69-1.62      C783.9,43.33,784.66,42.65,785.59,42.65z M786.8,59.93h-2.42V47.82h2.42V59.93z"
   id="path812" />
				<path
   class="st8"
   d="M789.75,53.88c0-3.61,2.75-6.44,6.51-6.44c3.76,0,6.49,2.83,6.49,6.44c0,3.58-2.73,6.44-6.49,6.44      C792.51,60.31,789.75,57.46,789.75,53.88z M800.28,53.88c0-2.42-1.56-4.29-4.01-4.29c-2.37,0-4.04,1.87-4.04,4.29      c0,2.4,1.64,4.29,4.04,4.29C798.71,58.17,800.28,56.28,800.28,53.88z"
   id="path814" />
				<path
   class="st8"
   d="M816.99,52.97v6.97h-2.45V53.3c0-2.5-1.19-3.61-3.18-3.61c-2.14,0-3.51,1.57-3.51,3.86v6.38h-2.42V47.82      h2.42v1.94c0.83-1.39,2.15-2.32,3.96-2.32C814.92,47.44,816.99,49.26,816.99,52.97z"
   id="path816" />
			</g>
			<g
   class="st1"
   id="g834">
				<path
   class="st8"
   d="M690.65,81.24l2.27-0.73c0.38,1.72,1.59,3.56,4.19,3.56c2.2,0,3.76-1.09,3.76-3.1      c0-4.04-9.62-2.45-9.62-8.08c0-3.41,2.88-5.25,5.8-5.25c2.85,0,5.02,1.51,5.86,4.01l-2.25,0.68c-0.48-1.39-1.67-2.47-3.56-2.47      c-1.62,0-3.36,0.76-3.36,2.78c0,3.76,9.62,1.99,9.62,8.18c0,3.33-2.5,5.5-6.31,5.5S691.23,83.81,690.65,81.24z"
   id="path820" />
				<path
   class="st8"
   d="M705.44,79.73c0-3.61,2.62-6.28,6.11-6.28c3.91,0,6.26,2.78,5.93,6.97h-9.54c0.2,2.52,1.69,3.84,3.68,3.84      c1.94,0,3.18-0.98,3.89-2.6l1.94,0.81c-0.93,2.27-3,3.86-5.83,3.86C707.81,86.31,705.44,83.39,705.44,79.73z M715.13,78.62      c-0.2-2.2-1.64-3.18-3.58-3.18c-2.02,0-3.33,1.41-3.58,3.18H715.13z"
   id="path822" />
				<path
   class="st8"
   d="M726.84,73.82v2.25c-2.83,0-4.09,1.64-4.09,3.86v6.01h-2.42V73.82h2.42v2.15      C723.64,74.63,725.08,73.82,726.84,73.82z"
   id="path824" />
				<path
   class="st8"
   d="M740.93,73.82l-5.25,12.11h-2.15l-5.25-12.11h2.65l3.68,9.34l3.68-9.34H740.93z"
   id="path826" />
				<path
   class="st8"
   d="M744.51,68.65c0.91,0,1.64,0.71,1.64,1.64c0,0.91-0.76,1.62-1.64,1.62c-0.93,0-1.69-0.71-1.69-1.62      C742.82,69.33,743.58,68.65,744.51,68.65z M745.72,85.93h-2.42V73.82h2.42V85.93z"
   id="path828" />
				<path
   class="st8"
   d="M755.14,86.31c-3.71,0-6.46-2.93-6.46-6.59c0-3.61,2.73-6.28,6.49-6.28c2.62,0,4.67,1.34,5.58,3.51      l-2.09,0.86c-0.58-1.44-1.72-2.22-3.48-2.22c-2.4,0-4.01,1.72-4.01,4.14s1.59,4.44,3.99,4.44c1.67,0,2.8-0.83,3.43-2.27      l2.07,0.91C759.68,84.95,757.74,86.31,755.14,86.31z"
   id="path830" />
				<path
   class="st8"
   d="M762.64,79.73c0-3.61,2.62-6.28,6.11-6.28c3.91,0,6.26,2.78,5.93,6.97h-9.54c0.2,2.52,1.69,3.84,3.68,3.84      c1.94,0,3.18-0.98,3.89-2.6l1.94,0.81c-0.93,2.27-3,3.86-5.83,3.86C765.01,86.31,762.64,83.39,762.64,79.73z M772.33,78.62      c-0.2-2.2-1.64-3.18-3.58-3.18c-2.02,0-3.33,1.41-3.58,3.18H772.33z"
   id="path832" />
			</g>
		</g>
	</g>
	<g
   id="g858">
		<g
   id="Rectangle_958_00000020388387556052992540000014659749497873792658_"
   transform="translate(988.722 2569.271) rotate(180)">
			<g
   id="g844">
				<path
   class="st15"
   d="M280.31,2383.17c13.31,0,24.14,10.83,24.14,24.14s-10.83,24.14-24.14,24.14H236.6      c-13.31,0-24.14-10.83-24.14-24.14s10.83-24.14,24.14-24.14H280.31z"
   id="path840" />
				<path
   class="st4"
   d="M236.6,2430.46c-12.78,0-23.14-10.36-23.14-23.14s10.36-23.14,23.14-23.14h43.71      c12.78,0,23.14,10.36,23.14,23.14s-10.36,23.14-23.14,23.14H236.6 M236.6,2432.46h43.71c13.86,0,25.14-11.28,25.14-25.14      c0-13.86-11.28-25.14-25.14-25.14H236.6c-13.86,0-25.14,11.28-25.14,25.14C211.46,2421.18,222.74,2432.46,236.6,2432.46      L236.6,2432.46z"
   id="path842" />
			</g>
		</g>
		<path
   id="Icon_awesome-lock_00000183234216809950351700000016884757547712821905_"
   class="st8"
   d="M715.87,159.95h-0.74v-2.21    c-0.1-2.58-2.27-4.6-4.85-4.5c-2.45,0.09-4.41,2.05-4.5,4.5v2.21h-0.74c-0.82,0-1.48,0.66-1.48,1.48l0,0v5.91    c0,0.82,0.66,1.48,1.48,1.48l0,0h10.83c0.82,0,1.48-0.66,1.48-1.48l0,0v-5.91C717.35,160.61,716.69,159.95,715.87,159.95    L715.87,159.95z M712.67,159.95h-4.43v-2.21c0.05-1.22,1.08-2.17,2.31-2.12c1.15,0.05,2.08,0.97,2.12,2.12V159.95z" />
		<g
   id="g856">
			<polygon
   class="st8"
   points="734.42,153.92 748.33,161.96 762.25,153.92 748.33,145.88    "
   id="polygon848" />
			<g
   id="g854">
				<polygon
   class="st16"
   points="734.42,153.92 734.42,169.99 748.33,178.03 748.33,161.96     "
   id="polygon850" />
				<polygon
   class="st17"
   points="748.33,161.96 748.33,178.03 762.25,169.99 762.25,153.92     "
   id="polygon852" />
			</g>
		</g>
	</g>
	<g
   id="g884">
		<g
   id="g865">
			<g
   id="g862">
				<path
   id="Path_3462_00000166653729370875770830000009823962395746762135_"
   class="st11"
   d="M106,534.32V396.46" />
				<circle
   id="Ellipse_257_00000099644534177054015430000004469123301235412621_"
   cx="106"
   cy="396.46"
   r="5"
   fill="#999" />
			</g>
			<path
   id="Path_3462_00000163030553269636556600000014409879033620488858_"
   class="st11"
   d="M216,381.46v137.87" />
		</g>
		<circle
   id="Ellipse_257_00000074408758263423687690000014046387769730329993_"
   cx="216"
   cy="519.32"
   r="5"
   fill="#999" />
		<g
   id="g874">
			<circle
   class="st13"
   cx="216"
   cy="457.89"
   r="25"
   id="circle868" />
			<g
   class="st1"
   id="g872">
				<path
   d="M221.68,461.41c0,3.36-2.83,5.93-6.21,5.93c-3.08,0-5.73-2.2-6.18-5l2.47-0.58c0.2,1.84,1.84,3.26,3.71,3.26      c2.04,0,3.74-1.46,3.74-3.61c0-2.42-1.79-3.94-4.24-3.76c-0.5,0.03-1.06,0.23-1.56,0.48l-0.86-1.74l5.35-5.12h-7.85v-2.22h11.23      v1.89l-5.12,4.8C219.51,455.81,221.68,458.31,221.68,461.41z"
   id="path870" />
			</g>
		</g>
		<g
   id="g882">
			<circle
   class="st13"
   cx="106"
   cy="457.89"
   r="25"
   id="circle876" />
			<g
   class="st1"
   id="g880">
				<path
   d="M103.2,464.75h8.66v2.22H99.51v-1.64c4.69-5,9.89-7.6,9.89-11.08c0-2.3-1.56-3.36-3.79-3.33c-2.2,0-3.84,1.62-4.14,3.89      l-2.4-0.5c0.5-3.25,3.1-5.63,6.56-5.63c3.61,0,6.26,1.77,6.26,5.68C111.9,457.83,107.64,460.81,103.2,464.75z"
   id="path878" />
			</g>
		</g>
	</g>
<text
   xml:space="preserve"
   style="font-weight:500;font-size:26.6667px;font-family:Forth;-inkscape-font-specification:'Forth Medium';text-align:center;text-anchor:middle;fill:#ffffff;stroke-opacity:0.839216"
   x="729.52155"
   y="287.88181"
   id="text1252"><tspan
     sodipodi:role="line"
     id="tspan1250"
     x="729.52155"
     y="287.88181"
     style="font-style:normal;font-variant:normal;font-weight:bold;font-stretch:normal;font-family:Forth;-inkscape-font-specification:'Forth Bold'">BR-DGE</tspan></text></g>
</svg>
