<?xml version="1.0" encoding="UTF-8" standalone="no"?>
<!-- Generator: Adobe Illustrator 26.0.3, SVG Export Plug-In . SVG Version: 6.00 Build 0)  -->

<svg
   version="1.1"
   id="Layer_1"
   x="0px"
   y="0px"
   viewBox="0 0 891.26 871.23"
   style="enable-background:new 0 0 891.26 871.23;"
   xml:space="preserve"
   sodipodi:docname="tokenized-payment-flow.svg"
   inkscape:version="1.2.1 (9c6d41e4, 2022-07-14)"
   xmlns:inkscape="http://www.inkscape.org/namespaces/inkscape"
   xmlns:sodipodi="http://sodipodi.sourceforge.net/DTD/sodipodi-0.dtd"
   xmlns="http://www.w3.org/2000/svg"
   xmlns:svg="http://www.w3.org/2000/svg"><defs
   id="defs773"><rect
     x="66.498276"
     y="40.510441"
     width="191.85133"
     height="44.332184"
     id="rect3674" /></defs><sodipodi:namedview
   id="namedview771"
   pagecolor="#ffffff"
   bordercolor="#000000"
   borderopacity="0.25"
   inkscape:showpageshadow="2"
   inkscape:pageopacity="0.0"
   inkscape:pagecheckerboard="0"
   inkscape:deskcolor="#d1d1d1"
   showgrid="false"
   inkscape:zoom="1.2280338"
   inkscape:cx="462.93513"
   inkscape:cy="213.75633"
   inkscape:window-width="1920"
   inkscape:window-height="1147"
   inkscape:window-x="1512"
   inkscape:window-y="25"
   inkscape:window-maximized="1"
   inkscape:current-layer="g768" />
<style
   type="text/css"
   id="style2">
	.st0{fill:none;stroke:#CCCCCC;stroke-width:2;}
	.st1{enable-background:new    ;}
	.st2{fill:#B8B8B8;}
	.st3{fill:#FFFFFF;stroke:#ECECEC;stroke-width:2;}
	.st4{fill:none;stroke:#999;stroke-width:1.5;stroke-miterlimit:10;}
	.st5{fill:#ECECEC;}
	.st6{fill:none;stroke:#FFFFFF;stroke-miterlimit:10;}
	.st7{fill:#95DCAB;}
	.st8{fill:#558A72;}
	.st9{fill:#FFFFFF;}
	.st10{fill:#D4D4D4;}
	.st11{fill:#646363;}
	.st12{stroke:#999;stroke-width:1.5;}
	.st13{fill:#FFFFFF;stroke:#999;stroke-width:1.5;stroke-miterlimit:10;}
	.st14{fill:#7BDFA7;}
</style>
<g
   id="g768">
	<path
   class="st0"
   d="M291,361.46H31c-16.57,0-30-13.43-30-30v-260c0-16.57,13.43-30,30-30h260c16.57,0,30,13.43,30,30v260   C321,348.02,307.56,361.46,291,361.46z"
   id="path4" />
	<g
   class="st1"
   id="g30">
		<path
   class="st2"
   d="M31.72,126.39c0-3.88,3.19-7.19,6.95-7.19c2.84,0,5.26,1.61,6.18,4.1l-2.08,0.7    c-0.66-1.75-2.08-2.78-4.1-2.78c-2.64,0-4.74,2.25-4.74,5.17c0,2.91,2.1,5.17,4.74,5.17c1.98,0,3.26-0.97,4.04-2.54l2.04,0.83    c-1.09,2.29-3.32,3.73-6.08,3.73C34.9,133.58,31.72,130.28,31.72,126.39z"
   id="path6" />
		<path
   class="st2"
   d="M56.83,131.33v1.96h-0.58c-1.32,0-1.88-0.47-2.16-1.34c-0.7,1.01-1.86,1.63-3.32,1.63    c-2.41,0-3.96-1.46-3.96-4.25v-5.36H49v5.01c0,1.83,0.82,2.6,2.23,2.6c1.5,0,2.43-1.07,2.43-2.76v-4.86h2.19v6.45    c0,0.6,0.02,0.91,0.56,0.91H56.83z"
   id="path8" />
		<path
   class="st2"
   d="M58.55,130.8l2.06-0.5c0.21,0.87,0.8,1.51,1.83,1.51c1.03,0,1.71-0.45,1.71-1.2c0-1.85-5.21-0.72-5.21-3.94    c0-1.73,1.5-2.99,3.5-2.99c1.61,0,2.74,0.7,3.46,2.02l-1.75,0.8c-0.37-0.64-0.91-1.05-1.73-1.05c-0.85,0-1.34,0.47-1.34,1.01    c0,1.65,5.23,0.53,5.23,4.02c0,1.84-1.55,3.11-3.88,3.11C60.38,133.58,58.96,132.47,58.55,130.8z"
   id="path10" />
		<path
   class="st2"
   d="M71.44,125.79v4.6c0,0.62,0.17,0.91,0.83,0.91h1.3v1.98H72.2c-1.92,0-2.95-1.13-2.95-2.89v-4.6h-1.98v-1.83    h1.98v-2.7l2.19-0.52v3.22h2.52v1.83H71.44z"
   id="path12" />
		<path
   class="st2"
   d="M75.21,128.62c0-2.78,2.14-4.95,5.03-4.95c2.91,0,5.05,2.18,5.05,4.95c0,2.78-2.14,4.95-5.05,4.95    C77.35,133.58,75.21,131.4,75.21,128.62z M83.08,128.62c0-1.73-1.09-3.05-2.84-3.05c-1.71,0-2.84,1.32-2.84,3.05    c0,1.73,1.13,3.05,2.84,3.05C81.99,131.67,83.08,130.35,83.08,128.62z"
   id="path14" />
		<path
   class="st2"
   d="M101.51,127.63v5.65h-2.19v-5.23c0-1.75-0.62-2.39-1.75-2.39c-1.17,0-2.06,0.82-2.06,2.41v5.21h-2.19v-5.23    c0-1.75-0.62-2.39-1.77-2.39c-1.2,0-2.06,0.91-2.06,2.54v5.07h-2.2v-9.32h2.2v1.17c0.54-0.87,1.48-1.46,2.54-1.46    c1.44,0,2.45,0.52,2.95,1.65c0.68-1.2,1.79-1.65,3.05-1.65C100.2,123.67,101.51,125.15,101.51,127.63z"
   id="path16" />
		<path
   class="st2"
   d="M103.33,128.53c0-2.82,2.06-4.86,4.74-4.86c2.99,0,4.82,2.18,4.56,5.46h-7.09c0.16,1.71,1.19,2.64,2.6,2.64    c1.36,0,2.25-0.7,2.74-1.83l1.71,0.7c-0.72,1.73-2.33,2.93-4.45,2.93C105.19,133.58,103.33,131.36,103.33,128.53z M110.55,127.6    c-0.19-1.5-1.15-2.18-2.49-2.18c-1.36,0-2.29,0.93-2.51,2.18H110.55z"
   id="path18" />
		<path
   class="st2"
   d="M119.95,123.96v2c-2.25,0-3.09,1.17-3.09,2.76v4.56h-2.2v-9.32h2.2v1.52    C117.54,124.55,118.63,123.96,119.95,123.96z"
   id="path20" />
		<path
   class="st2"
   d="M137.15,119.5v13.79h-2.04l-6.7-9.95v9.95h-2.19V119.5h2.04l6.7,9.95v-9.95H137.15z"
   id="path22" />
		<path
   class="st2"
   d="M148.73,131.33v1.96h-0.39c-1.57,0-2.29-0.31-2.58-1.26c-0.51,0.91-1.85,1.55-3.19,1.55    c-1.81,0-3.26-0.99-3.26-2.76c0-2.49,3.05-3.09,5.96-3.59c-0.06-1.18-0.78-1.79-1.81-1.79c-1.11,0-1.96,0.58-2.31,1.77l-1.86-0.5    c0.72-2.31,2.62-3.03,4.35-3.03c2.12,0,3.83,1.3,3.83,3.75v3.07c0,0.6,0.02,0.83,0.87,0.83H148.73z M145.27,128.74    c-1.88,0.29-3.77,0.64-3.77,1.84c0,0.91,0.66,1.26,1.5,1.26c1.59,0,2.27-1.13,2.27-2.54V128.74z"
   id="path24" />
		<path
   class="st2"
   d="M165.02,127.63v5.65h-2.19v-5.23c0-1.75-0.62-2.39-1.75-2.39c-1.17,0-2.06,0.82-2.06,2.41v5.21h-2.19v-5.23    c0-1.75-0.62-2.39-1.77-2.39c-1.2,0-2.06,0.91-2.06,2.54v5.07h-2.2v-9.32h2.2v1.17c0.54-0.87,1.48-1.46,2.54-1.46    c1.44,0,2.45,0.52,2.95,1.65c0.68-1.2,1.79-1.65,3.05-1.65C163.72,123.67,165.02,125.15,165.02,127.63z"
   id="path26" />
		<path
   class="st2"
   d="M166.84,128.53c0-2.82,2.06-4.86,4.74-4.86c2.99,0,4.82,2.18,4.56,5.46h-7.09c0.16,1.71,1.19,2.64,2.6,2.64    c1.36,0,2.25-0.7,2.74-1.83l1.71,0.7c-0.72,1.73-2.33,2.93-4.45,2.93C168.7,133.58,166.84,131.36,166.84,128.53z M174.07,127.6    c-0.19-1.5-1.15-2.18-2.49-2.18c-1.36,0-2.29,0.93-2.51,2.18H174.07z"
   id="path28" />
	</g>
	<g
   class="st1"
   id="g54">
		<path
   class="st2"
   d="M31.72,243.74c0-3.88,3.19-7.19,6.95-7.19c2.84,0,5.26,1.61,6.18,4.1l-2.08,0.7    c-0.66-1.75-2.08-2.78-4.1-2.78c-2.64,0-4.74,2.25-4.74,5.17c0,2.91,2.1,5.17,4.74,5.17c1.98,0,3.26-0.97,4.04-2.54l2.04,0.83    c-1.09,2.29-3.32,3.73-6.08,3.73C34.9,250.93,31.72,247.62,31.72,243.74z"
   id="path32" />
		<path
   class="st2"
   d="M55.78,248.67v1.96h-0.39c-1.57,0-2.29-0.31-2.58-1.26c-0.51,0.91-1.85,1.55-3.19,1.55    c-1.81,0-3.26-0.99-3.26-2.76c0-2.49,3.05-3.09,5.96-3.59c-0.06-1.18-0.78-1.79-1.81-1.79c-1.11,0-1.96,0.58-2.31,1.77l-1.86-0.5    c0.72-2.31,2.62-3.03,4.35-3.03c2.12,0,3.83,1.3,3.83,3.75v3.07c0,0.6,0.02,0.83,0.87,0.83H55.78z M52.32,246.09    c-1.88,0.29-3.77,0.64-3.77,1.84c0,0.91,0.66,1.26,1.5,1.26c1.59,0,2.27-1.13,2.27-2.54V246.09z"
   id="path34" />
		<path
   class="st2"
   d="M63.13,241.31v2c-2.25,0-3.09,1.17-3.09,2.76v4.56h-2.2v-9.32h2.2v1.52    C60.73,241.89,61.81,241.31,63.13,241.31z"
   id="path36" />
		<path
   class="st2"
   d="M63.99,245.97c0-3.07,2.27-4.95,4.74-4.95c1.22,0,2.43,0.52,3.01,1.4v-5.57h2.19v13.79h-2.19v-1.09    c-0.58,0.87-1.79,1.38-3.01,1.38C66.26,250.93,63.99,249.04,63.99,245.97z M71.74,245.97c0-1.77-1.09-3.05-2.76-3.05    c-1.75,0-2.8,1.32-2.8,3.05c0,1.73,1.05,3.05,2.8,3.05C70.65,249.02,71.74,247.74,71.74,245.97z"
   id="path38" />
		<path
   class="st2"
   d="M92.4,243.74c0,4.08-2.85,6.9-6.99,6.9h-4.55v-13.79h4.55C89.52,236.84,92.4,239.72,92.4,243.74z     M90.18,243.74c0-2.97-1.86-4.92-4.78-4.92h-2.35v9.83h2.35C88.32,248.65,90.18,246.75,90.18,243.74z"
   id="path40" />
		<path
   class="st2"
   d="M93.85,245.88c0-2.82,2.06-4.86,4.74-4.86c2.99,0,4.82,2.18,4.56,5.46h-7.09c0.16,1.71,1.19,2.64,2.6,2.64    c1.36,0,2.25-0.7,2.74-1.83l1.71,0.7c-0.72,1.73-2.33,2.93-4.45,2.93C95.72,250.93,93.85,248.71,93.85,245.88z M101.08,244.94    c-0.19-1.5-1.15-2.18-2.49-2.18c-1.36,0-2.29,0.93-2.51,2.18H101.08z"
   id="path42" />
		<path
   class="st2"
   d="M108.12,243.14v4.6c0,0.62,0.17,0.91,0.83,0.91h1.3v1.98h-1.38c-1.92,0-2.95-1.13-2.95-2.89v-4.6h-1.98v-1.83    h1.98v-2.7l2.19-0.52v3.22h2.52v1.83H108.12z"
   id="path44" />
		<path
   class="st2"
   d="M121.64,248.67v1.96h-0.39c-1.57,0-2.29-0.31-2.58-1.26c-0.51,0.91-1.85,1.55-3.19,1.55    c-1.81,0-3.26-0.99-3.26-2.76c0-2.49,3.05-3.09,5.96-3.59c-0.06-1.18-0.78-1.79-1.81-1.79c-1.11,0-1.96,0.58-2.31,1.77l-1.86-0.5    c0.72-2.31,2.62-3.03,4.35-3.03c2.12,0,3.83,1.3,3.83,3.75v3.07c0,0.6,0.02,0.83,0.87,0.83H121.64z M118.18,246.09    c-1.88,0.29-3.77,0.64-3.77,1.84c0,0.91,0.66,1.26,1.5,1.26c1.59,0,2.27-1.13,2.27-2.54V246.09z"
   id="path46" />
		<path
   class="st2"
   d="M124.96,237.23c0.78,0,1.42,0.6,1.42,1.42c0,0.78-0.64,1.36-1.42,1.36c-0.8,0-1.44-0.58-1.44-1.36    C123.52,237.81,124.16,237.23,124.96,237.23z M126.05,250.63h-2.18v-9.32h2.18V250.63z"
   id="path48" />
		<path
   class="st2"
   d="M128.84,247.78v-10.94h2.2v10.92c0,0.6,0.21,0.91,0.76,0.91h0.7v1.96h-0.87    C129.89,250.63,128.84,249.55,128.84,247.78z"
   id="path50" />
		<path
   class="st2"
   d="M134.01,248.15l2.06-0.5c0.21,0.87,0.8,1.51,1.83,1.51c1.03,0,1.71-0.45,1.71-1.2c0-1.85-5.21-0.72-5.21-3.94    c0-1.73,1.5-2.99,3.5-2.99c1.61,0,2.74,0.7,3.46,2.02l-1.75,0.8c-0.37-0.64-0.91-1.05-1.73-1.05c-0.85,0-1.34,0.47-1.34,1.01    c0,1.65,5.23,0.53,5.23,4.02c0,1.84-1.55,3.11-3.88,3.11C135.83,250.93,134.41,249.82,134.01,248.15z"
   id="path52" />
	</g>
	<path
   class="st3"
   d="M41,148.8h240c5.52,0,10,4.48,10,10v34c0,5.52-4.48,10-10,10H41c-5.52,0-10-4.48-10-10v-34   C31,153.28,35.47,148.8,41,148.8z"
   id="path56" />
	<path
   class="st3"
   d="M41,265.53h240c5.52,0,10,4.48,10,10v34c0,5.52-4.48,10-10,10H41c-5.52,0-10-4.48-10-10v-34   C31,270.01,35.47,265.53,41,265.53z"
   id="path58" />
	<g
   class="st1"
   id="g78">
		<path
   d="M46.7,178.67l2.04-0.43c0.16,2.08,1.07,2.74,2.21,2.74c1.19,0,2.1-0.87,2.1-2.47v-9.62h2.19v9.62    c0,2.64-1.75,4.47-4.29,4.47C48.44,182.98,46.89,181.39,46.7,178.67z"
   id="path60" />
		<path
   d="M57.05,178.03c0-2.78,2.14-4.95,5.03-4.95c2.91,0,5.05,2.18,5.05,4.95c0,2.78-2.14,4.95-5.05,4.95    C59.18,182.98,57.05,180.8,57.05,178.03z M64.91,178.03c0-1.73-1.09-3.05-2.84-3.05c-1.71,0-2.84,1.32-2.84,3.05    c0,1.73,1.13,3.05,2.84,3.05C63.82,181.08,64.91,179.75,64.91,178.03z"
   id="path62" />
		<path
   d="M78.17,177.33v5.36h-2.19v-5.01c0-1.79-0.82-2.6-2.25-2.6c-1.5,0-2.41,1.07-2.41,2.76v4.86h-2.2V168.9h2.2v5.79    c0.6-0.97,1.55-1.61,2.87-1.61C76.62,173.07,78.17,174.53,78.17,177.33z"
   id="path64" />
		<path
   d="M89.84,177.33v5.36h-2.19v-5.01c0-1.79-0.84-2.6-2.25-2.6c-1.5,0-2.43,1.07-2.43,2.76v4.86h-2.2v-9.32h2.2v1.32    c0.62-0.95,1.57-1.61,2.89-1.61C88.29,173.07,89.84,174.53,89.84,177.33z"
   id="path66" />
		<path
   d="M96.56,178.94l2.06-0.64c0.25,1.38,1.19,2.68,3.03,2.68c1.55,0,2.66-0.74,2.66-2.14c0-2.86-7.26-1.75-7.26-6.1    c0-2.56,2.14-4.14,4.54-4.14c2.25,0,3.96,1.22,4.6,3.22l-2.04,0.56c-0.29-0.97-1.15-1.81-2.53-1.81c-1.19,0-2.33,0.56-2.33,1.94    c0,2.66,7.26,1.4,7.26,6.16c0,2.6-1.98,4.29-4.95,4.29C98.68,182.98,96.99,181.06,96.56,178.94z"
   id="path68" />
		<path
   d="M122.76,177.04v5.65h-2.19v-5.23c0-1.75-0.62-2.39-1.75-2.39c-1.17,0-2.06,0.82-2.06,2.41v5.21h-2.19v-5.23    c0-1.75-0.62-2.39-1.77-2.39c-1.2,0-2.06,0.91-2.06,2.54v5.07h-2.2v-9.32h2.2v1.17c0.54-0.87,1.48-1.46,2.54-1.46    c1.44,0,2.45,0.52,2.95,1.65c0.68-1.2,1.79-1.65,3.05-1.65C121.46,173.07,122.76,174.55,122.76,177.04z"
   id="path70" />
		<path
   d="M126.6,169.28c0.78,0,1.42,0.6,1.42,1.42c0,0.78-0.64,1.36-1.42,1.36c-0.8,0-1.44-0.58-1.44-1.36    C125.16,169.87,125.8,169.28,126.6,169.28z M127.69,182.69h-2.18v-9.32h2.18V182.69z"
   id="path72" />
		<path
   d="M133.55,175.19v4.6c0,0.62,0.17,0.91,0.83,0.91h1.3v1.98h-1.38c-1.92,0-2.95-1.13-2.95-2.89v-4.6h-1.98v-1.83h1.98v-2.7    l2.19-0.52v3.22h2.52v1.83H133.55z"
   id="path74" />
		<path
   d="M146.81,177.33v5.36h-2.19v-5.01c0-1.79-0.82-2.6-2.25-2.6c-1.5,0-2.41,1.07-2.41,2.76v4.86h-2.2V168.9h2.2v5.79    c0.6-0.97,1.55-1.61,2.87-1.61C145.26,173.07,146.81,174.53,146.81,177.33z"
   id="path76" />
	</g>
	<g
   class="st1"
   id="g112">
		<path
   d="M49.9,293.13l-0.99,1.69l-1.28-0.99l1.26-1.61l-1.86-0.58l0.49-1.44l1.73,0.8l-0.12-1.86h1.63l-0.14,1.84l1.67-0.78    l0.54,1.46l-1.9,0.56l1.24,1.65l-1.34,0.95L49.9,293.13z"
   id="path80" />
		<path
   d="M57.78,293.13l-0.99,1.69l-1.28-0.99l1.26-1.61l-1.86-0.58l0.49-1.44l1.73,0.8l-0.12-1.86h1.63l-0.14,1.84l1.67-0.78    l0.54,1.46l-1.9,0.56l1.24,1.65l-1.34,0.95L57.78,293.13z"
   id="path82" />
		<path
   d="M65.67,293.13l-0.99,1.69l-1.28-0.99l1.26-1.61l-1.86-0.58l0.49-1.44l1.73,0.8l-0.12-1.86h1.63l-0.14,1.84l1.67-0.78    l0.54,1.46l-1.9,0.56l1.24,1.65l-1.34,0.95L65.67,293.13z"
   id="path84" />
		<path
   d="M73.55,293.13l-0.99,1.69l-1.28-0.99l1.26-1.61l-1.86-0.58l0.49-1.44l1.73,0.8l-0.12-1.86h1.63l-0.14,1.84l1.67-0.78    l0.54,1.46l-1.9,0.56l1.24,1.65l-1.34,0.95L73.55,293.13z"
   id="path86" />
		<path
   d="M86.15,293.13l-0.99,1.69l-1.28-0.99l1.26-1.61l-1.86-0.58l0.49-1.44l1.73,0.8l-0.12-1.86h1.63l-0.14,1.84l1.67-0.78    l0.54,1.46l-1.9,0.56l1.24,1.65l-1.34,0.95L86.15,293.13z"
   id="path88" />
		<path
   d="M94.04,293.13l-0.99,1.69l-1.28-0.99l1.26-1.61l-1.86-0.58l0.49-1.44l1.73,0.8l-0.12-1.86h1.63l-0.14,1.84l1.67-0.78    l0.54,1.46l-1.9,0.56l1.24,1.65l-1.34,0.95L94.04,293.13z"
   id="path90" />
		<path
   d="M101.92,293.13l-0.99,1.69l-1.28-0.99l1.26-1.61l-1.86-0.58l0.49-1.44l1.73,0.8l-0.12-1.86h1.63l-0.14,1.84l1.67-0.78    l0.54,1.46l-1.9,0.56l1.24,1.65l-1.34,0.95L101.92,293.13z"
   id="path92" />
		<path
   d="M109.8,293.13l-0.99,1.69l-1.28-0.99l1.26-1.61l-1.86-0.58l0.49-1.44l1.73,0.8l-0.12-1.86h1.63l-0.14,1.84l1.67-0.78    l0.54,1.46l-1.9,0.56l1.24,1.65l-1.34,0.95L109.8,293.13z"
   id="path94" />
		<path
   d="M122.4,293.13l-0.99,1.69l-1.28-0.99l1.26-1.61l-1.86-0.58l0.49-1.44l1.73,0.8l-0.12-1.86h1.63l-0.14,1.84l1.67-0.78    l0.54,1.46l-1.9,0.56l1.24,1.65l-1.34,0.95L122.4,293.13z"
   id="path96" />
		<path
   d="M130.29,293.13l-0.99,1.69l-1.28-0.99l1.26-1.61l-1.86-0.58l0.49-1.44l1.73,0.8l-0.12-1.86h1.63l-0.14,1.84l1.67-0.78    l0.54,1.46l-1.9,0.56l1.24,1.65l-1.34,0.95L130.29,293.13z"
   id="path98" />
		<path
   d="M138.17,293.13l-0.99,1.69l-1.28-0.99l1.26-1.61l-1.86-0.58l0.49-1.44l1.73,0.8l-0.12-1.86h1.63l-0.14,1.84l1.67-0.78    l0.54,1.46l-1.9,0.56l1.24,1.65l-1.34,0.95L138.17,293.13z"
   id="path100" />
		<path
   d="M146.05,293.13l-0.99,1.69l-1.28-0.99l1.26-1.61l-1.86-0.58l0.49-1.44l1.73,0.8l-0.12-1.86h1.63l-0.14,1.84l1.67-0.78    l0.54,1.46l-1.9,0.56l1.24,1.65l-1.34,0.95L146.05,293.13z"
   id="path102" />
		<path
   d="M165.92,298.43c0,2.68-2.27,4.78-5.07,4.78c-2.49,0-4.51-1.69-4.95-3.81l2.18-0.52c0.23,1.26,1.34,2.31,2.78,2.31    c1.57,0,2.86-1.19,2.86-2.76c0-1.69-1.2-2.89-2.86-2.89c-1.07,0-1.94,0.43-2.7,1.32l-1.86-0.49l1.63-7.25h7.5v1.98h-5.92    l-0.76,3.13c0.78-0.45,1.65-0.72,2.51-0.72C163.88,293.52,165.92,295.63,165.92,298.43z"
   id="path104" />
		<path
   d="M178.41,299.05c0,2.45-2.18,4.16-5.11,4.16c-2.95,0-5.09-1.69-5.09-4.14c0-1.57,0.8-2.84,2.33-3.5    c-1.24-0.66-1.86-1.61-1.86-3.03c0-2.23,2.1-3.71,4.62-3.71s4.64,1.52,4.64,3.71c0,1.42-0.62,2.37-1.88,3.03    C177.59,296.22,178.41,297.46,178.41,299.05z M176.19,298.92c0-1.5-1.17-2.35-2.89-2.35c-1.67,0-2.88,0.89-2.88,2.37    c0,1.36,1.13,2.29,2.88,2.29C175.01,301.23,176.19,300.26,176.19,298.92z M170.89,292.68c0,1.28,1.07,2.04,2.41,2.04    c1.46,0,2.43-0.72,2.43-2.04c0-1.15-1.05-1.87-2.43-1.87C171.92,290.82,170.89,291.54,170.89,292.68z"
   id="path106" />
		<path
   d="M189.8,298.61c0,2.58-2.18,4.6-4.84,4.6c-2.39,0-4.47-1.67-4.84-3.87l2.21-0.5c0.14,1.32,1.28,2.31,2.62,2.31    c1.44,0,2.62-1.03,2.62-2.54c0-1.73-1.18-2.84-2.91-2.74c-0.43,0-0.93,0.19-1.38,0.45l-0.8-1.5l3.96-3.71h-5.79v-1.98h8.84v1.63    l-3.75,3.44C188.29,294.35,189.8,296.29,189.8,298.61z"
   id="path108" />
		<path
   d="M202.21,299.05c0,2.45-2.18,4.16-5.11,4.16c-2.95,0-5.09-1.69-5.09-4.14c0-1.57,0.8-2.84,2.33-3.5    c-1.24-0.66-1.86-1.61-1.86-3.03c0-2.23,2.1-3.71,4.62-3.71s4.64,1.52,4.64,3.71c0,1.42-0.62,2.37-1.88,3.03    C201.4,296.22,202.21,297.46,202.21,299.05z M200,298.92c0-1.5-1.17-2.35-2.89-2.35c-1.67,0-2.88,0.89-2.88,2.37    c0,1.36,1.13,2.29,2.88,2.29C198.81,301.23,200,300.26,200,298.92z M194.69,292.68c0,1.28,1.07,2.04,2.41,2.04    c1.46,0,2.43-0.72,2.43-2.04c0-1.15-1.05-1.87-2.43-1.87C195.72,290.82,194.69,291.54,194.69,292.68z"
   id="path110" />
	</g>
	<path
   class="st0"
   d="M291,870.23H31c-16.57,0-30-13.43-30-30v-260c0-16.57,13.43-30,30-30h260c16.57,0,30,13.43,30,30v260   C321,856.8,307.56,870.23,291,870.23z"
   id="path114" />
	<path
   id="Path_3462_00000058546992357150958020000016860275780327712652_"
   class="st4"
   d="M320.63,660.23h250" />
	<path
   class="st0"
   d="M860.26,747.71h-260c-16.57,0-30-13.43-30-30V194.05c0-16.57,13.43-30,30-30h260c16.57,0,30,13.43,30,30   v523.67C890.26,734.28,876.83,747.71,860.26,747.71z"
   id="path117" />
	<path
   id="Path_3462_00000011000925161190499560000002179860998896884653_"
   class="st4"
   d="M320.63,251.46h250" />
	<g
   id="g330">
		<g
   id="g160">
			<rect
   x="612.76"
   y="544.82"
   class="st5"
   width="235"
   height="65"
   id="rect120" />
			<rect
   x="620.26"
   y="552.32"
   class="st6"
   width="157.5"
   height="50"
   id="rect122" />
			<rect
   x="627.76"
   y="557.32"
   class="st7"
   width="5"
   height="40"
   id="rect124" />
			<rect
   x="640.26"
   y="557.32"
   class="st8"
   width="5"
   height="40"
   id="rect126" />
			<rect
   x="652.76"
   y="557.32"
   class="st8"
   width="5"
   height="40"
   id="rect128" />
			<rect
   x="665.26"
   y="557.32"
   class="st8"
   width="5"
   height="40"
   id="rect130" />
			<rect
   x="677.76"
   y="557.32"
   class="st8"
   width="5"
   height="40"
   id="rect132" />
			<rect
   x="690.26"
   y="557.32"
   class="st8"
   width="5"
   height="40"
   id="rect134" />
			<rect
   x="702.76"
   y="557.32"
   class="st8"
   width="5"
   height="40"
   id="rect136" />
			<rect
   x="715.26"
   y="557.32"
   class="st8"
   width="5"
   height="40"
   id="rect138" />
			<rect
   x="727.76"
   y="557.32"
   class="st8"
   width="5"
   height="40"
   id="rect140" />
			<rect
   x="740.26"
   y="557.32"
   class="st8"
   width="5"
   height="40"
   id="rect142" />
			<rect
   x="752.76"
   y="557.32"
   class="st8"
   width="5"
   height="40"
   id="rect144" />
			<rect
   x="765.26"
   y="557.32"
   class="st8"
   width="5"
   height="40"
   id="rect146" />
			<rect
   x="832.76"
   y="552.32"
   class="st8"
   width="7.5"
   height="50"
   id="rect148" />
			<circle
   class="st9"
   cx="821.26"
   cy="556.32"
   r="4"
   id="circle150" />
			<circle
   class="st8"
   cx="821.26"
   cy="570.32"
   r="4"
   id="circle152" />
			<circle
   class="st8"
   cx="821.26"
   cy="598.32"
   r="4"
   id="circle154" />
			<circle
   class="st7"
   cx="821.26"
   cy="584.32"
   r="4"
   id="circle156" />
			<rect
   x="620.26"
   y="609.82"
   class="st10"
   width="220"
   height="5"
   id="rect158" />
		</g>
		<g
   id="g202">
			<rect
   x="612.76"
   y="474.82"
   class="st5"
   width="235"
   height="65"
   id="rect162" />
			<rect
   x="620.26"
   y="482.32"
   class="st6"
   width="157.5"
   height="50"
   id="rect164" />
			<rect
   x="627.76"
   y="487.32"
   class="st8"
   width="5"
   height="40"
   id="rect166" />
			<rect
   x="640.26"
   y="487.32"
   class="st8"
   width="5"
   height="40"
   id="rect168" />
			<rect
   x="652.76"
   y="487.32"
   class="st8"
   width="5"
   height="40"
   id="rect170" />
			<rect
   x="665.26"
   y="487.32"
   class="st8"
   width="5"
   height="40"
   id="rect172" />
			<rect
   x="677.76"
   y="487.32"
   class="st8"
   width="5"
   height="40"
   id="rect174" />
			<rect
   x="690.26"
   y="487.32"
   class="st8"
   width="5"
   height="40"
   id="rect176" />
			<rect
   x="702.76"
   y="487.32"
   class="st8"
   width="5"
   height="40"
   id="rect178" />
			<rect
   x="715.26"
   y="487.32"
   class="st8"
   width="5"
   height="40"
   id="rect180" />
			<rect
   x="727.76"
   y="487.32"
   class="st8"
   width="5"
   height="40"
   id="rect182" />
			<rect
   x="740.26"
   y="487.32"
   class="st8"
   width="5"
   height="40"
   id="rect184" />
			<rect
   x="752.76"
   y="487.32"
   class="st7"
   width="5"
   height="40"
   id="rect186" />
			<rect
   x="765.26"
   y="487.32"
   class="st8"
   width="5"
   height="40"
   id="rect188" />
			<rect
   x="832.76"
   y="482.32"
   class="st8"
   width="7.5"
   height="50"
   id="rect190" />
			<circle
   class="st7"
   cx="821.26"
   cy="486.32"
   r="4"
   id="circle192" />
			<circle
   class="st8"
   cx="821.26"
   cy="500.32"
   r="4"
   id="circle194" />
			<circle
   class="st9"
   cx="821.26"
   cy="528.32"
   r="4"
   id="circle196" />
			<circle
   class="st8"
   cx="821.26"
   cy="514.32"
   r="4"
   id="circle198" />
			<rect
   x="620.26"
   y="539.82"
   class="st10"
   width="220"
   height="5"
   id="rect200" />
		</g>
		<g
   id="g244">
			<rect
   x="612.76"
   y="404.82"
   class="st5"
   width="235"
   height="65"
   id="rect204" />
			<rect
   x="620.26"
   y="412.32"
   class="st6"
   width="157.5"
   height="50"
   id="rect206" />
			<rect
   x="627.76"
   y="417.32"
   class="st8"
   width="5"
   height="40"
   id="rect208" />
			<rect
   x="640.26"
   y="417.32"
   class="st8"
   width="5"
   height="40"
   id="rect210" />
			<rect
   x="652.76"
   y="417.32"
   class="st8"
   width="5"
   height="40"
   id="rect212" />
			<rect
   x="665.26"
   y="417.32"
   class="st8"
   width="5"
   height="40"
   id="rect214" />
			<rect
   x="677.76"
   y="417.32"
   class="st7"
   width="5"
   height="40"
   id="rect216" />
			<rect
   x="690.26"
   y="417.32"
   class="st8"
   width="5"
   height="40"
   id="rect218" />
			<rect
   x="702.76"
   y="417.32"
   class="st8"
   width="5"
   height="40"
   id="rect220" />
			<rect
   x="715.26"
   y="417.32"
   class="st8"
   width="5"
   height="40"
   id="rect222" />
			<rect
   x="727.76"
   y="417.32"
   class="st8"
   width="5"
   height="40"
   id="rect224" />
			<rect
   x="740.26"
   y="417.32"
   class="st8"
   width="5"
   height="40"
   id="rect226" />
			<rect
   x="752.76"
   y="417.32"
   class="st8"
   width="5"
   height="40"
   id="rect228" />
			<rect
   x="765.26"
   y="417.32"
   class="st8"
   width="5"
   height="40"
   id="rect230" />
			<rect
   x="832.76"
   y="412.32"
   class="st8"
   width="7.5"
   height="50"
   id="rect232" />
			<circle
   class="st8"
   cx="821.26"
   cy="416.32"
   r="4"
   id="circle234" />
			<circle
   class="st7"
   cx="821.26"
   cy="430.32"
   r="4"
   id="circle236" />
			<circle
   class="st8"
   cx="821.26"
   cy="458.32"
   r="4"
   id="circle238" />
			<circle
   class="st9"
   cx="821.26"
   cy="444.32"
   r="4"
   id="circle240" />
			<rect
   x="620.26"
   y="469.82"
   class="st10"
   width="220"
   height="5"
   id="rect242" />
		</g>
		<g
   id="g286">
			<rect
   x="612.76"
   y="334.82"
   class="st5"
   width="235"
   height="65"
   id="rect246" />
			<rect
   x="620.26"
   y="342.32"
   class="st6"
   width="157.5"
   height="50"
   id="rect248" />
			<rect
   x="627.76"
   y="347.32"
   class="st8"
   width="5"
   height="40"
   id="rect250" />
			<rect
   x="640.26"
   y="347.32"
   class="st8"
   width="5"
   height="40"
   id="rect252" />
			<rect
   x="652.76"
   y="347.32"
   class="st8"
   width="5"
   height="40"
   id="rect254" />
			<rect
   x="665.26"
   y="347.32"
   class="st8"
   width="5"
   height="40"
   id="rect256" />
			<rect
   x="677.76"
   y="347.32"
   class="st8"
   width="5"
   height="40"
   id="rect258" />
			<rect
   x="690.26"
   y="347.32"
   class="st8"
   width="5"
   height="40"
   id="rect260" />
			<rect
   x="702.76"
   y="347.32"
   class="st8"
   width="5"
   height="40"
   id="rect262" />
			<rect
   x="715.26"
   y="347.32"
   class="st8"
   width="5"
   height="40"
   id="rect264" />
			<rect
   x="727.76"
   y="347.32"
   class="st8"
   width="5"
   height="40"
   id="rect266" />
			<rect
   x="740.26"
   y="347.32"
   class="st8"
   width="5"
   height="40"
   id="rect268" />
			<rect
   x="752.76"
   y="347.32"
   class="st8"
   width="5"
   height="40"
   id="rect270" />
			<rect
   x="765.26"
   y="347.32"
   class="st7"
   width="5"
   height="40"
   id="rect272" />
			<rect
   x="832.76"
   y="342.32"
   class="st8"
   width="7.5"
   height="50"
   id="rect274" />
			<circle
   class="st7"
   cx="821.26"
   cy="346.32"
   r="4"
   id="circle276" />
			<circle
   class="st8"
   cx="821.26"
   cy="360.32"
   r="4"
   id="circle278" />
			<circle
   class="st9"
   cx="821.26"
   cy="388.32"
   r="4"
   id="circle280" />
			<circle
   class="st8"
   cx="821.26"
   cy="374.32"
   r="4"
   id="circle282" />
			<rect
   x="620.26"
   y="399.82"
   class="st10"
   width="220"
   height="5"
   id="rect284" />
		</g>
		<g
   id="g328">
			<rect
   x="612.76"
   y="264.82"
   class="st5"
   width="235"
   height="65"
   id="rect288" />
			<rect
   x="620.26"
   y="272.32"
   class="st6"
   width="157.5"
   height="50"
   id="rect290" />
			<rect
   x="627.76"
   y="277.32"
   class="st8"
   width="5"
   height="40"
   id="rect292" />
			<rect
   x="640.26"
   y="277.32"
   class="st7"
   width="5"
   height="40"
   id="rect294" />
			<rect
   x="652.76"
   y="277.32"
   class="st8"
   width="5"
   height="40"
   id="rect296" />
			<rect
   x="665.26"
   y="277.32"
   class="st8"
   width="5"
   height="40"
   id="rect298" />
			<rect
   x="677.76"
   y="277.32"
   class="st8"
   width="5"
   height="40"
   id="rect300" />
			<rect
   x="690.26"
   y="277.32"
   class="st8"
   width="5"
   height="40"
   id="rect302" />
			<rect
   x="702.76"
   y="277.32"
   class="st8"
   width="5"
   height="40"
   id="rect304" />
			<rect
   x="715.26"
   y="277.32"
   class="st8"
   width="5"
   height="40"
   id="rect306" />
			<rect
   x="727.76"
   y="277.32"
   class="st8"
   width="5"
   height="40"
   id="rect308" />
			<rect
   x="740.26"
   y="277.32"
   class="st8"
   width="5"
   height="40"
   id="rect310" />
			<rect
   x="752.76"
   y="277.32"
   class="st8"
   width="5"
   height="40"
   id="rect312" />
			<rect
   x="765.26"
   y="277.32"
   class="st8"
   width="5"
   height="40"
   id="rect314" />
			<rect
   x="832.76"
   y="272.32"
   class="st8"
   width="7.5"
   height="50"
   id="rect316" />
			<circle
   class="st8"
   cx="821.26"
   cy="276.32"
   r="4"
   id="circle318" />
			<circle
   class="st9"
   cx="821.26"
   cy="290.32"
   r="4"
   id="circle320" />
			<circle
   class="st7"
   cx="821.26"
   cy="318.32"
   r="4"
   id="circle322" />
			<circle
   class="st8"
   cx="821.26"
   cy="304.32"
   r="4"
   id="circle324" />
			<rect
   x="620.26"
   y="329.82"
   class="st10"
   width="220"
   height="5"
   id="rect326" />
		</g>
	</g>
	<g
   id="g444">
		<g
   id="g336">
			<rect
   x="612.76"
   y="614.82"
   class="st5"
   width="235"
   height="65"
   id="rect332" />
			<rect
   x="620.26"
   y="679.82"
   class="st10"
   width="220"
   height="5"
   id="rect334" />
		</g>
		<g
   id="g434">
			<rect
   x="620.26"
   y="625.38"
   class="st10"
   width="5"
   height="5"
   id="rect338" />
			<rect
   x="630.26"
   y="625.38"
   class="st10"
   width="5"
   height="5"
   id="rect340" />
			<rect
   x="640.26"
   y="625.38"
   class="st10"
   width="5"
   height="5"
   id="rect342" />
			<rect
   x="650.26"
   y="625.38"
   class="st10"
   width="5"
   height="5"
   id="rect344" />
			<rect
   x="660.26"
   y="625.38"
   class="st10"
   width="5"
   height="5"
   id="rect346" />
			<rect
   x="670.26"
   y="625.38"
   class="st10"
   width="5"
   height="5"
   id="rect348" />
			<rect
   x="680.26"
   y="625.38"
   class="st10"
   width="5"
   height="5"
   id="rect350" />
			<rect
   x="690.26"
   y="625.38"
   class="st10"
   width="5"
   height="5"
   id="rect352" />
			<rect
   x="700.26"
   y="625.38"
   class="st10"
   width="5"
   height="5"
   id="rect354" />
			<rect
   x="710.26"
   y="625.38"
   class="st10"
   width="5"
   height="5"
   id="rect356" />
			<rect
   x="625.26"
   y="635.38"
   class="st10"
   width="5"
   height="5"
   id="rect358" />
			<rect
   x="635.26"
   y="635.38"
   class="st10"
   width="5"
   height="5"
   id="rect360" />
			<rect
   x="645.26"
   y="635.38"
   class="st10"
   width="5"
   height="5"
   id="rect362" />
			<rect
   x="655.26"
   y="635.38"
   class="st10"
   width="5"
   height="5"
   id="rect364" />
			<rect
   x="665.26"
   y="635.38"
   class="st10"
   width="5"
   height="5"
   id="rect366" />
			<rect
   x="675.26"
   y="635.38"
   class="st10"
   width="5"
   height="5"
   id="rect368" />
			<rect
   x="685.26"
   y="635.38"
   class="st10"
   width="5"
   height="5"
   id="rect370" />
			<rect
   x="695.26"
   y="635.38"
   class="st10"
   width="5"
   height="5"
   id="rect372" />
			<rect
   x="705.26"
   y="635.38"
   class="st10"
   width="5"
   height="5"
   id="rect374" />
			<rect
   x="620.26"
   y="645.38"
   class="st10"
   width="5"
   height="5"
   id="rect376" />
			<rect
   x="630.26"
   y="645.38"
   class="st10"
   width="5"
   height="5"
   id="rect378" />
			<rect
   x="640.26"
   y="645.38"
   class="st10"
   width="5"
   height="5"
   id="rect380" />
			<rect
   x="650.26"
   y="645.38"
   class="st10"
   width="5"
   height="5"
   id="rect382" />
			<rect
   x="660.26"
   y="645.38"
   class="st10"
   width="5"
   height="5"
   id="rect384" />
			<rect
   x="670.26"
   y="645.38"
   class="st10"
   width="5"
   height="5"
   id="rect386" />
			<rect
   x="680.26"
   y="645.38"
   class="st10"
   width="5"
   height="5"
   id="rect388" />
			<rect
   x="690.26"
   y="645.38"
   class="st10"
   width="5"
   height="5"
   id="rect390" />
			<rect
   x="700.26"
   y="645.38"
   class="st10"
   width="5"
   height="5"
   id="rect392" />
			<rect
   x="710.26"
   y="645.38"
   class="st10"
   width="5"
   height="5"
   id="rect394" />
			<rect
   x="625.26"
   y="655.38"
   class="st10"
   width="5"
   height="5"
   id="rect396" />
			<rect
   x="635.26"
   y="655.38"
   class="st10"
   width="5"
   height="5"
   id="rect398" />
			<rect
   x="645.26"
   y="655.38"
   class="st10"
   width="5"
   height="5"
   id="rect400" />
			<rect
   x="655.26"
   y="655.38"
   class="st10"
   width="5"
   height="5"
   id="rect402" />
			<rect
   x="665.26"
   y="655.38"
   class="st10"
   width="5"
   height="5"
   id="rect404" />
			<rect
   x="675.26"
   y="655.38"
   class="st10"
   width="5"
   height="5"
   id="rect406" />
			<rect
   x="685.26"
   y="655.38"
   class="st10"
   width="5"
   height="5"
   id="rect408" />
			<rect
   x="695.26"
   y="655.38"
   class="st10"
   width="5"
   height="5"
   id="rect410" />
			<rect
   x="705.26"
   y="655.38"
   class="st10"
   width="5"
   height="5"
   id="rect412" />
			<rect
   x="620.26"
   y="665.38"
   class="st10"
   width="5"
   height="5"
   id="rect414" />
			<rect
   x="630.26"
   y="665.38"
   class="st10"
   width="5"
   height="5"
   id="rect416" />
			<rect
   x="640.26"
   y="665.38"
   class="st10"
   width="5"
   height="5"
   id="rect418" />
			<rect
   x="650.26"
   y="665.38"
   class="st10"
   width="5"
   height="5"
   id="rect420" />
			<rect
   x="660.26"
   y="665.38"
   class="st10"
   width="5"
   height="5"
   id="rect422" />
			<rect
   x="670.26"
   y="665.38"
   class="st10"
   width="5"
   height="5"
   id="rect424" />
			<rect
   x="680.26"
   y="665.38"
   class="st10"
   width="5"
   height="5"
   id="rect426" />
			<rect
   x="690.26"
   y="665.38"
   class="st10"
   width="5"
   height="5"
   id="rect428" />
			<rect
   x="700.26"
   y="665.38"
   class="st10"
   width="5"
   height="5"
   id="rect430" />
			<rect
   x="710.26"
   y="665.38"
   class="st10"
   width="5"
   height="5"
   id="rect432" />
		</g>
		<rect
   x="827.76"
   y="622.32"
   class="st6"
   width="12.5"
   height="50"
   id="rect436" />
		<path
   class="st11"
   d="M834.01,647.35L834.01,647.35c-2.07,0-3.75-1.68-3.75-3.75v-15.03c0-2.07,1.68-3.75,3.75-3.75l0,0    c2.07,0,3.75,1.68,3.75,3.75v15.03C837.76,645.67,836.09,647.35,834.01,647.35z"
   id="path438" />
		<circle
   class="st9"
   cx="834.01"
   cy="665.38"
   r="4"
   id="circle440" />
		<circle
   cx="834.01"
   cy="628.82"
   r="2.5"
   id="circle442" />
	</g>
	<path
   class="st12"
   d="M261,594.52H61c-5.52,0-10-4.48-10-10v-60c0-5.52,4.48-10,10-10h200c5.52,0,10,4.48,10,10v60   C271,590.05,266.52,594.52,261,594.52z"
   id="path446" />
	<g
   class="st1"
   id="g468">
		<path
   class="st9"
   d="M108.04,544.91l-6.33,11.21v6.71h-2.42v-6.71l-6.41-11.21h2.8l4.85,8.81l4.74-8.81H108.04z"
   id="path448" />
		<path
   class="st9"
   d="M106.42,556.77c0-3.61,2.75-6.44,6.51-6.44c3.76,0,6.49,2.83,6.49,6.44c0,3.58-2.73,6.44-6.49,6.44    C109.17,563.21,106.42,560.35,106.42,556.77z M116.95,556.77c0-2.42-1.56-4.29-4.01-4.29c-2.37,0-4.04,1.87-4.04,4.29    c0,2.4,1.64,4.29,4.04,4.29C115.38,561.06,116.95,559.17,116.95,556.77z"
   id="path450" />
		<path
   class="st9"
   d="M134.94,560.61v2.22h-0.73c-1.62,0-2.3-0.66-2.6-1.87c-0.93,1.41-2.47,2.25-4.37,2.25    c-3.1,0-5.17-1.84-5.17-5.53v-6.97h2.45v6.61c0,2.57,1.19,3.63,3.18,3.63c2.15,0,3.51-1.57,3.51-3.86v-6.38h2.42v8.61    c0,0.88,0.05,1.29,0.81,1.29H134.94z"
   id="path452" />
		<path
   class="st9"
   d="M144.49,550.71v2.25c-2.83,0-4.09,1.64-4.09,3.86v6.01h-2.42v-12.11h2.42v2.15    C141.28,551.52,142.72,550.71,144.49,550.71z"
   id="path454" />
		<path
   class="st9"
   d="M152.34,558.13l2.27-0.73c0.38,1.72,1.59,3.56,4.19,3.56c2.2,0,3.76-1.09,3.76-3.1    c0-4.04-9.62-2.45-9.62-8.08c0-3.41,2.88-5.25,5.8-5.25c2.85,0,5.02,1.51,5.86,4.01l-2.25,0.68c-0.48-1.39-1.67-2.47-3.56-2.47    c-1.62,0-3.36,0.76-3.36,2.78c0,3.76,9.62,1.99,9.62,8.18c0,3.33-2.5,5.5-6.31,5.5C154.94,563.21,152.92,560.71,152.34,558.13z"
   id="path456" />
		<path
   class="st9"
   d="M167.13,556.62c0-3.61,2.62-6.28,6.11-6.28c3.91,0,6.26,2.78,5.93,6.97h-9.54c0.2,2.52,1.69,3.84,3.68,3.84    c1.94,0,3.18-0.98,3.89-2.6l1.94,0.81c-0.93,2.27-3,3.86-5.83,3.86C169.5,563.21,167.13,560.28,167.13,556.62z M176.82,555.51    c-0.2-2.2-1.64-3.18-3.58-3.18c-2.02,0-3.33,1.41-3.58,3.18H176.82z"
   id="path458" />
		<path
   class="st9"
   d="M188.53,550.71v2.25c-2.83,0-4.09,1.64-4.09,3.86v6.01h-2.42v-12.11h2.42v2.15    C185.33,551.52,186.77,550.71,188.53,550.71z"
   id="path460" />
		<path
   class="st9"
   d="M202.62,550.71l-5.25,12.11h-2.15l-5.25-12.11h2.65l3.69,9.34l3.68-9.34H202.62z"
   id="path462" />
		<path
   class="st9"
   d="M203.5,556.62c0-3.61,2.62-6.28,6.11-6.28c3.91,0,6.26,2.78,5.93,6.97H206c0.2,2.52,1.69,3.84,3.68,3.84    c1.94,0,3.18-0.98,3.89-2.6l1.94,0.81c-0.93,2.27-3,3.86-5.83,3.86C205.88,563.21,203.5,560.28,203.5,556.62z M213.2,555.51    c-0.2-2.2-1.64-3.18-3.58-3.18c-2.02,0-3.33,1.41-3.58,3.18H213.2z"
   id="path464" />
		<path
   class="st9"
   d="M224.91,550.71v2.25c-2.83,0-4.09,1.64-4.09,3.86v6.01h-2.42v-12.11h2.42v2.15    C221.7,551.52,223.14,550.71,224.91,550.71z"
   id="path466" />
	</g>
	<path
   class="st12"
   d="M261,80.75H61c-5.52,0-10-4.48-10-10v-60c0-5.52,4.48-10,10-10h200c5.52,0,10,4.48,10,10v60   C271,76.27,266.52,80.75,261,80.75z"
   id="path470" />
	
	<g
   id="g536">
		<g
   id="g534">
			<rect
   x="43.5"
   y="645.23"
   class="st5"
   width="235"
   height="65"
   id="rect494" />
			<rect
   x="51"
   y="652.73"
   class="st6"
   width="157.5"
   height="50"
   id="rect496" />
			<rect
   x="58.5"
   y="657.73"
   class="st8"
   width="5"
   height="40"
   id="rect498" />
			<rect
   x="71"
   y="657.73"
   class="st8"
   width="5"
   height="40"
   id="rect500" />
			<rect
   x="83.5"
   y="657.73"
   class="st8"
   width="5"
   height="40"
   id="rect502" />
			<rect
   x="96"
   y="657.73"
   class="st8"
   width="5"
   height="40"
   id="rect504" />
			<rect
   x="108.5"
   y="657.73"
   class="st8"
   width="5"
   height="40"
   id="rect506" />
			<rect
   x="121"
   y="657.73"
   class="st8"
   width="5"
   height="40"
   id="rect508" />
			<rect
   x="133.5"
   y="657.73"
   class="st8"
   width="5"
   height="40"
   id="rect510" />
			<rect
   x="146"
   y="657.73"
   class="st8"
   width="5"
   height="40"
   id="rect512" />
			<rect
   x="158.5"
   y="657.73"
   class="st8"
   width="5"
   height="40"
   id="rect514" />
			<rect
   x="171"
   y="657.73"
   class="st8"
   width="5"
   height="40"
   id="rect516" />
			<rect
   x="183.5"
   y="657.73"
   class="st7"
   width="5"
   height="40"
   id="rect518" />
			<rect
   x="196"
   y="657.73"
   class="st8"
   width="5"
   height="40"
   id="rect520" />
			<rect
   x="263.5"
   y="652.73"
   class="st8"
   width="7.5"
   height="50"
   id="rect522" />
			<circle
   class="st8"
   cx="252"
   cy="656.73"
   r="4"
   id="circle524" />
			<circle
   class="st7"
   cx="252"
   cy="670.73"
   r="4"
   id="circle526" />
			<circle
   class="st9"
   cx="252"
   cy="698.73"
   r="4"
   id="circle528" />
			<circle
   class="st8"
   cx="252"
   cy="684.73"
   r="4"
   id="circle530" />
			<rect
   x="51"
   y="710.23"
   class="st10"
   width="220"
   height="5"
   id="rect532" />
		</g>
	</g>
	<g
   id="g650">
		<g
   id="g542">
			<rect
   x="43.5"
   y="715.23"
   class="st5"
   width="235"
   height="65"
   id="rect538" />
			<rect
   x="51"
   y="780.23"
   class="st10"
   width="220"
   height="5"
   id="rect540" />
		</g>
		<g
   id="g640">
			<rect
   x="51"
   y="725.79"
   class="st10"
   width="5"
   height="5"
   id="rect544" />
			<rect
   x="61"
   y="725.79"
   class="st10"
   width="5"
   height="5"
   id="rect546" />
			<rect
   x="71"
   y="725.79"
   class="st10"
   width="5"
   height="5"
   id="rect548" />
			<rect
   x="81"
   y="725.79"
   class="st10"
   width="5"
   height="5"
   id="rect550" />
			<rect
   x="91"
   y="725.79"
   class="st10"
   width="5"
   height="5"
   id="rect552" />
			<rect
   x="101"
   y="725.79"
   class="st10"
   width="5"
   height="5"
   id="rect554" />
			<rect
   x="111"
   y="725.79"
   class="st10"
   width="5"
   height="5"
   id="rect556" />
			<rect
   x="121"
   y="725.79"
   class="st10"
   width="5"
   height="5"
   id="rect558" />
			<rect
   x="131"
   y="725.79"
   class="st10"
   width="5"
   height="5"
   id="rect560" />
			<rect
   x="141"
   y="725.79"
   class="st10"
   width="5"
   height="5"
   id="rect562" />
			<rect
   x="56"
   y="735.79"
   class="st10"
   width="5"
   height="5"
   id="rect564" />
			<rect
   x="66"
   y="735.79"
   class="st10"
   width="5"
   height="5"
   id="rect566" />
			<rect
   x="76"
   y="735.79"
   class="st10"
   width="5"
   height="5"
   id="rect568" />
			<rect
   x="86"
   y="735.79"
   class="st10"
   width="5"
   height="5"
   id="rect570" />
			<rect
   x="96"
   y="735.79"
   class="st10"
   width="5"
   height="5"
   id="rect572" />
			<rect
   x="106"
   y="735.79"
   class="st10"
   width="5"
   height="5"
   id="rect574" />
			<rect
   x="116"
   y="735.79"
   class="st10"
   width="5"
   height="5"
   id="rect576" />
			<rect
   x="126"
   y="735.79"
   class="st10"
   width="5"
   height="5"
   id="rect578" />
			<rect
   x="136"
   y="735.79"
   class="st10"
   width="5"
   height="5"
   id="rect580" />
			<rect
   x="51"
   y="745.79"
   class="st10"
   width="5"
   height="5"
   id="rect582" />
			<rect
   x="61"
   y="745.79"
   class="st10"
   width="5"
   height="5"
   id="rect584" />
			<rect
   x="71"
   y="745.79"
   class="st10"
   width="5"
   height="5"
   id="rect586" />
			<rect
   x="81"
   y="745.79"
   class="st10"
   width="5"
   height="5"
   id="rect588" />
			<rect
   x="91"
   y="745.79"
   class="st10"
   width="5"
   height="5"
   id="rect590" />
			<rect
   x="101"
   y="745.79"
   class="st10"
   width="5"
   height="5"
   id="rect592" />
			<rect
   x="111"
   y="745.79"
   class="st10"
   width="5"
   height="5"
   id="rect594" />
			<rect
   x="121"
   y="745.79"
   class="st10"
   width="5"
   height="5"
   id="rect596" />
			<rect
   x="131"
   y="745.79"
   class="st10"
   width="5"
   height="5"
   id="rect598" />
			<rect
   x="141"
   y="745.79"
   class="st10"
   width="5"
   height="5"
   id="rect600" />
			<rect
   x="56"
   y="755.79"
   class="st10"
   width="5"
   height="5"
   id="rect602" />
			<rect
   x="66"
   y="755.79"
   class="st10"
   width="5"
   height="5"
   id="rect604" />
			<rect
   x="76"
   y="755.79"
   class="st10"
   width="5"
   height="5"
   id="rect606" />
			<rect
   x="86"
   y="755.79"
   class="st10"
   width="5"
   height="5"
   id="rect608" />
			<rect
   x="96"
   y="755.79"
   class="st10"
   width="5"
   height="5"
   id="rect610" />
			<rect
   x="106"
   y="755.79"
   class="st10"
   width="5"
   height="5"
   id="rect612" />
			<rect
   x="116"
   y="755.79"
   class="st10"
   width="5"
   height="5"
   id="rect614" />
			<rect
   x="126"
   y="755.79"
   class="st10"
   width="5"
   height="5"
   id="rect616" />
			<rect
   x="136"
   y="755.79"
   class="st10"
   width="5"
   height="5"
   id="rect618" />
			<rect
   x="51"
   y="765.79"
   class="st10"
   width="5"
   height="5"
   id="rect620" />
			<rect
   x="61"
   y="765.79"
   class="st10"
   width="5"
   height="5"
   id="rect622" />
			<rect
   x="71"
   y="765.79"
   class="st10"
   width="5"
   height="5"
   id="rect624" />
			<rect
   x="81"
   y="765.79"
   class="st10"
   width="5"
   height="5"
   id="rect626" />
			<rect
   x="91"
   y="765.79"
   class="st10"
   width="5"
   height="5"
   id="rect628" />
			<rect
   x="101"
   y="765.79"
   class="st10"
   width="5"
   height="5"
   id="rect630" />
			<rect
   x="111"
   y="765.79"
   class="st10"
   width="5"
   height="5"
   id="rect632" />
			<rect
   x="121"
   y="765.79"
   class="st10"
   width="5"
   height="5"
   id="rect634" />
			<rect
   x="131"
   y="765.79"
   class="st10"
   width="5"
   height="5"
   id="rect636" />
			<rect
   x="141"
   y="765.79"
   class="st10"
   width="5"
   height="5"
   id="rect638" />
		</g>
		<rect
   x="258.5"
   y="722.73"
   class="st6"
   width="12.5"
   height="50"
   id="rect642" />
		<path
   class="st11"
   d="M264.75,747.76L264.75,747.76c-2.07,0-3.75-1.68-3.75-3.75v-15.03c0-2.07,1.68-3.75,3.75-3.75l0,0    c2.07,0,3.75,1.68,3.75,3.75v15.03C268.5,746.08,266.82,747.76,264.75,747.76z"
   id="path644" />
		<circle
   class="st9"
   cx="264.75"
   cy="765.79"
   r="4"
   id="circle646" />
		<circle
   cx="264.75"
   cy="729.23"
   r="2.5"
   id="circle648" />
	</g>
	<path
   class="st12"
   d="M825.26,214.05h-190c-5.52,0-10-4.48-10-10v-70c0-5.52,4.48-10,10-10h190c5.52,0,10,4.48,10,10v70   C835.26,209.57,830.79,214.05,825.26,214.05z"
   id="path652" />
	<g
   id="g688">
		
		
	<text
   xml:space="preserve"
   style="font-weight:500;font-size:26.6667px;font-family:Forth;-inkscape-font-specification:'Forth Medium';text-align:center;text-anchor:middle;fill:#ffffff;stroke-opacity:0.839216"
   x="730.35626"
   y="175.47162"
   id="text1252"><tspan
     sodipodi:role="line"
     id="tspan1250"
     x="730.35626"
     y="175.47162"
     style="font-style:normal;font-variant:normal;font-weight:bold;font-stretch:normal;font-family:Forth;-inkscape-font-specification:'Forth Bold'">BR-DGE</tspan></text></g>
	<circle
   class="st13"
   cx="485.63"
   cy="251.46"
   r="25"
   id="circle690" />
	<g
   class="st1"
   id="g694">
		<path
   d="M482.83,258.31h8.66v2.22h-12.34v-1.64c4.69-5,9.89-7.6,9.89-11.08c0-2.3-1.56-3.36-3.79-3.33c-2.2,0-3.84,1.62-4.14,3.89    l-2.4-0.5c0.5-3.25,3.1-5.63,6.56-5.63c3.61,0,6.26,1.77,6.26,5.68C491.54,251.4,487.27,254.38,482.83,258.31z"
   id="path692" />
	</g>
	<circle
   class="st13"
   cx="445.63"
   cy="660.38"
   r="25"
   id="circle696" />
	<g
   class="st1"
   id="g700">
		<path
   d="M451.67,665.8h-1.99v3.66h-2.42v-3.66h-9.04v-1.82l9.34-12.44h2.12v12.04h1.99V665.8z M447.25,663.58v-8.15l-5.93,8.15    H447.25z"
   id="path698" />
	</g>
	<g
   id="g707">
		<g
   id="g704">
			<path
   id="Path_3462_00000106112559697416630700000005118357986976849842_"
   class="st12"
   d="M106,514.32V376.46" />
			<circle
   id="Ellipse_257_00000019642438190320573980000006912083886442429111_"
   cx="106"
   cy="376.46"
   r="5"
   fill="#999" />
		</g>
		<path
   id="Path_3462_00000002357477865957200260000013719548627799596475_"
   class="st12"
   d="M216,361.46v137.87" />
	</g>
	<circle
   id="Ellipse_257_00000098927166003541765630000008438708718323397031_"
   cx="216"
   cy="499.32"
   r="5"
   fill="#999" />
	<g
   id="g716">
		<circle
   class="st13"
   cx="216"
   cy="437.89"
   r="25"
   id="circle710" />
		<g
   class="st1"
   id="g714">
			<path
   d="M221.68,441.41c0,3.36-2.83,5.93-6.21,5.93c-3.08,0-5.73-2.2-6.18-5l2.47-0.58c0.2,1.84,1.84,3.26,3.71,3.26     c2.04,0,3.74-1.46,3.74-3.61c0-2.42-1.79-3.94-4.24-3.76c-0.5,0.03-1.06,0.23-1.56,0.48l-0.86-1.74l5.35-5.12h-7.85v-2.22h11.23     v1.89l-5.12,4.8C219.51,435.81,221.68,438.31,221.68,441.41z"
   id="path712" />
		</g>
	</g>
	<g
   id="g724">
		<circle
   class="st13"
   cx="106"
   cy="437.89"
   r="25"
   id="circle718" />
		<g
   class="st1"
   id="g722">
			<path
   d="M108.02,429.05v17.92h-2.42v-13.33c-0.88,0.33-2.12,0.48-3.84,0.48v-2.22c2.7,0.03,3.84-0.88,3.84-2.85H108.02z"
   id="path720" />
		</g>
	</g>
	<circle
   id="Ellipse_257_00000116202899989858125360000015543753777513198751_"
   cx="570.63"
   cy="660.23"
   r="5"
   fill="#999" />
	<circle
   id="Ellipse_257_00000075850731935766424910000014736368917599538059_"
   cx="570.63"
   cy="251.46"
   r="5"
   fill="#999" />
	
	
	
<g
   id="g545"
   transform="translate(1.397083,-21.397323)">
		
	<text
   xml:space="preserve"
   style="font-style:normal;font-variant:normal;font-weight:bold;font-stretch:normal;font-size:26.6667px;font-family:Forth;-inkscape-font-specification:'Forth Bold';fill:#ffffff;fill-opacity:1;stroke:none;stroke-opacity:0.839216"
   x="99.365234"
   y="71.084358"
   id="text3670"><tspan
     id="tspan3668"
     sodipodi:role="line"
     x="99.365234"
     y="71.084358" /></text><text
   xml:space="preserve"
   id="text3672"
   style="font-style:normal;font-variant:normal;font-weight:500;font-stretch:normal;font-size:26.6667px;font-family:Forth;-inkscape-font-specification:'Forth Medium';white-space:pre;shape-inside:url(#rect3674);display:inline;fill:#ffffff;fill-opacity:1;stroke:none;stroke-opacity:0.839216"
   transform="translate(-1.5286959,4.5860878)"><tspan
     x="66.498047"
     y="63.984973"
     id="tspan6980"><tspan
       style="font-weight:normal;-inkscape-font-specification:Forth"
       id="tspan6978">Your Client App</tspan></tspan></text></g></g>
</svg>
